%TF.GenerationSoftware,KiCad,Pcbnew,(5.1.9)-1*%
%TF.CreationDate,2021-09-29T12:39:09-05:00*%
%TF.ProjectId,zigbeeCape,7a696762-6565-4436-9170-652e6b696361,rev?*%
%TF.SameCoordinates,Original*%
%TF.FileFunction,Legend,Top*%
%TF.FilePolarity,Positive*%
%FSLAX46Y46*%
G04 Gerber Fmt 4.6, Leading zero omitted, Abs format (unit mm)*
G04 Created by KiCad (PCBNEW (5.1.9)-1) date 2021-09-29 12:39:09*
%MOMM*%
%LPD*%
G01*
G04 APERTURE LIST*
%ADD10C,0.150000*%
%ADD11C,0.300000*%
%ADD12C,0.120000*%
%ADD13C,0.100000*%
%ADD14C,0.076200*%
G04 APERTURE END LIST*
D10*
X1682714Y1071619D02*
X1111285Y1071619D01*
X1397000Y1071619D02*
X1397000Y2071619D01*
X1301761Y1928761D01*
X1206523Y1833523D01*
X1111285Y1785904D01*
X984285Y4897380D02*
X1031904Y4945000D01*
X1127142Y4992619D01*
X1365238Y4992619D01*
X1460476Y4945000D01*
X1508095Y4897380D01*
X1555714Y4802142D01*
X1555714Y4706904D01*
X1508095Y4564047D01*
X936666Y3992619D01*
X1555714Y3992619D01*
X62071285Y1992285D02*
X62071285Y1325619D01*
X61833190Y2373238D02*
X61595095Y1658952D01*
X62214142Y1658952D01*
X63071285Y2325619D02*
X62595095Y2325619D01*
X62547476Y1849428D01*
X62595095Y1897047D01*
X62690333Y1944666D01*
X62928428Y1944666D01*
X63023666Y1897047D01*
X63071285Y1849428D01*
X63118904Y1754190D01*
X63118904Y1516095D01*
X63071285Y1420857D01*
X63023666Y1373238D01*
X62928428Y1325619D01*
X62690333Y1325619D01*
X62595095Y1373238D01*
X62547476Y1420857D01*
X62071285Y4659285D02*
X62071285Y3992619D01*
X61833190Y5040238D02*
X61595095Y4325952D01*
X62214142Y4325952D01*
X63023666Y4992619D02*
X62833190Y4992619D01*
X62737952Y4945000D01*
X62690333Y4897380D01*
X62595095Y4754523D01*
X62547476Y4564047D01*
X62547476Y4183095D01*
X62595095Y4087857D01*
X62642714Y4040238D01*
X62737952Y3992619D01*
X62928428Y3992619D01*
X63023666Y4040238D01*
X63071285Y4087857D01*
X63118904Y4183095D01*
X63118904Y4421190D01*
X63071285Y4516428D01*
X63023666Y4564047D01*
X62928428Y4611666D01*
X62737952Y4611666D01*
X62642714Y4564047D01*
X62595095Y4516428D01*
X62547476Y4421190D01*
X62071285Y50252285D02*
X62071285Y49585619D01*
X61833190Y50633238D02*
X61595095Y49918952D01*
X62214142Y49918952D01*
X63071285Y50585619D02*
X62595095Y50585619D01*
X62547476Y50109428D01*
X62595095Y50157047D01*
X62690333Y50204666D01*
X62928428Y50204666D01*
X63023666Y50157047D01*
X63071285Y50109428D01*
X63118904Y50014190D01*
X63118904Y49776095D01*
X63071285Y49680857D01*
X63023666Y49633238D01*
X62928428Y49585619D01*
X62690333Y49585619D01*
X62595095Y49633238D01*
X62547476Y49680857D01*
X62071285Y52792285D02*
X62071285Y52125619D01*
X61833190Y53173238D02*
X61595095Y52458952D01*
X62214142Y52458952D01*
X63023666Y53125619D02*
X62833190Y53125619D01*
X62737952Y53078000D01*
X62690333Y53030380D01*
X62595095Y52887523D01*
X62547476Y52697047D01*
X62547476Y52316095D01*
X62595095Y52220857D01*
X62642714Y52173238D01*
X62737952Y52125619D01*
X62928428Y52125619D01*
X63023666Y52173238D01*
X63071285Y52220857D01*
X63118904Y52316095D01*
X63118904Y52554190D01*
X63071285Y52649428D01*
X63023666Y52697047D01*
X62928428Y52744666D01*
X62737952Y52744666D01*
X62642714Y52697047D01*
X62595095Y52649428D01*
X62547476Y52554190D01*
X1111285Y53284380D02*
X1158904Y53332000D01*
X1254142Y53379619D01*
X1492238Y53379619D01*
X1587476Y53332000D01*
X1635095Y53284380D01*
X1682714Y53189142D01*
X1682714Y53093904D01*
X1635095Y52951047D01*
X1063666Y52379619D01*
X1682714Y52379619D01*
X1682714Y49077619D02*
X1111285Y49077619D01*
X1397000Y49077619D02*
X1397000Y50077619D01*
X1301761Y49934761D01*
X1206523Y49839523D01*
X1111285Y49791904D01*
D11*
X8867571Y47049428D02*
X9867571Y47049428D01*
X8867571Y45549428D01*
X9867571Y45549428D01*
X10439000Y45549428D02*
X10439000Y46549428D01*
X10439000Y47049428D02*
X10367571Y46978000D01*
X10439000Y46906571D01*
X10510428Y46978000D01*
X10439000Y47049428D01*
X10439000Y46906571D01*
X11796142Y46549428D02*
X11796142Y45335142D01*
X11724714Y45192285D01*
X11653285Y45120857D01*
X11510428Y45049428D01*
X11296142Y45049428D01*
X11153285Y45120857D01*
X11796142Y45620857D02*
X11653285Y45549428D01*
X11367571Y45549428D01*
X11224714Y45620857D01*
X11153285Y45692285D01*
X11081857Y45835142D01*
X11081857Y46263714D01*
X11153285Y46406571D01*
X11224714Y46478000D01*
X11367571Y46549428D01*
X11653285Y46549428D01*
X11796142Y46478000D01*
X13010428Y46335142D02*
X13224714Y46263714D01*
X13296142Y46192285D01*
X13367571Y46049428D01*
X13367571Y45835142D01*
X13296142Y45692285D01*
X13224714Y45620857D01*
X13081857Y45549428D01*
X12510428Y45549428D01*
X12510428Y47049428D01*
X13010428Y47049428D01*
X13153285Y46978000D01*
X13224714Y46906571D01*
X13296142Y46763714D01*
X13296142Y46620857D01*
X13224714Y46478000D01*
X13153285Y46406571D01*
X13010428Y46335142D01*
X12510428Y46335142D01*
X14581857Y45620857D02*
X14439000Y45549428D01*
X14153285Y45549428D01*
X14010428Y45620857D01*
X13939000Y45763714D01*
X13939000Y46335142D01*
X14010428Y46478000D01*
X14153285Y46549428D01*
X14439000Y46549428D01*
X14581857Y46478000D01*
X14653285Y46335142D01*
X14653285Y46192285D01*
X13939000Y46049428D01*
X15867571Y45620857D02*
X15724714Y45549428D01*
X15439000Y45549428D01*
X15296142Y45620857D01*
X15224714Y45763714D01*
X15224714Y46335142D01*
X15296142Y46478000D01*
X15439000Y46549428D01*
X15724714Y46549428D01*
X15867571Y46478000D01*
X15939000Y46335142D01*
X15939000Y46192285D01*
X15224714Y46049428D01*
X18581857Y45692285D02*
X18510428Y45620857D01*
X18296142Y45549428D01*
X18153285Y45549428D01*
X17939000Y45620857D01*
X17796142Y45763714D01*
X17724714Y45906571D01*
X17653285Y46192285D01*
X17653285Y46406571D01*
X17724714Y46692285D01*
X17796142Y46835142D01*
X17939000Y46978000D01*
X18153285Y47049428D01*
X18296142Y47049428D01*
X18510428Y46978000D01*
X18581857Y46906571D01*
X19867571Y45549428D02*
X19867571Y46335142D01*
X19796142Y46478000D01*
X19653285Y46549428D01*
X19367571Y46549428D01*
X19224714Y46478000D01*
X19867571Y45620857D02*
X19724714Y45549428D01*
X19367571Y45549428D01*
X19224714Y45620857D01*
X19153285Y45763714D01*
X19153285Y45906571D01*
X19224714Y46049428D01*
X19367571Y46120857D01*
X19724714Y46120857D01*
X19867571Y46192285D01*
X20581857Y46549428D02*
X20581857Y45049428D01*
X20581857Y46478000D02*
X20724714Y46549428D01*
X21010428Y46549428D01*
X21153285Y46478000D01*
X21224714Y46406571D01*
X21296142Y46263714D01*
X21296142Y45835142D01*
X21224714Y45692285D01*
X21153285Y45620857D01*
X21010428Y45549428D01*
X20724714Y45549428D01*
X20581857Y45620857D01*
X22510428Y45620857D02*
X22367571Y45549428D01*
X22081857Y45549428D01*
X21938999Y45620857D01*
X21867571Y45763714D01*
X21867571Y46335142D01*
X21938999Y46478000D01*
X22081857Y46549428D01*
X22367571Y46549428D01*
X22510428Y46478000D01*
X22581857Y46335142D01*
X22581857Y46192285D01*
X21867571Y46049428D01*
X25224714Y45549428D02*
X24724714Y46263714D01*
X24367571Y45549428D02*
X24367571Y47049428D01*
X24939000Y47049428D01*
X25081857Y46978000D01*
X25153285Y46906571D01*
X25224714Y46763714D01*
X25224714Y46549428D01*
X25153285Y46406571D01*
X25081857Y46335142D01*
X24939000Y46263714D01*
X24367571Y46263714D01*
X26439000Y45620857D02*
X26296142Y45549428D01*
X26010428Y45549428D01*
X25867571Y45620857D01*
X25796142Y45763714D01*
X25796142Y46335142D01*
X25867571Y46478000D01*
X26010428Y46549428D01*
X26296142Y46549428D01*
X26439000Y46478000D01*
X26510428Y46335142D01*
X26510428Y46192285D01*
X25796142Y46049428D01*
X27010428Y46549428D02*
X27367571Y45549428D01*
X27724714Y46549428D01*
X28296142Y45692285D02*
X28367571Y45620857D01*
X28296142Y45549428D01*
X28224714Y45620857D01*
X28296142Y45692285D01*
X28296142Y45549428D01*
X30938999Y45549428D02*
X30081857Y45549428D01*
X30510428Y45549428D02*
X30510428Y47049428D01*
X30367571Y46835142D01*
X30224714Y46692285D01*
X30081857Y46620857D01*
D12*
%TO.C,SW5*%
X16829600Y12841800D02*
X12329600Y12841800D01*
X12329600Y12841800D02*
X12329600Y8341800D01*
X12329600Y8341800D02*
X16829600Y8341800D01*
X16829600Y12841800D02*
X16829600Y8341800D01*
%TO.C,C2*%
X49459933Y28217400D02*
X49752467Y28217400D01*
X49459933Y29237400D02*
X49752467Y29237400D01*
%TO.C,SW3*%
X53858600Y8265600D02*
X58358600Y8265600D01*
X58358600Y8265600D02*
X58358600Y12765600D01*
X58358600Y12765600D02*
X53858600Y12765600D01*
X53858600Y8265600D02*
X53858600Y12765600D01*
%TO.C,SW2*%
X54061800Y18578000D02*
X58561800Y18578000D01*
X58561800Y18578000D02*
X58561800Y23078000D01*
X58561800Y23078000D02*
X54061800Y23078000D01*
X54061800Y18578000D02*
X54061800Y23078000D01*
%TO.C,SW1*%
X54138000Y25055000D02*
X58638000Y25055000D01*
X58638000Y25055000D02*
X58638000Y29555000D01*
X58638000Y29555000D02*
X54138000Y29555000D01*
X54138000Y25055000D02*
X54138000Y29555000D01*
%TO.C,SW4*%
X54061800Y41869800D02*
X58561800Y41869800D01*
X58561800Y41869800D02*
X58561800Y46369800D01*
X58561800Y46369800D02*
X54061800Y46369800D01*
X54061800Y41869800D02*
X54061800Y46369800D01*
%TO.C,U2*%
X23176000Y32401000D02*
X23176000Y34401000D01*
X23176000Y34401000D02*
X24576000Y34401000D01*
X24576000Y34401000D02*
X24576000Y32401000D01*
X24576000Y32401000D02*
X23176000Y32401000D01*
X24676000Y32101000D02*
G75*
G03*
X24676000Y32101000I-100000J0D01*
G01*
%TO.C,U1*%
X44860000Y38010000D02*
X45160000Y38010000D01*
X45160000Y38010000D02*
X45160000Y37710000D01*
X44860000Y30910000D02*
X45160000Y30910000D01*
X45160000Y30910000D02*
X45160000Y31210000D01*
X38360000Y30910000D02*
X38060000Y30910000D01*
X38060000Y30910000D02*
X38060000Y31210000D01*
X38360000Y38010000D02*
X37835000Y38010000D01*
%TO.C,U3*%
X13211000Y24406000D02*
X13211000Y20806000D01*
X20571000Y24406000D02*
X20571000Y20806000D01*
X15091000Y18926000D02*
X18691000Y18926000D01*
X15091000Y26286000D02*
X18691000Y26286000D01*
%TO.C,C14*%
X30459000Y21705835D02*
X30459000Y21474165D01*
X29739000Y21705835D02*
X29739000Y21474165D01*
%TO.C,C12*%
X32999000Y21705835D02*
X32999000Y21474165D01*
X32279000Y21705835D02*
X32279000Y21474165D01*
D13*
%TO.C,J1*%
G36*
X57404000Y33528000D02*
G01*
X53594000Y33528000D01*
X53594000Y34036000D01*
X57404000Y34036000D01*
X57404000Y33528000D01*
G37*
X57404000Y33528000D02*
X53594000Y33528000D01*
X53594000Y34036000D01*
X57404000Y34036000D01*
X57404000Y33528000D01*
G36*
X58547000Y40767000D02*
G01*
X56261000Y40767000D01*
X56261000Y41021000D01*
X58547000Y41021000D01*
X58547000Y40767000D01*
G37*
X58547000Y40767000D02*
X56261000Y40767000D01*
X56261000Y41021000D01*
X58547000Y41021000D01*
X58547000Y40767000D01*
D12*
%TO.C,C5*%
X42906733Y40134000D02*
X43199267Y40134000D01*
X42906733Y39114000D02*
X43199267Y39114000D01*
%TO.C,L12*%
X26516200Y29062000D02*
X26315800Y29062000D01*
X26516200Y28342000D02*
X26315800Y28342000D01*
%TO.C,L11*%
X29915294Y29916411D02*
X29773589Y29774706D01*
X30424411Y29407294D02*
X30282706Y29265589D01*
%TO.C,L9*%
X29773589Y32074294D02*
X29915294Y31932589D01*
X30282706Y32583411D02*
X30424411Y32441706D01*
%TO.C,L8*%
X31551589Y32074294D02*
X31693294Y31932589D01*
X32060706Y32583411D02*
X32202411Y32441706D01*
%TO.C,L6*%
X34516294Y34405411D02*
X34374589Y34263706D01*
X35025411Y33896294D02*
X34883706Y33754589D01*
%TO.C,L5*%
X33676294Y35215411D02*
X33534589Y35073706D01*
X34185411Y34706294D02*
X34043706Y34564589D01*
%TO.C,L2*%
X34656294Y37917411D02*
X34514589Y37775706D01*
X35165411Y37408294D02*
X35023706Y37266589D01*
%TO.C,C29*%
X23991835Y30332000D02*
X23760165Y30332000D01*
X23991835Y29612000D02*
X23760165Y29612000D01*
%TO.C,C28*%
X24151000Y28182835D02*
X24151000Y27951165D01*
X24871000Y28182835D02*
X24871000Y27951165D01*
%TO.C,C27*%
X27961000Y28182835D02*
X27961000Y27951165D01*
X28681000Y28182835D02*
X28681000Y27951165D01*
%TO.C,C26*%
X23068349Y36785466D02*
X22904534Y36621651D01*
X23577466Y36276349D02*
X23413651Y36112534D01*
%TO.C,C25*%
X24682534Y37165349D02*
X24846349Y37001534D01*
X25191651Y37674466D02*
X25355466Y37510651D01*
%TO.C,C24*%
X29037349Y30816466D02*
X28873534Y30652651D01*
X29546466Y30307349D02*
X29382651Y30143534D01*
%TO.C,C23*%
X31540534Y30307349D02*
X31704349Y30143534D01*
X32049651Y30816466D02*
X32213466Y30652651D01*
%TO.C,C22*%
X28493651Y31032534D02*
X28657466Y31196349D01*
X27984534Y31541651D02*
X28148349Y31705466D01*
%TO.C,C21*%
X27133466Y41066651D02*
X26969651Y41230466D01*
X26624349Y40557534D02*
X26460534Y40721349D01*
%TO.C,C20*%
X32513534Y32947349D02*
X32677349Y32783534D01*
X33022651Y33456466D02*
X33186466Y33292651D01*
%TO.C,C19*%
X33356466Y40431651D02*
X33192651Y40595466D01*
X32847349Y39922534D02*
X32683534Y40086349D01*
%TO.C,C18*%
X32847349Y37928466D02*
X32683534Y37764651D01*
X33356466Y37419349D02*
X33192651Y37255534D01*
%TO.C,C17*%
X33572534Y40975349D02*
X33736349Y40811534D01*
X34081651Y41484466D02*
X34245466Y41320651D01*
%TO.C,U5*%
X61020000Y575000D02*
X61020000Y5775000D01*
X5080000Y575000D02*
X61020000Y575000D01*
X2480000Y5775000D02*
X61020000Y5775000D01*
X5080000Y575000D02*
X5080000Y3175000D01*
X5080000Y3175000D02*
X2480000Y3175000D01*
X2480000Y3175000D02*
X2480000Y5775000D01*
X3810000Y575000D02*
X2480000Y575000D01*
X2480000Y575000D02*
X2480000Y1905000D01*
%TO.C,D3*%
X50047000Y35660000D02*
X47587000Y35660000D01*
X50047000Y34190000D02*
X50047000Y35660000D01*
X47587000Y34190000D02*
X50047000Y34190000D01*
%TO.C,U4*%
X2480000Y48835000D02*
X2480000Y50165000D01*
X3810000Y48835000D02*
X2480000Y48835000D01*
X2480000Y51435000D02*
X2480000Y54035000D01*
X5080000Y51435000D02*
X2480000Y51435000D01*
X5080000Y48835000D02*
X5080000Y51435000D01*
X2480000Y54035000D02*
X61020000Y54035000D01*
X5080000Y48835000D02*
X61020000Y48835000D01*
X61020000Y48835000D02*
X61020000Y54035000D01*
%TO.C,C1*%
X49557400Y12185867D02*
X49557400Y11893333D01*
X48537400Y12185867D02*
X48537400Y11893333D01*
%TO.C,C3*%
X50802000Y20847267D02*
X50802000Y20554733D01*
X49782000Y20847267D02*
X49782000Y20554733D01*
%TO.C,C4*%
X21697733Y8384000D02*
X21990267Y8384000D01*
X21697733Y7364000D02*
X21990267Y7364000D01*
%TO.C,C7*%
X49295267Y44829000D02*
X49002733Y44829000D01*
X49295267Y45849000D02*
X49002733Y45849000D01*
%TO.C,D1*%
X53175000Y14251000D02*
X55635000Y14251000D01*
X55635000Y14251000D02*
X55635000Y15721000D01*
X55635000Y15721000D02*
X53175000Y15721000D01*
%TO.C,D2*%
X55635000Y17499000D02*
X53175000Y17499000D01*
X55635000Y16029000D02*
X55635000Y17499000D01*
X53175000Y16029000D02*
X55635000Y16029000D01*
%TO.C,D4*%
X51037600Y26541400D02*
X48577600Y26541400D01*
X51037600Y25071400D02*
X51037600Y26541400D01*
X48577600Y25071400D02*
X51037600Y25071400D01*
%TO.C,D5*%
X46752400Y7951800D02*
X49212400Y7951800D01*
X46752400Y9421800D02*
X46752400Y7951800D01*
X49212400Y9421800D02*
X46752400Y9421800D01*
%TO.C,D6*%
X44756000Y18515000D02*
X42296000Y18515000D01*
X42296000Y18515000D02*
X42296000Y17045000D01*
X42296000Y17045000D02*
X44756000Y17045000D01*
%TO.C,L3*%
X35123411Y39186294D02*
X34981706Y39044589D01*
X34614294Y39695411D02*
X34472589Y39553706D01*
%TO.C,L4*%
X32456411Y39553706D02*
X32314706Y39695411D01*
X31947294Y39044589D02*
X31805589Y39186294D01*
%TO.C,L7*%
X29818200Y40661000D02*
X29617800Y40661000D01*
X29818200Y41381000D02*
X29617800Y41381000D01*
%TO.C,L10*%
X25724294Y39441411D02*
X25582589Y39299706D01*
X26233411Y38932294D02*
X26091706Y38790589D01*
%TO.C,R1*%
X22098724Y10428500D02*
X21589276Y10428500D01*
X22098724Y9383500D02*
X21589276Y9383500D01*
%TO.C,R2*%
X52451724Y40146500D02*
X51942276Y40146500D01*
X52451724Y39101500D02*
X51942276Y39101500D01*
%TO.C,R3*%
X49403724Y43038500D02*
X48894276Y43038500D01*
X49403724Y44083500D02*
X48894276Y44083500D01*
%TO.C,R4*%
X52324724Y34402500D02*
X51815276Y34402500D01*
X52324724Y35447500D02*
X51815276Y35447500D01*
%TO.C,R5*%
X48514724Y31256500D02*
X48005276Y31256500D01*
X48514724Y30211500D02*
X48005276Y30211500D01*
%TO.C,R6*%
X57530276Y15508500D02*
X58039724Y15508500D01*
X57530276Y14463500D02*
X58039724Y14463500D01*
%TO.C,R7*%
X52324724Y32370500D02*
X51815276Y32370500D01*
X52324724Y33415500D02*
X51815276Y33415500D01*
%TO.C,R8*%
X57530276Y16241500D02*
X58039724Y16241500D01*
X57530276Y17286500D02*
X58039724Y17286500D01*
%TO.C,R9*%
X48499500Y37337276D02*
X48499500Y37846724D01*
X49544500Y37337276D02*
X49544500Y37846724D01*
%TO.C,R10*%
X49148276Y23480500D02*
X49657724Y23480500D01*
X49148276Y24525500D02*
X49657724Y24525500D01*
%TO.C,R11*%
X44399924Y8164300D02*
X43890476Y8164300D01*
X44399924Y9209300D02*
X43890476Y9209300D01*
%TO.C,R12*%
X43687276Y15352500D02*
X44196724Y15352500D01*
X43687276Y16397500D02*
X44196724Y16397500D01*
%TO.C,R17*%
X35799500Y24129276D02*
X35799500Y24638724D01*
X36844500Y24129276D02*
X36844500Y24638724D01*
%TO.C,R19*%
X35799500Y20193724D02*
X35799500Y19684276D01*
X36844500Y20193724D02*
X36844500Y19684276D01*
%TO.C,SW5*%
D14*
X10600266Y10386180D02*
X10672838Y10361990D01*
X10793790Y10361990D01*
X10842171Y10386180D01*
X10866361Y10410371D01*
X10890552Y10458752D01*
X10890552Y10507133D01*
X10866361Y10555514D01*
X10842171Y10579704D01*
X10793790Y10603895D01*
X10697028Y10628085D01*
X10648647Y10652276D01*
X10624457Y10676466D01*
X10600266Y10724847D01*
X10600266Y10773228D01*
X10624457Y10821609D01*
X10648647Y10845800D01*
X10697028Y10869990D01*
X10817980Y10869990D01*
X10890552Y10845800D01*
X11059885Y10869990D02*
X11180838Y10361990D01*
X11277600Y10724847D01*
X11374361Y10361990D01*
X11495314Y10869990D01*
X11930742Y10869990D02*
X11688838Y10869990D01*
X11664647Y10628085D01*
X11688838Y10652276D01*
X11737219Y10676466D01*
X11858171Y10676466D01*
X11906552Y10652276D01*
X11930742Y10628085D01*
X11954933Y10579704D01*
X11954933Y10458752D01*
X11930742Y10410371D01*
X11906552Y10386180D01*
X11858171Y10361990D01*
X11737219Y10361990D01*
X11688838Y10386180D01*
X11664647Y10410371D01*
%TO.C,C2*%
X49521533Y29688971D02*
X49497342Y29664780D01*
X49424771Y29640590D01*
X49376390Y29640590D01*
X49303819Y29664780D01*
X49255438Y29713161D01*
X49231247Y29761542D01*
X49207057Y29858304D01*
X49207057Y29930876D01*
X49231247Y30027638D01*
X49255438Y30076019D01*
X49303819Y30124400D01*
X49376390Y30148590D01*
X49424771Y30148590D01*
X49497342Y30124400D01*
X49521533Y30100209D01*
X49715057Y30100209D02*
X49739247Y30124400D01*
X49787628Y30148590D01*
X49908580Y30148590D01*
X49956961Y30124400D01*
X49981152Y30100209D01*
X50005342Y30051828D01*
X50005342Y30003447D01*
X49981152Y29930876D01*
X49690866Y29640590D01*
X50005342Y29640590D01*
%TO.C,SW3*%
X52129266Y10309980D02*
X52201838Y10285790D01*
X52322790Y10285790D01*
X52371171Y10309980D01*
X52395361Y10334171D01*
X52419552Y10382552D01*
X52419552Y10430933D01*
X52395361Y10479314D01*
X52371171Y10503504D01*
X52322790Y10527695D01*
X52226028Y10551885D01*
X52177647Y10576076D01*
X52153457Y10600266D01*
X52129266Y10648647D01*
X52129266Y10697028D01*
X52153457Y10745409D01*
X52177647Y10769600D01*
X52226028Y10793790D01*
X52346980Y10793790D01*
X52419552Y10769600D01*
X52588885Y10793790D02*
X52709838Y10285790D01*
X52806600Y10648647D01*
X52903361Y10285790D01*
X53024314Y10793790D01*
X53169457Y10793790D02*
X53483933Y10793790D01*
X53314600Y10600266D01*
X53387171Y10600266D01*
X53435552Y10576076D01*
X53459742Y10551885D01*
X53483933Y10503504D01*
X53483933Y10382552D01*
X53459742Y10334171D01*
X53435552Y10309980D01*
X53387171Y10285790D01*
X53242028Y10285790D01*
X53193647Y10309980D01*
X53169457Y10334171D01*
%TO.C,SW2*%
X52332466Y20622380D02*
X52405038Y20598190D01*
X52525990Y20598190D01*
X52574371Y20622380D01*
X52598561Y20646571D01*
X52622752Y20694952D01*
X52622752Y20743333D01*
X52598561Y20791714D01*
X52574371Y20815904D01*
X52525990Y20840095D01*
X52429228Y20864285D01*
X52380847Y20888476D01*
X52356657Y20912666D01*
X52332466Y20961047D01*
X52332466Y21009428D01*
X52356657Y21057809D01*
X52380847Y21082000D01*
X52429228Y21106190D01*
X52550180Y21106190D01*
X52622752Y21082000D01*
X52792085Y21106190D02*
X52913038Y20598190D01*
X53009800Y20961047D01*
X53106561Y20598190D01*
X53227514Y21106190D01*
X53396847Y21057809D02*
X53421038Y21082000D01*
X53469419Y21106190D01*
X53590371Y21106190D01*
X53638752Y21082000D01*
X53662942Y21057809D01*
X53687133Y21009428D01*
X53687133Y20961047D01*
X53662942Y20888476D01*
X53372657Y20598190D01*
X53687133Y20598190D01*
%TO.C,SW1*%
X52408666Y27099380D02*
X52481238Y27075190D01*
X52602190Y27075190D01*
X52650571Y27099380D01*
X52674761Y27123571D01*
X52698952Y27171952D01*
X52698952Y27220333D01*
X52674761Y27268714D01*
X52650571Y27292904D01*
X52602190Y27317095D01*
X52505428Y27341285D01*
X52457047Y27365476D01*
X52432857Y27389666D01*
X52408666Y27438047D01*
X52408666Y27486428D01*
X52432857Y27534809D01*
X52457047Y27559000D01*
X52505428Y27583190D01*
X52626380Y27583190D01*
X52698952Y27559000D01*
X52868285Y27583190D02*
X52989238Y27075190D01*
X53086000Y27438047D01*
X53182761Y27075190D01*
X53303714Y27583190D01*
X53763333Y27075190D02*
X53473047Y27075190D01*
X53618190Y27075190D02*
X53618190Y27583190D01*
X53569809Y27510619D01*
X53521428Y27462238D01*
X53473047Y27438047D01*
%TO.C,SW4*%
X52459466Y43914180D02*
X52532038Y43889990D01*
X52652990Y43889990D01*
X52701371Y43914180D01*
X52725561Y43938371D01*
X52749752Y43986752D01*
X52749752Y44035133D01*
X52725561Y44083514D01*
X52701371Y44107704D01*
X52652990Y44131895D01*
X52556228Y44156085D01*
X52507847Y44180276D01*
X52483657Y44204466D01*
X52459466Y44252847D01*
X52459466Y44301228D01*
X52483657Y44349609D01*
X52507847Y44373800D01*
X52556228Y44397990D01*
X52677180Y44397990D01*
X52749752Y44373800D01*
X52919085Y44397990D02*
X53040038Y43889990D01*
X53136800Y44252847D01*
X53233561Y43889990D01*
X53354514Y44397990D01*
X53765752Y44228657D02*
X53765752Y43889990D01*
X53644800Y44422180D02*
X53523847Y44059323D01*
X53838323Y44059323D01*
%TO.C,Y2*%
X39151610Y43030884D02*
X39322663Y42859831D01*
X38843716Y43099305D02*
X39151610Y43030884D01*
X39083189Y43338778D01*
X39220031Y43407199D02*
X39220031Y43441410D01*
X39237137Y43492725D01*
X39322663Y43578252D01*
X39373979Y43595357D01*
X39408189Y43595357D01*
X39459505Y43578252D01*
X39493715Y43544041D01*
X39527926Y43475620D01*
X39527926Y43065094D01*
X39750294Y43287462D01*
%TO.C,U2*%
X21692809Y33013952D02*
X22104047Y33013952D01*
X22152428Y33038142D01*
X22176619Y33062333D01*
X22200809Y33110714D01*
X22200809Y33207476D01*
X22176619Y33255857D01*
X22152428Y33280047D01*
X22104047Y33304238D01*
X21692809Y33304238D01*
X21741190Y33521952D02*
X21717000Y33546142D01*
X21692809Y33594523D01*
X21692809Y33715476D01*
X21717000Y33763857D01*
X21741190Y33788047D01*
X21789571Y33812238D01*
X21837952Y33812238D01*
X21910523Y33788047D01*
X22200809Y33497761D01*
X22200809Y33812238D01*
%TO.C,U1*%
X37511952Y39394190D02*
X37511952Y38982952D01*
X37536142Y38934571D01*
X37560333Y38910380D01*
X37608714Y38886190D01*
X37705476Y38886190D01*
X37753857Y38910380D01*
X37778047Y38934571D01*
X37802238Y38982952D01*
X37802238Y39394190D01*
X38310238Y38886190D02*
X38019952Y38886190D01*
X38165095Y38886190D02*
X38165095Y39394190D01*
X38116714Y39321619D01*
X38068333Y39273238D01*
X38019952Y39249047D01*
%TO.C,U3*%
X12947952Y27583190D02*
X12947952Y27171952D01*
X12972142Y27123571D01*
X12996333Y27099380D01*
X13044714Y27075190D01*
X13141476Y27075190D01*
X13189857Y27099380D01*
X13214047Y27123571D01*
X13238238Y27171952D01*
X13238238Y27583190D01*
X13431761Y27583190D02*
X13746238Y27583190D01*
X13576904Y27389666D01*
X13649476Y27389666D01*
X13697857Y27365476D01*
X13722047Y27341285D01*
X13746238Y27292904D01*
X13746238Y27171952D01*
X13722047Y27123571D01*
X13697857Y27099380D01*
X13649476Y27075190D01*
X13504333Y27075190D01*
X13455952Y27099380D01*
X13431761Y27123571D01*
%TO.C,C14*%
X31169428Y21263428D02*
X31193619Y21239238D01*
X31217809Y21166666D01*
X31217809Y21118285D01*
X31193619Y21045714D01*
X31145238Y20997333D01*
X31096857Y20973142D01*
X31000095Y20948952D01*
X30927523Y20948952D01*
X30830761Y20973142D01*
X30782380Y20997333D01*
X30734000Y21045714D01*
X30709809Y21118285D01*
X30709809Y21166666D01*
X30734000Y21239238D01*
X30758190Y21263428D01*
X31217809Y21747238D02*
X31217809Y21456952D01*
X31217809Y21602095D02*
X30709809Y21602095D01*
X30782380Y21553714D01*
X30830761Y21505333D01*
X30854952Y21456952D01*
X30879142Y22182666D02*
X31217809Y22182666D01*
X30685619Y22061714D02*
X31048476Y21940761D01*
X31048476Y22255238D01*
%TO.C,C12*%
X33836428Y21263428D02*
X33860619Y21239238D01*
X33884809Y21166666D01*
X33884809Y21118285D01*
X33860619Y21045714D01*
X33812238Y20997333D01*
X33763857Y20973142D01*
X33667095Y20948952D01*
X33594523Y20948952D01*
X33497761Y20973142D01*
X33449380Y20997333D01*
X33401000Y21045714D01*
X33376809Y21118285D01*
X33376809Y21166666D01*
X33401000Y21239238D01*
X33425190Y21263428D01*
X33884809Y21747238D02*
X33884809Y21456952D01*
X33884809Y21602095D02*
X33376809Y21602095D01*
X33449380Y21553714D01*
X33497761Y21505333D01*
X33521952Y21456952D01*
X33425190Y21940761D02*
X33401000Y21964952D01*
X33376809Y22013333D01*
X33376809Y22134285D01*
X33401000Y22182666D01*
X33425190Y22206857D01*
X33473571Y22231047D01*
X33521952Y22231047D01*
X33594523Y22206857D01*
X33884809Y21916571D01*
X33884809Y22231047D01*
%TO.C,J1*%
X55202666Y41172190D02*
X55202666Y40809333D01*
X55178476Y40736761D01*
X55130095Y40688380D01*
X55057523Y40664190D01*
X55009142Y40664190D01*
X55710666Y40664190D02*
X55420380Y40664190D01*
X55565523Y40664190D02*
X55565523Y41172190D01*
X55517142Y41099619D01*
X55468761Y41051238D01*
X55420380Y41027047D01*
%TO.C,C5*%
X42968333Y40585571D02*
X42944142Y40561380D01*
X42871571Y40537190D01*
X42823190Y40537190D01*
X42750619Y40561380D01*
X42702238Y40609761D01*
X42678047Y40658142D01*
X42653857Y40754904D01*
X42653857Y40827476D01*
X42678047Y40924238D01*
X42702238Y40972619D01*
X42750619Y41021000D01*
X42823190Y41045190D01*
X42871571Y41045190D01*
X42944142Y41021000D01*
X42968333Y40996809D01*
X43427952Y41045190D02*
X43186047Y41045190D01*
X43161857Y40803285D01*
X43186047Y40827476D01*
X43234428Y40851666D01*
X43355380Y40851666D01*
X43403761Y40827476D01*
X43427952Y40803285D01*
X43452142Y40754904D01*
X43452142Y40633952D01*
X43427952Y40585571D01*
X43403761Y40561380D01*
X43355380Y40537190D01*
X43234428Y40537190D01*
X43186047Y40561380D01*
X43161857Y40585571D01*
%TO.C,L12*%
X25581428Y27456190D02*
X25339523Y27456190D01*
X25339523Y27964190D01*
X26016857Y27456190D02*
X25726571Y27456190D01*
X25871714Y27456190D02*
X25871714Y27964190D01*
X25823333Y27891619D01*
X25774952Y27843238D01*
X25726571Y27819047D01*
X26210380Y27915809D02*
X26234571Y27940000D01*
X26282952Y27964190D01*
X26403904Y27964190D01*
X26452285Y27940000D01*
X26476476Y27915809D01*
X26500666Y27867428D01*
X26500666Y27819047D01*
X26476476Y27746476D01*
X26186190Y27456190D01*
X26500666Y27456190D01*
%TO.C,L11*%
X30857894Y28370264D02*
X30686841Y28199211D01*
X30327631Y28558422D01*
X31165788Y28678158D02*
X30960525Y28472895D01*
X31063156Y28575527D02*
X30703946Y28934737D01*
X30721052Y28849211D01*
X30721052Y28780790D01*
X30703946Y28729474D01*
X31507893Y29020263D02*
X31302630Y28815000D01*
X31405261Y28917632D02*
X31046051Y29276842D01*
X31063156Y29191316D01*
X31063156Y29122895D01*
X31046051Y29071579D01*
%TO.C,L9*%
X28606631Y33425368D02*
X28435579Y33596420D01*
X28794789Y33955631D01*
X28743473Y33288526D02*
X28811894Y33220105D01*
X28863210Y33203000D01*
X28897420Y33203000D01*
X28982947Y33220105D01*
X29068473Y33271421D01*
X29205315Y33408263D01*
X29222420Y33459579D01*
X29222420Y33493789D01*
X29205315Y33545105D01*
X29136894Y33613526D01*
X29085578Y33630631D01*
X29051368Y33630631D01*
X29000052Y33613526D01*
X28914526Y33528000D01*
X28897420Y33476684D01*
X28897420Y33442473D01*
X28914526Y33391158D01*
X28982947Y33322737D01*
X29034262Y33305631D01*
X29068473Y33305631D01*
X29119789Y33322737D01*
%TO.C,L8*%
X30892631Y33679368D02*
X30721579Y33850420D01*
X31080789Y34209631D01*
X31268947Y33713579D02*
X31251841Y33764894D01*
X31251841Y33799105D01*
X31268947Y33850420D01*
X31286052Y33867526D01*
X31337368Y33884631D01*
X31371578Y33884631D01*
X31422894Y33867526D01*
X31491315Y33799105D01*
X31508420Y33747789D01*
X31508420Y33713579D01*
X31491315Y33662263D01*
X31474210Y33645158D01*
X31422894Y33628052D01*
X31388683Y33628052D01*
X31337368Y33645158D01*
X31268947Y33713579D01*
X31217631Y33730684D01*
X31183420Y33730684D01*
X31132105Y33713579D01*
X31063684Y33645158D01*
X31046579Y33593842D01*
X31046579Y33559631D01*
X31063684Y33508316D01*
X31132105Y33439895D01*
X31183420Y33422789D01*
X31217631Y33422789D01*
X31268947Y33439895D01*
X31337368Y33508316D01*
X31354473Y33559631D01*
X31354473Y33593842D01*
X31337368Y33645158D01*
%TO.C,L6*%
X36043631Y35083630D02*
X35872579Y34912578D01*
X35513368Y35271788D01*
X35958105Y35716524D02*
X35889684Y35648103D01*
X35872579Y35596788D01*
X35872579Y35562577D01*
X35889684Y35477051D01*
X35941000Y35391525D01*
X36077841Y35254683D01*
X36129157Y35237578D01*
X36163368Y35237578D01*
X36214683Y35254683D01*
X36283104Y35323104D01*
X36300210Y35374419D01*
X36300210Y35408630D01*
X36283104Y35459946D01*
X36197578Y35545472D01*
X36146262Y35562577D01*
X36112052Y35562577D01*
X36060736Y35545472D01*
X35992315Y35477051D01*
X35975210Y35425735D01*
X35975210Y35391525D01*
X35992315Y35340209D01*
%TO.C,L5*%
X35154631Y35845631D02*
X34983579Y35674579D01*
X34624368Y36033789D01*
X35086210Y36495631D02*
X34915158Y36324578D01*
X35069105Y36136420D01*
X35069105Y36170631D01*
X35086210Y36221947D01*
X35171736Y36307473D01*
X35223052Y36324578D01*
X35257262Y36324578D01*
X35308578Y36307473D01*
X35394104Y36221947D01*
X35411210Y36170631D01*
X35411210Y36136420D01*
X35394104Y36085105D01*
X35308578Y35999579D01*
X35257262Y35982473D01*
X35223052Y35982473D01*
%TO.C,L2*%
X35916631Y37115631D02*
X35745579Y36944579D01*
X35386368Y37303789D01*
X35694263Y37543262D02*
X35694263Y37577473D01*
X35711368Y37628789D01*
X35796894Y37714315D01*
X35848210Y37731420D01*
X35882420Y37731420D01*
X35933736Y37714315D01*
X35967947Y37680104D01*
X36002157Y37611683D01*
X36002157Y37201158D01*
X36224525Y37423526D01*
%TO.C,C29*%
X21644428Y29155571D02*
X21620238Y29131380D01*
X21547666Y29107190D01*
X21499285Y29107190D01*
X21426714Y29131380D01*
X21378333Y29179761D01*
X21354142Y29228142D01*
X21329952Y29324904D01*
X21329952Y29397476D01*
X21354142Y29494238D01*
X21378333Y29542619D01*
X21426714Y29591000D01*
X21499285Y29615190D01*
X21547666Y29615190D01*
X21620238Y29591000D01*
X21644428Y29566809D01*
X21837952Y29566809D02*
X21862142Y29591000D01*
X21910523Y29615190D01*
X22031476Y29615190D01*
X22079857Y29591000D01*
X22104047Y29566809D01*
X22128238Y29518428D01*
X22128238Y29470047D01*
X22104047Y29397476D01*
X21813761Y29107190D01*
X22128238Y29107190D01*
X22370142Y29107190D02*
X22466904Y29107190D01*
X22515285Y29131380D01*
X22539476Y29155571D01*
X22587857Y29228142D01*
X22612047Y29324904D01*
X22612047Y29518428D01*
X22587857Y29566809D01*
X22563666Y29591000D01*
X22515285Y29615190D01*
X22418523Y29615190D01*
X22370142Y29591000D01*
X22345952Y29566809D01*
X22321761Y29518428D01*
X22321761Y29397476D01*
X22345952Y29349095D01*
X22370142Y29324904D01*
X22418523Y29300714D01*
X22515285Y29300714D01*
X22563666Y29324904D01*
X22587857Y29349095D01*
X22612047Y29397476D01*
%TO.C,C28*%
X23803428Y27613428D02*
X23827619Y27589238D01*
X23851809Y27516666D01*
X23851809Y27468285D01*
X23827619Y27395714D01*
X23779238Y27347333D01*
X23730857Y27323142D01*
X23634095Y27298952D01*
X23561523Y27298952D01*
X23464761Y27323142D01*
X23416380Y27347333D01*
X23368000Y27395714D01*
X23343809Y27468285D01*
X23343809Y27516666D01*
X23368000Y27589238D01*
X23392190Y27613428D01*
X23392190Y27806952D02*
X23368000Y27831142D01*
X23343809Y27879523D01*
X23343809Y28000476D01*
X23368000Y28048857D01*
X23392190Y28073047D01*
X23440571Y28097238D01*
X23488952Y28097238D01*
X23561523Y28073047D01*
X23851809Y27782761D01*
X23851809Y28097238D01*
X23561523Y28387523D02*
X23537333Y28339142D01*
X23513142Y28314952D01*
X23464761Y28290761D01*
X23440571Y28290761D01*
X23392190Y28314952D01*
X23368000Y28339142D01*
X23343809Y28387523D01*
X23343809Y28484285D01*
X23368000Y28532666D01*
X23392190Y28556857D01*
X23440571Y28581047D01*
X23464761Y28581047D01*
X23513142Y28556857D01*
X23537333Y28532666D01*
X23561523Y28484285D01*
X23561523Y28387523D01*
X23585714Y28339142D01*
X23609904Y28314952D01*
X23658285Y28290761D01*
X23755047Y28290761D01*
X23803428Y28314952D01*
X23827619Y28339142D01*
X23851809Y28387523D01*
X23851809Y28484285D01*
X23827619Y28532666D01*
X23803428Y28556857D01*
X23755047Y28581047D01*
X23658285Y28581047D01*
X23609904Y28556857D01*
X23585714Y28532666D01*
X23561523Y28484285D01*
%TO.C,C27*%
X29391428Y27232428D02*
X29415619Y27208238D01*
X29439809Y27135666D01*
X29439809Y27087285D01*
X29415619Y27014714D01*
X29367238Y26966333D01*
X29318857Y26942142D01*
X29222095Y26917952D01*
X29149523Y26917952D01*
X29052761Y26942142D01*
X29004380Y26966333D01*
X28956000Y27014714D01*
X28931809Y27087285D01*
X28931809Y27135666D01*
X28956000Y27208238D01*
X28980190Y27232428D01*
X28980190Y27425952D02*
X28956000Y27450142D01*
X28931809Y27498523D01*
X28931809Y27619476D01*
X28956000Y27667857D01*
X28980190Y27692047D01*
X29028571Y27716238D01*
X29076952Y27716238D01*
X29149523Y27692047D01*
X29439809Y27401761D01*
X29439809Y27716238D01*
X28931809Y27885571D02*
X28931809Y28224238D01*
X29439809Y28006523D01*
%TO.C,C26*%
X22503368Y36724789D02*
X22503368Y36690579D01*
X22469158Y36622158D01*
X22434947Y36587947D01*
X22366526Y36553737D01*
X22298105Y36553737D01*
X22246789Y36570842D01*
X22161263Y36622158D01*
X22109947Y36673474D01*
X22058632Y36759000D01*
X22041526Y36810316D01*
X22041526Y36878737D01*
X22075737Y36947158D01*
X22109947Y36981368D01*
X22178368Y37015579D01*
X22212579Y37015579D01*
X22349421Y37152420D02*
X22349421Y37186631D01*
X22366526Y37237947D01*
X22452052Y37323473D01*
X22503368Y37340578D01*
X22537579Y37340578D01*
X22588894Y37323473D01*
X22623105Y37289262D01*
X22657315Y37220841D01*
X22657315Y36810316D01*
X22879683Y37032684D01*
X22828368Y37699788D02*
X22759947Y37631367D01*
X22742841Y37580052D01*
X22742841Y37545841D01*
X22759947Y37460315D01*
X22811262Y37374789D01*
X22948104Y37237947D01*
X22999420Y37220841D01*
X23033631Y37220841D01*
X23084946Y37237947D01*
X23153367Y37306368D01*
X23170473Y37357683D01*
X23170473Y37391894D01*
X23153367Y37443210D01*
X23067841Y37528736D01*
X23016525Y37545841D01*
X22982315Y37545841D01*
X22930999Y37528736D01*
X22862578Y37460315D01*
X22845473Y37408999D01*
X22845473Y37374789D01*
X22862578Y37323473D01*
%TO.C,C25*%
X23135789Y38837631D02*
X23101579Y38837631D01*
X23033158Y38871841D01*
X22998947Y38906052D01*
X22964737Y38974473D01*
X22964737Y39042894D01*
X22981842Y39094210D01*
X23033158Y39179736D01*
X23084474Y39231052D01*
X23170000Y39282367D01*
X23221316Y39299473D01*
X23289737Y39299473D01*
X23358158Y39265262D01*
X23392368Y39231052D01*
X23426579Y39162631D01*
X23426579Y39128420D01*
X23563420Y38991578D02*
X23597631Y38991578D01*
X23648947Y38974473D01*
X23734473Y38888947D01*
X23751578Y38837631D01*
X23751578Y38803420D01*
X23734473Y38752105D01*
X23700262Y38717894D01*
X23631841Y38683684D01*
X23221316Y38683684D01*
X23443684Y38461316D01*
X24127894Y38495526D02*
X23956841Y38666579D01*
X23768683Y38512631D01*
X23802894Y38512631D01*
X23854210Y38495526D01*
X23939736Y38410000D01*
X23956841Y38358684D01*
X23956841Y38324474D01*
X23939736Y38273158D01*
X23854210Y38187632D01*
X23802894Y38170526D01*
X23768683Y38170526D01*
X23717368Y38187632D01*
X23631841Y38273158D01*
X23614736Y38324474D01*
X23614736Y38358684D01*
%TO.C,C24*%
X27232428Y29409571D02*
X27208238Y29385380D01*
X27135666Y29361190D01*
X27087285Y29361190D01*
X27014714Y29385380D01*
X26966333Y29433761D01*
X26942142Y29482142D01*
X26917952Y29578904D01*
X26917952Y29651476D01*
X26942142Y29748238D01*
X26966333Y29796619D01*
X27014714Y29845000D01*
X27087285Y29869190D01*
X27135666Y29869190D01*
X27208238Y29845000D01*
X27232428Y29820809D01*
X27425952Y29820809D02*
X27450142Y29845000D01*
X27498523Y29869190D01*
X27619476Y29869190D01*
X27667857Y29845000D01*
X27692047Y29820809D01*
X27716238Y29772428D01*
X27716238Y29724047D01*
X27692047Y29651476D01*
X27401761Y29361190D01*
X27716238Y29361190D01*
X28151666Y29699857D02*
X28151666Y29361190D01*
X28030714Y29893380D02*
X27909761Y29530523D01*
X28224238Y29530523D01*
%TO.C,C23*%
X32914789Y29185631D02*
X32880579Y29185631D01*
X32812158Y29219841D01*
X32777947Y29254052D01*
X32743737Y29322473D01*
X32743737Y29390894D01*
X32760842Y29442210D01*
X32812158Y29527736D01*
X32863474Y29579052D01*
X32949000Y29630367D01*
X33000316Y29647473D01*
X33068737Y29647473D01*
X33137158Y29613262D01*
X33171368Y29579052D01*
X33205579Y29510631D01*
X33205579Y29476420D01*
X33342420Y29339578D02*
X33376631Y29339578D01*
X33427947Y29322473D01*
X33513473Y29236947D01*
X33530578Y29185631D01*
X33530578Y29151420D01*
X33513473Y29100105D01*
X33479262Y29065894D01*
X33410841Y29031684D01*
X33000316Y29031684D01*
X33222684Y28809316D01*
X33701631Y29048789D02*
X33923999Y28826421D01*
X33667420Y28809316D01*
X33718736Y28758000D01*
X33735841Y28706684D01*
X33735841Y28672474D01*
X33718736Y28621158D01*
X33633210Y28535632D01*
X33581894Y28518526D01*
X33547683Y28518526D01*
X33496368Y28535632D01*
X33393736Y28638263D01*
X33376631Y28689579D01*
X33376631Y28723789D01*
%TO.C,C22*%
X28091368Y32025789D02*
X28091368Y31991579D01*
X28057158Y31923158D01*
X28022947Y31888947D01*
X27954526Y31854737D01*
X27886105Y31854737D01*
X27834789Y31871842D01*
X27749263Y31923158D01*
X27697947Y31974474D01*
X27646632Y32060000D01*
X27629526Y32111316D01*
X27629526Y32179737D01*
X27663737Y32248158D01*
X27697947Y32282368D01*
X27766368Y32316579D01*
X27800579Y32316579D01*
X27937421Y32453420D02*
X27937421Y32487631D01*
X27954526Y32538947D01*
X28040052Y32624473D01*
X28091368Y32641578D01*
X28125579Y32641578D01*
X28176894Y32624473D01*
X28211105Y32590262D01*
X28245315Y32521841D01*
X28245315Y32111316D01*
X28467683Y32333684D01*
X28279526Y32795525D02*
X28279526Y32829736D01*
X28296631Y32881052D01*
X28382157Y32966578D01*
X28433473Y32983683D01*
X28467683Y32983683D01*
X28518999Y32966578D01*
X28553210Y32932367D01*
X28587420Y32863946D01*
X28587420Y32453420D01*
X28809788Y32675789D01*
%TO.C,C21*%
X27453789Y39345631D02*
X27419579Y39345631D01*
X27351158Y39379841D01*
X27316947Y39414052D01*
X27282737Y39482473D01*
X27282737Y39550894D01*
X27299842Y39602210D01*
X27351158Y39687736D01*
X27402474Y39739052D01*
X27488000Y39790367D01*
X27539316Y39807473D01*
X27607737Y39807473D01*
X27676158Y39773262D01*
X27710368Y39739052D01*
X27744579Y39670631D01*
X27744579Y39636420D01*
X27881420Y39499578D02*
X27915631Y39499578D01*
X27966947Y39482473D01*
X28052473Y39396947D01*
X28069578Y39345631D01*
X28069578Y39311420D01*
X28052473Y39260105D01*
X28018262Y39225894D01*
X27949841Y39191684D01*
X27539316Y39191684D01*
X27761684Y38969316D01*
X28103789Y38627211D02*
X27898526Y38832474D01*
X28001157Y38729842D02*
X28360367Y39089052D01*
X28274841Y39071947D01*
X28206420Y39071947D01*
X28155104Y39089052D01*
%TO.C,C20*%
X31390789Y34773631D02*
X31356579Y34773631D01*
X31288158Y34807841D01*
X31253947Y34842052D01*
X31219737Y34910473D01*
X31219737Y34978894D01*
X31236842Y35030210D01*
X31288158Y35115736D01*
X31339474Y35167052D01*
X31425000Y35218367D01*
X31476316Y35235473D01*
X31544737Y35235473D01*
X31613158Y35201262D01*
X31647368Y35167052D01*
X31681579Y35098631D01*
X31681579Y35064420D01*
X31818420Y34927578D02*
X31852631Y34927578D01*
X31903947Y34910473D01*
X31989473Y34824947D01*
X32006578Y34773631D01*
X32006578Y34739420D01*
X31989473Y34688105D01*
X31955262Y34653894D01*
X31886841Y34619684D01*
X31476316Y34619684D01*
X31698684Y34397316D01*
X32280262Y34534158D02*
X32314473Y34499947D01*
X32331578Y34448631D01*
X32331578Y34414421D01*
X32314473Y34363105D01*
X32263157Y34277579D01*
X32177631Y34192053D01*
X32092104Y34140737D01*
X32040789Y34123632D01*
X32006578Y34123632D01*
X31955262Y34140737D01*
X31921052Y34174947D01*
X31903947Y34226263D01*
X31903947Y34260474D01*
X31921052Y34311789D01*
X31972368Y34397316D01*
X32057894Y34482842D01*
X32143420Y34534158D01*
X32194736Y34551263D01*
X32228946Y34551263D01*
X32280262Y34534158D01*
%TO.C,C19*%
X31009789Y41377631D02*
X30975579Y41377631D01*
X30907158Y41411841D01*
X30872947Y41446052D01*
X30838737Y41514473D01*
X30838737Y41582894D01*
X30855842Y41634210D01*
X30907158Y41719736D01*
X30958474Y41771052D01*
X31044000Y41822367D01*
X31095316Y41839473D01*
X31163737Y41839473D01*
X31232158Y41805262D01*
X31266368Y41771052D01*
X31300579Y41702631D01*
X31300579Y41668420D01*
X31317684Y41001316D02*
X31112421Y41206579D01*
X31215052Y41103947D02*
X31574262Y41463157D01*
X31488736Y41446052D01*
X31420315Y41446052D01*
X31369000Y41463157D01*
X31488736Y40830263D02*
X31557157Y40761842D01*
X31608473Y40744737D01*
X31642683Y40744737D01*
X31728210Y40761842D01*
X31813736Y40813158D01*
X31950578Y40950000D01*
X31967683Y41001316D01*
X31967683Y41035526D01*
X31950578Y41086842D01*
X31882157Y41155263D01*
X31830841Y41172368D01*
X31796631Y41172368D01*
X31745315Y41155263D01*
X31659789Y41069737D01*
X31642683Y41018421D01*
X31642683Y40984210D01*
X31659789Y40932895D01*
X31728210Y40864474D01*
X31779525Y40847368D01*
X31813736Y40847368D01*
X31865052Y40864474D01*
%TO.C,C18*%
X31139368Y36597789D02*
X31139368Y36563579D01*
X31105158Y36495158D01*
X31070947Y36460947D01*
X31002526Y36426737D01*
X30934105Y36426737D01*
X30882789Y36443842D01*
X30797263Y36495158D01*
X30745947Y36546474D01*
X30694632Y36632000D01*
X30677526Y36683316D01*
X30677526Y36751737D01*
X30711737Y36820158D01*
X30745947Y36854368D01*
X30814368Y36888579D01*
X30848579Y36888579D01*
X31515683Y36905684D02*
X31310420Y36700421D01*
X31413052Y36803052D02*
X31053842Y37162262D01*
X31070947Y37076736D01*
X31070947Y37008315D01*
X31053842Y36957000D01*
X31515683Y37316210D02*
X31464368Y37299104D01*
X31430157Y37299104D01*
X31378841Y37316210D01*
X31361736Y37333315D01*
X31344631Y37384631D01*
X31344631Y37418841D01*
X31361736Y37470157D01*
X31430157Y37538578D01*
X31481473Y37555683D01*
X31515683Y37555683D01*
X31566999Y37538578D01*
X31584104Y37521473D01*
X31601210Y37470157D01*
X31601210Y37435946D01*
X31584104Y37384631D01*
X31515683Y37316210D01*
X31498578Y37264894D01*
X31498578Y37230683D01*
X31515683Y37179368D01*
X31584104Y37110947D01*
X31635420Y37093841D01*
X31669631Y37093841D01*
X31720946Y37110947D01*
X31789367Y37179368D01*
X31806473Y37230683D01*
X31806473Y37264894D01*
X31789367Y37316210D01*
X31720946Y37384631D01*
X31669631Y37401736D01*
X31635420Y37401736D01*
X31584104Y37384631D01*
%TO.C,C17*%
X34692789Y41504631D02*
X34658579Y41504631D01*
X34590158Y41538841D01*
X34555947Y41573052D01*
X34521737Y41641473D01*
X34521737Y41709894D01*
X34538842Y41761210D01*
X34590158Y41846736D01*
X34641474Y41898052D01*
X34727000Y41949367D01*
X34778316Y41966473D01*
X34846737Y41966473D01*
X34915158Y41932262D01*
X34949368Y41898052D01*
X34983579Y41829631D01*
X34983579Y41795420D01*
X35000684Y41128316D02*
X34795421Y41333579D01*
X34898052Y41230947D02*
X35257262Y41590157D01*
X35171736Y41573052D01*
X35103315Y41573052D01*
X35052000Y41590157D01*
X35479631Y41367789D02*
X35719104Y41128316D01*
X35205947Y40923053D01*
%TO.C,U5*%
X2914952Y7009190D02*
X2914952Y6597952D01*
X2939142Y6549571D01*
X2963333Y6525380D01*
X3011714Y6501190D01*
X3108476Y6501190D01*
X3156857Y6525380D01*
X3181047Y6549571D01*
X3205238Y6597952D01*
X3205238Y7009190D01*
X3689047Y7009190D02*
X3447142Y7009190D01*
X3422952Y6767285D01*
X3447142Y6791476D01*
X3495523Y6815666D01*
X3616476Y6815666D01*
X3664857Y6791476D01*
X3689047Y6767285D01*
X3713238Y6718904D01*
X3713238Y6597952D01*
X3689047Y6549571D01*
X3664857Y6525380D01*
X3616476Y6501190D01*
X3495523Y6501190D01*
X3447142Y6525380D01*
X3422952Y6549571D01*
%TO.C,D3*%
X48012047Y33425190D02*
X48012047Y33933190D01*
X48133000Y33933190D01*
X48205571Y33909000D01*
X48253952Y33860619D01*
X48278142Y33812238D01*
X48302333Y33715476D01*
X48302333Y33642904D01*
X48278142Y33546142D01*
X48253952Y33497761D01*
X48205571Y33449380D01*
X48133000Y33425190D01*
X48012047Y33425190D01*
X48471666Y33933190D02*
X48786142Y33933190D01*
X48616809Y33739666D01*
X48689380Y33739666D01*
X48737761Y33715476D01*
X48761952Y33691285D01*
X48786142Y33642904D01*
X48786142Y33521952D01*
X48761952Y33473571D01*
X48737761Y33449380D01*
X48689380Y33425190D01*
X48544238Y33425190D01*
X48495857Y33449380D01*
X48471666Y33473571D01*
%TO.C,U4*%
X1201809Y51047952D02*
X1613047Y51047952D01*
X1661428Y51072142D01*
X1685619Y51096333D01*
X1709809Y51144714D01*
X1709809Y51241476D01*
X1685619Y51289857D01*
X1661428Y51314047D01*
X1613047Y51338238D01*
X1201809Y51338238D01*
X1371142Y51797857D02*
X1709809Y51797857D01*
X1177619Y51676904D02*
X1540476Y51555952D01*
X1540476Y51870428D01*
%TO.C,C1*%
X48085828Y11954933D02*
X48110019Y11930742D01*
X48134209Y11858171D01*
X48134209Y11809790D01*
X48110019Y11737219D01*
X48061638Y11688838D01*
X48013257Y11664647D01*
X47916495Y11640457D01*
X47843923Y11640457D01*
X47747161Y11664647D01*
X47698780Y11688838D01*
X47650400Y11737219D01*
X47626209Y11809790D01*
X47626209Y11858171D01*
X47650400Y11930742D01*
X47674590Y11954933D01*
X48134209Y12438742D02*
X48134209Y12148457D01*
X48134209Y12293600D02*
X47626209Y12293600D01*
X47698780Y12245219D01*
X47747161Y12196838D01*
X47771352Y12148457D01*
%TO.C,C3*%
X49330428Y20616333D02*
X49354619Y20592142D01*
X49378809Y20519571D01*
X49378809Y20471190D01*
X49354619Y20398619D01*
X49306238Y20350238D01*
X49257857Y20326047D01*
X49161095Y20301857D01*
X49088523Y20301857D01*
X48991761Y20326047D01*
X48943380Y20350238D01*
X48895000Y20398619D01*
X48870809Y20471190D01*
X48870809Y20519571D01*
X48895000Y20592142D01*
X48919190Y20616333D01*
X48870809Y20785666D02*
X48870809Y21100142D01*
X49064333Y20930809D01*
X49064333Y21003380D01*
X49088523Y21051761D01*
X49112714Y21075952D01*
X49161095Y21100142D01*
X49282047Y21100142D01*
X49330428Y21075952D01*
X49354619Y21051761D01*
X49378809Y21003380D01*
X49378809Y20858238D01*
X49354619Y20809857D01*
X49330428Y20785666D01*
%TO.C,C4*%
X24553333Y7692571D02*
X24529142Y7668380D01*
X24456571Y7644190D01*
X24408190Y7644190D01*
X24335619Y7668380D01*
X24287238Y7716761D01*
X24263047Y7765142D01*
X24238857Y7861904D01*
X24238857Y7934476D01*
X24263047Y8031238D01*
X24287238Y8079619D01*
X24335619Y8128000D01*
X24408190Y8152190D01*
X24456571Y8152190D01*
X24529142Y8128000D01*
X24553333Y8103809D01*
X24988761Y7982857D02*
X24988761Y7644190D01*
X24867809Y8176380D02*
X24746857Y7813523D01*
X25061333Y7813523D01*
%TO.C,C7*%
X46778333Y45792571D02*
X46754142Y45768380D01*
X46681571Y45744190D01*
X46633190Y45744190D01*
X46560619Y45768380D01*
X46512238Y45816761D01*
X46488047Y45865142D01*
X46463857Y45961904D01*
X46463857Y46034476D01*
X46488047Y46131238D01*
X46512238Y46179619D01*
X46560619Y46228000D01*
X46633190Y46252190D01*
X46681571Y46252190D01*
X46754142Y46228000D01*
X46778333Y46203809D01*
X46947666Y46252190D02*
X47286333Y46252190D01*
X47068619Y45744190D01*
%TO.C,D1*%
X51314047Y14756190D02*
X51314047Y15264190D01*
X51435000Y15264190D01*
X51507571Y15240000D01*
X51555952Y15191619D01*
X51580142Y15143238D01*
X51604333Y15046476D01*
X51604333Y14973904D01*
X51580142Y14877142D01*
X51555952Y14828761D01*
X51507571Y14780380D01*
X51435000Y14756190D01*
X51314047Y14756190D01*
X52088142Y14756190D02*
X51797857Y14756190D01*
X51943000Y14756190D02*
X51943000Y15264190D01*
X51894619Y15191619D01*
X51846238Y15143238D01*
X51797857Y15119047D01*
%TO.C,D2*%
X51314047Y16534190D02*
X51314047Y17042190D01*
X51435000Y17042190D01*
X51507571Y17018000D01*
X51555952Y16969619D01*
X51580142Y16921238D01*
X51604333Y16824476D01*
X51604333Y16751904D01*
X51580142Y16655142D01*
X51555952Y16606761D01*
X51507571Y16558380D01*
X51435000Y16534190D01*
X51314047Y16534190D01*
X51797857Y16993809D02*
X51822047Y17018000D01*
X51870428Y17042190D01*
X51991380Y17042190D01*
X52039761Y17018000D01*
X52063952Y16993809D01*
X52088142Y16945428D01*
X52088142Y16897047D01*
X52063952Y16824476D01*
X51773666Y16534190D01*
X52088142Y16534190D01*
%TO.C,D4*%
X46716647Y25576590D02*
X46716647Y26084590D01*
X46837600Y26084590D01*
X46910171Y26060400D01*
X46958552Y26012019D01*
X46982742Y25963638D01*
X47006933Y25866876D01*
X47006933Y25794304D01*
X46982742Y25697542D01*
X46958552Y25649161D01*
X46910171Y25600780D01*
X46837600Y25576590D01*
X46716647Y25576590D01*
X47442361Y25915257D02*
X47442361Y25576590D01*
X47321409Y26108780D02*
X47200457Y25745923D01*
X47514933Y25745923D01*
%TO.C,D5*%
X50323447Y8456990D02*
X50323447Y8964990D01*
X50444400Y8964990D01*
X50516971Y8940800D01*
X50565352Y8892419D01*
X50589542Y8844038D01*
X50613733Y8747276D01*
X50613733Y8674704D01*
X50589542Y8577942D01*
X50565352Y8529561D01*
X50516971Y8481180D01*
X50444400Y8456990D01*
X50323447Y8456990D01*
X51073352Y8964990D02*
X50831447Y8964990D01*
X50807257Y8723085D01*
X50831447Y8747276D01*
X50879828Y8771466D01*
X51000780Y8771466D01*
X51049161Y8747276D01*
X51073352Y8723085D01*
X51097542Y8674704D01*
X51097542Y8553752D01*
X51073352Y8505371D01*
X51049161Y8481180D01*
X51000780Y8456990D01*
X50879828Y8456990D01*
X50831447Y8481180D01*
X50807257Y8505371D01*
%TO.C,D6*%
X41281047Y17550190D02*
X41281047Y18058190D01*
X41402000Y18058190D01*
X41474571Y18034000D01*
X41522952Y17985619D01*
X41547142Y17937238D01*
X41571333Y17840476D01*
X41571333Y17767904D01*
X41547142Y17671142D01*
X41522952Y17622761D01*
X41474571Y17574380D01*
X41402000Y17550190D01*
X41281047Y17550190D01*
X42006761Y18058190D02*
X41910000Y18058190D01*
X41861619Y18034000D01*
X41837428Y18009809D01*
X41789047Y17937238D01*
X41764857Y17840476D01*
X41764857Y17646952D01*
X41789047Y17598571D01*
X41813238Y17574380D01*
X41861619Y17550190D01*
X41958380Y17550190D01*
X42006761Y17574380D01*
X42030952Y17598571D01*
X42055142Y17646952D01*
X42055142Y17767904D01*
X42030952Y17816285D01*
X42006761Y17840476D01*
X41958380Y17864666D01*
X41861619Y17864666D01*
X41813238Y17840476D01*
X41789047Y17816285D01*
X41764857Y17767904D01*
%TO.C,L3*%
X36424631Y39401631D02*
X36253579Y39230579D01*
X35894368Y39589789D01*
X36150947Y39846368D02*
X36373315Y40068736D01*
X36390420Y39812157D01*
X36441736Y39863473D01*
X36493052Y39880578D01*
X36527262Y39880578D01*
X36578578Y39863473D01*
X36664104Y39777947D01*
X36681210Y39726631D01*
X36681210Y39692420D01*
X36664104Y39641105D01*
X36561473Y39538473D01*
X36510157Y39521368D01*
X36475947Y39521368D01*
%TO.C,L4*%
X30638630Y39267368D02*
X30467578Y39438420D01*
X30826788Y39797631D01*
X31151788Y39233158D02*
X30912314Y38993684D01*
X31203103Y39455526D02*
X30860998Y39284473D01*
X31083367Y39062105D01*
%TO.C,L7*%
X29252333Y39775190D02*
X29010428Y39775190D01*
X29010428Y40283190D01*
X29373285Y40283190D02*
X29711952Y40283190D01*
X29494238Y39775190D01*
%TO.C,L10*%
X24823579Y39103579D02*
X24652526Y38932526D01*
X24293316Y39291737D01*
X25131473Y39411473D02*
X24926210Y39206210D01*
X25028841Y39308842D02*
X24669631Y39668052D01*
X24686737Y39582526D01*
X24686737Y39514105D01*
X24669631Y39462789D01*
X24994631Y39993052D02*
X25028841Y40027262D01*
X25080157Y40044367D01*
X25114368Y40044367D01*
X25165683Y40027262D01*
X25251210Y39975946D01*
X25336736Y39890420D01*
X25388052Y39804894D01*
X25405157Y39753578D01*
X25405157Y39719368D01*
X25388052Y39668052D01*
X25353841Y39633841D01*
X25302525Y39616736D01*
X25268315Y39616736D01*
X25216999Y39633841D01*
X25131473Y39685157D01*
X25045947Y39770683D01*
X24994631Y39856210D01*
X24977526Y39907525D01*
X24977526Y39941736D01*
X24994631Y39993052D01*
%TO.C,R1*%
X24807333Y9676190D02*
X24638000Y9918095D01*
X24517047Y9676190D02*
X24517047Y10184190D01*
X24710571Y10184190D01*
X24758952Y10160000D01*
X24783142Y10135809D01*
X24807333Y10087428D01*
X24807333Y10014857D01*
X24783142Y9966476D01*
X24758952Y9942285D01*
X24710571Y9918095D01*
X24517047Y9918095D01*
X25291142Y9676190D02*
X25000857Y9676190D01*
X25146000Y9676190D02*
X25146000Y10184190D01*
X25097619Y10111619D01*
X25049238Y10063238D01*
X25000857Y10039047D01*
%TO.C,R2*%
X52112333Y38251190D02*
X51943000Y38493095D01*
X51822047Y38251190D02*
X51822047Y38759190D01*
X52015571Y38759190D01*
X52063952Y38735000D01*
X52088142Y38710809D01*
X52112333Y38662428D01*
X52112333Y38589857D01*
X52088142Y38541476D01*
X52063952Y38517285D01*
X52015571Y38493095D01*
X51822047Y38493095D01*
X52305857Y38710809D02*
X52330047Y38735000D01*
X52378428Y38759190D01*
X52499380Y38759190D01*
X52547761Y38735000D01*
X52571952Y38710809D01*
X52596142Y38662428D01*
X52596142Y38614047D01*
X52571952Y38541476D01*
X52281666Y38251190D01*
X52596142Y38251190D01*
%TO.C,R3*%
X46778333Y43966190D02*
X46609000Y44208095D01*
X46488047Y43966190D02*
X46488047Y44474190D01*
X46681571Y44474190D01*
X46729952Y44450000D01*
X46754142Y44425809D01*
X46778333Y44377428D01*
X46778333Y44304857D01*
X46754142Y44256476D01*
X46729952Y44232285D01*
X46681571Y44208095D01*
X46488047Y44208095D01*
X46947666Y44474190D02*
X47262142Y44474190D01*
X47092809Y44280666D01*
X47165380Y44280666D01*
X47213761Y44256476D01*
X47237952Y44232285D01*
X47262142Y44183904D01*
X47262142Y44062952D01*
X47237952Y44014571D01*
X47213761Y43990380D01*
X47165380Y43966190D01*
X47020238Y43966190D01*
X46971857Y43990380D01*
X46947666Y44014571D01*
%TO.C,R4*%
X52366333Y35838190D02*
X52197000Y36080095D01*
X52076047Y35838190D02*
X52076047Y36346190D01*
X52269571Y36346190D01*
X52317952Y36322000D01*
X52342142Y36297809D01*
X52366333Y36249428D01*
X52366333Y36176857D01*
X52342142Y36128476D01*
X52317952Y36104285D01*
X52269571Y36080095D01*
X52076047Y36080095D01*
X52801761Y36176857D02*
X52801761Y35838190D01*
X52680809Y36370380D02*
X52559857Y36007523D01*
X52874333Y36007523D01*
%TO.C,R5*%
X50334333Y30504190D02*
X50165000Y30746095D01*
X50044047Y30504190D02*
X50044047Y31012190D01*
X50237571Y31012190D01*
X50285952Y30988000D01*
X50310142Y30963809D01*
X50334333Y30915428D01*
X50334333Y30842857D01*
X50310142Y30794476D01*
X50285952Y30770285D01*
X50237571Y30746095D01*
X50044047Y30746095D01*
X50793952Y31012190D02*
X50552047Y31012190D01*
X50527857Y30770285D01*
X50552047Y30794476D01*
X50600428Y30818666D01*
X50721380Y30818666D01*
X50769761Y30794476D01*
X50793952Y30770285D01*
X50818142Y30721904D01*
X50818142Y30600952D01*
X50793952Y30552571D01*
X50769761Y30528380D01*
X50721380Y30504190D01*
X50600428Y30504190D01*
X50552047Y30528380D01*
X50527857Y30552571D01*
%TO.C,R6*%
X59986333Y14756190D02*
X59817000Y14998095D01*
X59696047Y14756190D02*
X59696047Y15264190D01*
X59889571Y15264190D01*
X59937952Y15240000D01*
X59962142Y15215809D01*
X59986333Y15167428D01*
X59986333Y15094857D01*
X59962142Y15046476D01*
X59937952Y15022285D01*
X59889571Y14998095D01*
X59696047Y14998095D01*
X60421761Y15264190D02*
X60325000Y15264190D01*
X60276619Y15240000D01*
X60252428Y15215809D01*
X60204047Y15143238D01*
X60179857Y15046476D01*
X60179857Y14852952D01*
X60204047Y14804571D01*
X60228238Y14780380D01*
X60276619Y14756190D01*
X60373380Y14756190D01*
X60421761Y14780380D01*
X60445952Y14804571D01*
X60470142Y14852952D01*
X60470142Y14973904D01*
X60445952Y15022285D01*
X60421761Y15046476D01*
X60373380Y15070666D01*
X60276619Y15070666D01*
X60228238Y15046476D01*
X60204047Y15022285D01*
X60179857Y14973904D01*
%TO.C,R7*%
X51985333Y31520190D02*
X51816000Y31762095D01*
X51695047Y31520190D02*
X51695047Y32028190D01*
X51888571Y32028190D01*
X51936952Y32004000D01*
X51961142Y31979809D01*
X51985333Y31931428D01*
X51985333Y31858857D01*
X51961142Y31810476D01*
X51936952Y31786285D01*
X51888571Y31762095D01*
X51695047Y31762095D01*
X52154666Y32028190D02*
X52493333Y32028190D01*
X52275619Y31520190D01*
%TO.C,R8*%
X59986333Y16534190D02*
X59817000Y16776095D01*
X59696047Y16534190D02*
X59696047Y17042190D01*
X59889571Y17042190D01*
X59937952Y17018000D01*
X59962142Y16993809D01*
X59986333Y16945428D01*
X59986333Y16872857D01*
X59962142Y16824476D01*
X59937952Y16800285D01*
X59889571Y16776095D01*
X59696047Y16776095D01*
X60276619Y16824476D02*
X60228238Y16848666D01*
X60204047Y16872857D01*
X60179857Y16921238D01*
X60179857Y16945428D01*
X60204047Y16993809D01*
X60228238Y17018000D01*
X60276619Y17042190D01*
X60373380Y17042190D01*
X60421761Y17018000D01*
X60445952Y16993809D01*
X60470142Y16945428D01*
X60470142Y16921238D01*
X60445952Y16872857D01*
X60421761Y16848666D01*
X60373380Y16824476D01*
X60276619Y16824476D01*
X60228238Y16800285D01*
X60204047Y16776095D01*
X60179857Y16727714D01*
X60179857Y16630952D01*
X60204047Y16582571D01*
X60228238Y16558380D01*
X60276619Y16534190D01*
X60373380Y16534190D01*
X60421761Y16558380D01*
X60445952Y16582571D01*
X60470142Y16630952D01*
X60470142Y16727714D01*
X60445952Y16776095D01*
X60421761Y16800285D01*
X60373380Y16824476D01*
%TO.C,R9*%
X48108809Y37507333D02*
X47866904Y37338000D01*
X48108809Y37217047D02*
X47600809Y37217047D01*
X47600809Y37410571D01*
X47625000Y37458952D01*
X47649190Y37483142D01*
X47697571Y37507333D01*
X47770142Y37507333D01*
X47818523Y37483142D01*
X47842714Y37458952D01*
X47866904Y37410571D01*
X47866904Y37217047D01*
X48108809Y37749238D02*
X48108809Y37846000D01*
X48084619Y37894380D01*
X48060428Y37918571D01*
X47987857Y37966952D01*
X47891095Y37991142D01*
X47697571Y37991142D01*
X47649190Y37966952D01*
X47625000Y37942761D01*
X47600809Y37894380D01*
X47600809Y37797619D01*
X47625000Y37749238D01*
X47649190Y37725047D01*
X47697571Y37700857D01*
X47818523Y37700857D01*
X47866904Y37725047D01*
X47891095Y37749238D01*
X47915285Y37797619D01*
X47915285Y37894380D01*
X47891095Y37942761D01*
X47866904Y37966952D01*
X47818523Y37991142D01*
%TO.C,R10*%
X51616428Y23773190D02*
X51447095Y24015095D01*
X51326142Y23773190D02*
X51326142Y24281190D01*
X51519666Y24281190D01*
X51568047Y24257000D01*
X51592238Y24232809D01*
X51616428Y24184428D01*
X51616428Y24111857D01*
X51592238Y24063476D01*
X51568047Y24039285D01*
X51519666Y24015095D01*
X51326142Y24015095D01*
X52100238Y23773190D02*
X51809952Y23773190D01*
X51955095Y23773190D02*
X51955095Y24281190D01*
X51906714Y24208619D01*
X51858333Y24160238D01*
X51809952Y24136047D01*
X52414714Y24281190D02*
X52463095Y24281190D01*
X52511476Y24257000D01*
X52535666Y24232809D01*
X52559857Y24184428D01*
X52584047Y24087666D01*
X52584047Y23966714D01*
X52559857Y23869952D01*
X52535666Y23821571D01*
X52511476Y23797380D01*
X52463095Y23773190D01*
X52414714Y23773190D01*
X52366333Y23797380D01*
X52342142Y23821571D01*
X52317952Y23869952D01*
X52293761Y23966714D01*
X52293761Y24087666D01*
X52317952Y24184428D01*
X52342142Y24232809D01*
X52366333Y24257000D01*
X52414714Y24281190D01*
%TO.C,R11*%
X41151628Y8456990D02*
X40982295Y8698895D01*
X40861342Y8456990D02*
X40861342Y8964990D01*
X41054866Y8964990D01*
X41103247Y8940800D01*
X41127438Y8916609D01*
X41151628Y8868228D01*
X41151628Y8795657D01*
X41127438Y8747276D01*
X41103247Y8723085D01*
X41054866Y8698895D01*
X40861342Y8698895D01*
X41635438Y8456990D02*
X41345152Y8456990D01*
X41490295Y8456990D02*
X41490295Y8964990D01*
X41441914Y8892419D01*
X41393533Y8844038D01*
X41345152Y8819847D01*
X42119247Y8456990D02*
X41828961Y8456990D01*
X41974104Y8456990D02*
X41974104Y8964990D01*
X41925723Y8892419D01*
X41877342Y8844038D01*
X41828961Y8819847D01*
%TO.C,R12*%
X41202428Y15645190D02*
X41033095Y15887095D01*
X40912142Y15645190D02*
X40912142Y16153190D01*
X41105666Y16153190D01*
X41154047Y16129000D01*
X41178238Y16104809D01*
X41202428Y16056428D01*
X41202428Y15983857D01*
X41178238Y15935476D01*
X41154047Y15911285D01*
X41105666Y15887095D01*
X40912142Y15887095D01*
X41686238Y15645190D02*
X41395952Y15645190D01*
X41541095Y15645190D02*
X41541095Y16153190D01*
X41492714Y16080619D01*
X41444333Y16032238D01*
X41395952Y16008047D01*
X41879761Y16104809D02*
X41903952Y16129000D01*
X41952333Y16153190D01*
X42073285Y16153190D01*
X42121666Y16129000D01*
X42145857Y16104809D01*
X42170047Y16056428D01*
X42170047Y16008047D01*
X42145857Y15935476D01*
X41855571Y15645190D01*
X42170047Y15645190D01*
%TO.C,R17*%
X37821809Y24057428D02*
X37579904Y23888095D01*
X37821809Y23767142D02*
X37313809Y23767142D01*
X37313809Y23960666D01*
X37338000Y24009047D01*
X37362190Y24033238D01*
X37410571Y24057428D01*
X37483142Y24057428D01*
X37531523Y24033238D01*
X37555714Y24009047D01*
X37579904Y23960666D01*
X37579904Y23767142D01*
X37821809Y24541238D02*
X37821809Y24250952D01*
X37821809Y24396095D02*
X37313809Y24396095D01*
X37386380Y24347714D01*
X37434761Y24299333D01*
X37458952Y24250952D01*
X37313809Y24710571D02*
X37313809Y25049238D01*
X37821809Y24831523D01*
%TO.C,R19*%
X37694809Y19612428D02*
X37452904Y19443095D01*
X37694809Y19322142D02*
X37186809Y19322142D01*
X37186809Y19515666D01*
X37211000Y19564047D01*
X37235190Y19588238D01*
X37283571Y19612428D01*
X37356142Y19612428D01*
X37404523Y19588238D01*
X37428714Y19564047D01*
X37452904Y19515666D01*
X37452904Y19322142D01*
X37694809Y20096238D02*
X37694809Y19805952D01*
X37694809Y19951095D02*
X37186809Y19951095D01*
X37259380Y19902714D01*
X37307761Y19854333D01*
X37331952Y19805952D01*
X37694809Y20338142D02*
X37694809Y20434904D01*
X37670619Y20483285D01*
X37646428Y20507476D01*
X37573857Y20555857D01*
X37477095Y20580047D01*
X37283571Y20580047D01*
X37235190Y20555857D01*
X37211000Y20531666D01*
X37186809Y20483285D01*
X37186809Y20386523D01*
X37211000Y20338142D01*
X37235190Y20313952D01*
X37283571Y20289761D01*
X37404523Y20289761D01*
X37452904Y20313952D01*
X37477095Y20338142D01*
X37501285Y20386523D01*
X37501285Y20483285D01*
X37477095Y20531666D01*
X37452904Y20555857D01*
X37404523Y20580047D01*
%TO.C,Y1*%
X29197904Y24523095D02*
X29439809Y24523095D01*
X28931809Y24353761D02*
X29197904Y24523095D01*
X28931809Y24692428D01*
X29439809Y25127857D02*
X29439809Y24837571D01*
X29439809Y24982714D02*
X28931809Y24982714D01*
X29004380Y24934333D01*
X29052761Y24885952D01*
X29076952Y24837571D01*
%TD*%
M02*
