%TF.GenerationSoftware,KiCad,Pcbnew,(5.1.9)-1*%
%TF.CreationDate,2021-11-09T16:48:14-06:00*%
%TF.ProjectId,zigbeeCape,7a696762-6565-4436-9170-652e6b696361,rev?*%
%TF.SameCoordinates,Original*%
%TF.FileFunction,Soldermask,Bot*%
%TF.FilePolarity,Negative*%
%FSLAX46Y46*%
G04 Gerber Fmt 4.6, Leading zero omitted, Abs format (unit mm)*
G04 Created by KiCad (PCBNEW (5.1.9)-1) date 2021-11-09 16:48:14*
%MOMM*%
%LPD*%
G01*
G04 APERTURE LIST*
%ADD10R,1.700000X1.700000*%
%ADD11O,1.700000X1.700000*%
%ADD12C,0.515000*%
%ADD13C,2.050000*%
%ADD14C,2.250000*%
G04 APERTURE END LIST*
D10*
%TO.C,U5*%
X3810000Y1905000D03*
D11*
X3810000Y4445000D03*
X6350000Y1905000D03*
X6350000Y4445000D03*
X8890000Y1905000D03*
X8890000Y4445000D03*
X11430000Y1905000D03*
X11430000Y4445000D03*
X13970000Y1905000D03*
X13970000Y4445000D03*
X16510000Y1905000D03*
X16510000Y4445000D03*
X19050000Y1905000D03*
X19050000Y4445000D03*
X21590000Y1905000D03*
X21590000Y4445000D03*
X24130000Y1905000D03*
X24130000Y4445000D03*
X26670000Y1905000D03*
X26670000Y4445000D03*
X29210000Y1905000D03*
X29210000Y4445000D03*
X31750000Y1905000D03*
X31750000Y4445000D03*
X34290000Y1905000D03*
X34290000Y4445000D03*
X36830000Y1905000D03*
X36830000Y4445000D03*
X39370000Y1905000D03*
X39370000Y4445000D03*
X41910000Y1905000D03*
X41910000Y4445000D03*
X44450000Y1905000D03*
X44450000Y4445000D03*
X46990000Y1905000D03*
X46990000Y4445000D03*
X49530000Y1905000D03*
X49530000Y4445000D03*
X52070000Y1905000D03*
X52070000Y4445000D03*
X54610000Y1905000D03*
X54610000Y4445000D03*
X57150000Y1905000D03*
X57150000Y4445000D03*
X59690000Y1905000D03*
X59690000Y4445000D03*
%TD*%
D12*
%TO.C,U1*%
X39703600Y36560000D03*
X39703600Y35530000D03*
X39703600Y34500000D03*
X39703600Y33470000D03*
X39703600Y32440000D03*
X40733600Y36560000D03*
X40733600Y35530000D03*
X40733600Y34500000D03*
X40733600Y33470000D03*
X40733600Y32440000D03*
X41763600Y36560000D03*
X41763600Y35530000D03*
X41763600Y34500000D03*
X41763600Y33470000D03*
X41763600Y32440000D03*
X42793600Y36560000D03*
X42793600Y35530000D03*
X42793600Y34500000D03*
X42793600Y33470000D03*
X42793600Y32440000D03*
X43823600Y36560000D03*
X43823600Y35530000D03*
X43823600Y34500000D03*
X43823600Y33470000D03*
X43823600Y32440000D03*
%TD*%
D13*
%TO.C,U3*%
X16891000Y22606000D03*
D14*
X19431000Y20066000D03*
X19431000Y25146000D03*
X14351000Y25146000D03*
X14351000Y20066000D03*
%TD*%
%TO.C,L1*%
G36*
G01*
X41714000Y42487001D02*
X41714000Y41586999D01*
G75*
G02*
X41464001Y41337000I-249999J0D01*
G01*
X40813999Y41337000D01*
G75*
G02*
X40564000Y41586999I0J249999D01*
G01*
X40564000Y42487001D01*
G75*
G02*
X40813999Y42737000I249999J0D01*
G01*
X41464001Y42737000D01*
G75*
G02*
X41714000Y42487001I0J-249999D01*
G01*
G37*
G36*
G01*
X43764000Y42487001D02*
X43764000Y41586999D01*
G75*
G02*
X43514001Y41337000I-249999J0D01*
G01*
X42863999Y41337000D01*
G75*
G02*
X42614000Y41586999I0J249999D01*
G01*
X42614000Y42487001D01*
G75*
G02*
X42863999Y42737000I249999J0D01*
G01*
X43514001Y42737000D01*
G75*
G02*
X43764000Y42487001I0J-249999D01*
G01*
G37*
%TD*%
%TO.C,C13*%
G36*
G01*
X38156000Y40496500D02*
X38156000Y40021500D01*
G75*
G02*
X37918500Y39784000I-237500J0D01*
G01*
X37318500Y39784000D01*
G75*
G02*
X37081000Y40021500I0J237500D01*
G01*
X37081000Y40496500D01*
G75*
G02*
X37318500Y40734000I237500J0D01*
G01*
X37918500Y40734000D01*
G75*
G02*
X38156000Y40496500I0J-237500D01*
G01*
G37*
G36*
G01*
X39881000Y40496500D02*
X39881000Y40021500D01*
G75*
G02*
X39643500Y39784000I-237500J0D01*
G01*
X39043500Y39784000D01*
G75*
G02*
X38806000Y40021500I0J237500D01*
G01*
X38806000Y40496500D01*
G75*
G02*
X39043500Y40734000I237500J0D01*
G01*
X39643500Y40734000D01*
G75*
G02*
X39881000Y40496500I0J-237500D01*
G01*
G37*
%TD*%
%TO.C,C31*%
G36*
G01*
X19276000Y29772000D02*
X19586000Y29772000D01*
G75*
G02*
X19741000Y29617000I0J-155000D01*
G01*
X19741000Y29192000D01*
G75*
G02*
X19586000Y29037000I-155000J0D01*
G01*
X19276000Y29037000D01*
G75*
G02*
X19121000Y29192000I0J155000D01*
G01*
X19121000Y29617000D01*
G75*
G02*
X19276000Y29772000I155000J0D01*
G01*
G37*
G36*
G01*
X19276000Y30907000D02*
X19586000Y30907000D01*
G75*
G02*
X19741000Y30752000I0J-155000D01*
G01*
X19741000Y30327000D01*
G75*
G02*
X19586000Y30172000I-155000J0D01*
G01*
X19276000Y30172000D01*
G75*
G02*
X19121000Y30327000I0J155000D01*
G01*
X19121000Y30752000D01*
G75*
G02*
X19276000Y30907000I155000J0D01*
G01*
G37*
%TD*%
D11*
%TO.C,U4*%
X59690000Y52705000D03*
X59690000Y50165000D03*
X57150000Y52705000D03*
X57150000Y50165000D03*
X54610000Y52705000D03*
X54610000Y50165000D03*
X52070000Y52705000D03*
X52070000Y50165000D03*
X49530000Y52705000D03*
X49530000Y50165000D03*
X46990000Y52705000D03*
X46990000Y50165000D03*
X44450000Y52705000D03*
X44450000Y50165000D03*
X41910000Y52705000D03*
X41910000Y50165000D03*
X39370000Y52705000D03*
X39370000Y50165000D03*
X36830000Y52705000D03*
X36830000Y50165000D03*
X34290000Y52705000D03*
X34290000Y50165000D03*
X31750000Y52705000D03*
X31750000Y50165000D03*
X29210000Y52705000D03*
X29210000Y50165000D03*
X26670000Y52705000D03*
X26670000Y50165000D03*
X24130000Y52705000D03*
X24130000Y50165000D03*
X21590000Y52705000D03*
X21590000Y50165000D03*
X19050000Y52705000D03*
X19050000Y50165000D03*
X16510000Y52705000D03*
X16510000Y50165000D03*
X13970000Y52705000D03*
X13970000Y50165000D03*
X11430000Y52705000D03*
X11430000Y50165000D03*
X8890000Y52705000D03*
X8890000Y50165000D03*
X6350000Y52705000D03*
X6350000Y50165000D03*
X3810000Y52705000D03*
D10*
X3810000Y50165000D03*
%TD*%
%TO.C,C6*%
G36*
G01*
X36505000Y29701500D02*
X36505000Y29226500D01*
G75*
G02*
X36267500Y28989000I-237500J0D01*
G01*
X35667500Y28989000D01*
G75*
G02*
X35430000Y29226500I0J237500D01*
G01*
X35430000Y29701500D01*
G75*
G02*
X35667500Y29939000I237500J0D01*
G01*
X36267500Y29939000D01*
G75*
G02*
X36505000Y29701500I0J-237500D01*
G01*
G37*
G36*
G01*
X38230000Y29701500D02*
X38230000Y29226500D01*
G75*
G02*
X37992500Y28989000I-237500J0D01*
G01*
X37392500Y28989000D01*
G75*
G02*
X37155000Y29226500I0J237500D01*
G01*
X37155000Y29701500D01*
G75*
G02*
X37392500Y29939000I237500J0D01*
G01*
X37992500Y29939000D01*
G75*
G02*
X38230000Y29701500I0J-237500D01*
G01*
G37*
%TD*%
%TO.C,C9*%
G36*
G01*
X47481500Y38425000D02*
X47006500Y38425000D01*
G75*
G02*
X46769000Y38662500I0J237500D01*
G01*
X46769000Y39262500D01*
G75*
G02*
X47006500Y39500000I237500J0D01*
G01*
X47481500Y39500000D01*
G75*
G02*
X47719000Y39262500I0J-237500D01*
G01*
X47719000Y38662500D01*
G75*
G02*
X47481500Y38425000I-237500J0D01*
G01*
G37*
G36*
G01*
X47481500Y36700000D02*
X47006500Y36700000D01*
G75*
G02*
X46769000Y36937500I0J237500D01*
G01*
X46769000Y37537500D01*
G75*
G02*
X47006500Y37775000I237500J0D01*
G01*
X47481500Y37775000D01*
G75*
G02*
X47719000Y37537500I0J-237500D01*
G01*
X47719000Y36937500D01*
G75*
G02*
X47481500Y36700000I-237500J0D01*
G01*
G37*
%TD*%
%TO.C,C10*%
G36*
G01*
X49132500Y36700000D02*
X48657500Y36700000D01*
G75*
G02*
X48420000Y36937500I0J237500D01*
G01*
X48420000Y37537500D01*
G75*
G02*
X48657500Y37775000I237500J0D01*
G01*
X49132500Y37775000D01*
G75*
G02*
X49370000Y37537500I0J-237500D01*
G01*
X49370000Y36937500D01*
G75*
G02*
X49132500Y36700000I-237500J0D01*
G01*
G37*
G36*
G01*
X49132500Y38425000D02*
X48657500Y38425000D01*
G75*
G02*
X48420000Y38662500I0J237500D01*
G01*
X48420000Y39262500D01*
G75*
G02*
X48657500Y39500000I237500J0D01*
G01*
X49132500Y39500000D01*
G75*
G02*
X49370000Y39262500I0J-237500D01*
G01*
X49370000Y38662500D01*
G75*
G02*
X49132500Y38425000I-237500J0D01*
G01*
G37*
%TD*%
%TO.C,C11*%
G36*
G01*
X39119000Y43798500D02*
X39119000Y43323500D01*
G75*
G02*
X38881500Y43086000I-237500J0D01*
G01*
X38281500Y43086000D01*
G75*
G02*
X38044000Y43323500I0J237500D01*
G01*
X38044000Y43798500D01*
G75*
G02*
X38281500Y44036000I237500J0D01*
G01*
X38881500Y44036000D01*
G75*
G02*
X39119000Y43798500I0J-237500D01*
G01*
G37*
G36*
G01*
X37394000Y43798500D02*
X37394000Y43323500D01*
G75*
G02*
X37156500Y43086000I-237500J0D01*
G01*
X36556500Y43086000D01*
G75*
G02*
X36319000Y43323500I0J237500D01*
G01*
X36319000Y43798500D01*
G75*
G02*
X36556500Y44036000I237500J0D01*
G01*
X37156500Y44036000D01*
G75*
G02*
X37394000Y43798500I0J-237500D01*
G01*
G37*
%TD*%
%TO.C,C16*%
G36*
G01*
X39119000Y42147500D02*
X39119000Y41672500D01*
G75*
G02*
X38881500Y41435000I-237500J0D01*
G01*
X38281500Y41435000D01*
G75*
G02*
X38044000Y41672500I0J237500D01*
G01*
X38044000Y42147500D01*
G75*
G02*
X38281500Y42385000I237500J0D01*
G01*
X38881500Y42385000D01*
G75*
G02*
X39119000Y42147500I0J-237500D01*
G01*
G37*
G36*
G01*
X37394000Y42147500D02*
X37394000Y41672500D01*
G75*
G02*
X37156500Y41435000I-237500J0D01*
G01*
X36556500Y41435000D01*
G75*
G02*
X36319000Y41672500I0J237500D01*
G01*
X36319000Y42147500D01*
G75*
G02*
X36556500Y42385000I237500J0D01*
G01*
X37156500Y42385000D01*
G75*
G02*
X37394000Y42147500I0J-237500D01*
G01*
G37*
%TD*%
M02*
