M48
; DRILL file {KiCad (5.1.9)-1} date 11/09/21 16:48:16
; FORMAT={-:-/ absolute / inch / decimal}
; #@! TF.CreationDate,2021-11-09T16:48:16-06:00
; #@! TF.GenerationSoftware,Kicad,Pcbnew,(5.1.9)-1
; #@! TF.FileFunction,Plated,1,4,PTH
FMAT,2
INCH
T1C0.0101
T2C0.0118
T3C0.0120
T4C0.0130
T5C0.0394
T6C0.0591
T7C0.0669
%
G90
G05
T1
X1.5631Y1.4394
X1.5631Y1.3988
X1.5631Y1.3583
X1.5631Y1.3177
X1.5631Y1.2772
X1.6037Y1.4394
X1.6037Y1.3988
X1.6037Y1.3583
X1.6037Y1.3177
X1.6037Y1.2772
X1.6442Y1.4394
X1.6442Y1.3988
X1.6442Y1.3583
X1.6442Y1.3177
X1.6442Y1.2772
X1.6848Y1.4394
X1.6848Y1.3988
X1.6848Y1.3583
X1.6848Y1.3177
X1.6848Y1.2772
X1.7253Y1.4394
X1.7253Y1.3988
X1.7253Y1.3583
X1.7253Y1.3177
X1.7253Y1.2772
T2
X0.365Y1.89
X0.365Y1.79
X0.365Y1.79
X0.365Y1.69
X0.365Y1.69
X0.365Y1.59
X0.365Y1.59
X0.365Y1.49
X0.365Y1.49
X0.365Y1.39
X0.365Y1.39
X0.365Y1.29
X0.365Y1.29
X0.365Y1.19
X0.365Y1.19
X0.365Y1.09
X0.365Y1.09
X0.365Y0.99
X0.365Y0.99
X0.365Y0.89
X0.365Y0.89
X0.365Y0.79
X0.365Y0.79
X0.365Y0.69
X0.365Y0.69
X0.365Y0.59
X0.365Y0.59
X0.365Y0.49
X0.365Y0.39
X0.365Y0.29
X0.465Y1.89
X0.465Y1.89
X0.465Y1.79
X0.465Y1.69
X0.465Y1.59
X0.465Y1.49
X0.465Y1.39
X0.465Y1.29
X0.465Y1.19
X0.465Y1.09
X0.465Y0.99
X0.465Y0.89
X0.465Y0.79
X0.465Y0.69
X0.465Y0.59
X0.465Y0.49
X0.465Y0.39
X0.465Y0.29
X0.565Y1.89
X0.565Y1.89
X0.565Y1.79
X0.565Y1.69
X0.565Y1.59
X0.565Y1.49
X0.565Y1.39
X0.565Y1.29
X0.565Y1.19
X0.565Y1.09
X0.565Y0.89
X0.565Y0.69
X0.565Y0.59
X0.565Y0.49
X0.565Y0.39
X0.565Y0.29
X0.665Y1.89
X0.665Y1.89
X0.665Y1.79
X0.665Y1.69
X0.665Y1.59
X0.665Y1.49
X0.665Y1.39
X0.665Y1.29
X0.665Y1.19
X0.665Y1.09
X0.665Y0.79
X0.665Y0.69
X0.665Y0.59
X0.665Y0.49
X0.665Y0.39
X0.665Y0.29
X0.748Y0.3
X0.765Y1.89
X0.765Y1.89
X0.765Y1.79
X0.765Y1.69
X0.765Y1.59
X0.765Y1.49
X0.765Y1.39
X0.765Y1.29
X0.765Y1.09
X0.765Y0.89
X0.765Y0.69
X0.765Y0.59
X0.765Y0.49
X0.765Y0.39
X0.85Y1.39
X0.854Y0.402
X0.865Y1.89
X0.865Y1.89
X0.865Y1.79
X0.865Y1.69
X0.865Y1.59
X0.865Y1.49
X0.865Y1.19
X0.865Y1.09
X0.865Y0.99
X0.865Y0.89
X0.865Y0.79
X0.865Y0.69
X0.865Y0.59
X0.865Y0.49
X0.965Y1.89
X0.965Y1.89
X0.965Y1.79
X0.965Y1.69
X0.965Y1.59
X0.965Y0.99
X0.965Y0.89
X0.965Y0.79
X0.965Y0.69
X0.965Y0.59
X0.965Y0.49
X0.998Y1.226
X1.045Y1.374
X1.065Y1.89
X1.065Y1.89
X1.065Y1.79
X1.065Y1.69
X1.065Y1.09
X1.065Y0.99
X1.065Y0.89
X1.065Y0.79
X1.065Y0.69
X1.067Y1.512
X1.071Y1.308
X1.096Y0.518
X1.099Y1.428
X1.118Y1.558
X1.145Y1.356
X1.146Y0.7
X1.155Y0.992
X1.155Y0.892
X1.155Y0.792
X1.161Y1.49
X1.165Y1.89
X1.165Y1.79
X1.165Y1.69
X1.192Y0.534
X1.196Y0.62
X1.204Y1.558
X1.209Y1.394
X1.25Y1.715
X1.265Y1.89
X1.265Y1.89
X1.265Y1.79
X1.288Y0.63
X1.3Y0.722
X1.35Y1.715
X1.365Y1.89
X1.365Y1.89
X1.365Y1.79
X1.365Y1.79
X1.386Y0.754
X1.428Y0.294
X1.465Y1.89
X1.465Y1.79
X1.524Y0.294
X1.564Y0.408
X1.565Y1.89
X1.565Y1.79
X1.63Y0.292
X1.665Y1.89
X1.665Y1.89
X1.665Y1.79
X1.665Y1.79
X1.665Y1.725
X1.734Y0.848
X1.746Y0.292
X1.756Y1.888
X1.756Y1.79
X1.756Y1.726
X1.766Y0.584
X1.778Y0.968
X1.848Y0.29
X1.858Y0.708
X1.886Y1.89
X1.918Y1.402
X1.944Y1.618
X1.952Y1.09
X1.952Y0.99
X1.952Y0.29
X1.965Y1.89
X2.024Y1.382
X2.052Y1.59
X2.052Y1.49
X2.052Y1.09
X2.052Y0.99
X2.052Y0.79
X2.052Y0.49
X2.052Y0.29
X2.065Y1.89
X2.068Y1.744
X2.152Y1.59
X2.152Y1.49
X2.152Y1.09
X2.152Y0.99
X2.152Y0.79
X2.152Y0.69
X2.152Y0.49
X2.152Y0.39
X2.152Y0.29
X2.165Y1.89
X2.212Y1.796
X2.216Y1.706
X2.252Y1.59
X2.252Y1.49
X2.252Y1.09
X2.252Y0.99
X2.252Y0.79
X2.252Y0.69
X2.252Y0.49
X2.252Y0.39
X2.252Y0.29
X2.265Y1.89
X2.352Y1.59
X2.352Y1.49
X2.352Y1.09
X2.352Y0.99
X2.352Y0.79
X2.352Y0.69
X2.352Y0.49
X2.352Y0.39
X2.352Y0.29
X2.354Y1.738
X2.365Y1.89
X2.445Y2.1
X2.445Y2.01
X2.445Y1.89
X2.445Y1.79
X2.445Y1.69
X2.445Y1.59
X2.445Y1.49
X2.445Y1.39
X2.445Y1.29
X2.445Y1.19
X2.445Y1.09
X2.445Y0.99
X2.445Y0.89
X2.445Y0.79
X2.445Y0.69
X2.445Y0.59
X2.445Y0.49
X2.445Y0.39
X2.445Y0.31
X2.445Y0.24
X2.452Y0.036
T3
X0.945Y1.325
X0.95Y1.295
X0.955Y1.36
X0.97Y1.425
X1.0Y1.355
X1.005Y1.295
X1.01Y1.655
X1.01Y1.6
X1.03Y1.48
X1.03Y1.425
X1.05Y1.21
X1.07Y1.65
X1.07Y1.185
X1.075Y1.255
X1.2Y1.315
X1.245Y1.16
X1.255Y1.49
X1.255Y1.44
X1.26Y1.64
X1.285Y1.67
X1.295Y1.21
X1.295Y1.16
X1.31Y1.44
X1.35Y1.665
X1.4Y1.71
X1.4Y1.65
X1.415Y1.535
X1.43Y1.595
X1.441Y1.375
X1.45Y1.765
X1.48Y1.535
X1.522Y1.538
X1.56Y1.714
X1.589Y1.612
X1.5937Y1.54
X1.607Y1.716
X1.73Y1.606
X1.7708Y1.564
X1.82Y1.534
X1.82Y1.462
X1.83Y1.406
X1.83Y1.4356
X1.886Y1.576
X1.9Y1.832
X1.9Y1.666
X1.966Y1.536
X1.975Y1.465
X2.004Y1.836
X2.118Y1.832
X2.318Y1.832
X2.426Y1.834
T4
X1.134Y0.37
X1.234Y0.862
X1.2743Y0.3957
X1.276Y0.442
X1.288Y0.902
X1.334Y0.866
X1.408Y1.114
X1.42Y1.2
X1.462Y0.794
X1.51Y1.194
X1.528Y1.15
X1.616Y1.568
X1.658Y1.608
X1.718Y1.134
X1.732Y1.036
X1.808Y1.036
X1.822Y0.478
X1.824Y0.406
X1.826Y1.32
X1.86Y1.332
X1.862Y1.106
X1.874Y0.524
X1.898Y1.34
X1.908Y0.786
X1.936Y0.734
X1.938Y0.416
X1.956Y0.832
X1.978Y0.524
X1.986Y1.502
X2.052Y0.732
X2.058Y0.42
X2.246Y0.732
X2.254Y0.416
X2.364Y0.734
X2.368Y0.418
X2.37Y1.214
X2.372Y1.412
X2.372Y1.288
T5
X0.15Y2.075
X0.15Y1.975
X0.15Y0.175
X0.15Y0.075
X0.25Y2.075
X0.25Y1.975
X0.25Y0.175
X0.25Y0.075
X0.35Y2.075
X0.35Y1.975
X0.35Y0.175
X0.35Y0.075
X0.45Y2.075
X0.45Y1.975
X0.45Y0.175
X0.45Y0.075
X0.55Y2.075
X0.55Y1.975
X0.55Y0.175
X0.55Y0.075
X0.65Y2.075
X0.65Y1.975
X0.65Y0.175
X0.65Y0.075
X0.75Y2.075
X0.75Y1.975
X0.75Y0.175
X0.75Y0.075
X0.85Y2.075
X0.85Y1.975
X0.85Y0.175
X0.85Y0.075
X0.95Y2.075
X0.95Y1.975
X0.95Y0.175
X0.95Y0.075
X1.05Y2.075
X1.05Y1.975
X1.05Y0.175
X1.05Y0.075
X1.15Y2.075
X1.15Y1.975
X1.15Y0.175
X1.15Y0.075
X1.25Y2.075
X1.25Y1.975
X1.25Y0.175
X1.25Y0.075
X1.35Y2.075
X1.35Y1.975
X1.35Y0.175
X1.35Y0.075
X1.45Y2.075
X1.45Y1.975
X1.45Y0.175
X1.45Y0.075
X1.55Y2.075
X1.55Y1.975
X1.55Y0.175
X1.55Y0.075
X1.65Y2.075
X1.65Y1.975
X1.65Y0.175
X1.65Y0.075
X1.75Y2.075
X1.75Y1.975
X1.75Y0.175
X1.75Y0.075
X1.85Y2.075
X1.85Y1.975
X1.85Y0.175
X1.85Y0.075
X1.95Y2.075
X1.95Y1.975
X1.95Y0.175
X1.95Y0.075
X2.05Y2.075
X2.05Y1.975
X2.05Y0.175
X2.05Y0.075
X2.15Y2.075
X2.15Y1.975
X2.15Y0.175
X2.15Y0.075
X2.25Y2.075
X2.25Y1.975
X2.25Y0.175
X2.25Y0.075
X2.35Y2.075
X2.35Y1.975
X2.35Y0.175
X2.35Y0.075
T6
X0.665Y0.89
T7
X0.565Y0.99
X0.565Y0.79
X0.765Y0.99
X0.765Y0.79
T0
M30
