%TF.GenerationSoftware,KiCad,Pcbnew,(5.1.9)-1*%
%TF.CreationDate,2021-11-09T16:48:14-06:00*%
%TF.ProjectId,zigbeeCape,7a696762-6565-4436-9170-652e6b696361,rev?*%
%TF.SameCoordinates,Original*%
%TF.FileFunction,Copper,L2,Inr*%
%TF.FilePolarity,Positive*%
%FSLAX46Y46*%
G04 Gerber Fmt 4.6, Leading zero omitted, Abs format (unit mm)*
G04 Created by KiCad (PCBNEW (5.1.9)-1) date 2021-11-09 16:48:14*
%MOMM*%
%LPD*%
G01*
G04 APERTURE LIST*
%TA.AperFunction,ComponentPad*%
%ADD10R,1.700000X1.700000*%
%TD*%
%TA.AperFunction,ComponentPad*%
%ADD11O,1.700000X1.700000*%
%TD*%
%TA.AperFunction,ComponentPad*%
%ADD12C,0.600000*%
%TD*%
%TA.AperFunction,ComponentPad*%
%ADD13C,0.515000*%
%TD*%
%TA.AperFunction,ComponentPad*%
%ADD14C,2.050000*%
%TD*%
%TA.AperFunction,ComponentPad*%
%ADD15C,2.250000*%
%TD*%
%TA.AperFunction,ViaPad*%
%ADD16C,0.558800*%
%TD*%
%TA.AperFunction,ViaPad*%
%ADD17C,0.685800*%
%TD*%
%TA.AperFunction,Conductor*%
%ADD18C,0.254000*%
%TD*%
%TA.AperFunction,Conductor*%
%ADD19C,0.100000*%
%TD*%
G04 APERTURE END LIST*
D10*
%TO.N,GND*%
%TO.C,U5*%
X3810000Y1905000D03*
D11*
X3810000Y4445000D03*
%TO.N,+3V3*%
X6350000Y1905000D03*
X6350000Y4445000D03*
%TO.N,Net-(U5-Pad5)*%
X8890000Y1905000D03*
%TO.N,Net-(U5-Pad6)*%
X8890000Y4445000D03*
%TO.N,Net-(U5-Pad7)*%
X11430000Y1905000D03*
%TO.N,Net-(U5-Pad8)*%
X11430000Y4445000D03*
%TO.N,Net-(U5-Pad9)*%
X13970000Y1905000D03*
%TO.N,Net-(U5-Pad10)*%
X13970000Y4445000D03*
%TO.N,UART_RX*%
X16510000Y1905000D03*
%TO.N,Net-(U5-Pad12)*%
X16510000Y4445000D03*
%TO.N,UART_TX*%
X19050000Y1905000D03*
%TO.N,Net-(U5-Pad14)*%
X19050000Y4445000D03*
%TO.N,SPI_CS2*%
X21590000Y1905000D03*
%TO.N,Net-(U5-Pad16)*%
X21590000Y4445000D03*
%TO.N,SPI_CS1*%
X24130000Y1905000D03*
%TO.N,SPI_MISO*%
X24130000Y4445000D03*
%TO.N,I2C_SCL*%
X26670000Y1905000D03*
%TO.N,I2C_SDA*%
X26670000Y4445000D03*
%TO.N,SPI_MOSI*%
X29210000Y1905000D03*
%TO.N,SPI_CLK*%
X29210000Y4445000D03*
%TO.N,Net-(U5-Pad23)*%
X31750000Y1905000D03*
%TO.N,Net-(U5-Pad24)*%
X31750000Y4445000D03*
%TO.N,Net-(U5-Pad25)*%
X34290000Y1905000D03*
%TO.N,Net-(U5-Pad26)*%
X34290000Y4445000D03*
%TO.N,Net-(U5-Pad27)*%
X36830000Y1905000D03*
%TO.N,Net-(U5-Pad28)*%
X36830000Y4445000D03*
%TO.N,Net-(U5-Pad29)*%
X39370000Y1905000D03*
%TO.N,Net-(U5-Pad30)*%
X39370000Y4445000D03*
%TO.N,Net-(U5-Pad31)*%
X41910000Y1905000D03*
%TO.N,Net-(U5-Pad32)*%
X41910000Y4445000D03*
%TO.N,Net-(U5-Pad33)*%
X44450000Y1905000D03*
%TO.N,Net-(U5-Pad34)*%
X44450000Y4445000D03*
%TO.N,Net-(U5-Pad35)*%
X46990000Y1905000D03*
%TO.N,Net-(U5-Pad36)*%
X46990000Y4445000D03*
%TO.N,Net-(U5-Pad37)*%
X49530000Y1905000D03*
%TO.N,Net-(U5-Pad38)*%
X49530000Y4445000D03*
%TO.N,Net-(U5-Pad39)*%
X52070000Y1905000D03*
%TO.N,Net-(U5-Pad40)*%
X52070000Y4445000D03*
%TO.N,Net-(U5-Pad41)*%
X54610000Y1905000D03*
%TO.N,Net-(U5-Pad42)*%
X54610000Y4445000D03*
%TO.N,GND*%
X57150000Y1905000D03*
X57150000Y4445000D03*
X59690000Y1905000D03*
X59690000Y4445000D03*
%TD*%
D12*
%TO.N,GND*%
%TO.C,REF\u002A\u002A*%
X59740800Y7366000D03*
%TD*%
%TO.N,GND*%
%TO.C,REF\u002A\u002A*%
X57200800Y7366000D03*
%TD*%
%TO.N,GND*%
%TO.C,REF\u002A\u002A*%
X54660800Y7366000D03*
%TD*%
%TO.N,GND*%
%TO.C,REF\u002A\u002A*%
X52120800Y7366000D03*
%TD*%
%TO.N,GND*%
%TO.C,REF\u002A\u002A*%
X49580800Y7366000D03*
%TD*%
%TO.N,GND*%
%TO.C,REF\u002A\u002A*%
X59740800Y9906000D03*
%TD*%
%TO.N,GND*%
%TO.C,REF\u002A\u002A*%
X57200800Y9906000D03*
%TD*%
%TO.N,GND*%
%TO.C,REF\u002A\u002A*%
X54660800Y9906000D03*
%TD*%
%TO.N,GND*%
%TO.C,REF\u002A\u002A*%
X39725600Y10363200D03*
%TD*%
%TO.N,GND*%
%TO.C,REF\u002A\u002A*%
X36271200Y7467600D03*
%TD*%
%TO.N,GND*%
%TO.C,REF\u002A\u002A*%
X59740800Y12446000D03*
%TD*%
%TO.N,GND*%
%TO.C,REF\u002A\u002A*%
X57200800Y12446000D03*
%TD*%
%TO.N,GND*%
%TO.C,REF\u002A\u002A*%
X54660800Y12446000D03*
%TD*%
%TO.N,GND*%
%TO.C,REF\u002A\u002A*%
X52120800Y12446000D03*
%TD*%
%TO.N,GND*%
%TO.C,REF\u002A\u002A*%
X44856400Y14833600D03*
%TD*%
%TO.N,GND*%
%TO.C,REF\u002A\u002A*%
X52527200Y44297600D03*
%TD*%
%TO.N,GND*%
%TO.C,REF\u002A\u002A*%
X59740800Y17526000D03*
%TD*%
%TO.N,GND*%
%TO.C,REF\u002A\u002A*%
X57200800Y17526000D03*
%TD*%
%TO.N,GND*%
%TO.C,REF\u002A\u002A*%
X54660800Y17526000D03*
%TD*%
%TO.N,GND*%
%TO.C,REF\u002A\u002A*%
X59740800Y20066000D03*
%TD*%
%TO.N,GND*%
%TO.C,REF\u002A\u002A*%
X57200800Y20066000D03*
%TD*%
%TO.N,GND*%
%TO.C,REF\u002A\u002A*%
X54660800Y20066000D03*
%TD*%
%TO.N,GND*%
%TO.C,REF\u002A\u002A*%
X52120800Y20066000D03*
%TD*%
%TO.N,GND*%
%TO.C,REF\u002A\u002A*%
X51409600Y35102800D03*
%TD*%
%TO.N,GND*%
%TO.C,REF\u002A\u002A*%
X59740800Y25146000D03*
%TD*%
%TO.N,GND*%
%TO.C,REF\u002A\u002A*%
X57200800Y25146000D03*
%TD*%
%TO.N,GND*%
%TO.C,REF\u002A\u002A*%
X54660800Y25146000D03*
%TD*%
%TO.N,GND*%
%TO.C,REF\u002A\u002A*%
X52120800Y25146000D03*
%TD*%
%TO.N,GND*%
%TO.C,REF\u002A\u002A*%
X49580800Y25146000D03*
%TD*%
%TO.N,GND*%
%TO.C,REF\u002A\u002A*%
X59740800Y27686000D03*
%TD*%
%TO.N,GND*%
%TO.C,REF\u002A\u002A*%
X57200800Y27686000D03*
%TD*%
%TO.N,GND*%
%TO.C,REF\u002A\u002A*%
X54660800Y27686000D03*
%TD*%
%TO.N,GND*%
%TO.C,REF\u002A\u002A*%
X52120800Y27686000D03*
%TD*%
%TO.N,GND*%
%TO.C,REF\u002A\u002A*%
X49580800Y27686000D03*
%TD*%
%TO.N,GND*%
%TO.C,REF\u002A\u002A*%
X56286400Y43332400D03*
%TD*%
%TO.N,GND*%
%TO.C,REF\u002A\u002A*%
X59791600Y44145200D03*
%TD*%
%TO.N,GND*%
%TO.C,REF\u002A\u002A*%
X56184800Y45618400D03*
%TD*%
%TO.N,GND*%
%TO.C,REF\u002A\u002A*%
X48717200Y35610800D03*
%TD*%
%TO.N,GND*%
%TO.C,REF\u002A\u002A*%
X59740800Y37846000D03*
%TD*%
%TO.N,GND*%
%TO.C,REF\u002A\u002A*%
X57200800Y37846000D03*
%TD*%
%TO.N,GND*%
%TO.C,REF\u002A\u002A*%
X54660800Y37846000D03*
%TD*%
%TO.N,GND*%
%TO.C,REF\u002A\u002A*%
X52120800Y37846000D03*
%TD*%
%TO.N,GND*%
%TO.C,REF\u002A\u002A*%
X59740800Y40386000D03*
%TD*%
%TO.N,GND*%
%TO.C,REF\u002A\u002A*%
X57200800Y40386000D03*
%TD*%
%TO.N,GND*%
%TO.C,REF\u002A\u002A*%
X54660800Y40386000D03*
%TD*%
%TO.N,GND*%
%TO.C,REF\u002A\u002A*%
X52120800Y40386000D03*
%TD*%
%TO.N,GND*%
%TO.C,REF\u002A\u002A*%
X62280800Y914400D03*
%TD*%
%TO.N,GND*%
%TO.C,REF\u002A\u002A*%
X35204400Y19151600D03*
%TD*%
%TO.N,GND*%
%TO.C,REF\u002A\u002A*%
X33020000Y18338800D03*
%TD*%
%TO.N,GND*%
%TO.C,REF\u002A\u002A*%
X32715200Y16002000D03*
%TD*%
%TO.N,GND*%
%TO.C,REF\u002A\u002A*%
X30276800Y13563600D03*
%TD*%
%TO.N,GND*%
%TO.C,REF\u002A\u002A*%
X30378400Y15748000D03*
%TD*%
%TO.N,GND*%
%TO.C,REF\u002A\u002A*%
X29108400Y17780000D03*
%TD*%
%TO.N,GND*%
%TO.C,REF\u002A\u002A*%
X29337000Y20116800D03*
%TD*%
%TO.N,GND*%
%TO.C,REF\u002A\u002A*%
X29337000Y22656800D03*
%TD*%
%TO.N,GND*%
%TO.C,REF\u002A\u002A*%
X29337000Y25196800D03*
%TD*%
%TO.N,GND*%
%TO.C,REF\u002A\u002A*%
X18999200Y7620000D03*
%TD*%
%TO.N,GND*%
%TO.C,REF\u002A\u002A*%
X16891000Y7366000D03*
%TD*%
%TO.N,GND*%
%TO.C,REF\u002A\u002A*%
X14351000Y7366000D03*
%TD*%
%TO.N,GND*%
%TO.C,REF\u002A\u002A*%
X11811000Y7366000D03*
%TD*%
%TO.N,GND*%
%TO.C,REF\u002A\u002A*%
X9271000Y7366000D03*
%TD*%
%TO.N,GND*%
%TO.C,REF\u002A\u002A*%
X21691600Y10210800D03*
%TD*%
%TO.N,GND*%
%TO.C,REF\u002A\u002A*%
X19431000Y9906000D03*
%TD*%
%TO.N,GND*%
%TO.C,REF\u002A\u002A*%
X16891000Y9906000D03*
%TD*%
%TO.N,GND*%
%TO.C,REF\u002A\u002A*%
X14351000Y9906000D03*
%TD*%
%TO.N,GND*%
%TO.C,REF\u002A\u002A*%
X11811000Y9906000D03*
%TD*%
%TO.N,GND*%
%TO.C,REF\u002A\u002A*%
X9271000Y9906000D03*
%TD*%
%TO.N,GND*%
%TO.C,REF\u002A\u002A*%
X21971000Y12446000D03*
%TD*%
%TO.N,GND*%
%TO.C,REF\u002A\u002A*%
X19431000Y12446000D03*
%TD*%
%TO.N,GND*%
%TO.C,REF\u002A\u002A*%
X16891000Y12446000D03*
%TD*%
%TO.N,GND*%
%TO.C,REF\u002A\u002A*%
X14351000Y12446000D03*
%TD*%
%TO.N,GND*%
%TO.C,REF\u002A\u002A*%
X11811000Y12446000D03*
%TD*%
%TO.N,GND*%
%TO.C,REF\u002A\u002A*%
X42291000Y45466000D03*
%TD*%
%TO.N,GND*%
%TO.C,REF\u002A\u002A*%
X39751000Y45466000D03*
%TD*%
%TO.N,GND*%
%TO.C,REF\u002A\u002A*%
X37211000Y45466000D03*
%TD*%
%TO.N,GND*%
%TO.C,REF\u002A\u002A*%
X34671000Y45466000D03*
%TD*%
%TO.N,GND*%
%TO.C,REF\u002A\u002A*%
X42291000Y48006000D03*
%TD*%
%TO.N,GND*%
%TO.C,REF\u002A\u002A*%
X39751000Y48006000D03*
%TD*%
%TO.N,GND*%
%TO.C,REF\u002A\u002A*%
X37211000Y48006000D03*
%TD*%
%TO.N,GND*%
%TO.C,REF\u002A\u002A*%
X25349200Y31140400D03*
%TD*%
%TO.N,GND*%
%TO.C,REF\u002A\u002A*%
X27203400Y33223200D03*
%TD*%
%TO.N,GND*%
%TO.C,REF\u002A\u002A*%
X26543000Y34899600D03*
%TD*%
%TO.N,GND*%
%TO.C,REF\u002A\u002A*%
X27914600Y36271200D03*
%TD*%
%TO.N,GND*%
%TO.C,REF\u002A\u002A*%
X29083000Y34442400D03*
%TD*%
%TO.N,GND*%
%TO.C,REF\u002A\u002A*%
X30708600Y35407600D03*
%TD*%
%TO.N,GND*%
%TO.C,REF\u002A\u002A*%
X29489400Y37846000D03*
%TD*%
%TO.N,GND*%
%TO.C,REF\u002A\u002A*%
X27101800Y38404800D03*
%TD*%
%TO.N,GND*%
%TO.C,REF\u002A\u002A*%
X30581600Y39573200D03*
%TD*%
%TO.N,GND*%
%TO.C,REF\u002A\u002A*%
X28397200Y39573200D03*
%TD*%
D13*
%TO.N,GND*%
%TO.C,U1*%
X39703600Y36560000D03*
X39703600Y35530000D03*
X39703600Y34500000D03*
X39703600Y33470000D03*
X39703600Y32440000D03*
X40733600Y36560000D03*
X40733600Y35530000D03*
X40733600Y34500000D03*
X40733600Y33470000D03*
X40733600Y32440000D03*
X41763600Y36560000D03*
X41763600Y35530000D03*
X41763600Y34500000D03*
X41763600Y33470000D03*
X41763600Y32440000D03*
X42793600Y36560000D03*
X42793600Y35530000D03*
X42793600Y34500000D03*
X42793600Y33470000D03*
X42793600Y32440000D03*
X43823600Y36560000D03*
X43823600Y35530000D03*
X43823600Y34500000D03*
X43823600Y33470000D03*
X43823600Y32440000D03*
%TD*%
D12*
%TO.N,GND*%
%TO.C,REF\u002A\u002A*%
X44602400Y43840400D03*
%TD*%
%TO.N,GND*%
%TO.C,REF\u002A\u002A*%
X42291000Y43815000D03*
%TD*%
%TO.N,GND*%
%TO.C,REF\u002A\u002A*%
X44602400Y45466000D03*
%TD*%
%TO.N,GND*%
%TO.C,REF\u002A\u002A*%
X42291000Y45466000D03*
%TD*%
%TO.N,GND*%
%TO.C,REF\u002A\u002A*%
X34290000Y43561000D03*
%TD*%
%TO.N,GND*%
%TO.C,REF\u002A\u002A*%
X31750000Y43561000D03*
%TD*%
%TO.N,GND*%
%TO.C,REF\u002A\u002A*%
X29591000Y42926000D03*
%TD*%
%TO.N,GND*%
%TO.C,REF\u002A\u002A*%
X34671000Y45466000D03*
%TD*%
%TO.N,GND*%
%TO.C,REF\u002A\u002A*%
X32131000Y45466000D03*
%TD*%
%TO.N,GND*%
%TO.C,REF\u002A\u002A*%
X29591000Y45466000D03*
%TD*%
%TO.N,GND*%
%TO.C,REF\u002A\u002A*%
X34671000Y48006000D03*
%TD*%
%TO.N,GND*%
%TO.C,REF\u002A\u002A*%
X32131000Y48006000D03*
%TD*%
D14*
%TO.N,Net-(C31-Pad2)*%
%TO.C,U3*%
X16891000Y22606000D03*
D15*
%TO.N,GND*%
X19431000Y20066000D03*
X19431000Y25146000D03*
X14351000Y25146000D03*
X14351000Y20066000D03*
%TD*%
D12*
%TO.N,GND*%
%TO.C,REF\u002A\u002A*%
X27838400Y13157200D03*
%TD*%
%TO.N,GND*%
%TO.C,REF\u002A\u002A*%
X24511000Y12446000D03*
%TD*%
%TO.N,GND*%
%TO.C,REF\u002A\u002A*%
X9271000Y12446000D03*
%TD*%
%TO.N,GND*%
%TO.C,REF\u002A\u002A*%
X24511000Y14986000D03*
%TD*%
%TO.N,GND*%
%TO.C,REF\u002A\u002A*%
X21971000Y14986000D03*
%TD*%
%TO.N,GND*%
%TO.C,REF\u002A\u002A*%
X19431000Y14986000D03*
%TD*%
%TO.N,GND*%
%TO.C,REF\u002A\u002A*%
X16891000Y14986000D03*
%TD*%
%TO.N,GND*%
%TO.C,REF\u002A\u002A*%
X14351000Y14986000D03*
%TD*%
%TO.N,GND*%
%TO.C,REF\u002A\u002A*%
X11811000Y14986000D03*
%TD*%
%TO.N,GND*%
%TO.C,REF\u002A\u002A*%
X9271000Y14986000D03*
%TD*%
%TO.N,GND*%
%TO.C,REF\u002A\u002A*%
X27051000Y17526000D03*
%TD*%
%TO.N,GND*%
%TO.C,REF\u002A\u002A*%
X24511000Y17526000D03*
%TD*%
%TO.N,GND*%
%TO.C,REF\u002A\u002A*%
X21971000Y17526000D03*
%TD*%
%TO.N,GND*%
%TO.C,REF\u002A\u002A*%
X19431000Y17526000D03*
%TD*%
%TO.N,GND*%
%TO.C,REF\u002A\u002A*%
X16891000Y17526000D03*
%TD*%
%TO.N,GND*%
%TO.C,REF\u002A\u002A*%
X14351000Y17526000D03*
%TD*%
%TO.N,GND*%
%TO.C,REF\u002A\u002A*%
X11811000Y17526000D03*
%TD*%
%TO.N,GND*%
%TO.C,REF\u002A\u002A*%
X9271000Y17526000D03*
%TD*%
%TO.N,GND*%
%TO.C,REF\u002A\u002A*%
X27051000Y20066000D03*
%TD*%
%TO.N,GND*%
%TO.C,REF\u002A\u002A*%
X24511000Y20066000D03*
%TD*%
%TO.N,GND*%
%TO.C,REF\u002A\u002A*%
X21971000Y20066000D03*
%TD*%
%TO.N,GND*%
%TO.C,REF\u002A\u002A*%
X16891000Y20066000D03*
%TD*%
%TO.N,GND*%
%TO.C,REF\u002A\u002A*%
X11811000Y20066000D03*
%TD*%
%TO.N,GND*%
%TO.C,REF\u002A\u002A*%
X9271000Y20066000D03*
%TD*%
%TO.N,GND*%
%TO.C,REF\u002A\u002A*%
X27051000Y22606000D03*
%TD*%
%TO.N,GND*%
%TO.C,REF\u002A\u002A*%
X24511000Y22606000D03*
%TD*%
%TO.N,GND*%
%TO.C,REF\u002A\u002A*%
X21971000Y22606000D03*
%TD*%
%TO.N,GND*%
%TO.C,REF\u002A\u002A*%
X19431000Y22606000D03*
%TD*%
%TO.N,GND*%
%TO.C,REF\u002A\u002A*%
X14351000Y22606000D03*
%TD*%
%TO.N,GND*%
%TO.C,REF\u002A\u002A*%
X11811000Y22606000D03*
%TD*%
%TO.N,GND*%
%TO.C,REF\u002A\u002A*%
X9271000Y22606000D03*
%TD*%
%TO.N,GND*%
%TO.C,REF\u002A\u002A*%
X27051000Y25146000D03*
%TD*%
%TO.N,GND*%
%TO.C,REF\u002A\u002A*%
X24511000Y25146000D03*
%TD*%
%TO.N,GND*%
%TO.C,REF\u002A\u002A*%
X21971000Y25146000D03*
%TD*%
%TO.N,GND*%
%TO.C,REF\u002A\u002A*%
X11811000Y25146000D03*
%TD*%
%TO.N,GND*%
%TO.C,REF\u002A\u002A*%
X9271000Y25146000D03*
%TD*%
%TO.N,GND*%
%TO.C,REF\u002A\u002A*%
X27051000Y27686000D03*
%TD*%
%TO.N,GND*%
%TO.C,REF\u002A\u002A*%
X21971000Y27686000D03*
%TD*%
%TO.N,GND*%
%TO.C,REF\u002A\u002A*%
X19431000Y27686000D03*
%TD*%
%TO.N,GND*%
%TO.C,REF\u002A\u002A*%
X16891000Y27686000D03*
%TD*%
%TO.N,GND*%
%TO.C,REF\u002A\u002A*%
X14351000Y27686000D03*
%TD*%
%TO.N,GND*%
%TO.C,REF\u002A\u002A*%
X11811000Y27686000D03*
%TD*%
%TO.N,GND*%
%TO.C,REF\u002A\u002A*%
X9271000Y27686000D03*
%TD*%
%TO.N,GND*%
%TO.C,REF\u002A\u002A*%
X21971000Y30226000D03*
%TD*%
%TO.N,GND*%
%TO.C,REF\u002A\u002A*%
X16891000Y30226000D03*
%TD*%
%TO.N,GND*%
%TO.C,REF\u002A\u002A*%
X14351000Y30226000D03*
%TD*%
%TO.N,GND*%
%TO.C,REF\u002A\u002A*%
X11811000Y30226000D03*
%TD*%
%TO.N,GND*%
%TO.C,REF\u002A\u002A*%
X9271000Y30226000D03*
%TD*%
%TO.N,GND*%
%TO.C,REF\u002A\u002A*%
X19431000Y32766000D03*
%TD*%
%TO.N,GND*%
%TO.C,REF\u002A\u002A*%
X16891000Y32766000D03*
%TD*%
%TO.N,GND*%
%TO.C,REF\u002A\u002A*%
X14351000Y32766000D03*
%TD*%
%TO.N,GND*%
%TO.C,REF\u002A\u002A*%
X11811000Y32766000D03*
%TD*%
%TO.N,GND*%
%TO.C,REF\u002A\u002A*%
X9271000Y32766000D03*
%TD*%
%TO.N,GND*%
%TO.C,REF\u002A\u002A*%
X21590000Y35306000D03*
%TD*%
%TO.N,GND*%
%TO.C,REF\u002A\u002A*%
X19431000Y35306000D03*
%TD*%
%TO.N,GND*%
%TO.C,REF\u002A\u002A*%
X16891000Y35306000D03*
%TD*%
%TO.N,GND*%
%TO.C,REF\u002A\u002A*%
X14351000Y35306000D03*
%TD*%
%TO.N,GND*%
%TO.C,REF\u002A\u002A*%
X11811000Y35306000D03*
%TD*%
%TO.N,GND*%
%TO.C,REF\u002A\u002A*%
X9271000Y35306000D03*
%TD*%
%TO.N,GND*%
%TO.C,REF\u002A\u002A*%
X21971000Y37846000D03*
%TD*%
%TO.N,GND*%
%TO.C,REF\u002A\u002A*%
X19431000Y37846000D03*
%TD*%
%TO.N,GND*%
%TO.C,REF\u002A\u002A*%
X16891000Y37846000D03*
%TD*%
%TO.N,GND*%
%TO.C,REF\u002A\u002A*%
X14351000Y37846000D03*
%TD*%
%TO.N,GND*%
%TO.C,REF\u002A\u002A*%
X11811000Y37846000D03*
%TD*%
%TO.N,GND*%
%TO.C,REF\u002A\u002A*%
X9271000Y37846000D03*
%TD*%
%TO.N,GND*%
%TO.C,REF\u002A\u002A*%
X24511000Y40386000D03*
%TD*%
%TO.N,GND*%
%TO.C,REF\u002A\u002A*%
X21971000Y40386000D03*
%TD*%
%TO.N,GND*%
%TO.C,REF\u002A\u002A*%
X19431000Y40386000D03*
%TD*%
%TO.N,GND*%
%TO.C,REF\u002A\u002A*%
X16891000Y40386000D03*
%TD*%
%TO.N,GND*%
%TO.C,REF\u002A\u002A*%
X14351000Y40386000D03*
%TD*%
%TO.N,GND*%
%TO.C,REF\u002A\u002A*%
X11811000Y40386000D03*
%TD*%
%TO.N,GND*%
%TO.C,REF\u002A\u002A*%
X9271000Y40386000D03*
%TD*%
%TO.N,GND*%
%TO.C,REF\u002A\u002A*%
X27051000Y42926000D03*
%TD*%
%TO.N,GND*%
%TO.C,REF\u002A\u002A*%
X24511000Y42926000D03*
%TD*%
%TO.N,GND*%
%TO.C,REF\u002A\u002A*%
X21971000Y42926000D03*
%TD*%
%TO.N,GND*%
%TO.C,REF\u002A\u002A*%
X19431000Y42926000D03*
%TD*%
%TO.N,GND*%
%TO.C,REF\u002A\u002A*%
X16891000Y42926000D03*
%TD*%
%TO.N,GND*%
%TO.C,REF\u002A\u002A*%
X14351000Y42926000D03*
%TD*%
%TO.N,GND*%
%TO.C,REF\u002A\u002A*%
X11811000Y42926000D03*
%TD*%
%TO.N,GND*%
%TO.C,REF\u002A\u002A*%
X9271000Y42926000D03*
%TD*%
%TO.N,GND*%
%TO.C,REF\u002A\u002A*%
X27051000Y45466000D03*
%TD*%
%TO.N,GND*%
%TO.C,REF\u002A\u002A*%
X24511000Y45466000D03*
%TD*%
%TO.N,GND*%
%TO.C,REF\u002A\u002A*%
X21971000Y45466000D03*
%TD*%
%TO.N,GND*%
%TO.C,REF\u002A\u002A*%
X19431000Y45466000D03*
%TD*%
%TO.N,GND*%
%TO.C,REF\u002A\u002A*%
X16891000Y45466000D03*
%TD*%
%TO.N,GND*%
%TO.C,REF\u002A\u002A*%
X14351000Y45466000D03*
%TD*%
%TO.N,GND*%
%TO.C,REF\u002A\u002A*%
X11811000Y45466000D03*
%TD*%
%TO.N,GND*%
%TO.C,REF\u002A\u002A*%
X9271000Y45466000D03*
%TD*%
%TO.N,GND*%
%TO.C,REF\u002A\u002A*%
X27051000Y48006000D03*
%TD*%
%TO.N,GND*%
%TO.C,REF\u002A\u002A*%
X24511000Y48006000D03*
%TD*%
%TO.N,GND*%
%TO.C,REF\u002A\u002A*%
X21971000Y48006000D03*
%TD*%
%TO.N,GND*%
%TO.C,REF\u002A\u002A*%
X19431000Y48006000D03*
%TD*%
%TO.N,GND*%
%TO.C,REF\u002A\u002A*%
X16891000Y48006000D03*
%TD*%
%TO.N,GND*%
%TO.C,REF\u002A\u002A*%
X14351000Y48006000D03*
%TD*%
%TO.N,GND*%
%TO.C,REF\u002A\u002A*%
X11811000Y48006000D03*
%TD*%
%TO.N,GND*%
%TO.C,REF\u002A\u002A*%
X62103000Y51054000D03*
%TD*%
%TO.N,GND*%
%TO.C,REF\u002A\u002A*%
X62103000Y53340000D03*
%TD*%
%TO.N,GND*%
%TO.C,REF\u002A\u002A*%
X9271000Y32766000D03*
%TD*%
%TO.N,GND*%
%TO.C,REF\u002A\u002A*%
X60071000Y48006000D03*
%TD*%
%TO.N,GND*%
%TO.C,REF\u002A\u002A*%
X49377600Y41097200D03*
%TD*%
%TO.N,GND*%
%TO.C,REF\u002A\u002A*%
X38709600Y7467600D03*
%TD*%
%TO.N,GND*%
%TO.C,REF\u002A\u002A*%
X47193200Y17983200D03*
%TD*%
%TO.N,GND*%
%TO.C,REF\u002A\u002A*%
X44043600Y21539200D03*
%TD*%
%TO.N,GND*%
%TO.C,REF\u002A\u002A*%
X45161200Y24587200D03*
%TD*%
%TO.N,GND*%
%TO.C,REF\u002A\u002A*%
X46939200Y7366000D03*
%TD*%
%TO.N,GND*%
%TO.C,REF\u002A\u002A*%
X44348400Y7416800D03*
%TD*%
%TO.N,GND*%
%TO.C,REF\u002A\u002A*%
X41402000Y7416800D03*
%TD*%
%TO.N,GND*%
%TO.C,REF\u002A\u002A*%
X9271000Y48006000D03*
%TD*%
%TO.N,GND*%
%TO.C,REF\u002A\u002A*%
X9271000Y14986000D03*
%TD*%
%TO.N,GND*%
%TO.C,REF\u002A\u002A*%
X9271000Y17526000D03*
%TD*%
%TO.N,GND*%
%TO.C,REF\u002A\u002A*%
X9271000Y20066000D03*
%TD*%
%TO.N,GND*%
%TO.C,REF\u002A\u002A*%
X9271000Y22606000D03*
%TD*%
%TO.N,GND*%
%TO.C,REF\u002A\u002A*%
X9271000Y25146000D03*
%TD*%
%TO.N,GND*%
%TO.C,REF\u002A\u002A*%
X9271000Y27686000D03*
%TD*%
%TO.N,GND*%
%TO.C,REF\u002A\u002A*%
X9271000Y30226000D03*
%TD*%
%TO.N,GND*%
%TO.C,REF\u002A\u002A*%
X9271000Y35306000D03*
%TD*%
%TO.N,GND*%
%TO.C,REF\u002A\u002A*%
X9271000Y37846000D03*
%TD*%
%TO.N,GND*%
%TO.C,REF\u002A\u002A*%
X9271000Y40386000D03*
%TD*%
%TO.N,GND*%
%TO.C,REF\u002A\u002A*%
X9271000Y42926000D03*
%TD*%
%TO.N,GND*%
%TO.C,REF\u002A\u002A*%
X9271000Y45466000D03*
%TD*%
%TO.N,GND*%
%TO.C,REF\u002A\u002A*%
X62103000Y6096000D03*
%TD*%
%TO.N,GND*%
%TO.C,REF\u002A\u002A*%
X62103000Y12446000D03*
%TD*%
%TO.N,GND*%
%TO.C,REF\u002A\u002A*%
X62103000Y7874000D03*
%TD*%
%TO.N,GND*%
%TO.C,REF\u002A\u002A*%
X62103000Y9906000D03*
%TD*%
%TO.N,GND*%
%TO.C,REF\u002A\u002A*%
X62103000Y14986000D03*
%TD*%
%TO.N,GND*%
%TO.C,REF\u002A\u002A*%
X62103000Y17526000D03*
%TD*%
%TO.N,GND*%
%TO.C,REF\u002A\u002A*%
X62103000Y20066000D03*
%TD*%
%TO.N,GND*%
%TO.C,REF\u002A\u002A*%
X62103000Y22606000D03*
%TD*%
%TO.N,GND*%
%TO.C,REF\u002A\u002A*%
X62103000Y25146000D03*
%TD*%
%TO.N,GND*%
%TO.C,REF\u002A\u002A*%
X62103000Y27686000D03*
%TD*%
%TO.N,GND*%
%TO.C,REF\u002A\u002A*%
X62103000Y30226000D03*
%TD*%
%TO.N,GND*%
%TO.C,REF\u002A\u002A*%
X62103000Y32766000D03*
%TD*%
%TO.N,GND*%
%TO.C,REF\u002A\u002A*%
X62103000Y35306000D03*
%TD*%
%TO.N,GND*%
%TO.C,REF\u002A\u002A*%
X62103000Y37846000D03*
%TD*%
%TO.N,GND*%
%TO.C,REF\u002A\u002A*%
X62103000Y40386000D03*
%TD*%
%TO.N,GND*%
%TO.C,REF\u002A\u002A*%
X62103000Y42926000D03*
%TD*%
%TO.N,GND*%
%TO.C,REF\u002A\u002A*%
X62103000Y45466000D03*
%TD*%
%TO.N,GND*%
%TO.C,REF\u002A\u002A*%
X62103000Y48006000D03*
%TD*%
%TO.N,GND*%
%TO.C,REF\u002A\u002A*%
X54991000Y48006000D03*
%TD*%
%TO.N,GND*%
%TO.C,REF\u002A\u002A*%
X57531000Y48006000D03*
%TD*%
%TO.N,GND*%
%TO.C,REF\u002A\u002A*%
X52451000Y48006000D03*
%TD*%
%TO.N,GND*%
%TO.C,REF\u002A\u002A*%
X49911000Y48006000D03*
%TD*%
%TO.N,GND*%
%TO.C,REF\u002A\u002A*%
X47904400Y48006000D03*
%TD*%
%TO.N,GND*%
%TO.C,REF\u002A\u002A*%
X44602400Y47955200D03*
%TD*%
%TO.N,GND*%
%TO.C,REF\u002A\u002A*%
X42291000Y48006000D03*
%TD*%
%TO.N,GND*%
%TO.C,REF\u002A\u002A*%
X34671000Y48006000D03*
%TD*%
%TO.N,GND*%
%TO.C,REF\u002A\u002A*%
X32131000Y48006000D03*
%TD*%
%TO.N,GND*%
%TO.C,REF\u002A\u002A*%
X29591000Y48006000D03*
%TD*%
%TO.N,GND*%
%TO.C,REF\u002A\u002A*%
X27051000Y48006000D03*
%TD*%
%TO.N,GND*%
%TO.C,REF\u002A\u002A*%
X24511000Y48006000D03*
%TD*%
%TO.N,GND*%
%TO.C,REF\u002A\u002A*%
X21971000Y48006000D03*
%TD*%
%TO.N,GND*%
%TO.C,REF\u002A\u002A*%
X19431000Y48006000D03*
%TD*%
%TO.N,GND*%
%TO.C,REF\u002A\u002A*%
X16891000Y48006000D03*
%TD*%
%TO.N,GND*%
%TO.C,REF\u002A\u002A*%
X14351000Y48006000D03*
%TD*%
%TO.N,GND*%
%TO.C,REF\u002A\u002A*%
X11811000Y48006000D03*
%TD*%
D11*
%TO.N,Net-(U4-Pad46)*%
%TO.C,U4*%
X59690000Y52705000D03*
%TO.N,Net-(U4-Pad45)*%
X59690000Y50165000D03*
%TO.N,Net-(U4-Pad44)*%
X57150000Y52705000D03*
%TO.N,Net-(U4-Pad43)*%
X57150000Y50165000D03*
%TO.N,Net-(U4-Pad42)*%
X54610000Y52705000D03*
%TO.N,Net-(U4-Pad41)*%
X54610000Y50165000D03*
%TO.N,Net-(U4-Pad40)*%
X52070000Y52705000D03*
%TO.N,Net-(U4-Pad39)*%
X52070000Y50165000D03*
%TO.N,Net-(U4-Pad38)*%
X49530000Y52705000D03*
%TO.N,Net-(U4-Pad37)*%
X49530000Y50165000D03*
%TO.N,Net-(U4-Pad36)*%
X46990000Y52705000D03*
%TO.N,FCON_CTS*%
X46990000Y50165000D03*
%TO.N,Net-(U4-Pad34)*%
X44450000Y52705000D03*
%TO.N,FCON_RTS*%
X44450000Y50165000D03*
%TO.N,Net-(U4-Pad32)*%
X41910000Y52705000D03*
%TO.N,Net-(U4-Pad31)*%
X41910000Y50165000D03*
%TO.N,Net-(U4-Pad30)*%
X39370000Y52705000D03*
%TO.N,Net-(U4-Pad29)*%
X39370000Y50165000D03*
%TO.N,Net-(U4-Pad28)*%
X36830000Y52705000D03*
%TO.N,Net-(U4-Pad27)*%
X36830000Y50165000D03*
%TO.N,Net-(U4-Pad26)*%
X34290000Y52705000D03*
%TO.N,Net-(U4-Pad25)*%
X34290000Y50165000D03*
%TO.N,Net-(U4-Pad24)*%
X31750000Y52705000D03*
%TO.N,Net-(U4-Pad23)*%
X31750000Y50165000D03*
%TO.N,Net-(U4-Pad22)*%
X29210000Y52705000D03*
%TO.N,Net-(U4-Pad21)*%
X29210000Y50165000D03*
%TO.N,Net-(U4-Pad20)*%
X26670000Y52705000D03*
%TO.N,Net-(U4-Pad19)*%
X26670000Y50165000D03*
%TO.N,Net-(U4-Pad18)*%
X24130000Y52705000D03*
%TO.N,Net-(U4-Pad17)*%
X24130000Y50165000D03*
%TO.N,Net-(U4-Pad16)*%
X21590000Y52705000D03*
%TO.N,Net-(U4-Pad15)*%
X21590000Y50165000D03*
%TO.N,Net-(U4-Pad14)*%
X19050000Y52705000D03*
%TO.N,Net-(U4-Pad13)*%
X19050000Y50165000D03*
%TO.N,Net-(U4-Pad12)*%
X16510000Y52705000D03*
%TO.N,Net-(U4-Pad11)*%
X16510000Y50165000D03*
%TO.N,Net-(U4-Pad10)*%
X13970000Y52705000D03*
%TO.N,Net-(U4-Pad9)*%
X13970000Y50165000D03*
%TO.N,Net-(U4-Pad8)*%
X11430000Y52705000D03*
%TO.N,Net-(U4-Pad7)*%
X11430000Y50165000D03*
%TO.N,Net-(U4-Pad6)*%
X8890000Y52705000D03*
%TO.N,Net-(U4-Pad5)*%
X8890000Y50165000D03*
%TO.N,Net-(U4-Pad4)*%
X6350000Y52705000D03*
%TO.N,Net-(U4-Pad3)*%
X6350000Y50165000D03*
%TO.N,GND*%
X3810000Y52705000D03*
D10*
X3810000Y50165000D03*
%TD*%
D16*
%TO.N,GND*%
X34290000Y42291000D03*
X32639000Y42418000D03*
X32004000Y41656000D03*
X31877000Y37846000D03*
X31877000Y36576000D03*
X33274000Y36576000D03*
X24638000Y36195000D03*
X26162000Y36195000D03*
X26162000Y37592000D03*
X25654000Y40640000D03*
X25654000Y42037000D03*
X27178000Y41910000D03*
X27178000Y30099000D03*
X26670000Y30734000D03*
X27305000Y31877000D03*
X37592000Y38989000D03*
X36322000Y40513000D03*
X35560000Y41910000D03*
X35560000Y43434000D03*
X36830000Y44831000D03*
X24257000Y34544000D03*
X25400000Y34417000D03*
X24130000Y32893000D03*
X25527000Y32893000D03*
X32893000Y30734000D03*
X32893000Y29464000D03*
X31623000Y29464000D03*
X40360600Y40944800D03*
X39624000Y43535600D03*
X40817800Y43586400D03*
X43942000Y40792400D03*
X44978601Y39725600D03*
X46228000Y38963600D03*
X49936400Y39014400D03*
X47904400Y40030400D03*
X48260000Y46532800D03*
X50901600Y46634400D03*
X53797200Y46532800D03*
X58877200Y46532800D03*
X61620400Y46583600D03*
D17*
X35763200Y28295600D03*
X36068000Y30480000D03*
X37134800Y20167600D03*
X32715200Y22910800D03*
X33883600Y21996400D03*
X31343600Y21894800D03*
X60248800Y32715200D03*
X60248800Y35864800D03*
X47294800Y28092400D03*
X45923200Y26314400D03*
X50241200Y13309600D03*
X47599600Y13309600D03*
X49225200Y10566400D03*
X52273200Y10668000D03*
X57251600Y10566400D03*
X60147200Y10617200D03*
X57048400Y18592800D03*
X60045600Y18643600D03*
X52120800Y18592800D03*
X49174400Y18643600D03*
X49682400Y21132800D03*
X48463200Y19964400D03*
X46329600Y10312400D03*
D16*
%TO.N,+3V3*%
X50165000Y37211000D03*
X46482001Y36463794D03*
X48260000Y42316400D03*
D17*
X38354000Y30327600D03*
X38811200Y29210000D03*
X60198000Y30835600D03*
X43637200Y28803600D03*
X43992800Y26314400D03*
X46278800Y12141200D03*
X42113200Y40843200D03*
X41046400Y39827200D03*
D16*
%TO.N,Net-(C7-Pad1)*%
X46228000Y37134800D03*
D17*
X50444400Y38150800D03*
D16*
%TO.N,VDDR*%
X38658800Y39065200D03*
X40478810Y39116000D03*
%TO.N,/ZigBeeFiltering/RX_TX*%
X30480000Y33401000D03*
X35941000Y38989000D03*
X36601400Y34925000D03*
%TO.N,Net-(C31-Pad1)*%
X24003000Y33655000D03*
%TO.N,DCDC_SW*%
X46482000Y35712400D03*
D17*
%TO.N,UART_RX*%
X32410400Y11226800D03*
%TO.N,UART_TX*%
X32367833Y10050167D03*
%TO.N,SPI_MISO*%
X28803600Y9398000D03*
%TO.N,SPI_CS2*%
X46380400Y33528000D03*
%TO.N,SPI_CS1*%
X47244000Y33832800D03*
%TO.N,I2C_SCL*%
X48209200Y34036000D03*
%TD*%
D18*
%TO.N,GND*%
X2809731Y53802588D02*
X2614822Y53586355D01*
X2465843Y53336252D01*
X2368519Y53061891D01*
X2489186Y52832000D01*
X3683000Y52832000D01*
X3683000Y52852000D01*
X3937000Y52852000D01*
X3937000Y52832000D01*
X3957000Y52832000D01*
X3957000Y52578000D01*
X3937000Y52578000D01*
X3937000Y50292000D01*
X3957000Y50292000D01*
X3957000Y50038000D01*
X3937000Y50038000D01*
X3937000Y48838750D01*
X4095750Y48680000D01*
X4660000Y48676928D01*
X4784482Y48689188D01*
X4904180Y48725498D01*
X5014494Y48784463D01*
X5111185Y48863815D01*
X5190537Y48960506D01*
X5249502Y49070820D01*
X5271513Y49143380D01*
X5403368Y49011525D01*
X5646589Y48849010D01*
X5916842Y48737068D01*
X6203740Y48680000D01*
X6496260Y48680000D01*
X6783158Y48737068D01*
X7053411Y48849010D01*
X7296632Y49011525D01*
X7503475Y49218368D01*
X7620000Y49392760D01*
X7736525Y49218368D01*
X7943368Y49011525D01*
X8186589Y48849010D01*
X8456842Y48737068D01*
X8743740Y48680000D01*
X9036260Y48680000D01*
X9323158Y48737068D01*
X9593411Y48849010D01*
X9836632Y49011525D01*
X10043475Y49218368D01*
X10160000Y49392760D01*
X10276525Y49218368D01*
X10483368Y49011525D01*
X10726589Y48849010D01*
X10996842Y48737068D01*
X11283740Y48680000D01*
X11576260Y48680000D01*
X11863158Y48737068D01*
X12133411Y48849010D01*
X12376632Y49011525D01*
X12583475Y49218368D01*
X12700000Y49392760D01*
X12816525Y49218368D01*
X13023368Y49011525D01*
X13266589Y48849010D01*
X13536842Y48737068D01*
X13823740Y48680000D01*
X14116260Y48680000D01*
X14403158Y48737068D01*
X14673411Y48849010D01*
X14916632Y49011525D01*
X15123475Y49218368D01*
X15240000Y49392760D01*
X15356525Y49218368D01*
X15563368Y49011525D01*
X15806589Y48849010D01*
X16076842Y48737068D01*
X16363740Y48680000D01*
X16656260Y48680000D01*
X16943158Y48737068D01*
X17213411Y48849010D01*
X17456632Y49011525D01*
X17663475Y49218368D01*
X17780000Y49392760D01*
X17896525Y49218368D01*
X18103368Y49011525D01*
X18346589Y48849010D01*
X18616842Y48737068D01*
X18903740Y48680000D01*
X19196260Y48680000D01*
X19483158Y48737068D01*
X19753411Y48849010D01*
X19996632Y49011525D01*
X20203475Y49218368D01*
X20320000Y49392760D01*
X20436525Y49218368D01*
X20643368Y49011525D01*
X20886589Y48849010D01*
X21156842Y48737068D01*
X21443740Y48680000D01*
X21736260Y48680000D01*
X22023158Y48737068D01*
X22293411Y48849010D01*
X22536632Y49011525D01*
X22743475Y49218368D01*
X22860000Y49392760D01*
X22976525Y49218368D01*
X23183368Y49011525D01*
X23426589Y48849010D01*
X23696842Y48737068D01*
X23983740Y48680000D01*
X24276260Y48680000D01*
X24563158Y48737068D01*
X24833411Y48849010D01*
X25076632Y49011525D01*
X25283475Y49218368D01*
X25400000Y49392760D01*
X25516525Y49218368D01*
X25723368Y49011525D01*
X25966589Y48849010D01*
X26236842Y48737068D01*
X26523740Y48680000D01*
X26816260Y48680000D01*
X27103158Y48737068D01*
X27373411Y48849010D01*
X27616632Y49011525D01*
X27823475Y49218368D01*
X27940000Y49392760D01*
X28056525Y49218368D01*
X28263368Y49011525D01*
X28506589Y48849010D01*
X28776842Y48737068D01*
X29063740Y48680000D01*
X29356260Y48680000D01*
X29643158Y48737068D01*
X29913411Y48849010D01*
X30156632Y49011525D01*
X30363475Y49218368D01*
X30480000Y49392760D01*
X30596525Y49218368D01*
X30803368Y49011525D01*
X31046589Y48849010D01*
X31316842Y48737068D01*
X31603740Y48680000D01*
X31896260Y48680000D01*
X32183158Y48737068D01*
X32453411Y48849010D01*
X32696632Y49011525D01*
X32903475Y49218368D01*
X33020000Y49392760D01*
X33136525Y49218368D01*
X33343368Y49011525D01*
X33586589Y48849010D01*
X33856842Y48737068D01*
X34143740Y48680000D01*
X34436260Y48680000D01*
X34723158Y48737068D01*
X34993411Y48849010D01*
X35236632Y49011525D01*
X35443475Y49218368D01*
X35560000Y49392760D01*
X35676525Y49218368D01*
X35883368Y49011525D01*
X36126589Y48849010D01*
X36396842Y48737068D01*
X36683740Y48680000D01*
X36976260Y48680000D01*
X37263158Y48737068D01*
X37533411Y48849010D01*
X37776632Y49011525D01*
X37983475Y49218368D01*
X38100000Y49392760D01*
X38216525Y49218368D01*
X38423368Y49011525D01*
X38666589Y48849010D01*
X38936842Y48737068D01*
X39223740Y48680000D01*
X39516260Y48680000D01*
X39803158Y48737068D01*
X40073411Y48849010D01*
X40316632Y49011525D01*
X40523475Y49218368D01*
X40640000Y49392760D01*
X40756525Y49218368D01*
X40963368Y49011525D01*
X41206589Y48849010D01*
X41476842Y48737068D01*
X41763740Y48680000D01*
X42056260Y48680000D01*
X42343158Y48737068D01*
X42613411Y48849010D01*
X42856632Y49011525D01*
X43063475Y49218368D01*
X43180000Y49392760D01*
X43296525Y49218368D01*
X43503368Y49011525D01*
X43746589Y48849010D01*
X44016842Y48737068D01*
X44303740Y48680000D01*
X44596260Y48680000D01*
X44883158Y48737068D01*
X45153411Y48849010D01*
X45396632Y49011525D01*
X45603475Y49218368D01*
X45720000Y49392760D01*
X45836525Y49218368D01*
X46043368Y49011525D01*
X46286589Y48849010D01*
X46556842Y48737068D01*
X46843740Y48680000D01*
X47136260Y48680000D01*
X47423158Y48737068D01*
X47693411Y48849010D01*
X47936632Y49011525D01*
X48143475Y49218368D01*
X48260000Y49392760D01*
X48376525Y49218368D01*
X48583368Y49011525D01*
X48826589Y48849010D01*
X49096842Y48737068D01*
X49383740Y48680000D01*
X49676260Y48680000D01*
X49963158Y48737068D01*
X50233411Y48849010D01*
X50476632Y49011525D01*
X50683475Y49218368D01*
X50800000Y49392760D01*
X50916525Y49218368D01*
X51123368Y49011525D01*
X51366589Y48849010D01*
X51636842Y48737068D01*
X51923740Y48680000D01*
X52216260Y48680000D01*
X52503158Y48737068D01*
X52773411Y48849010D01*
X53016632Y49011525D01*
X53223475Y49218368D01*
X53340000Y49392760D01*
X53456525Y49218368D01*
X53663368Y49011525D01*
X53906589Y48849010D01*
X54176842Y48737068D01*
X54463740Y48680000D01*
X54756260Y48680000D01*
X55043158Y48737068D01*
X55313411Y48849010D01*
X55556632Y49011525D01*
X55763475Y49218368D01*
X55880000Y49392760D01*
X55996525Y49218368D01*
X56203368Y49011525D01*
X56446589Y48849010D01*
X56716842Y48737068D01*
X57003740Y48680000D01*
X57296260Y48680000D01*
X57583158Y48737068D01*
X57853411Y48849010D01*
X58096632Y49011525D01*
X58303475Y49218368D01*
X58420000Y49392760D01*
X58536525Y49218368D01*
X58743368Y49011525D01*
X58986589Y48849010D01*
X59256842Y48737068D01*
X59543740Y48680000D01*
X59836260Y48680000D01*
X60123158Y48737068D01*
X60393411Y48849010D01*
X60636632Y49011525D01*
X60843475Y49218368D01*
X61005990Y49461589D01*
X61117932Y49731842D01*
X61175000Y50018740D01*
X61175000Y50311260D01*
X61117932Y50598158D01*
X61005990Y50868411D01*
X60843475Y51111632D01*
X60636632Y51318475D01*
X60462240Y51435000D01*
X60636632Y51551525D01*
X60843475Y51758368D01*
X61005990Y52001589D01*
X61117932Y52271842D01*
X61175000Y52558740D01*
X61175000Y52851260D01*
X61117932Y53138158D01*
X61005990Y53408411D01*
X60843475Y53651632D01*
X60636632Y53858475D01*
X60574485Y53900000D01*
X62790001Y53900000D01*
X62790000Y710000D01*
X60559671Y710000D01*
X60690269Y807412D01*
X60885178Y1023645D01*
X61034157Y1273748D01*
X61131481Y1548109D01*
X61010814Y1778000D01*
X59817000Y1778000D01*
X59817000Y1758000D01*
X59563000Y1758000D01*
X59563000Y1778000D01*
X57277000Y1778000D01*
X57277000Y1758000D01*
X57023000Y1758000D01*
X57023000Y1778000D01*
X57003000Y1778000D01*
X57003000Y2032000D01*
X57023000Y2032000D01*
X57023000Y4318000D01*
X57277000Y4318000D01*
X57277000Y2032000D01*
X59563000Y2032000D01*
X59563000Y4318000D01*
X59817000Y4318000D01*
X59817000Y2032000D01*
X61010814Y2032000D01*
X61131481Y2261891D01*
X61034157Y2536252D01*
X60885178Y2786355D01*
X60690269Y3002588D01*
X60459120Y3175000D01*
X60690269Y3347412D01*
X60885178Y3563645D01*
X61034157Y3813748D01*
X61131481Y4088109D01*
X61010814Y4318000D01*
X59817000Y4318000D01*
X59563000Y4318000D01*
X57277000Y4318000D01*
X57023000Y4318000D01*
X57003000Y4318000D01*
X57003000Y4572000D01*
X57023000Y4572000D01*
X57023000Y5765155D01*
X57277000Y5765155D01*
X57277000Y4572000D01*
X59563000Y4572000D01*
X59563000Y5765155D01*
X59817000Y5765155D01*
X59817000Y4572000D01*
X61010814Y4572000D01*
X61131481Y4801891D01*
X61034157Y5076252D01*
X60885178Y5326355D01*
X60690269Y5542588D01*
X60456920Y5716641D01*
X60194099Y5841825D01*
X60046890Y5886476D01*
X59817000Y5765155D01*
X59563000Y5765155D01*
X59333110Y5886476D01*
X59185901Y5841825D01*
X58923080Y5716641D01*
X58689731Y5542588D01*
X58494822Y5326355D01*
X58420000Y5200745D01*
X58345178Y5326355D01*
X58150269Y5542588D01*
X57916920Y5716641D01*
X57654099Y5841825D01*
X57506890Y5886476D01*
X57277000Y5765155D01*
X57023000Y5765155D01*
X56793110Y5886476D01*
X56645901Y5841825D01*
X56383080Y5716641D01*
X56149731Y5542588D01*
X55954822Y5326355D01*
X55885195Y5209466D01*
X55763475Y5391632D01*
X55556632Y5598475D01*
X55313411Y5760990D01*
X55043158Y5872932D01*
X54756260Y5930000D01*
X54463740Y5930000D01*
X54176842Y5872932D01*
X53906589Y5760990D01*
X53663368Y5598475D01*
X53456525Y5391632D01*
X53340000Y5217240D01*
X53223475Y5391632D01*
X53016632Y5598475D01*
X52773411Y5760990D01*
X52503158Y5872932D01*
X52216260Y5930000D01*
X51923740Y5930000D01*
X51636842Y5872932D01*
X51366589Y5760990D01*
X51123368Y5598475D01*
X50916525Y5391632D01*
X50800000Y5217240D01*
X50683475Y5391632D01*
X50476632Y5598475D01*
X50233411Y5760990D01*
X49963158Y5872932D01*
X49676260Y5930000D01*
X49383740Y5930000D01*
X49096842Y5872932D01*
X48826589Y5760990D01*
X48583368Y5598475D01*
X48376525Y5391632D01*
X48260000Y5217240D01*
X48143475Y5391632D01*
X47936632Y5598475D01*
X47693411Y5760990D01*
X47423158Y5872932D01*
X47136260Y5930000D01*
X46843740Y5930000D01*
X46556842Y5872932D01*
X46286589Y5760990D01*
X46043368Y5598475D01*
X45836525Y5391632D01*
X45720000Y5217240D01*
X45603475Y5391632D01*
X45396632Y5598475D01*
X45153411Y5760990D01*
X44883158Y5872932D01*
X44596260Y5930000D01*
X44303740Y5930000D01*
X44016842Y5872932D01*
X43746589Y5760990D01*
X43503368Y5598475D01*
X43296525Y5391632D01*
X43180000Y5217240D01*
X43063475Y5391632D01*
X42856632Y5598475D01*
X42613411Y5760990D01*
X42343158Y5872932D01*
X42056260Y5930000D01*
X41763740Y5930000D01*
X41476842Y5872932D01*
X41206589Y5760990D01*
X40963368Y5598475D01*
X40756525Y5391632D01*
X40640000Y5217240D01*
X40523475Y5391632D01*
X40316632Y5598475D01*
X40073411Y5760990D01*
X39803158Y5872932D01*
X39516260Y5930000D01*
X39223740Y5930000D01*
X38936842Y5872932D01*
X38666589Y5760990D01*
X38423368Y5598475D01*
X38216525Y5391632D01*
X38100000Y5217240D01*
X37983475Y5391632D01*
X37776632Y5598475D01*
X37533411Y5760990D01*
X37263158Y5872932D01*
X36976260Y5930000D01*
X36683740Y5930000D01*
X36396842Y5872932D01*
X36126589Y5760990D01*
X35883368Y5598475D01*
X35676525Y5391632D01*
X35560000Y5217240D01*
X35443475Y5391632D01*
X35236632Y5598475D01*
X34993411Y5760990D01*
X34723158Y5872932D01*
X34436260Y5930000D01*
X34143740Y5930000D01*
X33856842Y5872932D01*
X33586589Y5760990D01*
X33343368Y5598475D01*
X33136525Y5391632D01*
X33020000Y5217240D01*
X32903475Y5391632D01*
X32696632Y5598475D01*
X32453411Y5760990D01*
X32183158Y5872932D01*
X31896260Y5930000D01*
X31603740Y5930000D01*
X31316842Y5872932D01*
X31046589Y5760990D01*
X30803368Y5598475D01*
X30596525Y5391632D01*
X30480000Y5217240D01*
X30363475Y5391632D01*
X30156632Y5598475D01*
X29913411Y5760990D01*
X29643158Y5872932D01*
X29356260Y5930000D01*
X29063740Y5930000D01*
X28776842Y5872932D01*
X28506589Y5760990D01*
X28263368Y5598475D01*
X28056525Y5391632D01*
X27940000Y5217240D01*
X27823475Y5391632D01*
X27616632Y5598475D01*
X27373411Y5760990D01*
X27103158Y5872932D01*
X26816260Y5930000D01*
X26523740Y5930000D01*
X26236842Y5872932D01*
X25966589Y5760990D01*
X25723368Y5598475D01*
X25516525Y5391632D01*
X25400000Y5217240D01*
X25283475Y5391632D01*
X25076632Y5598475D01*
X24833411Y5760990D01*
X24563158Y5872932D01*
X24276260Y5930000D01*
X23983740Y5930000D01*
X23696842Y5872932D01*
X23426589Y5760990D01*
X23183368Y5598475D01*
X22976525Y5391632D01*
X22860000Y5217240D01*
X22743475Y5391632D01*
X22536632Y5598475D01*
X22293411Y5760990D01*
X22023158Y5872932D01*
X21736260Y5930000D01*
X21443740Y5930000D01*
X21156842Y5872932D01*
X20886589Y5760990D01*
X20643368Y5598475D01*
X20436525Y5391632D01*
X20320000Y5217240D01*
X20203475Y5391632D01*
X19996632Y5598475D01*
X19753411Y5760990D01*
X19483158Y5872932D01*
X19196260Y5930000D01*
X18903740Y5930000D01*
X18616842Y5872932D01*
X18346589Y5760990D01*
X18103368Y5598475D01*
X17896525Y5391632D01*
X17780000Y5217240D01*
X17663475Y5391632D01*
X17456632Y5598475D01*
X17213411Y5760990D01*
X16943158Y5872932D01*
X16656260Y5930000D01*
X16363740Y5930000D01*
X16076842Y5872932D01*
X15806589Y5760990D01*
X15563368Y5598475D01*
X15356525Y5391632D01*
X15240000Y5217240D01*
X15123475Y5391632D01*
X14916632Y5598475D01*
X14673411Y5760990D01*
X14403158Y5872932D01*
X14116260Y5930000D01*
X13823740Y5930000D01*
X13536842Y5872932D01*
X13266589Y5760990D01*
X13023368Y5598475D01*
X12816525Y5391632D01*
X12700000Y5217240D01*
X12583475Y5391632D01*
X12376632Y5598475D01*
X12133411Y5760990D01*
X11863158Y5872932D01*
X11576260Y5930000D01*
X11283740Y5930000D01*
X10996842Y5872932D01*
X10726589Y5760990D01*
X10483368Y5598475D01*
X10276525Y5391632D01*
X10160000Y5217240D01*
X10043475Y5391632D01*
X9836632Y5598475D01*
X9593411Y5760990D01*
X9323158Y5872932D01*
X9036260Y5930000D01*
X8743740Y5930000D01*
X8456842Y5872932D01*
X8186589Y5760990D01*
X7943368Y5598475D01*
X7736525Y5391632D01*
X7620000Y5217240D01*
X7503475Y5391632D01*
X7296632Y5598475D01*
X7053411Y5760990D01*
X6783158Y5872932D01*
X6496260Y5930000D01*
X6203740Y5930000D01*
X5916842Y5872932D01*
X5646589Y5760990D01*
X5403368Y5598475D01*
X5196525Y5391632D01*
X5074805Y5209466D01*
X5005178Y5326355D01*
X4810269Y5542588D01*
X4576920Y5716641D01*
X4314099Y5841825D01*
X4166890Y5886476D01*
X3937000Y5765155D01*
X3937000Y4572000D01*
X3957000Y4572000D01*
X3957000Y4318000D01*
X3937000Y4318000D01*
X3937000Y2032000D01*
X3957000Y2032000D01*
X3957000Y1778000D01*
X3937000Y1778000D01*
X3937000Y1758000D01*
X3683000Y1758000D01*
X3683000Y1778000D01*
X2483750Y1778000D01*
X2325000Y1619250D01*
X2321928Y1055000D01*
X2334188Y930518D01*
X2370498Y810820D01*
X2424388Y710000D01*
X710000Y710000D01*
X710000Y2755000D01*
X2321928Y2755000D01*
X2325000Y2190750D01*
X2483750Y2032000D01*
X3683000Y2032000D01*
X3683000Y4318000D01*
X2489186Y4318000D01*
X2368519Y4088109D01*
X2465843Y3813748D01*
X2614822Y3563645D01*
X2791626Y3367498D01*
X2715820Y3344502D01*
X2605506Y3285537D01*
X2508815Y3206185D01*
X2429463Y3109494D01*
X2370498Y2999180D01*
X2334188Y2879482D01*
X2321928Y2755000D01*
X710000Y2755000D01*
X710000Y4801891D01*
X2368519Y4801891D01*
X2489186Y4572000D01*
X3683000Y4572000D01*
X3683000Y5765155D01*
X3453110Y5886476D01*
X3305901Y5841825D01*
X3043080Y5716641D01*
X2809731Y5542588D01*
X2614822Y5326355D01*
X2465843Y5076252D01*
X2368519Y4801891D01*
X710000Y4801891D01*
X710000Y6910000D01*
X7585123Y6910000D01*
X7620000Y6906565D01*
X7654877Y6910000D01*
X7759184Y6920273D01*
X7893020Y6960872D01*
X8016363Y7026800D01*
X8124475Y7115525D01*
X8213200Y7223637D01*
X8279128Y7346980D01*
X8319727Y7480816D01*
X8333435Y7620000D01*
X8330000Y7654877D01*
X8330000Y9494315D01*
X27825700Y9494315D01*
X27825700Y9301685D01*
X27863280Y9112757D01*
X27936996Y8934790D01*
X28044015Y8774625D01*
X28180225Y8638415D01*
X28340390Y8531396D01*
X28518357Y8457680D01*
X28707285Y8420100D01*
X28899915Y8420100D01*
X29088843Y8457680D01*
X29266810Y8531396D01*
X29426975Y8638415D01*
X29563185Y8774625D01*
X29670204Y8934790D01*
X29743920Y9112757D01*
X29781500Y9301685D01*
X29781500Y9494315D01*
X29743920Y9683243D01*
X29670204Y9861210D01*
X29563185Y10021375D01*
X29438078Y10146482D01*
X31389933Y10146482D01*
X31389933Y9953852D01*
X31427513Y9764924D01*
X31501229Y9586957D01*
X31608248Y9426792D01*
X31744458Y9290582D01*
X31904623Y9183563D01*
X32082590Y9109847D01*
X32271518Y9072267D01*
X32464148Y9072267D01*
X32653076Y9109847D01*
X32831043Y9183563D01*
X32991208Y9290582D01*
X33127418Y9426792D01*
X33234437Y9586957D01*
X33308153Y9764924D01*
X33345733Y9953852D01*
X33345733Y10146482D01*
X33308153Y10335410D01*
X33234437Y10513377D01*
X33172127Y10606631D01*
X33277004Y10763590D01*
X33350720Y10941557D01*
X33388300Y11130485D01*
X33388300Y11323115D01*
X33350720Y11512043D01*
X33277004Y11690010D01*
X33169985Y11850175D01*
X33033775Y11986385D01*
X32873610Y12093404D01*
X32695643Y12167120D01*
X32506715Y12204700D01*
X32314085Y12204700D01*
X32125157Y12167120D01*
X31947190Y12093404D01*
X31787025Y11986385D01*
X31650815Y11850175D01*
X31543796Y11690010D01*
X31470080Y11512043D01*
X31432500Y11323115D01*
X31432500Y11130485D01*
X31470080Y10941557D01*
X31543796Y10763590D01*
X31606106Y10670336D01*
X31501229Y10513377D01*
X31427513Y10335410D01*
X31389933Y10146482D01*
X29438078Y10146482D01*
X29426975Y10157585D01*
X29266810Y10264604D01*
X29088843Y10338320D01*
X28899915Y10375900D01*
X28707285Y10375900D01*
X28518357Y10338320D01*
X28340390Y10264604D01*
X28180225Y10157585D01*
X28044015Y10021375D01*
X27936996Y9861210D01*
X27863280Y9683243D01*
X27825700Y9494315D01*
X8330000Y9494315D01*
X8330000Y12237515D01*
X45300900Y12237515D01*
X45300900Y12044885D01*
X45338480Y11855957D01*
X45412196Y11677990D01*
X45519215Y11517825D01*
X45655425Y11381615D01*
X45815590Y11274596D01*
X45993557Y11200880D01*
X46182485Y11163300D01*
X46375115Y11163300D01*
X46564043Y11200880D01*
X46742010Y11274596D01*
X46902175Y11381615D01*
X47038385Y11517825D01*
X47145404Y11677990D01*
X47219120Y11855957D01*
X47256700Y12044885D01*
X47256700Y12237515D01*
X47219120Y12426443D01*
X47145404Y12604410D01*
X47038385Y12764575D01*
X46902175Y12900785D01*
X46742010Y13007804D01*
X46564043Y13081520D01*
X46375115Y13119100D01*
X46182485Y13119100D01*
X45993557Y13081520D01*
X45815590Y13007804D01*
X45655425Y12900785D01*
X45519215Y12764575D01*
X45412196Y12604410D01*
X45338480Y12426443D01*
X45300900Y12237515D01*
X8330000Y12237515D01*
X8330000Y18841469D01*
X13306074Y18841469D01*
X13416921Y18564286D01*
X13727840Y18410911D01*
X14062705Y18321140D01*
X14408650Y18298424D01*
X14752380Y18343634D01*
X15080685Y18455034D01*
X15285079Y18564286D01*
X15395926Y18841469D01*
X18386074Y18841469D01*
X18496921Y18564286D01*
X18807840Y18410911D01*
X19142705Y18321140D01*
X19488650Y18298424D01*
X19832380Y18343634D01*
X20160685Y18455034D01*
X20365079Y18564286D01*
X20475926Y18841469D01*
X19431000Y19886395D01*
X18386074Y18841469D01*
X15395926Y18841469D01*
X14351000Y19886395D01*
X13306074Y18841469D01*
X8330000Y18841469D01*
X8330000Y20008350D01*
X12583424Y20008350D01*
X12628634Y19664620D01*
X12740034Y19336315D01*
X12849286Y19131921D01*
X13126469Y19021074D01*
X14171395Y20066000D01*
X14530605Y20066000D01*
X15575531Y19021074D01*
X15852714Y19131921D01*
X16006089Y19442840D01*
X16095860Y19777705D01*
X16111004Y20008350D01*
X17663424Y20008350D01*
X17708634Y19664620D01*
X17820034Y19336315D01*
X17929286Y19131921D01*
X18206469Y19021074D01*
X19251395Y20066000D01*
X19610605Y20066000D01*
X20655531Y19021074D01*
X20932714Y19131921D01*
X21086089Y19442840D01*
X21175860Y19777705D01*
X21198576Y20123650D01*
X21153366Y20467380D01*
X21041966Y20795685D01*
X20932714Y21000079D01*
X20655531Y21110926D01*
X19610605Y20066000D01*
X19251395Y20066000D01*
X18206469Y21110926D01*
X17929286Y21000079D01*
X17775911Y20689160D01*
X17686140Y20354295D01*
X17663424Y20008350D01*
X16111004Y20008350D01*
X16118576Y20123650D01*
X16073366Y20467380D01*
X15961966Y20795685D01*
X15852714Y21000079D01*
X15575531Y21110926D01*
X14530605Y20066000D01*
X14171395Y20066000D01*
X13126469Y21110926D01*
X12849286Y21000079D01*
X12695911Y20689160D01*
X12606140Y20354295D01*
X12583424Y20008350D01*
X8330000Y20008350D01*
X8330000Y21290531D01*
X13306074Y21290531D01*
X14351000Y20245605D01*
X15395926Y21290531D01*
X15285079Y21567714D01*
X14974160Y21721089D01*
X14639295Y21810860D01*
X14293350Y21833576D01*
X13949620Y21788366D01*
X13621315Y21676966D01*
X13416921Y21567714D01*
X13306074Y21290531D01*
X8330000Y21290531D01*
X8330000Y22769496D01*
X15231000Y22769496D01*
X15231000Y22442504D01*
X15294793Y22121796D01*
X15419927Y21819695D01*
X15601594Y21547812D01*
X15832812Y21316594D01*
X16104695Y21134927D01*
X16406796Y21009793D01*
X16727504Y20946000D01*
X17054496Y20946000D01*
X17375204Y21009793D01*
X17677305Y21134927D01*
X17910182Y21290531D01*
X18386074Y21290531D01*
X19431000Y20245605D01*
X20475926Y21290531D01*
X20365079Y21567714D01*
X20054160Y21721089D01*
X19719295Y21810860D01*
X19373350Y21833576D01*
X19029620Y21788366D01*
X18701315Y21676966D01*
X18496921Y21567714D01*
X18386074Y21290531D01*
X17910182Y21290531D01*
X17949188Y21316594D01*
X18180406Y21547812D01*
X18362073Y21819695D01*
X18487207Y22121796D01*
X18551000Y22442504D01*
X18551000Y22769496D01*
X18487207Y23090204D01*
X18362073Y23392305D01*
X18180406Y23664188D01*
X17949188Y23895406D01*
X17910183Y23921469D01*
X18386074Y23921469D01*
X18496921Y23644286D01*
X18807840Y23490911D01*
X19142705Y23401140D01*
X19488650Y23378424D01*
X19832380Y23423634D01*
X20160685Y23535034D01*
X20365079Y23644286D01*
X20475926Y23921469D01*
X19431000Y24966395D01*
X18386074Y23921469D01*
X17910183Y23921469D01*
X17677305Y24077073D01*
X17375204Y24202207D01*
X17054496Y24266000D01*
X16727504Y24266000D01*
X16406796Y24202207D01*
X16104695Y24077073D01*
X15832812Y23895406D01*
X15601594Y23664188D01*
X15419927Y23392305D01*
X15294793Y23090204D01*
X15231000Y22769496D01*
X8330000Y22769496D01*
X8330000Y23921469D01*
X13306074Y23921469D01*
X13416921Y23644286D01*
X13727840Y23490911D01*
X14062705Y23401140D01*
X14408650Y23378424D01*
X14752380Y23423634D01*
X15080685Y23535034D01*
X15285079Y23644286D01*
X15395926Y23921469D01*
X14351000Y24966395D01*
X13306074Y23921469D01*
X8330000Y23921469D01*
X8330000Y25088350D01*
X12583424Y25088350D01*
X12628634Y24744620D01*
X12740034Y24416315D01*
X12849286Y24211921D01*
X13126469Y24101074D01*
X14171395Y25146000D01*
X14530605Y25146000D01*
X15575531Y24101074D01*
X15852714Y24211921D01*
X16006089Y24522840D01*
X16095860Y24857705D01*
X16111004Y25088350D01*
X17663424Y25088350D01*
X17708634Y24744620D01*
X17820034Y24416315D01*
X17929286Y24211921D01*
X18206469Y24101074D01*
X19251395Y25146000D01*
X19610605Y25146000D01*
X20655531Y24101074D01*
X20932714Y24211921D01*
X21086089Y24522840D01*
X21175860Y24857705D01*
X21198576Y25203650D01*
X21153366Y25547380D01*
X21041966Y25875685D01*
X20932714Y26080079D01*
X20655531Y26190926D01*
X19610605Y25146000D01*
X19251395Y25146000D01*
X18206469Y26190926D01*
X17929286Y26080079D01*
X17775911Y25769160D01*
X17686140Y25434295D01*
X17663424Y25088350D01*
X16111004Y25088350D01*
X16118576Y25203650D01*
X16073366Y25547380D01*
X15961966Y25875685D01*
X15852714Y26080079D01*
X15575531Y26190926D01*
X14530605Y25146000D01*
X14171395Y25146000D01*
X13126469Y26190926D01*
X12849286Y26080079D01*
X12695911Y25769160D01*
X12606140Y25434295D01*
X12583424Y25088350D01*
X8330000Y25088350D01*
X8330000Y26370531D01*
X13306074Y26370531D01*
X14351000Y25325605D01*
X15395926Y26370531D01*
X18386074Y26370531D01*
X19431000Y25325605D01*
X20475926Y26370531D01*
X20459857Y26410715D01*
X43014900Y26410715D01*
X43014900Y26218085D01*
X43052480Y26029157D01*
X43126196Y25851190D01*
X43233215Y25691025D01*
X43369425Y25554815D01*
X43529590Y25447796D01*
X43707557Y25374080D01*
X43896485Y25336500D01*
X44089115Y25336500D01*
X44278043Y25374080D01*
X44456010Y25447796D01*
X44616175Y25554815D01*
X44752385Y25691025D01*
X44859404Y25851190D01*
X44933120Y26029157D01*
X44970700Y26218085D01*
X44970700Y26410715D01*
X44933120Y26599643D01*
X44859404Y26777610D01*
X44752385Y26937775D01*
X44616175Y27073985D01*
X44456010Y27181004D01*
X44278043Y27254720D01*
X44089115Y27292300D01*
X43896485Y27292300D01*
X43707557Y27254720D01*
X43529590Y27181004D01*
X43369425Y27073985D01*
X43233215Y26937775D01*
X43126196Y26777610D01*
X43052480Y26599643D01*
X43014900Y26410715D01*
X20459857Y26410715D01*
X20365079Y26647714D01*
X20054160Y26801089D01*
X19719295Y26890860D01*
X19373350Y26913576D01*
X19029620Y26868366D01*
X18701315Y26756966D01*
X18496921Y26647714D01*
X18386074Y26370531D01*
X15395926Y26370531D01*
X15285079Y26647714D01*
X14974160Y26801089D01*
X14639295Y26890860D01*
X14293350Y26913576D01*
X13949620Y26868366D01*
X13621315Y26756966D01*
X13416921Y26647714D01*
X13306074Y26370531D01*
X8330000Y26370531D01*
X8330000Y30423915D01*
X37376100Y30423915D01*
X37376100Y30231285D01*
X37413680Y30042357D01*
X37487396Y29864390D01*
X37594415Y29704225D01*
X37730625Y29568015D01*
X37867203Y29476756D01*
X37833300Y29306315D01*
X37833300Y29113685D01*
X37870880Y28924757D01*
X37944596Y28746790D01*
X38051615Y28586625D01*
X38187825Y28450415D01*
X38347990Y28343396D01*
X38525957Y28269680D01*
X38714885Y28232100D01*
X38907515Y28232100D01*
X39096443Y28269680D01*
X39274410Y28343396D01*
X39434575Y28450415D01*
X39570785Y28586625D01*
X39677804Y28746790D01*
X39741230Y28899915D01*
X42659300Y28899915D01*
X42659300Y28707285D01*
X42696880Y28518357D01*
X42770596Y28340390D01*
X42877615Y28180225D01*
X43013825Y28044015D01*
X43173990Y27936996D01*
X43351957Y27863280D01*
X43540885Y27825700D01*
X43733515Y27825700D01*
X43922443Y27863280D01*
X44100410Y27936996D01*
X44260575Y28044015D01*
X44396785Y28180225D01*
X44503804Y28340390D01*
X44577520Y28518357D01*
X44615100Y28707285D01*
X44615100Y28899915D01*
X44577520Y29088843D01*
X44503804Y29266810D01*
X44396785Y29426975D01*
X44260575Y29563185D01*
X44100410Y29670204D01*
X43922443Y29743920D01*
X43733515Y29781500D01*
X43540885Y29781500D01*
X43351957Y29743920D01*
X43173990Y29670204D01*
X43013825Y29563185D01*
X42877615Y29426975D01*
X42770596Y29266810D01*
X42696880Y29088843D01*
X42659300Y28899915D01*
X39741230Y28899915D01*
X39751520Y28924757D01*
X39789100Y29113685D01*
X39789100Y29306315D01*
X39751520Y29495243D01*
X39677804Y29673210D01*
X39570785Y29833375D01*
X39434575Y29969585D01*
X39297997Y30060844D01*
X39331900Y30231285D01*
X39331900Y30423915D01*
X39294320Y30612843D01*
X39220604Y30790810D01*
X39126321Y30931915D01*
X59220100Y30931915D01*
X59220100Y30739285D01*
X59257680Y30550357D01*
X59331396Y30372390D01*
X59438415Y30212225D01*
X59574625Y30076015D01*
X59734790Y29968996D01*
X59912757Y29895280D01*
X60101685Y29857700D01*
X60294315Y29857700D01*
X60483243Y29895280D01*
X60661210Y29968996D01*
X60821375Y30076015D01*
X60957585Y30212225D01*
X61064604Y30372390D01*
X61138320Y30550357D01*
X61175900Y30739285D01*
X61175900Y30931915D01*
X61138320Y31120843D01*
X61064604Y31298810D01*
X60957585Y31458975D01*
X60821375Y31595185D01*
X60661210Y31702204D01*
X60483243Y31775920D01*
X60294315Y31813500D01*
X60101685Y31813500D01*
X59912757Y31775920D01*
X59734790Y31702204D01*
X59574625Y31595185D01*
X59438415Y31458975D01*
X59331396Y31298810D01*
X59257680Y31120843D01*
X59220100Y30931915D01*
X39126321Y30931915D01*
X39113585Y30950975D01*
X38977375Y31087185D01*
X38817210Y31194204D01*
X38639243Y31267920D01*
X38450315Y31305500D01*
X38257685Y31305500D01*
X38068757Y31267920D01*
X37890790Y31194204D01*
X37730625Y31087185D01*
X37594415Y30950975D01*
X37487396Y30790810D01*
X37413680Y30612843D01*
X37376100Y30423915D01*
X8330000Y30423915D01*
X8330000Y33745061D01*
X23088600Y33745061D01*
X23088600Y33564939D01*
X23123740Y33388279D01*
X23192670Y33221869D01*
X23292739Y33072104D01*
X23420104Y32944739D01*
X23569869Y32844670D01*
X23736279Y32775740D01*
X23912939Y32740600D01*
X24093061Y32740600D01*
X24269721Y32775740D01*
X24436131Y32844670D01*
X24585896Y32944739D01*
X24713261Y33072104D01*
X24813330Y33221869D01*
X24882260Y33388279D01*
X24902704Y33491061D01*
X29565600Y33491061D01*
X29565600Y33310939D01*
X29600740Y33134279D01*
X29669670Y32967869D01*
X29769739Y32818104D01*
X29897104Y32690739D01*
X30046869Y32590670D01*
X30213279Y32521740D01*
X30389939Y32486600D01*
X30570061Y32486600D01*
X30746721Y32521740D01*
X30913131Y32590670D01*
X31062896Y32690739D01*
X31190261Y32818104D01*
X31290330Y32967869D01*
X31359260Y33134279D01*
X31394400Y33310939D01*
X31394400Y33491061D01*
X31367895Y33624315D01*
X45402500Y33624315D01*
X45402500Y33431685D01*
X45440080Y33242757D01*
X45513796Y33064790D01*
X45620815Y32904625D01*
X45757025Y32768415D01*
X45917190Y32661396D01*
X46095157Y32587680D01*
X46284085Y32550100D01*
X46476715Y32550100D01*
X46665643Y32587680D01*
X46843610Y32661396D01*
X47003775Y32768415D01*
X47099787Y32864427D01*
X47147685Y32854900D01*
X47340315Y32854900D01*
X47529243Y32892480D01*
X47707210Y32966196D01*
X47867375Y33073215D01*
X47899833Y33105673D01*
X47923957Y33095680D01*
X48112885Y33058100D01*
X48305515Y33058100D01*
X48494443Y33095680D01*
X48672410Y33169396D01*
X48832575Y33276415D01*
X48968785Y33412625D01*
X49075804Y33572790D01*
X49149520Y33750757D01*
X49187100Y33939685D01*
X49187100Y34132315D01*
X49149520Y34321243D01*
X49075804Y34499210D01*
X48968785Y34659375D01*
X48832575Y34795585D01*
X48672410Y34902604D01*
X48494443Y34976320D01*
X48305515Y35013900D01*
X48112885Y35013900D01*
X47923957Y34976320D01*
X47745990Y34902604D01*
X47585825Y34795585D01*
X47553367Y34763127D01*
X47529243Y34773120D01*
X47340315Y34810700D01*
X47147685Y34810700D01*
X46958757Y34773120D01*
X46780790Y34699404D01*
X46620625Y34592385D01*
X46524613Y34496373D01*
X46476715Y34505900D01*
X46284085Y34505900D01*
X46095157Y34468320D01*
X45917190Y34394604D01*
X45757025Y34287585D01*
X45620815Y34151375D01*
X45513796Y33991210D01*
X45440080Y33813243D01*
X45402500Y33624315D01*
X31367895Y33624315D01*
X31359260Y33667721D01*
X31290330Y33834131D01*
X31190261Y33983896D01*
X31062896Y34111261D01*
X30913131Y34211330D01*
X30746721Y34280260D01*
X30570061Y34315400D01*
X30389939Y34315400D01*
X30213279Y34280260D01*
X30046869Y34211330D01*
X29897104Y34111261D01*
X29769739Y33983896D01*
X29669670Y33834131D01*
X29600740Y33667721D01*
X29565600Y33491061D01*
X24902704Y33491061D01*
X24917400Y33564939D01*
X24917400Y33745061D01*
X24882260Y33921721D01*
X24813330Y34088131D01*
X24713261Y34237896D01*
X24585896Y34365261D01*
X24436131Y34465330D01*
X24269721Y34534260D01*
X24093061Y34569400D01*
X23912939Y34569400D01*
X23736279Y34534260D01*
X23569869Y34465330D01*
X23420104Y34365261D01*
X23292739Y34237896D01*
X23192670Y34088131D01*
X23123740Y33921721D01*
X23088600Y33745061D01*
X8330000Y33745061D01*
X8330000Y35015061D01*
X35687000Y35015061D01*
X35687000Y34834939D01*
X35722140Y34658279D01*
X35791070Y34491869D01*
X35891139Y34342104D01*
X36018504Y34214739D01*
X36168269Y34114670D01*
X36334679Y34045740D01*
X36511339Y34010600D01*
X36691461Y34010600D01*
X36868121Y34045740D01*
X37034531Y34114670D01*
X37184296Y34214739D01*
X37311661Y34342104D01*
X37411730Y34491869D01*
X37480660Y34658279D01*
X37515800Y34834939D01*
X37515800Y35015061D01*
X37480660Y35191721D01*
X37411730Y35358131D01*
X37311661Y35507896D01*
X37184296Y35635261D01*
X37034531Y35735330D01*
X36868121Y35804260D01*
X36691461Y35839400D01*
X36511339Y35839400D01*
X36334679Y35804260D01*
X36168269Y35735330D01*
X36018504Y35635261D01*
X35891139Y35507896D01*
X35791070Y35358131D01*
X35722140Y35191721D01*
X35687000Y35015061D01*
X8330000Y35015061D01*
X8330000Y37224861D01*
X45313600Y37224861D01*
X45313600Y37044739D01*
X45348740Y36868079D01*
X45417670Y36701669D01*
X45517739Y36551904D01*
X45567601Y36502042D01*
X45567601Y36373733D01*
X45602741Y36197073D01*
X45647880Y36088098D01*
X45602740Y35979121D01*
X45567600Y35802461D01*
X45567600Y35622339D01*
X45602740Y35445679D01*
X45671670Y35279269D01*
X45771739Y35129504D01*
X45899104Y35002139D01*
X46048869Y34902070D01*
X46215279Y34833140D01*
X46391939Y34798000D01*
X46572061Y34798000D01*
X46748721Y34833140D01*
X46915131Y34902070D01*
X47064896Y35002139D01*
X47192261Y35129504D01*
X47292330Y35279269D01*
X47361260Y35445679D01*
X47396400Y35622339D01*
X47396400Y35802461D01*
X47361260Y35979121D01*
X47316121Y36088096D01*
X47361261Y36197073D01*
X47396401Y36373733D01*
X47396401Y36553855D01*
X47361261Y36730515D01*
X47292331Y36896925D01*
X47192262Y37046690D01*
X47142400Y37096552D01*
X47142400Y37224861D01*
X47127243Y37301061D01*
X49250600Y37301061D01*
X49250600Y37120939D01*
X49285740Y36944279D01*
X49354670Y36777869D01*
X49454739Y36628104D01*
X49582104Y36500739D01*
X49731869Y36400670D01*
X49898279Y36331740D01*
X50074939Y36296600D01*
X50255061Y36296600D01*
X50431721Y36331740D01*
X50598131Y36400670D01*
X50747896Y36500739D01*
X50875261Y36628104D01*
X50975330Y36777869D01*
X51044260Y36944279D01*
X51079400Y37120939D01*
X51079400Y37301061D01*
X51062207Y37387495D01*
X51067775Y37391215D01*
X51203985Y37527425D01*
X51311004Y37687590D01*
X51384720Y37865557D01*
X51422300Y38054485D01*
X51422300Y38247115D01*
X51384720Y38436043D01*
X51311004Y38614010D01*
X51203985Y38774175D01*
X51067775Y38910385D01*
X50907610Y39017404D01*
X50729643Y39091120D01*
X50540715Y39128700D01*
X50348085Y39128700D01*
X50159157Y39091120D01*
X49981190Y39017404D01*
X49821025Y38910385D01*
X49684815Y38774175D01*
X49577796Y38614010D01*
X49504080Y38436043D01*
X49466500Y38247115D01*
X49466500Y38054485D01*
X49504080Y37865557D01*
X49510617Y37849774D01*
X49454739Y37793896D01*
X49354670Y37644131D01*
X49285740Y37477721D01*
X49250600Y37301061D01*
X47127243Y37301061D01*
X47107260Y37401521D01*
X47038330Y37567931D01*
X46938261Y37717696D01*
X46810896Y37845061D01*
X46661131Y37945130D01*
X46494721Y38014060D01*
X46318061Y38049200D01*
X46137939Y38049200D01*
X45961279Y38014060D01*
X45794869Y37945130D01*
X45645104Y37845061D01*
X45517739Y37717696D01*
X45417670Y37567931D01*
X45348740Y37401521D01*
X45313600Y37224861D01*
X8330000Y37224861D01*
X8330000Y39079061D01*
X35026600Y39079061D01*
X35026600Y38898939D01*
X35061740Y38722279D01*
X35130670Y38555869D01*
X35230739Y38406104D01*
X35358104Y38278739D01*
X35507869Y38178670D01*
X35674279Y38109740D01*
X35850939Y38074600D01*
X36031061Y38074600D01*
X36207721Y38109740D01*
X36374131Y38178670D01*
X36523896Y38278739D01*
X36651261Y38406104D01*
X36751330Y38555869D01*
X36820260Y38722279D01*
X36855400Y38898939D01*
X36855400Y39079061D01*
X36840243Y39155261D01*
X37744400Y39155261D01*
X37744400Y38975139D01*
X37779540Y38798479D01*
X37848470Y38632069D01*
X37948539Y38482304D01*
X38075904Y38354939D01*
X38225669Y38254870D01*
X38392079Y38185940D01*
X38568739Y38150800D01*
X38748861Y38150800D01*
X38925521Y38185940D01*
X39091931Y38254870D01*
X39241696Y38354939D01*
X39369061Y38482304D01*
X39469130Y38632069D01*
X39538060Y38798479D01*
X39573200Y38975139D01*
X39573200Y38981749D01*
X39599550Y38849279D01*
X39668480Y38682869D01*
X39768549Y38533104D01*
X39895914Y38405739D01*
X40045679Y38305670D01*
X40212089Y38236740D01*
X40388749Y38201600D01*
X40568871Y38201600D01*
X40745531Y38236740D01*
X40911941Y38305670D01*
X41061706Y38405739D01*
X41189071Y38533104D01*
X41289140Y38682869D01*
X41358070Y38849279D01*
X41368594Y38902185D01*
X41509610Y38960596D01*
X41669775Y39067615D01*
X41805985Y39203825D01*
X41913004Y39363990D01*
X41986720Y39541957D01*
X42024300Y39730885D01*
X42024300Y39865300D01*
X42209515Y39865300D01*
X42398443Y39902880D01*
X42576410Y39976596D01*
X42736575Y40083615D01*
X42872785Y40219825D01*
X42979804Y40379990D01*
X43053520Y40557957D01*
X43091100Y40746885D01*
X43091100Y40939515D01*
X43053520Y41128443D01*
X42979804Y41306410D01*
X42872785Y41466575D01*
X42736575Y41602785D01*
X42576410Y41709804D01*
X42398443Y41783520D01*
X42209515Y41821100D01*
X42016885Y41821100D01*
X41827957Y41783520D01*
X41649990Y41709804D01*
X41489825Y41602785D01*
X41353615Y41466575D01*
X41246596Y41306410D01*
X41172880Y41128443D01*
X41135300Y40939515D01*
X41135300Y40805100D01*
X40950085Y40805100D01*
X40761157Y40767520D01*
X40583190Y40693804D01*
X40423025Y40586785D01*
X40286815Y40450575D01*
X40179796Y40290410D01*
X40106080Y40112443D01*
X40071159Y39936884D01*
X40045679Y39926330D01*
X39895914Y39826261D01*
X39768549Y39698896D01*
X39668480Y39549131D01*
X39599550Y39382721D01*
X39564410Y39206061D01*
X39564410Y39199451D01*
X39538060Y39331921D01*
X39469130Y39498331D01*
X39369061Y39648096D01*
X39241696Y39775461D01*
X39091931Y39875530D01*
X38925521Y39944460D01*
X38748861Y39979600D01*
X38568739Y39979600D01*
X38392079Y39944460D01*
X38225669Y39875530D01*
X38075904Y39775461D01*
X37948539Y39648096D01*
X37848470Y39498331D01*
X37779540Y39331921D01*
X37744400Y39155261D01*
X36840243Y39155261D01*
X36820260Y39255721D01*
X36751330Y39422131D01*
X36651261Y39571896D01*
X36523896Y39699261D01*
X36374131Y39799330D01*
X36207721Y39868260D01*
X36031061Y39903400D01*
X35850939Y39903400D01*
X35674279Y39868260D01*
X35507869Y39799330D01*
X35358104Y39699261D01*
X35230739Y39571896D01*
X35130670Y39422131D01*
X35061740Y39255721D01*
X35026600Y39079061D01*
X8330000Y39079061D01*
X8330000Y42406461D01*
X47345600Y42406461D01*
X47345600Y42226339D01*
X47380740Y42049679D01*
X47449670Y41883269D01*
X47549739Y41733504D01*
X47677104Y41606139D01*
X47826869Y41506070D01*
X47993279Y41437140D01*
X48169939Y41402000D01*
X48350061Y41402000D01*
X48526721Y41437140D01*
X48693131Y41506070D01*
X48842896Y41606139D01*
X48970261Y41733504D01*
X49070330Y41883269D01*
X49139260Y42049679D01*
X49174400Y42226339D01*
X49174400Y42406461D01*
X49139260Y42583121D01*
X49070330Y42749531D01*
X48970261Y42899296D01*
X48842896Y43026661D01*
X48693131Y43126730D01*
X48526721Y43195660D01*
X48350061Y43230800D01*
X48169939Y43230800D01*
X47993279Y43195660D01*
X47826869Y43126730D01*
X47677104Y43026661D01*
X47549739Y42899296D01*
X47449670Y42749531D01*
X47380740Y42583121D01*
X47345600Y42406461D01*
X8330000Y42406461D01*
X8330000Y46955124D01*
X8333435Y46990000D01*
X8319727Y47129184D01*
X8279128Y47263020D01*
X8213200Y47386363D01*
X8124475Y47494475D01*
X8016363Y47583200D01*
X7893020Y47649128D01*
X7759184Y47689727D01*
X7654877Y47700000D01*
X7620000Y47703435D01*
X7585123Y47700000D01*
X710000Y47700000D01*
X710000Y49315000D01*
X2321928Y49315000D01*
X2334188Y49190518D01*
X2370498Y49070820D01*
X2429463Y48960506D01*
X2508815Y48863815D01*
X2605506Y48784463D01*
X2715820Y48725498D01*
X2835518Y48689188D01*
X2960000Y48676928D01*
X3524250Y48680000D01*
X3683000Y48838750D01*
X3683000Y50038000D01*
X2483750Y50038000D01*
X2325000Y49879250D01*
X2321928Y49315000D01*
X710000Y49315000D01*
X710000Y51015000D01*
X2321928Y51015000D01*
X2325000Y50450750D01*
X2483750Y50292000D01*
X3683000Y50292000D01*
X3683000Y52578000D01*
X2489186Y52578000D01*
X2368519Y52348109D01*
X2465843Y52073748D01*
X2614822Y51823645D01*
X2791626Y51627498D01*
X2715820Y51604502D01*
X2605506Y51545537D01*
X2508815Y51466185D01*
X2429463Y51369494D01*
X2370498Y51259180D01*
X2334188Y51139482D01*
X2321928Y51015000D01*
X710000Y51015000D01*
X710000Y53900000D01*
X2940329Y53900000D01*
X2809731Y53802588D01*
%TA.AperFunction,Conductor*%
D19*
G36*
X2809731Y53802588D02*
G01*
X2614822Y53586355D01*
X2465843Y53336252D01*
X2368519Y53061891D01*
X2489186Y52832000D01*
X3683000Y52832000D01*
X3683000Y52852000D01*
X3937000Y52852000D01*
X3937000Y52832000D01*
X3957000Y52832000D01*
X3957000Y52578000D01*
X3937000Y52578000D01*
X3937000Y50292000D01*
X3957000Y50292000D01*
X3957000Y50038000D01*
X3937000Y50038000D01*
X3937000Y48838750D01*
X4095750Y48680000D01*
X4660000Y48676928D01*
X4784482Y48689188D01*
X4904180Y48725498D01*
X5014494Y48784463D01*
X5111185Y48863815D01*
X5190537Y48960506D01*
X5249502Y49070820D01*
X5271513Y49143380D01*
X5403368Y49011525D01*
X5646589Y48849010D01*
X5916842Y48737068D01*
X6203740Y48680000D01*
X6496260Y48680000D01*
X6783158Y48737068D01*
X7053411Y48849010D01*
X7296632Y49011525D01*
X7503475Y49218368D01*
X7620000Y49392760D01*
X7736525Y49218368D01*
X7943368Y49011525D01*
X8186589Y48849010D01*
X8456842Y48737068D01*
X8743740Y48680000D01*
X9036260Y48680000D01*
X9323158Y48737068D01*
X9593411Y48849010D01*
X9836632Y49011525D01*
X10043475Y49218368D01*
X10160000Y49392760D01*
X10276525Y49218368D01*
X10483368Y49011525D01*
X10726589Y48849010D01*
X10996842Y48737068D01*
X11283740Y48680000D01*
X11576260Y48680000D01*
X11863158Y48737068D01*
X12133411Y48849010D01*
X12376632Y49011525D01*
X12583475Y49218368D01*
X12700000Y49392760D01*
X12816525Y49218368D01*
X13023368Y49011525D01*
X13266589Y48849010D01*
X13536842Y48737068D01*
X13823740Y48680000D01*
X14116260Y48680000D01*
X14403158Y48737068D01*
X14673411Y48849010D01*
X14916632Y49011525D01*
X15123475Y49218368D01*
X15240000Y49392760D01*
X15356525Y49218368D01*
X15563368Y49011525D01*
X15806589Y48849010D01*
X16076842Y48737068D01*
X16363740Y48680000D01*
X16656260Y48680000D01*
X16943158Y48737068D01*
X17213411Y48849010D01*
X17456632Y49011525D01*
X17663475Y49218368D01*
X17780000Y49392760D01*
X17896525Y49218368D01*
X18103368Y49011525D01*
X18346589Y48849010D01*
X18616842Y48737068D01*
X18903740Y48680000D01*
X19196260Y48680000D01*
X19483158Y48737068D01*
X19753411Y48849010D01*
X19996632Y49011525D01*
X20203475Y49218368D01*
X20320000Y49392760D01*
X20436525Y49218368D01*
X20643368Y49011525D01*
X20886589Y48849010D01*
X21156842Y48737068D01*
X21443740Y48680000D01*
X21736260Y48680000D01*
X22023158Y48737068D01*
X22293411Y48849010D01*
X22536632Y49011525D01*
X22743475Y49218368D01*
X22860000Y49392760D01*
X22976525Y49218368D01*
X23183368Y49011525D01*
X23426589Y48849010D01*
X23696842Y48737068D01*
X23983740Y48680000D01*
X24276260Y48680000D01*
X24563158Y48737068D01*
X24833411Y48849010D01*
X25076632Y49011525D01*
X25283475Y49218368D01*
X25400000Y49392760D01*
X25516525Y49218368D01*
X25723368Y49011525D01*
X25966589Y48849010D01*
X26236842Y48737068D01*
X26523740Y48680000D01*
X26816260Y48680000D01*
X27103158Y48737068D01*
X27373411Y48849010D01*
X27616632Y49011525D01*
X27823475Y49218368D01*
X27940000Y49392760D01*
X28056525Y49218368D01*
X28263368Y49011525D01*
X28506589Y48849010D01*
X28776842Y48737068D01*
X29063740Y48680000D01*
X29356260Y48680000D01*
X29643158Y48737068D01*
X29913411Y48849010D01*
X30156632Y49011525D01*
X30363475Y49218368D01*
X30480000Y49392760D01*
X30596525Y49218368D01*
X30803368Y49011525D01*
X31046589Y48849010D01*
X31316842Y48737068D01*
X31603740Y48680000D01*
X31896260Y48680000D01*
X32183158Y48737068D01*
X32453411Y48849010D01*
X32696632Y49011525D01*
X32903475Y49218368D01*
X33020000Y49392760D01*
X33136525Y49218368D01*
X33343368Y49011525D01*
X33586589Y48849010D01*
X33856842Y48737068D01*
X34143740Y48680000D01*
X34436260Y48680000D01*
X34723158Y48737068D01*
X34993411Y48849010D01*
X35236632Y49011525D01*
X35443475Y49218368D01*
X35560000Y49392760D01*
X35676525Y49218368D01*
X35883368Y49011525D01*
X36126589Y48849010D01*
X36396842Y48737068D01*
X36683740Y48680000D01*
X36976260Y48680000D01*
X37263158Y48737068D01*
X37533411Y48849010D01*
X37776632Y49011525D01*
X37983475Y49218368D01*
X38100000Y49392760D01*
X38216525Y49218368D01*
X38423368Y49011525D01*
X38666589Y48849010D01*
X38936842Y48737068D01*
X39223740Y48680000D01*
X39516260Y48680000D01*
X39803158Y48737068D01*
X40073411Y48849010D01*
X40316632Y49011525D01*
X40523475Y49218368D01*
X40640000Y49392760D01*
X40756525Y49218368D01*
X40963368Y49011525D01*
X41206589Y48849010D01*
X41476842Y48737068D01*
X41763740Y48680000D01*
X42056260Y48680000D01*
X42343158Y48737068D01*
X42613411Y48849010D01*
X42856632Y49011525D01*
X43063475Y49218368D01*
X43180000Y49392760D01*
X43296525Y49218368D01*
X43503368Y49011525D01*
X43746589Y48849010D01*
X44016842Y48737068D01*
X44303740Y48680000D01*
X44596260Y48680000D01*
X44883158Y48737068D01*
X45153411Y48849010D01*
X45396632Y49011525D01*
X45603475Y49218368D01*
X45720000Y49392760D01*
X45836525Y49218368D01*
X46043368Y49011525D01*
X46286589Y48849010D01*
X46556842Y48737068D01*
X46843740Y48680000D01*
X47136260Y48680000D01*
X47423158Y48737068D01*
X47693411Y48849010D01*
X47936632Y49011525D01*
X48143475Y49218368D01*
X48260000Y49392760D01*
X48376525Y49218368D01*
X48583368Y49011525D01*
X48826589Y48849010D01*
X49096842Y48737068D01*
X49383740Y48680000D01*
X49676260Y48680000D01*
X49963158Y48737068D01*
X50233411Y48849010D01*
X50476632Y49011525D01*
X50683475Y49218368D01*
X50800000Y49392760D01*
X50916525Y49218368D01*
X51123368Y49011525D01*
X51366589Y48849010D01*
X51636842Y48737068D01*
X51923740Y48680000D01*
X52216260Y48680000D01*
X52503158Y48737068D01*
X52773411Y48849010D01*
X53016632Y49011525D01*
X53223475Y49218368D01*
X53340000Y49392760D01*
X53456525Y49218368D01*
X53663368Y49011525D01*
X53906589Y48849010D01*
X54176842Y48737068D01*
X54463740Y48680000D01*
X54756260Y48680000D01*
X55043158Y48737068D01*
X55313411Y48849010D01*
X55556632Y49011525D01*
X55763475Y49218368D01*
X55880000Y49392760D01*
X55996525Y49218368D01*
X56203368Y49011525D01*
X56446589Y48849010D01*
X56716842Y48737068D01*
X57003740Y48680000D01*
X57296260Y48680000D01*
X57583158Y48737068D01*
X57853411Y48849010D01*
X58096632Y49011525D01*
X58303475Y49218368D01*
X58420000Y49392760D01*
X58536525Y49218368D01*
X58743368Y49011525D01*
X58986589Y48849010D01*
X59256842Y48737068D01*
X59543740Y48680000D01*
X59836260Y48680000D01*
X60123158Y48737068D01*
X60393411Y48849010D01*
X60636632Y49011525D01*
X60843475Y49218368D01*
X61005990Y49461589D01*
X61117932Y49731842D01*
X61175000Y50018740D01*
X61175000Y50311260D01*
X61117932Y50598158D01*
X61005990Y50868411D01*
X60843475Y51111632D01*
X60636632Y51318475D01*
X60462240Y51435000D01*
X60636632Y51551525D01*
X60843475Y51758368D01*
X61005990Y52001589D01*
X61117932Y52271842D01*
X61175000Y52558740D01*
X61175000Y52851260D01*
X61117932Y53138158D01*
X61005990Y53408411D01*
X60843475Y53651632D01*
X60636632Y53858475D01*
X60574485Y53900000D01*
X62790001Y53900000D01*
X62790000Y710000D01*
X60559671Y710000D01*
X60690269Y807412D01*
X60885178Y1023645D01*
X61034157Y1273748D01*
X61131481Y1548109D01*
X61010814Y1778000D01*
X59817000Y1778000D01*
X59817000Y1758000D01*
X59563000Y1758000D01*
X59563000Y1778000D01*
X57277000Y1778000D01*
X57277000Y1758000D01*
X57023000Y1758000D01*
X57023000Y1778000D01*
X57003000Y1778000D01*
X57003000Y2032000D01*
X57023000Y2032000D01*
X57023000Y4318000D01*
X57277000Y4318000D01*
X57277000Y2032000D01*
X59563000Y2032000D01*
X59563000Y4318000D01*
X59817000Y4318000D01*
X59817000Y2032000D01*
X61010814Y2032000D01*
X61131481Y2261891D01*
X61034157Y2536252D01*
X60885178Y2786355D01*
X60690269Y3002588D01*
X60459120Y3175000D01*
X60690269Y3347412D01*
X60885178Y3563645D01*
X61034157Y3813748D01*
X61131481Y4088109D01*
X61010814Y4318000D01*
X59817000Y4318000D01*
X59563000Y4318000D01*
X57277000Y4318000D01*
X57023000Y4318000D01*
X57003000Y4318000D01*
X57003000Y4572000D01*
X57023000Y4572000D01*
X57023000Y5765155D01*
X57277000Y5765155D01*
X57277000Y4572000D01*
X59563000Y4572000D01*
X59563000Y5765155D01*
X59817000Y5765155D01*
X59817000Y4572000D01*
X61010814Y4572000D01*
X61131481Y4801891D01*
X61034157Y5076252D01*
X60885178Y5326355D01*
X60690269Y5542588D01*
X60456920Y5716641D01*
X60194099Y5841825D01*
X60046890Y5886476D01*
X59817000Y5765155D01*
X59563000Y5765155D01*
X59333110Y5886476D01*
X59185901Y5841825D01*
X58923080Y5716641D01*
X58689731Y5542588D01*
X58494822Y5326355D01*
X58420000Y5200745D01*
X58345178Y5326355D01*
X58150269Y5542588D01*
X57916920Y5716641D01*
X57654099Y5841825D01*
X57506890Y5886476D01*
X57277000Y5765155D01*
X57023000Y5765155D01*
X56793110Y5886476D01*
X56645901Y5841825D01*
X56383080Y5716641D01*
X56149731Y5542588D01*
X55954822Y5326355D01*
X55885195Y5209466D01*
X55763475Y5391632D01*
X55556632Y5598475D01*
X55313411Y5760990D01*
X55043158Y5872932D01*
X54756260Y5930000D01*
X54463740Y5930000D01*
X54176842Y5872932D01*
X53906589Y5760990D01*
X53663368Y5598475D01*
X53456525Y5391632D01*
X53340000Y5217240D01*
X53223475Y5391632D01*
X53016632Y5598475D01*
X52773411Y5760990D01*
X52503158Y5872932D01*
X52216260Y5930000D01*
X51923740Y5930000D01*
X51636842Y5872932D01*
X51366589Y5760990D01*
X51123368Y5598475D01*
X50916525Y5391632D01*
X50800000Y5217240D01*
X50683475Y5391632D01*
X50476632Y5598475D01*
X50233411Y5760990D01*
X49963158Y5872932D01*
X49676260Y5930000D01*
X49383740Y5930000D01*
X49096842Y5872932D01*
X48826589Y5760990D01*
X48583368Y5598475D01*
X48376525Y5391632D01*
X48260000Y5217240D01*
X48143475Y5391632D01*
X47936632Y5598475D01*
X47693411Y5760990D01*
X47423158Y5872932D01*
X47136260Y5930000D01*
X46843740Y5930000D01*
X46556842Y5872932D01*
X46286589Y5760990D01*
X46043368Y5598475D01*
X45836525Y5391632D01*
X45720000Y5217240D01*
X45603475Y5391632D01*
X45396632Y5598475D01*
X45153411Y5760990D01*
X44883158Y5872932D01*
X44596260Y5930000D01*
X44303740Y5930000D01*
X44016842Y5872932D01*
X43746589Y5760990D01*
X43503368Y5598475D01*
X43296525Y5391632D01*
X43180000Y5217240D01*
X43063475Y5391632D01*
X42856632Y5598475D01*
X42613411Y5760990D01*
X42343158Y5872932D01*
X42056260Y5930000D01*
X41763740Y5930000D01*
X41476842Y5872932D01*
X41206589Y5760990D01*
X40963368Y5598475D01*
X40756525Y5391632D01*
X40640000Y5217240D01*
X40523475Y5391632D01*
X40316632Y5598475D01*
X40073411Y5760990D01*
X39803158Y5872932D01*
X39516260Y5930000D01*
X39223740Y5930000D01*
X38936842Y5872932D01*
X38666589Y5760990D01*
X38423368Y5598475D01*
X38216525Y5391632D01*
X38100000Y5217240D01*
X37983475Y5391632D01*
X37776632Y5598475D01*
X37533411Y5760990D01*
X37263158Y5872932D01*
X36976260Y5930000D01*
X36683740Y5930000D01*
X36396842Y5872932D01*
X36126589Y5760990D01*
X35883368Y5598475D01*
X35676525Y5391632D01*
X35560000Y5217240D01*
X35443475Y5391632D01*
X35236632Y5598475D01*
X34993411Y5760990D01*
X34723158Y5872932D01*
X34436260Y5930000D01*
X34143740Y5930000D01*
X33856842Y5872932D01*
X33586589Y5760990D01*
X33343368Y5598475D01*
X33136525Y5391632D01*
X33020000Y5217240D01*
X32903475Y5391632D01*
X32696632Y5598475D01*
X32453411Y5760990D01*
X32183158Y5872932D01*
X31896260Y5930000D01*
X31603740Y5930000D01*
X31316842Y5872932D01*
X31046589Y5760990D01*
X30803368Y5598475D01*
X30596525Y5391632D01*
X30480000Y5217240D01*
X30363475Y5391632D01*
X30156632Y5598475D01*
X29913411Y5760990D01*
X29643158Y5872932D01*
X29356260Y5930000D01*
X29063740Y5930000D01*
X28776842Y5872932D01*
X28506589Y5760990D01*
X28263368Y5598475D01*
X28056525Y5391632D01*
X27940000Y5217240D01*
X27823475Y5391632D01*
X27616632Y5598475D01*
X27373411Y5760990D01*
X27103158Y5872932D01*
X26816260Y5930000D01*
X26523740Y5930000D01*
X26236842Y5872932D01*
X25966589Y5760990D01*
X25723368Y5598475D01*
X25516525Y5391632D01*
X25400000Y5217240D01*
X25283475Y5391632D01*
X25076632Y5598475D01*
X24833411Y5760990D01*
X24563158Y5872932D01*
X24276260Y5930000D01*
X23983740Y5930000D01*
X23696842Y5872932D01*
X23426589Y5760990D01*
X23183368Y5598475D01*
X22976525Y5391632D01*
X22860000Y5217240D01*
X22743475Y5391632D01*
X22536632Y5598475D01*
X22293411Y5760990D01*
X22023158Y5872932D01*
X21736260Y5930000D01*
X21443740Y5930000D01*
X21156842Y5872932D01*
X20886589Y5760990D01*
X20643368Y5598475D01*
X20436525Y5391632D01*
X20320000Y5217240D01*
X20203475Y5391632D01*
X19996632Y5598475D01*
X19753411Y5760990D01*
X19483158Y5872932D01*
X19196260Y5930000D01*
X18903740Y5930000D01*
X18616842Y5872932D01*
X18346589Y5760990D01*
X18103368Y5598475D01*
X17896525Y5391632D01*
X17780000Y5217240D01*
X17663475Y5391632D01*
X17456632Y5598475D01*
X17213411Y5760990D01*
X16943158Y5872932D01*
X16656260Y5930000D01*
X16363740Y5930000D01*
X16076842Y5872932D01*
X15806589Y5760990D01*
X15563368Y5598475D01*
X15356525Y5391632D01*
X15240000Y5217240D01*
X15123475Y5391632D01*
X14916632Y5598475D01*
X14673411Y5760990D01*
X14403158Y5872932D01*
X14116260Y5930000D01*
X13823740Y5930000D01*
X13536842Y5872932D01*
X13266589Y5760990D01*
X13023368Y5598475D01*
X12816525Y5391632D01*
X12700000Y5217240D01*
X12583475Y5391632D01*
X12376632Y5598475D01*
X12133411Y5760990D01*
X11863158Y5872932D01*
X11576260Y5930000D01*
X11283740Y5930000D01*
X10996842Y5872932D01*
X10726589Y5760990D01*
X10483368Y5598475D01*
X10276525Y5391632D01*
X10160000Y5217240D01*
X10043475Y5391632D01*
X9836632Y5598475D01*
X9593411Y5760990D01*
X9323158Y5872932D01*
X9036260Y5930000D01*
X8743740Y5930000D01*
X8456842Y5872932D01*
X8186589Y5760990D01*
X7943368Y5598475D01*
X7736525Y5391632D01*
X7620000Y5217240D01*
X7503475Y5391632D01*
X7296632Y5598475D01*
X7053411Y5760990D01*
X6783158Y5872932D01*
X6496260Y5930000D01*
X6203740Y5930000D01*
X5916842Y5872932D01*
X5646589Y5760990D01*
X5403368Y5598475D01*
X5196525Y5391632D01*
X5074805Y5209466D01*
X5005178Y5326355D01*
X4810269Y5542588D01*
X4576920Y5716641D01*
X4314099Y5841825D01*
X4166890Y5886476D01*
X3937000Y5765155D01*
X3937000Y4572000D01*
X3957000Y4572000D01*
X3957000Y4318000D01*
X3937000Y4318000D01*
X3937000Y2032000D01*
X3957000Y2032000D01*
X3957000Y1778000D01*
X3937000Y1778000D01*
X3937000Y1758000D01*
X3683000Y1758000D01*
X3683000Y1778000D01*
X2483750Y1778000D01*
X2325000Y1619250D01*
X2321928Y1055000D01*
X2334188Y930518D01*
X2370498Y810820D01*
X2424388Y710000D01*
X710000Y710000D01*
X710000Y2755000D01*
X2321928Y2755000D01*
X2325000Y2190750D01*
X2483750Y2032000D01*
X3683000Y2032000D01*
X3683000Y4318000D01*
X2489186Y4318000D01*
X2368519Y4088109D01*
X2465843Y3813748D01*
X2614822Y3563645D01*
X2791626Y3367498D01*
X2715820Y3344502D01*
X2605506Y3285537D01*
X2508815Y3206185D01*
X2429463Y3109494D01*
X2370498Y2999180D01*
X2334188Y2879482D01*
X2321928Y2755000D01*
X710000Y2755000D01*
X710000Y4801891D01*
X2368519Y4801891D01*
X2489186Y4572000D01*
X3683000Y4572000D01*
X3683000Y5765155D01*
X3453110Y5886476D01*
X3305901Y5841825D01*
X3043080Y5716641D01*
X2809731Y5542588D01*
X2614822Y5326355D01*
X2465843Y5076252D01*
X2368519Y4801891D01*
X710000Y4801891D01*
X710000Y6910000D01*
X7585123Y6910000D01*
X7620000Y6906565D01*
X7654877Y6910000D01*
X7759184Y6920273D01*
X7893020Y6960872D01*
X8016363Y7026800D01*
X8124475Y7115525D01*
X8213200Y7223637D01*
X8279128Y7346980D01*
X8319727Y7480816D01*
X8333435Y7620000D01*
X8330000Y7654877D01*
X8330000Y9494315D01*
X27825700Y9494315D01*
X27825700Y9301685D01*
X27863280Y9112757D01*
X27936996Y8934790D01*
X28044015Y8774625D01*
X28180225Y8638415D01*
X28340390Y8531396D01*
X28518357Y8457680D01*
X28707285Y8420100D01*
X28899915Y8420100D01*
X29088843Y8457680D01*
X29266810Y8531396D01*
X29426975Y8638415D01*
X29563185Y8774625D01*
X29670204Y8934790D01*
X29743920Y9112757D01*
X29781500Y9301685D01*
X29781500Y9494315D01*
X29743920Y9683243D01*
X29670204Y9861210D01*
X29563185Y10021375D01*
X29438078Y10146482D01*
X31389933Y10146482D01*
X31389933Y9953852D01*
X31427513Y9764924D01*
X31501229Y9586957D01*
X31608248Y9426792D01*
X31744458Y9290582D01*
X31904623Y9183563D01*
X32082590Y9109847D01*
X32271518Y9072267D01*
X32464148Y9072267D01*
X32653076Y9109847D01*
X32831043Y9183563D01*
X32991208Y9290582D01*
X33127418Y9426792D01*
X33234437Y9586957D01*
X33308153Y9764924D01*
X33345733Y9953852D01*
X33345733Y10146482D01*
X33308153Y10335410D01*
X33234437Y10513377D01*
X33172127Y10606631D01*
X33277004Y10763590D01*
X33350720Y10941557D01*
X33388300Y11130485D01*
X33388300Y11323115D01*
X33350720Y11512043D01*
X33277004Y11690010D01*
X33169985Y11850175D01*
X33033775Y11986385D01*
X32873610Y12093404D01*
X32695643Y12167120D01*
X32506715Y12204700D01*
X32314085Y12204700D01*
X32125157Y12167120D01*
X31947190Y12093404D01*
X31787025Y11986385D01*
X31650815Y11850175D01*
X31543796Y11690010D01*
X31470080Y11512043D01*
X31432500Y11323115D01*
X31432500Y11130485D01*
X31470080Y10941557D01*
X31543796Y10763590D01*
X31606106Y10670336D01*
X31501229Y10513377D01*
X31427513Y10335410D01*
X31389933Y10146482D01*
X29438078Y10146482D01*
X29426975Y10157585D01*
X29266810Y10264604D01*
X29088843Y10338320D01*
X28899915Y10375900D01*
X28707285Y10375900D01*
X28518357Y10338320D01*
X28340390Y10264604D01*
X28180225Y10157585D01*
X28044015Y10021375D01*
X27936996Y9861210D01*
X27863280Y9683243D01*
X27825700Y9494315D01*
X8330000Y9494315D01*
X8330000Y12237515D01*
X45300900Y12237515D01*
X45300900Y12044885D01*
X45338480Y11855957D01*
X45412196Y11677990D01*
X45519215Y11517825D01*
X45655425Y11381615D01*
X45815590Y11274596D01*
X45993557Y11200880D01*
X46182485Y11163300D01*
X46375115Y11163300D01*
X46564043Y11200880D01*
X46742010Y11274596D01*
X46902175Y11381615D01*
X47038385Y11517825D01*
X47145404Y11677990D01*
X47219120Y11855957D01*
X47256700Y12044885D01*
X47256700Y12237515D01*
X47219120Y12426443D01*
X47145404Y12604410D01*
X47038385Y12764575D01*
X46902175Y12900785D01*
X46742010Y13007804D01*
X46564043Y13081520D01*
X46375115Y13119100D01*
X46182485Y13119100D01*
X45993557Y13081520D01*
X45815590Y13007804D01*
X45655425Y12900785D01*
X45519215Y12764575D01*
X45412196Y12604410D01*
X45338480Y12426443D01*
X45300900Y12237515D01*
X8330000Y12237515D01*
X8330000Y18841469D01*
X13306074Y18841469D01*
X13416921Y18564286D01*
X13727840Y18410911D01*
X14062705Y18321140D01*
X14408650Y18298424D01*
X14752380Y18343634D01*
X15080685Y18455034D01*
X15285079Y18564286D01*
X15395926Y18841469D01*
X18386074Y18841469D01*
X18496921Y18564286D01*
X18807840Y18410911D01*
X19142705Y18321140D01*
X19488650Y18298424D01*
X19832380Y18343634D01*
X20160685Y18455034D01*
X20365079Y18564286D01*
X20475926Y18841469D01*
X19431000Y19886395D01*
X18386074Y18841469D01*
X15395926Y18841469D01*
X14351000Y19886395D01*
X13306074Y18841469D01*
X8330000Y18841469D01*
X8330000Y20008350D01*
X12583424Y20008350D01*
X12628634Y19664620D01*
X12740034Y19336315D01*
X12849286Y19131921D01*
X13126469Y19021074D01*
X14171395Y20066000D01*
X14530605Y20066000D01*
X15575531Y19021074D01*
X15852714Y19131921D01*
X16006089Y19442840D01*
X16095860Y19777705D01*
X16111004Y20008350D01*
X17663424Y20008350D01*
X17708634Y19664620D01*
X17820034Y19336315D01*
X17929286Y19131921D01*
X18206469Y19021074D01*
X19251395Y20066000D01*
X19610605Y20066000D01*
X20655531Y19021074D01*
X20932714Y19131921D01*
X21086089Y19442840D01*
X21175860Y19777705D01*
X21198576Y20123650D01*
X21153366Y20467380D01*
X21041966Y20795685D01*
X20932714Y21000079D01*
X20655531Y21110926D01*
X19610605Y20066000D01*
X19251395Y20066000D01*
X18206469Y21110926D01*
X17929286Y21000079D01*
X17775911Y20689160D01*
X17686140Y20354295D01*
X17663424Y20008350D01*
X16111004Y20008350D01*
X16118576Y20123650D01*
X16073366Y20467380D01*
X15961966Y20795685D01*
X15852714Y21000079D01*
X15575531Y21110926D01*
X14530605Y20066000D01*
X14171395Y20066000D01*
X13126469Y21110926D01*
X12849286Y21000079D01*
X12695911Y20689160D01*
X12606140Y20354295D01*
X12583424Y20008350D01*
X8330000Y20008350D01*
X8330000Y21290531D01*
X13306074Y21290531D01*
X14351000Y20245605D01*
X15395926Y21290531D01*
X15285079Y21567714D01*
X14974160Y21721089D01*
X14639295Y21810860D01*
X14293350Y21833576D01*
X13949620Y21788366D01*
X13621315Y21676966D01*
X13416921Y21567714D01*
X13306074Y21290531D01*
X8330000Y21290531D01*
X8330000Y22769496D01*
X15231000Y22769496D01*
X15231000Y22442504D01*
X15294793Y22121796D01*
X15419927Y21819695D01*
X15601594Y21547812D01*
X15832812Y21316594D01*
X16104695Y21134927D01*
X16406796Y21009793D01*
X16727504Y20946000D01*
X17054496Y20946000D01*
X17375204Y21009793D01*
X17677305Y21134927D01*
X17910182Y21290531D01*
X18386074Y21290531D01*
X19431000Y20245605D01*
X20475926Y21290531D01*
X20365079Y21567714D01*
X20054160Y21721089D01*
X19719295Y21810860D01*
X19373350Y21833576D01*
X19029620Y21788366D01*
X18701315Y21676966D01*
X18496921Y21567714D01*
X18386074Y21290531D01*
X17910182Y21290531D01*
X17949188Y21316594D01*
X18180406Y21547812D01*
X18362073Y21819695D01*
X18487207Y22121796D01*
X18551000Y22442504D01*
X18551000Y22769496D01*
X18487207Y23090204D01*
X18362073Y23392305D01*
X18180406Y23664188D01*
X17949188Y23895406D01*
X17910183Y23921469D01*
X18386074Y23921469D01*
X18496921Y23644286D01*
X18807840Y23490911D01*
X19142705Y23401140D01*
X19488650Y23378424D01*
X19832380Y23423634D01*
X20160685Y23535034D01*
X20365079Y23644286D01*
X20475926Y23921469D01*
X19431000Y24966395D01*
X18386074Y23921469D01*
X17910183Y23921469D01*
X17677305Y24077073D01*
X17375204Y24202207D01*
X17054496Y24266000D01*
X16727504Y24266000D01*
X16406796Y24202207D01*
X16104695Y24077073D01*
X15832812Y23895406D01*
X15601594Y23664188D01*
X15419927Y23392305D01*
X15294793Y23090204D01*
X15231000Y22769496D01*
X8330000Y22769496D01*
X8330000Y23921469D01*
X13306074Y23921469D01*
X13416921Y23644286D01*
X13727840Y23490911D01*
X14062705Y23401140D01*
X14408650Y23378424D01*
X14752380Y23423634D01*
X15080685Y23535034D01*
X15285079Y23644286D01*
X15395926Y23921469D01*
X14351000Y24966395D01*
X13306074Y23921469D01*
X8330000Y23921469D01*
X8330000Y25088350D01*
X12583424Y25088350D01*
X12628634Y24744620D01*
X12740034Y24416315D01*
X12849286Y24211921D01*
X13126469Y24101074D01*
X14171395Y25146000D01*
X14530605Y25146000D01*
X15575531Y24101074D01*
X15852714Y24211921D01*
X16006089Y24522840D01*
X16095860Y24857705D01*
X16111004Y25088350D01*
X17663424Y25088350D01*
X17708634Y24744620D01*
X17820034Y24416315D01*
X17929286Y24211921D01*
X18206469Y24101074D01*
X19251395Y25146000D01*
X19610605Y25146000D01*
X20655531Y24101074D01*
X20932714Y24211921D01*
X21086089Y24522840D01*
X21175860Y24857705D01*
X21198576Y25203650D01*
X21153366Y25547380D01*
X21041966Y25875685D01*
X20932714Y26080079D01*
X20655531Y26190926D01*
X19610605Y25146000D01*
X19251395Y25146000D01*
X18206469Y26190926D01*
X17929286Y26080079D01*
X17775911Y25769160D01*
X17686140Y25434295D01*
X17663424Y25088350D01*
X16111004Y25088350D01*
X16118576Y25203650D01*
X16073366Y25547380D01*
X15961966Y25875685D01*
X15852714Y26080079D01*
X15575531Y26190926D01*
X14530605Y25146000D01*
X14171395Y25146000D01*
X13126469Y26190926D01*
X12849286Y26080079D01*
X12695911Y25769160D01*
X12606140Y25434295D01*
X12583424Y25088350D01*
X8330000Y25088350D01*
X8330000Y26370531D01*
X13306074Y26370531D01*
X14351000Y25325605D01*
X15395926Y26370531D01*
X18386074Y26370531D01*
X19431000Y25325605D01*
X20475926Y26370531D01*
X20459857Y26410715D01*
X43014900Y26410715D01*
X43014900Y26218085D01*
X43052480Y26029157D01*
X43126196Y25851190D01*
X43233215Y25691025D01*
X43369425Y25554815D01*
X43529590Y25447796D01*
X43707557Y25374080D01*
X43896485Y25336500D01*
X44089115Y25336500D01*
X44278043Y25374080D01*
X44456010Y25447796D01*
X44616175Y25554815D01*
X44752385Y25691025D01*
X44859404Y25851190D01*
X44933120Y26029157D01*
X44970700Y26218085D01*
X44970700Y26410715D01*
X44933120Y26599643D01*
X44859404Y26777610D01*
X44752385Y26937775D01*
X44616175Y27073985D01*
X44456010Y27181004D01*
X44278043Y27254720D01*
X44089115Y27292300D01*
X43896485Y27292300D01*
X43707557Y27254720D01*
X43529590Y27181004D01*
X43369425Y27073985D01*
X43233215Y26937775D01*
X43126196Y26777610D01*
X43052480Y26599643D01*
X43014900Y26410715D01*
X20459857Y26410715D01*
X20365079Y26647714D01*
X20054160Y26801089D01*
X19719295Y26890860D01*
X19373350Y26913576D01*
X19029620Y26868366D01*
X18701315Y26756966D01*
X18496921Y26647714D01*
X18386074Y26370531D01*
X15395926Y26370531D01*
X15285079Y26647714D01*
X14974160Y26801089D01*
X14639295Y26890860D01*
X14293350Y26913576D01*
X13949620Y26868366D01*
X13621315Y26756966D01*
X13416921Y26647714D01*
X13306074Y26370531D01*
X8330000Y26370531D01*
X8330000Y30423915D01*
X37376100Y30423915D01*
X37376100Y30231285D01*
X37413680Y30042357D01*
X37487396Y29864390D01*
X37594415Y29704225D01*
X37730625Y29568015D01*
X37867203Y29476756D01*
X37833300Y29306315D01*
X37833300Y29113685D01*
X37870880Y28924757D01*
X37944596Y28746790D01*
X38051615Y28586625D01*
X38187825Y28450415D01*
X38347990Y28343396D01*
X38525957Y28269680D01*
X38714885Y28232100D01*
X38907515Y28232100D01*
X39096443Y28269680D01*
X39274410Y28343396D01*
X39434575Y28450415D01*
X39570785Y28586625D01*
X39677804Y28746790D01*
X39741230Y28899915D01*
X42659300Y28899915D01*
X42659300Y28707285D01*
X42696880Y28518357D01*
X42770596Y28340390D01*
X42877615Y28180225D01*
X43013825Y28044015D01*
X43173990Y27936996D01*
X43351957Y27863280D01*
X43540885Y27825700D01*
X43733515Y27825700D01*
X43922443Y27863280D01*
X44100410Y27936996D01*
X44260575Y28044015D01*
X44396785Y28180225D01*
X44503804Y28340390D01*
X44577520Y28518357D01*
X44615100Y28707285D01*
X44615100Y28899915D01*
X44577520Y29088843D01*
X44503804Y29266810D01*
X44396785Y29426975D01*
X44260575Y29563185D01*
X44100410Y29670204D01*
X43922443Y29743920D01*
X43733515Y29781500D01*
X43540885Y29781500D01*
X43351957Y29743920D01*
X43173990Y29670204D01*
X43013825Y29563185D01*
X42877615Y29426975D01*
X42770596Y29266810D01*
X42696880Y29088843D01*
X42659300Y28899915D01*
X39741230Y28899915D01*
X39751520Y28924757D01*
X39789100Y29113685D01*
X39789100Y29306315D01*
X39751520Y29495243D01*
X39677804Y29673210D01*
X39570785Y29833375D01*
X39434575Y29969585D01*
X39297997Y30060844D01*
X39331900Y30231285D01*
X39331900Y30423915D01*
X39294320Y30612843D01*
X39220604Y30790810D01*
X39126321Y30931915D01*
X59220100Y30931915D01*
X59220100Y30739285D01*
X59257680Y30550357D01*
X59331396Y30372390D01*
X59438415Y30212225D01*
X59574625Y30076015D01*
X59734790Y29968996D01*
X59912757Y29895280D01*
X60101685Y29857700D01*
X60294315Y29857700D01*
X60483243Y29895280D01*
X60661210Y29968996D01*
X60821375Y30076015D01*
X60957585Y30212225D01*
X61064604Y30372390D01*
X61138320Y30550357D01*
X61175900Y30739285D01*
X61175900Y30931915D01*
X61138320Y31120843D01*
X61064604Y31298810D01*
X60957585Y31458975D01*
X60821375Y31595185D01*
X60661210Y31702204D01*
X60483243Y31775920D01*
X60294315Y31813500D01*
X60101685Y31813500D01*
X59912757Y31775920D01*
X59734790Y31702204D01*
X59574625Y31595185D01*
X59438415Y31458975D01*
X59331396Y31298810D01*
X59257680Y31120843D01*
X59220100Y30931915D01*
X39126321Y30931915D01*
X39113585Y30950975D01*
X38977375Y31087185D01*
X38817210Y31194204D01*
X38639243Y31267920D01*
X38450315Y31305500D01*
X38257685Y31305500D01*
X38068757Y31267920D01*
X37890790Y31194204D01*
X37730625Y31087185D01*
X37594415Y30950975D01*
X37487396Y30790810D01*
X37413680Y30612843D01*
X37376100Y30423915D01*
X8330000Y30423915D01*
X8330000Y33745061D01*
X23088600Y33745061D01*
X23088600Y33564939D01*
X23123740Y33388279D01*
X23192670Y33221869D01*
X23292739Y33072104D01*
X23420104Y32944739D01*
X23569869Y32844670D01*
X23736279Y32775740D01*
X23912939Y32740600D01*
X24093061Y32740600D01*
X24269721Y32775740D01*
X24436131Y32844670D01*
X24585896Y32944739D01*
X24713261Y33072104D01*
X24813330Y33221869D01*
X24882260Y33388279D01*
X24902704Y33491061D01*
X29565600Y33491061D01*
X29565600Y33310939D01*
X29600740Y33134279D01*
X29669670Y32967869D01*
X29769739Y32818104D01*
X29897104Y32690739D01*
X30046869Y32590670D01*
X30213279Y32521740D01*
X30389939Y32486600D01*
X30570061Y32486600D01*
X30746721Y32521740D01*
X30913131Y32590670D01*
X31062896Y32690739D01*
X31190261Y32818104D01*
X31290330Y32967869D01*
X31359260Y33134279D01*
X31394400Y33310939D01*
X31394400Y33491061D01*
X31367895Y33624315D01*
X45402500Y33624315D01*
X45402500Y33431685D01*
X45440080Y33242757D01*
X45513796Y33064790D01*
X45620815Y32904625D01*
X45757025Y32768415D01*
X45917190Y32661396D01*
X46095157Y32587680D01*
X46284085Y32550100D01*
X46476715Y32550100D01*
X46665643Y32587680D01*
X46843610Y32661396D01*
X47003775Y32768415D01*
X47099787Y32864427D01*
X47147685Y32854900D01*
X47340315Y32854900D01*
X47529243Y32892480D01*
X47707210Y32966196D01*
X47867375Y33073215D01*
X47899833Y33105673D01*
X47923957Y33095680D01*
X48112885Y33058100D01*
X48305515Y33058100D01*
X48494443Y33095680D01*
X48672410Y33169396D01*
X48832575Y33276415D01*
X48968785Y33412625D01*
X49075804Y33572790D01*
X49149520Y33750757D01*
X49187100Y33939685D01*
X49187100Y34132315D01*
X49149520Y34321243D01*
X49075804Y34499210D01*
X48968785Y34659375D01*
X48832575Y34795585D01*
X48672410Y34902604D01*
X48494443Y34976320D01*
X48305515Y35013900D01*
X48112885Y35013900D01*
X47923957Y34976320D01*
X47745990Y34902604D01*
X47585825Y34795585D01*
X47553367Y34763127D01*
X47529243Y34773120D01*
X47340315Y34810700D01*
X47147685Y34810700D01*
X46958757Y34773120D01*
X46780790Y34699404D01*
X46620625Y34592385D01*
X46524613Y34496373D01*
X46476715Y34505900D01*
X46284085Y34505900D01*
X46095157Y34468320D01*
X45917190Y34394604D01*
X45757025Y34287585D01*
X45620815Y34151375D01*
X45513796Y33991210D01*
X45440080Y33813243D01*
X45402500Y33624315D01*
X31367895Y33624315D01*
X31359260Y33667721D01*
X31290330Y33834131D01*
X31190261Y33983896D01*
X31062896Y34111261D01*
X30913131Y34211330D01*
X30746721Y34280260D01*
X30570061Y34315400D01*
X30389939Y34315400D01*
X30213279Y34280260D01*
X30046869Y34211330D01*
X29897104Y34111261D01*
X29769739Y33983896D01*
X29669670Y33834131D01*
X29600740Y33667721D01*
X29565600Y33491061D01*
X24902704Y33491061D01*
X24917400Y33564939D01*
X24917400Y33745061D01*
X24882260Y33921721D01*
X24813330Y34088131D01*
X24713261Y34237896D01*
X24585896Y34365261D01*
X24436131Y34465330D01*
X24269721Y34534260D01*
X24093061Y34569400D01*
X23912939Y34569400D01*
X23736279Y34534260D01*
X23569869Y34465330D01*
X23420104Y34365261D01*
X23292739Y34237896D01*
X23192670Y34088131D01*
X23123740Y33921721D01*
X23088600Y33745061D01*
X8330000Y33745061D01*
X8330000Y35015061D01*
X35687000Y35015061D01*
X35687000Y34834939D01*
X35722140Y34658279D01*
X35791070Y34491869D01*
X35891139Y34342104D01*
X36018504Y34214739D01*
X36168269Y34114670D01*
X36334679Y34045740D01*
X36511339Y34010600D01*
X36691461Y34010600D01*
X36868121Y34045740D01*
X37034531Y34114670D01*
X37184296Y34214739D01*
X37311661Y34342104D01*
X37411730Y34491869D01*
X37480660Y34658279D01*
X37515800Y34834939D01*
X37515800Y35015061D01*
X37480660Y35191721D01*
X37411730Y35358131D01*
X37311661Y35507896D01*
X37184296Y35635261D01*
X37034531Y35735330D01*
X36868121Y35804260D01*
X36691461Y35839400D01*
X36511339Y35839400D01*
X36334679Y35804260D01*
X36168269Y35735330D01*
X36018504Y35635261D01*
X35891139Y35507896D01*
X35791070Y35358131D01*
X35722140Y35191721D01*
X35687000Y35015061D01*
X8330000Y35015061D01*
X8330000Y37224861D01*
X45313600Y37224861D01*
X45313600Y37044739D01*
X45348740Y36868079D01*
X45417670Y36701669D01*
X45517739Y36551904D01*
X45567601Y36502042D01*
X45567601Y36373733D01*
X45602741Y36197073D01*
X45647880Y36088098D01*
X45602740Y35979121D01*
X45567600Y35802461D01*
X45567600Y35622339D01*
X45602740Y35445679D01*
X45671670Y35279269D01*
X45771739Y35129504D01*
X45899104Y35002139D01*
X46048869Y34902070D01*
X46215279Y34833140D01*
X46391939Y34798000D01*
X46572061Y34798000D01*
X46748721Y34833140D01*
X46915131Y34902070D01*
X47064896Y35002139D01*
X47192261Y35129504D01*
X47292330Y35279269D01*
X47361260Y35445679D01*
X47396400Y35622339D01*
X47396400Y35802461D01*
X47361260Y35979121D01*
X47316121Y36088096D01*
X47361261Y36197073D01*
X47396401Y36373733D01*
X47396401Y36553855D01*
X47361261Y36730515D01*
X47292331Y36896925D01*
X47192262Y37046690D01*
X47142400Y37096552D01*
X47142400Y37224861D01*
X47127243Y37301061D01*
X49250600Y37301061D01*
X49250600Y37120939D01*
X49285740Y36944279D01*
X49354670Y36777869D01*
X49454739Y36628104D01*
X49582104Y36500739D01*
X49731869Y36400670D01*
X49898279Y36331740D01*
X50074939Y36296600D01*
X50255061Y36296600D01*
X50431721Y36331740D01*
X50598131Y36400670D01*
X50747896Y36500739D01*
X50875261Y36628104D01*
X50975330Y36777869D01*
X51044260Y36944279D01*
X51079400Y37120939D01*
X51079400Y37301061D01*
X51062207Y37387495D01*
X51067775Y37391215D01*
X51203985Y37527425D01*
X51311004Y37687590D01*
X51384720Y37865557D01*
X51422300Y38054485D01*
X51422300Y38247115D01*
X51384720Y38436043D01*
X51311004Y38614010D01*
X51203985Y38774175D01*
X51067775Y38910385D01*
X50907610Y39017404D01*
X50729643Y39091120D01*
X50540715Y39128700D01*
X50348085Y39128700D01*
X50159157Y39091120D01*
X49981190Y39017404D01*
X49821025Y38910385D01*
X49684815Y38774175D01*
X49577796Y38614010D01*
X49504080Y38436043D01*
X49466500Y38247115D01*
X49466500Y38054485D01*
X49504080Y37865557D01*
X49510617Y37849774D01*
X49454739Y37793896D01*
X49354670Y37644131D01*
X49285740Y37477721D01*
X49250600Y37301061D01*
X47127243Y37301061D01*
X47107260Y37401521D01*
X47038330Y37567931D01*
X46938261Y37717696D01*
X46810896Y37845061D01*
X46661131Y37945130D01*
X46494721Y38014060D01*
X46318061Y38049200D01*
X46137939Y38049200D01*
X45961279Y38014060D01*
X45794869Y37945130D01*
X45645104Y37845061D01*
X45517739Y37717696D01*
X45417670Y37567931D01*
X45348740Y37401521D01*
X45313600Y37224861D01*
X8330000Y37224861D01*
X8330000Y39079061D01*
X35026600Y39079061D01*
X35026600Y38898939D01*
X35061740Y38722279D01*
X35130670Y38555869D01*
X35230739Y38406104D01*
X35358104Y38278739D01*
X35507869Y38178670D01*
X35674279Y38109740D01*
X35850939Y38074600D01*
X36031061Y38074600D01*
X36207721Y38109740D01*
X36374131Y38178670D01*
X36523896Y38278739D01*
X36651261Y38406104D01*
X36751330Y38555869D01*
X36820260Y38722279D01*
X36855400Y38898939D01*
X36855400Y39079061D01*
X36840243Y39155261D01*
X37744400Y39155261D01*
X37744400Y38975139D01*
X37779540Y38798479D01*
X37848470Y38632069D01*
X37948539Y38482304D01*
X38075904Y38354939D01*
X38225669Y38254870D01*
X38392079Y38185940D01*
X38568739Y38150800D01*
X38748861Y38150800D01*
X38925521Y38185940D01*
X39091931Y38254870D01*
X39241696Y38354939D01*
X39369061Y38482304D01*
X39469130Y38632069D01*
X39538060Y38798479D01*
X39573200Y38975139D01*
X39573200Y38981749D01*
X39599550Y38849279D01*
X39668480Y38682869D01*
X39768549Y38533104D01*
X39895914Y38405739D01*
X40045679Y38305670D01*
X40212089Y38236740D01*
X40388749Y38201600D01*
X40568871Y38201600D01*
X40745531Y38236740D01*
X40911941Y38305670D01*
X41061706Y38405739D01*
X41189071Y38533104D01*
X41289140Y38682869D01*
X41358070Y38849279D01*
X41368594Y38902185D01*
X41509610Y38960596D01*
X41669775Y39067615D01*
X41805985Y39203825D01*
X41913004Y39363990D01*
X41986720Y39541957D01*
X42024300Y39730885D01*
X42024300Y39865300D01*
X42209515Y39865300D01*
X42398443Y39902880D01*
X42576410Y39976596D01*
X42736575Y40083615D01*
X42872785Y40219825D01*
X42979804Y40379990D01*
X43053520Y40557957D01*
X43091100Y40746885D01*
X43091100Y40939515D01*
X43053520Y41128443D01*
X42979804Y41306410D01*
X42872785Y41466575D01*
X42736575Y41602785D01*
X42576410Y41709804D01*
X42398443Y41783520D01*
X42209515Y41821100D01*
X42016885Y41821100D01*
X41827957Y41783520D01*
X41649990Y41709804D01*
X41489825Y41602785D01*
X41353615Y41466575D01*
X41246596Y41306410D01*
X41172880Y41128443D01*
X41135300Y40939515D01*
X41135300Y40805100D01*
X40950085Y40805100D01*
X40761157Y40767520D01*
X40583190Y40693804D01*
X40423025Y40586785D01*
X40286815Y40450575D01*
X40179796Y40290410D01*
X40106080Y40112443D01*
X40071159Y39936884D01*
X40045679Y39926330D01*
X39895914Y39826261D01*
X39768549Y39698896D01*
X39668480Y39549131D01*
X39599550Y39382721D01*
X39564410Y39206061D01*
X39564410Y39199451D01*
X39538060Y39331921D01*
X39469130Y39498331D01*
X39369061Y39648096D01*
X39241696Y39775461D01*
X39091931Y39875530D01*
X38925521Y39944460D01*
X38748861Y39979600D01*
X38568739Y39979600D01*
X38392079Y39944460D01*
X38225669Y39875530D01*
X38075904Y39775461D01*
X37948539Y39648096D01*
X37848470Y39498331D01*
X37779540Y39331921D01*
X37744400Y39155261D01*
X36840243Y39155261D01*
X36820260Y39255721D01*
X36751330Y39422131D01*
X36651261Y39571896D01*
X36523896Y39699261D01*
X36374131Y39799330D01*
X36207721Y39868260D01*
X36031061Y39903400D01*
X35850939Y39903400D01*
X35674279Y39868260D01*
X35507869Y39799330D01*
X35358104Y39699261D01*
X35230739Y39571896D01*
X35130670Y39422131D01*
X35061740Y39255721D01*
X35026600Y39079061D01*
X8330000Y39079061D01*
X8330000Y42406461D01*
X47345600Y42406461D01*
X47345600Y42226339D01*
X47380740Y42049679D01*
X47449670Y41883269D01*
X47549739Y41733504D01*
X47677104Y41606139D01*
X47826869Y41506070D01*
X47993279Y41437140D01*
X48169939Y41402000D01*
X48350061Y41402000D01*
X48526721Y41437140D01*
X48693131Y41506070D01*
X48842896Y41606139D01*
X48970261Y41733504D01*
X49070330Y41883269D01*
X49139260Y42049679D01*
X49174400Y42226339D01*
X49174400Y42406461D01*
X49139260Y42583121D01*
X49070330Y42749531D01*
X48970261Y42899296D01*
X48842896Y43026661D01*
X48693131Y43126730D01*
X48526721Y43195660D01*
X48350061Y43230800D01*
X48169939Y43230800D01*
X47993279Y43195660D01*
X47826869Y43126730D01*
X47677104Y43026661D01*
X47549739Y42899296D01*
X47449670Y42749531D01*
X47380740Y42583121D01*
X47345600Y42406461D01*
X8330000Y42406461D01*
X8330000Y46955124D01*
X8333435Y46990000D01*
X8319727Y47129184D01*
X8279128Y47263020D01*
X8213200Y47386363D01*
X8124475Y47494475D01*
X8016363Y47583200D01*
X7893020Y47649128D01*
X7759184Y47689727D01*
X7654877Y47700000D01*
X7620000Y47703435D01*
X7585123Y47700000D01*
X710000Y47700000D01*
X710000Y49315000D01*
X2321928Y49315000D01*
X2334188Y49190518D01*
X2370498Y49070820D01*
X2429463Y48960506D01*
X2508815Y48863815D01*
X2605506Y48784463D01*
X2715820Y48725498D01*
X2835518Y48689188D01*
X2960000Y48676928D01*
X3524250Y48680000D01*
X3683000Y48838750D01*
X3683000Y50038000D01*
X2483750Y50038000D01*
X2325000Y49879250D01*
X2321928Y49315000D01*
X710000Y49315000D01*
X710000Y51015000D01*
X2321928Y51015000D01*
X2325000Y50450750D01*
X2483750Y50292000D01*
X3683000Y50292000D01*
X3683000Y52578000D01*
X2489186Y52578000D01*
X2368519Y52348109D01*
X2465843Y52073748D01*
X2614822Y51823645D01*
X2791626Y51627498D01*
X2715820Y51604502D01*
X2605506Y51545537D01*
X2508815Y51466185D01*
X2429463Y51369494D01*
X2370498Y51259180D01*
X2334188Y51139482D01*
X2321928Y51015000D01*
X710000Y51015000D01*
X710000Y53900000D01*
X2940329Y53900000D01*
X2809731Y53802588D01*
G37*
%TD.AperFunction*%
%TD*%
M02*
