%TF.GenerationSoftware,KiCad,Pcbnew,(5.1.9)-1*%
%TF.CreationDate,2021-11-09T16:08:34-06:00*%
%TF.ProjectId,SwitchBoard,53776974-6368-4426-9f61-72642e6b6963,rev?*%
%TF.SameCoordinates,Original*%
%TF.FileFunction,Soldermask,Bot*%
%TF.FilePolarity,Negative*%
%FSLAX46Y46*%
G04 Gerber Fmt 4.6, Leading zero omitted, Abs format (unit mm)*
G04 Created by KiCad (PCBNEW (5.1.9)-1) date 2021-11-09 16:08:34*
%MOMM*%
%LPD*%
G01*
G04 APERTURE LIST*
%ADD10O,1.700000X1.700000*%
%ADD11R,1.700000X1.700000*%
%ADD12O,1.200000X1.050000*%
%ADD13O,2.000000X1.200000*%
G04 APERTURE END LIST*
D10*
%TO.C,U3*%
X59690000Y4445000D03*
X59690000Y1905000D03*
X57150000Y4445000D03*
X57150000Y1905000D03*
X54610000Y4445000D03*
X54610000Y1905000D03*
X52070000Y4445000D03*
X52070000Y1905000D03*
X49530000Y4445000D03*
X49530000Y1905000D03*
X46990000Y4445000D03*
X46990000Y1905000D03*
X44450000Y4445000D03*
X44450000Y1905000D03*
X41910000Y4445000D03*
X41910000Y1905000D03*
X39370000Y4445000D03*
X39370000Y1905000D03*
X36830000Y4445000D03*
X36830000Y1905000D03*
X34290000Y4445000D03*
X34290000Y1905000D03*
X31750000Y4445000D03*
X31750000Y1905000D03*
X29210000Y4445000D03*
X29210000Y1905000D03*
X26670000Y4445000D03*
X26670000Y1905000D03*
X24130000Y4445000D03*
X24130000Y1905000D03*
X21590000Y4445000D03*
X21590000Y1905000D03*
X19050000Y4445000D03*
X19050000Y1905000D03*
X16510000Y4445000D03*
X16510000Y1905000D03*
X13970000Y4445000D03*
X13970000Y1905000D03*
X11430000Y4445000D03*
X11430000Y1905000D03*
X8890000Y4445000D03*
X8890000Y1905000D03*
X6350000Y4445000D03*
X6350000Y1905000D03*
X3810000Y4445000D03*
D11*
X3810000Y1905000D03*
%TD*%
D12*
%TO.C,J1*%
X28000800Y43830200D03*
X28000800Y39380200D03*
D13*
X25900800Y38105200D03*
X25900800Y45105200D03*
%TD*%
D11*
%TO.C,U1*%
X3810000Y50165000D03*
D10*
X3810000Y52705000D03*
X6350000Y50165000D03*
X6350000Y52705000D03*
X8890000Y50165000D03*
X8890000Y52705000D03*
X11430000Y50165000D03*
X11430000Y52705000D03*
X13970000Y50165000D03*
X13970000Y52705000D03*
X16510000Y50165000D03*
X16510000Y52705000D03*
X19050000Y50165000D03*
X19050000Y52705000D03*
X21590000Y50165000D03*
X21590000Y52705000D03*
X24130000Y50165000D03*
X24130000Y52705000D03*
X26670000Y50165000D03*
X26670000Y52705000D03*
X29210000Y50165000D03*
X29210000Y52705000D03*
X31750000Y50165000D03*
X31750000Y52705000D03*
X34290000Y50165000D03*
X34290000Y52705000D03*
X36830000Y50165000D03*
X36830000Y52705000D03*
X39370000Y50165000D03*
X39370000Y52705000D03*
X41910000Y50165000D03*
X41910000Y52705000D03*
X44450000Y50165000D03*
X44450000Y52705000D03*
X46990000Y50165000D03*
X46990000Y52705000D03*
X49530000Y50165000D03*
X49530000Y52705000D03*
X52070000Y50165000D03*
X52070000Y52705000D03*
X54610000Y50165000D03*
X54610000Y52705000D03*
X57150000Y50165000D03*
X57150000Y52705000D03*
X59690000Y50165000D03*
X59690000Y52705000D03*
%TD*%
M02*
