M48
; DRILL file {KiCad (5.1.9)-1} date 11/09/21 16:08:30
; FORMAT={-:-/ absolute / inch / decimal}
; #@! TF.CreationDate,2021-11-09T16:08:30-06:00
; #@! TF.GenerationSoftware,Kicad,Pcbnew,(5.1.9)-1
; #@! TF.FileFunction,Plated,1,2,PTH
FMAT,2
INCH
T1C0.0157
T2C0.0236
T3C0.0256
T4C0.0394
%
G90
G05
T1
X0.96Y0.692
X0.9678Y0.2962
X1.014Y1.278
X1.02Y1.58
X1.042Y1.052
X1.058Y0.848
X1.106Y0.658
X1.114Y0.596
X1.148Y1.578
X1.158Y0.454
X1.21Y1.435
X1.2188Y0.4072
X1.282Y0.492
X1.282Y0.288
X1.305Y1.44
X1.364Y0.634
X1.405Y1.445
X1.445Y0.315
X1.54Y1.53
X1.555Y1.26
X1.596Y1.374
X1.6Y0.655
X1.648Y0.8315
X1.648Y0.4165
X1.65Y1.2665
X1.65Y0.8885
X1.65Y0.474
X1.6519Y1.3235
X1.652Y1.73
X1.652Y1.668
X1.845Y0.855
X1.85Y0.45
X1.9Y1.59
X1.905Y1.81
X1.905Y1.405
X1.91Y1.195
X2.0Y0.34
X2.045Y1.535
X2.05Y1.13
X2.055Y0.685
X2.198Y0.4835
X2.2Y1.734
X2.2Y1.67
X2.2Y1.3385
X2.202Y1.27
X2.202Y0.4265
X2.204Y0.8785
X2.204Y0.8215
X2.395Y1.69
X2.395Y0.85
X2.4Y0.45
X2.45Y1.41
X2.455Y1.81
X2.455Y1.19
T4
X0.15Y2.075
X0.15Y1.975
X0.15Y0.175
X0.15Y0.075
X0.25Y2.075
X0.25Y1.975
X0.25Y0.175
X0.25Y0.075
X0.35Y2.075
X0.35Y1.975
X0.35Y0.175
X0.35Y0.075
X0.45Y2.075
X0.45Y1.975
X0.45Y0.175
X0.45Y0.075
X0.55Y2.075
X0.55Y1.975
X0.55Y0.175
X0.55Y0.075
X0.65Y2.075
X0.65Y1.975
X0.65Y0.175
X0.65Y0.075
X0.75Y2.075
X0.75Y1.975
X0.75Y0.175
X0.75Y0.075
X0.85Y2.075
X0.85Y1.975
X0.85Y0.175
X0.85Y0.075
X0.95Y2.075
X0.95Y1.975
X0.95Y0.175
X0.95Y0.075
X1.05Y2.075
X1.05Y1.975
X1.05Y0.175
X1.05Y0.075
X1.15Y2.075
X1.15Y1.975
X1.15Y0.175
X1.15Y0.075
X1.25Y2.075
X1.25Y1.975
X1.25Y0.175
X1.25Y0.075
X1.35Y2.075
X1.35Y1.975
X1.35Y0.175
X1.35Y0.075
X1.45Y2.075
X1.45Y1.975
X1.45Y0.175
X1.45Y0.075
X1.55Y2.075
X1.55Y1.975
X1.55Y0.175
X1.55Y0.075
X1.65Y2.075
X1.65Y1.975
X1.65Y0.175
X1.65Y0.075
X1.75Y2.075
X1.75Y1.975
X1.75Y0.175
X1.75Y0.075
X1.85Y2.075
X1.85Y1.975
X1.85Y0.175
X1.85Y0.075
X1.95Y2.075
X1.95Y1.975
X1.95Y0.175
X1.95Y0.075
X2.05Y2.075
X2.05Y1.975
X2.05Y0.175
X2.05Y0.075
X2.15Y2.075
X2.15Y1.975
X2.15Y0.175
X2.15Y0.075
X2.25Y2.075
X2.25Y1.975
X2.25Y0.175
X2.25Y0.075
X2.35Y2.075
X2.35Y1.975
X2.35Y0.175
X2.35Y0.075
T2
G00X1.004Y1.7758
M15
G01X1.0355Y1.7758
M16
G05
G00X1.004Y1.5002
M15
G01X1.0355Y1.5002
M16
G05
T3
G00X1.0994Y1.7256
M15
G01X1.1053Y1.7256
M16
G05
G00X1.0994Y1.5504
M15
G01X1.1053Y1.5504
M16
G05
T0
M30
