%TF.GenerationSoftware,KiCad,Pcbnew,(5.1.9)-1*%
%TF.CreationDate,2021-11-09T16:08:34-06:00*%
%TF.ProjectId,SwitchBoard,53776974-6368-4426-9f61-72642e6b6963,rev?*%
%TF.SameCoordinates,Original*%
%TF.FileFunction,Paste,Top*%
%TF.FilePolarity,Positive*%
%FSLAX46Y46*%
G04 Gerber Fmt 4.6, Leading zero omitted, Abs format (unit mm)*
G04 Created by KiCad (PCBNEW (5.1.9)-1) date 2021-11-09 16:08:34*
%MOMM*%
%LPD*%
G01*
G04 APERTURE LIST*
%ADD10R,1.500000X0.400000*%
%ADD11R,2.000000X3.800000*%
%ADD12R,2.000000X1.500000*%
G04 APERTURE END LIST*
%TO.C,R15*%
G36*
G01*
X25467300Y22841400D02*
X25942300Y22841400D01*
G75*
G02*
X26179800Y22603900I0J-237500D01*
G01*
X26179800Y22103900D01*
G75*
G02*
X25942300Y21866400I-237500J0D01*
G01*
X25467300Y21866400D01*
G75*
G02*
X25229800Y22103900I0J237500D01*
G01*
X25229800Y22603900D01*
G75*
G02*
X25467300Y22841400I237500J0D01*
G01*
G37*
G36*
G01*
X25467300Y24666400D02*
X25942300Y24666400D01*
G75*
G02*
X26179800Y24428900I0J-237500D01*
G01*
X26179800Y23928900D01*
G75*
G02*
X25942300Y23691400I-237500J0D01*
G01*
X25467300Y23691400D01*
G75*
G02*
X25229800Y23928900I0J237500D01*
G01*
X25229800Y24428900D01*
G75*
G02*
X25467300Y24666400I237500J0D01*
G01*
G37*
%TD*%
%TO.C,C2*%
G36*
G01*
X32325300Y9225400D02*
X32800300Y9225400D01*
G75*
G02*
X33037800Y8987900I0J-237500D01*
G01*
X33037800Y8387900D01*
G75*
G02*
X32800300Y8150400I-237500J0D01*
G01*
X32325300Y8150400D01*
G75*
G02*
X32087800Y8387900I0J237500D01*
G01*
X32087800Y8987900D01*
G75*
G02*
X32325300Y9225400I237500J0D01*
G01*
G37*
G36*
G01*
X32325300Y10950400D02*
X32800300Y10950400D01*
G75*
G02*
X33037800Y10712900I0J-237500D01*
G01*
X33037800Y10112900D01*
G75*
G02*
X32800300Y9875400I-237500J0D01*
G01*
X32325300Y9875400D01*
G75*
G02*
X32087800Y10112900I0J237500D01*
G01*
X32087800Y10712900D01*
G75*
G02*
X32325300Y10950400I237500J0D01*
G01*
G37*
%TD*%
%TO.C,R12*%
G36*
G01*
X30394900Y7804600D02*
X30869900Y7804600D01*
G75*
G02*
X31107400Y7567100I0J-237500D01*
G01*
X31107400Y7067100D01*
G75*
G02*
X30869900Y6829600I-237500J0D01*
G01*
X30394900Y6829600D01*
G75*
G02*
X30157400Y7067100I0J237500D01*
G01*
X30157400Y7567100D01*
G75*
G02*
X30394900Y7804600I237500J0D01*
G01*
G37*
G36*
G01*
X30394900Y9629600D02*
X30869900Y9629600D01*
G75*
G02*
X31107400Y9392100I0J-237500D01*
G01*
X31107400Y8892100D01*
G75*
G02*
X30869900Y8654600I-237500J0D01*
G01*
X30394900Y8654600D01*
G75*
G02*
X30157400Y8892100I0J237500D01*
G01*
X30157400Y9392100D01*
G75*
G02*
X30394900Y9629600I237500J0D01*
G01*
G37*
%TD*%
%TO.C,U2*%
G36*
G01*
X27091000Y32616000D02*
X27091000Y32916000D01*
G75*
G02*
X27241000Y33066000I150000J0D01*
G01*
X28991000Y33066000D01*
G75*
G02*
X29141000Y32916000I0J-150000D01*
G01*
X29141000Y32616000D01*
G75*
G02*
X28991000Y32466000I-150000J0D01*
G01*
X27241000Y32466000D01*
G75*
G02*
X27091000Y32616000I0J150000D01*
G01*
G37*
G36*
G01*
X27091000Y31346000D02*
X27091000Y31646000D01*
G75*
G02*
X27241000Y31796000I150000J0D01*
G01*
X28991000Y31796000D01*
G75*
G02*
X29141000Y31646000I0J-150000D01*
G01*
X29141000Y31346000D01*
G75*
G02*
X28991000Y31196000I-150000J0D01*
G01*
X27241000Y31196000D01*
G75*
G02*
X27091000Y31346000I0J150000D01*
G01*
G37*
G36*
G01*
X27091000Y30076000D02*
X27091000Y30376000D01*
G75*
G02*
X27241000Y30526000I150000J0D01*
G01*
X28991000Y30526000D01*
G75*
G02*
X29141000Y30376000I0J-150000D01*
G01*
X29141000Y30076000D01*
G75*
G02*
X28991000Y29926000I-150000J0D01*
G01*
X27241000Y29926000D01*
G75*
G02*
X27091000Y30076000I0J150000D01*
G01*
G37*
G36*
G01*
X27091000Y28806000D02*
X27091000Y29106000D01*
G75*
G02*
X27241000Y29256000I150000J0D01*
G01*
X28991000Y29256000D01*
G75*
G02*
X29141000Y29106000I0J-150000D01*
G01*
X29141000Y28806000D01*
G75*
G02*
X28991000Y28656000I-150000J0D01*
G01*
X27241000Y28656000D01*
G75*
G02*
X27091000Y28806000I0J150000D01*
G01*
G37*
G36*
G01*
X27091000Y27536000D02*
X27091000Y27836000D01*
G75*
G02*
X27241000Y27986000I150000J0D01*
G01*
X28991000Y27986000D01*
G75*
G02*
X29141000Y27836000I0J-150000D01*
G01*
X29141000Y27536000D01*
G75*
G02*
X28991000Y27386000I-150000J0D01*
G01*
X27241000Y27386000D01*
G75*
G02*
X27091000Y27536000I0J150000D01*
G01*
G37*
G36*
G01*
X27091000Y26266000D02*
X27091000Y26566000D01*
G75*
G02*
X27241000Y26716000I150000J0D01*
G01*
X28991000Y26716000D01*
G75*
G02*
X29141000Y26566000I0J-150000D01*
G01*
X29141000Y26266000D01*
G75*
G02*
X28991000Y26116000I-150000J0D01*
G01*
X27241000Y26116000D01*
G75*
G02*
X27091000Y26266000I0J150000D01*
G01*
G37*
G36*
G01*
X27091000Y24996000D02*
X27091000Y25296000D01*
G75*
G02*
X27241000Y25446000I150000J0D01*
G01*
X28991000Y25446000D01*
G75*
G02*
X29141000Y25296000I0J-150000D01*
G01*
X29141000Y24996000D01*
G75*
G02*
X28991000Y24846000I-150000J0D01*
G01*
X27241000Y24846000D01*
G75*
G02*
X27091000Y24996000I0J150000D01*
G01*
G37*
G36*
G01*
X27091000Y23726000D02*
X27091000Y24026000D01*
G75*
G02*
X27241000Y24176000I150000J0D01*
G01*
X28991000Y24176000D01*
G75*
G02*
X29141000Y24026000I0J-150000D01*
G01*
X29141000Y23726000D01*
G75*
G02*
X28991000Y23576000I-150000J0D01*
G01*
X27241000Y23576000D01*
G75*
G02*
X27091000Y23726000I0J150000D01*
G01*
G37*
G36*
G01*
X27091000Y22456000D02*
X27091000Y22756000D01*
G75*
G02*
X27241000Y22906000I150000J0D01*
G01*
X28991000Y22906000D01*
G75*
G02*
X29141000Y22756000I0J-150000D01*
G01*
X29141000Y22456000D01*
G75*
G02*
X28991000Y22306000I-150000J0D01*
G01*
X27241000Y22306000D01*
G75*
G02*
X27091000Y22456000I0J150000D01*
G01*
G37*
G36*
G01*
X36391000Y22456000D02*
X36391000Y22756000D01*
G75*
G02*
X36541000Y22906000I150000J0D01*
G01*
X38291000Y22906000D01*
G75*
G02*
X38441000Y22756000I0J-150000D01*
G01*
X38441000Y22456000D01*
G75*
G02*
X38291000Y22306000I-150000J0D01*
G01*
X36541000Y22306000D01*
G75*
G02*
X36391000Y22456000I0J150000D01*
G01*
G37*
G36*
G01*
X36391000Y23726000D02*
X36391000Y24026000D01*
G75*
G02*
X36541000Y24176000I150000J0D01*
G01*
X38291000Y24176000D01*
G75*
G02*
X38441000Y24026000I0J-150000D01*
G01*
X38441000Y23726000D01*
G75*
G02*
X38291000Y23576000I-150000J0D01*
G01*
X36541000Y23576000D01*
G75*
G02*
X36391000Y23726000I0J150000D01*
G01*
G37*
G36*
G01*
X36391000Y24996000D02*
X36391000Y25296000D01*
G75*
G02*
X36541000Y25446000I150000J0D01*
G01*
X38291000Y25446000D01*
G75*
G02*
X38441000Y25296000I0J-150000D01*
G01*
X38441000Y24996000D01*
G75*
G02*
X38291000Y24846000I-150000J0D01*
G01*
X36541000Y24846000D01*
G75*
G02*
X36391000Y24996000I0J150000D01*
G01*
G37*
G36*
G01*
X36391000Y26266000D02*
X36391000Y26566000D01*
G75*
G02*
X36541000Y26716000I150000J0D01*
G01*
X38291000Y26716000D01*
G75*
G02*
X38441000Y26566000I0J-150000D01*
G01*
X38441000Y26266000D01*
G75*
G02*
X38291000Y26116000I-150000J0D01*
G01*
X36541000Y26116000D01*
G75*
G02*
X36391000Y26266000I0J150000D01*
G01*
G37*
G36*
G01*
X36391000Y27536000D02*
X36391000Y27836000D01*
G75*
G02*
X36541000Y27986000I150000J0D01*
G01*
X38291000Y27986000D01*
G75*
G02*
X38441000Y27836000I0J-150000D01*
G01*
X38441000Y27536000D01*
G75*
G02*
X38291000Y27386000I-150000J0D01*
G01*
X36541000Y27386000D01*
G75*
G02*
X36391000Y27536000I0J150000D01*
G01*
G37*
G36*
G01*
X36391000Y28806000D02*
X36391000Y29106000D01*
G75*
G02*
X36541000Y29256000I150000J0D01*
G01*
X38291000Y29256000D01*
G75*
G02*
X38441000Y29106000I0J-150000D01*
G01*
X38441000Y28806000D01*
G75*
G02*
X38291000Y28656000I-150000J0D01*
G01*
X36541000Y28656000D01*
G75*
G02*
X36391000Y28806000I0J150000D01*
G01*
G37*
G36*
G01*
X36391000Y30076000D02*
X36391000Y30376000D01*
G75*
G02*
X36541000Y30526000I150000J0D01*
G01*
X38291000Y30526000D01*
G75*
G02*
X38441000Y30376000I0J-150000D01*
G01*
X38441000Y30076000D01*
G75*
G02*
X38291000Y29926000I-150000J0D01*
G01*
X36541000Y29926000D01*
G75*
G02*
X36391000Y30076000I0J150000D01*
G01*
G37*
G36*
G01*
X36391000Y31346000D02*
X36391000Y31646000D01*
G75*
G02*
X36541000Y31796000I150000J0D01*
G01*
X38291000Y31796000D01*
G75*
G02*
X38441000Y31646000I0J-150000D01*
G01*
X38441000Y31346000D01*
G75*
G02*
X38291000Y31196000I-150000J0D01*
G01*
X36541000Y31196000D01*
G75*
G02*
X36391000Y31346000I0J150000D01*
G01*
G37*
G36*
G01*
X36391000Y32616000D02*
X36391000Y32916000D01*
G75*
G02*
X36541000Y33066000I150000J0D01*
G01*
X38291000Y33066000D01*
G75*
G02*
X38441000Y32916000I0J-150000D01*
G01*
X38441000Y32616000D01*
G75*
G02*
X38291000Y32466000I-150000J0D01*
G01*
X36541000Y32466000D01*
G75*
G02*
X36391000Y32616000I0J150000D01*
G01*
G37*
%TD*%
D10*
%TO.C,J1*%
X27600800Y40305200D03*
X27600800Y40955200D03*
X27600800Y41605200D03*
X27600800Y42255200D03*
X27600800Y42905200D03*
%TD*%
%TO.C,R14*%
G36*
G01*
X26584900Y7957000D02*
X27059900Y7957000D01*
G75*
G02*
X27297400Y7719500I0J-237500D01*
G01*
X27297400Y7219500D01*
G75*
G02*
X27059900Y6982000I-237500J0D01*
G01*
X26584900Y6982000D01*
G75*
G02*
X26347400Y7219500I0J237500D01*
G01*
X26347400Y7719500D01*
G75*
G02*
X26584900Y7957000I237500J0D01*
G01*
G37*
G36*
G01*
X26584900Y9782000D02*
X27059900Y9782000D01*
G75*
G02*
X27297400Y9544500I0J-237500D01*
G01*
X27297400Y9044500D01*
G75*
G02*
X27059900Y8807000I-237500J0D01*
G01*
X26584900Y8807000D01*
G75*
G02*
X26347400Y9044500I0J237500D01*
G01*
X26347400Y9544500D01*
G75*
G02*
X26584900Y9782000I237500J0D01*
G01*
G37*
%TD*%
%TO.C,D4*%
G36*
G01*
X36319000Y19447500D02*
X36319000Y19922500D01*
G75*
G02*
X36556500Y20160000I237500J0D01*
G01*
X37131500Y20160000D01*
G75*
G02*
X37369000Y19922500I0J-237500D01*
G01*
X37369000Y19447500D01*
G75*
G02*
X37131500Y19210000I-237500J0D01*
G01*
X36556500Y19210000D01*
G75*
G02*
X36319000Y19447500I0J237500D01*
G01*
G37*
G36*
G01*
X38069000Y19447500D02*
X38069000Y19922500D01*
G75*
G02*
X38306500Y20160000I237500J0D01*
G01*
X38881500Y20160000D01*
G75*
G02*
X39119000Y19922500I0J-237500D01*
G01*
X39119000Y19447500D01*
G75*
G02*
X38881500Y19210000I-237500J0D01*
G01*
X38306500Y19210000D01*
G75*
G02*
X38069000Y19447500I0J237500D01*
G01*
G37*
%TD*%
%TO.C,C1*%
G36*
G01*
X24349700Y11052000D02*
X24824700Y11052000D01*
G75*
G02*
X25062200Y10814500I0J-237500D01*
G01*
X25062200Y10214500D01*
G75*
G02*
X24824700Y9977000I-237500J0D01*
G01*
X24349700Y9977000D01*
G75*
G02*
X24112200Y10214500I0J237500D01*
G01*
X24112200Y10814500D01*
G75*
G02*
X24349700Y11052000I237500J0D01*
G01*
G37*
G36*
G01*
X24349700Y9327000D02*
X24824700Y9327000D01*
G75*
G02*
X25062200Y9089500I0J-237500D01*
G01*
X25062200Y8489500D01*
G75*
G02*
X24824700Y8252000I-237500J0D01*
G01*
X24349700Y8252000D01*
G75*
G02*
X24112200Y8489500I0J237500D01*
G01*
X24112200Y9089500D01*
G75*
G02*
X24349700Y9327000I237500J0D01*
G01*
G37*
%TD*%
%TO.C,C3*%
G36*
G01*
X32241500Y36012000D02*
X31766500Y36012000D01*
G75*
G02*
X31529000Y36249500I0J237500D01*
G01*
X31529000Y36849500D01*
G75*
G02*
X31766500Y37087000I237500J0D01*
G01*
X32241500Y37087000D01*
G75*
G02*
X32479000Y36849500I0J-237500D01*
G01*
X32479000Y36249500D01*
G75*
G02*
X32241500Y36012000I-237500J0D01*
G01*
G37*
G36*
G01*
X32241500Y34287000D02*
X31766500Y34287000D01*
G75*
G02*
X31529000Y34524500I0J237500D01*
G01*
X31529000Y35124500D01*
G75*
G02*
X31766500Y35362000I237500J0D01*
G01*
X32241500Y35362000D01*
G75*
G02*
X32479000Y35124500I0J-237500D01*
G01*
X32479000Y34524500D01*
G75*
G02*
X32241500Y34287000I-237500J0D01*
G01*
G37*
%TD*%
%TO.C,C4*%
G36*
G01*
X34654500Y34287000D02*
X34179500Y34287000D01*
G75*
G02*
X33942000Y34524500I0J237500D01*
G01*
X33942000Y35124500D01*
G75*
G02*
X34179500Y35362000I237500J0D01*
G01*
X34654500Y35362000D01*
G75*
G02*
X34892000Y35124500I0J-237500D01*
G01*
X34892000Y34524500D01*
G75*
G02*
X34654500Y34287000I-237500J0D01*
G01*
G37*
G36*
G01*
X34654500Y36012000D02*
X34179500Y36012000D01*
G75*
G02*
X33942000Y36249500I0J237500D01*
G01*
X33942000Y36849500D01*
G75*
G02*
X34179500Y37087000I237500J0D01*
G01*
X34654500Y37087000D01*
G75*
G02*
X34892000Y36849500I0J-237500D01*
G01*
X34892000Y36249500D01*
G75*
G02*
X34654500Y36012000I-237500J0D01*
G01*
G37*
%TD*%
%TO.C,D1*%
G36*
G01*
X52307500Y13558000D02*
X51832500Y13558000D01*
G75*
G02*
X51595000Y13795500I0J237500D01*
G01*
X51595000Y14370500D01*
G75*
G02*
X51832500Y14608000I237500J0D01*
G01*
X52307500Y14608000D01*
G75*
G02*
X52545000Y14370500I0J-237500D01*
G01*
X52545000Y13795500D01*
G75*
G02*
X52307500Y13558000I-237500J0D01*
G01*
G37*
G36*
G01*
X52307500Y11808000D02*
X51832500Y11808000D01*
G75*
G02*
X51595000Y12045500I0J237500D01*
G01*
X51595000Y12620500D01*
G75*
G02*
X51832500Y12858000I237500J0D01*
G01*
X52307500Y12858000D01*
G75*
G02*
X52545000Y12620500I0J-237500D01*
G01*
X52545000Y12045500D01*
G75*
G02*
X52307500Y11808000I-237500J0D01*
G01*
G37*
%TD*%
%TO.C,D2*%
G36*
G01*
X38718500Y13798000D02*
X38243500Y13798000D01*
G75*
G02*
X38006000Y14035500I0J237500D01*
G01*
X38006000Y14610500D01*
G75*
G02*
X38243500Y14848000I237500J0D01*
G01*
X38718500Y14848000D01*
G75*
G02*
X38956000Y14610500I0J-237500D01*
G01*
X38956000Y14035500D01*
G75*
G02*
X38718500Y13798000I-237500J0D01*
G01*
G37*
G36*
G01*
X38718500Y12048000D02*
X38243500Y12048000D01*
G75*
G02*
X38006000Y12285500I0J237500D01*
G01*
X38006000Y12860500D01*
G75*
G02*
X38243500Y13098000I237500J0D01*
G01*
X38718500Y13098000D01*
G75*
G02*
X38956000Y12860500I0J-237500D01*
G01*
X38956000Y12285500D01*
G75*
G02*
X38718500Y12048000I-237500J0D01*
G01*
G37*
%TD*%
%TO.C,D3*%
G36*
G01*
X52434500Y22095000D02*
X51959500Y22095000D01*
G75*
G02*
X51722000Y22332500I0J237500D01*
G01*
X51722000Y22907500D01*
G75*
G02*
X51959500Y23145000I237500J0D01*
G01*
X52434500Y23145000D01*
G75*
G02*
X52672000Y22907500I0J-237500D01*
G01*
X52672000Y22332500D01*
G75*
G02*
X52434500Y22095000I-237500J0D01*
G01*
G37*
G36*
G01*
X52434500Y23845000D02*
X51959500Y23845000D01*
G75*
G02*
X51722000Y24082500I0J237500D01*
G01*
X51722000Y24657500D01*
G75*
G02*
X51959500Y24895000I237500J0D01*
G01*
X52434500Y24895000D01*
G75*
G02*
X52672000Y24657500I0J-237500D01*
G01*
X52672000Y24082500D01*
G75*
G02*
X52434500Y23845000I-237500J0D01*
G01*
G37*
%TD*%
%TO.C,D5*%
G36*
G01*
X52561500Y35275000D02*
X52086500Y35275000D01*
G75*
G02*
X51849000Y35512500I0J237500D01*
G01*
X51849000Y36087500D01*
G75*
G02*
X52086500Y36325000I237500J0D01*
G01*
X52561500Y36325000D01*
G75*
G02*
X52799000Y36087500I0J-237500D01*
G01*
X52799000Y35512500D01*
G75*
G02*
X52561500Y35275000I-237500J0D01*
G01*
G37*
G36*
G01*
X52561500Y33525000D02*
X52086500Y33525000D01*
G75*
G02*
X51849000Y33762500I0J237500D01*
G01*
X51849000Y34337500D01*
G75*
G02*
X52086500Y34575000I237500J0D01*
G01*
X52561500Y34575000D01*
G75*
G02*
X52799000Y34337500I0J-237500D01*
G01*
X52799000Y33762500D01*
G75*
G02*
X52561500Y33525000I-237500J0D01*
G01*
G37*
%TD*%
%TO.C,D6*%
G36*
G01*
X38069000Y35068500D02*
X38069000Y35543500D01*
G75*
G02*
X38306500Y35781000I237500J0D01*
G01*
X38881500Y35781000D01*
G75*
G02*
X39119000Y35543500I0J-237500D01*
G01*
X39119000Y35068500D01*
G75*
G02*
X38881500Y34831000I-237500J0D01*
G01*
X38306500Y34831000D01*
G75*
G02*
X38069000Y35068500I0J237500D01*
G01*
G37*
G36*
G01*
X36319000Y35068500D02*
X36319000Y35543500D01*
G75*
G02*
X36556500Y35781000I237500J0D01*
G01*
X37131500Y35781000D01*
G75*
G02*
X37369000Y35543500I0J-237500D01*
G01*
X37369000Y35068500D01*
G75*
G02*
X37131500Y34831000I-237500J0D01*
G01*
X36556500Y34831000D01*
G75*
G02*
X36319000Y35068500I0J237500D01*
G01*
G37*
%TD*%
%TO.C,D7*%
G36*
G01*
X52688500Y43685000D02*
X52213500Y43685000D01*
G75*
G02*
X51976000Y43922500I0J237500D01*
G01*
X51976000Y44497500D01*
G75*
G02*
X52213500Y44735000I237500J0D01*
G01*
X52688500Y44735000D01*
G75*
G02*
X52926000Y44497500I0J-237500D01*
G01*
X52926000Y43922500D01*
G75*
G02*
X52688500Y43685000I-237500J0D01*
G01*
G37*
G36*
G01*
X52688500Y45435000D02*
X52213500Y45435000D01*
G75*
G02*
X51976000Y45672500I0J237500D01*
G01*
X51976000Y46247500D01*
G75*
G02*
X52213500Y46485000I237500J0D01*
G01*
X52688500Y46485000D01*
G75*
G02*
X52926000Y46247500I0J-237500D01*
G01*
X52926000Y45672500D01*
G75*
G02*
X52688500Y45435000I-237500J0D01*
G01*
G37*
%TD*%
%TO.C,D8*%
G36*
G01*
X38718500Y43812000D02*
X38243500Y43812000D01*
G75*
G02*
X38006000Y44049500I0J237500D01*
G01*
X38006000Y44624500D01*
G75*
G02*
X38243500Y44862000I237500J0D01*
G01*
X38718500Y44862000D01*
G75*
G02*
X38956000Y44624500I0J-237500D01*
G01*
X38956000Y44049500D01*
G75*
G02*
X38718500Y43812000I-237500J0D01*
G01*
G37*
G36*
G01*
X38718500Y45562000D02*
X38243500Y45562000D01*
G75*
G02*
X38006000Y45799500I0J237500D01*
G01*
X38006000Y46374500D01*
G75*
G02*
X38243500Y46612000I237500J0D01*
G01*
X38718500Y46612000D01*
G75*
G02*
X38956000Y46374500I0J-237500D01*
G01*
X38956000Y45799500D01*
G75*
G02*
X38718500Y45562000I-237500J0D01*
G01*
G37*
%TD*%
%TO.C,D9*%
G36*
G01*
X34408100Y11661600D02*
X34883100Y11661600D01*
G75*
G02*
X35120600Y11424100I0J-237500D01*
G01*
X35120600Y10849100D01*
G75*
G02*
X34883100Y10611600I-237500J0D01*
G01*
X34408100Y10611600D01*
G75*
G02*
X34170600Y10849100I0J237500D01*
G01*
X34170600Y11424100D01*
G75*
G02*
X34408100Y11661600I237500J0D01*
G01*
G37*
G36*
G01*
X34408100Y9911600D02*
X34883100Y9911600D01*
G75*
G02*
X35120600Y9674100I0J-237500D01*
G01*
X35120600Y9099100D01*
G75*
G02*
X34883100Y8861600I-237500J0D01*
G01*
X34408100Y8861600D01*
G75*
G02*
X34170600Y9099100I0J237500D01*
G01*
X34170600Y9674100D01*
G75*
G02*
X34408100Y9911600I237500J0D01*
G01*
G37*
%TD*%
%TO.C,R1*%
G36*
G01*
X25942300Y30752600D02*
X25467300Y30752600D01*
G75*
G02*
X25229800Y30990100I0J237500D01*
G01*
X25229800Y31490100D01*
G75*
G02*
X25467300Y31727600I237500J0D01*
G01*
X25942300Y31727600D01*
G75*
G02*
X26179800Y31490100I0J-237500D01*
G01*
X26179800Y30990100D01*
G75*
G02*
X25942300Y30752600I-237500J0D01*
G01*
G37*
G36*
G01*
X25942300Y28927600D02*
X25467300Y28927600D01*
G75*
G02*
X25229800Y29165100I0J237500D01*
G01*
X25229800Y29665100D01*
G75*
G02*
X25467300Y29902600I237500J0D01*
G01*
X25942300Y29902600D01*
G75*
G02*
X26179800Y29665100I0J-237500D01*
G01*
X26179800Y29165100D01*
G75*
G02*
X25942300Y28927600I-237500J0D01*
G01*
G37*
%TD*%
%TO.C,R2*%
G36*
G01*
X25467300Y26397400D02*
X25942300Y26397400D01*
G75*
G02*
X26179800Y26159900I0J-237500D01*
G01*
X26179800Y25659900D01*
G75*
G02*
X25942300Y25422400I-237500J0D01*
G01*
X25467300Y25422400D01*
G75*
G02*
X25229800Y25659900I0J237500D01*
G01*
X25229800Y26159900D01*
G75*
G02*
X25467300Y26397400I237500J0D01*
G01*
G37*
G36*
G01*
X25467300Y28222400D02*
X25942300Y28222400D01*
G75*
G02*
X26179800Y27984900I0J-237500D01*
G01*
X26179800Y27484900D01*
G75*
G02*
X25942300Y27247400I-237500J0D01*
G01*
X25467300Y27247400D01*
G75*
G02*
X25229800Y27484900I0J237500D01*
G01*
X25229800Y27984900D01*
G75*
G02*
X25467300Y28222400I237500J0D01*
G01*
G37*
%TD*%
%TO.C,R3*%
G36*
G01*
X51832500Y9100000D02*
X52307500Y9100000D01*
G75*
G02*
X52545000Y8862500I0J-237500D01*
G01*
X52545000Y8362500D01*
G75*
G02*
X52307500Y8125000I-237500J0D01*
G01*
X51832500Y8125000D01*
G75*
G02*
X51595000Y8362500I0J237500D01*
G01*
X51595000Y8862500D01*
G75*
G02*
X51832500Y9100000I237500J0D01*
G01*
G37*
G36*
G01*
X51832500Y10925000D02*
X52307500Y10925000D01*
G75*
G02*
X52545000Y10687500I0J-237500D01*
G01*
X52545000Y10187500D01*
G75*
G02*
X52307500Y9950000I-237500J0D01*
G01*
X51832500Y9950000D01*
G75*
G02*
X51595000Y10187500I0J237500D01*
G01*
X51595000Y10687500D01*
G75*
G02*
X51832500Y10925000I237500J0D01*
G01*
G37*
%TD*%
%TO.C,R4*%
G36*
G01*
X38243500Y10925000D02*
X38718500Y10925000D01*
G75*
G02*
X38956000Y10687500I0J-237500D01*
G01*
X38956000Y10187500D01*
G75*
G02*
X38718500Y9950000I-237500J0D01*
G01*
X38243500Y9950000D01*
G75*
G02*
X38006000Y10187500I0J237500D01*
G01*
X38006000Y10687500D01*
G75*
G02*
X38243500Y10925000I237500J0D01*
G01*
G37*
G36*
G01*
X38243500Y9100000D02*
X38718500Y9100000D01*
G75*
G02*
X38956000Y8862500I0J-237500D01*
G01*
X38956000Y8362500D01*
G75*
G02*
X38718500Y8125000I-237500J0D01*
G01*
X38243500Y8125000D01*
G75*
G02*
X38006000Y8362500I0J237500D01*
G01*
X38006000Y8862500D01*
G75*
G02*
X38243500Y9100000I237500J0D01*
G01*
G37*
%TD*%
%TO.C,R5*%
G36*
G01*
X51959500Y21085000D02*
X52434500Y21085000D01*
G75*
G02*
X52672000Y20847500I0J-237500D01*
G01*
X52672000Y20347500D01*
G75*
G02*
X52434500Y20110000I-237500J0D01*
G01*
X51959500Y20110000D01*
G75*
G02*
X51722000Y20347500I0J237500D01*
G01*
X51722000Y20847500D01*
G75*
G02*
X51959500Y21085000I237500J0D01*
G01*
G37*
G36*
G01*
X51959500Y19260000D02*
X52434500Y19260000D01*
G75*
G02*
X52672000Y19022500I0J-237500D01*
G01*
X52672000Y18522500D01*
G75*
G02*
X52434500Y18285000I-237500J0D01*
G01*
X51959500Y18285000D01*
G75*
G02*
X51722000Y18522500I0J237500D01*
G01*
X51722000Y19022500D01*
G75*
G02*
X51959500Y19260000I237500J0D01*
G01*
G37*
%TD*%
%TO.C,R6*%
G36*
G01*
X36954000Y17288500D02*
X36954000Y17763500D01*
G75*
G02*
X37191500Y18001000I237500J0D01*
G01*
X37691500Y18001000D01*
G75*
G02*
X37929000Y17763500I0J-237500D01*
G01*
X37929000Y17288500D01*
G75*
G02*
X37691500Y17051000I-237500J0D01*
G01*
X37191500Y17051000D01*
G75*
G02*
X36954000Y17288500I0J237500D01*
G01*
G37*
G36*
G01*
X38779000Y17288500D02*
X38779000Y17763500D01*
G75*
G02*
X39016500Y18001000I237500J0D01*
G01*
X39516500Y18001000D01*
G75*
G02*
X39754000Y17763500I0J-237500D01*
G01*
X39754000Y17288500D01*
G75*
G02*
X39516500Y17051000I-237500J0D01*
G01*
X39016500Y17051000D01*
G75*
G02*
X38779000Y17288500I0J237500D01*
G01*
G37*
%TD*%
%TO.C,R7*%
G36*
G01*
X52086500Y30690000D02*
X52561500Y30690000D01*
G75*
G02*
X52799000Y30452500I0J-237500D01*
G01*
X52799000Y29952500D01*
G75*
G02*
X52561500Y29715000I-237500J0D01*
G01*
X52086500Y29715000D01*
G75*
G02*
X51849000Y29952500I0J237500D01*
G01*
X51849000Y30452500D01*
G75*
G02*
X52086500Y30690000I237500J0D01*
G01*
G37*
G36*
G01*
X52086500Y32515000D02*
X52561500Y32515000D01*
G75*
G02*
X52799000Y32277500I0J-237500D01*
G01*
X52799000Y31777500D01*
G75*
G02*
X52561500Y31540000I-237500J0D01*
G01*
X52086500Y31540000D01*
G75*
G02*
X51849000Y31777500I0J237500D01*
G01*
X51849000Y32277500D01*
G75*
G02*
X52086500Y32515000I237500J0D01*
G01*
G37*
%TD*%
%TO.C,R8*%
G36*
G01*
X39033000Y37100500D02*
X39033000Y37575500D01*
G75*
G02*
X39270500Y37813000I237500J0D01*
G01*
X39770500Y37813000D01*
G75*
G02*
X40008000Y37575500I0J-237500D01*
G01*
X40008000Y37100500D01*
G75*
G02*
X39770500Y36863000I-237500J0D01*
G01*
X39270500Y36863000D01*
G75*
G02*
X39033000Y37100500I0J237500D01*
G01*
G37*
G36*
G01*
X37208000Y37100500D02*
X37208000Y37575500D01*
G75*
G02*
X37445500Y37813000I237500J0D01*
G01*
X37945500Y37813000D01*
G75*
G02*
X38183000Y37575500I0J-237500D01*
G01*
X38183000Y37100500D01*
G75*
G02*
X37945500Y36863000I-237500J0D01*
G01*
X37445500Y36863000D01*
G75*
G02*
X37208000Y37100500I0J237500D01*
G01*
G37*
%TD*%
%TO.C,R9*%
G36*
G01*
X52213500Y42675000D02*
X52688500Y42675000D01*
G75*
G02*
X52926000Y42437500I0J-237500D01*
G01*
X52926000Y41937500D01*
G75*
G02*
X52688500Y41700000I-237500J0D01*
G01*
X52213500Y41700000D01*
G75*
G02*
X51976000Y41937500I0J237500D01*
G01*
X51976000Y42437500D01*
G75*
G02*
X52213500Y42675000I237500J0D01*
G01*
G37*
G36*
G01*
X52213500Y40850000D02*
X52688500Y40850000D01*
G75*
G02*
X52926000Y40612500I0J-237500D01*
G01*
X52926000Y40112500D01*
G75*
G02*
X52688500Y39875000I-237500J0D01*
G01*
X52213500Y39875000D01*
G75*
G02*
X51976000Y40112500I0J237500D01*
G01*
X51976000Y40612500D01*
G75*
G02*
X52213500Y40850000I237500J0D01*
G01*
G37*
%TD*%
%TO.C,R10*%
G36*
G01*
X38243500Y42675000D02*
X38718500Y42675000D01*
G75*
G02*
X38956000Y42437500I0J-237500D01*
G01*
X38956000Y41937500D01*
G75*
G02*
X38718500Y41700000I-237500J0D01*
G01*
X38243500Y41700000D01*
G75*
G02*
X38006000Y41937500I0J237500D01*
G01*
X38006000Y42437500D01*
G75*
G02*
X38243500Y42675000I237500J0D01*
G01*
G37*
G36*
G01*
X38243500Y40850000D02*
X38718500Y40850000D01*
G75*
G02*
X38956000Y40612500I0J-237500D01*
G01*
X38956000Y40112500D01*
G75*
G02*
X38718500Y39875000I-237500J0D01*
G01*
X38243500Y39875000D01*
G75*
G02*
X38006000Y40112500I0J237500D01*
G01*
X38006000Y40612500D01*
G75*
G02*
X38243500Y40850000I237500J0D01*
G01*
G37*
%TD*%
%TO.C,R11*%
G36*
G01*
X34908500Y12570000D02*
X34433500Y12570000D01*
G75*
G02*
X34196000Y12807500I0J237500D01*
G01*
X34196000Y13307500D01*
G75*
G02*
X34433500Y13545000I237500J0D01*
G01*
X34908500Y13545000D01*
G75*
G02*
X35146000Y13307500I0J-237500D01*
G01*
X35146000Y12807500D01*
G75*
G02*
X34908500Y12570000I-237500J0D01*
G01*
G37*
G36*
G01*
X34908500Y14395000D02*
X34433500Y14395000D01*
G75*
G02*
X34196000Y14632500I0J237500D01*
G01*
X34196000Y15132500D01*
G75*
G02*
X34433500Y15370000I237500J0D01*
G01*
X34908500Y15370000D01*
G75*
G02*
X35146000Y15132500I0J-237500D01*
G01*
X35146000Y14632500D01*
G75*
G02*
X34908500Y14395000I-237500J0D01*
G01*
G37*
%TD*%
D11*
%TO.C,U4*%
X32563200Y15138400D03*
D12*
X26263200Y15138400D03*
X26263200Y12838400D03*
X26263200Y17438400D03*
%TD*%
M02*
