%TF.GenerationSoftware,KiCad,Pcbnew,(5.1.9)-1*%
%TF.CreationDate,2021-11-09T16:08:34-06:00*%
%TF.ProjectId,SwitchBoard,53776974-6368-4426-9f61-72642e6b6963,rev?*%
%TF.SameCoordinates,Original*%
%TF.FileFunction,Legend,Top*%
%TF.FilePolarity,Positive*%
%FSLAX46Y46*%
G04 Gerber Fmt 4.6, Leading zero omitted, Abs format (unit mm)*
G04 Created by KiCad (PCBNEW (5.1.9)-1) date 2021-11-09 16:08:34*
%MOMM*%
%LPD*%
G01*
G04 APERTURE LIST*
%ADD10C,0.076200*%
%ADD11C,0.150000*%
%ADD12C,0.120000*%
%ADD13C,0.010000*%
G04 APERTURE END LIST*
D10*
X36755009Y42251085D02*
X36513104Y42081752D01*
X36755009Y41960800D02*
X36247009Y41960800D01*
X36247009Y42154323D01*
X36271200Y42202704D01*
X36295390Y42226895D01*
X36343771Y42251085D01*
X36416342Y42251085D01*
X36464723Y42226895D01*
X36488914Y42202704D01*
X36513104Y42154323D01*
X36513104Y41960800D01*
X36488914Y42468800D02*
X36488914Y42638133D01*
X36755009Y42710704D02*
X36755009Y42468800D01*
X36247009Y42468800D01*
X36247009Y42710704D01*
X36247009Y42855847D02*
X36755009Y43025180D01*
X36247009Y43194514D01*
X36755009Y44016990D02*
X36755009Y43726704D01*
X36755009Y43871847D02*
X36247009Y43871847D01*
X36319580Y43823466D01*
X36367961Y43775085D01*
X36392152Y43726704D01*
X2114247Y47471390D02*
X2114247Y47979390D01*
X2307771Y47979390D01*
X2356152Y47955200D01*
X2380342Y47931009D01*
X2404533Y47882628D01*
X2404533Y47810057D01*
X2380342Y47761676D01*
X2356152Y47737485D01*
X2307771Y47713295D01*
X2114247Y47713295D01*
X2694819Y47761676D02*
X2646438Y47785866D01*
X2622247Y47810057D01*
X2598057Y47858438D01*
X2598057Y47882628D01*
X2622247Y47931009D01*
X2646438Y47955200D01*
X2694819Y47979390D01*
X2791580Y47979390D01*
X2839961Y47955200D01*
X2864152Y47931009D01*
X2888342Y47882628D01*
X2888342Y47858438D01*
X2864152Y47810057D01*
X2839961Y47785866D01*
X2791580Y47761676D01*
X2694819Y47761676D01*
X2646438Y47737485D01*
X2622247Y47713295D01*
X2598057Y47664914D01*
X2598057Y47568152D01*
X2622247Y47519771D01*
X2646438Y47495580D01*
X2694819Y47471390D01*
X2791580Y47471390D01*
X2839961Y47495580D01*
X2864152Y47519771D01*
X2888342Y47568152D01*
X2888342Y47664914D01*
X2864152Y47713295D01*
X2839961Y47737485D01*
X2791580Y47761676D01*
X2063447Y6577390D02*
X2063447Y7085390D01*
X2256971Y7085390D01*
X2305352Y7061200D01*
X2329542Y7037009D01*
X2353733Y6988628D01*
X2353733Y6916057D01*
X2329542Y6867676D01*
X2305352Y6843485D01*
X2256971Y6819295D01*
X2063447Y6819295D01*
X2595638Y6577390D02*
X2692400Y6577390D01*
X2740780Y6601580D01*
X2764971Y6625771D01*
X2813352Y6698342D01*
X2837542Y6795104D01*
X2837542Y6988628D01*
X2813352Y7037009D01*
X2789161Y7061200D01*
X2740780Y7085390D01*
X2644019Y7085390D01*
X2595638Y7061200D01*
X2571447Y7037009D01*
X2547257Y6988628D01*
X2547257Y6867676D01*
X2571447Y6819295D01*
X2595638Y6795104D01*
X2644019Y6770914D01*
X2740780Y6770914D01*
X2789161Y6795104D01*
X2813352Y6819295D01*
X2837542Y6867676D01*
X62034057Y1886857D02*
X62034057Y1548190D01*
X61913104Y2080380D02*
X61792152Y1717523D01*
X62106628Y1717523D01*
X62542057Y2056190D02*
X62300152Y2056190D01*
X62275961Y1814285D01*
X62300152Y1838476D01*
X62348533Y1862666D01*
X62469485Y1862666D01*
X62517866Y1838476D01*
X62542057Y1814285D01*
X62566247Y1765904D01*
X62566247Y1644952D01*
X62542057Y1596571D01*
X62517866Y1572380D01*
X62469485Y1548190D01*
X62348533Y1548190D01*
X62300152Y1572380D01*
X62275961Y1596571D01*
X62034057Y4630057D02*
X62034057Y4291390D01*
X61913104Y4823580D02*
X61792152Y4460723D01*
X62106628Y4460723D01*
X62517866Y4799390D02*
X62421104Y4799390D01*
X62372723Y4775200D01*
X62348533Y4751009D01*
X62300152Y4678438D01*
X62275961Y4581676D01*
X62275961Y4388152D01*
X62300152Y4339771D01*
X62324342Y4315580D01*
X62372723Y4291390D01*
X62469485Y4291390D01*
X62517866Y4315580D01*
X62542057Y4339771D01*
X62566247Y4388152D01*
X62566247Y4509104D01*
X62542057Y4557485D01*
X62517866Y4581676D01*
X62469485Y4605866D01*
X62372723Y4605866D01*
X62324342Y4581676D01*
X62300152Y4557485D01*
X62275961Y4509104D01*
X1567542Y1598990D02*
X1277257Y1598990D01*
X1422400Y1598990D02*
X1422400Y2106990D01*
X1374019Y2034419D01*
X1325638Y1986038D01*
X1277257Y1961847D01*
X1277257Y4700209D02*
X1301447Y4724400D01*
X1349828Y4748590D01*
X1470780Y4748590D01*
X1519161Y4724400D01*
X1543352Y4700209D01*
X1567542Y4651828D01*
X1567542Y4603447D01*
X1543352Y4530876D01*
X1253066Y4240590D01*
X1567542Y4240590D01*
X62135657Y50299257D02*
X62135657Y49960590D01*
X62014704Y50492780D02*
X61893752Y50129923D01*
X62208228Y50129923D01*
X62643657Y50468590D02*
X62401752Y50468590D01*
X62377561Y50226685D01*
X62401752Y50250876D01*
X62450133Y50275066D01*
X62571085Y50275066D01*
X62619466Y50250876D01*
X62643657Y50226685D01*
X62667847Y50178304D01*
X62667847Y50057352D01*
X62643657Y50008971D01*
X62619466Y49984780D01*
X62571085Y49960590D01*
X62450133Y49960590D01*
X62401752Y49984780D01*
X62377561Y50008971D01*
X62135657Y52839257D02*
X62135657Y52500590D01*
X62014704Y53032780D02*
X61893752Y52669923D01*
X62208228Y52669923D01*
X62619466Y53008590D02*
X62522704Y53008590D01*
X62474323Y52984400D01*
X62450133Y52960209D01*
X62401752Y52887638D01*
X62377561Y52790876D01*
X62377561Y52597352D01*
X62401752Y52548971D01*
X62425942Y52524780D01*
X62474323Y52500590D01*
X62571085Y52500590D01*
X62619466Y52524780D01*
X62643657Y52548971D01*
X62667847Y52597352D01*
X62667847Y52718304D01*
X62643657Y52766685D01*
X62619466Y52790876D01*
X62571085Y52815066D01*
X62474323Y52815066D01*
X62425942Y52790876D01*
X62401752Y52766685D01*
X62377561Y52718304D01*
X1378857Y52960209D02*
X1403047Y52984400D01*
X1451428Y53008590D01*
X1572380Y53008590D01*
X1620761Y52984400D01*
X1644952Y52960209D01*
X1669142Y52911828D01*
X1669142Y52863447D01*
X1644952Y52790876D01*
X1354666Y52500590D01*
X1669142Y52500590D01*
X1669142Y49401790D02*
X1378857Y49401790D01*
X1524000Y49401790D02*
X1524000Y49909790D01*
X1475619Y49837219D01*
X1427238Y49788838D01*
X1378857Y49764647D01*
D11*
X33617495Y39038590D02*
X33617495Y39580457D01*
X34430295Y39038590D01*
X34430295Y39580457D01*
X34430295Y39890095D02*
X33888428Y39890095D01*
X33617495Y39890095D02*
X33656200Y39851390D01*
X33694904Y39890095D01*
X33656200Y39928800D01*
X33617495Y39890095D01*
X33694904Y39890095D01*
X33888428Y40625485D02*
X34546409Y40625485D01*
X34623819Y40586780D01*
X34662523Y40548076D01*
X34701228Y40470666D01*
X34701228Y40354552D01*
X34662523Y40277142D01*
X34391590Y40625485D02*
X34430295Y40548076D01*
X34430295Y40393257D01*
X34391590Y40315847D01*
X34352885Y40277142D01*
X34275476Y40238438D01*
X34043247Y40238438D01*
X33965838Y40277142D01*
X33927133Y40315847D01*
X33888428Y40393257D01*
X33888428Y40548076D01*
X33927133Y40625485D01*
X34004542Y41283466D02*
X34043247Y41399580D01*
X34081952Y41438285D01*
X34159361Y41476990D01*
X34275476Y41476990D01*
X34352885Y41438285D01*
X34391590Y41399580D01*
X34430295Y41322171D01*
X34430295Y41012533D01*
X33617495Y41012533D01*
X33617495Y41283466D01*
X33656200Y41360876D01*
X33694904Y41399580D01*
X33772314Y41438285D01*
X33849723Y41438285D01*
X33927133Y41399580D01*
X33965838Y41360876D01*
X34004542Y41283466D01*
X34004542Y41012533D01*
X34391590Y42134971D02*
X34430295Y42057561D01*
X34430295Y41902742D01*
X34391590Y41825333D01*
X34314180Y41786628D01*
X34004542Y41786628D01*
X33927133Y41825333D01*
X33888428Y41902742D01*
X33888428Y42057561D01*
X33927133Y42134971D01*
X34004542Y42173676D01*
X34081952Y42173676D01*
X34159361Y41786628D01*
X34391590Y42831657D02*
X34430295Y42754247D01*
X34430295Y42599428D01*
X34391590Y42522019D01*
X34314180Y42483314D01*
X34004542Y42483314D01*
X33927133Y42522019D01*
X33888428Y42599428D01*
X33888428Y42754247D01*
X33927133Y42831657D01*
X34004542Y42870361D01*
X34081952Y42870361D01*
X34159361Y42483314D01*
X34352885Y44302438D02*
X34391590Y44263733D01*
X34430295Y44147619D01*
X34430295Y44070209D01*
X34391590Y43954095D01*
X34314180Y43876685D01*
X34236771Y43837980D01*
X34081952Y43799276D01*
X33965838Y43799276D01*
X33811019Y43837980D01*
X33733609Y43876685D01*
X33656200Y43954095D01*
X33617495Y44070209D01*
X33617495Y44147619D01*
X33656200Y44263733D01*
X33694904Y44302438D01*
X34430295Y44999123D02*
X34004542Y44999123D01*
X33927133Y44960419D01*
X33888428Y44883009D01*
X33888428Y44728190D01*
X33927133Y44650780D01*
X34391590Y44999123D02*
X34430295Y44921714D01*
X34430295Y44728190D01*
X34391590Y44650780D01*
X34314180Y44612076D01*
X34236771Y44612076D01*
X34159361Y44650780D01*
X34120657Y44728190D01*
X34120657Y44921714D01*
X34081952Y44999123D01*
X33888428Y45386171D02*
X34701228Y45386171D01*
X33927133Y45386171D02*
X33888428Y45463580D01*
X33888428Y45618400D01*
X33927133Y45695809D01*
X33965838Y45734514D01*
X34043247Y45773219D01*
X34275476Y45773219D01*
X34352885Y45734514D01*
X34391590Y45695809D01*
X34430295Y45618400D01*
X34430295Y45463580D01*
X34391590Y45386171D01*
X34391590Y46431200D02*
X34430295Y46353790D01*
X34430295Y46198971D01*
X34391590Y46121561D01*
X34314180Y46082857D01*
X34004542Y46082857D01*
X33927133Y46121561D01*
X33888428Y46198971D01*
X33888428Y46353790D01*
X33927133Y46431200D01*
X34004542Y46469904D01*
X34081952Y46469904D01*
X34159361Y46082857D01*
X35760790Y39212761D02*
X35799495Y39328876D01*
X35799495Y39522400D01*
X35760790Y39599809D01*
X35722085Y39638514D01*
X35644676Y39677219D01*
X35567266Y39677219D01*
X35489857Y39638514D01*
X35451152Y39599809D01*
X35412447Y39522400D01*
X35373742Y39367580D01*
X35335038Y39290171D01*
X35296333Y39251466D01*
X35218923Y39212761D01*
X35141514Y39212761D01*
X35064104Y39251466D01*
X35025400Y39290171D01*
X34986695Y39367580D01*
X34986695Y39561104D01*
X35025400Y39677219D01*
X35257628Y39948152D02*
X35799495Y40102971D01*
X35412447Y40257790D01*
X35799495Y40412609D01*
X35257628Y40567428D01*
X35799495Y40877066D02*
X35257628Y40877066D01*
X34986695Y40877066D02*
X35025400Y40838361D01*
X35064104Y40877066D01*
X35025400Y40915771D01*
X34986695Y40877066D01*
X35064104Y40877066D01*
X35257628Y41148000D02*
X35257628Y41457638D01*
X34986695Y41264114D02*
X35683380Y41264114D01*
X35760790Y41302819D01*
X35799495Y41380228D01*
X35799495Y41457638D01*
X35760790Y42076914D02*
X35799495Y41999504D01*
X35799495Y41844685D01*
X35760790Y41767276D01*
X35722085Y41728571D01*
X35644676Y41689866D01*
X35412447Y41689866D01*
X35335038Y41728571D01*
X35296333Y41767276D01*
X35257628Y41844685D01*
X35257628Y41999504D01*
X35296333Y42076914D01*
X35799495Y42425257D02*
X34986695Y42425257D01*
X35799495Y42773600D02*
X35373742Y42773600D01*
X35296333Y42734895D01*
X35257628Y42657485D01*
X35257628Y42541371D01*
X35296333Y42463961D01*
X35335038Y42425257D01*
X35373742Y43431580D02*
X35412447Y43547695D01*
X35451152Y43586400D01*
X35528561Y43625104D01*
X35644676Y43625104D01*
X35722085Y43586400D01*
X35760790Y43547695D01*
X35799495Y43470285D01*
X35799495Y43160647D01*
X34986695Y43160647D01*
X34986695Y43431580D01*
X35025400Y43508990D01*
X35064104Y43547695D01*
X35141514Y43586400D01*
X35218923Y43586400D01*
X35296333Y43547695D01*
X35335038Y43508990D01*
X35373742Y43431580D01*
X35373742Y43160647D01*
X35799495Y44089561D02*
X35760790Y44012152D01*
X35722085Y43973447D01*
X35644676Y43934742D01*
X35412447Y43934742D01*
X35335038Y43973447D01*
X35296333Y44012152D01*
X35257628Y44089561D01*
X35257628Y44205676D01*
X35296333Y44283085D01*
X35335038Y44321790D01*
X35412447Y44360495D01*
X35644676Y44360495D01*
X35722085Y44321790D01*
X35760790Y44283085D01*
X35799495Y44205676D01*
X35799495Y44089561D01*
X35799495Y45057180D02*
X35373742Y45057180D01*
X35296333Y45018476D01*
X35257628Y44941066D01*
X35257628Y44786247D01*
X35296333Y44708838D01*
X35760790Y45057180D02*
X35799495Y44979771D01*
X35799495Y44786247D01*
X35760790Y44708838D01*
X35683380Y44670133D01*
X35605971Y44670133D01*
X35528561Y44708838D01*
X35489857Y44786247D01*
X35489857Y44979771D01*
X35451152Y45057180D01*
X35799495Y45444228D02*
X35257628Y45444228D01*
X35412447Y45444228D02*
X35335038Y45482933D01*
X35296333Y45521638D01*
X35257628Y45599047D01*
X35257628Y45676457D01*
X35799495Y46295733D02*
X34986695Y46295733D01*
X35760790Y46295733D02*
X35799495Y46218323D01*
X35799495Y46063504D01*
X35760790Y45986095D01*
X35722085Y45947390D01*
X35644676Y45908685D01*
X35412447Y45908685D01*
X35335038Y45947390D01*
X35296333Y45986095D01*
X35257628Y46063504D01*
X35257628Y46218323D01*
X35296333Y46295733D01*
D12*
%TO.C,SW7*%
X53920000Y44680000D02*
X53920000Y41680000D01*
X62920000Y44680000D02*
X62920000Y41680000D01*
X62920000Y41680000D02*
X53920000Y41680000D01*
X53920000Y44680000D02*
X62920000Y44680000D01*
%TO.C,SW5*%
X53920000Y34520000D02*
X53920000Y31520000D01*
X62920000Y34520000D02*
X62920000Y31520000D01*
X62920000Y31520000D02*
X53920000Y31520000D01*
X53920000Y34520000D02*
X62920000Y34520000D01*
%TO.C,SW3*%
X53920000Y23090000D02*
X53920000Y20090000D01*
X62920000Y23090000D02*
X62920000Y20090000D01*
X62920000Y20090000D02*
X53920000Y20090000D01*
X53920000Y23090000D02*
X62920000Y23090000D01*
%TO.C,SW1*%
X53920000Y12930000D02*
X53920000Y9930000D01*
X62920000Y12930000D02*
X62920000Y9930000D01*
X62920000Y9930000D02*
X53920000Y9930000D01*
X53920000Y12930000D02*
X62920000Y12930000D01*
%TO.C,SW2*%
X39950000Y12930000D02*
X39950000Y9930000D01*
X48950000Y12930000D02*
X48950000Y9930000D01*
X48950000Y9930000D02*
X39950000Y9930000D01*
X39950000Y12930000D02*
X48950000Y12930000D01*
%TO.C,SW4*%
X39950000Y23090000D02*
X39950000Y20090000D01*
X48950000Y23090000D02*
X48950000Y20090000D01*
X48950000Y20090000D02*
X39950000Y20090000D01*
X39950000Y23090000D02*
X48950000Y23090000D01*
%TO.C,SW6*%
X39950000Y34520000D02*
X39950000Y31520000D01*
X48950000Y34520000D02*
X48950000Y31520000D01*
X48950000Y31520000D02*
X39950000Y31520000D01*
X39950000Y34520000D02*
X48950000Y34520000D01*
%TO.C,SW8*%
X39950000Y44680000D02*
X39950000Y41680000D01*
X48950000Y44680000D02*
X48950000Y41680000D01*
X48950000Y41680000D02*
X39950000Y41680000D01*
X39950000Y44680000D02*
X48950000Y44680000D01*
D13*
%TO.C,G\u002A\u002A\u002A*%
G36*
X29806821Y45890898D02*
G01*
X29809462Y45900520D01*
X29850666Y45992170D01*
X29916680Y46079408D01*
X30000733Y46154562D01*
X30072997Y46199120D01*
X30177170Y46240940D01*
X30296748Y46271528D01*
X30421336Y46289418D01*
X30540536Y46293146D01*
X30643952Y46281248D01*
X30648600Y46280198D01*
X30692515Y46273861D01*
X30718766Y46282146D01*
X30727975Y46291252D01*
X30763997Y46324178D01*
X30821231Y46364430D01*
X30891522Y46407270D01*
X30966712Y46447960D01*
X31038648Y46481760D01*
X31088361Y46500651D01*
X31216123Y46527083D01*
X31343637Y46526426D01*
X31466211Y46500605D01*
X31579148Y46451547D01*
X31677756Y46381177D01*
X31757338Y46291419D01*
X31804081Y46207113D01*
X31837641Y46103410D01*
X31858401Y45985656D01*
X31863969Y45869796D01*
X31861254Y45826037D01*
X31852763Y45764571D01*
X31838927Y45702758D01*
X31817767Y45634818D01*
X31787308Y45554973D01*
X31745571Y45457443D01*
X31702886Y45363133D01*
X31664954Y45278071D01*
X31627929Y45190590D01*
X31596126Y45111148D01*
X31574353Y45051676D01*
X31563397Y45019459D01*
X31553618Y44990055D01*
X31545191Y44961707D01*
X31538297Y44932656D01*
X31533112Y44901146D01*
X31529815Y44865419D01*
X31528584Y44823718D01*
X31529597Y44774286D01*
X31533032Y44715364D01*
X31539067Y44645195D01*
X31547880Y44562023D01*
X31559650Y44464089D01*
X31574554Y44349636D01*
X31592770Y44216907D01*
X31614478Y44064144D01*
X31639853Y43889590D01*
X31669076Y43691488D01*
X31702324Y43468079D01*
X31739774Y43217607D01*
X31781605Y42938313D01*
X31802943Y42795840D01*
X31839420Y42552398D01*
X31874693Y42317359D01*
X31908468Y42092668D01*
X31940448Y41880272D01*
X31970340Y41682115D01*
X31997848Y41500143D01*
X32022678Y41336302D01*
X32044535Y41192537D01*
X32063124Y41070794D01*
X32078151Y40973019D01*
X32089321Y40901156D01*
X32096338Y40857152D01*
X32098789Y40843215D01*
X32125935Y40785612D01*
X32181265Y40714680D01*
X32264360Y40630877D01*
X32374801Y40534656D01*
X32404030Y40510815D01*
X32519372Y40414962D01*
X32611503Y40331615D01*
X32684288Y40256694D01*
X32741590Y40186121D01*
X32787273Y40115816D01*
X32800032Y40092778D01*
X32850443Y39975267D01*
X32883311Y39849088D01*
X32897452Y39722891D01*
X32891677Y39605326D01*
X32876352Y39536578D01*
X32828725Y39435475D01*
X32754417Y39344839D01*
X32657835Y39268680D01*
X32543383Y39211006D01*
X32503089Y39196916D01*
X32429678Y39179011D01*
X32341609Y39165267D01*
X32248331Y39156367D01*
X32159296Y39152999D01*
X32083954Y39155848D01*
X32039173Y39163262D01*
X31997630Y39171742D01*
X31971600Y39165612D01*
X31952526Y39148426D01*
X31912836Y39114125D01*
X31852270Y39072848D01*
X31779384Y39029525D01*
X31702736Y38989085D01*
X31630883Y38956456D01*
X31597600Y38943991D01*
X31529281Y38924293D01*
X31467100Y38915642D01*
X31398927Y38916049D01*
X31398927Y39041473D01*
X31446964Y39042682D01*
X31564034Y39065389D01*
X31686481Y39118609D01*
X31813209Y39201772D01*
X31912531Y39285403D01*
X31971670Y39338748D01*
X32014319Y39373508D01*
X32046514Y39393473D01*
X32074293Y39402433D01*
X32101746Y39404208D01*
X32156516Y39397544D01*
X32207164Y39382414D01*
X32208787Y39381685D01*
X32256412Y39359878D01*
X32205565Y39358589D01*
X32150491Y39350837D01*
X32104943Y39333222D01*
X32077775Y39309877D01*
X32073850Y39297108D01*
X32088339Y39285127D01*
X32127428Y39278742D01*
X32184543Y39277510D01*
X32253114Y39280987D01*
X32326570Y39288728D01*
X32398337Y39300291D01*
X32461846Y39315230D01*
X32492645Y39325396D01*
X32588106Y39373927D01*
X32669240Y39438598D01*
X32728628Y39513048D01*
X32742732Y39539862D01*
X32763332Y39611544D01*
X32771369Y39701353D01*
X32766707Y39798198D01*
X32749207Y39890989D01*
X32747180Y39898137D01*
X32720616Y39975940D01*
X32686960Y40046544D01*
X32642739Y40114220D01*
X32584478Y40183240D01*
X32508704Y40257876D01*
X32411940Y40342400D01*
X32333424Y40406861D01*
X32227513Y40495020D01*
X32144914Y40570367D01*
X32081927Y40636771D01*
X32034851Y40698104D01*
X32002773Y40752667D01*
X31995955Y40776211D01*
X31985236Y40827830D01*
X31970564Y40907846D01*
X31951889Y41016582D01*
X31929158Y41154360D01*
X31902321Y41321500D01*
X31871326Y41518326D01*
X31836121Y41745160D01*
X31796655Y42002322D01*
X31752876Y42290136D01*
X31704734Y42608922D01*
X31681890Y42760855D01*
X31638608Y43049146D01*
X31599823Y43307780D01*
X31565305Y43538498D01*
X31534821Y43743039D01*
X31508140Y43923142D01*
X31485033Y44080547D01*
X31465266Y44216994D01*
X31448608Y44334222D01*
X31434830Y44433970D01*
X31423698Y44517979D01*
X31414983Y44587988D01*
X31408453Y44645737D01*
X31403876Y44692964D01*
X31401021Y44731411D01*
X31399657Y44762815D01*
X31399553Y44788918D01*
X31400478Y44811458D01*
X31402200Y44832175D01*
X31404164Y44850050D01*
X31414847Y44925095D01*
X31429865Y44997248D01*
X31451152Y45072385D01*
X31480639Y45156383D01*
X31520258Y45255116D01*
X31571942Y45374461D01*
X31589688Y45414268D01*
X31641666Y45532533D01*
X31680774Y45627930D01*
X31708514Y45705900D01*
X31726386Y45771885D01*
X31735893Y45831328D01*
X31738535Y45889672D01*
X31736290Y45945673D01*
X31714506Y46077786D01*
X31669528Y46189552D01*
X31602752Y46279594D01*
X31515572Y46346535D01*
X31409384Y46388999D01*
X31285585Y46405609D01*
X31269876Y46405800D01*
X31163025Y46391692D01*
X31046974Y46350415D01*
X30926019Y46283541D01*
X30914160Y46275734D01*
X30817637Y46211278D01*
X30860621Y46166413D01*
X30898499Y46106970D01*
X30916762Y46038313D01*
X30923128Y45990769D01*
X30925354Y45958012D01*
X30924154Y45949313D01*
X30913960Y45958394D01*
X30894338Y45987949D01*
X30880963Y46011065D01*
X30853116Y46053058D01*
X30818873Y46082942D01*
X30767529Y46109292D01*
X30748287Y46117345D01*
X30626390Y46152892D01*
X30495840Y46166402D01*
X30363764Y46158816D01*
X30237291Y46131071D01*
X30123549Y46084109D01*
X30034582Y46023258D01*
X29970299Y45950902D01*
X29931551Y45866740D01*
X29915951Y45765079D01*
X29915387Y45739050D01*
X29923513Y45617784D01*
X29949874Y45506015D01*
X29996849Y45399068D01*
X30066820Y45292270D01*
X30162165Y45180947D01*
X30238768Y45104050D01*
X30351198Y44995854D01*
X30442766Y44906691D01*
X30515880Y44833991D01*
X30572945Y44775184D01*
X30616371Y44727702D01*
X30648563Y44688975D01*
X30671929Y44656434D01*
X30688875Y44627510D01*
X30693064Y44619160D01*
X30699421Y44603182D01*
X30706600Y44579107D01*
X30714863Y44545339D01*
X30724475Y44500278D01*
X30735697Y44442326D01*
X30748795Y44369884D01*
X30764030Y44281354D01*
X30781665Y44175137D01*
X30801965Y44049635D01*
X30825192Y43903249D01*
X30851609Y43734380D01*
X30881480Y43541431D01*
X30915068Y43322801D01*
X30952635Y43076894D01*
X30994445Y42802110D01*
X31020854Y42628140D01*
X31057811Y42383760D01*
X31093411Y42146879D01*
X31127358Y41919527D01*
X31159361Y41703736D01*
X31189124Y41501537D01*
X31216354Y41314960D01*
X31240758Y41146038D01*
X31262040Y40996801D01*
X31279909Y40869280D01*
X31294069Y40765507D01*
X31304227Y40687512D01*
X31310089Y40637327D01*
X31311491Y40619043D01*
X31306191Y40536452D01*
X31288731Y40447261D01*
X31257683Y40347186D01*
X31211615Y40231942D01*
X31149098Y40097246D01*
X31113382Y40025520D01*
X31056413Y39911099D01*
X31013429Y39818877D01*
X30982760Y39743434D01*
X30962738Y39679345D01*
X30951693Y39621190D01*
X30947954Y39563545D01*
X30949853Y39500989D01*
X30950202Y39495563D01*
X30971930Y39365686D01*
X31017448Y39255147D01*
X31084833Y39165701D01*
X31172157Y39099104D01*
X31277497Y39057109D01*
X31398927Y39041473D01*
X31398927Y38916049D01*
X31394514Y38916076D01*
X31372988Y38917362D01*
X31236242Y38940664D01*
X31115913Y38989738D01*
X31013756Y39062191D01*
X30931532Y39155631D01*
X30870997Y39267666D01*
X30833910Y39395903D01*
X30822030Y39537949D01*
X30831094Y39654734D01*
X30839316Y39702388D01*
X30850975Y39748643D01*
X30868259Y39799048D01*
X30893354Y39859151D01*
X30928445Y39934500D01*
X30975721Y40030642D01*
X30992289Y40063737D01*
X31053545Y40187842D01*
X31100775Y40289145D01*
X31135646Y40372445D01*
X31159822Y40442540D01*
X31174970Y40504229D01*
X31182756Y40562312D01*
X31184850Y40618506D01*
X31182500Y40646429D01*
X31175647Y40703690D01*
X31164585Y40788240D01*
X31149608Y40898033D01*
X31131011Y41031021D01*
X31109089Y41185156D01*
X31084135Y41358390D01*
X31056445Y41548676D01*
X31026312Y41753966D01*
X30994031Y41972213D01*
X30959896Y42201368D01*
X30924202Y42439384D01*
X30899384Y42603969D01*
X30853905Y42904327D01*
X30812788Y43174623D01*
X30775810Y43416213D01*
X30742753Y43630453D01*
X30713395Y43818698D01*
X30687516Y43982304D01*
X30664895Y44122627D01*
X30645313Y44241022D01*
X30628548Y44338846D01*
X30614380Y44417455D01*
X30602588Y44478203D01*
X30592953Y44522447D01*
X30585253Y44551543D01*
X30580588Y44564300D01*
X30547393Y44616214D01*
X30489259Y44684096D01*
X30407645Y44766275D01*
X30386212Y44786550D01*
X30262441Y44903512D01*
X30160197Y45002910D01*
X30076919Y45087866D01*
X30010048Y45161504D01*
X29957025Y45226945D01*
X29915289Y45287312D01*
X29882283Y45345729D01*
X29855446Y45405316D01*
X29836091Y45457700D01*
X29807766Y45566865D01*
X29793003Y45682820D01*
X29792467Y45794515D01*
X29806821Y45890898D01*
G37*
X29806821Y45890898D02*
X29809462Y45900520D01*
X29850666Y45992170D01*
X29916680Y46079408D01*
X30000733Y46154562D01*
X30072997Y46199120D01*
X30177170Y46240940D01*
X30296748Y46271528D01*
X30421336Y46289418D01*
X30540536Y46293146D01*
X30643952Y46281248D01*
X30648600Y46280198D01*
X30692515Y46273861D01*
X30718766Y46282146D01*
X30727975Y46291252D01*
X30763997Y46324178D01*
X30821231Y46364430D01*
X30891522Y46407270D01*
X30966712Y46447960D01*
X31038648Y46481760D01*
X31088361Y46500651D01*
X31216123Y46527083D01*
X31343637Y46526426D01*
X31466211Y46500605D01*
X31579148Y46451547D01*
X31677756Y46381177D01*
X31757338Y46291419D01*
X31804081Y46207113D01*
X31837641Y46103410D01*
X31858401Y45985656D01*
X31863969Y45869796D01*
X31861254Y45826037D01*
X31852763Y45764571D01*
X31838927Y45702758D01*
X31817767Y45634818D01*
X31787308Y45554973D01*
X31745571Y45457443D01*
X31702886Y45363133D01*
X31664954Y45278071D01*
X31627929Y45190590D01*
X31596126Y45111148D01*
X31574353Y45051676D01*
X31563397Y45019459D01*
X31553618Y44990055D01*
X31545191Y44961707D01*
X31538297Y44932656D01*
X31533112Y44901146D01*
X31529815Y44865419D01*
X31528584Y44823718D01*
X31529597Y44774286D01*
X31533032Y44715364D01*
X31539067Y44645195D01*
X31547880Y44562023D01*
X31559650Y44464089D01*
X31574554Y44349636D01*
X31592770Y44216907D01*
X31614478Y44064144D01*
X31639853Y43889590D01*
X31669076Y43691488D01*
X31702324Y43468079D01*
X31739774Y43217607D01*
X31781605Y42938313D01*
X31802943Y42795840D01*
X31839420Y42552398D01*
X31874693Y42317359D01*
X31908468Y42092668D01*
X31940448Y41880272D01*
X31970340Y41682115D01*
X31997848Y41500143D01*
X32022678Y41336302D01*
X32044535Y41192537D01*
X32063124Y41070794D01*
X32078151Y40973019D01*
X32089321Y40901156D01*
X32096338Y40857152D01*
X32098789Y40843215D01*
X32125935Y40785612D01*
X32181265Y40714680D01*
X32264360Y40630877D01*
X32374801Y40534656D01*
X32404030Y40510815D01*
X32519372Y40414962D01*
X32611503Y40331615D01*
X32684288Y40256694D01*
X32741590Y40186121D01*
X32787273Y40115816D01*
X32800032Y40092778D01*
X32850443Y39975267D01*
X32883311Y39849088D01*
X32897452Y39722891D01*
X32891677Y39605326D01*
X32876352Y39536578D01*
X32828725Y39435475D01*
X32754417Y39344839D01*
X32657835Y39268680D01*
X32543383Y39211006D01*
X32503089Y39196916D01*
X32429678Y39179011D01*
X32341609Y39165267D01*
X32248331Y39156367D01*
X32159296Y39152999D01*
X32083954Y39155848D01*
X32039173Y39163262D01*
X31997630Y39171742D01*
X31971600Y39165612D01*
X31952526Y39148426D01*
X31912836Y39114125D01*
X31852270Y39072848D01*
X31779384Y39029525D01*
X31702736Y38989085D01*
X31630883Y38956456D01*
X31597600Y38943991D01*
X31529281Y38924293D01*
X31467100Y38915642D01*
X31398927Y38916049D01*
X31398927Y39041473D01*
X31446964Y39042682D01*
X31564034Y39065389D01*
X31686481Y39118609D01*
X31813209Y39201772D01*
X31912531Y39285403D01*
X31971670Y39338748D01*
X32014319Y39373508D01*
X32046514Y39393473D01*
X32074293Y39402433D01*
X32101746Y39404208D01*
X32156516Y39397544D01*
X32207164Y39382414D01*
X32208787Y39381685D01*
X32256412Y39359878D01*
X32205565Y39358589D01*
X32150491Y39350837D01*
X32104943Y39333222D01*
X32077775Y39309877D01*
X32073850Y39297108D01*
X32088339Y39285127D01*
X32127428Y39278742D01*
X32184543Y39277510D01*
X32253114Y39280987D01*
X32326570Y39288728D01*
X32398337Y39300291D01*
X32461846Y39315230D01*
X32492645Y39325396D01*
X32588106Y39373927D01*
X32669240Y39438598D01*
X32728628Y39513048D01*
X32742732Y39539862D01*
X32763332Y39611544D01*
X32771369Y39701353D01*
X32766707Y39798198D01*
X32749207Y39890989D01*
X32747180Y39898137D01*
X32720616Y39975940D01*
X32686960Y40046544D01*
X32642739Y40114220D01*
X32584478Y40183240D01*
X32508704Y40257876D01*
X32411940Y40342400D01*
X32333424Y40406861D01*
X32227513Y40495020D01*
X32144914Y40570367D01*
X32081927Y40636771D01*
X32034851Y40698104D01*
X32002773Y40752667D01*
X31995955Y40776211D01*
X31985236Y40827830D01*
X31970564Y40907846D01*
X31951889Y41016582D01*
X31929158Y41154360D01*
X31902321Y41321500D01*
X31871326Y41518326D01*
X31836121Y41745160D01*
X31796655Y42002322D01*
X31752876Y42290136D01*
X31704734Y42608922D01*
X31681890Y42760855D01*
X31638608Y43049146D01*
X31599823Y43307780D01*
X31565305Y43538498D01*
X31534821Y43743039D01*
X31508140Y43923142D01*
X31485033Y44080547D01*
X31465266Y44216994D01*
X31448608Y44334222D01*
X31434830Y44433970D01*
X31423698Y44517979D01*
X31414983Y44587988D01*
X31408453Y44645737D01*
X31403876Y44692964D01*
X31401021Y44731411D01*
X31399657Y44762815D01*
X31399553Y44788918D01*
X31400478Y44811458D01*
X31402200Y44832175D01*
X31404164Y44850050D01*
X31414847Y44925095D01*
X31429865Y44997248D01*
X31451152Y45072385D01*
X31480639Y45156383D01*
X31520258Y45255116D01*
X31571942Y45374461D01*
X31589688Y45414268D01*
X31641666Y45532533D01*
X31680774Y45627930D01*
X31708514Y45705900D01*
X31726386Y45771885D01*
X31735893Y45831328D01*
X31738535Y45889672D01*
X31736290Y45945673D01*
X31714506Y46077786D01*
X31669528Y46189552D01*
X31602752Y46279594D01*
X31515572Y46346535D01*
X31409384Y46388999D01*
X31285585Y46405609D01*
X31269876Y46405800D01*
X31163025Y46391692D01*
X31046974Y46350415D01*
X30926019Y46283541D01*
X30914160Y46275734D01*
X30817637Y46211278D01*
X30860621Y46166413D01*
X30898499Y46106970D01*
X30916762Y46038313D01*
X30923128Y45990769D01*
X30925354Y45958012D01*
X30924154Y45949313D01*
X30913960Y45958394D01*
X30894338Y45987949D01*
X30880963Y46011065D01*
X30853116Y46053058D01*
X30818873Y46082942D01*
X30767529Y46109292D01*
X30748287Y46117345D01*
X30626390Y46152892D01*
X30495840Y46166402D01*
X30363764Y46158816D01*
X30237291Y46131071D01*
X30123549Y46084109D01*
X30034582Y46023258D01*
X29970299Y45950902D01*
X29931551Y45866740D01*
X29915951Y45765079D01*
X29915387Y45739050D01*
X29923513Y45617784D01*
X29949874Y45506015D01*
X29996849Y45399068D01*
X30066820Y45292270D01*
X30162165Y45180947D01*
X30238768Y45104050D01*
X30351198Y44995854D01*
X30442766Y44906691D01*
X30515880Y44833991D01*
X30572945Y44775184D01*
X30616371Y44727702D01*
X30648563Y44688975D01*
X30671929Y44656434D01*
X30688875Y44627510D01*
X30693064Y44619160D01*
X30699421Y44603182D01*
X30706600Y44579107D01*
X30714863Y44545339D01*
X30724475Y44500278D01*
X30735697Y44442326D01*
X30748795Y44369884D01*
X30764030Y44281354D01*
X30781665Y44175137D01*
X30801965Y44049635D01*
X30825192Y43903249D01*
X30851609Y43734380D01*
X30881480Y43541431D01*
X30915068Y43322801D01*
X30952635Y43076894D01*
X30994445Y42802110D01*
X31020854Y42628140D01*
X31057811Y42383760D01*
X31093411Y42146879D01*
X31127358Y41919527D01*
X31159361Y41703736D01*
X31189124Y41501537D01*
X31216354Y41314960D01*
X31240758Y41146038D01*
X31262040Y40996801D01*
X31279909Y40869280D01*
X31294069Y40765507D01*
X31304227Y40687512D01*
X31310089Y40637327D01*
X31311491Y40619043D01*
X31306191Y40536452D01*
X31288731Y40447261D01*
X31257683Y40347186D01*
X31211615Y40231942D01*
X31149098Y40097246D01*
X31113382Y40025520D01*
X31056413Y39911099D01*
X31013429Y39818877D01*
X30982760Y39743434D01*
X30962738Y39679345D01*
X30951693Y39621190D01*
X30947954Y39563545D01*
X30949853Y39500989D01*
X30950202Y39495563D01*
X30971930Y39365686D01*
X31017448Y39255147D01*
X31084833Y39165701D01*
X31172157Y39099104D01*
X31277497Y39057109D01*
X31398927Y39041473D01*
X31398927Y38916049D01*
X31394514Y38916076D01*
X31372988Y38917362D01*
X31236242Y38940664D01*
X31115913Y38989738D01*
X31013756Y39062191D01*
X30931532Y39155631D01*
X30870997Y39267666D01*
X30833910Y39395903D01*
X30822030Y39537949D01*
X30831094Y39654734D01*
X30839316Y39702388D01*
X30850975Y39748643D01*
X30868259Y39799048D01*
X30893354Y39859151D01*
X30928445Y39934500D01*
X30975721Y40030642D01*
X30992289Y40063737D01*
X31053545Y40187842D01*
X31100775Y40289145D01*
X31135646Y40372445D01*
X31159822Y40442540D01*
X31174970Y40504229D01*
X31182756Y40562312D01*
X31184850Y40618506D01*
X31182500Y40646429D01*
X31175647Y40703690D01*
X31164585Y40788240D01*
X31149608Y40898033D01*
X31131011Y41031021D01*
X31109089Y41185156D01*
X31084135Y41358390D01*
X31056445Y41548676D01*
X31026312Y41753966D01*
X30994031Y41972213D01*
X30959896Y42201368D01*
X30924202Y42439384D01*
X30899384Y42603969D01*
X30853905Y42904327D01*
X30812788Y43174623D01*
X30775810Y43416213D01*
X30742753Y43630453D01*
X30713395Y43818698D01*
X30687516Y43982304D01*
X30664895Y44122627D01*
X30645313Y44241022D01*
X30628548Y44338846D01*
X30614380Y44417455D01*
X30602588Y44478203D01*
X30592953Y44522447D01*
X30585253Y44551543D01*
X30580588Y44564300D01*
X30547393Y44616214D01*
X30489259Y44684096D01*
X30407645Y44766275D01*
X30386212Y44786550D01*
X30262441Y44903512D01*
X30160197Y45002910D01*
X30076919Y45087866D01*
X30010048Y45161504D01*
X29957025Y45226945D01*
X29915289Y45287312D01*
X29882283Y45345729D01*
X29855446Y45405316D01*
X29836091Y45457700D01*
X29807766Y45566865D01*
X29793003Y45682820D01*
X29792467Y45794515D01*
X29806821Y45890898D01*
D12*
%TO.C,R15*%
X26227300Y23521124D02*
X26227300Y23011676D01*
X25182300Y23521124D02*
X25182300Y23011676D01*
%TO.C,C2*%
X33072800Y9696667D02*
X33072800Y9404133D01*
X32052800Y9696667D02*
X32052800Y9404133D01*
%TO.C,U3*%
X2480000Y575000D02*
X2480000Y1905000D01*
X3810000Y575000D02*
X2480000Y575000D01*
X2480000Y3175000D02*
X2480000Y5775000D01*
X5080000Y3175000D02*
X2480000Y3175000D01*
X5080000Y575000D02*
X5080000Y3175000D01*
X2480000Y5775000D02*
X61020000Y5775000D01*
X5080000Y575000D02*
X61020000Y575000D01*
X61020000Y575000D02*
X61020000Y5775000D01*
%TO.C,R12*%
X31154900Y8484324D02*
X31154900Y7974876D01*
X30109900Y8484324D02*
X30109900Y7974876D01*
%TO.C,U2*%
X28906000Y33326000D02*
X27091000Y33326000D01*
X28906000Y33571000D02*
X28906000Y33326000D01*
X32766000Y33571000D02*
X28906000Y33571000D01*
X36626000Y33571000D02*
X36626000Y33326000D01*
X32766000Y33571000D02*
X36626000Y33571000D01*
X28906000Y21801000D02*
X28906000Y22046000D01*
X32766000Y21801000D02*
X28906000Y21801000D01*
X36626000Y21801000D02*
X36626000Y22046000D01*
X32766000Y21801000D02*
X36626000Y21801000D01*
%TO.C,R14*%
X27344900Y8636724D02*
X27344900Y8127276D01*
X26299900Y8636724D02*
X26299900Y8127276D01*
%TO.C,D4*%
X36059000Y18950000D02*
X38519000Y18950000D01*
X36059000Y20420000D02*
X36059000Y18950000D01*
X38519000Y20420000D02*
X36059000Y20420000D01*
%TO.C,U1*%
X2480000Y48835000D02*
X2480000Y50165000D01*
X3810000Y48835000D02*
X2480000Y48835000D01*
X2480000Y51435000D02*
X2480000Y54035000D01*
X5080000Y51435000D02*
X2480000Y51435000D01*
X5080000Y48835000D02*
X5080000Y51435000D01*
X2480000Y54035000D02*
X61020000Y54035000D01*
X5080000Y48835000D02*
X61020000Y48835000D01*
X61020000Y48835000D02*
X61020000Y54035000D01*
%TO.C,C1*%
X24077200Y9798267D02*
X24077200Y9505733D01*
X25097200Y9798267D02*
X25097200Y9505733D01*
%TO.C,C3*%
X31494000Y35540733D02*
X31494000Y35833267D01*
X32514000Y35540733D02*
X32514000Y35833267D01*
%TO.C,C4*%
X34927000Y35540733D02*
X34927000Y35833267D01*
X33907000Y35540733D02*
X33907000Y35833267D01*
%TO.C,D1*%
X51335000Y14008000D02*
X51335000Y11548000D01*
X51335000Y11548000D02*
X52805000Y11548000D01*
X52805000Y11548000D02*
X52805000Y14008000D01*
%TO.C,D2*%
X37746000Y14248000D02*
X37746000Y11788000D01*
X37746000Y11788000D02*
X39216000Y11788000D01*
X39216000Y11788000D02*
X39216000Y14248000D01*
%TO.C,D3*%
X52932000Y21835000D02*
X52932000Y24295000D01*
X51462000Y21835000D02*
X52932000Y21835000D01*
X51462000Y24295000D02*
X51462000Y21835000D01*
%TO.C,D5*%
X51589000Y35725000D02*
X51589000Y33265000D01*
X51589000Y33265000D02*
X53059000Y33265000D01*
X53059000Y33265000D02*
X53059000Y35725000D01*
%TO.C,D6*%
X38519000Y36041000D02*
X36059000Y36041000D01*
X36059000Y36041000D02*
X36059000Y34571000D01*
X36059000Y34571000D02*
X38519000Y34571000D01*
%TO.C,D7*%
X53186000Y43425000D02*
X53186000Y45885000D01*
X51716000Y43425000D02*
X53186000Y43425000D01*
X51716000Y45885000D02*
X51716000Y43425000D01*
%TO.C,D8*%
X39216000Y43552000D02*
X39216000Y46012000D01*
X37746000Y43552000D02*
X39216000Y43552000D01*
X37746000Y46012000D02*
X37746000Y43552000D01*
%TO.C,D9*%
X33910600Y11921600D02*
X33910600Y9461600D01*
X35380600Y11921600D02*
X33910600Y11921600D01*
X35380600Y9461600D02*
X35380600Y11921600D01*
%TO.C,R1*%
X25182300Y30072876D02*
X25182300Y30582324D01*
X26227300Y30072876D02*
X26227300Y30582324D01*
%TO.C,R2*%
X26227300Y27077124D02*
X26227300Y26567676D01*
X25182300Y27077124D02*
X25182300Y26567676D01*
%TO.C,R3*%
X52592500Y9779724D02*
X52592500Y9270276D01*
X51547500Y9779724D02*
X51547500Y9270276D01*
%TO.C,R4*%
X37958500Y9779724D02*
X37958500Y9270276D01*
X39003500Y9779724D02*
X39003500Y9270276D01*
%TO.C,R5*%
X51674500Y19939724D02*
X51674500Y19430276D01*
X52719500Y19939724D02*
X52719500Y19430276D01*
%TO.C,R6*%
X38099276Y17003500D02*
X38608724Y17003500D01*
X38099276Y18048500D02*
X38608724Y18048500D01*
%TO.C,R7*%
X52846500Y31369724D02*
X52846500Y30860276D01*
X51801500Y31369724D02*
X51801500Y30860276D01*
%TO.C,R8*%
X38353276Y37860500D02*
X38862724Y37860500D01*
X38353276Y36815500D02*
X38862724Y36815500D01*
%TO.C,R9*%
X51928500Y41529724D02*
X51928500Y41020276D01*
X52973500Y41529724D02*
X52973500Y41020276D01*
%TO.C,R10*%
X37958500Y41529724D02*
X37958500Y41020276D01*
X39003500Y41529724D02*
X39003500Y41020276D01*
%TO.C,R11*%
X35193500Y13715276D02*
X35193500Y14224724D01*
X34148500Y13715276D02*
X34148500Y14224724D01*
%TO.C,U4*%
X25313200Y18548400D02*
X31323200Y18548400D01*
X27563200Y11728400D02*
X31323200Y11728400D01*
X31323200Y18548400D02*
X31323200Y17288400D01*
X31323200Y11728400D02*
X31323200Y12988400D01*
%TO.C,SW7*%
D10*
X57742666Y42474380D02*
X57815238Y42450190D01*
X57936190Y42450190D01*
X57984571Y42474380D01*
X58008761Y42498571D01*
X58032952Y42546952D01*
X58032952Y42595333D01*
X58008761Y42643714D01*
X57984571Y42667904D01*
X57936190Y42692095D01*
X57839428Y42716285D01*
X57791047Y42740476D01*
X57766857Y42764666D01*
X57742666Y42813047D01*
X57742666Y42861428D01*
X57766857Y42909809D01*
X57791047Y42934000D01*
X57839428Y42958190D01*
X57960380Y42958190D01*
X58032952Y42934000D01*
X58202285Y42958190D02*
X58323238Y42450190D01*
X58420000Y42813047D01*
X58516761Y42450190D01*
X58637714Y42958190D01*
X58782857Y42958190D02*
X59121523Y42958190D01*
X58903809Y42450190D01*
%TO.C,SW5*%
X57742666Y32314380D02*
X57815238Y32290190D01*
X57936190Y32290190D01*
X57984571Y32314380D01*
X58008761Y32338571D01*
X58032952Y32386952D01*
X58032952Y32435333D01*
X58008761Y32483714D01*
X57984571Y32507904D01*
X57936190Y32532095D01*
X57839428Y32556285D01*
X57791047Y32580476D01*
X57766857Y32604666D01*
X57742666Y32653047D01*
X57742666Y32701428D01*
X57766857Y32749809D01*
X57791047Y32774000D01*
X57839428Y32798190D01*
X57960380Y32798190D01*
X58032952Y32774000D01*
X58202285Y32798190D02*
X58323238Y32290190D01*
X58420000Y32653047D01*
X58516761Y32290190D01*
X58637714Y32798190D01*
X59073142Y32798190D02*
X58831238Y32798190D01*
X58807047Y32556285D01*
X58831238Y32580476D01*
X58879619Y32604666D01*
X59000571Y32604666D01*
X59048952Y32580476D01*
X59073142Y32556285D01*
X59097333Y32507904D01*
X59097333Y32386952D01*
X59073142Y32338571D01*
X59048952Y32314380D01*
X59000571Y32290190D01*
X58879619Y32290190D01*
X58831238Y32314380D01*
X58807047Y32338571D01*
%TO.C,SW3*%
X57742666Y20884380D02*
X57815238Y20860190D01*
X57936190Y20860190D01*
X57984571Y20884380D01*
X58008761Y20908571D01*
X58032952Y20956952D01*
X58032952Y21005333D01*
X58008761Y21053714D01*
X57984571Y21077904D01*
X57936190Y21102095D01*
X57839428Y21126285D01*
X57791047Y21150476D01*
X57766857Y21174666D01*
X57742666Y21223047D01*
X57742666Y21271428D01*
X57766857Y21319809D01*
X57791047Y21344000D01*
X57839428Y21368190D01*
X57960380Y21368190D01*
X58032952Y21344000D01*
X58202285Y21368190D02*
X58323238Y20860190D01*
X58420000Y21223047D01*
X58516761Y20860190D01*
X58637714Y21368190D01*
X58782857Y21368190D02*
X59097333Y21368190D01*
X58928000Y21174666D01*
X59000571Y21174666D01*
X59048952Y21150476D01*
X59073142Y21126285D01*
X59097333Y21077904D01*
X59097333Y20956952D01*
X59073142Y20908571D01*
X59048952Y20884380D01*
X59000571Y20860190D01*
X58855428Y20860190D01*
X58807047Y20884380D01*
X58782857Y20908571D01*
%TO.C,SW1*%
X57742666Y10724380D02*
X57815238Y10700190D01*
X57936190Y10700190D01*
X57984571Y10724380D01*
X58008761Y10748571D01*
X58032952Y10796952D01*
X58032952Y10845333D01*
X58008761Y10893714D01*
X57984571Y10917904D01*
X57936190Y10942095D01*
X57839428Y10966285D01*
X57791047Y10990476D01*
X57766857Y11014666D01*
X57742666Y11063047D01*
X57742666Y11111428D01*
X57766857Y11159809D01*
X57791047Y11184000D01*
X57839428Y11208190D01*
X57960380Y11208190D01*
X58032952Y11184000D01*
X58202285Y11208190D02*
X58323238Y10700190D01*
X58420000Y11063047D01*
X58516761Y10700190D01*
X58637714Y11208190D01*
X59097333Y10700190D02*
X58807047Y10700190D01*
X58952190Y10700190D02*
X58952190Y11208190D01*
X58903809Y11135619D01*
X58855428Y11087238D01*
X58807047Y11063047D01*
%TO.C,SW2*%
X43772666Y10724380D02*
X43845238Y10700190D01*
X43966190Y10700190D01*
X44014571Y10724380D01*
X44038761Y10748571D01*
X44062952Y10796952D01*
X44062952Y10845333D01*
X44038761Y10893714D01*
X44014571Y10917904D01*
X43966190Y10942095D01*
X43869428Y10966285D01*
X43821047Y10990476D01*
X43796857Y11014666D01*
X43772666Y11063047D01*
X43772666Y11111428D01*
X43796857Y11159809D01*
X43821047Y11184000D01*
X43869428Y11208190D01*
X43990380Y11208190D01*
X44062952Y11184000D01*
X44232285Y11208190D02*
X44353238Y10700190D01*
X44450000Y11063047D01*
X44546761Y10700190D01*
X44667714Y11208190D01*
X44837047Y11159809D02*
X44861238Y11184000D01*
X44909619Y11208190D01*
X45030571Y11208190D01*
X45078952Y11184000D01*
X45103142Y11159809D01*
X45127333Y11111428D01*
X45127333Y11063047D01*
X45103142Y10990476D01*
X44812857Y10700190D01*
X45127333Y10700190D01*
%TO.C,SW4*%
X43772666Y20884380D02*
X43845238Y20860190D01*
X43966190Y20860190D01*
X44014571Y20884380D01*
X44038761Y20908571D01*
X44062952Y20956952D01*
X44062952Y21005333D01*
X44038761Y21053714D01*
X44014571Y21077904D01*
X43966190Y21102095D01*
X43869428Y21126285D01*
X43821047Y21150476D01*
X43796857Y21174666D01*
X43772666Y21223047D01*
X43772666Y21271428D01*
X43796857Y21319809D01*
X43821047Y21344000D01*
X43869428Y21368190D01*
X43990380Y21368190D01*
X44062952Y21344000D01*
X44232285Y21368190D02*
X44353238Y20860190D01*
X44450000Y21223047D01*
X44546761Y20860190D01*
X44667714Y21368190D01*
X45078952Y21198857D02*
X45078952Y20860190D01*
X44958000Y21392380D02*
X44837047Y21029523D01*
X45151523Y21029523D01*
%TO.C,SW6*%
X43772666Y32314380D02*
X43845238Y32290190D01*
X43966190Y32290190D01*
X44014571Y32314380D01*
X44038761Y32338571D01*
X44062952Y32386952D01*
X44062952Y32435333D01*
X44038761Y32483714D01*
X44014571Y32507904D01*
X43966190Y32532095D01*
X43869428Y32556285D01*
X43821047Y32580476D01*
X43796857Y32604666D01*
X43772666Y32653047D01*
X43772666Y32701428D01*
X43796857Y32749809D01*
X43821047Y32774000D01*
X43869428Y32798190D01*
X43990380Y32798190D01*
X44062952Y32774000D01*
X44232285Y32798190D02*
X44353238Y32290190D01*
X44450000Y32653047D01*
X44546761Y32290190D01*
X44667714Y32798190D01*
X45078952Y32798190D02*
X44982190Y32798190D01*
X44933809Y32774000D01*
X44909619Y32749809D01*
X44861238Y32677238D01*
X44837047Y32580476D01*
X44837047Y32386952D01*
X44861238Y32338571D01*
X44885428Y32314380D01*
X44933809Y32290190D01*
X45030571Y32290190D01*
X45078952Y32314380D01*
X45103142Y32338571D01*
X45127333Y32386952D01*
X45127333Y32507904D01*
X45103142Y32556285D01*
X45078952Y32580476D01*
X45030571Y32604666D01*
X44933809Y32604666D01*
X44885428Y32580476D01*
X44861238Y32556285D01*
X44837047Y32507904D01*
%TO.C,SW8*%
X43772666Y42474380D02*
X43845238Y42450190D01*
X43966190Y42450190D01*
X44014571Y42474380D01*
X44038761Y42498571D01*
X44062952Y42546952D01*
X44062952Y42595333D01*
X44038761Y42643714D01*
X44014571Y42667904D01*
X43966190Y42692095D01*
X43869428Y42716285D01*
X43821047Y42740476D01*
X43796857Y42764666D01*
X43772666Y42813047D01*
X43772666Y42861428D01*
X43796857Y42909809D01*
X43821047Y42934000D01*
X43869428Y42958190D01*
X43990380Y42958190D01*
X44062952Y42934000D01*
X44232285Y42958190D02*
X44353238Y42450190D01*
X44450000Y42813047D01*
X44546761Y42450190D01*
X44667714Y42958190D01*
X44933809Y42740476D02*
X44885428Y42764666D01*
X44861238Y42788857D01*
X44837047Y42837238D01*
X44837047Y42861428D01*
X44861238Y42909809D01*
X44885428Y42934000D01*
X44933809Y42958190D01*
X45030571Y42958190D01*
X45078952Y42934000D01*
X45103142Y42909809D01*
X45127333Y42861428D01*
X45127333Y42837238D01*
X45103142Y42788857D01*
X45078952Y42764666D01*
X45030571Y42740476D01*
X44933809Y42740476D01*
X44885428Y42716285D01*
X44861238Y42692095D01*
X44837047Y42643714D01*
X44837047Y42546952D01*
X44861238Y42498571D01*
X44885428Y42474380D01*
X44933809Y42450190D01*
X45030571Y42450190D01*
X45078952Y42474380D01*
X45103142Y42498571D01*
X45127333Y42546952D01*
X45127333Y42643714D01*
X45103142Y42692095D01*
X45078952Y42716285D01*
X45030571Y42740476D01*
%TO.C,R15*%
X24715409Y22939828D02*
X24473504Y22770495D01*
X24715409Y22649542D02*
X24207409Y22649542D01*
X24207409Y22843066D01*
X24231600Y22891447D01*
X24255790Y22915638D01*
X24304171Y22939828D01*
X24376742Y22939828D01*
X24425123Y22915638D01*
X24449314Y22891447D01*
X24473504Y22843066D01*
X24473504Y22649542D01*
X24715409Y23423638D02*
X24715409Y23133352D01*
X24715409Y23278495D02*
X24207409Y23278495D01*
X24279980Y23230114D01*
X24328361Y23181733D01*
X24352552Y23133352D01*
X24207409Y23883257D02*
X24207409Y23641352D01*
X24449314Y23617161D01*
X24425123Y23641352D01*
X24400933Y23689733D01*
X24400933Y23810685D01*
X24425123Y23859066D01*
X24449314Y23883257D01*
X24497695Y23907447D01*
X24618647Y23907447D01*
X24667028Y23883257D01*
X24691219Y23859066D01*
X24715409Y23810685D01*
X24715409Y23689733D01*
X24691219Y23641352D01*
X24667028Y23617161D01*
%TO.C,C2*%
X31575828Y10532533D02*
X31600019Y10508342D01*
X31624209Y10435771D01*
X31624209Y10387390D01*
X31600019Y10314819D01*
X31551638Y10266438D01*
X31503257Y10242247D01*
X31406495Y10218057D01*
X31333923Y10218057D01*
X31237161Y10242247D01*
X31188780Y10266438D01*
X31140400Y10314819D01*
X31116209Y10387390D01*
X31116209Y10435771D01*
X31140400Y10508342D01*
X31164590Y10532533D01*
X31164590Y10726057D02*
X31140400Y10750247D01*
X31116209Y10798628D01*
X31116209Y10919580D01*
X31140400Y10967961D01*
X31164590Y10992152D01*
X31212971Y11016342D01*
X31261352Y11016342D01*
X31333923Y10992152D01*
X31624209Y10701866D01*
X31624209Y11016342D01*
%TO.C,U3*%
X1201809Y2787952D02*
X1613047Y2787952D01*
X1661428Y2812142D01*
X1685619Y2836333D01*
X1709809Y2884714D01*
X1709809Y2981476D01*
X1685619Y3029857D01*
X1661428Y3054047D01*
X1613047Y3078238D01*
X1201809Y3078238D01*
X1201809Y3271761D02*
X1201809Y3586238D01*
X1395333Y3416904D01*
X1395333Y3489476D01*
X1419523Y3537857D01*
X1443714Y3562047D01*
X1492095Y3586238D01*
X1613047Y3586238D01*
X1661428Y3562047D01*
X1685619Y3537857D01*
X1709809Y3489476D01*
X1709809Y3344333D01*
X1685619Y3295952D01*
X1661428Y3271761D01*
%TO.C,R12*%
X29693809Y7903028D02*
X29451904Y7733695D01*
X29693809Y7612742D02*
X29185809Y7612742D01*
X29185809Y7806266D01*
X29210000Y7854647D01*
X29234190Y7878838D01*
X29282571Y7903028D01*
X29355142Y7903028D01*
X29403523Y7878838D01*
X29427714Y7854647D01*
X29451904Y7806266D01*
X29451904Y7612742D01*
X29693809Y8386838D02*
X29693809Y8096552D01*
X29693809Y8241695D02*
X29185809Y8241695D01*
X29258380Y8193314D01*
X29306761Y8144933D01*
X29330952Y8096552D01*
X29234190Y8580361D02*
X29210000Y8604552D01*
X29185809Y8652933D01*
X29185809Y8773885D01*
X29210000Y8822266D01*
X29234190Y8846457D01*
X29282571Y8870647D01*
X29330952Y8870647D01*
X29403523Y8846457D01*
X29693809Y8556171D01*
X29693809Y8870647D01*
%TO.C,U2*%
X26087009Y32582152D02*
X26498247Y32582152D01*
X26546628Y32606342D01*
X26570819Y32630533D01*
X26595009Y32678914D01*
X26595009Y32775676D01*
X26570819Y32824057D01*
X26546628Y32848247D01*
X26498247Y32872438D01*
X26087009Y32872438D01*
X26135390Y33090152D02*
X26111200Y33114342D01*
X26087009Y33162723D01*
X26087009Y33283676D01*
X26111200Y33332057D01*
X26135390Y33356247D01*
X26183771Y33380438D01*
X26232152Y33380438D01*
X26304723Y33356247D01*
X26595009Y33065961D01*
X26595009Y33380438D01*
%TO.C,J1*%
X25274209Y41537466D02*
X25637066Y41537466D01*
X25709638Y41513276D01*
X25758019Y41464895D01*
X25782209Y41392323D01*
X25782209Y41343942D01*
X25782209Y42045466D02*
X25782209Y41755180D01*
X25782209Y41900323D02*
X25274209Y41900323D01*
X25346780Y41851942D01*
X25395161Y41803561D01*
X25419352Y41755180D01*
%TO.C,R14*%
X25883809Y6887028D02*
X25641904Y6717695D01*
X25883809Y6596742D02*
X25375809Y6596742D01*
X25375809Y6790266D01*
X25400000Y6838647D01*
X25424190Y6862838D01*
X25472571Y6887028D01*
X25545142Y6887028D01*
X25593523Y6862838D01*
X25617714Y6838647D01*
X25641904Y6790266D01*
X25641904Y6596742D01*
X25883809Y7370838D02*
X25883809Y7080552D01*
X25883809Y7225695D02*
X25375809Y7225695D01*
X25448380Y7177314D01*
X25496761Y7128933D01*
X25520952Y7080552D01*
X25545142Y7806266D02*
X25883809Y7806266D01*
X25351619Y7685314D02*
X25714476Y7564361D01*
X25714476Y7878838D01*
%TO.C,D4*%
X35032647Y19378990D02*
X35032647Y19886990D01*
X35153600Y19886990D01*
X35226171Y19862800D01*
X35274552Y19814419D01*
X35298742Y19766038D01*
X35322933Y19669276D01*
X35322933Y19596704D01*
X35298742Y19499942D01*
X35274552Y19451561D01*
X35226171Y19403180D01*
X35153600Y19378990D01*
X35032647Y19378990D01*
X35758361Y19717657D02*
X35758361Y19378990D01*
X35637409Y19911180D02*
X35516457Y19548323D01*
X35830933Y19548323D01*
%TO.C,U1*%
X1201809Y51047952D02*
X1613047Y51047952D01*
X1661428Y51072142D01*
X1685619Y51096333D01*
X1709809Y51144714D01*
X1709809Y51241476D01*
X1685619Y51289857D01*
X1661428Y51314047D01*
X1613047Y51338238D01*
X1201809Y51338238D01*
X1709809Y51846238D02*
X1709809Y51555952D01*
X1709809Y51701095D02*
X1201809Y51701095D01*
X1274380Y51652714D01*
X1322761Y51604333D01*
X1346952Y51555952D01*
%TO.C,C1*%
X23651028Y9567333D02*
X23675219Y9543142D01*
X23699409Y9470571D01*
X23699409Y9422190D01*
X23675219Y9349619D01*
X23626838Y9301238D01*
X23578457Y9277047D01*
X23481695Y9252857D01*
X23409123Y9252857D01*
X23312361Y9277047D01*
X23263980Y9301238D01*
X23215600Y9349619D01*
X23191409Y9422190D01*
X23191409Y9470571D01*
X23215600Y9543142D01*
X23239790Y9567333D01*
X23699409Y10051142D02*
X23699409Y9760857D01*
X23699409Y9906000D02*
X23191409Y9906000D01*
X23263980Y9857619D01*
X23312361Y9809238D01*
X23336552Y9760857D01*
%TO.C,C3*%
X31017028Y35576933D02*
X31041219Y35552742D01*
X31065409Y35480171D01*
X31065409Y35431790D01*
X31041219Y35359219D01*
X30992838Y35310838D01*
X30944457Y35286647D01*
X30847695Y35262457D01*
X30775123Y35262457D01*
X30678361Y35286647D01*
X30629980Y35310838D01*
X30581600Y35359219D01*
X30557409Y35431790D01*
X30557409Y35480171D01*
X30581600Y35552742D01*
X30605790Y35576933D01*
X30557409Y35746266D02*
X30557409Y36060742D01*
X30750933Y35891409D01*
X30750933Y35963980D01*
X30775123Y36012361D01*
X30799314Y36036552D01*
X30847695Y36060742D01*
X30968647Y36060742D01*
X31017028Y36036552D01*
X31041219Y36012361D01*
X31065409Y35963980D01*
X31065409Y35818838D01*
X31041219Y35770457D01*
X31017028Y35746266D01*
%TO.C,C4*%
X33404628Y35602333D02*
X33428819Y35578142D01*
X33453009Y35505571D01*
X33453009Y35457190D01*
X33428819Y35384619D01*
X33380438Y35336238D01*
X33332057Y35312047D01*
X33235295Y35287857D01*
X33162723Y35287857D01*
X33065961Y35312047D01*
X33017580Y35336238D01*
X32969200Y35384619D01*
X32945009Y35457190D01*
X32945009Y35505571D01*
X32969200Y35578142D01*
X32993390Y35602333D01*
X33114342Y36037761D02*
X33453009Y36037761D01*
X32920819Y35916809D02*
X33283676Y35795857D01*
X33283676Y36110333D01*
%TO.C,D1*%
X51080609Y12680647D02*
X50572609Y12680647D01*
X50572609Y12801600D01*
X50596800Y12874171D01*
X50645180Y12922552D01*
X50693561Y12946742D01*
X50790323Y12970933D01*
X50862895Y12970933D01*
X50959657Y12946742D01*
X51008038Y12922552D01*
X51056419Y12874171D01*
X51080609Y12801600D01*
X51080609Y12680647D01*
X51080609Y13454742D02*
X51080609Y13164457D01*
X51080609Y13309600D02*
X50572609Y13309600D01*
X50645180Y13261219D01*
X50693561Y13212838D01*
X50717752Y13164457D01*
%TO.C,D2*%
X37466209Y12934647D02*
X36958209Y12934647D01*
X36958209Y13055600D01*
X36982400Y13128171D01*
X37030780Y13176552D01*
X37079161Y13200742D01*
X37175923Y13224933D01*
X37248495Y13224933D01*
X37345257Y13200742D01*
X37393638Y13176552D01*
X37442019Y13128171D01*
X37466209Y13055600D01*
X37466209Y12934647D01*
X37006590Y13418457D02*
X36982400Y13442647D01*
X36958209Y13491028D01*
X36958209Y13611980D01*
X36982400Y13660361D01*
X37006590Y13684552D01*
X37054971Y13708742D01*
X37103352Y13708742D01*
X37175923Y13684552D01*
X37466209Y13394266D01*
X37466209Y13708742D01*
%TO.C,D3*%
X50996809Y23120047D02*
X50488809Y23120047D01*
X50488809Y23241000D01*
X50513000Y23313571D01*
X50561380Y23361952D01*
X50609761Y23386142D01*
X50706523Y23410333D01*
X50779095Y23410333D01*
X50875857Y23386142D01*
X50924238Y23361952D01*
X50972619Y23313571D01*
X50996809Y23241000D01*
X50996809Y23120047D01*
X50488809Y23579666D02*
X50488809Y23894142D01*
X50682333Y23724809D01*
X50682333Y23797380D01*
X50706523Y23845761D01*
X50730714Y23869952D01*
X50779095Y23894142D01*
X50900047Y23894142D01*
X50948428Y23869952D01*
X50972619Y23845761D01*
X50996809Y23797380D01*
X50996809Y23652238D01*
X50972619Y23603857D01*
X50948428Y23579666D01*
%TO.C,D5*%
X51334609Y34473847D02*
X50826609Y34473847D01*
X50826609Y34594800D01*
X50850800Y34667371D01*
X50899180Y34715752D01*
X50947561Y34739942D01*
X51044323Y34764133D01*
X51116895Y34764133D01*
X51213657Y34739942D01*
X51262038Y34715752D01*
X51310419Y34667371D01*
X51334609Y34594800D01*
X51334609Y34473847D01*
X50826609Y35223752D02*
X50826609Y34981847D01*
X51068514Y34957657D01*
X51044323Y34981847D01*
X51020133Y35030228D01*
X51020133Y35151180D01*
X51044323Y35199561D01*
X51068514Y35223752D01*
X51116895Y35247942D01*
X51237847Y35247942D01*
X51286228Y35223752D01*
X51310419Y35199561D01*
X51334609Y35151180D01*
X51334609Y35030228D01*
X51310419Y34981847D01*
X51286228Y34957657D01*
%TO.C,D6*%
X39604647Y35330190D02*
X39604647Y35838190D01*
X39725600Y35838190D01*
X39798171Y35814000D01*
X39846552Y35765619D01*
X39870742Y35717238D01*
X39894933Y35620476D01*
X39894933Y35547904D01*
X39870742Y35451142D01*
X39846552Y35402761D01*
X39798171Y35354380D01*
X39725600Y35330190D01*
X39604647Y35330190D01*
X40330361Y35838190D02*
X40233600Y35838190D01*
X40185219Y35814000D01*
X40161028Y35789809D01*
X40112647Y35717238D01*
X40088457Y35620476D01*
X40088457Y35426952D01*
X40112647Y35378571D01*
X40136838Y35354380D01*
X40185219Y35330190D01*
X40281980Y35330190D01*
X40330361Y35354380D01*
X40354552Y35378571D01*
X40378742Y35426952D01*
X40378742Y35547904D01*
X40354552Y35596285D01*
X40330361Y35620476D01*
X40281980Y35644666D01*
X40185219Y35644666D01*
X40136838Y35620476D01*
X40112647Y35596285D01*
X40088457Y35547904D01*
%TO.C,D7*%
X51436209Y44684647D02*
X50928209Y44684647D01*
X50928209Y44805600D01*
X50952400Y44878171D01*
X51000780Y44926552D01*
X51049161Y44950742D01*
X51145923Y44974933D01*
X51218495Y44974933D01*
X51315257Y44950742D01*
X51363638Y44926552D01*
X51412019Y44878171D01*
X51436209Y44805600D01*
X51436209Y44684647D01*
X50928209Y45144266D02*
X50928209Y45482933D01*
X51436209Y45265219D01*
%TO.C,D8*%
X37466209Y44786247D02*
X36958209Y44786247D01*
X36958209Y44907200D01*
X36982400Y44979771D01*
X37030780Y45028152D01*
X37079161Y45052342D01*
X37175923Y45076533D01*
X37248495Y45076533D01*
X37345257Y45052342D01*
X37393638Y45028152D01*
X37442019Y44979771D01*
X37466209Y44907200D01*
X37466209Y44786247D01*
X37175923Y45366819D02*
X37151733Y45318438D01*
X37127542Y45294247D01*
X37079161Y45270057D01*
X37054971Y45270057D01*
X37006590Y45294247D01*
X36982400Y45318438D01*
X36958209Y45366819D01*
X36958209Y45463580D01*
X36982400Y45511961D01*
X37006590Y45536152D01*
X37054971Y45560342D01*
X37079161Y45560342D01*
X37127542Y45536152D01*
X37151733Y45511961D01*
X37175923Y45463580D01*
X37175923Y45366819D01*
X37200114Y45318438D01*
X37224304Y45294247D01*
X37272685Y45270057D01*
X37369447Y45270057D01*
X37417828Y45294247D01*
X37442019Y45318438D01*
X37466209Y45366819D01*
X37466209Y45463580D01*
X37442019Y45511961D01*
X37417828Y45536152D01*
X37369447Y45560342D01*
X37272685Y45560342D01*
X37224304Y45536152D01*
X37200114Y45511961D01*
X37175923Y45463580D01*
%TO.C,D9*%
X36305409Y9886647D02*
X35797409Y9886647D01*
X35797409Y10007600D01*
X35821600Y10080171D01*
X35869980Y10128552D01*
X35918361Y10152742D01*
X36015123Y10176933D01*
X36087695Y10176933D01*
X36184457Y10152742D01*
X36232838Y10128552D01*
X36281219Y10080171D01*
X36305409Y10007600D01*
X36305409Y9886647D01*
X36305409Y10418838D02*
X36305409Y10515600D01*
X36281219Y10563980D01*
X36257028Y10588171D01*
X36184457Y10636552D01*
X36087695Y10660742D01*
X35894171Y10660742D01*
X35845790Y10636552D01*
X35821600Y10612361D01*
X35797409Y10563980D01*
X35797409Y10467219D01*
X35821600Y10418838D01*
X35845790Y10394647D01*
X35894171Y10370457D01*
X36015123Y10370457D01*
X36063504Y10394647D01*
X36087695Y10418838D01*
X36111885Y10467219D01*
X36111885Y10563980D01*
X36087695Y10612361D01*
X36063504Y10636552D01*
X36015123Y10660742D01*
%TO.C,R1*%
X24766209Y30268333D02*
X24524304Y30099000D01*
X24766209Y29978047D02*
X24258209Y29978047D01*
X24258209Y30171571D01*
X24282400Y30219952D01*
X24306590Y30244142D01*
X24354971Y30268333D01*
X24427542Y30268333D01*
X24475923Y30244142D01*
X24500114Y30219952D01*
X24524304Y30171571D01*
X24524304Y29978047D01*
X24766209Y30752142D02*
X24766209Y30461857D01*
X24766209Y30607000D02*
X24258209Y30607000D01*
X24330780Y30558619D01*
X24379161Y30510238D01*
X24403352Y30461857D01*
%TO.C,R2*%
X24817009Y26712333D02*
X24575104Y26543000D01*
X24817009Y26422047D02*
X24309009Y26422047D01*
X24309009Y26615571D01*
X24333200Y26663952D01*
X24357390Y26688142D01*
X24405771Y26712333D01*
X24478342Y26712333D01*
X24526723Y26688142D01*
X24550914Y26663952D01*
X24575104Y26615571D01*
X24575104Y26422047D01*
X24357390Y26905857D02*
X24333200Y26930047D01*
X24309009Y26978428D01*
X24309009Y27099380D01*
X24333200Y27147761D01*
X24357390Y27171952D01*
X24405771Y27196142D01*
X24454152Y27196142D01*
X24526723Y27171952D01*
X24817009Y26881666D01*
X24817009Y27196142D01*
%TO.C,R3*%
X51080609Y9516533D02*
X50838704Y9347200D01*
X51080609Y9226247D02*
X50572609Y9226247D01*
X50572609Y9419771D01*
X50596800Y9468152D01*
X50620990Y9492342D01*
X50669371Y9516533D01*
X50741942Y9516533D01*
X50790323Y9492342D01*
X50814514Y9468152D01*
X50838704Y9419771D01*
X50838704Y9226247D01*
X50572609Y9685866D02*
X50572609Y10000342D01*
X50766133Y9831009D01*
X50766133Y9903580D01*
X50790323Y9951961D01*
X50814514Y9976152D01*
X50862895Y10000342D01*
X50983847Y10000342D01*
X51032228Y9976152D01*
X51056419Y9951961D01*
X51080609Y9903580D01*
X51080609Y9758438D01*
X51056419Y9710057D01*
X51032228Y9685866D01*
%TO.C,R4*%
X37567809Y9313333D02*
X37325904Y9144000D01*
X37567809Y9023047D02*
X37059809Y9023047D01*
X37059809Y9216571D01*
X37084000Y9264952D01*
X37108190Y9289142D01*
X37156571Y9313333D01*
X37229142Y9313333D01*
X37277523Y9289142D01*
X37301714Y9264952D01*
X37325904Y9216571D01*
X37325904Y9023047D01*
X37229142Y9748761D02*
X37567809Y9748761D01*
X37035619Y9627809D02*
X37398476Y9506857D01*
X37398476Y9821333D01*
%TO.C,R5*%
X51233009Y19600333D02*
X50991104Y19431000D01*
X51233009Y19310047D02*
X50725009Y19310047D01*
X50725009Y19503571D01*
X50749200Y19551952D01*
X50773390Y19576142D01*
X50821771Y19600333D01*
X50894342Y19600333D01*
X50942723Y19576142D01*
X50966914Y19551952D01*
X50991104Y19503571D01*
X50991104Y19310047D01*
X50725009Y20059952D02*
X50725009Y19818047D01*
X50966914Y19793857D01*
X50942723Y19818047D01*
X50918533Y19866428D01*
X50918533Y19987380D01*
X50942723Y20035761D01*
X50966914Y20059952D01*
X51015295Y20084142D01*
X51136247Y20084142D01*
X51184628Y20059952D01*
X51208819Y20035761D01*
X51233009Y19987380D01*
X51233009Y19866428D01*
X51208819Y19818047D01*
X51184628Y19793857D01*
%TO.C,R6*%
X35983333Y17245390D02*
X35814000Y17487295D01*
X35693047Y17245390D02*
X35693047Y17753390D01*
X35886571Y17753390D01*
X35934952Y17729200D01*
X35959142Y17705009D01*
X35983333Y17656628D01*
X35983333Y17584057D01*
X35959142Y17535676D01*
X35934952Y17511485D01*
X35886571Y17487295D01*
X35693047Y17487295D01*
X36418761Y17753390D02*
X36322000Y17753390D01*
X36273619Y17729200D01*
X36249428Y17705009D01*
X36201047Y17632438D01*
X36176857Y17535676D01*
X36176857Y17342152D01*
X36201047Y17293771D01*
X36225238Y17269580D01*
X36273619Y17245390D01*
X36370380Y17245390D01*
X36418761Y17269580D01*
X36442952Y17293771D01*
X36467142Y17342152D01*
X36467142Y17463104D01*
X36442952Y17511485D01*
X36418761Y17535676D01*
X36370380Y17559866D01*
X36273619Y17559866D01*
X36225238Y17535676D01*
X36201047Y17511485D01*
X36176857Y17463104D01*
%TO.C,R7*%
X51385409Y31106533D02*
X51143504Y30937200D01*
X51385409Y30816247D02*
X50877409Y30816247D01*
X50877409Y31009771D01*
X50901600Y31058152D01*
X50925790Y31082342D01*
X50974171Y31106533D01*
X51046742Y31106533D01*
X51095123Y31082342D01*
X51119314Y31058152D01*
X51143504Y31009771D01*
X51143504Y30816247D01*
X50877409Y31275866D02*
X50877409Y31614533D01*
X51385409Y31396819D01*
%TO.C,R8*%
X38523333Y38276590D02*
X38354000Y38518495D01*
X38233047Y38276590D02*
X38233047Y38784590D01*
X38426571Y38784590D01*
X38474952Y38760400D01*
X38499142Y38736209D01*
X38523333Y38687828D01*
X38523333Y38615257D01*
X38499142Y38566876D01*
X38474952Y38542685D01*
X38426571Y38518495D01*
X38233047Y38518495D01*
X38813619Y38566876D02*
X38765238Y38591066D01*
X38741047Y38615257D01*
X38716857Y38663638D01*
X38716857Y38687828D01*
X38741047Y38736209D01*
X38765238Y38760400D01*
X38813619Y38784590D01*
X38910380Y38784590D01*
X38958761Y38760400D01*
X38982952Y38736209D01*
X39007142Y38687828D01*
X39007142Y38663638D01*
X38982952Y38615257D01*
X38958761Y38591066D01*
X38910380Y38566876D01*
X38813619Y38566876D01*
X38765238Y38542685D01*
X38741047Y38518495D01*
X38716857Y38470114D01*
X38716857Y38373352D01*
X38741047Y38324971D01*
X38765238Y38300780D01*
X38813619Y38276590D01*
X38910380Y38276590D01*
X38958761Y38300780D01*
X38982952Y38324971D01*
X39007142Y38373352D01*
X39007142Y38470114D01*
X38982952Y38518495D01*
X38958761Y38542685D01*
X38910380Y38566876D01*
%TO.C,R9*%
X51487009Y41190333D02*
X51245104Y41021000D01*
X51487009Y40900047D02*
X50979009Y40900047D01*
X50979009Y41093571D01*
X51003200Y41141952D01*
X51027390Y41166142D01*
X51075771Y41190333D01*
X51148342Y41190333D01*
X51196723Y41166142D01*
X51220914Y41141952D01*
X51245104Y41093571D01*
X51245104Y40900047D01*
X51487009Y41432238D02*
X51487009Y41529000D01*
X51462819Y41577380D01*
X51438628Y41601571D01*
X51366057Y41649952D01*
X51269295Y41674142D01*
X51075771Y41674142D01*
X51027390Y41649952D01*
X51003200Y41625761D01*
X50979009Y41577380D01*
X50979009Y41480619D01*
X51003200Y41432238D01*
X51027390Y41408047D01*
X51075771Y41383857D01*
X51196723Y41383857D01*
X51245104Y41408047D01*
X51269295Y41432238D01*
X51293485Y41480619D01*
X51293485Y41577380D01*
X51269295Y41625761D01*
X51245104Y41649952D01*
X51196723Y41674142D01*
%TO.C,R10*%
X37517009Y40872228D02*
X37275104Y40702895D01*
X37517009Y40581942D02*
X37009009Y40581942D01*
X37009009Y40775466D01*
X37033200Y40823847D01*
X37057390Y40848038D01*
X37105771Y40872228D01*
X37178342Y40872228D01*
X37226723Y40848038D01*
X37250914Y40823847D01*
X37275104Y40775466D01*
X37275104Y40581942D01*
X37517009Y41356038D02*
X37517009Y41065752D01*
X37517009Y41210895D02*
X37009009Y41210895D01*
X37081580Y41162514D01*
X37129961Y41114133D01*
X37154152Y41065752D01*
X37009009Y41670514D02*
X37009009Y41718895D01*
X37033200Y41767276D01*
X37057390Y41791466D01*
X37105771Y41815657D01*
X37202533Y41839847D01*
X37323485Y41839847D01*
X37420247Y41815657D01*
X37468628Y41791466D01*
X37492819Y41767276D01*
X37517009Y41718895D01*
X37517009Y41670514D01*
X37492819Y41622133D01*
X37468628Y41597942D01*
X37420247Y41573752D01*
X37323485Y41549561D01*
X37202533Y41549561D01*
X37105771Y41573752D01*
X37057390Y41597942D01*
X37033200Y41622133D01*
X37009009Y41670514D01*
%TO.C,R11*%
X36094609Y13643428D02*
X35852704Y13474095D01*
X36094609Y13353142D02*
X35586609Y13353142D01*
X35586609Y13546666D01*
X35610800Y13595047D01*
X35634990Y13619238D01*
X35683371Y13643428D01*
X35755942Y13643428D01*
X35804323Y13619238D01*
X35828514Y13595047D01*
X35852704Y13546666D01*
X35852704Y13353142D01*
X36094609Y14127238D02*
X36094609Y13836952D01*
X36094609Y13982095D02*
X35586609Y13982095D01*
X35659180Y13933714D01*
X35707561Y13885333D01*
X35731752Y13836952D01*
X36094609Y14611047D02*
X36094609Y14320761D01*
X36094609Y14465904D02*
X35586609Y14465904D01*
X35659180Y14417523D01*
X35707561Y14369142D01*
X35731752Y14320761D01*
%TO.C,U4*%
X24258209Y17799352D02*
X24669447Y17799352D01*
X24717828Y17823542D01*
X24742019Y17847733D01*
X24766209Y17896114D01*
X24766209Y17992876D01*
X24742019Y18041257D01*
X24717828Y18065447D01*
X24669447Y18089638D01*
X24258209Y18089638D01*
X24427542Y18549257D02*
X24766209Y18549257D01*
X24234019Y18428304D02*
X24596876Y18307352D01*
X24596876Y18621828D01*
%TD*%
M02*
