%TF.GenerationSoftware,KiCad,Pcbnew,(5.1.9)-1*%
%TF.CreationDate,2021-11-09T16:08:34-06:00*%
%TF.ProjectId,SwitchBoard,53776974-6368-4426-9f61-72642e6b6963,rev?*%
%TF.SameCoordinates,Original*%
%TF.FileFunction,Legend,Bot*%
%TF.FilePolarity,Positive*%
%FSLAX46Y46*%
G04 Gerber Fmt 4.6, Leading zero omitted, Abs format (unit mm)*
G04 Created by KiCad (PCBNEW (5.1.9)-1) date 2021-11-09 16:08:34*
%MOMM*%
%LPD*%
G01*
G04 APERTURE LIST*
%ADD10C,0.150000*%
G04 APERTURE END LIST*
D10*
X59136038Y44841904D02*
X59136038Y45654704D01*
X58632876Y44841904D02*
X58710285Y44880609D01*
X58748990Y44919314D01*
X58787695Y44996723D01*
X58787695Y45228952D01*
X58748990Y45306361D01*
X58710285Y45345066D01*
X58632876Y45383771D01*
X58516761Y45383771D01*
X58439352Y45345066D01*
X58400647Y45306361D01*
X58361942Y45228952D01*
X58361942Y44996723D01*
X58400647Y44919314D01*
X58439352Y44880609D01*
X58516761Y44841904D01*
X58632876Y44841904D01*
X58091009Y45383771D02*
X57936190Y44841904D01*
X57781371Y45228952D01*
X57626552Y44841904D01*
X57471733Y45383771D01*
X56813752Y44841904D02*
X56813752Y45267657D01*
X56852457Y45345066D01*
X56929866Y45383771D01*
X57084685Y45383771D01*
X57162095Y45345066D01*
X56813752Y44880609D02*
X56891161Y44841904D01*
X57084685Y44841904D01*
X57162095Y44880609D01*
X57200800Y44958019D01*
X57200800Y45035428D01*
X57162095Y45112838D01*
X57084685Y45151542D01*
X56891161Y45151542D01*
X56813752Y45190247D01*
X55846133Y44880609D02*
X55730019Y44841904D01*
X55536495Y44841904D01*
X55459085Y44880609D01*
X55420380Y44919314D01*
X55381676Y44996723D01*
X55381676Y45074133D01*
X55420380Y45151542D01*
X55459085Y45190247D01*
X55536495Y45228952D01*
X55691314Y45267657D01*
X55768723Y45306361D01*
X55807428Y45345066D01*
X55846133Y45422476D01*
X55846133Y45499885D01*
X55807428Y45577295D01*
X55768723Y45616000D01*
X55691314Y45654704D01*
X55497790Y45654704D01*
X55381676Y45616000D01*
X55149447Y45383771D02*
X54839809Y45383771D01*
X55033333Y45654704D02*
X55033333Y44958019D01*
X54994628Y44880609D01*
X54917219Y44841904D01*
X54839809Y44841904D01*
X54220533Y44841904D02*
X54220533Y45267657D01*
X54259238Y45345066D01*
X54336647Y45383771D01*
X54491466Y45383771D01*
X54568876Y45345066D01*
X54220533Y44880609D02*
X54297942Y44841904D01*
X54491466Y44841904D01*
X54568876Y44880609D01*
X54607580Y44958019D01*
X54607580Y45035428D01*
X54568876Y45112838D01*
X54491466Y45151542D01*
X54297942Y45151542D01*
X54220533Y45190247D01*
X53949600Y45383771D02*
X53639961Y45383771D01*
X53833485Y45654704D02*
X53833485Y44958019D01*
X53794780Y44880609D01*
X53717371Y44841904D01*
X53639961Y44841904D01*
X53059390Y44880609D02*
X53136800Y44841904D01*
X53291619Y44841904D01*
X53369028Y44880609D01*
X53407733Y44958019D01*
X53407733Y45267657D01*
X53369028Y45345066D01*
X53291619Y45383771D01*
X53136800Y45383771D01*
X53059390Y45345066D01*
X53020685Y45267657D01*
X53020685Y45190247D01*
X53407733Y45112838D01*
X51588609Y44919314D02*
X51627314Y44880609D01*
X51743428Y44841904D01*
X51820838Y44841904D01*
X51936952Y44880609D01*
X52014361Y44958019D01*
X52053066Y45035428D01*
X52091771Y45190247D01*
X52091771Y45306361D01*
X52053066Y45461180D01*
X52014361Y45538590D01*
X51936952Y45616000D01*
X51820838Y45654704D01*
X51743428Y45654704D01*
X51627314Y45616000D01*
X51588609Y45577295D01*
X51240266Y44841904D02*
X51240266Y45654704D01*
X50930628Y45654704D01*
X50853219Y45616000D01*
X50814514Y45577295D01*
X50775809Y45499885D01*
X50775809Y45383771D01*
X50814514Y45306361D01*
X50853219Y45267657D01*
X50930628Y45228952D01*
X51240266Y45228952D01*
X49963009Y44841904D02*
X50233942Y45228952D01*
X50427466Y44841904D02*
X50427466Y45654704D01*
X50117828Y45654704D01*
X50040419Y45616000D01*
X50001714Y45577295D01*
X49963009Y45499885D01*
X49963009Y45383771D01*
X50001714Y45306361D01*
X50040419Y45267657D01*
X50117828Y45228952D01*
X50427466Y45228952D01*
X48995390Y45267657D02*
X48724457Y45267657D01*
X48608342Y44841904D02*
X48995390Y44841904D01*
X48995390Y45654704D01*
X48608342Y45654704D01*
X47679428Y45693409D02*
X48376114Y44648380D01*
X47408495Y45267657D02*
X47137561Y45267657D01*
X47021447Y44841904D02*
X47408495Y44841904D01*
X47408495Y45654704D01*
X47021447Y45654704D01*
X46673104Y45267657D02*
X46402171Y45267657D01*
X46286057Y44841904D02*
X46673104Y44841904D01*
X46673104Y45654704D01*
X46286057Y45654704D01*
X59581142Y43511409D02*
X59465028Y43472704D01*
X59271504Y43472704D01*
X59194095Y43511409D01*
X59155390Y43550114D01*
X59116685Y43627523D01*
X59116685Y43704933D01*
X59155390Y43782342D01*
X59194095Y43821047D01*
X59271504Y43859752D01*
X59426323Y43898457D01*
X59503733Y43937161D01*
X59542438Y43975866D01*
X59581142Y44053276D01*
X59581142Y44130685D01*
X59542438Y44208095D01*
X59503733Y44246800D01*
X59426323Y44285504D01*
X59232800Y44285504D01*
X59116685Y44246800D01*
X58458704Y43511409D02*
X58536114Y43472704D01*
X58690933Y43472704D01*
X58768342Y43511409D01*
X58807047Y43588819D01*
X58807047Y43898457D01*
X58768342Y43975866D01*
X58690933Y44014571D01*
X58536114Y44014571D01*
X58458704Y43975866D01*
X58420000Y43898457D01*
X58420000Y43821047D01*
X58807047Y43743638D01*
X58071657Y44014571D02*
X58071657Y43472704D01*
X58071657Y43937161D02*
X58032952Y43975866D01*
X57955542Y44014571D01*
X57839428Y44014571D01*
X57762019Y43975866D01*
X57723314Y43898457D01*
X57723314Y43472704D01*
X57336266Y43472704D02*
X57336266Y44014571D01*
X57336266Y44285504D02*
X57374971Y44246800D01*
X57336266Y44208095D01*
X57297561Y44246800D01*
X57336266Y44285504D01*
X57336266Y44208095D01*
X56833104Y43472704D02*
X56910514Y43511409D01*
X56949219Y43550114D01*
X56987923Y43627523D01*
X56987923Y43859752D01*
X56949219Y43937161D01*
X56910514Y43975866D01*
X56833104Y44014571D01*
X56716990Y44014571D01*
X56639580Y43975866D01*
X56600876Y43937161D01*
X56562171Y43859752D01*
X56562171Y43627523D01*
X56600876Y43550114D01*
X56639580Y43511409D01*
X56716990Y43472704D01*
X56833104Y43472704D01*
X56213828Y43472704D02*
X56213828Y44014571D01*
X56213828Y43859752D02*
X56175123Y43937161D01*
X56136419Y43975866D01*
X56059009Y44014571D01*
X55981600Y44014571D01*
X55091390Y43472704D02*
X55091390Y44285504D01*
X54897866Y44285504D01*
X54781752Y44246800D01*
X54704342Y44169390D01*
X54665638Y44091980D01*
X54626933Y43937161D01*
X54626933Y43821047D01*
X54665638Y43666228D01*
X54704342Y43588819D01*
X54781752Y43511409D01*
X54897866Y43472704D01*
X55091390Y43472704D01*
X53968952Y43511409D02*
X54046361Y43472704D01*
X54201180Y43472704D01*
X54278590Y43511409D01*
X54317295Y43588819D01*
X54317295Y43898457D01*
X54278590Y43975866D01*
X54201180Y44014571D01*
X54046361Y44014571D01*
X53968952Y43975866D01*
X53930247Y43898457D01*
X53930247Y43821047D01*
X54317295Y43743638D01*
X53620609Y43511409D02*
X53543200Y43472704D01*
X53388380Y43472704D01*
X53310971Y43511409D01*
X53272266Y43588819D01*
X53272266Y43627523D01*
X53310971Y43704933D01*
X53388380Y43743638D01*
X53504495Y43743638D01*
X53581904Y43782342D01*
X53620609Y43859752D01*
X53620609Y43898457D01*
X53581904Y43975866D01*
X53504495Y44014571D01*
X53388380Y44014571D01*
X53310971Y43975866D01*
X52923923Y43472704D02*
X52923923Y44014571D01*
X52923923Y44285504D02*
X52962628Y44246800D01*
X52923923Y44208095D01*
X52885219Y44246800D01*
X52923923Y44285504D01*
X52923923Y44208095D01*
X52188533Y44014571D02*
X52188533Y43356590D01*
X52227238Y43279180D01*
X52265942Y43240476D01*
X52343352Y43201771D01*
X52459466Y43201771D01*
X52536876Y43240476D01*
X52188533Y43511409D02*
X52265942Y43472704D01*
X52420761Y43472704D01*
X52498171Y43511409D01*
X52536876Y43550114D01*
X52575580Y43627523D01*
X52575580Y43859752D01*
X52536876Y43937161D01*
X52498171Y43975866D01*
X52420761Y44014571D01*
X52265942Y44014571D01*
X52188533Y43975866D01*
X51801485Y44014571D02*
X51801485Y43472704D01*
X51801485Y43937161D02*
X51762780Y43975866D01*
X51685371Y44014571D01*
X51569257Y44014571D01*
X51491847Y43975866D01*
X51453142Y43898457D01*
X51453142Y43472704D01*
X50021066Y44246800D02*
X50098476Y44285504D01*
X50214590Y44285504D01*
X50330704Y44246800D01*
X50408114Y44169390D01*
X50446819Y44091980D01*
X50485523Y43937161D01*
X50485523Y43821047D01*
X50446819Y43666228D01*
X50408114Y43588819D01*
X50330704Y43511409D01*
X50214590Y43472704D01*
X50137180Y43472704D01*
X50021066Y43511409D01*
X49982361Y43550114D01*
X49982361Y43821047D01*
X50137180Y43821047D01*
X49634019Y43472704D02*
X49634019Y44014571D01*
X49634019Y43859752D02*
X49595314Y43937161D01*
X49556609Y43975866D01*
X49479200Y44014571D01*
X49401790Y44014571D01*
X49014742Y43472704D02*
X49092152Y43511409D01*
X49130857Y43550114D01*
X49169561Y43627523D01*
X49169561Y43859752D01*
X49130857Y43937161D01*
X49092152Y43975866D01*
X49014742Y44014571D01*
X48898628Y44014571D01*
X48821219Y43975866D01*
X48782514Y43937161D01*
X48743809Y43859752D01*
X48743809Y43627523D01*
X48782514Y43550114D01*
X48821219Y43511409D01*
X48898628Y43472704D01*
X49014742Y43472704D01*
X48047123Y44014571D02*
X48047123Y43472704D01*
X48395466Y44014571D02*
X48395466Y43588819D01*
X48356761Y43511409D01*
X48279352Y43472704D01*
X48163238Y43472704D01*
X48085828Y43511409D01*
X48047123Y43550114D01*
X47660076Y44014571D02*
X47660076Y43201771D01*
X47660076Y43975866D02*
X47582666Y44014571D01*
X47427847Y44014571D01*
X47350438Y43975866D01*
X47311733Y43937161D01*
X47273028Y43859752D01*
X47273028Y43627523D01*
X47311733Y43550114D01*
X47350438Y43511409D01*
X47427847Y43472704D01*
X47582666Y43472704D01*
X47660076Y43511409D01*
X46382819Y44285504D02*
X45840952Y44285504D01*
X46189295Y43472704D01*
X57355619Y42103504D02*
X57355619Y42916304D01*
X57162095Y42916304D01*
X57045980Y42877600D01*
X56968571Y42800190D01*
X56929866Y42722780D01*
X56891161Y42567961D01*
X56891161Y42451847D01*
X56929866Y42297028D01*
X56968571Y42219619D01*
X57045980Y42142209D01*
X57162095Y42103504D01*
X57355619Y42103504D01*
X56233180Y42142209D02*
X56310590Y42103504D01*
X56465409Y42103504D01*
X56542819Y42142209D01*
X56581523Y42219619D01*
X56581523Y42529257D01*
X56542819Y42606666D01*
X56465409Y42645371D01*
X56310590Y42645371D01*
X56233180Y42606666D01*
X56194476Y42529257D01*
X56194476Y42451847D01*
X56581523Y42374438D01*
X55497790Y42142209D02*
X55575200Y42103504D01*
X55730019Y42103504D01*
X55807428Y42142209D01*
X55846133Y42180914D01*
X55884838Y42258323D01*
X55884838Y42490552D01*
X55846133Y42567961D01*
X55807428Y42606666D01*
X55730019Y42645371D01*
X55575200Y42645371D01*
X55497790Y42606666D01*
X54839809Y42142209D02*
X54917219Y42103504D01*
X55072038Y42103504D01*
X55149447Y42142209D01*
X55188152Y42219619D01*
X55188152Y42529257D01*
X55149447Y42606666D01*
X55072038Y42645371D01*
X54917219Y42645371D01*
X54839809Y42606666D01*
X54801104Y42529257D01*
X54801104Y42451847D01*
X55188152Y42374438D01*
X54452761Y42103504D02*
X54452761Y42645371D01*
X54452761Y42567961D02*
X54414057Y42606666D01*
X54336647Y42645371D01*
X54220533Y42645371D01*
X54143123Y42606666D01*
X54104419Y42529257D01*
X54104419Y42103504D01*
X54104419Y42529257D02*
X54065714Y42606666D01*
X53988304Y42645371D01*
X53872190Y42645371D01*
X53794780Y42606666D01*
X53756076Y42529257D01*
X53756076Y42103504D01*
X53369028Y42103504D02*
X53369028Y42916304D01*
X53369028Y42606666D02*
X53291619Y42645371D01*
X53136800Y42645371D01*
X53059390Y42606666D01*
X53020685Y42567961D01*
X52981980Y42490552D01*
X52981980Y42258323D01*
X53020685Y42180914D01*
X53059390Y42142209D01*
X53136800Y42103504D01*
X53291619Y42103504D01*
X53369028Y42142209D01*
X52324000Y42142209D02*
X52401409Y42103504D01*
X52556228Y42103504D01*
X52633638Y42142209D01*
X52672342Y42219619D01*
X52672342Y42529257D01*
X52633638Y42606666D01*
X52556228Y42645371D01*
X52401409Y42645371D01*
X52324000Y42606666D01*
X52285295Y42529257D01*
X52285295Y42451847D01*
X52672342Y42374438D01*
X51936952Y42103504D02*
X51936952Y42645371D01*
X51936952Y42490552D02*
X51898247Y42567961D01*
X51859542Y42606666D01*
X51782133Y42645371D01*
X51704723Y42645371D01*
X50853219Y42838895D02*
X50814514Y42877600D01*
X50737104Y42916304D01*
X50543580Y42916304D01*
X50466171Y42877600D01*
X50427466Y42838895D01*
X50388761Y42761485D01*
X50388761Y42684076D01*
X50427466Y42567961D01*
X50891923Y42103504D01*
X50388761Y42103504D01*
X49885600Y42916304D02*
X49808190Y42916304D01*
X49730780Y42877600D01*
X49692076Y42838895D01*
X49653371Y42761485D01*
X49614666Y42606666D01*
X49614666Y42413142D01*
X49653371Y42258323D01*
X49692076Y42180914D01*
X49730780Y42142209D01*
X49808190Y42103504D01*
X49885600Y42103504D01*
X49963009Y42142209D01*
X50001714Y42180914D01*
X50040419Y42258323D01*
X50079123Y42413142D01*
X50079123Y42606666D01*
X50040419Y42761485D01*
X50001714Y42838895D01*
X49963009Y42877600D01*
X49885600Y42916304D01*
X49305028Y42838895D02*
X49266323Y42877600D01*
X49188914Y42916304D01*
X48995390Y42916304D01*
X48917980Y42877600D01*
X48879276Y42838895D01*
X48840571Y42761485D01*
X48840571Y42684076D01*
X48879276Y42567961D01*
X49343733Y42103504D01*
X48840571Y42103504D01*
X48066476Y42103504D02*
X48530933Y42103504D01*
X48298704Y42103504D02*
X48298704Y42916304D01*
X48376114Y42800190D01*
X48453523Y42722780D01*
X48530933Y42684076D01*
M02*
