%TF.GenerationSoftware,KiCad,Pcbnew,(5.1.9)-1*%
%TF.CreationDate,2021-11-09T16:08:34-06:00*%
%TF.ProjectId,SwitchBoard,53776974-6368-4426-9f61-72642e6b6963,rev?*%
%TF.SameCoordinates,Original*%
%TF.FileFunction,Copper,L2,Bot*%
%TF.FilePolarity,Positive*%
%FSLAX46Y46*%
G04 Gerber Fmt 4.6, Leading zero omitted, Abs format (unit mm)*
G04 Created by KiCad (PCBNEW (5.1.9)-1) date 2021-11-09 16:08:34*
%MOMM*%
%LPD*%
G01*
G04 APERTURE LIST*
%TA.AperFunction,ComponentPad*%
%ADD10O,1.700000X1.700000*%
%TD*%
%TA.AperFunction,ComponentPad*%
%ADD11R,1.700000X1.700000*%
%TD*%
%TA.AperFunction,ComponentPad*%
%ADD12O,1.200000X1.050000*%
%TD*%
%TA.AperFunction,ComponentPad*%
%ADD13O,2.000000X1.200000*%
%TD*%
%TA.AperFunction,ViaPad*%
%ADD14C,0.800000*%
%TD*%
%TA.AperFunction,Conductor*%
%ADD15C,0.250000*%
%TD*%
%TA.AperFunction,Conductor*%
%ADD16C,0.254000*%
%TD*%
%TA.AperFunction,Conductor*%
%ADD17C,0.100000*%
%TD*%
G04 APERTURE END LIST*
D10*
%TO.P,U3,46*%
%TO.N,GND*%
X59690000Y4445000D03*
%TO.P,U3,45*%
X59690000Y1905000D03*
%TO.P,U3,44*%
X57150000Y4445000D03*
%TO.P,U3,43*%
X57150000Y1905000D03*
%TO.P,U3,42*%
%TO.N,Net-(U3-Pad42)*%
X54610000Y4445000D03*
%TO.P,U3,41*%
%TO.N,Net-(U3-Pad41)*%
X54610000Y1905000D03*
%TO.P,U3,40*%
%TO.N,Net-(U3-Pad40)*%
X52070000Y4445000D03*
%TO.P,U3,39*%
%TO.N,Net-(U3-Pad39)*%
X52070000Y1905000D03*
%TO.P,U3,38*%
%TO.N,Net-(U3-Pad38)*%
X49530000Y4445000D03*
%TO.P,U3,37*%
%TO.N,Net-(U3-Pad37)*%
X49530000Y1905000D03*
%TO.P,U3,36*%
%TO.N,Net-(U3-Pad36)*%
X46990000Y4445000D03*
%TO.P,U3,35*%
%TO.N,Net-(U3-Pad35)*%
X46990000Y1905000D03*
%TO.P,U3,34*%
%TO.N,Net-(U3-Pad34)*%
X44450000Y4445000D03*
%TO.P,U3,33*%
%TO.N,Net-(U3-Pad33)*%
X44450000Y1905000D03*
%TO.P,U3,32*%
%TO.N,Net-(U3-Pad32)*%
X41910000Y4445000D03*
%TO.P,U3,31*%
%TO.N,Net-(U3-Pad31)*%
X41910000Y1905000D03*
%TO.P,U3,30*%
%TO.N,Net-(U3-Pad30)*%
X39370000Y4445000D03*
%TO.P,U3,29*%
%TO.N,Net-(U3-Pad29)*%
X39370000Y1905000D03*
%TO.P,U3,28*%
%TO.N,Net-(U3-Pad28)*%
X36830000Y4445000D03*
%TO.P,U3,27*%
%TO.N,Net-(U3-Pad27)*%
X36830000Y1905000D03*
%TO.P,U3,26*%
%TO.N,Net-(U3-Pad26)*%
X34290000Y4445000D03*
%TO.P,U3,25*%
%TO.N,Net-(R12-Pad2)*%
X34290000Y1905000D03*
%TO.P,U3,24*%
%TO.N,Net-(U3-Pad24)*%
X31750000Y4445000D03*
%TO.P,U3,23*%
%TO.N,Net-(U3-Pad23)*%
X31750000Y1905000D03*
%TO.P,U3,22*%
%TO.N,SCK*%
X29210000Y4445000D03*
%TO.P,U3,21*%
%TO.N,MOSI*%
X29210000Y1905000D03*
%TO.P,U3,20*%
%TO.N,Net-(U3-Pad20)*%
X26670000Y4445000D03*
%TO.P,U3,19*%
%TO.N,Net-(U3-Pad19)*%
X26670000Y1905000D03*
%TO.P,U3,18*%
%TO.N,MISO*%
X24130000Y4445000D03*
%TO.P,U3,17*%
%TO.N,Net-(R14-Pad2)*%
X24130000Y1905000D03*
%TO.P,U3,16*%
%TO.N,Net-(U3-Pad16)*%
X21590000Y4445000D03*
%TO.P,U3,15*%
%TO.N,Net-(U3-Pad15)*%
X21590000Y1905000D03*
%TO.P,U3,14*%
%TO.N,Net-(U3-Pad14)*%
X19050000Y4445000D03*
%TO.P,U3,13*%
%TO.N,Net-(U3-Pad13)*%
X19050000Y1905000D03*
%TO.P,U3,12*%
%TO.N,Net-(U3-Pad12)*%
X16510000Y4445000D03*
%TO.P,U3,11*%
%TO.N,Net-(U3-Pad11)*%
X16510000Y1905000D03*
%TO.P,U3,10*%
%TO.N,Net-(U3-Pad10)*%
X13970000Y4445000D03*
%TO.P,U3,9*%
%TO.N,Net-(U3-Pad9)*%
X13970000Y1905000D03*
%TO.P,U3,8*%
%TO.N,Net-(U3-Pad8)*%
X11430000Y4445000D03*
%TO.P,U3,7*%
%TO.N,Net-(U3-Pad7)*%
X11430000Y1905000D03*
%TO.P,U3,6*%
%TO.N,Net-(U3-Pad6)*%
X8890000Y4445000D03*
%TO.P,U3,5*%
%TO.N,Net-(U3-Pad5)*%
X8890000Y1905000D03*
%TO.P,U3,4*%
%TO.N,+3V3*%
X6350000Y4445000D03*
%TO.P,U3,3*%
X6350000Y1905000D03*
%TO.P,U3,2*%
%TO.N,GND*%
X3810000Y4445000D03*
D11*
%TO.P,U3,1*%
X3810000Y1905000D03*
%TD*%
D12*
%TO.P,J1,9*%
%TO.N,N/C*%
X28000800Y43830200D03*
%TO.P,J1,8*%
X28000800Y39380200D03*
D13*
%TO.P,J1,7*%
X25900800Y38105200D03*
%TO.P,J1,6*%
%TO.N,GND*%
X25900800Y45105200D03*
%TD*%
D11*
%TO.P,U1,1*%
%TO.N,GND*%
X3810000Y50165000D03*
D10*
%TO.P,U1,2*%
X3810000Y52705000D03*
%TO.P,U1,3*%
%TO.N,Net-(U1-Pad3)*%
X6350000Y50165000D03*
%TO.P,U1,4*%
%TO.N,Net-(U1-Pad4)*%
X6350000Y52705000D03*
%TO.P,U1,5*%
%TO.N,Net-(U1-Pad5)*%
X8890000Y50165000D03*
%TO.P,U1,6*%
%TO.N,Net-(U1-Pad6)*%
X8890000Y52705000D03*
%TO.P,U1,7*%
%TO.N,Net-(U1-Pad7)*%
X11430000Y50165000D03*
%TO.P,U1,8*%
%TO.N,Net-(U1-Pad8)*%
X11430000Y52705000D03*
%TO.P,U1,9*%
%TO.N,Net-(U1-Pad9)*%
X13970000Y50165000D03*
%TO.P,U1,10*%
%TO.N,Net-(U1-Pad10)*%
X13970000Y52705000D03*
%TO.P,U1,11*%
%TO.N,Net-(U1-Pad11)*%
X16510000Y50165000D03*
%TO.P,U1,12*%
%TO.N,Net-(U1-Pad12)*%
X16510000Y52705000D03*
%TO.P,U1,13*%
%TO.N,Net-(U1-Pad13)*%
X19050000Y50165000D03*
%TO.P,U1,14*%
%TO.N,Net-(U1-Pad14)*%
X19050000Y52705000D03*
%TO.P,U1,15*%
%TO.N,Net-(U1-Pad15)*%
X21590000Y50165000D03*
%TO.P,U1,16*%
%TO.N,Net-(U1-Pad16)*%
X21590000Y52705000D03*
%TO.P,U1,17*%
%TO.N,Net-(U1-Pad17)*%
X24130000Y50165000D03*
%TO.P,U1,18*%
%TO.N,Net-(U1-Pad18)*%
X24130000Y52705000D03*
%TO.P,U1,19*%
%TO.N,Net-(U1-Pad19)*%
X26670000Y50165000D03*
%TO.P,U1,20*%
%TO.N,Net-(U1-Pad20)*%
X26670000Y52705000D03*
%TO.P,U1,21*%
%TO.N,Net-(U1-Pad21)*%
X29210000Y50165000D03*
%TO.P,U1,22*%
%TO.N,Net-(U1-Pad22)*%
X29210000Y52705000D03*
%TO.P,U1,23*%
%TO.N,Net-(U1-Pad23)*%
X31750000Y50165000D03*
%TO.P,U1,24*%
%TO.N,Net-(U1-Pad24)*%
X31750000Y52705000D03*
%TO.P,U1,25*%
%TO.N,Net-(U1-Pad25)*%
X34290000Y50165000D03*
%TO.P,U1,26*%
%TO.N,Net-(U1-Pad26)*%
X34290000Y52705000D03*
%TO.P,U1,27*%
%TO.N,Net-(U1-Pad27)*%
X36830000Y50165000D03*
%TO.P,U1,28*%
%TO.N,Net-(U1-Pad28)*%
X36830000Y52705000D03*
%TO.P,U1,29*%
%TO.N,Net-(U1-Pad29)*%
X39370000Y50165000D03*
%TO.P,U1,30*%
%TO.N,Net-(U1-Pad30)*%
X39370000Y52705000D03*
%TO.P,U1,31*%
%TO.N,Net-(U1-Pad31)*%
X41910000Y50165000D03*
%TO.P,U1,32*%
%TO.N,Net-(U1-Pad32)*%
X41910000Y52705000D03*
%TO.P,U1,33*%
%TO.N,Net-(U1-Pad33)*%
X44450000Y50165000D03*
%TO.P,U1,34*%
%TO.N,Net-(U1-Pad34)*%
X44450000Y52705000D03*
%TO.P,U1,35*%
%TO.N,Net-(U1-Pad35)*%
X46990000Y50165000D03*
%TO.P,U1,36*%
%TO.N,Net-(U1-Pad36)*%
X46990000Y52705000D03*
%TO.P,U1,37*%
%TO.N,Net-(U1-Pad37)*%
X49530000Y50165000D03*
%TO.P,U1,38*%
%TO.N,Net-(U1-Pad38)*%
X49530000Y52705000D03*
%TO.P,U1,39*%
%TO.N,Net-(U1-Pad39)*%
X52070000Y50165000D03*
%TO.P,U1,40*%
%TO.N,Net-(U1-Pad40)*%
X52070000Y52705000D03*
%TO.P,U1,41*%
%TO.N,Net-(U1-Pad41)*%
X54610000Y50165000D03*
%TO.P,U1,42*%
%TO.N,Net-(U1-Pad42)*%
X54610000Y52705000D03*
%TO.P,U1,43*%
%TO.N,Net-(U1-Pad43)*%
X57150000Y50165000D03*
%TO.P,U1,44*%
%TO.N,Net-(U1-Pad44)*%
X57150000Y52705000D03*
%TO.P,U1,45*%
%TO.N,Net-(U1-Pad45)*%
X59690000Y50165000D03*
%TO.P,U1,46*%
%TO.N,Net-(U1-Pad46)*%
X59690000Y52705000D03*
%TD*%
D14*
%TO.N,GND*%
X52197000Y17399000D03*
X52070000Y28702000D03*
X62357000Y30226000D03*
X62230000Y35814000D03*
X62357000Y45974000D03*
X40640000Y16637000D03*
X48514000Y30353000D03*
X51943000Y38989000D03*
X48260000Y40386000D03*
X39116000Y38862000D03*
X48387000Y45974000D03*
X33147000Y36576000D03*
X35687000Y36703000D03*
X30734000Y36449000D03*
X48387000Y35687000D03*
X60833000Y42926000D03*
X46990000Y11430000D03*
X60960000Y11430000D03*
X60833000Y21590000D03*
X46863000Y21717000D03*
X36703000Y8001000D03*
X50800000Y8636000D03*
X34645600Y16103600D03*
X32562800Y7315200D03*
X24582547Y7523053D03*
X24384000Y17576800D03*
X28092400Y16713200D03*
X25908000Y40132000D03*
X29159200Y40081200D03*
X25755600Y32461200D03*
X26466800Y26720800D03*
X26873200Y21539200D03*
%TO.N,+3V3*%
X55880000Y44043600D03*
X55880000Y42418000D03*
X41960800Y43942000D03*
X41960800Y42367200D03*
X41958036Y33618000D03*
X41910000Y32168000D03*
X41910000Y22569000D03*
X41859200Y21119000D03*
X41910000Y12039600D03*
X41859200Y10578000D03*
X55930800Y10832000D03*
X55829200Y12282000D03*
X55981600Y20865000D03*
X55981600Y22315000D03*
X55930800Y32258000D03*
X55880000Y33999000D03*
X28295600Y15138400D03*
X32562800Y12496800D03*
%TO.N,SW_4*%
X39497000Y32004000D03*
X40538400Y34899600D03*
%TO.N,~CS*%
X29413200Y11531600D03*
X30958103Y10341786D03*
%TD*%
D15*
%TO.N,+3V3*%
X55880000Y44043600D02*
X55880000Y42418000D01*
X41960800Y43942000D02*
X41960800Y42367200D01*
X41958036Y32216036D02*
X41910000Y32168000D01*
X41958036Y33618000D02*
X41958036Y32216036D01*
X41910000Y32168000D02*
X41910000Y22569000D01*
X41910000Y21169800D02*
X41859200Y21119000D01*
X41910000Y22569000D02*
X41910000Y21169800D01*
X41910000Y10628800D02*
X41859200Y10578000D01*
X41910000Y12039600D02*
X41910000Y10628800D01*
X55930800Y12180400D02*
X55829200Y12282000D01*
X55930800Y10832000D02*
X55930800Y12180400D01*
X55981600Y20865000D02*
X55981600Y22315000D01*
X55930800Y33948200D02*
X55880000Y33999000D01*
X55930800Y32258000D02*
X55930800Y33948200D01*
X32562800Y12496800D02*
X32562800Y14071600D01*
X31496000Y15138400D02*
X28295600Y15138400D01*
X32562800Y14071600D02*
X31496000Y15138400D01*
%TO.N,SW_4*%
X40538400Y33045400D02*
X39497000Y32004000D01*
X40538400Y34899600D02*
X40538400Y33045400D01*
%TO.N,~CS*%
X30603014Y10341786D02*
X29413200Y11531600D01*
X30958103Y10341786D02*
X30603014Y10341786D01*
%TD*%
D16*
%TO.N,GND*%
X2809731Y53802588D02*
X2614822Y53586355D01*
X2465843Y53336252D01*
X2368519Y53061891D01*
X2489186Y52832000D01*
X3683000Y52832000D01*
X3683000Y52852000D01*
X3937000Y52852000D01*
X3937000Y52832000D01*
X3957000Y52832000D01*
X3957000Y52578000D01*
X3937000Y52578000D01*
X3937000Y50292000D01*
X3957000Y50292000D01*
X3957000Y50038000D01*
X3937000Y50038000D01*
X3937000Y48838750D01*
X4095750Y48680000D01*
X4660000Y48676928D01*
X4784482Y48689188D01*
X4904180Y48725498D01*
X5014494Y48784463D01*
X5111185Y48863815D01*
X5190537Y48960506D01*
X5249502Y49070820D01*
X5271513Y49143380D01*
X5403368Y49011525D01*
X5646589Y48849010D01*
X5916842Y48737068D01*
X6203740Y48680000D01*
X6496260Y48680000D01*
X6783158Y48737068D01*
X7053411Y48849010D01*
X7296632Y49011525D01*
X7503475Y49218368D01*
X7620000Y49392760D01*
X7736525Y49218368D01*
X7943368Y49011525D01*
X8186589Y48849010D01*
X8456842Y48737068D01*
X8743740Y48680000D01*
X9036260Y48680000D01*
X9323158Y48737068D01*
X9593411Y48849010D01*
X9836632Y49011525D01*
X10043475Y49218368D01*
X10160000Y49392760D01*
X10276525Y49218368D01*
X10483368Y49011525D01*
X10726589Y48849010D01*
X10996842Y48737068D01*
X11283740Y48680000D01*
X11576260Y48680000D01*
X11863158Y48737068D01*
X12133411Y48849010D01*
X12376632Y49011525D01*
X12583475Y49218368D01*
X12700000Y49392760D01*
X12816525Y49218368D01*
X13023368Y49011525D01*
X13266589Y48849010D01*
X13536842Y48737068D01*
X13823740Y48680000D01*
X14116260Y48680000D01*
X14403158Y48737068D01*
X14673411Y48849010D01*
X14916632Y49011525D01*
X15123475Y49218368D01*
X15240000Y49392760D01*
X15356525Y49218368D01*
X15563368Y49011525D01*
X15806589Y48849010D01*
X16076842Y48737068D01*
X16363740Y48680000D01*
X16656260Y48680000D01*
X16943158Y48737068D01*
X17213411Y48849010D01*
X17456632Y49011525D01*
X17663475Y49218368D01*
X17780000Y49392760D01*
X17896525Y49218368D01*
X18103368Y49011525D01*
X18346589Y48849010D01*
X18616842Y48737068D01*
X18903740Y48680000D01*
X19196260Y48680000D01*
X19483158Y48737068D01*
X19753411Y48849010D01*
X19996632Y49011525D01*
X20203475Y49218368D01*
X20320000Y49392760D01*
X20436525Y49218368D01*
X20643368Y49011525D01*
X20886589Y48849010D01*
X21156842Y48737068D01*
X21443740Y48680000D01*
X21736260Y48680000D01*
X22023158Y48737068D01*
X22293411Y48849010D01*
X22536632Y49011525D01*
X22743475Y49218368D01*
X22860000Y49392760D01*
X22976525Y49218368D01*
X23183368Y49011525D01*
X23426589Y48849010D01*
X23696842Y48737068D01*
X23983740Y48680000D01*
X24276260Y48680000D01*
X24563158Y48737068D01*
X24833411Y48849010D01*
X25076632Y49011525D01*
X25283475Y49218368D01*
X25400000Y49392760D01*
X25516525Y49218368D01*
X25723368Y49011525D01*
X25966589Y48849010D01*
X26236842Y48737068D01*
X26523740Y48680000D01*
X26816260Y48680000D01*
X27103158Y48737068D01*
X27373411Y48849010D01*
X27616632Y49011525D01*
X27823475Y49218368D01*
X27940000Y49392760D01*
X28056525Y49218368D01*
X28263368Y49011525D01*
X28506589Y48849010D01*
X28776842Y48737068D01*
X29063740Y48680000D01*
X29356260Y48680000D01*
X29643158Y48737068D01*
X29913411Y48849010D01*
X30156632Y49011525D01*
X30363475Y49218368D01*
X30480000Y49392760D01*
X30596525Y49218368D01*
X30803368Y49011525D01*
X31046589Y48849010D01*
X31316842Y48737068D01*
X31603740Y48680000D01*
X31896260Y48680000D01*
X32183158Y48737068D01*
X32453411Y48849010D01*
X32696632Y49011525D01*
X32903475Y49218368D01*
X33020000Y49392760D01*
X33136525Y49218368D01*
X33343368Y49011525D01*
X33586589Y48849010D01*
X33856842Y48737068D01*
X34143740Y48680000D01*
X34436260Y48680000D01*
X34723158Y48737068D01*
X34993411Y48849010D01*
X35236632Y49011525D01*
X35443475Y49218368D01*
X35560000Y49392760D01*
X35676525Y49218368D01*
X35883368Y49011525D01*
X36126589Y48849010D01*
X36396842Y48737068D01*
X36683740Y48680000D01*
X36976260Y48680000D01*
X37263158Y48737068D01*
X37533411Y48849010D01*
X37776632Y49011525D01*
X37983475Y49218368D01*
X38100000Y49392760D01*
X38216525Y49218368D01*
X38423368Y49011525D01*
X38666589Y48849010D01*
X38936842Y48737068D01*
X39223740Y48680000D01*
X39516260Y48680000D01*
X39803158Y48737068D01*
X40073411Y48849010D01*
X40316632Y49011525D01*
X40523475Y49218368D01*
X40640000Y49392760D01*
X40756525Y49218368D01*
X40963368Y49011525D01*
X41206589Y48849010D01*
X41476842Y48737068D01*
X41763740Y48680000D01*
X42056260Y48680000D01*
X42343158Y48737068D01*
X42613411Y48849010D01*
X42856632Y49011525D01*
X43063475Y49218368D01*
X43180000Y49392760D01*
X43296525Y49218368D01*
X43503368Y49011525D01*
X43746589Y48849010D01*
X44016842Y48737068D01*
X44303740Y48680000D01*
X44596260Y48680000D01*
X44883158Y48737068D01*
X45153411Y48849010D01*
X45396632Y49011525D01*
X45603475Y49218368D01*
X45720000Y49392760D01*
X45836525Y49218368D01*
X46043368Y49011525D01*
X46286589Y48849010D01*
X46556842Y48737068D01*
X46843740Y48680000D01*
X47136260Y48680000D01*
X47423158Y48737068D01*
X47693411Y48849010D01*
X47936632Y49011525D01*
X48143475Y49218368D01*
X48260000Y49392760D01*
X48376525Y49218368D01*
X48583368Y49011525D01*
X48826589Y48849010D01*
X49096842Y48737068D01*
X49383740Y48680000D01*
X49676260Y48680000D01*
X49963158Y48737068D01*
X50233411Y48849010D01*
X50476632Y49011525D01*
X50683475Y49218368D01*
X50800000Y49392760D01*
X50916525Y49218368D01*
X51123368Y49011525D01*
X51366589Y48849010D01*
X51636842Y48737068D01*
X51923740Y48680000D01*
X52216260Y48680000D01*
X52503158Y48737068D01*
X52773411Y48849010D01*
X53016632Y49011525D01*
X53223475Y49218368D01*
X53340000Y49392760D01*
X53456525Y49218368D01*
X53663368Y49011525D01*
X53906589Y48849010D01*
X54176842Y48737068D01*
X54463740Y48680000D01*
X54756260Y48680000D01*
X55043158Y48737068D01*
X55313411Y48849010D01*
X55556632Y49011525D01*
X55763475Y49218368D01*
X55880000Y49392760D01*
X55996525Y49218368D01*
X56203368Y49011525D01*
X56446589Y48849010D01*
X56716842Y48737068D01*
X57003740Y48680000D01*
X57296260Y48680000D01*
X57583158Y48737068D01*
X57853411Y48849010D01*
X58096632Y49011525D01*
X58303475Y49218368D01*
X58420000Y49392760D01*
X58536525Y49218368D01*
X58743368Y49011525D01*
X58986589Y48849010D01*
X59256842Y48737068D01*
X59543740Y48680000D01*
X59836260Y48680000D01*
X60123158Y48737068D01*
X60393411Y48849010D01*
X60636632Y49011525D01*
X60843475Y49218368D01*
X61005990Y49461589D01*
X61117932Y49731842D01*
X61175000Y50018740D01*
X61175000Y50311260D01*
X61117932Y50598158D01*
X61005990Y50868411D01*
X60843475Y51111632D01*
X60636632Y51318475D01*
X60462240Y51435000D01*
X60636632Y51551525D01*
X60843475Y51758368D01*
X61005990Y52001589D01*
X61117932Y52271842D01*
X61175000Y52558740D01*
X61175000Y52851260D01*
X61117932Y53138158D01*
X61005990Y53408411D01*
X60843475Y53651632D01*
X60636632Y53858475D01*
X60499655Y53950000D01*
X62840001Y53950000D01*
X62840000Y660000D01*
X60492637Y660000D01*
X60690269Y807412D01*
X60885178Y1023645D01*
X61034157Y1273748D01*
X61131481Y1548109D01*
X61010814Y1778000D01*
X59817000Y1778000D01*
X59817000Y1758000D01*
X59563000Y1758000D01*
X59563000Y1778000D01*
X57277000Y1778000D01*
X57277000Y1758000D01*
X57023000Y1758000D01*
X57023000Y1778000D01*
X57003000Y1778000D01*
X57003000Y2032000D01*
X57023000Y2032000D01*
X57023000Y4318000D01*
X57277000Y4318000D01*
X57277000Y2032000D01*
X59563000Y2032000D01*
X59563000Y4318000D01*
X59817000Y4318000D01*
X59817000Y2032000D01*
X61010814Y2032000D01*
X61131481Y2261891D01*
X61034157Y2536252D01*
X60885178Y2786355D01*
X60690269Y3002588D01*
X60459120Y3175000D01*
X60690269Y3347412D01*
X60885178Y3563645D01*
X61034157Y3813748D01*
X61131481Y4088109D01*
X61010814Y4318000D01*
X59817000Y4318000D01*
X59563000Y4318000D01*
X57277000Y4318000D01*
X57023000Y4318000D01*
X57003000Y4318000D01*
X57003000Y4572000D01*
X57023000Y4572000D01*
X57023000Y5765155D01*
X57277000Y5765155D01*
X57277000Y4572000D01*
X59563000Y4572000D01*
X59563000Y5765155D01*
X59817000Y5765155D01*
X59817000Y4572000D01*
X61010814Y4572000D01*
X61131481Y4801891D01*
X61034157Y5076252D01*
X60885178Y5326355D01*
X60690269Y5542588D01*
X60456920Y5716641D01*
X60194099Y5841825D01*
X60046890Y5886476D01*
X59817000Y5765155D01*
X59563000Y5765155D01*
X59333110Y5886476D01*
X59185901Y5841825D01*
X58923080Y5716641D01*
X58689731Y5542588D01*
X58494822Y5326355D01*
X58420000Y5200745D01*
X58345178Y5326355D01*
X58150269Y5542588D01*
X57916920Y5716641D01*
X57654099Y5841825D01*
X57506890Y5886476D01*
X57277000Y5765155D01*
X57023000Y5765155D01*
X56793110Y5886476D01*
X56645901Y5841825D01*
X56383080Y5716641D01*
X56149731Y5542588D01*
X55954822Y5326355D01*
X55885195Y5209466D01*
X55763475Y5391632D01*
X55556632Y5598475D01*
X55313411Y5760990D01*
X55043158Y5872932D01*
X54756260Y5930000D01*
X54463740Y5930000D01*
X54176842Y5872932D01*
X53906589Y5760990D01*
X53663368Y5598475D01*
X53456525Y5391632D01*
X53340000Y5217240D01*
X53223475Y5391632D01*
X53016632Y5598475D01*
X52773411Y5760990D01*
X52503158Y5872932D01*
X52216260Y5930000D01*
X51923740Y5930000D01*
X51636842Y5872932D01*
X51366589Y5760990D01*
X51123368Y5598475D01*
X50916525Y5391632D01*
X50800000Y5217240D01*
X50683475Y5391632D01*
X50476632Y5598475D01*
X50233411Y5760990D01*
X49963158Y5872932D01*
X49676260Y5930000D01*
X49383740Y5930000D01*
X49096842Y5872932D01*
X48826589Y5760990D01*
X48583368Y5598475D01*
X48376525Y5391632D01*
X48260000Y5217240D01*
X48143475Y5391632D01*
X47936632Y5598475D01*
X47693411Y5760990D01*
X47423158Y5872932D01*
X47136260Y5930000D01*
X46843740Y5930000D01*
X46556842Y5872932D01*
X46286589Y5760990D01*
X46043368Y5598475D01*
X45836525Y5391632D01*
X45720000Y5217240D01*
X45603475Y5391632D01*
X45396632Y5598475D01*
X45153411Y5760990D01*
X44883158Y5872932D01*
X44596260Y5930000D01*
X44303740Y5930000D01*
X44016842Y5872932D01*
X43746589Y5760990D01*
X43503368Y5598475D01*
X43296525Y5391632D01*
X43180000Y5217240D01*
X43063475Y5391632D01*
X42856632Y5598475D01*
X42613411Y5760990D01*
X42343158Y5872932D01*
X42056260Y5930000D01*
X41763740Y5930000D01*
X41476842Y5872932D01*
X41206589Y5760990D01*
X40963368Y5598475D01*
X40756525Y5391632D01*
X40640000Y5217240D01*
X40523475Y5391632D01*
X40316632Y5598475D01*
X40073411Y5760990D01*
X39803158Y5872932D01*
X39516260Y5930000D01*
X39223740Y5930000D01*
X38936842Y5872932D01*
X38666589Y5760990D01*
X38423368Y5598475D01*
X38216525Y5391632D01*
X38100000Y5217240D01*
X37983475Y5391632D01*
X37776632Y5598475D01*
X37533411Y5760990D01*
X37263158Y5872932D01*
X36976260Y5930000D01*
X36683740Y5930000D01*
X36396842Y5872932D01*
X36126589Y5760990D01*
X35883368Y5598475D01*
X35676525Y5391632D01*
X35560000Y5217240D01*
X35443475Y5391632D01*
X35236632Y5598475D01*
X34993411Y5760990D01*
X34723158Y5872932D01*
X34436260Y5930000D01*
X34143740Y5930000D01*
X33856842Y5872932D01*
X33586589Y5760990D01*
X33343368Y5598475D01*
X33136525Y5391632D01*
X33020000Y5217240D01*
X32903475Y5391632D01*
X32696632Y5598475D01*
X32453411Y5760990D01*
X32183158Y5872932D01*
X31896260Y5930000D01*
X31603740Y5930000D01*
X31316842Y5872932D01*
X31046589Y5760990D01*
X30803368Y5598475D01*
X30596525Y5391632D01*
X30480000Y5217240D01*
X30363475Y5391632D01*
X30156632Y5598475D01*
X29913411Y5760990D01*
X29643158Y5872932D01*
X29356260Y5930000D01*
X29063740Y5930000D01*
X28776842Y5872932D01*
X28506589Y5760990D01*
X28263368Y5598475D01*
X28056525Y5391632D01*
X27940000Y5217240D01*
X27823475Y5391632D01*
X27616632Y5598475D01*
X27373411Y5760990D01*
X27103158Y5872932D01*
X26816260Y5930000D01*
X26523740Y5930000D01*
X26236842Y5872932D01*
X25966589Y5760990D01*
X25723368Y5598475D01*
X25516525Y5391632D01*
X25400000Y5217240D01*
X25283475Y5391632D01*
X25076632Y5598475D01*
X24833411Y5760990D01*
X24563158Y5872932D01*
X24276260Y5930000D01*
X23983740Y5930000D01*
X23696842Y5872932D01*
X23426589Y5760990D01*
X23183368Y5598475D01*
X22976525Y5391632D01*
X22860000Y5217240D01*
X22743475Y5391632D01*
X22536632Y5598475D01*
X22293411Y5760990D01*
X22023158Y5872932D01*
X21736260Y5930000D01*
X21443740Y5930000D01*
X21156842Y5872932D01*
X20886589Y5760990D01*
X20643368Y5598475D01*
X20436525Y5391632D01*
X20320000Y5217240D01*
X20203475Y5391632D01*
X19996632Y5598475D01*
X19753411Y5760990D01*
X19483158Y5872932D01*
X19196260Y5930000D01*
X18903740Y5930000D01*
X18616842Y5872932D01*
X18346589Y5760990D01*
X18103368Y5598475D01*
X17896525Y5391632D01*
X17780000Y5217240D01*
X17663475Y5391632D01*
X17456632Y5598475D01*
X17213411Y5760990D01*
X16943158Y5872932D01*
X16656260Y5930000D01*
X16363740Y5930000D01*
X16076842Y5872932D01*
X15806589Y5760990D01*
X15563368Y5598475D01*
X15356525Y5391632D01*
X15240000Y5217240D01*
X15123475Y5391632D01*
X14916632Y5598475D01*
X14673411Y5760990D01*
X14403158Y5872932D01*
X14116260Y5930000D01*
X13823740Y5930000D01*
X13536842Y5872932D01*
X13266589Y5760990D01*
X13023368Y5598475D01*
X12816525Y5391632D01*
X12700000Y5217240D01*
X12583475Y5391632D01*
X12376632Y5598475D01*
X12133411Y5760990D01*
X11863158Y5872932D01*
X11576260Y5930000D01*
X11283740Y5930000D01*
X10996842Y5872932D01*
X10726589Y5760990D01*
X10483368Y5598475D01*
X10276525Y5391632D01*
X10160000Y5217240D01*
X10043475Y5391632D01*
X9836632Y5598475D01*
X9593411Y5760990D01*
X9323158Y5872932D01*
X9036260Y5930000D01*
X8743740Y5930000D01*
X8456842Y5872932D01*
X8186589Y5760990D01*
X7943368Y5598475D01*
X7736525Y5391632D01*
X7620000Y5217240D01*
X7503475Y5391632D01*
X7296632Y5598475D01*
X7053411Y5760990D01*
X6783158Y5872932D01*
X6496260Y5930000D01*
X6203740Y5930000D01*
X5916842Y5872932D01*
X5646589Y5760990D01*
X5403368Y5598475D01*
X5196525Y5391632D01*
X5074805Y5209466D01*
X5005178Y5326355D01*
X4810269Y5542588D01*
X4576920Y5716641D01*
X4314099Y5841825D01*
X4166890Y5886476D01*
X3937000Y5765155D01*
X3937000Y4572000D01*
X3957000Y4572000D01*
X3957000Y4318000D01*
X3937000Y4318000D01*
X3937000Y2032000D01*
X3957000Y2032000D01*
X3957000Y1778000D01*
X3937000Y1778000D01*
X3937000Y1758000D01*
X3683000Y1758000D01*
X3683000Y1778000D01*
X2483750Y1778000D01*
X2325000Y1619250D01*
X2321928Y1055000D01*
X2334188Y930518D01*
X2370498Y810820D01*
X2429463Y700506D01*
X2462705Y660000D01*
X660000Y660000D01*
X660000Y2755000D01*
X2321928Y2755000D01*
X2325000Y2190750D01*
X2483750Y2032000D01*
X3683000Y2032000D01*
X3683000Y4318000D01*
X2489186Y4318000D01*
X2368519Y4088109D01*
X2465843Y3813748D01*
X2614822Y3563645D01*
X2791626Y3367498D01*
X2715820Y3344502D01*
X2605506Y3285537D01*
X2508815Y3206185D01*
X2429463Y3109494D01*
X2370498Y2999180D01*
X2334188Y2879482D01*
X2321928Y2755000D01*
X660000Y2755000D01*
X660000Y4801891D01*
X2368519Y4801891D01*
X2489186Y4572000D01*
X3683000Y4572000D01*
X3683000Y5765155D01*
X3453110Y5886476D01*
X3305901Y5841825D01*
X3043080Y5716641D01*
X2809731Y5542588D01*
X2614822Y5326355D01*
X2465843Y5076252D01*
X2368519Y4801891D01*
X660000Y4801891D01*
X660000Y6960000D01*
X22827581Y6960000D01*
X22860000Y6956807D01*
X22892419Y6960000D01*
X22989383Y6969550D01*
X23113793Y7007290D01*
X23228450Y7068575D01*
X23328948Y7151052D01*
X23411425Y7251550D01*
X23472710Y7366207D01*
X23510450Y7490617D01*
X23523193Y7620000D01*
X23520000Y7652419D01*
X23520000Y11633539D01*
X28378200Y11633539D01*
X28378200Y11429661D01*
X28417974Y11229702D01*
X28495995Y11041344D01*
X28609263Y10871826D01*
X28753426Y10727663D01*
X28922944Y10614395D01*
X29111302Y10536374D01*
X29311261Y10496600D01*
X29373399Y10496600D01*
X30039215Y9830783D01*
X30063013Y9801785D01*
X30087642Y9781573D01*
X30154166Y9682012D01*
X30298329Y9537849D01*
X30467847Y9424581D01*
X30656205Y9346560D01*
X30856164Y9306786D01*
X31060042Y9306786D01*
X31260001Y9346560D01*
X31448359Y9424581D01*
X31617877Y9537849D01*
X31762040Y9682012D01*
X31875308Y9851530D01*
X31953329Y10039888D01*
X31993103Y10239847D01*
X31993103Y10443725D01*
X31953329Y10643684D01*
X31938312Y10679939D01*
X40824200Y10679939D01*
X40824200Y10476061D01*
X40863974Y10276102D01*
X40941995Y10087744D01*
X41055263Y9918226D01*
X41199426Y9774063D01*
X41368944Y9660795D01*
X41557302Y9582774D01*
X41757261Y9543000D01*
X41961139Y9543000D01*
X42161098Y9582774D01*
X42349456Y9660795D01*
X42518974Y9774063D01*
X42663137Y9918226D01*
X42776405Y10087744D01*
X42854426Y10276102D01*
X42894200Y10476061D01*
X42894200Y10679939D01*
X42854426Y10879898D01*
X42776405Y11068256D01*
X42670000Y11227503D01*
X42670000Y11335889D01*
X42713937Y11379826D01*
X42827205Y11549344D01*
X42905226Y11737702D01*
X42945000Y11937661D01*
X42945000Y12141539D01*
X42905226Y12341498D01*
X42887647Y12383939D01*
X54794200Y12383939D01*
X54794200Y12180061D01*
X54833974Y11980102D01*
X54911995Y11791744D01*
X55025263Y11622226D01*
X55141289Y11506200D01*
X55126863Y11491774D01*
X55013595Y11322256D01*
X54935574Y11133898D01*
X54895800Y10933939D01*
X54895800Y10730061D01*
X54935574Y10530102D01*
X55013595Y10341744D01*
X55126863Y10172226D01*
X55271026Y10028063D01*
X55440544Y9914795D01*
X55628902Y9836774D01*
X55828861Y9797000D01*
X56032739Y9797000D01*
X56232698Y9836774D01*
X56421056Y9914795D01*
X56590574Y10028063D01*
X56734737Y10172226D01*
X56848005Y10341744D01*
X56926026Y10530102D01*
X56965800Y10730061D01*
X56965800Y10933939D01*
X56926026Y11133898D01*
X56848005Y11322256D01*
X56734737Y11491774D01*
X56690800Y11535711D01*
X56690800Y11708525D01*
X56746405Y11791744D01*
X56824426Y11980102D01*
X56864200Y12180061D01*
X56864200Y12383939D01*
X56824426Y12583898D01*
X56746405Y12772256D01*
X56633137Y12941774D01*
X56488974Y13085937D01*
X56319456Y13199205D01*
X56131098Y13277226D01*
X55931139Y13317000D01*
X55727261Y13317000D01*
X55527302Y13277226D01*
X55338944Y13199205D01*
X55169426Y13085937D01*
X55025263Y12941774D01*
X54911995Y12772256D01*
X54833974Y12583898D01*
X54794200Y12383939D01*
X42887647Y12383939D01*
X42827205Y12529856D01*
X42713937Y12699374D01*
X42569774Y12843537D01*
X42400256Y12956805D01*
X42211898Y13034826D01*
X42011939Y13074600D01*
X41808061Y13074600D01*
X41608102Y13034826D01*
X41419744Y12956805D01*
X41250226Y12843537D01*
X41106063Y12699374D01*
X40992795Y12529856D01*
X40914774Y12341498D01*
X40875000Y12141539D01*
X40875000Y11937661D01*
X40914774Y11737702D01*
X40992795Y11549344D01*
X41106063Y11379826D01*
X41150000Y11335889D01*
X41150001Y11332512D01*
X41055263Y11237774D01*
X40941995Y11068256D01*
X40863974Y10879898D01*
X40824200Y10679939D01*
X31938312Y10679939D01*
X31875308Y10832042D01*
X31762040Y11001560D01*
X31617877Y11145723D01*
X31448359Y11258991D01*
X31260001Y11337012D01*
X31060042Y11376786D01*
X30856164Y11376786D01*
X30678212Y11341389D01*
X30448200Y11571401D01*
X30448200Y11633539D01*
X30408426Y11833498D01*
X30330405Y12021856D01*
X30217137Y12191374D01*
X30072974Y12335537D01*
X29903456Y12448805D01*
X29715098Y12526826D01*
X29515139Y12566600D01*
X29311261Y12566600D01*
X29111302Y12526826D01*
X28922944Y12448805D01*
X28753426Y12335537D01*
X28609263Y12191374D01*
X28495995Y12021856D01*
X28417974Y11833498D01*
X28378200Y11633539D01*
X23520000Y11633539D01*
X23520000Y15240339D01*
X27260600Y15240339D01*
X27260600Y15036461D01*
X27300374Y14836502D01*
X27378395Y14648144D01*
X27491663Y14478626D01*
X27635826Y14334463D01*
X27805344Y14221195D01*
X27993702Y14143174D01*
X28193661Y14103400D01*
X28397539Y14103400D01*
X28597498Y14143174D01*
X28785856Y14221195D01*
X28955374Y14334463D01*
X28999311Y14378400D01*
X31181199Y14378400D01*
X31802801Y13756797D01*
X31802800Y13200511D01*
X31758863Y13156574D01*
X31645595Y12987056D01*
X31567574Y12798698D01*
X31527800Y12598739D01*
X31527800Y12394861D01*
X31567574Y12194902D01*
X31645595Y12006544D01*
X31758863Y11837026D01*
X31903026Y11692863D01*
X32072544Y11579595D01*
X32260902Y11501574D01*
X32460861Y11461800D01*
X32664739Y11461800D01*
X32864698Y11501574D01*
X33053056Y11579595D01*
X33222574Y11692863D01*
X33366737Y11837026D01*
X33480005Y12006544D01*
X33558026Y12194902D01*
X33597800Y12394861D01*
X33597800Y12598739D01*
X33558026Y12798698D01*
X33480005Y12987056D01*
X33366737Y13156574D01*
X33322800Y13200511D01*
X33322800Y14034278D01*
X33326476Y14071601D01*
X33322800Y14108924D01*
X33322800Y14108933D01*
X33311803Y14220586D01*
X33268346Y14363847D01*
X33254689Y14389397D01*
X33197774Y14495877D01*
X33126599Y14582603D01*
X33102801Y14611601D01*
X33073803Y14635399D01*
X32059804Y15649398D01*
X32036001Y15678401D01*
X31920276Y15773374D01*
X31788247Y15843946D01*
X31644986Y15887403D01*
X31533333Y15898400D01*
X31533322Y15898400D01*
X31496000Y15902076D01*
X31458678Y15898400D01*
X28999311Y15898400D01*
X28955374Y15942337D01*
X28785856Y16055605D01*
X28597498Y16133626D01*
X28397539Y16173400D01*
X28193661Y16173400D01*
X27993702Y16133626D01*
X27805344Y16055605D01*
X27635826Y15942337D01*
X27491663Y15798174D01*
X27378395Y15628656D01*
X27300374Y15440298D01*
X27260600Y15240339D01*
X23520000Y15240339D01*
X23520000Y32105939D01*
X38462000Y32105939D01*
X38462000Y31902061D01*
X38501774Y31702102D01*
X38579795Y31513744D01*
X38693063Y31344226D01*
X38837226Y31200063D01*
X39006744Y31086795D01*
X39195102Y31008774D01*
X39395061Y30969000D01*
X39598939Y30969000D01*
X39798898Y31008774D01*
X39987256Y31086795D01*
X40156774Y31200063D01*
X40300937Y31344226D01*
X40414205Y31513744D01*
X40492226Y31702102D01*
X40532000Y31902061D01*
X40532000Y31964199D01*
X40884251Y32316450D01*
X40875000Y32269939D01*
X40875000Y32066061D01*
X40914774Y31866102D01*
X40992795Y31677744D01*
X41106063Y31508226D01*
X41150000Y31464289D01*
X41150001Y23272712D01*
X41106063Y23228774D01*
X40992795Y23059256D01*
X40914774Y22870898D01*
X40875000Y22670939D01*
X40875000Y22467061D01*
X40914774Y22267102D01*
X40992795Y22078744D01*
X41106063Y21909226D01*
X41145889Y21869400D01*
X41055263Y21778774D01*
X40941995Y21609256D01*
X40863974Y21420898D01*
X40824200Y21220939D01*
X40824200Y21017061D01*
X40863974Y20817102D01*
X40941995Y20628744D01*
X41055263Y20459226D01*
X41199426Y20315063D01*
X41368944Y20201795D01*
X41557302Y20123774D01*
X41757261Y20084000D01*
X41961139Y20084000D01*
X42161098Y20123774D01*
X42349456Y20201795D01*
X42518974Y20315063D01*
X42663137Y20459226D01*
X42776405Y20628744D01*
X42854426Y20817102D01*
X42894200Y21017061D01*
X42894200Y21220939D01*
X42854426Y21420898D01*
X42776405Y21609256D01*
X42670000Y21768503D01*
X42670000Y21865289D01*
X42713937Y21909226D01*
X42827205Y22078744D01*
X42905226Y22267102D01*
X42935030Y22416939D01*
X54946600Y22416939D01*
X54946600Y22213061D01*
X54986374Y22013102D01*
X55064395Y21824744D01*
X55177663Y21655226D01*
X55221601Y21611288D01*
X55221600Y21568711D01*
X55177663Y21524774D01*
X55064395Y21355256D01*
X54986374Y21166898D01*
X54946600Y20966939D01*
X54946600Y20763061D01*
X54986374Y20563102D01*
X55064395Y20374744D01*
X55177663Y20205226D01*
X55321826Y20061063D01*
X55491344Y19947795D01*
X55679702Y19869774D01*
X55879661Y19830000D01*
X56083539Y19830000D01*
X56283498Y19869774D01*
X56471856Y19947795D01*
X56641374Y20061063D01*
X56785537Y20205226D01*
X56898805Y20374744D01*
X56976826Y20563102D01*
X57016600Y20763061D01*
X57016600Y20966939D01*
X56976826Y21166898D01*
X56898805Y21355256D01*
X56785537Y21524774D01*
X56741600Y21568711D01*
X56741600Y21611289D01*
X56785537Y21655226D01*
X56898805Y21824744D01*
X56976826Y22013102D01*
X57016600Y22213061D01*
X57016600Y22416939D01*
X56976826Y22616898D01*
X56898805Y22805256D01*
X56785537Y22974774D01*
X56641374Y23118937D01*
X56471856Y23232205D01*
X56283498Y23310226D01*
X56083539Y23350000D01*
X55879661Y23350000D01*
X55679702Y23310226D01*
X55491344Y23232205D01*
X55321826Y23118937D01*
X55177663Y22974774D01*
X55064395Y22805256D01*
X54986374Y22616898D01*
X54946600Y22416939D01*
X42935030Y22416939D01*
X42945000Y22467061D01*
X42945000Y22670939D01*
X42905226Y22870898D01*
X42827205Y23059256D01*
X42713937Y23228774D01*
X42670000Y23272711D01*
X42670000Y31464289D01*
X42713937Y31508226D01*
X42827205Y31677744D01*
X42905226Y31866102D01*
X42945000Y32066061D01*
X42945000Y32269939D01*
X42905226Y32469898D01*
X42827205Y32658256D01*
X42718036Y32821639D01*
X42718036Y32914289D01*
X42761973Y32958226D01*
X42875241Y33127744D01*
X42953262Y33316102D01*
X42993036Y33516061D01*
X42993036Y33719939D01*
X42953262Y33919898D01*
X42878272Y34100939D01*
X54845000Y34100939D01*
X54845000Y33897061D01*
X54884774Y33697102D01*
X54962795Y33508744D01*
X55076063Y33339226D01*
X55170801Y33244488D01*
X55170800Y32961711D01*
X55126863Y32917774D01*
X55013595Y32748256D01*
X54935574Y32559898D01*
X54895800Y32359939D01*
X54895800Y32156061D01*
X54935574Y31956102D01*
X55013595Y31767744D01*
X55126863Y31598226D01*
X55271026Y31454063D01*
X55440544Y31340795D01*
X55628902Y31262774D01*
X55828861Y31223000D01*
X56032739Y31223000D01*
X56232698Y31262774D01*
X56421056Y31340795D01*
X56590574Y31454063D01*
X56734737Y31598226D01*
X56848005Y31767744D01*
X56926026Y31956102D01*
X56965800Y32156061D01*
X56965800Y32359939D01*
X56926026Y32559898D01*
X56848005Y32748256D01*
X56734737Y32917774D01*
X56690800Y32961711D01*
X56690800Y33349497D01*
X56797205Y33508744D01*
X56875226Y33697102D01*
X56915000Y33897061D01*
X56915000Y34100939D01*
X56875226Y34300898D01*
X56797205Y34489256D01*
X56683937Y34658774D01*
X56539774Y34802937D01*
X56370256Y34916205D01*
X56181898Y34994226D01*
X55981939Y35034000D01*
X55778061Y35034000D01*
X55578102Y34994226D01*
X55389744Y34916205D01*
X55220226Y34802937D01*
X55076063Y34658774D01*
X54962795Y34489256D01*
X54884774Y34300898D01*
X54845000Y34100939D01*
X42878272Y34100939D01*
X42875241Y34108256D01*
X42761973Y34277774D01*
X42617810Y34421937D01*
X42448292Y34535205D01*
X42259934Y34613226D01*
X42059975Y34653000D01*
X41856097Y34653000D01*
X41656138Y34613226D01*
X41516015Y34555185D01*
X41533626Y34597702D01*
X41573400Y34797661D01*
X41573400Y35001539D01*
X41533626Y35201498D01*
X41455605Y35389856D01*
X41342337Y35559374D01*
X41198174Y35703537D01*
X41028656Y35816805D01*
X40840298Y35894826D01*
X40640339Y35934600D01*
X40436461Y35934600D01*
X40236502Y35894826D01*
X40048144Y35816805D01*
X39878626Y35703537D01*
X39734463Y35559374D01*
X39621195Y35389856D01*
X39543174Y35201498D01*
X39503400Y35001539D01*
X39503400Y34797661D01*
X39543174Y34597702D01*
X39621195Y34409344D01*
X39734463Y34239826D01*
X39778400Y34195889D01*
X39778401Y33360203D01*
X39457199Y33039000D01*
X39395061Y33039000D01*
X39195102Y32999226D01*
X39006744Y32921205D01*
X38837226Y32807937D01*
X38693063Y32663774D01*
X38579795Y32494256D01*
X38501774Y32305898D01*
X38462000Y32105939D01*
X23520000Y32105939D01*
X23520000Y38105200D01*
X24259825Y38105200D01*
X24283670Y37863098D01*
X24354289Y37630299D01*
X24468967Y37415751D01*
X24623298Y37227698D01*
X24811351Y37073367D01*
X25025899Y36958689D01*
X25258698Y36888070D01*
X25440135Y36870200D01*
X26361465Y36870200D01*
X26542902Y36888070D01*
X26775701Y36958689D01*
X26990249Y37073367D01*
X27178302Y37227698D01*
X27332633Y37415751D01*
X27447311Y37630299D01*
X27517930Y37863098D01*
X27541775Y38105200D01*
X27523572Y38290019D01*
X27698400Y38236985D01*
X27868821Y38220200D01*
X28132779Y38220200D01*
X28303200Y38236985D01*
X28521860Y38303315D01*
X28723379Y38411029D01*
X28900012Y38555988D01*
X29044971Y38732621D01*
X29152685Y38934140D01*
X29219015Y39152800D01*
X29241412Y39380200D01*
X29219015Y39607600D01*
X29152685Y39826260D01*
X29044971Y40027779D01*
X28900012Y40204412D01*
X28723379Y40349371D01*
X28521860Y40457085D01*
X28303200Y40523415D01*
X28132779Y40540200D01*
X27868821Y40540200D01*
X27698400Y40523415D01*
X27479740Y40457085D01*
X27278221Y40349371D01*
X27101588Y40204412D01*
X26956629Y40027779D01*
X26848915Y39826260D01*
X26782585Y39607600D01*
X26760188Y39380200D01*
X26772755Y39252605D01*
X26542902Y39322330D01*
X26361465Y39340200D01*
X25440135Y39340200D01*
X25258698Y39322330D01*
X25025899Y39251711D01*
X24811351Y39137033D01*
X24623298Y38982702D01*
X24468967Y38794649D01*
X24354289Y38580101D01*
X24283670Y38347302D01*
X24259825Y38105200D01*
X23520000Y38105200D01*
X23520000Y44787591D01*
X24307338Y44787591D01*
X24311209Y44749918D01*
X24403379Y44524667D01*
X24537722Y44321726D01*
X24709075Y44148893D01*
X24910854Y44012810D01*
X25135304Y43918707D01*
X25373800Y43870200D01*
X25773800Y43870200D01*
X25773800Y44978200D01*
X26027800Y44978200D01*
X26027800Y43870200D01*
X26427800Y43870200D01*
X26666296Y43918707D01*
X26773325Y43963580D01*
X26760188Y43830200D01*
X26782585Y43602800D01*
X26848915Y43384140D01*
X26956629Y43182621D01*
X27101588Y43005988D01*
X27278221Y42861029D01*
X27479740Y42753315D01*
X27698400Y42686985D01*
X27868821Y42670200D01*
X28132779Y42670200D01*
X28303200Y42686985D01*
X28521860Y42753315D01*
X28723379Y42861029D01*
X28900012Y43005988D01*
X29044971Y43182621D01*
X29152685Y43384140D01*
X29219015Y43602800D01*
X29241412Y43830200D01*
X29220361Y44043939D01*
X40925800Y44043939D01*
X40925800Y43840061D01*
X40965574Y43640102D01*
X41043595Y43451744D01*
X41156863Y43282226D01*
X41200800Y43238289D01*
X41200801Y43070912D01*
X41156863Y43026974D01*
X41043595Y42857456D01*
X40965574Y42669098D01*
X40925800Y42469139D01*
X40925800Y42265261D01*
X40965574Y42065302D01*
X41043595Y41876944D01*
X41156863Y41707426D01*
X41301026Y41563263D01*
X41470544Y41449995D01*
X41658902Y41371974D01*
X41858861Y41332200D01*
X42062739Y41332200D01*
X42262698Y41371974D01*
X42451056Y41449995D01*
X42620574Y41563263D01*
X42764737Y41707426D01*
X42878005Y41876944D01*
X42956026Y42065302D01*
X42995800Y42265261D01*
X42995800Y42469139D01*
X42956026Y42669098D01*
X42878005Y42857456D01*
X42764737Y43026974D01*
X42720800Y43070911D01*
X42720800Y43238289D01*
X42764737Y43282226D01*
X42878005Y43451744D01*
X42956026Y43640102D01*
X42995800Y43840061D01*
X42995800Y44043939D01*
X42975591Y44145539D01*
X54845000Y44145539D01*
X54845000Y43941661D01*
X54884774Y43741702D01*
X54962795Y43553344D01*
X55076063Y43383826D01*
X55120000Y43339889D01*
X55120001Y43121712D01*
X55076063Y43077774D01*
X54962795Y42908256D01*
X54884774Y42719898D01*
X54845000Y42519939D01*
X54845000Y42316061D01*
X54884774Y42116102D01*
X54962795Y41927744D01*
X55076063Y41758226D01*
X55220226Y41614063D01*
X55389744Y41500795D01*
X55578102Y41422774D01*
X55778061Y41383000D01*
X55981939Y41383000D01*
X56181898Y41422774D01*
X56370256Y41500795D01*
X56539774Y41614063D01*
X56683937Y41758226D01*
X56797205Y41927744D01*
X56875226Y42116102D01*
X56915000Y42316061D01*
X56915000Y42519939D01*
X56875226Y42719898D01*
X56797205Y42908256D01*
X56683937Y43077774D01*
X56640000Y43121711D01*
X56640000Y43339889D01*
X56683937Y43383826D01*
X56797205Y43553344D01*
X56875226Y43741702D01*
X56915000Y43941661D01*
X56915000Y44145539D01*
X56875226Y44345498D01*
X56797205Y44533856D01*
X56683937Y44703374D01*
X56539774Y44847537D01*
X56370256Y44960805D01*
X56181898Y45038826D01*
X55981939Y45078600D01*
X55778061Y45078600D01*
X55578102Y45038826D01*
X55389744Y44960805D01*
X55220226Y44847537D01*
X55076063Y44703374D01*
X54962795Y44533856D01*
X54884774Y44345498D01*
X54845000Y44145539D01*
X42975591Y44145539D01*
X42956026Y44243898D01*
X42878005Y44432256D01*
X42764737Y44601774D01*
X42620574Y44745937D01*
X42451056Y44859205D01*
X42262698Y44937226D01*
X42062739Y44977000D01*
X41858861Y44977000D01*
X41658902Y44937226D01*
X41470544Y44859205D01*
X41301026Y44745937D01*
X41156863Y44601774D01*
X41043595Y44432256D01*
X40965574Y44243898D01*
X40925800Y44043939D01*
X29220361Y44043939D01*
X29219015Y44057600D01*
X29152685Y44276260D01*
X29044971Y44477779D01*
X28900012Y44654412D01*
X28723379Y44799371D01*
X28521860Y44907085D01*
X28303200Y44973415D01*
X28132779Y44990200D01*
X27868821Y44990200D01*
X27698400Y44973415D01*
X27479740Y44907085D01*
X27432567Y44881871D01*
X27369531Y44978200D01*
X26027800Y44978200D01*
X25773800Y44978200D01*
X24432069Y44978200D01*
X24307338Y44787591D01*
X23520000Y44787591D01*
X23520000Y45422809D01*
X24307338Y45422809D01*
X24432069Y45232200D01*
X25773800Y45232200D01*
X25773800Y46340200D01*
X26027800Y46340200D01*
X26027800Y45232200D01*
X27369531Y45232200D01*
X27494262Y45422809D01*
X27490391Y45460482D01*
X27398221Y45685733D01*
X27263878Y45888674D01*
X27092525Y46061507D01*
X26890746Y46197590D01*
X26666296Y46291693D01*
X26427800Y46340200D01*
X26027800Y46340200D01*
X25773800Y46340200D01*
X25373800Y46340200D01*
X25135304Y46291693D01*
X24910854Y46197590D01*
X24709075Y46061507D01*
X24537722Y45888674D01*
X24403379Y45685733D01*
X24311209Y45460482D01*
X24307338Y45422809D01*
X23520000Y45422809D01*
X23520000Y46957582D01*
X23523193Y46990000D01*
X23510450Y47119383D01*
X23472710Y47243793D01*
X23411425Y47358450D01*
X23328948Y47458948D01*
X23228450Y47541425D01*
X23113793Y47602710D01*
X22989383Y47640450D01*
X22892419Y47650000D01*
X22860000Y47653193D01*
X22827581Y47650000D01*
X660000Y47650000D01*
X660000Y49315000D01*
X2321928Y49315000D01*
X2334188Y49190518D01*
X2370498Y49070820D01*
X2429463Y48960506D01*
X2508815Y48863815D01*
X2605506Y48784463D01*
X2715820Y48725498D01*
X2835518Y48689188D01*
X2960000Y48676928D01*
X3524250Y48680000D01*
X3683000Y48838750D01*
X3683000Y50038000D01*
X2483750Y50038000D01*
X2325000Y49879250D01*
X2321928Y49315000D01*
X660000Y49315000D01*
X660000Y51015000D01*
X2321928Y51015000D01*
X2325000Y50450750D01*
X2483750Y50292000D01*
X3683000Y50292000D01*
X3683000Y52578000D01*
X2489186Y52578000D01*
X2368519Y52348109D01*
X2465843Y52073748D01*
X2614822Y51823645D01*
X2791626Y51627498D01*
X2715820Y51604502D01*
X2605506Y51545537D01*
X2508815Y51466185D01*
X2429463Y51369494D01*
X2370498Y51259180D01*
X2334188Y51139482D01*
X2321928Y51015000D01*
X660000Y51015000D01*
X660000Y53950000D01*
X3007363Y53950000D01*
X2809731Y53802588D01*
%TA.AperFunction,Conductor*%
D17*
G36*
X2809731Y53802588D02*
G01*
X2614822Y53586355D01*
X2465843Y53336252D01*
X2368519Y53061891D01*
X2489186Y52832000D01*
X3683000Y52832000D01*
X3683000Y52852000D01*
X3937000Y52852000D01*
X3937000Y52832000D01*
X3957000Y52832000D01*
X3957000Y52578000D01*
X3937000Y52578000D01*
X3937000Y50292000D01*
X3957000Y50292000D01*
X3957000Y50038000D01*
X3937000Y50038000D01*
X3937000Y48838750D01*
X4095750Y48680000D01*
X4660000Y48676928D01*
X4784482Y48689188D01*
X4904180Y48725498D01*
X5014494Y48784463D01*
X5111185Y48863815D01*
X5190537Y48960506D01*
X5249502Y49070820D01*
X5271513Y49143380D01*
X5403368Y49011525D01*
X5646589Y48849010D01*
X5916842Y48737068D01*
X6203740Y48680000D01*
X6496260Y48680000D01*
X6783158Y48737068D01*
X7053411Y48849010D01*
X7296632Y49011525D01*
X7503475Y49218368D01*
X7620000Y49392760D01*
X7736525Y49218368D01*
X7943368Y49011525D01*
X8186589Y48849010D01*
X8456842Y48737068D01*
X8743740Y48680000D01*
X9036260Y48680000D01*
X9323158Y48737068D01*
X9593411Y48849010D01*
X9836632Y49011525D01*
X10043475Y49218368D01*
X10160000Y49392760D01*
X10276525Y49218368D01*
X10483368Y49011525D01*
X10726589Y48849010D01*
X10996842Y48737068D01*
X11283740Y48680000D01*
X11576260Y48680000D01*
X11863158Y48737068D01*
X12133411Y48849010D01*
X12376632Y49011525D01*
X12583475Y49218368D01*
X12700000Y49392760D01*
X12816525Y49218368D01*
X13023368Y49011525D01*
X13266589Y48849010D01*
X13536842Y48737068D01*
X13823740Y48680000D01*
X14116260Y48680000D01*
X14403158Y48737068D01*
X14673411Y48849010D01*
X14916632Y49011525D01*
X15123475Y49218368D01*
X15240000Y49392760D01*
X15356525Y49218368D01*
X15563368Y49011525D01*
X15806589Y48849010D01*
X16076842Y48737068D01*
X16363740Y48680000D01*
X16656260Y48680000D01*
X16943158Y48737068D01*
X17213411Y48849010D01*
X17456632Y49011525D01*
X17663475Y49218368D01*
X17780000Y49392760D01*
X17896525Y49218368D01*
X18103368Y49011525D01*
X18346589Y48849010D01*
X18616842Y48737068D01*
X18903740Y48680000D01*
X19196260Y48680000D01*
X19483158Y48737068D01*
X19753411Y48849010D01*
X19996632Y49011525D01*
X20203475Y49218368D01*
X20320000Y49392760D01*
X20436525Y49218368D01*
X20643368Y49011525D01*
X20886589Y48849010D01*
X21156842Y48737068D01*
X21443740Y48680000D01*
X21736260Y48680000D01*
X22023158Y48737068D01*
X22293411Y48849010D01*
X22536632Y49011525D01*
X22743475Y49218368D01*
X22860000Y49392760D01*
X22976525Y49218368D01*
X23183368Y49011525D01*
X23426589Y48849010D01*
X23696842Y48737068D01*
X23983740Y48680000D01*
X24276260Y48680000D01*
X24563158Y48737068D01*
X24833411Y48849010D01*
X25076632Y49011525D01*
X25283475Y49218368D01*
X25400000Y49392760D01*
X25516525Y49218368D01*
X25723368Y49011525D01*
X25966589Y48849010D01*
X26236842Y48737068D01*
X26523740Y48680000D01*
X26816260Y48680000D01*
X27103158Y48737068D01*
X27373411Y48849010D01*
X27616632Y49011525D01*
X27823475Y49218368D01*
X27940000Y49392760D01*
X28056525Y49218368D01*
X28263368Y49011525D01*
X28506589Y48849010D01*
X28776842Y48737068D01*
X29063740Y48680000D01*
X29356260Y48680000D01*
X29643158Y48737068D01*
X29913411Y48849010D01*
X30156632Y49011525D01*
X30363475Y49218368D01*
X30480000Y49392760D01*
X30596525Y49218368D01*
X30803368Y49011525D01*
X31046589Y48849010D01*
X31316842Y48737068D01*
X31603740Y48680000D01*
X31896260Y48680000D01*
X32183158Y48737068D01*
X32453411Y48849010D01*
X32696632Y49011525D01*
X32903475Y49218368D01*
X33020000Y49392760D01*
X33136525Y49218368D01*
X33343368Y49011525D01*
X33586589Y48849010D01*
X33856842Y48737068D01*
X34143740Y48680000D01*
X34436260Y48680000D01*
X34723158Y48737068D01*
X34993411Y48849010D01*
X35236632Y49011525D01*
X35443475Y49218368D01*
X35560000Y49392760D01*
X35676525Y49218368D01*
X35883368Y49011525D01*
X36126589Y48849010D01*
X36396842Y48737068D01*
X36683740Y48680000D01*
X36976260Y48680000D01*
X37263158Y48737068D01*
X37533411Y48849010D01*
X37776632Y49011525D01*
X37983475Y49218368D01*
X38100000Y49392760D01*
X38216525Y49218368D01*
X38423368Y49011525D01*
X38666589Y48849010D01*
X38936842Y48737068D01*
X39223740Y48680000D01*
X39516260Y48680000D01*
X39803158Y48737068D01*
X40073411Y48849010D01*
X40316632Y49011525D01*
X40523475Y49218368D01*
X40640000Y49392760D01*
X40756525Y49218368D01*
X40963368Y49011525D01*
X41206589Y48849010D01*
X41476842Y48737068D01*
X41763740Y48680000D01*
X42056260Y48680000D01*
X42343158Y48737068D01*
X42613411Y48849010D01*
X42856632Y49011525D01*
X43063475Y49218368D01*
X43180000Y49392760D01*
X43296525Y49218368D01*
X43503368Y49011525D01*
X43746589Y48849010D01*
X44016842Y48737068D01*
X44303740Y48680000D01*
X44596260Y48680000D01*
X44883158Y48737068D01*
X45153411Y48849010D01*
X45396632Y49011525D01*
X45603475Y49218368D01*
X45720000Y49392760D01*
X45836525Y49218368D01*
X46043368Y49011525D01*
X46286589Y48849010D01*
X46556842Y48737068D01*
X46843740Y48680000D01*
X47136260Y48680000D01*
X47423158Y48737068D01*
X47693411Y48849010D01*
X47936632Y49011525D01*
X48143475Y49218368D01*
X48260000Y49392760D01*
X48376525Y49218368D01*
X48583368Y49011525D01*
X48826589Y48849010D01*
X49096842Y48737068D01*
X49383740Y48680000D01*
X49676260Y48680000D01*
X49963158Y48737068D01*
X50233411Y48849010D01*
X50476632Y49011525D01*
X50683475Y49218368D01*
X50800000Y49392760D01*
X50916525Y49218368D01*
X51123368Y49011525D01*
X51366589Y48849010D01*
X51636842Y48737068D01*
X51923740Y48680000D01*
X52216260Y48680000D01*
X52503158Y48737068D01*
X52773411Y48849010D01*
X53016632Y49011525D01*
X53223475Y49218368D01*
X53340000Y49392760D01*
X53456525Y49218368D01*
X53663368Y49011525D01*
X53906589Y48849010D01*
X54176842Y48737068D01*
X54463740Y48680000D01*
X54756260Y48680000D01*
X55043158Y48737068D01*
X55313411Y48849010D01*
X55556632Y49011525D01*
X55763475Y49218368D01*
X55880000Y49392760D01*
X55996525Y49218368D01*
X56203368Y49011525D01*
X56446589Y48849010D01*
X56716842Y48737068D01*
X57003740Y48680000D01*
X57296260Y48680000D01*
X57583158Y48737068D01*
X57853411Y48849010D01*
X58096632Y49011525D01*
X58303475Y49218368D01*
X58420000Y49392760D01*
X58536525Y49218368D01*
X58743368Y49011525D01*
X58986589Y48849010D01*
X59256842Y48737068D01*
X59543740Y48680000D01*
X59836260Y48680000D01*
X60123158Y48737068D01*
X60393411Y48849010D01*
X60636632Y49011525D01*
X60843475Y49218368D01*
X61005990Y49461589D01*
X61117932Y49731842D01*
X61175000Y50018740D01*
X61175000Y50311260D01*
X61117932Y50598158D01*
X61005990Y50868411D01*
X60843475Y51111632D01*
X60636632Y51318475D01*
X60462240Y51435000D01*
X60636632Y51551525D01*
X60843475Y51758368D01*
X61005990Y52001589D01*
X61117932Y52271842D01*
X61175000Y52558740D01*
X61175000Y52851260D01*
X61117932Y53138158D01*
X61005990Y53408411D01*
X60843475Y53651632D01*
X60636632Y53858475D01*
X60499655Y53950000D01*
X62840001Y53950000D01*
X62840000Y660000D01*
X60492637Y660000D01*
X60690269Y807412D01*
X60885178Y1023645D01*
X61034157Y1273748D01*
X61131481Y1548109D01*
X61010814Y1778000D01*
X59817000Y1778000D01*
X59817000Y1758000D01*
X59563000Y1758000D01*
X59563000Y1778000D01*
X57277000Y1778000D01*
X57277000Y1758000D01*
X57023000Y1758000D01*
X57023000Y1778000D01*
X57003000Y1778000D01*
X57003000Y2032000D01*
X57023000Y2032000D01*
X57023000Y4318000D01*
X57277000Y4318000D01*
X57277000Y2032000D01*
X59563000Y2032000D01*
X59563000Y4318000D01*
X59817000Y4318000D01*
X59817000Y2032000D01*
X61010814Y2032000D01*
X61131481Y2261891D01*
X61034157Y2536252D01*
X60885178Y2786355D01*
X60690269Y3002588D01*
X60459120Y3175000D01*
X60690269Y3347412D01*
X60885178Y3563645D01*
X61034157Y3813748D01*
X61131481Y4088109D01*
X61010814Y4318000D01*
X59817000Y4318000D01*
X59563000Y4318000D01*
X57277000Y4318000D01*
X57023000Y4318000D01*
X57003000Y4318000D01*
X57003000Y4572000D01*
X57023000Y4572000D01*
X57023000Y5765155D01*
X57277000Y5765155D01*
X57277000Y4572000D01*
X59563000Y4572000D01*
X59563000Y5765155D01*
X59817000Y5765155D01*
X59817000Y4572000D01*
X61010814Y4572000D01*
X61131481Y4801891D01*
X61034157Y5076252D01*
X60885178Y5326355D01*
X60690269Y5542588D01*
X60456920Y5716641D01*
X60194099Y5841825D01*
X60046890Y5886476D01*
X59817000Y5765155D01*
X59563000Y5765155D01*
X59333110Y5886476D01*
X59185901Y5841825D01*
X58923080Y5716641D01*
X58689731Y5542588D01*
X58494822Y5326355D01*
X58420000Y5200745D01*
X58345178Y5326355D01*
X58150269Y5542588D01*
X57916920Y5716641D01*
X57654099Y5841825D01*
X57506890Y5886476D01*
X57277000Y5765155D01*
X57023000Y5765155D01*
X56793110Y5886476D01*
X56645901Y5841825D01*
X56383080Y5716641D01*
X56149731Y5542588D01*
X55954822Y5326355D01*
X55885195Y5209466D01*
X55763475Y5391632D01*
X55556632Y5598475D01*
X55313411Y5760990D01*
X55043158Y5872932D01*
X54756260Y5930000D01*
X54463740Y5930000D01*
X54176842Y5872932D01*
X53906589Y5760990D01*
X53663368Y5598475D01*
X53456525Y5391632D01*
X53340000Y5217240D01*
X53223475Y5391632D01*
X53016632Y5598475D01*
X52773411Y5760990D01*
X52503158Y5872932D01*
X52216260Y5930000D01*
X51923740Y5930000D01*
X51636842Y5872932D01*
X51366589Y5760990D01*
X51123368Y5598475D01*
X50916525Y5391632D01*
X50800000Y5217240D01*
X50683475Y5391632D01*
X50476632Y5598475D01*
X50233411Y5760990D01*
X49963158Y5872932D01*
X49676260Y5930000D01*
X49383740Y5930000D01*
X49096842Y5872932D01*
X48826589Y5760990D01*
X48583368Y5598475D01*
X48376525Y5391632D01*
X48260000Y5217240D01*
X48143475Y5391632D01*
X47936632Y5598475D01*
X47693411Y5760990D01*
X47423158Y5872932D01*
X47136260Y5930000D01*
X46843740Y5930000D01*
X46556842Y5872932D01*
X46286589Y5760990D01*
X46043368Y5598475D01*
X45836525Y5391632D01*
X45720000Y5217240D01*
X45603475Y5391632D01*
X45396632Y5598475D01*
X45153411Y5760990D01*
X44883158Y5872932D01*
X44596260Y5930000D01*
X44303740Y5930000D01*
X44016842Y5872932D01*
X43746589Y5760990D01*
X43503368Y5598475D01*
X43296525Y5391632D01*
X43180000Y5217240D01*
X43063475Y5391632D01*
X42856632Y5598475D01*
X42613411Y5760990D01*
X42343158Y5872932D01*
X42056260Y5930000D01*
X41763740Y5930000D01*
X41476842Y5872932D01*
X41206589Y5760990D01*
X40963368Y5598475D01*
X40756525Y5391632D01*
X40640000Y5217240D01*
X40523475Y5391632D01*
X40316632Y5598475D01*
X40073411Y5760990D01*
X39803158Y5872932D01*
X39516260Y5930000D01*
X39223740Y5930000D01*
X38936842Y5872932D01*
X38666589Y5760990D01*
X38423368Y5598475D01*
X38216525Y5391632D01*
X38100000Y5217240D01*
X37983475Y5391632D01*
X37776632Y5598475D01*
X37533411Y5760990D01*
X37263158Y5872932D01*
X36976260Y5930000D01*
X36683740Y5930000D01*
X36396842Y5872932D01*
X36126589Y5760990D01*
X35883368Y5598475D01*
X35676525Y5391632D01*
X35560000Y5217240D01*
X35443475Y5391632D01*
X35236632Y5598475D01*
X34993411Y5760990D01*
X34723158Y5872932D01*
X34436260Y5930000D01*
X34143740Y5930000D01*
X33856842Y5872932D01*
X33586589Y5760990D01*
X33343368Y5598475D01*
X33136525Y5391632D01*
X33020000Y5217240D01*
X32903475Y5391632D01*
X32696632Y5598475D01*
X32453411Y5760990D01*
X32183158Y5872932D01*
X31896260Y5930000D01*
X31603740Y5930000D01*
X31316842Y5872932D01*
X31046589Y5760990D01*
X30803368Y5598475D01*
X30596525Y5391632D01*
X30480000Y5217240D01*
X30363475Y5391632D01*
X30156632Y5598475D01*
X29913411Y5760990D01*
X29643158Y5872932D01*
X29356260Y5930000D01*
X29063740Y5930000D01*
X28776842Y5872932D01*
X28506589Y5760990D01*
X28263368Y5598475D01*
X28056525Y5391632D01*
X27940000Y5217240D01*
X27823475Y5391632D01*
X27616632Y5598475D01*
X27373411Y5760990D01*
X27103158Y5872932D01*
X26816260Y5930000D01*
X26523740Y5930000D01*
X26236842Y5872932D01*
X25966589Y5760990D01*
X25723368Y5598475D01*
X25516525Y5391632D01*
X25400000Y5217240D01*
X25283475Y5391632D01*
X25076632Y5598475D01*
X24833411Y5760990D01*
X24563158Y5872932D01*
X24276260Y5930000D01*
X23983740Y5930000D01*
X23696842Y5872932D01*
X23426589Y5760990D01*
X23183368Y5598475D01*
X22976525Y5391632D01*
X22860000Y5217240D01*
X22743475Y5391632D01*
X22536632Y5598475D01*
X22293411Y5760990D01*
X22023158Y5872932D01*
X21736260Y5930000D01*
X21443740Y5930000D01*
X21156842Y5872932D01*
X20886589Y5760990D01*
X20643368Y5598475D01*
X20436525Y5391632D01*
X20320000Y5217240D01*
X20203475Y5391632D01*
X19996632Y5598475D01*
X19753411Y5760990D01*
X19483158Y5872932D01*
X19196260Y5930000D01*
X18903740Y5930000D01*
X18616842Y5872932D01*
X18346589Y5760990D01*
X18103368Y5598475D01*
X17896525Y5391632D01*
X17780000Y5217240D01*
X17663475Y5391632D01*
X17456632Y5598475D01*
X17213411Y5760990D01*
X16943158Y5872932D01*
X16656260Y5930000D01*
X16363740Y5930000D01*
X16076842Y5872932D01*
X15806589Y5760990D01*
X15563368Y5598475D01*
X15356525Y5391632D01*
X15240000Y5217240D01*
X15123475Y5391632D01*
X14916632Y5598475D01*
X14673411Y5760990D01*
X14403158Y5872932D01*
X14116260Y5930000D01*
X13823740Y5930000D01*
X13536842Y5872932D01*
X13266589Y5760990D01*
X13023368Y5598475D01*
X12816525Y5391632D01*
X12700000Y5217240D01*
X12583475Y5391632D01*
X12376632Y5598475D01*
X12133411Y5760990D01*
X11863158Y5872932D01*
X11576260Y5930000D01*
X11283740Y5930000D01*
X10996842Y5872932D01*
X10726589Y5760990D01*
X10483368Y5598475D01*
X10276525Y5391632D01*
X10160000Y5217240D01*
X10043475Y5391632D01*
X9836632Y5598475D01*
X9593411Y5760990D01*
X9323158Y5872932D01*
X9036260Y5930000D01*
X8743740Y5930000D01*
X8456842Y5872932D01*
X8186589Y5760990D01*
X7943368Y5598475D01*
X7736525Y5391632D01*
X7620000Y5217240D01*
X7503475Y5391632D01*
X7296632Y5598475D01*
X7053411Y5760990D01*
X6783158Y5872932D01*
X6496260Y5930000D01*
X6203740Y5930000D01*
X5916842Y5872932D01*
X5646589Y5760990D01*
X5403368Y5598475D01*
X5196525Y5391632D01*
X5074805Y5209466D01*
X5005178Y5326355D01*
X4810269Y5542588D01*
X4576920Y5716641D01*
X4314099Y5841825D01*
X4166890Y5886476D01*
X3937000Y5765155D01*
X3937000Y4572000D01*
X3957000Y4572000D01*
X3957000Y4318000D01*
X3937000Y4318000D01*
X3937000Y2032000D01*
X3957000Y2032000D01*
X3957000Y1778000D01*
X3937000Y1778000D01*
X3937000Y1758000D01*
X3683000Y1758000D01*
X3683000Y1778000D01*
X2483750Y1778000D01*
X2325000Y1619250D01*
X2321928Y1055000D01*
X2334188Y930518D01*
X2370498Y810820D01*
X2429463Y700506D01*
X2462705Y660000D01*
X660000Y660000D01*
X660000Y2755000D01*
X2321928Y2755000D01*
X2325000Y2190750D01*
X2483750Y2032000D01*
X3683000Y2032000D01*
X3683000Y4318000D01*
X2489186Y4318000D01*
X2368519Y4088109D01*
X2465843Y3813748D01*
X2614822Y3563645D01*
X2791626Y3367498D01*
X2715820Y3344502D01*
X2605506Y3285537D01*
X2508815Y3206185D01*
X2429463Y3109494D01*
X2370498Y2999180D01*
X2334188Y2879482D01*
X2321928Y2755000D01*
X660000Y2755000D01*
X660000Y4801891D01*
X2368519Y4801891D01*
X2489186Y4572000D01*
X3683000Y4572000D01*
X3683000Y5765155D01*
X3453110Y5886476D01*
X3305901Y5841825D01*
X3043080Y5716641D01*
X2809731Y5542588D01*
X2614822Y5326355D01*
X2465843Y5076252D01*
X2368519Y4801891D01*
X660000Y4801891D01*
X660000Y6960000D01*
X22827581Y6960000D01*
X22860000Y6956807D01*
X22892419Y6960000D01*
X22989383Y6969550D01*
X23113793Y7007290D01*
X23228450Y7068575D01*
X23328948Y7151052D01*
X23411425Y7251550D01*
X23472710Y7366207D01*
X23510450Y7490617D01*
X23523193Y7620000D01*
X23520000Y7652419D01*
X23520000Y11633539D01*
X28378200Y11633539D01*
X28378200Y11429661D01*
X28417974Y11229702D01*
X28495995Y11041344D01*
X28609263Y10871826D01*
X28753426Y10727663D01*
X28922944Y10614395D01*
X29111302Y10536374D01*
X29311261Y10496600D01*
X29373399Y10496600D01*
X30039215Y9830783D01*
X30063013Y9801785D01*
X30087642Y9781573D01*
X30154166Y9682012D01*
X30298329Y9537849D01*
X30467847Y9424581D01*
X30656205Y9346560D01*
X30856164Y9306786D01*
X31060042Y9306786D01*
X31260001Y9346560D01*
X31448359Y9424581D01*
X31617877Y9537849D01*
X31762040Y9682012D01*
X31875308Y9851530D01*
X31953329Y10039888D01*
X31993103Y10239847D01*
X31993103Y10443725D01*
X31953329Y10643684D01*
X31938312Y10679939D01*
X40824200Y10679939D01*
X40824200Y10476061D01*
X40863974Y10276102D01*
X40941995Y10087744D01*
X41055263Y9918226D01*
X41199426Y9774063D01*
X41368944Y9660795D01*
X41557302Y9582774D01*
X41757261Y9543000D01*
X41961139Y9543000D01*
X42161098Y9582774D01*
X42349456Y9660795D01*
X42518974Y9774063D01*
X42663137Y9918226D01*
X42776405Y10087744D01*
X42854426Y10276102D01*
X42894200Y10476061D01*
X42894200Y10679939D01*
X42854426Y10879898D01*
X42776405Y11068256D01*
X42670000Y11227503D01*
X42670000Y11335889D01*
X42713937Y11379826D01*
X42827205Y11549344D01*
X42905226Y11737702D01*
X42945000Y11937661D01*
X42945000Y12141539D01*
X42905226Y12341498D01*
X42887647Y12383939D01*
X54794200Y12383939D01*
X54794200Y12180061D01*
X54833974Y11980102D01*
X54911995Y11791744D01*
X55025263Y11622226D01*
X55141289Y11506200D01*
X55126863Y11491774D01*
X55013595Y11322256D01*
X54935574Y11133898D01*
X54895800Y10933939D01*
X54895800Y10730061D01*
X54935574Y10530102D01*
X55013595Y10341744D01*
X55126863Y10172226D01*
X55271026Y10028063D01*
X55440544Y9914795D01*
X55628902Y9836774D01*
X55828861Y9797000D01*
X56032739Y9797000D01*
X56232698Y9836774D01*
X56421056Y9914795D01*
X56590574Y10028063D01*
X56734737Y10172226D01*
X56848005Y10341744D01*
X56926026Y10530102D01*
X56965800Y10730061D01*
X56965800Y10933939D01*
X56926026Y11133898D01*
X56848005Y11322256D01*
X56734737Y11491774D01*
X56690800Y11535711D01*
X56690800Y11708525D01*
X56746405Y11791744D01*
X56824426Y11980102D01*
X56864200Y12180061D01*
X56864200Y12383939D01*
X56824426Y12583898D01*
X56746405Y12772256D01*
X56633137Y12941774D01*
X56488974Y13085937D01*
X56319456Y13199205D01*
X56131098Y13277226D01*
X55931139Y13317000D01*
X55727261Y13317000D01*
X55527302Y13277226D01*
X55338944Y13199205D01*
X55169426Y13085937D01*
X55025263Y12941774D01*
X54911995Y12772256D01*
X54833974Y12583898D01*
X54794200Y12383939D01*
X42887647Y12383939D01*
X42827205Y12529856D01*
X42713937Y12699374D01*
X42569774Y12843537D01*
X42400256Y12956805D01*
X42211898Y13034826D01*
X42011939Y13074600D01*
X41808061Y13074600D01*
X41608102Y13034826D01*
X41419744Y12956805D01*
X41250226Y12843537D01*
X41106063Y12699374D01*
X40992795Y12529856D01*
X40914774Y12341498D01*
X40875000Y12141539D01*
X40875000Y11937661D01*
X40914774Y11737702D01*
X40992795Y11549344D01*
X41106063Y11379826D01*
X41150000Y11335889D01*
X41150001Y11332512D01*
X41055263Y11237774D01*
X40941995Y11068256D01*
X40863974Y10879898D01*
X40824200Y10679939D01*
X31938312Y10679939D01*
X31875308Y10832042D01*
X31762040Y11001560D01*
X31617877Y11145723D01*
X31448359Y11258991D01*
X31260001Y11337012D01*
X31060042Y11376786D01*
X30856164Y11376786D01*
X30678212Y11341389D01*
X30448200Y11571401D01*
X30448200Y11633539D01*
X30408426Y11833498D01*
X30330405Y12021856D01*
X30217137Y12191374D01*
X30072974Y12335537D01*
X29903456Y12448805D01*
X29715098Y12526826D01*
X29515139Y12566600D01*
X29311261Y12566600D01*
X29111302Y12526826D01*
X28922944Y12448805D01*
X28753426Y12335537D01*
X28609263Y12191374D01*
X28495995Y12021856D01*
X28417974Y11833498D01*
X28378200Y11633539D01*
X23520000Y11633539D01*
X23520000Y15240339D01*
X27260600Y15240339D01*
X27260600Y15036461D01*
X27300374Y14836502D01*
X27378395Y14648144D01*
X27491663Y14478626D01*
X27635826Y14334463D01*
X27805344Y14221195D01*
X27993702Y14143174D01*
X28193661Y14103400D01*
X28397539Y14103400D01*
X28597498Y14143174D01*
X28785856Y14221195D01*
X28955374Y14334463D01*
X28999311Y14378400D01*
X31181199Y14378400D01*
X31802801Y13756797D01*
X31802800Y13200511D01*
X31758863Y13156574D01*
X31645595Y12987056D01*
X31567574Y12798698D01*
X31527800Y12598739D01*
X31527800Y12394861D01*
X31567574Y12194902D01*
X31645595Y12006544D01*
X31758863Y11837026D01*
X31903026Y11692863D01*
X32072544Y11579595D01*
X32260902Y11501574D01*
X32460861Y11461800D01*
X32664739Y11461800D01*
X32864698Y11501574D01*
X33053056Y11579595D01*
X33222574Y11692863D01*
X33366737Y11837026D01*
X33480005Y12006544D01*
X33558026Y12194902D01*
X33597800Y12394861D01*
X33597800Y12598739D01*
X33558026Y12798698D01*
X33480005Y12987056D01*
X33366737Y13156574D01*
X33322800Y13200511D01*
X33322800Y14034278D01*
X33326476Y14071601D01*
X33322800Y14108924D01*
X33322800Y14108933D01*
X33311803Y14220586D01*
X33268346Y14363847D01*
X33254689Y14389397D01*
X33197774Y14495877D01*
X33126599Y14582603D01*
X33102801Y14611601D01*
X33073803Y14635399D01*
X32059804Y15649398D01*
X32036001Y15678401D01*
X31920276Y15773374D01*
X31788247Y15843946D01*
X31644986Y15887403D01*
X31533333Y15898400D01*
X31533322Y15898400D01*
X31496000Y15902076D01*
X31458678Y15898400D01*
X28999311Y15898400D01*
X28955374Y15942337D01*
X28785856Y16055605D01*
X28597498Y16133626D01*
X28397539Y16173400D01*
X28193661Y16173400D01*
X27993702Y16133626D01*
X27805344Y16055605D01*
X27635826Y15942337D01*
X27491663Y15798174D01*
X27378395Y15628656D01*
X27300374Y15440298D01*
X27260600Y15240339D01*
X23520000Y15240339D01*
X23520000Y32105939D01*
X38462000Y32105939D01*
X38462000Y31902061D01*
X38501774Y31702102D01*
X38579795Y31513744D01*
X38693063Y31344226D01*
X38837226Y31200063D01*
X39006744Y31086795D01*
X39195102Y31008774D01*
X39395061Y30969000D01*
X39598939Y30969000D01*
X39798898Y31008774D01*
X39987256Y31086795D01*
X40156774Y31200063D01*
X40300937Y31344226D01*
X40414205Y31513744D01*
X40492226Y31702102D01*
X40532000Y31902061D01*
X40532000Y31964199D01*
X40884251Y32316450D01*
X40875000Y32269939D01*
X40875000Y32066061D01*
X40914774Y31866102D01*
X40992795Y31677744D01*
X41106063Y31508226D01*
X41150000Y31464289D01*
X41150001Y23272712D01*
X41106063Y23228774D01*
X40992795Y23059256D01*
X40914774Y22870898D01*
X40875000Y22670939D01*
X40875000Y22467061D01*
X40914774Y22267102D01*
X40992795Y22078744D01*
X41106063Y21909226D01*
X41145889Y21869400D01*
X41055263Y21778774D01*
X40941995Y21609256D01*
X40863974Y21420898D01*
X40824200Y21220939D01*
X40824200Y21017061D01*
X40863974Y20817102D01*
X40941995Y20628744D01*
X41055263Y20459226D01*
X41199426Y20315063D01*
X41368944Y20201795D01*
X41557302Y20123774D01*
X41757261Y20084000D01*
X41961139Y20084000D01*
X42161098Y20123774D01*
X42349456Y20201795D01*
X42518974Y20315063D01*
X42663137Y20459226D01*
X42776405Y20628744D01*
X42854426Y20817102D01*
X42894200Y21017061D01*
X42894200Y21220939D01*
X42854426Y21420898D01*
X42776405Y21609256D01*
X42670000Y21768503D01*
X42670000Y21865289D01*
X42713937Y21909226D01*
X42827205Y22078744D01*
X42905226Y22267102D01*
X42935030Y22416939D01*
X54946600Y22416939D01*
X54946600Y22213061D01*
X54986374Y22013102D01*
X55064395Y21824744D01*
X55177663Y21655226D01*
X55221601Y21611288D01*
X55221600Y21568711D01*
X55177663Y21524774D01*
X55064395Y21355256D01*
X54986374Y21166898D01*
X54946600Y20966939D01*
X54946600Y20763061D01*
X54986374Y20563102D01*
X55064395Y20374744D01*
X55177663Y20205226D01*
X55321826Y20061063D01*
X55491344Y19947795D01*
X55679702Y19869774D01*
X55879661Y19830000D01*
X56083539Y19830000D01*
X56283498Y19869774D01*
X56471856Y19947795D01*
X56641374Y20061063D01*
X56785537Y20205226D01*
X56898805Y20374744D01*
X56976826Y20563102D01*
X57016600Y20763061D01*
X57016600Y20966939D01*
X56976826Y21166898D01*
X56898805Y21355256D01*
X56785537Y21524774D01*
X56741600Y21568711D01*
X56741600Y21611289D01*
X56785537Y21655226D01*
X56898805Y21824744D01*
X56976826Y22013102D01*
X57016600Y22213061D01*
X57016600Y22416939D01*
X56976826Y22616898D01*
X56898805Y22805256D01*
X56785537Y22974774D01*
X56641374Y23118937D01*
X56471856Y23232205D01*
X56283498Y23310226D01*
X56083539Y23350000D01*
X55879661Y23350000D01*
X55679702Y23310226D01*
X55491344Y23232205D01*
X55321826Y23118937D01*
X55177663Y22974774D01*
X55064395Y22805256D01*
X54986374Y22616898D01*
X54946600Y22416939D01*
X42935030Y22416939D01*
X42945000Y22467061D01*
X42945000Y22670939D01*
X42905226Y22870898D01*
X42827205Y23059256D01*
X42713937Y23228774D01*
X42670000Y23272711D01*
X42670000Y31464289D01*
X42713937Y31508226D01*
X42827205Y31677744D01*
X42905226Y31866102D01*
X42945000Y32066061D01*
X42945000Y32269939D01*
X42905226Y32469898D01*
X42827205Y32658256D01*
X42718036Y32821639D01*
X42718036Y32914289D01*
X42761973Y32958226D01*
X42875241Y33127744D01*
X42953262Y33316102D01*
X42993036Y33516061D01*
X42993036Y33719939D01*
X42953262Y33919898D01*
X42878272Y34100939D01*
X54845000Y34100939D01*
X54845000Y33897061D01*
X54884774Y33697102D01*
X54962795Y33508744D01*
X55076063Y33339226D01*
X55170801Y33244488D01*
X55170800Y32961711D01*
X55126863Y32917774D01*
X55013595Y32748256D01*
X54935574Y32559898D01*
X54895800Y32359939D01*
X54895800Y32156061D01*
X54935574Y31956102D01*
X55013595Y31767744D01*
X55126863Y31598226D01*
X55271026Y31454063D01*
X55440544Y31340795D01*
X55628902Y31262774D01*
X55828861Y31223000D01*
X56032739Y31223000D01*
X56232698Y31262774D01*
X56421056Y31340795D01*
X56590574Y31454063D01*
X56734737Y31598226D01*
X56848005Y31767744D01*
X56926026Y31956102D01*
X56965800Y32156061D01*
X56965800Y32359939D01*
X56926026Y32559898D01*
X56848005Y32748256D01*
X56734737Y32917774D01*
X56690800Y32961711D01*
X56690800Y33349497D01*
X56797205Y33508744D01*
X56875226Y33697102D01*
X56915000Y33897061D01*
X56915000Y34100939D01*
X56875226Y34300898D01*
X56797205Y34489256D01*
X56683937Y34658774D01*
X56539774Y34802937D01*
X56370256Y34916205D01*
X56181898Y34994226D01*
X55981939Y35034000D01*
X55778061Y35034000D01*
X55578102Y34994226D01*
X55389744Y34916205D01*
X55220226Y34802937D01*
X55076063Y34658774D01*
X54962795Y34489256D01*
X54884774Y34300898D01*
X54845000Y34100939D01*
X42878272Y34100939D01*
X42875241Y34108256D01*
X42761973Y34277774D01*
X42617810Y34421937D01*
X42448292Y34535205D01*
X42259934Y34613226D01*
X42059975Y34653000D01*
X41856097Y34653000D01*
X41656138Y34613226D01*
X41516015Y34555185D01*
X41533626Y34597702D01*
X41573400Y34797661D01*
X41573400Y35001539D01*
X41533626Y35201498D01*
X41455605Y35389856D01*
X41342337Y35559374D01*
X41198174Y35703537D01*
X41028656Y35816805D01*
X40840298Y35894826D01*
X40640339Y35934600D01*
X40436461Y35934600D01*
X40236502Y35894826D01*
X40048144Y35816805D01*
X39878626Y35703537D01*
X39734463Y35559374D01*
X39621195Y35389856D01*
X39543174Y35201498D01*
X39503400Y35001539D01*
X39503400Y34797661D01*
X39543174Y34597702D01*
X39621195Y34409344D01*
X39734463Y34239826D01*
X39778400Y34195889D01*
X39778401Y33360203D01*
X39457199Y33039000D01*
X39395061Y33039000D01*
X39195102Y32999226D01*
X39006744Y32921205D01*
X38837226Y32807937D01*
X38693063Y32663774D01*
X38579795Y32494256D01*
X38501774Y32305898D01*
X38462000Y32105939D01*
X23520000Y32105939D01*
X23520000Y38105200D01*
X24259825Y38105200D01*
X24283670Y37863098D01*
X24354289Y37630299D01*
X24468967Y37415751D01*
X24623298Y37227698D01*
X24811351Y37073367D01*
X25025899Y36958689D01*
X25258698Y36888070D01*
X25440135Y36870200D01*
X26361465Y36870200D01*
X26542902Y36888070D01*
X26775701Y36958689D01*
X26990249Y37073367D01*
X27178302Y37227698D01*
X27332633Y37415751D01*
X27447311Y37630299D01*
X27517930Y37863098D01*
X27541775Y38105200D01*
X27523572Y38290019D01*
X27698400Y38236985D01*
X27868821Y38220200D01*
X28132779Y38220200D01*
X28303200Y38236985D01*
X28521860Y38303315D01*
X28723379Y38411029D01*
X28900012Y38555988D01*
X29044971Y38732621D01*
X29152685Y38934140D01*
X29219015Y39152800D01*
X29241412Y39380200D01*
X29219015Y39607600D01*
X29152685Y39826260D01*
X29044971Y40027779D01*
X28900012Y40204412D01*
X28723379Y40349371D01*
X28521860Y40457085D01*
X28303200Y40523415D01*
X28132779Y40540200D01*
X27868821Y40540200D01*
X27698400Y40523415D01*
X27479740Y40457085D01*
X27278221Y40349371D01*
X27101588Y40204412D01*
X26956629Y40027779D01*
X26848915Y39826260D01*
X26782585Y39607600D01*
X26760188Y39380200D01*
X26772755Y39252605D01*
X26542902Y39322330D01*
X26361465Y39340200D01*
X25440135Y39340200D01*
X25258698Y39322330D01*
X25025899Y39251711D01*
X24811351Y39137033D01*
X24623298Y38982702D01*
X24468967Y38794649D01*
X24354289Y38580101D01*
X24283670Y38347302D01*
X24259825Y38105200D01*
X23520000Y38105200D01*
X23520000Y44787591D01*
X24307338Y44787591D01*
X24311209Y44749918D01*
X24403379Y44524667D01*
X24537722Y44321726D01*
X24709075Y44148893D01*
X24910854Y44012810D01*
X25135304Y43918707D01*
X25373800Y43870200D01*
X25773800Y43870200D01*
X25773800Y44978200D01*
X26027800Y44978200D01*
X26027800Y43870200D01*
X26427800Y43870200D01*
X26666296Y43918707D01*
X26773325Y43963580D01*
X26760188Y43830200D01*
X26782585Y43602800D01*
X26848915Y43384140D01*
X26956629Y43182621D01*
X27101588Y43005988D01*
X27278221Y42861029D01*
X27479740Y42753315D01*
X27698400Y42686985D01*
X27868821Y42670200D01*
X28132779Y42670200D01*
X28303200Y42686985D01*
X28521860Y42753315D01*
X28723379Y42861029D01*
X28900012Y43005988D01*
X29044971Y43182621D01*
X29152685Y43384140D01*
X29219015Y43602800D01*
X29241412Y43830200D01*
X29220361Y44043939D01*
X40925800Y44043939D01*
X40925800Y43840061D01*
X40965574Y43640102D01*
X41043595Y43451744D01*
X41156863Y43282226D01*
X41200800Y43238289D01*
X41200801Y43070912D01*
X41156863Y43026974D01*
X41043595Y42857456D01*
X40965574Y42669098D01*
X40925800Y42469139D01*
X40925800Y42265261D01*
X40965574Y42065302D01*
X41043595Y41876944D01*
X41156863Y41707426D01*
X41301026Y41563263D01*
X41470544Y41449995D01*
X41658902Y41371974D01*
X41858861Y41332200D01*
X42062739Y41332200D01*
X42262698Y41371974D01*
X42451056Y41449995D01*
X42620574Y41563263D01*
X42764737Y41707426D01*
X42878005Y41876944D01*
X42956026Y42065302D01*
X42995800Y42265261D01*
X42995800Y42469139D01*
X42956026Y42669098D01*
X42878005Y42857456D01*
X42764737Y43026974D01*
X42720800Y43070911D01*
X42720800Y43238289D01*
X42764737Y43282226D01*
X42878005Y43451744D01*
X42956026Y43640102D01*
X42995800Y43840061D01*
X42995800Y44043939D01*
X42975591Y44145539D01*
X54845000Y44145539D01*
X54845000Y43941661D01*
X54884774Y43741702D01*
X54962795Y43553344D01*
X55076063Y43383826D01*
X55120000Y43339889D01*
X55120001Y43121712D01*
X55076063Y43077774D01*
X54962795Y42908256D01*
X54884774Y42719898D01*
X54845000Y42519939D01*
X54845000Y42316061D01*
X54884774Y42116102D01*
X54962795Y41927744D01*
X55076063Y41758226D01*
X55220226Y41614063D01*
X55389744Y41500795D01*
X55578102Y41422774D01*
X55778061Y41383000D01*
X55981939Y41383000D01*
X56181898Y41422774D01*
X56370256Y41500795D01*
X56539774Y41614063D01*
X56683937Y41758226D01*
X56797205Y41927744D01*
X56875226Y42116102D01*
X56915000Y42316061D01*
X56915000Y42519939D01*
X56875226Y42719898D01*
X56797205Y42908256D01*
X56683937Y43077774D01*
X56640000Y43121711D01*
X56640000Y43339889D01*
X56683937Y43383826D01*
X56797205Y43553344D01*
X56875226Y43741702D01*
X56915000Y43941661D01*
X56915000Y44145539D01*
X56875226Y44345498D01*
X56797205Y44533856D01*
X56683937Y44703374D01*
X56539774Y44847537D01*
X56370256Y44960805D01*
X56181898Y45038826D01*
X55981939Y45078600D01*
X55778061Y45078600D01*
X55578102Y45038826D01*
X55389744Y44960805D01*
X55220226Y44847537D01*
X55076063Y44703374D01*
X54962795Y44533856D01*
X54884774Y44345498D01*
X54845000Y44145539D01*
X42975591Y44145539D01*
X42956026Y44243898D01*
X42878005Y44432256D01*
X42764737Y44601774D01*
X42620574Y44745937D01*
X42451056Y44859205D01*
X42262698Y44937226D01*
X42062739Y44977000D01*
X41858861Y44977000D01*
X41658902Y44937226D01*
X41470544Y44859205D01*
X41301026Y44745937D01*
X41156863Y44601774D01*
X41043595Y44432256D01*
X40965574Y44243898D01*
X40925800Y44043939D01*
X29220361Y44043939D01*
X29219015Y44057600D01*
X29152685Y44276260D01*
X29044971Y44477779D01*
X28900012Y44654412D01*
X28723379Y44799371D01*
X28521860Y44907085D01*
X28303200Y44973415D01*
X28132779Y44990200D01*
X27868821Y44990200D01*
X27698400Y44973415D01*
X27479740Y44907085D01*
X27432567Y44881871D01*
X27369531Y44978200D01*
X26027800Y44978200D01*
X25773800Y44978200D01*
X24432069Y44978200D01*
X24307338Y44787591D01*
X23520000Y44787591D01*
X23520000Y45422809D01*
X24307338Y45422809D01*
X24432069Y45232200D01*
X25773800Y45232200D01*
X25773800Y46340200D01*
X26027800Y46340200D01*
X26027800Y45232200D01*
X27369531Y45232200D01*
X27494262Y45422809D01*
X27490391Y45460482D01*
X27398221Y45685733D01*
X27263878Y45888674D01*
X27092525Y46061507D01*
X26890746Y46197590D01*
X26666296Y46291693D01*
X26427800Y46340200D01*
X26027800Y46340200D01*
X25773800Y46340200D01*
X25373800Y46340200D01*
X25135304Y46291693D01*
X24910854Y46197590D01*
X24709075Y46061507D01*
X24537722Y45888674D01*
X24403379Y45685733D01*
X24311209Y45460482D01*
X24307338Y45422809D01*
X23520000Y45422809D01*
X23520000Y46957582D01*
X23523193Y46990000D01*
X23510450Y47119383D01*
X23472710Y47243793D01*
X23411425Y47358450D01*
X23328948Y47458948D01*
X23228450Y47541425D01*
X23113793Y47602710D01*
X22989383Y47640450D01*
X22892419Y47650000D01*
X22860000Y47653193D01*
X22827581Y47650000D01*
X660000Y47650000D01*
X660000Y49315000D01*
X2321928Y49315000D01*
X2334188Y49190518D01*
X2370498Y49070820D01*
X2429463Y48960506D01*
X2508815Y48863815D01*
X2605506Y48784463D01*
X2715820Y48725498D01*
X2835518Y48689188D01*
X2960000Y48676928D01*
X3524250Y48680000D01*
X3683000Y48838750D01*
X3683000Y50038000D01*
X2483750Y50038000D01*
X2325000Y49879250D01*
X2321928Y49315000D01*
X660000Y49315000D01*
X660000Y51015000D01*
X2321928Y51015000D01*
X2325000Y50450750D01*
X2483750Y50292000D01*
X3683000Y50292000D01*
X3683000Y52578000D01*
X2489186Y52578000D01*
X2368519Y52348109D01*
X2465843Y52073748D01*
X2614822Y51823645D01*
X2791626Y51627498D01*
X2715820Y51604502D01*
X2605506Y51545537D01*
X2508815Y51466185D01*
X2429463Y51369494D01*
X2370498Y51259180D01*
X2334188Y51139482D01*
X2321928Y51015000D01*
X660000Y51015000D01*
X660000Y53950000D01*
X3007363Y53950000D01*
X2809731Y53802588D01*
G37*
%TD.AperFunction*%
%TD*%
M02*
