%TF.GenerationSoftware,KiCad,Pcbnew,(5.1.9)-1*%
%TF.CreationDate,2021-09-23T16:30:08-05:00*%
%TF.ProjectId,zigbeeCape,7a696762-6565-4436-9170-652e6b696361,rev?*%
%TF.SameCoordinates,Original*%
%TF.FileFunction,Legend,Bot*%
%TF.FilePolarity,Positive*%
%FSLAX46Y46*%
G04 Gerber Fmt 4.6, Leading zero omitted, Abs format (unit mm)*
G04 Created by KiCad (PCBNEW (5.1.9)-1) date 2021-09-23 16:30:08*
%MOMM*%
%LPD*%
G01*
G04 APERTURE LIST*
%ADD10C,0.120000*%
%ADD11C,0.076200*%
G04 APERTURE END LIST*
D10*
%TO.C,L1*%
X42425252Y42747000D02*
X41902748Y42747000D01*
X42425252Y41327000D02*
X41902748Y41327000D01*
%TO.C,C13*%
X38627267Y40769000D02*
X38334733Y40769000D01*
X38627267Y39749000D02*
X38334733Y39749000D01*
%TO.C,C31*%
X19071000Y30087835D02*
X19071000Y29856165D01*
X19791000Y30087835D02*
X19791000Y29856165D01*
%TO.C,C8*%
X41781000Y28721267D02*
X41781000Y28428733D01*
X42801000Y28721267D02*
X42801000Y28428733D01*
%TO.C,C15*%
X45319733Y29974000D02*
X45612267Y29974000D01*
X45319733Y28954000D02*
X45612267Y28954000D01*
%TO.C,C6*%
X36976267Y29974000D02*
X36683733Y29974000D01*
X36976267Y28954000D02*
X36683733Y28954000D01*
%TO.C,C9*%
X47754000Y37953733D02*
X47754000Y38246267D01*
X46734000Y37953733D02*
X46734000Y38246267D01*
%TO.C,C10*%
X48385000Y37953733D02*
X48385000Y38246267D01*
X49405000Y37953733D02*
X49405000Y38246267D01*
%TO.C,C11*%
X37865267Y43051000D02*
X37572733Y43051000D01*
X37865267Y44071000D02*
X37572733Y44071000D01*
%TO.C,C16*%
X37865267Y41400000D02*
X37572733Y41400000D01*
X37865267Y42420000D02*
X37572733Y42420000D01*
%TO.C,L1*%
D11*
X44534666Y41934190D02*
X44776571Y41934190D01*
X44776571Y42442190D01*
X44099238Y41934190D02*
X44389523Y41934190D01*
X44244380Y41934190D02*
X44244380Y42442190D01*
X44292761Y42369619D01*
X44341142Y42321238D01*
X44389523Y42297047D01*
%TO.C,C13*%
X36902571Y39061571D02*
X36926761Y39037380D01*
X36999333Y39013190D01*
X37047714Y39013190D01*
X37120285Y39037380D01*
X37168666Y39085761D01*
X37192857Y39134142D01*
X37217047Y39230904D01*
X37217047Y39303476D01*
X37192857Y39400238D01*
X37168666Y39448619D01*
X37120285Y39497000D01*
X37047714Y39521190D01*
X36999333Y39521190D01*
X36926761Y39497000D01*
X36902571Y39472809D01*
X36418761Y39013190D02*
X36709047Y39013190D01*
X36563904Y39013190D02*
X36563904Y39521190D01*
X36612285Y39448619D01*
X36660666Y39400238D01*
X36709047Y39376047D01*
X36249428Y39521190D02*
X35934952Y39521190D01*
X36104285Y39327666D01*
X36031714Y39327666D01*
X35983333Y39303476D01*
X35959142Y39279285D01*
X35934952Y39230904D01*
X35934952Y39109952D01*
X35959142Y39061571D01*
X35983333Y39037380D01*
X36031714Y39013190D01*
X36176857Y39013190D01*
X36225238Y39037380D01*
X36249428Y39061571D01*
%TO.C,C31*%
X18596428Y30298571D02*
X18620619Y30322761D01*
X18644809Y30395333D01*
X18644809Y30443714D01*
X18620619Y30516285D01*
X18572238Y30564666D01*
X18523857Y30588857D01*
X18427095Y30613047D01*
X18354523Y30613047D01*
X18257761Y30588857D01*
X18209380Y30564666D01*
X18161000Y30516285D01*
X18136809Y30443714D01*
X18136809Y30395333D01*
X18161000Y30322761D01*
X18185190Y30298571D01*
X18136809Y30129238D02*
X18136809Y29814761D01*
X18330333Y29984095D01*
X18330333Y29911523D01*
X18354523Y29863142D01*
X18378714Y29838952D01*
X18427095Y29814761D01*
X18548047Y29814761D01*
X18596428Y29838952D01*
X18620619Y29863142D01*
X18644809Y29911523D01*
X18644809Y30056666D01*
X18620619Y30105047D01*
X18596428Y30129238D01*
X18644809Y29330952D02*
X18644809Y29621238D01*
X18644809Y29476095D02*
X18136809Y29476095D01*
X18209380Y29524476D01*
X18257761Y29572857D01*
X18281952Y29621238D01*
%TO.C,C8*%
X43488428Y28659666D02*
X43512619Y28683857D01*
X43536809Y28756428D01*
X43536809Y28804809D01*
X43512619Y28877380D01*
X43464238Y28925761D01*
X43415857Y28949952D01*
X43319095Y28974142D01*
X43246523Y28974142D01*
X43149761Y28949952D01*
X43101380Y28925761D01*
X43053000Y28877380D01*
X43028809Y28804809D01*
X43028809Y28756428D01*
X43053000Y28683857D01*
X43077190Y28659666D01*
X43246523Y28369380D02*
X43222333Y28417761D01*
X43198142Y28441952D01*
X43149761Y28466142D01*
X43125571Y28466142D01*
X43077190Y28441952D01*
X43053000Y28417761D01*
X43028809Y28369380D01*
X43028809Y28272619D01*
X43053000Y28224238D01*
X43077190Y28200047D01*
X43125571Y28175857D01*
X43149761Y28175857D01*
X43198142Y28200047D01*
X43222333Y28224238D01*
X43246523Y28272619D01*
X43246523Y28369380D01*
X43270714Y28417761D01*
X43294904Y28441952D01*
X43343285Y28466142D01*
X43440047Y28466142D01*
X43488428Y28441952D01*
X43512619Y28417761D01*
X43536809Y28369380D01*
X43536809Y28272619D01*
X43512619Y28224238D01*
X43488428Y28200047D01*
X43440047Y28175857D01*
X43343285Y28175857D01*
X43294904Y28200047D01*
X43270714Y28224238D01*
X43246523Y28272619D01*
%TO.C,C15*%
X46935571Y28266571D02*
X46959761Y28242380D01*
X47032333Y28218190D01*
X47080714Y28218190D01*
X47153285Y28242380D01*
X47201666Y28290761D01*
X47225857Y28339142D01*
X47250047Y28435904D01*
X47250047Y28508476D01*
X47225857Y28605238D01*
X47201666Y28653619D01*
X47153285Y28702000D01*
X47080714Y28726190D01*
X47032333Y28726190D01*
X46959761Y28702000D01*
X46935571Y28677809D01*
X46451761Y28218190D02*
X46742047Y28218190D01*
X46596904Y28218190D02*
X46596904Y28726190D01*
X46645285Y28653619D01*
X46693666Y28605238D01*
X46742047Y28581047D01*
X45992142Y28726190D02*
X46234047Y28726190D01*
X46258238Y28484285D01*
X46234047Y28508476D01*
X46185666Y28532666D01*
X46064714Y28532666D01*
X46016333Y28508476D01*
X45992142Y28484285D01*
X45967952Y28435904D01*
X45967952Y28314952D01*
X45992142Y28266571D01*
X46016333Y28242380D01*
X46064714Y28218190D01*
X46185666Y28218190D01*
X46234047Y28242380D01*
X46258238Y28266571D01*
%TO.C,C6*%
X36914666Y30425571D02*
X36938857Y30401380D01*
X37011428Y30377190D01*
X37059809Y30377190D01*
X37132380Y30401380D01*
X37180761Y30449761D01*
X37204952Y30498142D01*
X37229142Y30594904D01*
X37229142Y30667476D01*
X37204952Y30764238D01*
X37180761Y30812619D01*
X37132380Y30861000D01*
X37059809Y30885190D01*
X37011428Y30885190D01*
X36938857Y30861000D01*
X36914666Y30836809D01*
X36479238Y30885190D02*
X36576000Y30885190D01*
X36624380Y30861000D01*
X36648571Y30836809D01*
X36696952Y30764238D01*
X36721142Y30667476D01*
X36721142Y30473952D01*
X36696952Y30425571D01*
X36672761Y30401380D01*
X36624380Y30377190D01*
X36527619Y30377190D01*
X36479238Y30401380D01*
X36455047Y30425571D01*
X36430857Y30473952D01*
X36430857Y30594904D01*
X36455047Y30643285D01*
X36479238Y30667476D01*
X36527619Y30691666D01*
X36624380Y30691666D01*
X36672761Y30667476D01*
X36696952Y30643285D01*
X36721142Y30594904D01*
%TO.C,C9*%
X46409428Y38184666D02*
X46433619Y38208857D01*
X46457809Y38281428D01*
X46457809Y38329809D01*
X46433619Y38402380D01*
X46385238Y38450761D01*
X46336857Y38474952D01*
X46240095Y38499142D01*
X46167523Y38499142D01*
X46070761Y38474952D01*
X46022380Y38450761D01*
X45974000Y38402380D01*
X45949809Y38329809D01*
X45949809Y38281428D01*
X45974000Y38208857D01*
X45998190Y38184666D01*
X46457809Y37942761D02*
X46457809Y37846000D01*
X46433619Y37797619D01*
X46409428Y37773428D01*
X46336857Y37725047D01*
X46240095Y37700857D01*
X46046571Y37700857D01*
X45998190Y37725047D01*
X45974000Y37749238D01*
X45949809Y37797619D01*
X45949809Y37894380D01*
X45974000Y37942761D01*
X45998190Y37966952D01*
X46046571Y37991142D01*
X46167523Y37991142D01*
X46215904Y37966952D01*
X46240095Y37942761D01*
X46264285Y37894380D01*
X46264285Y37797619D01*
X46240095Y37749238D01*
X46215904Y37725047D01*
X46167523Y37700857D01*
%TO.C,C10*%
X50600428Y38426571D02*
X50624619Y38450761D01*
X50648809Y38523333D01*
X50648809Y38571714D01*
X50624619Y38644285D01*
X50576238Y38692666D01*
X50527857Y38716857D01*
X50431095Y38741047D01*
X50358523Y38741047D01*
X50261761Y38716857D01*
X50213380Y38692666D01*
X50165000Y38644285D01*
X50140809Y38571714D01*
X50140809Y38523333D01*
X50165000Y38450761D01*
X50189190Y38426571D01*
X50648809Y37942761D02*
X50648809Y38233047D01*
X50648809Y38087904D02*
X50140809Y38087904D01*
X50213380Y38136285D01*
X50261761Y38184666D01*
X50285952Y38233047D01*
X50140809Y37628285D02*
X50140809Y37579904D01*
X50165000Y37531523D01*
X50189190Y37507333D01*
X50237571Y37483142D01*
X50334333Y37458952D01*
X50455285Y37458952D01*
X50552047Y37483142D01*
X50600428Y37507333D01*
X50624619Y37531523D01*
X50648809Y37579904D01*
X50648809Y37628285D01*
X50624619Y37676666D01*
X50600428Y37700857D01*
X50552047Y37725047D01*
X50455285Y37749238D01*
X50334333Y37749238D01*
X50237571Y37725047D01*
X50189190Y37700857D01*
X50165000Y37676666D01*
X50140809Y37628285D01*
%TO.C,C11*%
X38299571Y44395571D02*
X38323761Y44371380D01*
X38396333Y44347190D01*
X38444714Y44347190D01*
X38517285Y44371380D01*
X38565666Y44419761D01*
X38589857Y44468142D01*
X38614047Y44564904D01*
X38614047Y44637476D01*
X38589857Y44734238D01*
X38565666Y44782619D01*
X38517285Y44831000D01*
X38444714Y44855190D01*
X38396333Y44855190D01*
X38323761Y44831000D01*
X38299571Y44806809D01*
X37815761Y44347190D02*
X38106047Y44347190D01*
X37960904Y44347190D02*
X37960904Y44855190D01*
X38009285Y44782619D01*
X38057666Y44734238D01*
X38106047Y44710047D01*
X37331952Y44347190D02*
X37622238Y44347190D01*
X37477095Y44347190D02*
X37477095Y44855190D01*
X37525476Y44782619D01*
X37573857Y44734238D01*
X37622238Y44710047D01*
%TO.C,C16*%
X35759571Y42363571D02*
X35783761Y42339380D01*
X35856333Y42315190D01*
X35904714Y42315190D01*
X35977285Y42339380D01*
X36025666Y42387761D01*
X36049857Y42436142D01*
X36074047Y42532904D01*
X36074047Y42605476D01*
X36049857Y42702238D01*
X36025666Y42750619D01*
X35977285Y42799000D01*
X35904714Y42823190D01*
X35856333Y42823190D01*
X35783761Y42799000D01*
X35759571Y42774809D01*
X35275761Y42315190D02*
X35566047Y42315190D01*
X35420904Y42315190D02*
X35420904Y42823190D01*
X35469285Y42750619D01*
X35517666Y42702238D01*
X35566047Y42678047D01*
X34840333Y42823190D02*
X34937095Y42823190D01*
X34985476Y42799000D01*
X35009666Y42774809D01*
X35058047Y42702238D01*
X35082238Y42605476D01*
X35082238Y42411952D01*
X35058047Y42363571D01*
X35033857Y42339380D01*
X34985476Y42315190D01*
X34888714Y42315190D01*
X34840333Y42339380D01*
X34816142Y42363571D01*
X34791952Y42411952D01*
X34791952Y42532904D01*
X34816142Y42581285D01*
X34840333Y42605476D01*
X34888714Y42629666D01*
X34985476Y42629666D01*
X35033857Y42605476D01*
X35058047Y42581285D01*
X35082238Y42532904D01*
%TD*%
M02*
