%TF.GenerationSoftware,KiCad,Pcbnew,(5.1.9)-1*%
%TF.CreationDate,2021-09-23T16:30:07-05:00*%
%TF.ProjectId,zigbeeCape,7a696762-6565-4436-9170-652e6b696361,rev?*%
%TF.SameCoordinates,Original*%
%TF.FileFunction,Copper,L4,Bot*%
%TF.FilePolarity,Positive*%
%FSLAX46Y46*%
G04 Gerber Fmt 4.6, Leading zero omitted, Abs format (unit mm)*
G04 Created by KiCad (PCBNEW (5.1.9)-1) date 2021-09-23 16:30:07*
%MOMM*%
%LPD*%
G01*
G04 APERTURE LIST*
%TA.AperFunction,ComponentPad*%
%ADD10C,0.515000*%
%TD*%
%TA.AperFunction,ComponentPad*%
%ADD11C,0.600000*%
%TD*%
%TA.AperFunction,ComponentPad*%
%ADD12C,2.050000*%
%TD*%
%TA.AperFunction,ComponentPad*%
%ADD13C,2.250000*%
%TD*%
%TA.AperFunction,ComponentPad*%
%ADD14R,1.700000X1.700000*%
%TD*%
%TA.AperFunction,ComponentPad*%
%ADD15O,1.700000X1.700000*%
%TD*%
%TA.AperFunction,ViaPad*%
%ADD16C,0.558800*%
%TD*%
%TA.AperFunction,Conductor*%
%ADD17C,0.254000*%
%TD*%
%TA.AperFunction,Conductor*%
%ADD18C,0.152400*%
%TD*%
%TA.AperFunction,Conductor*%
%ADD19C,0.100000*%
%TD*%
G04 APERTURE END LIST*
D10*
%TO.P,U1,49*%
%TO.N,GND*%
X43670000Y32400000D03*
X43670000Y33430000D03*
X43670000Y34460000D03*
X43670000Y35490000D03*
X43670000Y36520000D03*
X42640000Y32400000D03*
X42640000Y33430000D03*
X42640000Y34460000D03*
X42640000Y35490000D03*
X42640000Y36520000D03*
X41610000Y32400000D03*
X41610000Y33430000D03*
X41610000Y34460000D03*
X41610000Y35490000D03*
X41610000Y36520000D03*
X40580000Y32400000D03*
X40580000Y33430000D03*
X40580000Y34460000D03*
X40580000Y35490000D03*
X40580000Y36520000D03*
X39550000Y32400000D03*
X39550000Y33430000D03*
X39550000Y34460000D03*
X39550000Y35490000D03*
X39550000Y36520000D03*
%TD*%
D11*
%TO.P,REF\u002A\u002A,1*%
%TO.N,GND*%
X46863000Y22479000D03*
%TD*%
%TO.P,REF\u002A\u002A,1*%
%TO.N,GND*%
X44196000Y25146000D03*
%TD*%
%TO.P,REF\u002A\u002A,1*%
%TO.N,GND*%
X47117000Y27559000D03*
%TD*%
%TO.P,REF\u002A\u002A,1*%
%TO.N,GND*%
X47244000Y33528000D03*
%TD*%
%TO.P,REF\u002A\u002A,1*%
%TO.N,GND*%
X40132000Y45720000D03*
%TD*%
%TO.P,REF\u002A\u002A,1*%
%TO.N,GND*%
X37592000Y45974000D03*
%TD*%
%TO.P,REF\u002A\u002A,1*%
%TO.N,GND*%
X40132000Y48006000D03*
%TD*%
%TO.P,REF\u002A\u002A,1*%
%TO.N,GND*%
X37592000Y48006000D03*
%TD*%
%TO.P,REF\u002A\u002A,1*%
%TO.N,GND*%
X46609000Y41656000D03*
%TD*%
%TO.P,REF\u002A\u002A,1*%
%TO.N,GND*%
X44958000Y43180000D03*
%TD*%
%TO.P,REF\u002A\u002A,1*%
%TO.N,GND*%
X42291000Y43815000D03*
%TD*%
%TO.P,REF\u002A\u002A,1*%
%TO.N,GND*%
X44831000Y45466000D03*
%TD*%
%TO.P,REF\u002A\u002A,1*%
%TO.N,GND*%
X42291000Y45466000D03*
%TD*%
%TO.P,REF\u002A\u002A,1*%
%TO.N,GND*%
X44831000Y48006000D03*
%TD*%
%TO.P,REF\u002A\u002A,1*%
%TO.N,GND*%
X34290000Y43561000D03*
%TD*%
%TO.P,REF\u002A\u002A,1*%
%TO.N,GND*%
X31750000Y43561000D03*
%TD*%
%TO.P,REF\u002A\u002A,1*%
%TO.N,GND*%
X29591000Y42926000D03*
%TD*%
%TO.P,REF\u002A\u002A,1*%
%TO.N,GND*%
X34671000Y45466000D03*
%TD*%
%TO.P,REF\u002A\u002A,1*%
%TO.N,GND*%
X32131000Y45466000D03*
%TD*%
%TO.P,REF\u002A\u002A,1*%
%TO.N,GND*%
X29591000Y45466000D03*
%TD*%
%TO.P,REF\u002A\u002A,1*%
%TO.N,GND*%
X34671000Y48006000D03*
%TD*%
%TO.P,REF\u002A\u002A,1*%
%TO.N,GND*%
X32131000Y48006000D03*
%TD*%
D12*
%TO.P,U3,1*%
%TO.N,Net-(C31-Pad2)*%
X16891000Y22606000D03*
D13*
%TO.P,U3,2*%
%TO.N,GND*%
X19431000Y20066000D03*
X19431000Y25146000D03*
X14351000Y25146000D03*
X14351000Y20066000D03*
%TD*%
D11*
%TO.P,REF\u002A\u002A,1*%
%TO.N,GND*%
X25273000Y35433000D03*
%TD*%
%TO.P,REF\u002A\u002A,1*%
%TO.N,GND*%
X28194000Y35560000D03*
%TD*%
%TO.P,REF\u002A\u002A,1*%
%TO.N,GND*%
X26670000Y34290000D03*
%TD*%
%TO.P,REF\u002A\u002A,1*%
%TO.N,GND*%
X27559000Y36957000D03*
%TD*%
%TO.P,REF\u002A\u002A,1*%
%TO.N,GND*%
X30480000Y36576000D03*
%TD*%
%TO.P,REF\u002A\u002A,1*%
%TO.N,GND*%
X29210000Y38100000D03*
%TD*%
%TO.P,REF\u002A\u002A,1*%
%TO.N,GND*%
X27305000Y38608000D03*
%TD*%
%TO.P,REF\u002A\u002A,1*%
%TO.N,GND*%
X28448000Y39751000D03*
%TD*%
%TO.P,REF\u002A\u002A,1*%
%TO.N,GND*%
X30099000Y39751000D03*
%TD*%
%TO.P,REF\u002A\u002A,1*%
%TO.N,GND*%
X31115000Y38481000D03*
%TD*%
%TO.P,REF\u002A\u002A,1*%
%TO.N,GND*%
X32766000Y35687000D03*
%TD*%
%TO.P,REF\u002A\u002A,1*%
%TO.N,GND*%
X29718000Y34671000D03*
%TD*%
%TO.P,REF\u002A\u002A,1*%
%TO.N,GND*%
X27940000Y33274000D03*
%TD*%
%TO.P,REF\u002A\u002A,1*%
%TO.N,GND*%
X26035000Y31877000D03*
%TD*%
%TO.P,REF\u002A\u002A,1*%
%TO.N,GND*%
X25781000Y29972000D03*
%TD*%
%TO.P,REF\u002A\u002A,1*%
%TO.N,GND*%
X24384000Y31242000D03*
%TD*%
%TO.P,REF\u002A\u002A,1*%
%TO.N,GND*%
X30226000Y27940000D03*
%TD*%
%TO.P,REF\u002A\u002A,1*%
%TO.N,GND*%
X32639000Y28194000D03*
%TD*%
%TO.P,REF\u002A\u002A,1*%
%TO.N,GND*%
X31242000Y26797000D03*
%TD*%
%TO.P,REF\u002A\u002A,1*%
%TO.N,GND*%
X28702000Y26416000D03*
%TD*%
%TO.P,REF\u002A\u002A,1*%
%TO.N,GND*%
X28829000Y23876000D03*
%TD*%
%TO.P,REF\u002A\u002A,1*%
%TO.N,GND*%
X25654000Y10287000D03*
%TD*%
%TO.P,REF\u002A\u002A,1*%
%TO.N,GND*%
X15875000Y9144000D03*
%TD*%
%TO.P,REF\u002A\u002A,1*%
%TO.N,GND*%
X12954000Y9144000D03*
%TD*%
%TO.P,REF\u002A\u002A,1*%
%TO.N,GND*%
X31750000Y16383000D03*
%TD*%
%TO.P,REF\u002A\u002A,1*%
%TO.N,GND*%
X31750000Y18796000D03*
%TD*%
%TO.P,REF\u002A\u002A,1*%
%TO.N,GND*%
X29591000Y19939000D03*
%TD*%
%TO.P,REF\u002A\u002A,1*%
%TO.N,GND*%
X29464000Y17526000D03*
%TD*%
%TO.P,REF\u002A\u002A,1*%
%TO.N,GND*%
X29464000Y14986000D03*
%TD*%
%TO.P,REF\u002A\u002A,1*%
%TO.N,GND*%
X27051000Y12446000D03*
%TD*%
%TO.P,REF\u002A\u002A,1*%
%TO.N,GND*%
X24511000Y12446000D03*
%TD*%
%TO.P,REF\u002A\u002A,1*%
%TO.N,GND*%
X21971000Y12446000D03*
%TD*%
%TO.P,REF\u002A\u002A,1*%
%TO.N,GND*%
X19431000Y12446000D03*
%TD*%
%TO.P,REF\u002A\u002A,1*%
%TO.N,GND*%
X16891000Y12446000D03*
%TD*%
%TO.P,REF\u002A\u002A,1*%
%TO.N,GND*%
X14351000Y12446000D03*
%TD*%
%TO.P,REF\u002A\u002A,1*%
%TO.N,GND*%
X11811000Y12446000D03*
%TD*%
%TO.P,REF\u002A\u002A,1*%
%TO.N,GND*%
X9271000Y12446000D03*
%TD*%
%TO.P,REF\u002A\u002A,1*%
%TO.N,GND*%
X27051000Y14986000D03*
%TD*%
%TO.P,REF\u002A\u002A,1*%
%TO.N,GND*%
X24511000Y14986000D03*
%TD*%
%TO.P,REF\u002A\u002A,1*%
%TO.N,GND*%
X21971000Y14986000D03*
%TD*%
%TO.P,REF\u002A\u002A,1*%
%TO.N,GND*%
X19431000Y14986000D03*
%TD*%
%TO.P,REF\u002A\u002A,1*%
%TO.N,GND*%
X16891000Y14986000D03*
%TD*%
%TO.P,REF\u002A\u002A,1*%
%TO.N,GND*%
X14351000Y14986000D03*
%TD*%
%TO.P,REF\u002A\u002A,1*%
%TO.N,GND*%
X11811000Y14986000D03*
%TD*%
%TO.P,REF\u002A\u002A,1*%
%TO.N,GND*%
X9271000Y14986000D03*
%TD*%
%TO.P,REF\u002A\u002A,1*%
%TO.N,GND*%
X27051000Y17526000D03*
%TD*%
%TO.P,REF\u002A\u002A,1*%
%TO.N,GND*%
X24511000Y17526000D03*
%TD*%
%TO.P,REF\u002A\u002A,1*%
%TO.N,GND*%
X21971000Y17526000D03*
%TD*%
%TO.P,REF\u002A\u002A,1*%
%TO.N,GND*%
X19431000Y17526000D03*
%TD*%
%TO.P,REF\u002A\u002A,1*%
%TO.N,GND*%
X16891000Y17526000D03*
%TD*%
%TO.P,REF\u002A\u002A,1*%
%TO.N,GND*%
X14351000Y17526000D03*
%TD*%
%TO.P,REF\u002A\u002A,1*%
%TO.N,GND*%
X11811000Y17526000D03*
%TD*%
%TO.P,REF\u002A\u002A,1*%
%TO.N,GND*%
X9271000Y17526000D03*
%TD*%
%TO.P,REF\u002A\u002A,1*%
%TO.N,GND*%
X27051000Y20066000D03*
%TD*%
%TO.P,REF\u002A\u002A,1*%
%TO.N,GND*%
X24511000Y20066000D03*
%TD*%
%TO.P,REF\u002A\u002A,1*%
%TO.N,GND*%
X21971000Y20066000D03*
%TD*%
%TO.P,REF\u002A\u002A,1*%
%TO.N,GND*%
X16891000Y20066000D03*
%TD*%
%TO.P,REF\u002A\u002A,1*%
%TO.N,GND*%
X11811000Y20066000D03*
%TD*%
%TO.P,REF\u002A\u002A,1*%
%TO.N,GND*%
X9271000Y20066000D03*
%TD*%
%TO.P,REF\u002A\u002A,1*%
%TO.N,GND*%
X27051000Y22606000D03*
%TD*%
%TO.P,REF\u002A\u002A,1*%
%TO.N,GND*%
X24511000Y22606000D03*
%TD*%
%TO.P,REF\u002A\u002A,1*%
%TO.N,GND*%
X21971000Y22606000D03*
%TD*%
%TO.P,REF\u002A\u002A,1*%
%TO.N,GND*%
X19431000Y22606000D03*
%TD*%
%TO.P,REF\u002A\u002A,1*%
%TO.N,GND*%
X14351000Y22606000D03*
%TD*%
%TO.P,REF\u002A\u002A,1*%
%TO.N,GND*%
X11811000Y22606000D03*
%TD*%
%TO.P,REF\u002A\u002A,1*%
%TO.N,GND*%
X9271000Y22606000D03*
%TD*%
%TO.P,REF\u002A\u002A,1*%
%TO.N,GND*%
X27051000Y25146000D03*
%TD*%
%TO.P,REF\u002A\u002A,1*%
%TO.N,GND*%
X24511000Y25146000D03*
%TD*%
%TO.P,REF\u002A\u002A,1*%
%TO.N,GND*%
X21971000Y25146000D03*
%TD*%
%TO.P,REF\u002A\u002A,1*%
%TO.N,GND*%
X11811000Y25146000D03*
%TD*%
%TO.P,REF\u002A\u002A,1*%
%TO.N,GND*%
X9271000Y25146000D03*
%TD*%
%TO.P,REF\u002A\u002A,1*%
%TO.N,GND*%
X27051000Y27686000D03*
%TD*%
%TO.P,REF\u002A\u002A,1*%
%TO.N,GND*%
X21971000Y27686000D03*
%TD*%
%TO.P,REF\u002A\u002A,1*%
%TO.N,GND*%
X19431000Y27686000D03*
%TD*%
%TO.P,REF\u002A\u002A,1*%
%TO.N,GND*%
X16891000Y27686000D03*
%TD*%
%TO.P,REF\u002A\u002A,1*%
%TO.N,GND*%
X14351000Y27686000D03*
%TD*%
%TO.P,REF\u002A\u002A,1*%
%TO.N,GND*%
X11811000Y27686000D03*
%TD*%
%TO.P,REF\u002A\u002A,1*%
%TO.N,GND*%
X9271000Y27686000D03*
%TD*%
%TO.P,REF\u002A\u002A,1*%
%TO.N,GND*%
X21971000Y30226000D03*
%TD*%
%TO.P,REF\u002A\u002A,1*%
%TO.N,GND*%
X16891000Y30226000D03*
%TD*%
%TO.P,REF\u002A\u002A,1*%
%TO.N,GND*%
X14351000Y30226000D03*
%TD*%
%TO.P,REF\u002A\u002A,1*%
%TO.N,GND*%
X11811000Y30226000D03*
%TD*%
%TO.P,REF\u002A\u002A,1*%
%TO.N,GND*%
X9271000Y30226000D03*
%TD*%
%TO.P,REF\u002A\u002A,1*%
%TO.N,GND*%
X19431000Y32766000D03*
%TD*%
%TO.P,REF\u002A\u002A,1*%
%TO.N,GND*%
X16891000Y32766000D03*
%TD*%
%TO.P,REF\u002A\u002A,1*%
%TO.N,GND*%
X14351000Y32766000D03*
%TD*%
%TO.P,REF\u002A\u002A,1*%
%TO.N,GND*%
X11811000Y32766000D03*
%TD*%
%TO.P,REF\u002A\u002A,1*%
%TO.N,GND*%
X9271000Y32766000D03*
%TD*%
%TO.P,REF\u002A\u002A,1*%
%TO.N,GND*%
X21590000Y35306000D03*
%TD*%
%TO.P,REF\u002A\u002A,1*%
%TO.N,GND*%
X19431000Y35306000D03*
%TD*%
%TO.P,REF\u002A\u002A,1*%
%TO.N,GND*%
X16891000Y35306000D03*
%TD*%
%TO.P,REF\u002A\u002A,1*%
%TO.N,GND*%
X14351000Y35306000D03*
%TD*%
%TO.P,REF\u002A\u002A,1*%
%TO.N,GND*%
X11811000Y35306000D03*
%TD*%
%TO.P,REF\u002A\u002A,1*%
%TO.N,GND*%
X9271000Y35306000D03*
%TD*%
%TO.P,REF\u002A\u002A,1*%
%TO.N,GND*%
X21971000Y37846000D03*
%TD*%
%TO.P,REF\u002A\u002A,1*%
%TO.N,GND*%
X19431000Y37846000D03*
%TD*%
%TO.P,REF\u002A\u002A,1*%
%TO.N,GND*%
X16891000Y37846000D03*
%TD*%
%TO.P,REF\u002A\u002A,1*%
%TO.N,GND*%
X14351000Y37846000D03*
%TD*%
%TO.P,REF\u002A\u002A,1*%
%TO.N,GND*%
X11811000Y37846000D03*
%TD*%
%TO.P,REF\u002A\u002A,1*%
%TO.N,GND*%
X9271000Y37846000D03*
%TD*%
%TO.P,REF\u002A\u002A,1*%
%TO.N,GND*%
X24511000Y40386000D03*
%TD*%
%TO.P,REF\u002A\u002A,1*%
%TO.N,GND*%
X21971000Y40386000D03*
%TD*%
%TO.P,REF\u002A\u002A,1*%
%TO.N,GND*%
X19431000Y40386000D03*
%TD*%
%TO.P,REF\u002A\u002A,1*%
%TO.N,GND*%
X16891000Y40386000D03*
%TD*%
%TO.P,REF\u002A\u002A,1*%
%TO.N,GND*%
X14351000Y40386000D03*
%TD*%
%TO.P,REF\u002A\u002A,1*%
%TO.N,GND*%
X11811000Y40386000D03*
%TD*%
%TO.P,REF\u002A\u002A,1*%
%TO.N,GND*%
X9271000Y40386000D03*
%TD*%
%TO.P,REF\u002A\u002A,1*%
%TO.N,GND*%
X27051000Y42926000D03*
%TD*%
%TO.P,REF\u002A\u002A,1*%
%TO.N,GND*%
X24511000Y42926000D03*
%TD*%
%TO.P,REF\u002A\u002A,1*%
%TO.N,GND*%
X21971000Y42926000D03*
%TD*%
%TO.P,REF\u002A\u002A,1*%
%TO.N,GND*%
X19431000Y42926000D03*
%TD*%
%TO.P,REF\u002A\u002A,1*%
%TO.N,GND*%
X16891000Y42926000D03*
%TD*%
%TO.P,REF\u002A\u002A,1*%
%TO.N,GND*%
X14351000Y42926000D03*
%TD*%
%TO.P,REF\u002A\u002A,1*%
%TO.N,GND*%
X11811000Y42926000D03*
%TD*%
%TO.P,REF\u002A\u002A,1*%
%TO.N,GND*%
X9271000Y42926000D03*
%TD*%
%TO.P,REF\u002A\u002A,1*%
%TO.N,GND*%
X27051000Y45466000D03*
%TD*%
%TO.P,REF\u002A\u002A,1*%
%TO.N,GND*%
X24511000Y45466000D03*
%TD*%
%TO.P,REF\u002A\u002A,1*%
%TO.N,GND*%
X21971000Y45466000D03*
%TD*%
%TO.P,REF\u002A\u002A,1*%
%TO.N,GND*%
X19431000Y45466000D03*
%TD*%
%TO.P,REF\u002A\u002A,1*%
%TO.N,GND*%
X16891000Y45466000D03*
%TD*%
%TO.P,REF\u002A\u002A,1*%
%TO.N,GND*%
X14351000Y45466000D03*
%TD*%
%TO.P,REF\u002A\u002A,1*%
%TO.N,GND*%
X11811000Y45466000D03*
%TD*%
%TO.P,REF\u002A\u002A,1*%
%TO.N,GND*%
X9271000Y45466000D03*
%TD*%
%TO.P,REF\u002A\u002A,1*%
%TO.N,GND*%
X27051000Y48006000D03*
%TD*%
%TO.P,REF\u002A\u002A,1*%
%TO.N,GND*%
X24511000Y48006000D03*
%TD*%
%TO.P,REF\u002A\u002A,1*%
%TO.N,GND*%
X21971000Y48006000D03*
%TD*%
%TO.P,REF\u002A\u002A,1*%
%TO.N,GND*%
X19431000Y48006000D03*
%TD*%
%TO.P,REF\u002A\u002A,1*%
%TO.N,GND*%
X16891000Y48006000D03*
%TD*%
%TO.P,REF\u002A\u002A,1*%
%TO.N,GND*%
X14351000Y48006000D03*
%TD*%
%TO.P,REF\u002A\u002A,1*%
%TO.N,GND*%
X11811000Y48006000D03*
%TD*%
%TO.P,REF\u002A\u002A,1*%
%TO.N,GND*%
X52324000Y41783000D03*
%TD*%
%TO.P,REF\u002A\u002A,1*%
%TO.N,GND*%
X56388000Y42672000D03*
%TD*%
%TO.P,REF\u002A\u002A,1*%
%TO.N,GND*%
X58293000Y41402000D03*
%TD*%
%TO.P,REF\u002A\u002A,1*%
%TO.N,GND*%
X51562000Y45339000D03*
%TD*%
%TO.P,REF\u002A\u002A,1*%
%TO.N,GND*%
X54737000Y44958000D03*
%TD*%
%TO.P,REF\u002A\u002A,1*%
%TO.N,GND*%
X57912000Y44831000D03*
%TD*%
%TO.P,REF\u002A\u002A,1*%
%TO.N,GND*%
X60071000Y30353000D03*
%TD*%
%TO.P,REF\u002A\u002A,1*%
%TO.N,GND*%
X59817000Y33401000D03*
%TD*%
%TO.P,REF\u002A\u002A,1*%
%TO.N,GND*%
X57658000Y31623000D03*
%TD*%
%TO.P,REF\u002A\u002A,1*%
%TO.N,GND*%
X57658000Y29718000D03*
%TD*%
%TO.P,REF\u002A\u002A,1*%
%TO.N,GND*%
X54483000Y29591000D03*
%TD*%
%TO.P,REF\u002A\u002A,1*%
%TO.N,GND*%
X57404000Y27305000D03*
%TD*%
%TO.P,REF\u002A\u002A,1*%
%TO.N,GND*%
X54356000Y27432000D03*
%TD*%
%TO.P,REF\u002A\u002A,1*%
%TO.N,GND*%
X57404000Y20447000D03*
%TD*%
%TO.P,REF\u002A\u002A,1*%
%TO.N,GND*%
X54229000Y20447000D03*
%TD*%
%TO.P,REF\u002A\u002A,1*%
%TO.N,GND*%
X44577000Y8890000D03*
%TD*%
%TO.P,REF\u002A\u002A,1*%
%TO.N,GND*%
X47244000Y11176000D03*
%TD*%
%TO.P,REF\u002A\u002A,1*%
%TO.N,GND*%
X50292000Y8382000D03*
%TD*%
%TO.P,REF\u002A\u002A,1*%
%TO.N,GND*%
X46482000Y14478000D03*
%TD*%
%TO.P,REF\u002A\u002A,1*%
%TO.N,GND*%
X49149000Y14732000D03*
%TD*%
%TO.P,REF\u002A\u002A,1*%
%TO.N,GND*%
X42672000Y13335000D03*
%TD*%
%TO.P,REF\u002A\u002A,1*%
%TO.N,GND*%
X42545000Y19939000D03*
%TD*%
%TO.P,REF\u002A\u002A,1*%
%TO.N,GND*%
X41529000Y22479000D03*
%TD*%
%TO.P,REF\u002A\u002A,1*%
%TO.N,GND*%
X41275000Y9652000D03*
%TD*%
%TO.P,REF\u002A\u002A,1*%
%TO.N,GND*%
X38100000Y6350000D03*
%TD*%
%TO.P,REF\u002A\u002A,1*%
%TO.N,GND*%
X57531000Y12065000D03*
%TD*%
%TO.P,REF\u002A\u002A,1*%
%TO.N,GND*%
X54229000Y12065000D03*
%TD*%
%TO.P,L1,2*%
%TO.N,VDDR*%
%TA.AperFunction,SMDPad,CuDef*%
G36*
G01*
X41714000Y42487001D02*
X41714000Y41586999D01*
G75*
G02*
X41464001Y41337000I-249999J0D01*
G01*
X40813999Y41337000D01*
G75*
G02*
X40564000Y41586999I0J249999D01*
G01*
X40564000Y42487001D01*
G75*
G02*
X40813999Y42737000I249999J0D01*
G01*
X41464001Y42737000D01*
G75*
G02*
X41714000Y42487001I0J-249999D01*
G01*
G37*
%TD.AperFunction*%
%TO.P,L1,1*%
%TO.N,DCDC_SW*%
%TA.AperFunction,SMDPad,CuDef*%
G36*
G01*
X43764000Y42487001D02*
X43764000Y41586999D01*
G75*
G02*
X43514001Y41337000I-249999J0D01*
G01*
X42863999Y41337000D01*
G75*
G02*
X42614000Y41586999I0J249999D01*
G01*
X42614000Y42487001D01*
G75*
G02*
X42863999Y42737000I249999J0D01*
G01*
X43514001Y42737000D01*
G75*
G02*
X43764000Y42487001I0J-249999D01*
G01*
G37*
%TD.AperFunction*%
%TD*%
%TO.P,C13,2*%
%TO.N,GND*%
%TA.AperFunction,SMDPad,CuDef*%
G36*
G01*
X38156000Y40496500D02*
X38156000Y40021500D01*
G75*
G02*
X37918500Y39784000I-237500J0D01*
G01*
X37318500Y39784000D01*
G75*
G02*
X37081000Y40021500I0J237500D01*
G01*
X37081000Y40496500D01*
G75*
G02*
X37318500Y40734000I237500J0D01*
G01*
X37918500Y40734000D01*
G75*
G02*
X38156000Y40496500I0J-237500D01*
G01*
G37*
%TD.AperFunction*%
%TO.P,C13,1*%
%TO.N,VDDR*%
%TA.AperFunction,SMDPad,CuDef*%
G36*
G01*
X39881000Y40496500D02*
X39881000Y40021500D01*
G75*
G02*
X39643500Y39784000I-237500J0D01*
G01*
X39043500Y39784000D01*
G75*
G02*
X38806000Y40021500I0J237500D01*
G01*
X38806000Y40496500D01*
G75*
G02*
X39043500Y40734000I237500J0D01*
G01*
X39643500Y40734000D01*
G75*
G02*
X39881000Y40496500I0J-237500D01*
G01*
G37*
%TD.AperFunction*%
%TD*%
%TO.P,C31,2*%
%TO.N,Net-(C31-Pad2)*%
%TA.AperFunction,SMDPad,CuDef*%
G36*
G01*
X19276000Y29772000D02*
X19586000Y29772000D01*
G75*
G02*
X19741000Y29617000I0J-155000D01*
G01*
X19741000Y29192000D01*
G75*
G02*
X19586000Y29037000I-155000J0D01*
G01*
X19276000Y29037000D01*
G75*
G02*
X19121000Y29192000I0J155000D01*
G01*
X19121000Y29617000D01*
G75*
G02*
X19276000Y29772000I155000J0D01*
G01*
G37*
%TD.AperFunction*%
%TO.P,C31,1*%
%TO.N,Net-(C31-Pad1)*%
%TA.AperFunction,SMDPad,CuDef*%
G36*
G01*
X19276000Y30907000D02*
X19586000Y30907000D01*
G75*
G02*
X19741000Y30752000I0J-155000D01*
G01*
X19741000Y30327000D01*
G75*
G02*
X19586000Y30172000I-155000J0D01*
G01*
X19276000Y30172000D01*
G75*
G02*
X19121000Y30327000I0J155000D01*
G01*
X19121000Y30752000D01*
G75*
G02*
X19276000Y30907000I155000J0D01*
G01*
G37*
%TD.AperFunction*%
%TD*%
%TO.P,C8,2*%
%TO.N,GND*%
%TA.AperFunction,SMDPad,CuDef*%
G36*
G01*
X42053500Y28250000D02*
X42528500Y28250000D01*
G75*
G02*
X42766000Y28012500I0J-237500D01*
G01*
X42766000Y27412500D01*
G75*
G02*
X42528500Y27175000I-237500J0D01*
G01*
X42053500Y27175000D01*
G75*
G02*
X41816000Y27412500I0J237500D01*
G01*
X41816000Y28012500D01*
G75*
G02*
X42053500Y28250000I237500J0D01*
G01*
G37*
%TD.AperFunction*%
%TO.P,C8,1*%
%TO.N,+3V3*%
%TA.AperFunction,SMDPad,CuDef*%
G36*
G01*
X42053500Y29975000D02*
X42528500Y29975000D01*
G75*
G02*
X42766000Y29737500I0J-237500D01*
G01*
X42766000Y29137500D01*
G75*
G02*
X42528500Y28900000I-237500J0D01*
G01*
X42053500Y28900000D01*
G75*
G02*
X41816000Y29137500I0J237500D01*
G01*
X41816000Y29737500D01*
G75*
G02*
X42053500Y29975000I237500J0D01*
G01*
G37*
%TD.AperFunction*%
%TD*%
%TO.P,REF\u002A\u002A,1*%
%TO.N,GND*%
X62103000Y51054000D03*
%TD*%
%TO.P,REF\u002A\u002A,1*%
%TO.N,GND*%
X62103000Y53340000D03*
%TD*%
%TO.P,REF\u002A\u002A,1*%
%TO.N,GND*%
X48387000Y25273000D03*
%TD*%
%TO.P,REF\u002A\u002A,1*%
%TO.N,GND*%
X9271000Y32766000D03*
%TD*%
%TO.P,REF\u002A\u002A,1*%
%TO.N,GND*%
X60071000Y48006000D03*
%TD*%
%TO.P,REF\u002A\u002A,1*%
%TO.N,GND*%
X59563000Y6477000D03*
%TD*%
%TO.P,REF\u002A\u002A,1*%
%TO.N,GND*%
X57023000Y6477000D03*
%TD*%
%TO.P,REF\u002A\u002A,1*%
%TO.N,GND*%
X54483000Y6477000D03*
%TD*%
%TO.P,REF\u002A\u002A,1*%
%TO.N,GND*%
X51816000Y6477000D03*
%TD*%
%TO.P,REF\u002A\u002A,1*%
%TO.N,GND*%
X49530000Y6477000D03*
%TD*%
%TO.P,REF\u002A\u002A,1*%
%TO.N,GND*%
X46990000Y6477000D03*
%TD*%
%TO.P,REF\u002A\u002A,1*%
%TO.N,GND*%
X44450000Y6477000D03*
%TD*%
%TO.P,REF\u002A\u002A,1*%
%TO.N,GND*%
X41910000Y6477000D03*
%TD*%
%TO.P,REF\u002A\u002A,1*%
%TO.N,GND*%
X22733000Y6477000D03*
%TD*%
%TO.P,REF\u002A\u002A,1*%
%TO.N,GND*%
X20193000Y6477000D03*
%TD*%
%TO.P,REF\u002A\u002A,1*%
%TO.N,GND*%
X17653000Y6477000D03*
%TD*%
%TO.P,REF\u002A\u002A,1*%
%TO.N,GND*%
X15113000Y6477000D03*
%TD*%
%TO.P,REF\u002A\u002A,1*%
%TO.N,GND*%
X12700000Y6477000D03*
%TD*%
%TO.P,REF\u002A\u002A,1*%
%TO.N,GND*%
X9271000Y48006000D03*
%TD*%
D14*
%TO.P,U5,1*%
%TO.N,GND*%
X3810000Y1905000D03*
D15*
%TO.P,U5,2*%
X3810000Y4445000D03*
%TO.P,U5,3*%
%TO.N,+3V3*%
X6350000Y1905000D03*
%TO.P,U5,4*%
X6350000Y4445000D03*
%TO.P,U5,5*%
%TO.N,Net-(U5-Pad5)*%
X8890000Y1905000D03*
%TO.P,U5,6*%
%TO.N,Net-(U5-Pad6)*%
X8890000Y4445000D03*
%TO.P,U5,7*%
%TO.N,Net-(U5-Pad7)*%
X11430000Y1905000D03*
%TO.P,U5,8*%
%TO.N,Net-(U5-Pad8)*%
X11430000Y4445000D03*
%TO.P,U5,9*%
%TO.N,Net-(U5-Pad9)*%
X13970000Y1905000D03*
%TO.P,U5,10*%
%TO.N,/BeagleBone_Headers/BeagleBone_Reset*%
X13970000Y4445000D03*
%TO.P,U5,11*%
%TO.N,Net-(U5-Pad11)*%
X16510000Y1905000D03*
%TO.P,U5,12*%
%TO.N,Net-(U5-Pad12)*%
X16510000Y4445000D03*
%TO.P,U5,13*%
%TO.N,Net-(U5-Pad13)*%
X19050000Y1905000D03*
%TO.P,U5,14*%
%TO.N,Net-(U5-Pad14)*%
X19050000Y4445000D03*
%TO.P,U5,15*%
%TO.N,Net-(U5-Pad15)*%
X21590000Y1905000D03*
%TO.P,U5,16*%
%TO.N,Net-(U5-Pad16)*%
X21590000Y4445000D03*
%TO.P,U5,17*%
%TO.N,SPI_CS*%
X24130000Y1905000D03*
%TO.P,U5,18*%
%TO.N,SPI_MOSI*%
X24130000Y4445000D03*
%TO.P,U5,19*%
%TO.N,I2C2_SCL*%
X26670000Y1905000D03*
%TO.P,U5,20*%
%TO.N,I2C2_SDA*%
X26670000Y4445000D03*
%TO.P,U5,21*%
%TO.N,SPI_MISO*%
X29210000Y1905000D03*
%TO.P,U5,22*%
%TO.N,SPI_CLK*%
X29210000Y4445000D03*
%TO.P,U5,23*%
%TO.N,Net-(U5-Pad23)*%
X31750000Y1905000D03*
%TO.P,U5,24*%
%TO.N,UART_TX*%
X31750000Y4445000D03*
%TO.P,U5,25*%
%TO.N,Net-(U5-Pad25)*%
X34290000Y1905000D03*
%TO.P,U5,26*%
%TO.N,UART_RX*%
X34290000Y4445000D03*
%TO.P,U5,27*%
%TO.N,Net-(U5-Pad27)*%
X36830000Y1905000D03*
%TO.P,U5,28*%
%TO.N,Net-(U5-Pad28)*%
X36830000Y4445000D03*
%TO.P,U5,29*%
%TO.N,Net-(U5-Pad29)*%
X39370000Y1905000D03*
%TO.P,U5,30*%
%TO.N,Network_Connect*%
X39370000Y4445000D03*
%TO.P,U5,31*%
%TO.N,Net-(U5-Pad31)*%
X41910000Y1905000D03*
%TO.P,U5,32*%
%TO.N,Net-(U5-Pad32)*%
X41910000Y4445000D03*
%TO.P,U5,33*%
%TO.N,Net-(U5-Pad33)*%
X44450000Y1905000D03*
%TO.P,U5,34*%
%TO.N,Net-(U5-Pad34)*%
X44450000Y4445000D03*
%TO.P,U5,35*%
%TO.N,Net-(U5-Pad35)*%
X46990000Y1905000D03*
%TO.P,U5,36*%
%TO.N,Net-(U5-Pad36)*%
X46990000Y4445000D03*
%TO.P,U5,37*%
%TO.N,Net-(U5-Pad37)*%
X49530000Y1905000D03*
%TO.P,U5,38*%
%TO.N,Net-(U5-Pad38)*%
X49530000Y4445000D03*
%TO.P,U5,39*%
%TO.N,Net-(U5-Pad39)*%
X52070000Y1905000D03*
%TO.P,U5,40*%
%TO.N,Net-(U5-Pad40)*%
X52070000Y4445000D03*
%TO.P,U5,41*%
%TO.N,Lan_HeartBeat*%
X54610000Y1905000D03*
%TO.P,U5,42*%
%TO.N,Net-(U5-Pad42)*%
X54610000Y4445000D03*
%TO.P,U5,43*%
%TO.N,GND*%
X57150000Y1905000D03*
%TO.P,U5,44*%
X57150000Y4445000D03*
%TO.P,U5,45*%
X59690000Y1905000D03*
%TO.P,U5,46*%
X59690000Y4445000D03*
%TD*%
D11*
%TO.P,REF\u002A\u002A,1*%
%TO.N,GND*%
X9271000Y6477000D03*
%TD*%
%TO.P,REF\u002A\u002A,1*%
%TO.N,GND*%
X9271000Y9144000D03*
%TD*%
%TO.P,REF\u002A\u002A,1*%
%TO.N,GND*%
X9271000Y12446000D03*
%TD*%
%TO.P,REF\u002A\u002A,1*%
%TO.N,GND*%
X9271000Y14986000D03*
%TD*%
%TO.P,REF\u002A\u002A,1*%
%TO.N,GND*%
X9271000Y17526000D03*
%TD*%
%TO.P,REF\u002A\u002A,1*%
%TO.N,GND*%
X9271000Y20066000D03*
%TD*%
%TO.P,REF\u002A\u002A,1*%
%TO.N,GND*%
X9271000Y22606000D03*
%TD*%
%TO.P,REF\u002A\u002A,1*%
%TO.N,GND*%
X9271000Y25146000D03*
%TD*%
%TO.P,REF\u002A\u002A,1*%
%TO.N,GND*%
X9271000Y27686000D03*
%TD*%
%TO.P,REF\u002A\u002A,1*%
%TO.N,GND*%
X9271000Y30226000D03*
%TD*%
%TO.P,REF\u002A\u002A,1*%
%TO.N,GND*%
X9271000Y35306000D03*
%TD*%
%TO.P,REF\u002A\u002A,1*%
%TO.N,GND*%
X9271000Y37846000D03*
%TD*%
%TO.P,REF\u002A\u002A,1*%
%TO.N,GND*%
X9271000Y40386000D03*
%TD*%
%TO.P,REF\u002A\u002A,1*%
%TO.N,GND*%
X9271000Y42926000D03*
%TD*%
%TO.P,REF\u002A\u002A,1*%
%TO.N,GND*%
X9271000Y45466000D03*
%TD*%
%TO.P,REF\u002A\u002A,1*%
%TO.N,GND*%
X62103000Y6096000D03*
%TD*%
%TO.P,REF\u002A\u002A,1*%
%TO.N,GND*%
X62103000Y12446000D03*
%TD*%
%TO.P,REF\u002A\u002A,1*%
%TO.N,GND*%
X62103000Y7874000D03*
%TD*%
%TO.P,REF\u002A\u002A,1*%
%TO.N,GND*%
X62103000Y9906000D03*
%TD*%
%TO.P,REF\u002A\u002A,1*%
%TO.N,GND*%
X62103000Y14986000D03*
%TD*%
%TO.P,REF\u002A\u002A,1*%
%TO.N,GND*%
X62103000Y17526000D03*
%TD*%
%TO.P,REF\u002A\u002A,1*%
%TO.N,GND*%
X62103000Y20066000D03*
%TD*%
%TO.P,REF\u002A\u002A,1*%
%TO.N,GND*%
X62103000Y22606000D03*
%TD*%
%TO.P,REF\u002A\u002A,1*%
%TO.N,GND*%
X62103000Y25146000D03*
%TD*%
%TO.P,REF\u002A\u002A,1*%
%TO.N,GND*%
X62103000Y27686000D03*
%TD*%
%TO.P,REF\u002A\u002A,1*%
%TO.N,GND*%
X62103000Y30226000D03*
%TD*%
%TO.P,REF\u002A\u002A,1*%
%TO.N,GND*%
X62103000Y32766000D03*
%TD*%
%TO.P,REF\u002A\u002A,1*%
%TO.N,GND*%
X62103000Y35306000D03*
%TD*%
%TO.P,REF\u002A\u002A,1*%
%TO.N,GND*%
X62103000Y37846000D03*
%TD*%
%TO.P,REF\u002A\u002A,1*%
%TO.N,GND*%
X62103000Y40386000D03*
%TD*%
%TO.P,REF\u002A\u002A,1*%
%TO.N,GND*%
X62103000Y42926000D03*
%TD*%
%TO.P,REF\u002A\u002A,1*%
%TO.N,GND*%
X62103000Y45466000D03*
%TD*%
%TO.P,REF\u002A\u002A,1*%
%TO.N,GND*%
X62103000Y48006000D03*
%TD*%
%TO.P,REF\u002A\u002A,1*%
%TO.N,GND*%
X54991000Y48006000D03*
%TD*%
%TO.P,REF\u002A\u002A,1*%
%TO.N,GND*%
X57531000Y48006000D03*
%TD*%
%TO.P,REF\u002A\u002A,1*%
%TO.N,GND*%
X52451000Y48006000D03*
%TD*%
%TO.P,REF\u002A\u002A,1*%
%TO.N,GND*%
X49911000Y48006000D03*
%TD*%
%TO.P,REF\u002A\u002A,1*%
%TO.N,GND*%
X47371000Y48006000D03*
%TD*%
%TO.P,REF\u002A\u002A,1*%
%TO.N,GND*%
X44831000Y48006000D03*
%TD*%
%TO.P,REF\u002A\u002A,1*%
%TO.N,GND*%
X42291000Y48006000D03*
%TD*%
%TO.P,REF\u002A\u002A,1*%
%TO.N,GND*%
X34671000Y48006000D03*
%TD*%
%TO.P,REF\u002A\u002A,1*%
%TO.N,GND*%
X32131000Y48006000D03*
%TD*%
%TO.P,REF\u002A\u002A,1*%
%TO.N,GND*%
X29591000Y48006000D03*
%TD*%
%TO.P,REF\u002A\u002A,1*%
%TO.N,GND*%
X27051000Y48006000D03*
%TD*%
%TO.P,REF\u002A\u002A,1*%
%TO.N,GND*%
X24511000Y48006000D03*
%TD*%
%TO.P,REF\u002A\u002A,1*%
%TO.N,GND*%
X21971000Y48006000D03*
%TD*%
%TO.P,REF\u002A\u002A,1*%
%TO.N,GND*%
X19431000Y48006000D03*
%TD*%
%TO.P,REF\u002A\u002A,1*%
%TO.N,GND*%
X16891000Y48006000D03*
%TD*%
%TO.P,REF\u002A\u002A,1*%
%TO.N,GND*%
X14351000Y48006000D03*
%TD*%
%TO.P,REF\u002A\u002A,1*%
%TO.N,GND*%
X11811000Y48006000D03*
%TD*%
%TO.P,C15,1*%
%TO.N,Net-(C15-Pad1)*%
%TA.AperFunction,SMDPad,CuDef*%
G36*
G01*
X44066000Y29226500D02*
X44066000Y29701500D01*
G75*
G02*
X44303500Y29939000I237500J0D01*
G01*
X44903500Y29939000D01*
G75*
G02*
X45141000Y29701500I0J-237500D01*
G01*
X45141000Y29226500D01*
G75*
G02*
X44903500Y28989000I-237500J0D01*
G01*
X44303500Y28989000D01*
G75*
G02*
X44066000Y29226500I0J237500D01*
G01*
G37*
%TD.AperFunction*%
%TO.P,C15,2*%
%TO.N,GND*%
%TA.AperFunction,SMDPad,CuDef*%
G36*
G01*
X45791000Y29226500D02*
X45791000Y29701500D01*
G75*
G02*
X46028500Y29939000I237500J0D01*
G01*
X46628500Y29939000D01*
G75*
G02*
X46866000Y29701500I0J-237500D01*
G01*
X46866000Y29226500D01*
G75*
G02*
X46628500Y28989000I-237500J0D01*
G01*
X46028500Y28989000D01*
G75*
G02*
X45791000Y29226500I0J237500D01*
G01*
G37*
%TD.AperFunction*%
%TD*%
D15*
%TO.P,U4,46*%
%TO.N,Net-(U4-Pad46)*%
X59690000Y52705000D03*
%TO.P,U4,45*%
%TO.N,Net-(U4-Pad45)*%
X59690000Y50165000D03*
%TO.P,U4,44*%
%TO.N,Net-(U4-Pad44)*%
X57150000Y52705000D03*
%TO.P,U4,43*%
%TO.N,Net-(U4-Pad43)*%
X57150000Y50165000D03*
%TO.P,U4,42*%
%TO.N,Net-(U4-Pad42)*%
X54610000Y52705000D03*
%TO.P,U4,41*%
%TO.N,Net-(U4-Pad41)*%
X54610000Y50165000D03*
%TO.P,U4,40*%
%TO.N,Net-(U4-Pad40)*%
X52070000Y52705000D03*
%TO.P,U4,39*%
%TO.N,Net-(U4-Pad39)*%
X52070000Y50165000D03*
%TO.P,U4,38*%
%TO.N,Net-(U4-Pad38)*%
X49530000Y52705000D03*
%TO.P,U4,37*%
%TO.N,Net-(U4-Pad37)*%
X49530000Y50165000D03*
%TO.P,U4,36*%
%TO.N,Net-(U4-Pad36)*%
X46990000Y52705000D03*
%TO.P,U4,35*%
%TO.N,Net-(U4-Pad35)*%
X46990000Y50165000D03*
%TO.P,U4,34*%
%TO.N,Net-(U4-Pad34)*%
X44450000Y52705000D03*
%TO.P,U4,33*%
%TO.N,Net-(U4-Pad33)*%
X44450000Y50165000D03*
%TO.P,U4,32*%
%TO.N,Net-(U4-Pad32)*%
X41910000Y52705000D03*
%TO.P,U4,31*%
%TO.N,Net-(U4-Pad31)*%
X41910000Y50165000D03*
%TO.P,U4,30*%
%TO.N,Net-(U4-Pad30)*%
X39370000Y52705000D03*
%TO.P,U4,29*%
%TO.N,Net-(U4-Pad29)*%
X39370000Y50165000D03*
%TO.P,U4,28*%
%TO.N,Net-(U4-Pad28)*%
X36830000Y52705000D03*
%TO.P,U4,27*%
%TO.N,Net-(U4-Pad27)*%
X36830000Y50165000D03*
%TO.P,U4,26*%
%TO.N,Net-(U4-Pad26)*%
X34290000Y52705000D03*
%TO.P,U4,25*%
%TO.N,Net-(U4-Pad25)*%
X34290000Y50165000D03*
%TO.P,U4,24*%
%TO.N,Net-(U4-Pad24)*%
X31750000Y52705000D03*
%TO.P,U4,23*%
%TO.N,Net-(U4-Pad23)*%
X31750000Y50165000D03*
%TO.P,U4,22*%
%TO.N,Net-(U4-Pad22)*%
X29210000Y52705000D03*
%TO.P,U4,21*%
%TO.N,Net-(U4-Pad21)*%
X29210000Y50165000D03*
%TO.P,U4,20*%
%TO.N,Net-(U4-Pad20)*%
X26670000Y52705000D03*
%TO.P,U4,19*%
%TO.N,Net-(U4-Pad19)*%
X26670000Y50165000D03*
%TO.P,U4,18*%
%TO.N,Net-(U4-Pad18)*%
X24130000Y52705000D03*
%TO.P,U4,17*%
%TO.N,Net-(U4-Pad17)*%
X24130000Y50165000D03*
%TO.P,U4,16*%
%TO.N,Net-(U4-Pad16)*%
X21590000Y52705000D03*
%TO.P,U4,15*%
%TO.N,Net-(U4-Pad15)*%
X21590000Y50165000D03*
%TO.P,U4,14*%
%TO.N,Net-(U4-Pad14)*%
X19050000Y52705000D03*
%TO.P,U4,13*%
%TO.N,Net-(U4-Pad13)*%
X19050000Y50165000D03*
%TO.P,U4,12*%
%TO.N,Net-(U4-Pad12)*%
X16510000Y52705000D03*
%TO.P,U4,11*%
%TO.N,Net-(U4-Pad11)*%
X16510000Y50165000D03*
%TO.P,U4,10*%
%TO.N,Net-(U4-Pad10)*%
X13970000Y52705000D03*
%TO.P,U4,9*%
%TO.N,Net-(U4-Pad9)*%
X13970000Y50165000D03*
%TO.P,U4,8*%
%TO.N,Net-(U4-Pad8)*%
X11430000Y52705000D03*
%TO.P,U4,7*%
%TO.N,Net-(U4-Pad7)*%
X11430000Y50165000D03*
%TO.P,U4,6*%
%TO.N,Net-(U4-Pad6)*%
X8890000Y52705000D03*
%TO.P,U4,5*%
%TO.N,Net-(U4-Pad5)*%
X8890000Y50165000D03*
%TO.P,U4,4*%
%TO.N,Net-(U4-Pad4)*%
X6350000Y52705000D03*
%TO.P,U4,3*%
%TO.N,Net-(U4-Pad3)*%
X6350000Y50165000D03*
%TO.P,U4,2*%
%TO.N,GND*%
X3810000Y52705000D03*
D14*
%TO.P,U4,1*%
X3810000Y50165000D03*
%TD*%
%TO.P,C6,2*%
%TO.N,GND*%
%TA.AperFunction,SMDPad,CuDef*%
G36*
G01*
X36505000Y29701500D02*
X36505000Y29226500D01*
G75*
G02*
X36267500Y28989000I-237500J0D01*
G01*
X35667500Y28989000D01*
G75*
G02*
X35430000Y29226500I0J237500D01*
G01*
X35430000Y29701500D01*
G75*
G02*
X35667500Y29939000I237500J0D01*
G01*
X36267500Y29939000D01*
G75*
G02*
X36505000Y29701500I0J-237500D01*
G01*
G37*
%TD.AperFunction*%
%TO.P,C6,1*%
%TO.N,+3V3*%
%TA.AperFunction,SMDPad,CuDef*%
G36*
G01*
X38230000Y29701500D02*
X38230000Y29226500D01*
G75*
G02*
X37992500Y28989000I-237500J0D01*
G01*
X37392500Y28989000D01*
G75*
G02*
X37155000Y29226500I0J237500D01*
G01*
X37155000Y29701500D01*
G75*
G02*
X37392500Y29939000I237500J0D01*
G01*
X37992500Y29939000D01*
G75*
G02*
X38230000Y29701500I0J-237500D01*
G01*
G37*
%TD.AperFunction*%
%TD*%
%TO.P,C9,2*%
%TO.N,GND*%
%TA.AperFunction,SMDPad,CuDef*%
G36*
G01*
X47481500Y38425000D02*
X47006500Y38425000D01*
G75*
G02*
X46769000Y38662500I0J237500D01*
G01*
X46769000Y39262500D01*
G75*
G02*
X47006500Y39500000I237500J0D01*
G01*
X47481500Y39500000D01*
G75*
G02*
X47719000Y39262500I0J-237500D01*
G01*
X47719000Y38662500D01*
G75*
G02*
X47481500Y38425000I-237500J0D01*
G01*
G37*
%TD.AperFunction*%
%TO.P,C9,1*%
%TO.N,+3V3*%
%TA.AperFunction,SMDPad,CuDef*%
G36*
G01*
X47481500Y36700000D02*
X47006500Y36700000D01*
G75*
G02*
X46769000Y36937500I0J237500D01*
G01*
X46769000Y37537500D01*
G75*
G02*
X47006500Y37775000I237500J0D01*
G01*
X47481500Y37775000D01*
G75*
G02*
X47719000Y37537500I0J-237500D01*
G01*
X47719000Y36937500D01*
G75*
G02*
X47481500Y36700000I-237500J0D01*
G01*
G37*
%TD.AperFunction*%
%TD*%
%TO.P,C10,1*%
%TO.N,+3V3*%
%TA.AperFunction,SMDPad,CuDef*%
G36*
G01*
X49132500Y36700000D02*
X48657500Y36700000D01*
G75*
G02*
X48420000Y36937500I0J237500D01*
G01*
X48420000Y37537500D01*
G75*
G02*
X48657500Y37775000I237500J0D01*
G01*
X49132500Y37775000D01*
G75*
G02*
X49370000Y37537500I0J-237500D01*
G01*
X49370000Y36937500D01*
G75*
G02*
X49132500Y36700000I-237500J0D01*
G01*
G37*
%TD.AperFunction*%
%TO.P,C10,2*%
%TO.N,GND*%
%TA.AperFunction,SMDPad,CuDef*%
G36*
G01*
X49132500Y38425000D02*
X48657500Y38425000D01*
G75*
G02*
X48420000Y38662500I0J237500D01*
G01*
X48420000Y39262500D01*
G75*
G02*
X48657500Y39500000I237500J0D01*
G01*
X49132500Y39500000D01*
G75*
G02*
X49370000Y39262500I0J-237500D01*
G01*
X49370000Y38662500D01*
G75*
G02*
X49132500Y38425000I-237500J0D01*
G01*
G37*
%TD.AperFunction*%
%TD*%
%TO.P,C11,1*%
%TO.N,VDDR*%
%TA.AperFunction,SMDPad,CuDef*%
G36*
G01*
X39119000Y43798500D02*
X39119000Y43323500D01*
G75*
G02*
X38881500Y43086000I-237500J0D01*
G01*
X38281500Y43086000D01*
G75*
G02*
X38044000Y43323500I0J237500D01*
G01*
X38044000Y43798500D01*
G75*
G02*
X38281500Y44036000I237500J0D01*
G01*
X38881500Y44036000D01*
G75*
G02*
X39119000Y43798500I0J-237500D01*
G01*
G37*
%TD.AperFunction*%
%TO.P,C11,2*%
%TO.N,GND*%
%TA.AperFunction,SMDPad,CuDef*%
G36*
G01*
X37394000Y43798500D02*
X37394000Y43323500D01*
G75*
G02*
X37156500Y43086000I-237500J0D01*
G01*
X36556500Y43086000D01*
G75*
G02*
X36319000Y43323500I0J237500D01*
G01*
X36319000Y43798500D01*
G75*
G02*
X36556500Y44036000I237500J0D01*
G01*
X37156500Y44036000D01*
G75*
G02*
X37394000Y43798500I0J-237500D01*
G01*
G37*
%TD.AperFunction*%
%TD*%
%TO.P,C16,1*%
%TO.N,VDDR*%
%TA.AperFunction,SMDPad,CuDef*%
G36*
G01*
X39119000Y42147500D02*
X39119000Y41672500D01*
G75*
G02*
X38881500Y41435000I-237500J0D01*
G01*
X38281500Y41435000D01*
G75*
G02*
X38044000Y41672500I0J237500D01*
G01*
X38044000Y42147500D01*
G75*
G02*
X38281500Y42385000I237500J0D01*
G01*
X38881500Y42385000D01*
G75*
G02*
X39119000Y42147500I0J-237500D01*
G01*
G37*
%TD.AperFunction*%
%TO.P,C16,2*%
%TO.N,GND*%
%TA.AperFunction,SMDPad,CuDef*%
G36*
G01*
X37394000Y42147500D02*
X37394000Y41672500D01*
G75*
G02*
X37156500Y41435000I-237500J0D01*
G01*
X36556500Y41435000D01*
G75*
G02*
X36319000Y41672500I0J237500D01*
G01*
X36319000Y42147500D01*
G75*
G02*
X36556500Y42385000I237500J0D01*
G01*
X37156500Y42385000D01*
G75*
G02*
X37394000Y42147500I0J-237500D01*
G01*
G37*
%TD.AperFunction*%
%TD*%
D16*
%TO.N,GND*%
X62230000Y46736000D03*
X24003000Y7874000D03*
X19812000Y10922000D03*
X16383000Y10922000D03*
X12573000Y10922000D03*
X9271000Y10922000D03*
X59944000Y14986000D03*
X59944000Y16764000D03*
X49149000Y19812000D03*
X51435000Y19812000D03*
X50673000Y18542000D03*
X53848000Y18669000D03*
X57912000Y18669000D03*
X61087000Y18669000D03*
X59944000Y23622000D03*
X49403000Y28448000D03*
X50419000Y29464000D03*
X50800000Y25527000D03*
X53975000Y25527000D03*
X58039000Y25527000D03*
X61214000Y25527000D03*
X59944000Y8255000D03*
X57912000Y10160000D03*
X53848000Y10287000D03*
X50800000Y10160000D03*
X51435000Y11430000D03*
X49276000Y11303000D03*
X45974000Y15875000D03*
X61087000Y10160000D03*
X34290000Y42291000D03*
X32639000Y42418000D03*
X32004000Y41656000D03*
X31877000Y37846000D03*
X31877000Y36576000D03*
X33274000Y36576000D03*
X24638000Y36195000D03*
X26162000Y36195000D03*
X26162000Y37592000D03*
X25654000Y40640000D03*
X25654000Y42037000D03*
X27178000Y41910000D03*
X27178000Y30099000D03*
X26670000Y30734000D03*
X27305000Y31877000D03*
X39751000Y42418000D03*
X38989000Y45085000D03*
X37592000Y38989000D03*
X36322000Y40513000D03*
X35560000Y41910000D03*
X35560000Y43434000D03*
X36830000Y44831000D03*
X47244000Y40259000D03*
X48133000Y40386000D03*
X50165000Y38989000D03*
X58166000Y46609000D03*
X54610000Y46736000D03*
X50927000Y46736000D03*
X46863000Y45339000D03*
X48133000Y46609000D03*
X51435000Y36195000D03*
X49911000Y32319600D03*
X46228000Y30988000D03*
X45593000Y28194000D03*
X47752000Y28829000D03*
X33710525Y20828000D03*
X31369000Y20701000D03*
X28829000Y20701000D03*
X24257000Y34544000D03*
X25400000Y34417000D03*
X24130000Y32893000D03*
X25527000Y32893000D03*
X53467000Y36957000D03*
X55626000Y40767000D03*
X57277000Y39116000D03*
X34417000Y30226000D03*
X34290000Y29083000D03*
X32893000Y30734000D03*
X32893000Y29464000D03*
X31623000Y29464000D03*
X43180000Y26797000D03*
X42291000Y26543000D03*
%TO.N,+3V3*%
X24003000Y9906000D03*
X45974000Y17780000D03*
X41021000Y39751000D03*
X47244000Y36068000D03*
X50165000Y37211000D03*
X48260000Y42291000D03*
X46863000Y43561000D03*
X36322000Y22098000D03*
X53467000Y36068000D03*
X38735000Y29845000D03*
X38735000Y28829000D03*
X43434000Y29718000D03*
%TO.N,VDDR*%
X38735000Y39116000D03*
X40469600Y39116000D03*
%TO.N,Net-(C15-Pad1)*%
X44577000Y28194000D03*
%TO.N,/ZigBeeFiltering/RX_TX*%
X30480000Y33401000D03*
X35941000Y38989000D03*
X36830000Y35052000D03*
%TO.N,Net-(C31-Pad1)*%
X24003000Y33655000D03*
%TO.N,DCDC_SW*%
X46228000Y35814000D03*
%TD*%
D17*
%TO.N,GND*%
X37618500Y39015500D02*
X37592000Y38989000D01*
X37618500Y40259000D02*
X37618500Y39015500D01*
X36576000Y40259000D02*
X36322000Y40513000D01*
X37618500Y40259000D02*
X36576000Y40259000D01*
X36856500Y41910000D02*
X35560000Y41910000D01*
X35687000Y43561000D02*
X35560000Y43434000D01*
X36856500Y43561000D02*
X35687000Y43561000D01*
X36856500Y44804500D02*
X36830000Y44831000D01*
X36856500Y43561000D02*
X36856500Y44804500D01*
X37618500Y41148000D02*
X36856500Y41910000D01*
X37618500Y40259000D02*
X37618500Y41148000D01*
X36856500Y41910000D02*
X36856500Y43561000D01*
X47244000Y38962500D02*
X47244000Y40259000D01*
X48895000Y39624000D02*
X48133000Y40386000D01*
X48895000Y38962500D02*
X48895000Y39624000D01*
X50138500Y38962500D02*
X50165000Y38989000D01*
X48895000Y38962500D02*
X50138500Y38962500D01*
X46328500Y28929500D02*
X45593000Y28194000D01*
X46328500Y29464000D02*
X46328500Y28929500D01*
X47117000Y29464000D02*
X47752000Y28829000D01*
X46328500Y29464000D02*
X47117000Y29464000D01*
X35179000Y29464000D02*
X34417000Y30226000D01*
X35967500Y29464000D02*
X35179000Y29464000D01*
X34671000Y29464000D02*
X34290000Y29083000D01*
X35967500Y29464000D02*
X34671000Y29464000D01*
X42291000Y27686000D02*
X43180000Y26797000D01*
X42291000Y27712500D02*
X42291000Y27686000D01*
X42291000Y27712500D02*
X42291000Y26543000D01*
%TO.N,+3V3*%
X47244000Y37237500D02*
X47244000Y36068000D01*
X48895000Y37237500D02*
X47244000Y37237500D01*
X50138500Y37237500D02*
X50165000Y37211000D01*
X48895000Y37237500D02*
X50138500Y37237500D01*
X38354000Y29464000D02*
X38735000Y29845000D01*
X37692500Y29464000D02*
X38354000Y29464000D01*
X38100000Y29464000D02*
X38735000Y28829000D01*
X37692500Y29464000D02*
X38100000Y29464000D01*
X43153500Y29437500D02*
X43434000Y29718000D01*
X42291000Y29437500D02*
X43153500Y29437500D01*
%TO.N,VDDR*%
X39343500Y40259000D02*
X39343500Y40158500D01*
X38735000Y39650500D02*
X39343500Y40259000D01*
X38735000Y39116000D02*
X38735000Y39650500D01*
X39343500Y41148000D02*
X38581500Y41910000D01*
X39343500Y40259000D02*
X39343500Y41148000D01*
X38581500Y41910000D02*
X38581500Y43561000D01*
X39343500Y40242354D02*
X39343500Y40259000D01*
X39343500Y40242100D02*
X39343500Y40259000D01*
X40469600Y39116000D02*
X39343500Y40242100D01*
X40910399Y41808399D02*
X41139000Y42037000D01*
X39458391Y41808399D02*
X40910399Y41808399D01*
X39356790Y41910000D02*
X39458391Y41808399D01*
X38581500Y41910000D02*
X39356790Y41910000D01*
%TO.N,Net-(C15-Pad1)*%
X44603500Y28220500D02*
X44577000Y28194000D01*
X44603500Y29464000D02*
X44603500Y28220500D01*
%TO.N,/ZigBeeFiltering/RX_TX*%
X30480000Y33401000D02*
X32004000Y34925000D01*
X37084000Y37846000D02*
X35941000Y38989000D01*
X36703000Y34925000D02*
X36830000Y35052000D01*
X32004000Y34925000D02*
X36703000Y34925000D01*
X37084000Y35306000D02*
X36830000Y35052000D01*
X37084000Y37846000D02*
X37084000Y35306000D01*
%TO.N,Net-(C31-Pad1)*%
X24003000Y33655000D02*
X22546500Y33655000D01*
D18*
X20607750Y31716250D02*
X20607750Y31970250D01*
D17*
X22546500Y33655000D02*
X20607750Y31716250D01*
X20607750Y31716250D02*
X19431000Y30539500D01*
%TO.N,DCDC_SW*%
X44196000Y42037000D02*
X43189000Y42037000D01*
X46228000Y40005000D02*
X44196000Y42037000D01*
X46228000Y35814000D02*
X46228000Y40005000D01*
%TO.N,Net-(C31-Pad2)*%
X19431000Y29404500D02*
X19431000Y29337000D01*
X19431000Y29404500D02*
X19431000Y29083000D01*
X16891000Y26543000D02*
X16891000Y22733000D01*
X19431000Y29083000D02*
X16891000Y26543000D01*
%TD*%
%TO.N,GND*%
X5393653Y53870312D02*
X5184688Y53661347D01*
X5020505Y53415630D01*
X4907413Y53142604D01*
X4849760Y52852761D01*
X4849760Y52557239D01*
X4907413Y52267396D01*
X5020505Y51994370D01*
X5184688Y51748653D01*
X5393653Y51539688D01*
X5550330Y51435000D01*
X5393653Y51330312D01*
X5184688Y51121347D01*
X5020505Y50875630D01*
X4907413Y50602604D01*
X4849760Y50312761D01*
X4849760Y50017239D01*
X4907413Y49727396D01*
X5020505Y49454370D01*
X5184688Y49208653D01*
X5393653Y48999688D01*
X5639370Y48835505D01*
X5912396Y48722413D01*
X6202239Y48664760D01*
X6497761Y48664760D01*
X6787604Y48722413D01*
X7060630Y48835505D01*
X7306347Y48999688D01*
X7515312Y49208653D01*
X7620000Y49365330D01*
X7724688Y49208653D01*
X7933653Y48999688D01*
X8179370Y48835505D01*
X8452396Y48722413D01*
X8742239Y48664760D01*
X9037761Y48664760D01*
X9327604Y48722413D01*
X9600630Y48835505D01*
X9846347Y48999688D01*
X10055312Y49208653D01*
X10160000Y49365330D01*
X10264688Y49208653D01*
X10473653Y48999688D01*
X10719370Y48835505D01*
X10992396Y48722413D01*
X11282239Y48664760D01*
X11577761Y48664760D01*
X11867604Y48722413D01*
X12140630Y48835505D01*
X12386347Y48999688D01*
X12595312Y49208653D01*
X12700000Y49365330D01*
X12804688Y49208653D01*
X13013653Y48999688D01*
X13259370Y48835505D01*
X13532396Y48722413D01*
X13822239Y48664760D01*
X14117761Y48664760D01*
X14407604Y48722413D01*
X14680630Y48835505D01*
X14926347Y48999688D01*
X15135312Y49208653D01*
X15240000Y49365330D01*
X15344688Y49208653D01*
X15553653Y48999688D01*
X15799370Y48835505D01*
X16072396Y48722413D01*
X16362239Y48664760D01*
X16657761Y48664760D01*
X16947604Y48722413D01*
X17220630Y48835505D01*
X17466347Y48999688D01*
X17675312Y49208653D01*
X17780000Y49365330D01*
X17884688Y49208653D01*
X18093653Y48999688D01*
X18339370Y48835505D01*
X18612396Y48722413D01*
X18902239Y48664760D01*
X19197761Y48664760D01*
X19487604Y48722413D01*
X19760630Y48835505D01*
X20006347Y48999688D01*
X20215312Y49208653D01*
X20320000Y49365330D01*
X20424688Y49208653D01*
X20633653Y48999688D01*
X20879370Y48835505D01*
X21152396Y48722413D01*
X21442239Y48664760D01*
X21737761Y48664760D01*
X22027604Y48722413D01*
X22300630Y48835505D01*
X22546347Y48999688D01*
X22755312Y49208653D01*
X22860000Y49365330D01*
X22964688Y49208653D01*
X23173653Y48999688D01*
X23419370Y48835505D01*
X23692396Y48722413D01*
X23982239Y48664760D01*
X24277761Y48664760D01*
X24567604Y48722413D01*
X24840630Y48835505D01*
X25086347Y48999688D01*
X25295312Y49208653D01*
X25400000Y49365330D01*
X25504688Y49208653D01*
X25713653Y48999688D01*
X25959370Y48835505D01*
X26232396Y48722413D01*
X26522239Y48664760D01*
X26817761Y48664760D01*
X27107604Y48722413D01*
X27380630Y48835505D01*
X27626347Y48999688D01*
X27835312Y49208653D01*
X27940000Y49365330D01*
X28044688Y49208653D01*
X28253653Y48999688D01*
X28499370Y48835505D01*
X28772396Y48722413D01*
X29062239Y48664760D01*
X29357761Y48664760D01*
X29647604Y48722413D01*
X29920630Y48835505D01*
X30166347Y48999688D01*
X30375312Y49208653D01*
X30480000Y49365330D01*
X30584688Y49208653D01*
X30793653Y48999688D01*
X31039370Y48835505D01*
X31312396Y48722413D01*
X31602239Y48664760D01*
X31897761Y48664760D01*
X32187604Y48722413D01*
X32460630Y48835505D01*
X32706347Y48999688D01*
X32915312Y49208653D01*
X33020000Y49365330D01*
X33124688Y49208653D01*
X33333653Y48999688D01*
X33579370Y48835505D01*
X33852396Y48722413D01*
X34142239Y48664760D01*
X34437761Y48664760D01*
X34727604Y48722413D01*
X35000630Y48835505D01*
X35246347Y48999688D01*
X35455312Y49208653D01*
X35560000Y49365330D01*
X35664688Y49208653D01*
X35873653Y48999688D01*
X36119370Y48835505D01*
X36392396Y48722413D01*
X36682239Y48664760D01*
X36977761Y48664760D01*
X37267604Y48722413D01*
X37540630Y48835505D01*
X37786347Y48999688D01*
X37995312Y49208653D01*
X38100000Y49365330D01*
X38204688Y49208653D01*
X38413653Y48999688D01*
X38659370Y48835505D01*
X38932396Y48722413D01*
X39222239Y48664760D01*
X39517761Y48664760D01*
X39807604Y48722413D01*
X40080630Y48835505D01*
X40326347Y48999688D01*
X40535312Y49208653D01*
X40640000Y49365330D01*
X40744688Y49208653D01*
X40953653Y48999688D01*
X41199370Y48835505D01*
X41472396Y48722413D01*
X41762239Y48664760D01*
X42057761Y48664760D01*
X42347604Y48722413D01*
X42620630Y48835505D01*
X42866347Y48999688D01*
X43075312Y49208653D01*
X43180000Y49365330D01*
X43284688Y49208653D01*
X43493653Y48999688D01*
X43739370Y48835505D01*
X44012396Y48722413D01*
X44302239Y48664760D01*
X44597761Y48664760D01*
X44887604Y48722413D01*
X45160630Y48835505D01*
X45406347Y48999688D01*
X45615312Y49208653D01*
X45720000Y49365330D01*
X45824688Y49208653D01*
X46033653Y48999688D01*
X46279370Y48835505D01*
X46552396Y48722413D01*
X46842239Y48664760D01*
X47137761Y48664760D01*
X47427604Y48722413D01*
X47700630Y48835505D01*
X47946347Y48999688D01*
X48155312Y49208653D01*
X48260000Y49365330D01*
X48364688Y49208653D01*
X48573653Y48999688D01*
X48819370Y48835505D01*
X49092396Y48722413D01*
X49382239Y48664760D01*
X49677761Y48664760D01*
X49967604Y48722413D01*
X50240630Y48835505D01*
X50486347Y48999688D01*
X50695312Y49208653D01*
X50800000Y49365330D01*
X50904688Y49208653D01*
X51113653Y48999688D01*
X51359370Y48835505D01*
X51632396Y48722413D01*
X51922239Y48664760D01*
X52217761Y48664760D01*
X52507604Y48722413D01*
X52780630Y48835505D01*
X53026347Y48999688D01*
X53235312Y49208653D01*
X53340000Y49365330D01*
X53444688Y49208653D01*
X53653653Y48999688D01*
X53899370Y48835505D01*
X54172396Y48722413D01*
X54462239Y48664760D01*
X54757761Y48664760D01*
X55047604Y48722413D01*
X55320630Y48835505D01*
X55566347Y48999688D01*
X55775312Y49208653D01*
X55880000Y49365330D01*
X55984688Y49208653D01*
X56193653Y48999688D01*
X56439370Y48835505D01*
X56712396Y48722413D01*
X57002239Y48664760D01*
X57297761Y48664760D01*
X57587604Y48722413D01*
X57860630Y48835505D01*
X58106347Y48999688D01*
X58315312Y49208653D01*
X58420000Y49365330D01*
X58524688Y49208653D01*
X58733653Y48999688D01*
X58979370Y48835505D01*
X59252396Y48722413D01*
X59542239Y48664760D01*
X59837761Y48664760D01*
X60127604Y48722413D01*
X60400630Y48835505D01*
X60646347Y48999688D01*
X60855312Y49208653D01*
X61019495Y49454370D01*
X61132587Y49727396D01*
X61190240Y50017239D01*
X61190240Y50312761D01*
X61132587Y50602604D01*
X61019495Y50875630D01*
X60855312Y51121347D01*
X60646347Y51330312D01*
X60489670Y51435000D01*
X60646347Y51539688D01*
X60855312Y51748653D01*
X61019495Y51994370D01*
X61132587Y52267396D01*
X61190240Y52557239D01*
X61190240Y52852761D01*
X61132587Y53142604D01*
X61019495Y53415630D01*
X60855312Y53661347D01*
X60646347Y53870312D01*
X60624724Y53884760D01*
X62774761Y53884760D01*
X62774760Y725240D01*
X55544724Y725240D01*
X55566347Y739688D01*
X55775312Y948653D01*
X55939495Y1194370D01*
X56052587Y1467396D01*
X56110240Y1757239D01*
X56110240Y2052761D01*
X56052587Y2342604D01*
X55939495Y2615630D01*
X55775312Y2861347D01*
X55566347Y3070312D01*
X55409670Y3175000D01*
X55566347Y3279688D01*
X55775312Y3488653D01*
X55939495Y3734370D01*
X56052587Y4007396D01*
X56110240Y4297239D01*
X56110240Y4592761D01*
X56052587Y4882604D01*
X55939495Y5155630D01*
X55775312Y5401347D01*
X55566347Y5610312D01*
X55320630Y5774495D01*
X55047604Y5887587D01*
X54757761Y5945240D01*
X54462239Y5945240D01*
X54172396Y5887587D01*
X53899370Y5774495D01*
X53653653Y5610312D01*
X53444688Y5401347D01*
X53340000Y5244670D01*
X53235312Y5401347D01*
X53026347Y5610312D01*
X52780630Y5774495D01*
X52507604Y5887587D01*
X52217761Y5945240D01*
X51922239Y5945240D01*
X51632396Y5887587D01*
X51359370Y5774495D01*
X51113653Y5610312D01*
X50904688Y5401347D01*
X50800000Y5244670D01*
X50695312Y5401347D01*
X50486347Y5610312D01*
X50240630Y5774495D01*
X49967604Y5887587D01*
X49677761Y5945240D01*
X49382239Y5945240D01*
X49092396Y5887587D01*
X48819370Y5774495D01*
X48573653Y5610312D01*
X48364688Y5401347D01*
X48260000Y5244670D01*
X48155312Y5401347D01*
X47946347Y5610312D01*
X47700630Y5774495D01*
X47427604Y5887587D01*
X47137761Y5945240D01*
X46842239Y5945240D01*
X46552396Y5887587D01*
X46279370Y5774495D01*
X46033653Y5610312D01*
X45824688Y5401347D01*
X45720000Y5244670D01*
X45615312Y5401347D01*
X45406347Y5610312D01*
X45160630Y5774495D01*
X44887604Y5887587D01*
X44597761Y5945240D01*
X44302239Y5945240D01*
X44012396Y5887587D01*
X43739370Y5774495D01*
X43493653Y5610312D01*
X43284688Y5401347D01*
X43180000Y5244670D01*
X43075312Y5401347D01*
X42866347Y5610312D01*
X42620630Y5774495D01*
X42347604Y5887587D01*
X42057761Y5945240D01*
X41762239Y5945240D01*
X41472396Y5887587D01*
X41199370Y5774495D01*
X40953653Y5610312D01*
X40744688Y5401347D01*
X40640000Y5244670D01*
X40535312Y5401347D01*
X40326347Y5610312D01*
X40080630Y5774495D01*
X39807604Y5887587D01*
X39517761Y5945240D01*
X39222239Y5945240D01*
X38932396Y5887587D01*
X38659370Y5774495D01*
X38413653Y5610312D01*
X38204688Y5401347D01*
X38100000Y5244670D01*
X37995312Y5401347D01*
X37786347Y5610312D01*
X37540630Y5774495D01*
X37267604Y5887587D01*
X36977761Y5945240D01*
X36682239Y5945240D01*
X36392396Y5887587D01*
X36119370Y5774495D01*
X35873653Y5610312D01*
X35664688Y5401347D01*
X35560000Y5244670D01*
X35455312Y5401347D01*
X35246347Y5610312D01*
X35000630Y5774495D01*
X34727604Y5887587D01*
X34437761Y5945240D01*
X34142239Y5945240D01*
X33852396Y5887587D01*
X33579370Y5774495D01*
X33333653Y5610312D01*
X33124688Y5401347D01*
X33020000Y5244670D01*
X32915312Y5401347D01*
X32706347Y5610312D01*
X32460630Y5774495D01*
X32187604Y5887587D01*
X31897761Y5945240D01*
X31602239Y5945240D01*
X31312396Y5887587D01*
X31039370Y5774495D01*
X30793653Y5610312D01*
X30584688Y5401347D01*
X30480000Y5244670D01*
X30375312Y5401347D01*
X30166347Y5610312D01*
X29920630Y5774495D01*
X29647604Y5887587D01*
X29357761Y5945240D01*
X29062239Y5945240D01*
X28772396Y5887587D01*
X28499370Y5774495D01*
X28253653Y5610312D01*
X28044688Y5401347D01*
X27940000Y5244670D01*
X27835312Y5401347D01*
X27626347Y5610312D01*
X27380630Y5774495D01*
X27107604Y5887587D01*
X26817761Y5945240D01*
X26522239Y5945240D01*
X26232396Y5887587D01*
X25959370Y5774495D01*
X25713653Y5610312D01*
X25504688Y5401347D01*
X25400000Y5244670D01*
X25295312Y5401347D01*
X25086347Y5610312D01*
X24840630Y5774495D01*
X24567604Y5887587D01*
X24277761Y5945240D01*
X23982239Y5945240D01*
X23692396Y5887587D01*
X23419370Y5774495D01*
X23173653Y5610312D01*
X22964688Y5401347D01*
X22860000Y5244670D01*
X22755312Y5401347D01*
X22546347Y5610312D01*
X22300630Y5774495D01*
X22027604Y5887587D01*
X21737761Y5945240D01*
X21442239Y5945240D01*
X21152396Y5887587D01*
X20879370Y5774495D01*
X20633653Y5610312D01*
X20424688Y5401347D01*
X20320000Y5244670D01*
X20215312Y5401347D01*
X20006347Y5610312D01*
X19760630Y5774495D01*
X19487604Y5887587D01*
X19197761Y5945240D01*
X18902239Y5945240D01*
X18612396Y5887587D01*
X18339370Y5774495D01*
X18093653Y5610312D01*
X17884688Y5401347D01*
X17780000Y5244670D01*
X17675312Y5401347D01*
X17466347Y5610312D01*
X17220630Y5774495D01*
X16947604Y5887587D01*
X16657761Y5945240D01*
X16362239Y5945240D01*
X16072396Y5887587D01*
X15799370Y5774495D01*
X15553653Y5610312D01*
X15344688Y5401347D01*
X15240000Y5244670D01*
X15135312Y5401347D01*
X14926347Y5610312D01*
X14680630Y5774495D01*
X14407604Y5887587D01*
X14117761Y5945240D01*
X13822239Y5945240D01*
X13532396Y5887587D01*
X13259370Y5774495D01*
X13013653Y5610312D01*
X12804688Y5401347D01*
X12700000Y5244670D01*
X12595312Y5401347D01*
X12386347Y5610312D01*
X12140630Y5774495D01*
X11867604Y5887587D01*
X11577761Y5945240D01*
X11282239Y5945240D01*
X10992396Y5887587D01*
X10719370Y5774495D01*
X10473653Y5610312D01*
X10264688Y5401347D01*
X10160000Y5244670D01*
X10055312Y5401347D01*
X9846347Y5610312D01*
X9600630Y5774495D01*
X9327604Y5887587D01*
X9037761Y5945240D01*
X8742239Y5945240D01*
X8452396Y5887587D01*
X8179370Y5774495D01*
X7933653Y5610312D01*
X7724688Y5401347D01*
X7620000Y5244670D01*
X7515312Y5401347D01*
X7306347Y5610312D01*
X7060630Y5774495D01*
X6787604Y5887587D01*
X6497761Y5945240D01*
X6202239Y5945240D01*
X5912396Y5887587D01*
X5639370Y5774495D01*
X5393653Y5610312D01*
X5184688Y5401347D01*
X5020505Y5155630D01*
X4907413Y4882604D01*
X4849760Y4592761D01*
X4849760Y4297239D01*
X4907413Y4007396D01*
X5020505Y3734370D01*
X5184688Y3488653D01*
X5393653Y3279688D01*
X5550330Y3175000D01*
X5393653Y3070312D01*
X5184688Y2861347D01*
X5020505Y2615630D01*
X4907413Y2342604D01*
X4849760Y2052761D01*
X4849760Y1757239D01*
X4907413Y1467396D01*
X5020505Y1194370D01*
X5184688Y948653D01*
X5393653Y739688D01*
X5415276Y725240D01*
X725240Y725240D01*
X725240Y6894760D01*
X7584373Y6894760D01*
X7620000Y6891251D01*
X7655627Y6894760D01*
X7762172Y6905254D01*
X7898880Y6946724D01*
X8024871Y7014067D01*
X8135303Y7104697D01*
X8225933Y7215129D01*
X8293276Y7341120D01*
X8334746Y7477828D01*
X8348749Y7620000D01*
X8345240Y7655627D01*
X8345240Y9997562D01*
X23073360Y9997562D01*
X23073360Y9814438D01*
X23109086Y9634834D01*
X23179164Y9465650D01*
X23280902Y9313389D01*
X23410389Y9183902D01*
X23562650Y9082164D01*
X23731834Y9012086D01*
X23911438Y8976360D01*
X24094562Y8976360D01*
X24274166Y9012086D01*
X24443350Y9082164D01*
X24595611Y9183902D01*
X24725098Y9313389D01*
X24826836Y9465650D01*
X24896914Y9634834D01*
X24932640Y9814438D01*
X24932640Y9997562D01*
X24896914Y10177166D01*
X24826836Y10346350D01*
X24725098Y10498611D01*
X24595611Y10628098D01*
X24443350Y10729836D01*
X24274166Y10799914D01*
X24094562Y10835640D01*
X23911438Y10835640D01*
X23731834Y10799914D01*
X23562650Y10729836D01*
X23410389Y10628098D01*
X23280902Y10498611D01*
X23179164Y10346350D01*
X23109086Y10177166D01*
X23073360Y9997562D01*
X8345240Y9997562D01*
X8345240Y17871562D01*
X45044360Y17871562D01*
X45044360Y17688438D01*
X45080086Y17508834D01*
X45150164Y17339650D01*
X45251902Y17187389D01*
X45381389Y17057902D01*
X45533650Y16956164D01*
X45702834Y16886086D01*
X45882438Y16850360D01*
X46065562Y16850360D01*
X46245166Y16886086D01*
X46414350Y16956164D01*
X46566611Y17057902D01*
X46696098Y17187389D01*
X46797836Y17339650D01*
X46867914Y17508834D01*
X46903640Y17688438D01*
X46903640Y17871562D01*
X46867914Y18051166D01*
X46797836Y18220350D01*
X46696098Y18372611D01*
X46566611Y18502098D01*
X46414350Y18603836D01*
X46245166Y18673914D01*
X46065562Y18709640D01*
X45882438Y18709640D01*
X45702834Y18673914D01*
X45533650Y18603836D01*
X45381389Y18502098D01*
X45251902Y18372611D01*
X45150164Y18220350D01*
X45080086Y18051166D01*
X45044360Y17871562D01*
X8345240Y17871562D01*
X8345240Y18841469D01*
X13306074Y18841469D01*
X13416921Y18564286D01*
X13727840Y18410911D01*
X14062705Y18321140D01*
X14408650Y18298424D01*
X14752380Y18343634D01*
X15080685Y18455034D01*
X15285079Y18564286D01*
X15395926Y18841469D01*
X18386074Y18841469D01*
X18496921Y18564286D01*
X18807840Y18410911D01*
X19142705Y18321140D01*
X19488650Y18298424D01*
X19832380Y18343634D01*
X20160685Y18455034D01*
X20365079Y18564286D01*
X20475926Y18841469D01*
X19431000Y19886395D01*
X18386074Y18841469D01*
X15395926Y18841469D01*
X14351000Y19886395D01*
X13306074Y18841469D01*
X8345240Y18841469D01*
X8345240Y20008350D01*
X12583424Y20008350D01*
X12628634Y19664620D01*
X12740034Y19336315D01*
X12849286Y19131921D01*
X13126469Y19021074D01*
X14171395Y20066000D01*
X14530605Y20066000D01*
X15575531Y19021074D01*
X15852714Y19131921D01*
X16006089Y19442840D01*
X16095860Y19777705D01*
X16111004Y20008350D01*
X17663424Y20008350D01*
X17708634Y19664620D01*
X17820034Y19336315D01*
X17929286Y19131921D01*
X18206469Y19021074D01*
X19251395Y20066000D01*
X19610605Y20066000D01*
X20655531Y19021074D01*
X20932714Y19131921D01*
X21086089Y19442840D01*
X21175860Y19777705D01*
X21198576Y20123650D01*
X21153366Y20467380D01*
X21041966Y20795685D01*
X20932714Y21000079D01*
X20655531Y21110926D01*
X19610605Y20066000D01*
X19251395Y20066000D01*
X18206469Y21110926D01*
X17929286Y21000079D01*
X17775911Y20689160D01*
X17686140Y20354295D01*
X17663424Y20008350D01*
X16111004Y20008350D01*
X16118576Y20123650D01*
X16073366Y20467380D01*
X15961966Y20795685D01*
X15852714Y21000079D01*
X15575531Y21110926D01*
X14530605Y20066000D01*
X14171395Y20066000D01*
X13126469Y21110926D01*
X12849286Y21000079D01*
X12695911Y20689160D01*
X12606140Y20354295D01*
X12583424Y20008350D01*
X8345240Y20008350D01*
X8345240Y21290531D01*
X13306074Y21290531D01*
X14351000Y20245605D01*
X15395926Y21290531D01*
X15285079Y21567714D01*
X14974160Y21721089D01*
X14639295Y21810860D01*
X14293350Y21833576D01*
X13949620Y21788366D01*
X13621315Y21676966D01*
X13416921Y21567714D01*
X13306074Y21290531D01*
X8345240Y21290531D01*
X8345240Y23921469D01*
X13306074Y23921469D01*
X13416921Y23644286D01*
X13727840Y23490911D01*
X14062705Y23401140D01*
X14408650Y23378424D01*
X14752380Y23423634D01*
X15080685Y23535034D01*
X15285079Y23644286D01*
X15395926Y23921469D01*
X14351000Y24966395D01*
X13306074Y23921469D01*
X8345240Y23921469D01*
X8345240Y25088350D01*
X12583424Y25088350D01*
X12628634Y24744620D01*
X12740034Y24416315D01*
X12849286Y24211921D01*
X13126469Y24101074D01*
X14171395Y25146000D01*
X14530605Y25146000D01*
X15575531Y24101074D01*
X15852714Y24211921D01*
X16006089Y24522840D01*
X16095860Y24857705D01*
X16113760Y25130312D01*
X16113761Y24097324D01*
X16097476Y24090579D01*
X15823097Y23907244D01*
X15589756Y23673903D01*
X15406421Y23399524D01*
X15280138Y23094650D01*
X15215760Y22770997D01*
X15215760Y22441003D01*
X15280138Y22117350D01*
X15406421Y21812476D01*
X15589756Y21538097D01*
X15823097Y21304756D01*
X16097476Y21121421D01*
X16402350Y20995138D01*
X16726003Y20930760D01*
X17055997Y20930760D01*
X17379650Y20995138D01*
X17684524Y21121421D01*
X17937613Y21290531D01*
X18386074Y21290531D01*
X19431000Y20245605D01*
X20475926Y21290531D01*
X20365079Y21567714D01*
X20054160Y21721089D01*
X19719295Y21810860D01*
X19373350Y21833576D01*
X19029620Y21788366D01*
X18701315Y21676966D01*
X18496921Y21567714D01*
X18386074Y21290531D01*
X17937613Y21290531D01*
X17958903Y21304756D01*
X18192244Y21538097D01*
X18375579Y21812476D01*
X18501862Y22117350D01*
X18516225Y22189562D01*
X35392360Y22189562D01*
X35392360Y22006438D01*
X35428086Y21826834D01*
X35498164Y21657650D01*
X35599902Y21505389D01*
X35729389Y21375902D01*
X35881650Y21274164D01*
X36050834Y21204086D01*
X36230438Y21168360D01*
X36413562Y21168360D01*
X36593166Y21204086D01*
X36762350Y21274164D01*
X36914611Y21375902D01*
X37044098Y21505389D01*
X37145836Y21657650D01*
X37215914Y21826834D01*
X37251640Y22006438D01*
X37251640Y22189562D01*
X37215914Y22369166D01*
X37145836Y22538350D01*
X37044098Y22690611D01*
X36914611Y22820098D01*
X36762350Y22921836D01*
X36593166Y22991914D01*
X36413562Y23027640D01*
X36230438Y23027640D01*
X36050834Y22991914D01*
X35881650Y22921836D01*
X35729389Y22820098D01*
X35599902Y22690611D01*
X35498164Y22538350D01*
X35428086Y22369166D01*
X35392360Y22189562D01*
X18516225Y22189562D01*
X18566240Y22441003D01*
X18566240Y22770997D01*
X18501862Y23094650D01*
X18375579Y23399524D01*
X18192244Y23673903D01*
X17958903Y23907244D01*
X17937614Y23921469D01*
X18386074Y23921469D01*
X18496921Y23644286D01*
X18807840Y23490911D01*
X19142705Y23401140D01*
X19488650Y23378424D01*
X19832380Y23423634D01*
X20160685Y23535034D01*
X20365079Y23644286D01*
X20475926Y23921469D01*
X19431000Y24966395D01*
X18386074Y23921469D01*
X17937614Y23921469D01*
X17684524Y24090579D01*
X17668240Y24097324D01*
X17668240Y25051734D01*
X17708634Y24744620D01*
X17820034Y24416315D01*
X17929286Y24211921D01*
X18206469Y24101074D01*
X19251395Y25146000D01*
X19610605Y25146000D01*
X20655531Y24101074D01*
X20932714Y24211921D01*
X21086089Y24522840D01*
X21175860Y24857705D01*
X21198576Y25203650D01*
X21153366Y25547380D01*
X21041966Y25875685D01*
X20932714Y26080079D01*
X20655531Y26190926D01*
X19610605Y25146000D01*
X19251395Y25146000D01*
X18206469Y26190926D01*
X17929286Y26080079D01*
X17775911Y25769160D01*
X17686140Y25434295D01*
X17668240Y25161694D01*
X17668240Y26221058D01*
X17817713Y26370531D01*
X18386074Y26370531D01*
X19431000Y25325605D01*
X20475926Y26370531D01*
X20365079Y26647714D01*
X20054160Y26801089D01*
X19719295Y26890860D01*
X19373350Y26913576D01*
X19029620Y26868366D01*
X18701315Y26756966D01*
X18496921Y26647714D01*
X18386074Y26370531D01*
X17817713Y26370531D01*
X19891017Y28443833D01*
X19895356Y28445149D01*
X20035115Y28519852D01*
X20157615Y28620385D01*
X20258148Y28742885D01*
X20332851Y28882644D01*
X20378853Y29034292D01*
X20394386Y29192000D01*
X20394386Y29617000D01*
X20386064Y29701500D01*
X36501614Y29701500D01*
X36501614Y29226500D01*
X36518732Y29052697D01*
X36569429Y28885573D01*
X36651755Y28731550D01*
X36762548Y28596548D01*
X36897550Y28485755D01*
X37051573Y28403429D01*
X37218697Y28352732D01*
X37392500Y28335614D01*
X37946602Y28335614D01*
X38012902Y28236389D01*
X38142389Y28106902D01*
X38294650Y28005164D01*
X38463834Y27935086D01*
X38643438Y27899360D01*
X38826562Y27899360D01*
X39006166Y27935086D01*
X39175350Y28005164D01*
X39327611Y28106902D01*
X39457098Y28236389D01*
X39558836Y28388650D01*
X39628914Y28557834D01*
X39664640Y28737438D01*
X39664640Y28920562D01*
X39628914Y29100166D01*
X39558836Y29269350D01*
X39513634Y29337000D01*
X39558836Y29404650D01*
X39628914Y29573834D01*
X39661469Y29737500D01*
X41162614Y29737500D01*
X41162614Y29137500D01*
X41179732Y28963697D01*
X41230429Y28796573D01*
X41312755Y28642550D01*
X41423548Y28507548D01*
X41558550Y28396755D01*
X41712573Y28314429D01*
X41879697Y28263732D01*
X42053500Y28246614D01*
X42528500Y28246614D01*
X42702303Y28263732D01*
X42869427Y28314429D01*
X43023450Y28396755D01*
X43158452Y28507548D01*
X43269245Y28642550D01*
X43283548Y28669309D01*
X43305866Y28671507D01*
X43452376Y28715950D01*
X43544713Y28765305D01*
X43562755Y28731550D01*
X43673548Y28596548D01*
X43721280Y28557375D01*
X43683086Y28465166D01*
X43647360Y28285562D01*
X43647360Y28102438D01*
X43683086Y27922834D01*
X43753164Y27753650D01*
X43854902Y27601389D01*
X43984389Y27471902D01*
X44136650Y27370164D01*
X44305834Y27300086D01*
X44485438Y27264360D01*
X44668562Y27264360D01*
X44848166Y27300086D01*
X45017350Y27370164D01*
X45169611Y27471902D01*
X45299098Y27601389D01*
X45400836Y27753650D01*
X45470914Y27922834D01*
X45506640Y28102438D01*
X45506640Y28285562D01*
X45470914Y28465166D01*
X45446166Y28524914D01*
X45533452Y28596548D01*
X45644245Y28731550D01*
X45726571Y28885573D01*
X45777268Y29052697D01*
X45794386Y29226500D01*
X45794386Y29701500D01*
X45777268Y29875303D01*
X45726571Y30042427D01*
X45644245Y30196450D01*
X45533452Y30331452D01*
X45398450Y30442245D01*
X45244427Y30524571D01*
X45077303Y30575268D01*
X44903500Y30592386D01*
X44303500Y30592386D01*
X44129697Y30575268D01*
X43962573Y30524571D01*
X43927914Y30506046D01*
X43874350Y30541836D01*
X43705166Y30611914D01*
X43525562Y30647640D01*
X43342438Y30647640D01*
X43162834Y30611914D01*
X42993650Y30541836D01*
X42954020Y30515356D01*
X42869427Y30560571D01*
X42702303Y30611268D01*
X42528500Y30628386D01*
X42053500Y30628386D01*
X41879697Y30611268D01*
X41712573Y30560571D01*
X41558550Y30478245D01*
X41423548Y30367452D01*
X41312755Y30232450D01*
X41230429Y30078427D01*
X41179732Y29911303D01*
X41162614Y29737500D01*
X39661469Y29737500D01*
X39664640Y29753438D01*
X39664640Y29936562D01*
X39628914Y30116166D01*
X39558836Y30285350D01*
X39457098Y30437611D01*
X39327611Y30567098D01*
X39175350Y30668836D01*
X39006166Y30738914D01*
X38826562Y30774640D01*
X38643438Y30774640D01*
X38463834Y30738914D01*
X38294650Y30668836D01*
X38156118Y30576271D01*
X37992500Y30592386D01*
X37392500Y30592386D01*
X37218697Y30575268D01*
X37051573Y30524571D01*
X36897550Y30442245D01*
X36762548Y30331452D01*
X36651755Y30196450D01*
X36569429Y30042427D01*
X36518732Y29875303D01*
X36501614Y29701500D01*
X20386064Y29701500D01*
X20378853Y29774708D01*
X20332851Y29926356D01*
X20308454Y29972000D01*
X20332851Y30017644D01*
X20378853Y30169292D01*
X20394386Y30327000D01*
X20394386Y30403704D01*
X21184335Y31193652D01*
X21184339Y31193657D01*
X22868443Y32877760D01*
X23492914Y32877760D01*
X23562650Y32831164D01*
X23731834Y32761086D01*
X23911438Y32725360D01*
X24094562Y32725360D01*
X24274166Y32761086D01*
X24443350Y32831164D01*
X24595611Y32932902D01*
X24725098Y33062389D01*
X24826836Y33214650D01*
X24896914Y33383834D01*
X24918541Y33492562D01*
X29550360Y33492562D01*
X29550360Y33309438D01*
X29586086Y33129834D01*
X29656164Y32960650D01*
X29757902Y32808389D01*
X29887389Y32678902D01*
X30039650Y32577164D01*
X30208834Y32507086D01*
X30388438Y32471360D01*
X30571562Y32471360D01*
X30751166Y32507086D01*
X30920350Y32577164D01*
X31072611Y32678902D01*
X31202098Y32808389D01*
X31303836Y32960650D01*
X31373914Y33129834D01*
X31390277Y33212094D01*
X32325944Y34147760D01*
X36610746Y34147760D01*
X36738438Y34122360D01*
X36921562Y34122360D01*
X37101166Y34158086D01*
X37270350Y34228164D01*
X37422611Y34329902D01*
X37552098Y34459389D01*
X37653836Y34611650D01*
X37723914Y34780834D01*
X37747219Y34897995D01*
X37805550Y35007124D01*
X37849993Y35153634D01*
X37861240Y35267825D01*
X37861240Y35267831D01*
X37864999Y35305999D01*
X37861240Y35344167D01*
X37861240Y37807833D01*
X37864999Y37846001D01*
X37861240Y37884169D01*
X37861240Y37884175D01*
X37849993Y37998366D01*
X37843886Y38018500D01*
X37805550Y38144876D01*
X37764280Y38222086D01*
X37733378Y38279900D01*
X37636250Y38398250D01*
X37606599Y38422584D01*
X36851277Y39177905D01*
X36834914Y39260166D01*
X36764836Y39429350D01*
X36663098Y39581611D01*
X36533611Y39711098D01*
X36381350Y39812836D01*
X36212166Y39882914D01*
X36032562Y39918640D01*
X35849438Y39918640D01*
X35669834Y39882914D01*
X35500650Y39812836D01*
X35348389Y39711098D01*
X35218902Y39581611D01*
X35117164Y39429350D01*
X35047086Y39260166D01*
X35011360Y39080562D01*
X35011360Y38897438D01*
X35047086Y38717834D01*
X35117164Y38548650D01*
X35218902Y38396389D01*
X35348389Y38266902D01*
X35500650Y38165164D01*
X35669834Y38095086D01*
X35752095Y38078723D01*
X36306760Y37524057D01*
X36306761Y35820451D01*
X36237389Y35774098D01*
X36165531Y35702240D01*
X32042164Y35702240D01*
X32003999Y35705999D01*
X31965834Y35702240D01*
X31965825Y35702240D01*
X31851634Y35690993D01*
X31705124Y35646550D01*
X31570100Y35574378D01*
X31570098Y35574377D01*
X31570099Y35574377D01*
X31481401Y35501585D01*
X31481396Y35501580D01*
X31451750Y35477250D01*
X31427420Y35447604D01*
X30291094Y34311277D01*
X30208834Y34294914D01*
X30039650Y34224836D01*
X29887389Y34123098D01*
X29757902Y33993611D01*
X29656164Y33841350D01*
X29586086Y33672166D01*
X29550360Y33492562D01*
X24918541Y33492562D01*
X24932640Y33563438D01*
X24932640Y33746562D01*
X24896914Y33926166D01*
X24826836Y34095350D01*
X24725098Y34247611D01*
X24595611Y34377098D01*
X24443350Y34478836D01*
X24274166Y34548914D01*
X24094562Y34584640D01*
X23911438Y34584640D01*
X23731834Y34548914D01*
X23562650Y34478836D01*
X23492914Y34432240D01*
X22584668Y34432240D01*
X22546500Y34435999D01*
X22508332Y34432240D01*
X22508325Y34432240D01*
X22394134Y34420993D01*
X22247624Y34376550D01*
X22112600Y34304378D01*
X21994250Y34207250D01*
X21969915Y34177598D01*
X20479933Y32687615D01*
X20465344Y32686178D01*
X20328410Y32644640D01*
X20202210Y32577185D01*
X20091596Y32486405D01*
X20000815Y32375791D01*
X19933360Y32249591D01*
X19891822Y32112657D01*
X19890385Y32098068D01*
X19352704Y31560386D01*
X19276000Y31560386D01*
X19118292Y31544853D01*
X18966644Y31498851D01*
X18826885Y31424148D01*
X18704385Y31323615D01*
X18603852Y31201115D01*
X18529149Y31061356D01*
X18483147Y30909708D01*
X18467614Y30752000D01*
X18467614Y30327000D01*
X18483147Y30169292D01*
X18529149Y30017644D01*
X18553546Y29972000D01*
X18529149Y29926356D01*
X18483147Y29774708D01*
X18467614Y29617000D01*
X18467614Y29218798D01*
X16368407Y27119589D01*
X16338750Y27095250D01*
X16241622Y26976899D01*
X16169450Y26841875D01*
X16125007Y26695365D01*
X16113760Y26581174D01*
X16113760Y26581167D01*
X16110001Y26543000D01*
X16113760Y26504832D01*
X16113760Y25240263D01*
X16073366Y25547380D01*
X15961966Y25875685D01*
X15852714Y26080079D01*
X15575531Y26190926D01*
X14530605Y25146000D01*
X14171395Y25146000D01*
X13126469Y26190926D01*
X12849286Y26080079D01*
X12695911Y25769160D01*
X12606140Y25434295D01*
X12583424Y25088350D01*
X8345240Y25088350D01*
X8345240Y26370531D01*
X13306074Y26370531D01*
X14351000Y25325605D01*
X15395926Y26370531D01*
X15285079Y26647714D01*
X14974160Y26801089D01*
X14639295Y26890860D01*
X14293350Y26913576D01*
X13949620Y26868366D01*
X13621315Y26756966D01*
X13416921Y26647714D01*
X13306074Y26370531D01*
X8345240Y26370531D01*
X8345240Y43798500D01*
X37390614Y43798500D01*
X37390614Y43323500D01*
X37407732Y43149697D01*
X37458429Y42982573D01*
X37540755Y42828550D01*
X37617119Y42735500D01*
X37540755Y42642450D01*
X37458429Y42488427D01*
X37407732Y42321303D01*
X37390614Y42147500D01*
X37390614Y41672500D01*
X37407732Y41498697D01*
X37458429Y41331573D01*
X37540755Y41177550D01*
X37651548Y41042548D01*
X37786550Y40931755D01*
X37940573Y40849429D01*
X38107697Y40798732D01*
X38205761Y40789074D01*
X38169732Y40670303D01*
X38152614Y40496500D01*
X38152614Y40166028D01*
X38085623Y40084400D01*
X38013450Y39949376D01*
X37969007Y39802866D01*
X37957760Y39688675D01*
X37957760Y39688667D01*
X37954001Y39650500D01*
X37956580Y39624319D01*
X37911164Y39556350D01*
X37841086Y39387166D01*
X37805360Y39207562D01*
X37805360Y39024438D01*
X37841086Y38844834D01*
X37911164Y38675650D01*
X38012902Y38523389D01*
X38142389Y38393902D01*
X38294650Y38292164D01*
X38463834Y38222086D01*
X38643438Y38186360D01*
X38826562Y38186360D01*
X39006166Y38222086D01*
X39175350Y38292164D01*
X39327611Y38393902D01*
X39457098Y38523389D01*
X39558836Y38675650D01*
X39602300Y38780582D01*
X39645764Y38675650D01*
X39747502Y38523389D01*
X39876989Y38393902D01*
X40029250Y38292164D01*
X40198434Y38222086D01*
X40378038Y38186360D01*
X40561162Y38186360D01*
X40740766Y38222086D01*
X40909950Y38292164D01*
X41062211Y38393902D01*
X41191698Y38523389D01*
X41293436Y38675650D01*
X41363514Y38844834D01*
X41372576Y38890393D01*
X41461350Y38927164D01*
X41613611Y39028902D01*
X41743098Y39158389D01*
X41844836Y39310650D01*
X41914914Y39479834D01*
X41950640Y39659438D01*
X41950640Y39842562D01*
X41914914Y40022166D01*
X41844836Y40191350D01*
X41743098Y40343611D01*
X41613611Y40473098D01*
X41461350Y40574836D01*
X41292166Y40644914D01*
X41112562Y40680640D01*
X40929438Y40680640D01*
X40749834Y40644914D01*
X40580650Y40574836D01*
X40530004Y40540995D01*
X40517268Y40670303D01*
X40494811Y40744335D01*
X40637757Y40700972D01*
X40813999Y40683614D01*
X41464001Y40683614D01*
X41640243Y40700972D01*
X41809711Y40752380D01*
X41965895Y40835862D01*
X42102791Y40948209D01*
X42164000Y41022793D01*
X42225209Y40948209D01*
X42362105Y40835862D01*
X42518289Y40752380D01*
X42687757Y40700972D01*
X42863999Y40683614D01*
X43514001Y40683614D01*
X43690243Y40700972D01*
X43859711Y40752380D01*
X44015895Y40835862D01*
X44152791Y40948209D01*
X44167584Y40966234D01*
X45450761Y39683056D01*
X45450760Y36324086D01*
X45404164Y36254350D01*
X45334086Y36085166D01*
X45298360Y35905562D01*
X45298360Y35722438D01*
X45334086Y35542834D01*
X45404164Y35373650D01*
X45505902Y35221389D01*
X45635389Y35091902D01*
X45787650Y34990164D01*
X45956834Y34920086D01*
X46136438Y34884360D01*
X46319562Y34884360D01*
X46499166Y34920086D01*
X46668350Y34990164D01*
X46820611Y35091902D01*
X46923309Y35194600D01*
X46972834Y35174086D01*
X47152438Y35138360D01*
X47335562Y35138360D01*
X47515166Y35174086D01*
X47684350Y35244164D01*
X47836611Y35345902D01*
X47966098Y35475389D01*
X48067836Y35627650D01*
X48137914Y35796834D01*
X48173640Y35976438D01*
X48173640Y36159562D01*
X48166681Y36194547D01*
X48316573Y36114429D01*
X48483697Y36063732D01*
X48657500Y36046614D01*
X49132500Y36046614D01*
X49306303Y36063732D01*
X49473427Y36114429D01*
X49557865Y36159562D01*
X52537360Y36159562D01*
X52537360Y35976438D01*
X52573086Y35796834D01*
X52643164Y35627650D01*
X52744902Y35475389D01*
X52874389Y35345902D01*
X53026650Y35244164D01*
X53195834Y35174086D01*
X53375438Y35138360D01*
X53558562Y35138360D01*
X53738166Y35174086D01*
X53907350Y35244164D01*
X54059611Y35345902D01*
X54189098Y35475389D01*
X54290836Y35627650D01*
X54360914Y35796834D01*
X54396640Y35976438D01*
X54396640Y36159562D01*
X54360914Y36339166D01*
X54290836Y36508350D01*
X54189098Y36660611D01*
X54059611Y36790098D01*
X53907350Y36891836D01*
X53738166Y36961914D01*
X53558562Y36997640D01*
X53375438Y36997640D01*
X53195834Y36961914D01*
X53026650Y36891836D01*
X52874389Y36790098D01*
X52744902Y36660611D01*
X52643164Y36508350D01*
X52573086Y36339166D01*
X52537360Y36159562D01*
X49557865Y36159562D01*
X49627450Y36196755D01*
X49762452Y36307548D01*
X49801625Y36355280D01*
X49893834Y36317086D01*
X50073438Y36281360D01*
X50256562Y36281360D01*
X50436166Y36317086D01*
X50605350Y36387164D01*
X50757611Y36488902D01*
X50887098Y36618389D01*
X50988836Y36770650D01*
X51058914Y36939834D01*
X51094640Y37119438D01*
X51094640Y37302562D01*
X51058914Y37482166D01*
X50988836Y37651350D01*
X50887098Y37803611D01*
X50757611Y37933098D01*
X50605350Y38034836D01*
X50436166Y38104914D01*
X50256562Y38140640D01*
X50073438Y38140640D01*
X49893834Y38104914D01*
X49834086Y38080166D01*
X49762452Y38167452D01*
X49627450Y38278245D01*
X49473427Y38360571D01*
X49306303Y38411268D01*
X49132500Y38428386D01*
X48657500Y38428386D01*
X48483697Y38411268D01*
X48316573Y38360571D01*
X48162550Y38278245D01*
X48069500Y38201881D01*
X47976450Y38278245D01*
X47822427Y38360571D01*
X47655303Y38411268D01*
X47481500Y38428386D01*
X47006500Y38428386D01*
X47005240Y38428262D01*
X47005240Y39966833D01*
X47008999Y40005000D01*
X47005240Y40043168D01*
X47005240Y40043175D01*
X46993993Y40157366D01*
X46949550Y40303876D01*
X46877378Y40438900D01*
X46780250Y40557250D01*
X46750598Y40581585D01*
X44949621Y42382562D01*
X47330360Y42382562D01*
X47330360Y42199438D01*
X47366086Y42019834D01*
X47436164Y41850650D01*
X47537902Y41698389D01*
X47667389Y41568902D01*
X47819650Y41467164D01*
X47988834Y41397086D01*
X48168438Y41361360D01*
X48351562Y41361360D01*
X48531166Y41397086D01*
X48700350Y41467164D01*
X48852611Y41568902D01*
X48982098Y41698389D01*
X49083836Y41850650D01*
X49153914Y42019834D01*
X49189640Y42199438D01*
X49189640Y42382562D01*
X49153914Y42562166D01*
X49083836Y42731350D01*
X48982098Y42883611D01*
X48852611Y43013098D01*
X48700350Y43114836D01*
X48531166Y43184914D01*
X48351562Y43220640D01*
X48168438Y43220640D01*
X47988834Y43184914D01*
X47819650Y43114836D01*
X47667389Y43013098D01*
X47537902Y42883611D01*
X47436164Y42731350D01*
X47366086Y42562166D01*
X47330360Y42382562D01*
X44949621Y42382562D01*
X44772589Y42559593D01*
X44748250Y42589250D01*
X44629900Y42686378D01*
X44494876Y42758550D01*
X44358574Y42799896D01*
X44348620Y42832711D01*
X44265138Y42988895D01*
X44152791Y43125791D01*
X44015895Y43238138D01*
X43859711Y43321620D01*
X43690243Y43373028D01*
X43514001Y43390386D01*
X42863999Y43390386D01*
X42687757Y43373028D01*
X42518289Y43321620D01*
X42362105Y43238138D01*
X42225209Y43125791D01*
X42164000Y43051207D01*
X42102791Y43125791D01*
X41965895Y43238138D01*
X41809711Y43321620D01*
X41640243Y43373028D01*
X41464001Y43390386D01*
X40813999Y43390386D01*
X40637757Y43373028D01*
X40468289Y43321620D01*
X40312105Y43238138D01*
X40175209Y43125791D01*
X40062862Y42988895D01*
X39979380Y42832711D01*
X39927972Y42663243D01*
X39920329Y42585639D01*
X39741559Y42585639D01*
X39655666Y42631550D01*
X39622731Y42641541D01*
X39622245Y42642450D01*
X39545881Y42735500D01*
X39622245Y42828550D01*
X39704571Y42982573D01*
X39755268Y43149697D01*
X39772386Y43323500D01*
X39772386Y43652562D01*
X45933360Y43652562D01*
X45933360Y43469438D01*
X45969086Y43289834D01*
X46039164Y43120650D01*
X46140902Y42968389D01*
X46270389Y42838902D01*
X46422650Y42737164D01*
X46591834Y42667086D01*
X46771438Y42631360D01*
X46954562Y42631360D01*
X47134166Y42667086D01*
X47303350Y42737164D01*
X47455611Y42838902D01*
X47585098Y42968389D01*
X47686836Y43120650D01*
X47756914Y43289834D01*
X47792640Y43469438D01*
X47792640Y43652562D01*
X47756914Y43832166D01*
X47686836Y44001350D01*
X47585098Y44153611D01*
X47455611Y44283098D01*
X47303350Y44384836D01*
X47134166Y44454914D01*
X46954562Y44490640D01*
X46771438Y44490640D01*
X46591834Y44454914D01*
X46422650Y44384836D01*
X46270389Y44283098D01*
X46140902Y44153611D01*
X46039164Y44001350D01*
X45969086Y43832166D01*
X45933360Y43652562D01*
X39772386Y43652562D01*
X39772386Y43798500D01*
X39755268Y43972303D01*
X39704571Y44139427D01*
X39622245Y44293450D01*
X39511452Y44428452D01*
X39376450Y44539245D01*
X39222427Y44621571D01*
X39055303Y44672268D01*
X38881500Y44689386D01*
X38281500Y44689386D01*
X38107697Y44672268D01*
X37940573Y44621571D01*
X37786550Y44539245D01*
X37651548Y44428452D01*
X37540755Y44293450D01*
X37458429Y44139427D01*
X37407732Y43972303D01*
X37390614Y43798500D01*
X8345240Y43798500D01*
X8345240Y46954374D01*
X8348749Y46990000D01*
X8334746Y47132172D01*
X8293276Y47268880D01*
X8225933Y47394871D01*
X8135303Y47505303D01*
X8024871Y47595933D01*
X7898880Y47663276D01*
X7762172Y47704746D01*
X7655627Y47715240D01*
X7620000Y47718749D01*
X7584373Y47715240D01*
X725240Y47715240D01*
X725240Y53884760D01*
X5415276Y53884760D01*
X5393653Y53870312D01*
%TA.AperFunction,Conductor*%
D19*
G36*
X5393653Y53870312D02*
G01*
X5184688Y53661347D01*
X5020505Y53415630D01*
X4907413Y53142604D01*
X4849760Y52852761D01*
X4849760Y52557239D01*
X4907413Y52267396D01*
X5020505Y51994370D01*
X5184688Y51748653D01*
X5393653Y51539688D01*
X5550330Y51435000D01*
X5393653Y51330312D01*
X5184688Y51121347D01*
X5020505Y50875630D01*
X4907413Y50602604D01*
X4849760Y50312761D01*
X4849760Y50017239D01*
X4907413Y49727396D01*
X5020505Y49454370D01*
X5184688Y49208653D01*
X5393653Y48999688D01*
X5639370Y48835505D01*
X5912396Y48722413D01*
X6202239Y48664760D01*
X6497761Y48664760D01*
X6787604Y48722413D01*
X7060630Y48835505D01*
X7306347Y48999688D01*
X7515312Y49208653D01*
X7620000Y49365330D01*
X7724688Y49208653D01*
X7933653Y48999688D01*
X8179370Y48835505D01*
X8452396Y48722413D01*
X8742239Y48664760D01*
X9037761Y48664760D01*
X9327604Y48722413D01*
X9600630Y48835505D01*
X9846347Y48999688D01*
X10055312Y49208653D01*
X10160000Y49365330D01*
X10264688Y49208653D01*
X10473653Y48999688D01*
X10719370Y48835505D01*
X10992396Y48722413D01*
X11282239Y48664760D01*
X11577761Y48664760D01*
X11867604Y48722413D01*
X12140630Y48835505D01*
X12386347Y48999688D01*
X12595312Y49208653D01*
X12700000Y49365330D01*
X12804688Y49208653D01*
X13013653Y48999688D01*
X13259370Y48835505D01*
X13532396Y48722413D01*
X13822239Y48664760D01*
X14117761Y48664760D01*
X14407604Y48722413D01*
X14680630Y48835505D01*
X14926347Y48999688D01*
X15135312Y49208653D01*
X15240000Y49365330D01*
X15344688Y49208653D01*
X15553653Y48999688D01*
X15799370Y48835505D01*
X16072396Y48722413D01*
X16362239Y48664760D01*
X16657761Y48664760D01*
X16947604Y48722413D01*
X17220630Y48835505D01*
X17466347Y48999688D01*
X17675312Y49208653D01*
X17780000Y49365330D01*
X17884688Y49208653D01*
X18093653Y48999688D01*
X18339370Y48835505D01*
X18612396Y48722413D01*
X18902239Y48664760D01*
X19197761Y48664760D01*
X19487604Y48722413D01*
X19760630Y48835505D01*
X20006347Y48999688D01*
X20215312Y49208653D01*
X20320000Y49365330D01*
X20424688Y49208653D01*
X20633653Y48999688D01*
X20879370Y48835505D01*
X21152396Y48722413D01*
X21442239Y48664760D01*
X21737761Y48664760D01*
X22027604Y48722413D01*
X22300630Y48835505D01*
X22546347Y48999688D01*
X22755312Y49208653D01*
X22860000Y49365330D01*
X22964688Y49208653D01*
X23173653Y48999688D01*
X23419370Y48835505D01*
X23692396Y48722413D01*
X23982239Y48664760D01*
X24277761Y48664760D01*
X24567604Y48722413D01*
X24840630Y48835505D01*
X25086347Y48999688D01*
X25295312Y49208653D01*
X25400000Y49365330D01*
X25504688Y49208653D01*
X25713653Y48999688D01*
X25959370Y48835505D01*
X26232396Y48722413D01*
X26522239Y48664760D01*
X26817761Y48664760D01*
X27107604Y48722413D01*
X27380630Y48835505D01*
X27626347Y48999688D01*
X27835312Y49208653D01*
X27940000Y49365330D01*
X28044688Y49208653D01*
X28253653Y48999688D01*
X28499370Y48835505D01*
X28772396Y48722413D01*
X29062239Y48664760D01*
X29357761Y48664760D01*
X29647604Y48722413D01*
X29920630Y48835505D01*
X30166347Y48999688D01*
X30375312Y49208653D01*
X30480000Y49365330D01*
X30584688Y49208653D01*
X30793653Y48999688D01*
X31039370Y48835505D01*
X31312396Y48722413D01*
X31602239Y48664760D01*
X31897761Y48664760D01*
X32187604Y48722413D01*
X32460630Y48835505D01*
X32706347Y48999688D01*
X32915312Y49208653D01*
X33020000Y49365330D01*
X33124688Y49208653D01*
X33333653Y48999688D01*
X33579370Y48835505D01*
X33852396Y48722413D01*
X34142239Y48664760D01*
X34437761Y48664760D01*
X34727604Y48722413D01*
X35000630Y48835505D01*
X35246347Y48999688D01*
X35455312Y49208653D01*
X35560000Y49365330D01*
X35664688Y49208653D01*
X35873653Y48999688D01*
X36119370Y48835505D01*
X36392396Y48722413D01*
X36682239Y48664760D01*
X36977761Y48664760D01*
X37267604Y48722413D01*
X37540630Y48835505D01*
X37786347Y48999688D01*
X37995312Y49208653D01*
X38100000Y49365330D01*
X38204688Y49208653D01*
X38413653Y48999688D01*
X38659370Y48835505D01*
X38932396Y48722413D01*
X39222239Y48664760D01*
X39517761Y48664760D01*
X39807604Y48722413D01*
X40080630Y48835505D01*
X40326347Y48999688D01*
X40535312Y49208653D01*
X40640000Y49365330D01*
X40744688Y49208653D01*
X40953653Y48999688D01*
X41199370Y48835505D01*
X41472396Y48722413D01*
X41762239Y48664760D01*
X42057761Y48664760D01*
X42347604Y48722413D01*
X42620630Y48835505D01*
X42866347Y48999688D01*
X43075312Y49208653D01*
X43180000Y49365330D01*
X43284688Y49208653D01*
X43493653Y48999688D01*
X43739370Y48835505D01*
X44012396Y48722413D01*
X44302239Y48664760D01*
X44597761Y48664760D01*
X44887604Y48722413D01*
X45160630Y48835505D01*
X45406347Y48999688D01*
X45615312Y49208653D01*
X45720000Y49365330D01*
X45824688Y49208653D01*
X46033653Y48999688D01*
X46279370Y48835505D01*
X46552396Y48722413D01*
X46842239Y48664760D01*
X47137761Y48664760D01*
X47427604Y48722413D01*
X47700630Y48835505D01*
X47946347Y48999688D01*
X48155312Y49208653D01*
X48260000Y49365330D01*
X48364688Y49208653D01*
X48573653Y48999688D01*
X48819370Y48835505D01*
X49092396Y48722413D01*
X49382239Y48664760D01*
X49677761Y48664760D01*
X49967604Y48722413D01*
X50240630Y48835505D01*
X50486347Y48999688D01*
X50695312Y49208653D01*
X50800000Y49365330D01*
X50904688Y49208653D01*
X51113653Y48999688D01*
X51359370Y48835505D01*
X51632396Y48722413D01*
X51922239Y48664760D01*
X52217761Y48664760D01*
X52507604Y48722413D01*
X52780630Y48835505D01*
X53026347Y48999688D01*
X53235312Y49208653D01*
X53340000Y49365330D01*
X53444688Y49208653D01*
X53653653Y48999688D01*
X53899370Y48835505D01*
X54172396Y48722413D01*
X54462239Y48664760D01*
X54757761Y48664760D01*
X55047604Y48722413D01*
X55320630Y48835505D01*
X55566347Y48999688D01*
X55775312Y49208653D01*
X55880000Y49365330D01*
X55984688Y49208653D01*
X56193653Y48999688D01*
X56439370Y48835505D01*
X56712396Y48722413D01*
X57002239Y48664760D01*
X57297761Y48664760D01*
X57587604Y48722413D01*
X57860630Y48835505D01*
X58106347Y48999688D01*
X58315312Y49208653D01*
X58420000Y49365330D01*
X58524688Y49208653D01*
X58733653Y48999688D01*
X58979370Y48835505D01*
X59252396Y48722413D01*
X59542239Y48664760D01*
X59837761Y48664760D01*
X60127604Y48722413D01*
X60400630Y48835505D01*
X60646347Y48999688D01*
X60855312Y49208653D01*
X61019495Y49454370D01*
X61132587Y49727396D01*
X61190240Y50017239D01*
X61190240Y50312761D01*
X61132587Y50602604D01*
X61019495Y50875630D01*
X60855312Y51121347D01*
X60646347Y51330312D01*
X60489670Y51435000D01*
X60646347Y51539688D01*
X60855312Y51748653D01*
X61019495Y51994370D01*
X61132587Y52267396D01*
X61190240Y52557239D01*
X61190240Y52852761D01*
X61132587Y53142604D01*
X61019495Y53415630D01*
X60855312Y53661347D01*
X60646347Y53870312D01*
X60624724Y53884760D01*
X62774761Y53884760D01*
X62774760Y725240D01*
X55544724Y725240D01*
X55566347Y739688D01*
X55775312Y948653D01*
X55939495Y1194370D01*
X56052587Y1467396D01*
X56110240Y1757239D01*
X56110240Y2052761D01*
X56052587Y2342604D01*
X55939495Y2615630D01*
X55775312Y2861347D01*
X55566347Y3070312D01*
X55409670Y3175000D01*
X55566347Y3279688D01*
X55775312Y3488653D01*
X55939495Y3734370D01*
X56052587Y4007396D01*
X56110240Y4297239D01*
X56110240Y4592761D01*
X56052587Y4882604D01*
X55939495Y5155630D01*
X55775312Y5401347D01*
X55566347Y5610312D01*
X55320630Y5774495D01*
X55047604Y5887587D01*
X54757761Y5945240D01*
X54462239Y5945240D01*
X54172396Y5887587D01*
X53899370Y5774495D01*
X53653653Y5610312D01*
X53444688Y5401347D01*
X53340000Y5244670D01*
X53235312Y5401347D01*
X53026347Y5610312D01*
X52780630Y5774495D01*
X52507604Y5887587D01*
X52217761Y5945240D01*
X51922239Y5945240D01*
X51632396Y5887587D01*
X51359370Y5774495D01*
X51113653Y5610312D01*
X50904688Y5401347D01*
X50800000Y5244670D01*
X50695312Y5401347D01*
X50486347Y5610312D01*
X50240630Y5774495D01*
X49967604Y5887587D01*
X49677761Y5945240D01*
X49382239Y5945240D01*
X49092396Y5887587D01*
X48819370Y5774495D01*
X48573653Y5610312D01*
X48364688Y5401347D01*
X48260000Y5244670D01*
X48155312Y5401347D01*
X47946347Y5610312D01*
X47700630Y5774495D01*
X47427604Y5887587D01*
X47137761Y5945240D01*
X46842239Y5945240D01*
X46552396Y5887587D01*
X46279370Y5774495D01*
X46033653Y5610312D01*
X45824688Y5401347D01*
X45720000Y5244670D01*
X45615312Y5401347D01*
X45406347Y5610312D01*
X45160630Y5774495D01*
X44887604Y5887587D01*
X44597761Y5945240D01*
X44302239Y5945240D01*
X44012396Y5887587D01*
X43739370Y5774495D01*
X43493653Y5610312D01*
X43284688Y5401347D01*
X43180000Y5244670D01*
X43075312Y5401347D01*
X42866347Y5610312D01*
X42620630Y5774495D01*
X42347604Y5887587D01*
X42057761Y5945240D01*
X41762239Y5945240D01*
X41472396Y5887587D01*
X41199370Y5774495D01*
X40953653Y5610312D01*
X40744688Y5401347D01*
X40640000Y5244670D01*
X40535312Y5401347D01*
X40326347Y5610312D01*
X40080630Y5774495D01*
X39807604Y5887587D01*
X39517761Y5945240D01*
X39222239Y5945240D01*
X38932396Y5887587D01*
X38659370Y5774495D01*
X38413653Y5610312D01*
X38204688Y5401347D01*
X38100000Y5244670D01*
X37995312Y5401347D01*
X37786347Y5610312D01*
X37540630Y5774495D01*
X37267604Y5887587D01*
X36977761Y5945240D01*
X36682239Y5945240D01*
X36392396Y5887587D01*
X36119370Y5774495D01*
X35873653Y5610312D01*
X35664688Y5401347D01*
X35560000Y5244670D01*
X35455312Y5401347D01*
X35246347Y5610312D01*
X35000630Y5774495D01*
X34727604Y5887587D01*
X34437761Y5945240D01*
X34142239Y5945240D01*
X33852396Y5887587D01*
X33579370Y5774495D01*
X33333653Y5610312D01*
X33124688Y5401347D01*
X33020000Y5244670D01*
X32915312Y5401347D01*
X32706347Y5610312D01*
X32460630Y5774495D01*
X32187604Y5887587D01*
X31897761Y5945240D01*
X31602239Y5945240D01*
X31312396Y5887587D01*
X31039370Y5774495D01*
X30793653Y5610312D01*
X30584688Y5401347D01*
X30480000Y5244670D01*
X30375312Y5401347D01*
X30166347Y5610312D01*
X29920630Y5774495D01*
X29647604Y5887587D01*
X29357761Y5945240D01*
X29062239Y5945240D01*
X28772396Y5887587D01*
X28499370Y5774495D01*
X28253653Y5610312D01*
X28044688Y5401347D01*
X27940000Y5244670D01*
X27835312Y5401347D01*
X27626347Y5610312D01*
X27380630Y5774495D01*
X27107604Y5887587D01*
X26817761Y5945240D01*
X26522239Y5945240D01*
X26232396Y5887587D01*
X25959370Y5774495D01*
X25713653Y5610312D01*
X25504688Y5401347D01*
X25400000Y5244670D01*
X25295312Y5401347D01*
X25086347Y5610312D01*
X24840630Y5774495D01*
X24567604Y5887587D01*
X24277761Y5945240D01*
X23982239Y5945240D01*
X23692396Y5887587D01*
X23419370Y5774495D01*
X23173653Y5610312D01*
X22964688Y5401347D01*
X22860000Y5244670D01*
X22755312Y5401347D01*
X22546347Y5610312D01*
X22300630Y5774495D01*
X22027604Y5887587D01*
X21737761Y5945240D01*
X21442239Y5945240D01*
X21152396Y5887587D01*
X20879370Y5774495D01*
X20633653Y5610312D01*
X20424688Y5401347D01*
X20320000Y5244670D01*
X20215312Y5401347D01*
X20006347Y5610312D01*
X19760630Y5774495D01*
X19487604Y5887587D01*
X19197761Y5945240D01*
X18902239Y5945240D01*
X18612396Y5887587D01*
X18339370Y5774495D01*
X18093653Y5610312D01*
X17884688Y5401347D01*
X17780000Y5244670D01*
X17675312Y5401347D01*
X17466347Y5610312D01*
X17220630Y5774495D01*
X16947604Y5887587D01*
X16657761Y5945240D01*
X16362239Y5945240D01*
X16072396Y5887587D01*
X15799370Y5774495D01*
X15553653Y5610312D01*
X15344688Y5401347D01*
X15240000Y5244670D01*
X15135312Y5401347D01*
X14926347Y5610312D01*
X14680630Y5774495D01*
X14407604Y5887587D01*
X14117761Y5945240D01*
X13822239Y5945240D01*
X13532396Y5887587D01*
X13259370Y5774495D01*
X13013653Y5610312D01*
X12804688Y5401347D01*
X12700000Y5244670D01*
X12595312Y5401347D01*
X12386347Y5610312D01*
X12140630Y5774495D01*
X11867604Y5887587D01*
X11577761Y5945240D01*
X11282239Y5945240D01*
X10992396Y5887587D01*
X10719370Y5774495D01*
X10473653Y5610312D01*
X10264688Y5401347D01*
X10160000Y5244670D01*
X10055312Y5401347D01*
X9846347Y5610312D01*
X9600630Y5774495D01*
X9327604Y5887587D01*
X9037761Y5945240D01*
X8742239Y5945240D01*
X8452396Y5887587D01*
X8179370Y5774495D01*
X7933653Y5610312D01*
X7724688Y5401347D01*
X7620000Y5244670D01*
X7515312Y5401347D01*
X7306347Y5610312D01*
X7060630Y5774495D01*
X6787604Y5887587D01*
X6497761Y5945240D01*
X6202239Y5945240D01*
X5912396Y5887587D01*
X5639370Y5774495D01*
X5393653Y5610312D01*
X5184688Y5401347D01*
X5020505Y5155630D01*
X4907413Y4882604D01*
X4849760Y4592761D01*
X4849760Y4297239D01*
X4907413Y4007396D01*
X5020505Y3734370D01*
X5184688Y3488653D01*
X5393653Y3279688D01*
X5550330Y3175000D01*
X5393653Y3070312D01*
X5184688Y2861347D01*
X5020505Y2615630D01*
X4907413Y2342604D01*
X4849760Y2052761D01*
X4849760Y1757239D01*
X4907413Y1467396D01*
X5020505Y1194370D01*
X5184688Y948653D01*
X5393653Y739688D01*
X5415276Y725240D01*
X725240Y725240D01*
X725240Y6894760D01*
X7584373Y6894760D01*
X7620000Y6891251D01*
X7655627Y6894760D01*
X7762172Y6905254D01*
X7898880Y6946724D01*
X8024871Y7014067D01*
X8135303Y7104697D01*
X8225933Y7215129D01*
X8293276Y7341120D01*
X8334746Y7477828D01*
X8348749Y7620000D01*
X8345240Y7655627D01*
X8345240Y9997562D01*
X23073360Y9997562D01*
X23073360Y9814438D01*
X23109086Y9634834D01*
X23179164Y9465650D01*
X23280902Y9313389D01*
X23410389Y9183902D01*
X23562650Y9082164D01*
X23731834Y9012086D01*
X23911438Y8976360D01*
X24094562Y8976360D01*
X24274166Y9012086D01*
X24443350Y9082164D01*
X24595611Y9183902D01*
X24725098Y9313389D01*
X24826836Y9465650D01*
X24896914Y9634834D01*
X24932640Y9814438D01*
X24932640Y9997562D01*
X24896914Y10177166D01*
X24826836Y10346350D01*
X24725098Y10498611D01*
X24595611Y10628098D01*
X24443350Y10729836D01*
X24274166Y10799914D01*
X24094562Y10835640D01*
X23911438Y10835640D01*
X23731834Y10799914D01*
X23562650Y10729836D01*
X23410389Y10628098D01*
X23280902Y10498611D01*
X23179164Y10346350D01*
X23109086Y10177166D01*
X23073360Y9997562D01*
X8345240Y9997562D01*
X8345240Y17871562D01*
X45044360Y17871562D01*
X45044360Y17688438D01*
X45080086Y17508834D01*
X45150164Y17339650D01*
X45251902Y17187389D01*
X45381389Y17057902D01*
X45533650Y16956164D01*
X45702834Y16886086D01*
X45882438Y16850360D01*
X46065562Y16850360D01*
X46245166Y16886086D01*
X46414350Y16956164D01*
X46566611Y17057902D01*
X46696098Y17187389D01*
X46797836Y17339650D01*
X46867914Y17508834D01*
X46903640Y17688438D01*
X46903640Y17871562D01*
X46867914Y18051166D01*
X46797836Y18220350D01*
X46696098Y18372611D01*
X46566611Y18502098D01*
X46414350Y18603836D01*
X46245166Y18673914D01*
X46065562Y18709640D01*
X45882438Y18709640D01*
X45702834Y18673914D01*
X45533650Y18603836D01*
X45381389Y18502098D01*
X45251902Y18372611D01*
X45150164Y18220350D01*
X45080086Y18051166D01*
X45044360Y17871562D01*
X8345240Y17871562D01*
X8345240Y18841469D01*
X13306074Y18841469D01*
X13416921Y18564286D01*
X13727840Y18410911D01*
X14062705Y18321140D01*
X14408650Y18298424D01*
X14752380Y18343634D01*
X15080685Y18455034D01*
X15285079Y18564286D01*
X15395926Y18841469D01*
X18386074Y18841469D01*
X18496921Y18564286D01*
X18807840Y18410911D01*
X19142705Y18321140D01*
X19488650Y18298424D01*
X19832380Y18343634D01*
X20160685Y18455034D01*
X20365079Y18564286D01*
X20475926Y18841469D01*
X19431000Y19886395D01*
X18386074Y18841469D01*
X15395926Y18841469D01*
X14351000Y19886395D01*
X13306074Y18841469D01*
X8345240Y18841469D01*
X8345240Y20008350D01*
X12583424Y20008350D01*
X12628634Y19664620D01*
X12740034Y19336315D01*
X12849286Y19131921D01*
X13126469Y19021074D01*
X14171395Y20066000D01*
X14530605Y20066000D01*
X15575531Y19021074D01*
X15852714Y19131921D01*
X16006089Y19442840D01*
X16095860Y19777705D01*
X16111004Y20008350D01*
X17663424Y20008350D01*
X17708634Y19664620D01*
X17820034Y19336315D01*
X17929286Y19131921D01*
X18206469Y19021074D01*
X19251395Y20066000D01*
X19610605Y20066000D01*
X20655531Y19021074D01*
X20932714Y19131921D01*
X21086089Y19442840D01*
X21175860Y19777705D01*
X21198576Y20123650D01*
X21153366Y20467380D01*
X21041966Y20795685D01*
X20932714Y21000079D01*
X20655531Y21110926D01*
X19610605Y20066000D01*
X19251395Y20066000D01*
X18206469Y21110926D01*
X17929286Y21000079D01*
X17775911Y20689160D01*
X17686140Y20354295D01*
X17663424Y20008350D01*
X16111004Y20008350D01*
X16118576Y20123650D01*
X16073366Y20467380D01*
X15961966Y20795685D01*
X15852714Y21000079D01*
X15575531Y21110926D01*
X14530605Y20066000D01*
X14171395Y20066000D01*
X13126469Y21110926D01*
X12849286Y21000079D01*
X12695911Y20689160D01*
X12606140Y20354295D01*
X12583424Y20008350D01*
X8345240Y20008350D01*
X8345240Y21290531D01*
X13306074Y21290531D01*
X14351000Y20245605D01*
X15395926Y21290531D01*
X15285079Y21567714D01*
X14974160Y21721089D01*
X14639295Y21810860D01*
X14293350Y21833576D01*
X13949620Y21788366D01*
X13621315Y21676966D01*
X13416921Y21567714D01*
X13306074Y21290531D01*
X8345240Y21290531D01*
X8345240Y23921469D01*
X13306074Y23921469D01*
X13416921Y23644286D01*
X13727840Y23490911D01*
X14062705Y23401140D01*
X14408650Y23378424D01*
X14752380Y23423634D01*
X15080685Y23535034D01*
X15285079Y23644286D01*
X15395926Y23921469D01*
X14351000Y24966395D01*
X13306074Y23921469D01*
X8345240Y23921469D01*
X8345240Y25088350D01*
X12583424Y25088350D01*
X12628634Y24744620D01*
X12740034Y24416315D01*
X12849286Y24211921D01*
X13126469Y24101074D01*
X14171395Y25146000D01*
X14530605Y25146000D01*
X15575531Y24101074D01*
X15852714Y24211921D01*
X16006089Y24522840D01*
X16095860Y24857705D01*
X16113760Y25130312D01*
X16113761Y24097324D01*
X16097476Y24090579D01*
X15823097Y23907244D01*
X15589756Y23673903D01*
X15406421Y23399524D01*
X15280138Y23094650D01*
X15215760Y22770997D01*
X15215760Y22441003D01*
X15280138Y22117350D01*
X15406421Y21812476D01*
X15589756Y21538097D01*
X15823097Y21304756D01*
X16097476Y21121421D01*
X16402350Y20995138D01*
X16726003Y20930760D01*
X17055997Y20930760D01*
X17379650Y20995138D01*
X17684524Y21121421D01*
X17937613Y21290531D01*
X18386074Y21290531D01*
X19431000Y20245605D01*
X20475926Y21290531D01*
X20365079Y21567714D01*
X20054160Y21721089D01*
X19719295Y21810860D01*
X19373350Y21833576D01*
X19029620Y21788366D01*
X18701315Y21676966D01*
X18496921Y21567714D01*
X18386074Y21290531D01*
X17937613Y21290531D01*
X17958903Y21304756D01*
X18192244Y21538097D01*
X18375579Y21812476D01*
X18501862Y22117350D01*
X18516225Y22189562D01*
X35392360Y22189562D01*
X35392360Y22006438D01*
X35428086Y21826834D01*
X35498164Y21657650D01*
X35599902Y21505389D01*
X35729389Y21375902D01*
X35881650Y21274164D01*
X36050834Y21204086D01*
X36230438Y21168360D01*
X36413562Y21168360D01*
X36593166Y21204086D01*
X36762350Y21274164D01*
X36914611Y21375902D01*
X37044098Y21505389D01*
X37145836Y21657650D01*
X37215914Y21826834D01*
X37251640Y22006438D01*
X37251640Y22189562D01*
X37215914Y22369166D01*
X37145836Y22538350D01*
X37044098Y22690611D01*
X36914611Y22820098D01*
X36762350Y22921836D01*
X36593166Y22991914D01*
X36413562Y23027640D01*
X36230438Y23027640D01*
X36050834Y22991914D01*
X35881650Y22921836D01*
X35729389Y22820098D01*
X35599902Y22690611D01*
X35498164Y22538350D01*
X35428086Y22369166D01*
X35392360Y22189562D01*
X18516225Y22189562D01*
X18566240Y22441003D01*
X18566240Y22770997D01*
X18501862Y23094650D01*
X18375579Y23399524D01*
X18192244Y23673903D01*
X17958903Y23907244D01*
X17937614Y23921469D01*
X18386074Y23921469D01*
X18496921Y23644286D01*
X18807840Y23490911D01*
X19142705Y23401140D01*
X19488650Y23378424D01*
X19832380Y23423634D01*
X20160685Y23535034D01*
X20365079Y23644286D01*
X20475926Y23921469D01*
X19431000Y24966395D01*
X18386074Y23921469D01*
X17937614Y23921469D01*
X17684524Y24090579D01*
X17668240Y24097324D01*
X17668240Y25051734D01*
X17708634Y24744620D01*
X17820034Y24416315D01*
X17929286Y24211921D01*
X18206469Y24101074D01*
X19251395Y25146000D01*
X19610605Y25146000D01*
X20655531Y24101074D01*
X20932714Y24211921D01*
X21086089Y24522840D01*
X21175860Y24857705D01*
X21198576Y25203650D01*
X21153366Y25547380D01*
X21041966Y25875685D01*
X20932714Y26080079D01*
X20655531Y26190926D01*
X19610605Y25146000D01*
X19251395Y25146000D01*
X18206469Y26190926D01*
X17929286Y26080079D01*
X17775911Y25769160D01*
X17686140Y25434295D01*
X17668240Y25161694D01*
X17668240Y26221058D01*
X17817713Y26370531D01*
X18386074Y26370531D01*
X19431000Y25325605D01*
X20475926Y26370531D01*
X20365079Y26647714D01*
X20054160Y26801089D01*
X19719295Y26890860D01*
X19373350Y26913576D01*
X19029620Y26868366D01*
X18701315Y26756966D01*
X18496921Y26647714D01*
X18386074Y26370531D01*
X17817713Y26370531D01*
X19891017Y28443833D01*
X19895356Y28445149D01*
X20035115Y28519852D01*
X20157615Y28620385D01*
X20258148Y28742885D01*
X20332851Y28882644D01*
X20378853Y29034292D01*
X20394386Y29192000D01*
X20394386Y29617000D01*
X20386064Y29701500D01*
X36501614Y29701500D01*
X36501614Y29226500D01*
X36518732Y29052697D01*
X36569429Y28885573D01*
X36651755Y28731550D01*
X36762548Y28596548D01*
X36897550Y28485755D01*
X37051573Y28403429D01*
X37218697Y28352732D01*
X37392500Y28335614D01*
X37946602Y28335614D01*
X38012902Y28236389D01*
X38142389Y28106902D01*
X38294650Y28005164D01*
X38463834Y27935086D01*
X38643438Y27899360D01*
X38826562Y27899360D01*
X39006166Y27935086D01*
X39175350Y28005164D01*
X39327611Y28106902D01*
X39457098Y28236389D01*
X39558836Y28388650D01*
X39628914Y28557834D01*
X39664640Y28737438D01*
X39664640Y28920562D01*
X39628914Y29100166D01*
X39558836Y29269350D01*
X39513634Y29337000D01*
X39558836Y29404650D01*
X39628914Y29573834D01*
X39661469Y29737500D01*
X41162614Y29737500D01*
X41162614Y29137500D01*
X41179732Y28963697D01*
X41230429Y28796573D01*
X41312755Y28642550D01*
X41423548Y28507548D01*
X41558550Y28396755D01*
X41712573Y28314429D01*
X41879697Y28263732D01*
X42053500Y28246614D01*
X42528500Y28246614D01*
X42702303Y28263732D01*
X42869427Y28314429D01*
X43023450Y28396755D01*
X43158452Y28507548D01*
X43269245Y28642550D01*
X43283548Y28669309D01*
X43305866Y28671507D01*
X43452376Y28715950D01*
X43544713Y28765305D01*
X43562755Y28731550D01*
X43673548Y28596548D01*
X43721280Y28557375D01*
X43683086Y28465166D01*
X43647360Y28285562D01*
X43647360Y28102438D01*
X43683086Y27922834D01*
X43753164Y27753650D01*
X43854902Y27601389D01*
X43984389Y27471902D01*
X44136650Y27370164D01*
X44305834Y27300086D01*
X44485438Y27264360D01*
X44668562Y27264360D01*
X44848166Y27300086D01*
X45017350Y27370164D01*
X45169611Y27471902D01*
X45299098Y27601389D01*
X45400836Y27753650D01*
X45470914Y27922834D01*
X45506640Y28102438D01*
X45506640Y28285562D01*
X45470914Y28465166D01*
X45446166Y28524914D01*
X45533452Y28596548D01*
X45644245Y28731550D01*
X45726571Y28885573D01*
X45777268Y29052697D01*
X45794386Y29226500D01*
X45794386Y29701500D01*
X45777268Y29875303D01*
X45726571Y30042427D01*
X45644245Y30196450D01*
X45533452Y30331452D01*
X45398450Y30442245D01*
X45244427Y30524571D01*
X45077303Y30575268D01*
X44903500Y30592386D01*
X44303500Y30592386D01*
X44129697Y30575268D01*
X43962573Y30524571D01*
X43927914Y30506046D01*
X43874350Y30541836D01*
X43705166Y30611914D01*
X43525562Y30647640D01*
X43342438Y30647640D01*
X43162834Y30611914D01*
X42993650Y30541836D01*
X42954020Y30515356D01*
X42869427Y30560571D01*
X42702303Y30611268D01*
X42528500Y30628386D01*
X42053500Y30628386D01*
X41879697Y30611268D01*
X41712573Y30560571D01*
X41558550Y30478245D01*
X41423548Y30367452D01*
X41312755Y30232450D01*
X41230429Y30078427D01*
X41179732Y29911303D01*
X41162614Y29737500D01*
X39661469Y29737500D01*
X39664640Y29753438D01*
X39664640Y29936562D01*
X39628914Y30116166D01*
X39558836Y30285350D01*
X39457098Y30437611D01*
X39327611Y30567098D01*
X39175350Y30668836D01*
X39006166Y30738914D01*
X38826562Y30774640D01*
X38643438Y30774640D01*
X38463834Y30738914D01*
X38294650Y30668836D01*
X38156118Y30576271D01*
X37992500Y30592386D01*
X37392500Y30592386D01*
X37218697Y30575268D01*
X37051573Y30524571D01*
X36897550Y30442245D01*
X36762548Y30331452D01*
X36651755Y30196450D01*
X36569429Y30042427D01*
X36518732Y29875303D01*
X36501614Y29701500D01*
X20386064Y29701500D01*
X20378853Y29774708D01*
X20332851Y29926356D01*
X20308454Y29972000D01*
X20332851Y30017644D01*
X20378853Y30169292D01*
X20394386Y30327000D01*
X20394386Y30403704D01*
X21184335Y31193652D01*
X21184339Y31193657D01*
X22868443Y32877760D01*
X23492914Y32877760D01*
X23562650Y32831164D01*
X23731834Y32761086D01*
X23911438Y32725360D01*
X24094562Y32725360D01*
X24274166Y32761086D01*
X24443350Y32831164D01*
X24595611Y32932902D01*
X24725098Y33062389D01*
X24826836Y33214650D01*
X24896914Y33383834D01*
X24918541Y33492562D01*
X29550360Y33492562D01*
X29550360Y33309438D01*
X29586086Y33129834D01*
X29656164Y32960650D01*
X29757902Y32808389D01*
X29887389Y32678902D01*
X30039650Y32577164D01*
X30208834Y32507086D01*
X30388438Y32471360D01*
X30571562Y32471360D01*
X30751166Y32507086D01*
X30920350Y32577164D01*
X31072611Y32678902D01*
X31202098Y32808389D01*
X31303836Y32960650D01*
X31373914Y33129834D01*
X31390277Y33212094D01*
X32325944Y34147760D01*
X36610746Y34147760D01*
X36738438Y34122360D01*
X36921562Y34122360D01*
X37101166Y34158086D01*
X37270350Y34228164D01*
X37422611Y34329902D01*
X37552098Y34459389D01*
X37653836Y34611650D01*
X37723914Y34780834D01*
X37747219Y34897995D01*
X37805550Y35007124D01*
X37849993Y35153634D01*
X37861240Y35267825D01*
X37861240Y35267831D01*
X37864999Y35305999D01*
X37861240Y35344167D01*
X37861240Y37807833D01*
X37864999Y37846001D01*
X37861240Y37884169D01*
X37861240Y37884175D01*
X37849993Y37998366D01*
X37843886Y38018500D01*
X37805550Y38144876D01*
X37764280Y38222086D01*
X37733378Y38279900D01*
X37636250Y38398250D01*
X37606599Y38422584D01*
X36851277Y39177905D01*
X36834914Y39260166D01*
X36764836Y39429350D01*
X36663098Y39581611D01*
X36533611Y39711098D01*
X36381350Y39812836D01*
X36212166Y39882914D01*
X36032562Y39918640D01*
X35849438Y39918640D01*
X35669834Y39882914D01*
X35500650Y39812836D01*
X35348389Y39711098D01*
X35218902Y39581611D01*
X35117164Y39429350D01*
X35047086Y39260166D01*
X35011360Y39080562D01*
X35011360Y38897438D01*
X35047086Y38717834D01*
X35117164Y38548650D01*
X35218902Y38396389D01*
X35348389Y38266902D01*
X35500650Y38165164D01*
X35669834Y38095086D01*
X35752095Y38078723D01*
X36306760Y37524057D01*
X36306761Y35820451D01*
X36237389Y35774098D01*
X36165531Y35702240D01*
X32042164Y35702240D01*
X32003999Y35705999D01*
X31965834Y35702240D01*
X31965825Y35702240D01*
X31851634Y35690993D01*
X31705124Y35646550D01*
X31570100Y35574378D01*
X31570098Y35574377D01*
X31570099Y35574377D01*
X31481401Y35501585D01*
X31481396Y35501580D01*
X31451750Y35477250D01*
X31427420Y35447604D01*
X30291094Y34311277D01*
X30208834Y34294914D01*
X30039650Y34224836D01*
X29887389Y34123098D01*
X29757902Y33993611D01*
X29656164Y33841350D01*
X29586086Y33672166D01*
X29550360Y33492562D01*
X24918541Y33492562D01*
X24932640Y33563438D01*
X24932640Y33746562D01*
X24896914Y33926166D01*
X24826836Y34095350D01*
X24725098Y34247611D01*
X24595611Y34377098D01*
X24443350Y34478836D01*
X24274166Y34548914D01*
X24094562Y34584640D01*
X23911438Y34584640D01*
X23731834Y34548914D01*
X23562650Y34478836D01*
X23492914Y34432240D01*
X22584668Y34432240D01*
X22546500Y34435999D01*
X22508332Y34432240D01*
X22508325Y34432240D01*
X22394134Y34420993D01*
X22247624Y34376550D01*
X22112600Y34304378D01*
X21994250Y34207250D01*
X21969915Y34177598D01*
X20479933Y32687615D01*
X20465344Y32686178D01*
X20328410Y32644640D01*
X20202210Y32577185D01*
X20091596Y32486405D01*
X20000815Y32375791D01*
X19933360Y32249591D01*
X19891822Y32112657D01*
X19890385Y32098068D01*
X19352704Y31560386D01*
X19276000Y31560386D01*
X19118292Y31544853D01*
X18966644Y31498851D01*
X18826885Y31424148D01*
X18704385Y31323615D01*
X18603852Y31201115D01*
X18529149Y31061356D01*
X18483147Y30909708D01*
X18467614Y30752000D01*
X18467614Y30327000D01*
X18483147Y30169292D01*
X18529149Y30017644D01*
X18553546Y29972000D01*
X18529149Y29926356D01*
X18483147Y29774708D01*
X18467614Y29617000D01*
X18467614Y29218798D01*
X16368407Y27119589D01*
X16338750Y27095250D01*
X16241622Y26976899D01*
X16169450Y26841875D01*
X16125007Y26695365D01*
X16113760Y26581174D01*
X16113760Y26581167D01*
X16110001Y26543000D01*
X16113760Y26504832D01*
X16113760Y25240263D01*
X16073366Y25547380D01*
X15961966Y25875685D01*
X15852714Y26080079D01*
X15575531Y26190926D01*
X14530605Y25146000D01*
X14171395Y25146000D01*
X13126469Y26190926D01*
X12849286Y26080079D01*
X12695911Y25769160D01*
X12606140Y25434295D01*
X12583424Y25088350D01*
X8345240Y25088350D01*
X8345240Y26370531D01*
X13306074Y26370531D01*
X14351000Y25325605D01*
X15395926Y26370531D01*
X15285079Y26647714D01*
X14974160Y26801089D01*
X14639295Y26890860D01*
X14293350Y26913576D01*
X13949620Y26868366D01*
X13621315Y26756966D01*
X13416921Y26647714D01*
X13306074Y26370531D01*
X8345240Y26370531D01*
X8345240Y43798500D01*
X37390614Y43798500D01*
X37390614Y43323500D01*
X37407732Y43149697D01*
X37458429Y42982573D01*
X37540755Y42828550D01*
X37617119Y42735500D01*
X37540755Y42642450D01*
X37458429Y42488427D01*
X37407732Y42321303D01*
X37390614Y42147500D01*
X37390614Y41672500D01*
X37407732Y41498697D01*
X37458429Y41331573D01*
X37540755Y41177550D01*
X37651548Y41042548D01*
X37786550Y40931755D01*
X37940573Y40849429D01*
X38107697Y40798732D01*
X38205761Y40789074D01*
X38169732Y40670303D01*
X38152614Y40496500D01*
X38152614Y40166028D01*
X38085623Y40084400D01*
X38013450Y39949376D01*
X37969007Y39802866D01*
X37957760Y39688675D01*
X37957760Y39688667D01*
X37954001Y39650500D01*
X37956580Y39624319D01*
X37911164Y39556350D01*
X37841086Y39387166D01*
X37805360Y39207562D01*
X37805360Y39024438D01*
X37841086Y38844834D01*
X37911164Y38675650D01*
X38012902Y38523389D01*
X38142389Y38393902D01*
X38294650Y38292164D01*
X38463834Y38222086D01*
X38643438Y38186360D01*
X38826562Y38186360D01*
X39006166Y38222086D01*
X39175350Y38292164D01*
X39327611Y38393902D01*
X39457098Y38523389D01*
X39558836Y38675650D01*
X39602300Y38780582D01*
X39645764Y38675650D01*
X39747502Y38523389D01*
X39876989Y38393902D01*
X40029250Y38292164D01*
X40198434Y38222086D01*
X40378038Y38186360D01*
X40561162Y38186360D01*
X40740766Y38222086D01*
X40909950Y38292164D01*
X41062211Y38393902D01*
X41191698Y38523389D01*
X41293436Y38675650D01*
X41363514Y38844834D01*
X41372576Y38890393D01*
X41461350Y38927164D01*
X41613611Y39028902D01*
X41743098Y39158389D01*
X41844836Y39310650D01*
X41914914Y39479834D01*
X41950640Y39659438D01*
X41950640Y39842562D01*
X41914914Y40022166D01*
X41844836Y40191350D01*
X41743098Y40343611D01*
X41613611Y40473098D01*
X41461350Y40574836D01*
X41292166Y40644914D01*
X41112562Y40680640D01*
X40929438Y40680640D01*
X40749834Y40644914D01*
X40580650Y40574836D01*
X40530004Y40540995D01*
X40517268Y40670303D01*
X40494811Y40744335D01*
X40637757Y40700972D01*
X40813999Y40683614D01*
X41464001Y40683614D01*
X41640243Y40700972D01*
X41809711Y40752380D01*
X41965895Y40835862D01*
X42102791Y40948209D01*
X42164000Y41022793D01*
X42225209Y40948209D01*
X42362105Y40835862D01*
X42518289Y40752380D01*
X42687757Y40700972D01*
X42863999Y40683614D01*
X43514001Y40683614D01*
X43690243Y40700972D01*
X43859711Y40752380D01*
X44015895Y40835862D01*
X44152791Y40948209D01*
X44167584Y40966234D01*
X45450761Y39683056D01*
X45450760Y36324086D01*
X45404164Y36254350D01*
X45334086Y36085166D01*
X45298360Y35905562D01*
X45298360Y35722438D01*
X45334086Y35542834D01*
X45404164Y35373650D01*
X45505902Y35221389D01*
X45635389Y35091902D01*
X45787650Y34990164D01*
X45956834Y34920086D01*
X46136438Y34884360D01*
X46319562Y34884360D01*
X46499166Y34920086D01*
X46668350Y34990164D01*
X46820611Y35091902D01*
X46923309Y35194600D01*
X46972834Y35174086D01*
X47152438Y35138360D01*
X47335562Y35138360D01*
X47515166Y35174086D01*
X47684350Y35244164D01*
X47836611Y35345902D01*
X47966098Y35475389D01*
X48067836Y35627650D01*
X48137914Y35796834D01*
X48173640Y35976438D01*
X48173640Y36159562D01*
X48166681Y36194547D01*
X48316573Y36114429D01*
X48483697Y36063732D01*
X48657500Y36046614D01*
X49132500Y36046614D01*
X49306303Y36063732D01*
X49473427Y36114429D01*
X49557865Y36159562D01*
X52537360Y36159562D01*
X52537360Y35976438D01*
X52573086Y35796834D01*
X52643164Y35627650D01*
X52744902Y35475389D01*
X52874389Y35345902D01*
X53026650Y35244164D01*
X53195834Y35174086D01*
X53375438Y35138360D01*
X53558562Y35138360D01*
X53738166Y35174086D01*
X53907350Y35244164D01*
X54059611Y35345902D01*
X54189098Y35475389D01*
X54290836Y35627650D01*
X54360914Y35796834D01*
X54396640Y35976438D01*
X54396640Y36159562D01*
X54360914Y36339166D01*
X54290836Y36508350D01*
X54189098Y36660611D01*
X54059611Y36790098D01*
X53907350Y36891836D01*
X53738166Y36961914D01*
X53558562Y36997640D01*
X53375438Y36997640D01*
X53195834Y36961914D01*
X53026650Y36891836D01*
X52874389Y36790098D01*
X52744902Y36660611D01*
X52643164Y36508350D01*
X52573086Y36339166D01*
X52537360Y36159562D01*
X49557865Y36159562D01*
X49627450Y36196755D01*
X49762452Y36307548D01*
X49801625Y36355280D01*
X49893834Y36317086D01*
X50073438Y36281360D01*
X50256562Y36281360D01*
X50436166Y36317086D01*
X50605350Y36387164D01*
X50757611Y36488902D01*
X50887098Y36618389D01*
X50988836Y36770650D01*
X51058914Y36939834D01*
X51094640Y37119438D01*
X51094640Y37302562D01*
X51058914Y37482166D01*
X50988836Y37651350D01*
X50887098Y37803611D01*
X50757611Y37933098D01*
X50605350Y38034836D01*
X50436166Y38104914D01*
X50256562Y38140640D01*
X50073438Y38140640D01*
X49893834Y38104914D01*
X49834086Y38080166D01*
X49762452Y38167452D01*
X49627450Y38278245D01*
X49473427Y38360571D01*
X49306303Y38411268D01*
X49132500Y38428386D01*
X48657500Y38428386D01*
X48483697Y38411268D01*
X48316573Y38360571D01*
X48162550Y38278245D01*
X48069500Y38201881D01*
X47976450Y38278245D01*
X47822427Y38360571D01*
X47655303Y38411268D01*
X47481500Y38428386D01*
X47006500Y38428386D01*
X47005240Y38428262D01*
X47005240Y39966833D01*
X47008999Y40005000D01*
X47005240Y40043168D01*
X47005240Y40043175D01*
X46993993Y40157366D01*
X46949550Y40303876D01*
X46877378Y40438900D01*
X46780250Y40557250D01*
X46750598Y40581585D01*
X44949621Y42382562D01*
X47330360Y42382562D01*
X47330360Y42199438D01*
X47366086Y42019834D01*
X47436164Y41850650D01*
X47537902Y41698389D01*
X47667389Y41568902D01*
X47819650Y41467164D01*
X47988834Y41397086D01*
X48168438Y41361360D01*
X48351562Y41361360D01*
X48531166Y41397086D01*
X48700350Y41467164D01*
X48852611Y41568902D01*
X48982098Y41698389D01*
X49083836Y41850650D01*
X49153914Y42019834D01*
X49189640Y42199438D01*
X49189640Y42382562D01*
X49153914Y42562166D01*
X49083836Y42731350D01*
X48982098Y42883611D01*
X48852611Y43013098D01*
X48700350Y43114836D01*
X48531166Y43184914D01*
X48351562Y43220640D01*
X48168438Y43220640D01*
X47988834Y43184914D01*
X47819650Y43114836D01*
X47667389Y43013098D01*
X47537902Y42883611D01*
X47436164Y42731350D01*
X47366086Y42562166D01*
X47330360Y42382562D01*
X44949621Y42382562D01*
X44772589Y42559593D01*
X44748250Y42589250D01*
X44629900Y42686378D01*
X44494876Y42758550D01*
X44358574Y42799896D01*
X44348620Y42832711D01*
X44265138Y42988895D01*
X44152791Y43125791D01*
X44015895Y43238138D01*
X43859711Y43321620D01*
X43690243Y43373028D01*
X43514001Y43390386D01*
X42863999Y43390386D01*
X42687757Y43373028D01*
X42518289Y43321620D01*
X42362105Y43238138D01*
X42225209Y43125791D01*
X42164000Y43051207D01*
X42102791Y43125791D01*
X41965895Y43238138D01*
X41809711Y43321620D01*
X41640243Y43373028D01*
X41464001Y43390386D01*
X40813999Y43390386D01*
X40637757Y43373028D01*
X40468289Y43321620D01*
X40312105Y43238138D01*
X40175209Y43125791D01*
X40062862Y42988895D01*
X39979380Y42832711D01*
X39927972Y42663243D01*
X39920329Y42585639D01*
X39741559Y42585639D01*
X39655666Y42631550D01*
X39622731Y42641541D01*
X39622245Y42642450D01*
X39545881Y42735500D01*
X39622245Y42828550D01*
X39704571Y42982573D01*
X39755268Y43149697D01*
X39772386Y43323500D01*
X39772386Y43652562D01*
X45933360Y43652562D01*
X45933360Y43469438D01*
X45969086Y43289834D01*
X46039164Y43120650D01*
X46140902Y42968389D01*
X46270389Y42838902D01*
X46422650Y42737164D01*
X46591834Y42667086D01*
X46771438Y42631360D01*
X46954562Y42631360D01*
X47134166Y42667086D01*
X47303350Y42737164D01*
X47455611Y42838902D01*
X47585098Y42968389D01*
X47686836Y43120650D01*
X47756914Y43289834D01*
X47792640Y43469438D01*
X47792640Y43652562D01*
X47756914Y43832166D01*
X47686836Y44001350D01*
X47585098Y44153611D01*
X47455611Y44283098D01*
X47303350Y44384836D01*
X47134166Y44454914D01*
X46954562Y44490640D01*
X46771438Y44490640D01*
X46591834Y44454914D01*
X46422650Y44384836D01*
X46270389Y44283098D01*
X46140902Y44153611D01*
X46039164Y44001350D01*
X45969086Y43832166D01*
X45933360Y43652562D01*
X39772386Y43652562D01*
X39772386Y43798500D01*
X39755268Y43972303D01*
X39704571Y44139427D01*
X39622245Y44293450D01*
X39511452Y44428452D01*
X39376450Y44539245D01*
X39222427Y44621571D01*
X39055303Y44672268D01*
X38881500Y44689386D01*
X38281500Y44689386D01*
X38107697Y44672268D01*
X37940573Y44621571D01*
X37786550Y44539245D01*
X37651548Y44428452D01*
X37540755Y44293450D01*
X37458429Y44139427D01*
X37407732Y43972303D01*
X37390614Y43798500D01*
X8345240Y43798500D01*
X8345240Y46954374D01*
X8348749Y46990000D01*
X8334746Y47132172D01*
X8293276Y47268880D01*
X8225933Y47394871D01*
X8135303Y47505303D01*
X8024871Y47595933D01*
X7898880Y47663276D01*
X7762172Y47704746D01*
X7655627Y47715240D01*
X7620000Y47718749D01*
X7584373Y47715240D01*
X725240Y47715240D01*
X725240Y53884760D01*
X5415276Y53884760D01*
X5393653Y53870312D01*
G37*
%TD.AperFunction*%
%TD*%
M02*
