%TF.GenerationSoftware,KiCad,Pcbnew,(5.1.9)-1*%
%TF.CreationDate,2021-09-29T12:39:09-05:00*%
%TF.ProjectId,zigbeeCape,7a696762-6565-4436-9170-652e6b696361,rev?*%
%TF.SameCoordinates,Original*%
%TF.FileFunction,Paste,Top*%
%TF.FilePolarity,Positive*%
%FSLAX46Y46*%
G04 Gerber Fmt 4.6, Leading zero omitted, Abs format (unit mm)*
G04 Created by KiCad (PCBNEW (5.1.9)-1) date 2021-09-29 12:39:09*
%MOMM*%
%LPD*%
G01*
G04 APERTURE LIST*
%ADD10R,1.550000X1.300000*%
%ADD11C,0.100000*%
%ADD12R,0.600000X0.300000*%
%ADD13R,2.400046X0.739902*%
%ADD14R,1.000000X1.800000*%
G04 APERTURE END LIST*
D10*
%TO.C,SW5*%
X18554600Y12841800D03*
X10604600Y12841800D03*
X18554600Y8341800D03*
X10604600Y8341800D03*
%TD*%
%TO.C,C2*%
G36*
G01*
X49931200Y28489900D02*
X49931200Y28964900D01*
G75*
G02*
X50168700Y29202400I237500J0D01*
G01*
X50768700Y29202400D01*
G75*
G02*
X51006200Y28964900I0J-237500D01*
G01*
X51006200Y28489900D01*
G75*
G02*
X50768700Y28252400I-237500J0D01*
G01*
X50168700Y28252400D01*
G75*
G02*
X49931200Y28489900I0J237500D01*
G01*
G37*
G36*
G01*
X48206200Y28489900D02*
X48206200Y28964900D01*
G75*
G02*
X48443700Y29202400I237500J0D01*
G01*
X49043700Y29202400D01*
G75*
G02*
X49281200Y28964900I0J-237500D01*
G01*
X49281200Y28489900D01*
G75*
G02*
X49043700Y28252400I-237500J0D01*
G01*
X48443700Y28252400D01*
G75*
G02*
X48206200Y28489900I0J237500D01*
G01*
G37*
%TD*%
%TO.C,SW3*%
X52133600Y8265600D03*
X60083600Y8265600D03*
X52133600Y12765600D03*
X60083600Y12765600D03*
%TD*%
%TO.C,SW2*%
X52336800Y18578000D03*
X60286800Y18578000D03*
X52336800Y23078000D03*
X60286800Y23078000D03*
%TD*%
%TO.C,SW1*%
X52413000Y25055000D03*
X60363000Y25055000D03*
X52413000Y29555000D03*
X60363000Y29555000D03*
%TD*%
%TO.C,SW4*%
X52336800Y41869800D03*
X60286800Y41869800D03*
X52336800Y46369800D03*
X60286800Y46369800D03*
%TD*%
D11*
%TO.C,Y2*%
G36*
X40019514Y41303004D02*
G01*
X39630605Y41691913D01*
X40125580Y42186888D01*
X40514489Y41797979D01*
X40019514Y41303004D01*
G37*
G36*
X40832687Y42893995D02*
G01*
X41221596Y42505086D01*
X40726621Y42010111D01*
X40337712Y42399020D01*
X40832687Y42893995D01*
G37*
G36*
X40295286Y43431396D02*
G01*
X40684195Y43042487D01*
X40189220Y42547512D01*
X39800311Y42936421D01*
X40295286Y43431396D01*
G37*
G36*
X39482113Y41840405D02*
G01*
X39093204Y42229314D01*
X39588179Y42724289D01*
X39977088Y42335380D01*
X39482113Y41840405D01*
G37*
%TD*%
D12*
%TO.C,U2*%
X24976000Y32651000D03*
X24976000Y33151000D03*
X24976000Y33651000D03*
X24976000Y34151000D03*
X22776000Y34151000D03*
X22776000Y33651000D03*
X22776000Y33151000D03*
X22776000Y32651000D03*
%TD*%
%TO.C,U1*%
G36*
G01*
X38735000Y37630000D02*
X38735000Y38390000D01*
G75*
G02*
X38805000Y38460000I70000J0D01*
G01*
X38915000Y38460000D01*
G75*
G02*
X38985000Y38390000I0J-70000D01*
G01*
X38985000Y37630000D01*
G75*
G02*
X38915000Y37560000I-70000J0D01*
G01*
X38805000Y37560000D01*
G75*
G02*
X38735000Y37630000I0J70000D01*
G01*
G37*
G36*
G01*
X39235000Y37630000D02*
X39235000Y38390000D01*
G75*
G02*
X39305000Y38460000I70000J0D01*
G01*
X39415000Y38460000D01*
G75*
G02*
X39485000Y38390000I0J-70000D01*
G01*
X39485000Y37630000D01*
G75*
G02*
X39415000Y37560000I-70000J0D01*
G01*
X39305000Y37560000D01*
G75*
G02*
X39235000Y37630000I0J70000D01*
G01*
G37*
G36*
G01*
X39735000Y37630000D02*
X39735000Y38390000D01*
G75*
G02*
X39805000Y38460000I70000J0D01*
G01*
X39915000Y38460000D01*
G75*
G02*
X39985000Y38390000I0J-70000D01*
G01*
X39985000Y37630000D01*
G75*
G02*
X39915000Y37560000I-70000J0D01*
G01*
X39805000Y37560000D01*
G75*
G02*
X39735000Y37630000I0J70000D01*
G01*
G37*
G36*
G01*
X40235000Y37630000D02*
X40235000Y38390000D01*
G75*
G02*
X40305000Y38460000I70000J0D01*
G01*
X40415000Y38460000D01*
G75*
G02*
X40485000Y38390000I0J-70000D01*
G01*
X40485000Y37630000D01*
G75*
G02*
X40415000Y37560000I-70000J0D01*
G01*
X40305000Y37560000D01*
G75*
G02*
X40235000Y37630000I0J70000D01*
G01*
G37*
G36*
G01*
X40735000Y37630000D02*
X40735000Y38390000D01*
G75*
G02*
X40805000Y38460000I70000J0D01*
G01*
X40915000Y38460000D01*
G75*
G02*
X40985000Y38390000I0J-70000D01*
G01*
X40985000Y37630000D01*
G75*
G02*
X40915000Y37560000I-70000J0D01*
G01*
X40805000Y37560000D01*
G75*
G02*
X40735000Y37630000I0J70000D01*
G01*
G37*
G36*
G01*
X41235000Y37630000D02*
X41235000Y38390000D01*
G75*
G02*
X41305000Y38460000I70000J0D01*
G01*
X41415000Y38460000D01*
G75*
G02*
X41485000Y38390000I0J-70000D01*
G01*
X41485000Y37630000D01*
G75*
G02*
X41415000Y37560000I-70000J0D01*
G01*
X41305000Y37560000D01*
G75*
G02*
X41235000Y37630000I0J70000D01*
G01*
G37*
G36*
G01*
X41735000Y37630000D02*
X41735000Y38390000D01*
G75*
G02*
X41805000Y38460000I70000J0D01*
G01*
X41915000Y38460000D01*
G75*
G02*
X41985000Y38390000I0J-70000D01*
G01*
X41985000Y37630000D01*
G75*
G02*
X41915000Y37560000I-70000J0D01*
G01*
X41805000Y37560000D01*
G75*
G02*
X41735000Y37630000I0J70000D01*
G01*
G37*
G36*
G01*
X42235000Y37630000D02*
X42235000Y38390000D01*
G75*
G02*
X42305000Y38460000I70000J0D01*
G01*
X42415000Y38460000D01*
G75*
G02*
X42485000Y38390000I0J-70000D01*
G01*
X42485000Y37630000D01*
G75*
G02*
X42415000Y37560000I-70000J0D01*
G01*
X42305000Y37560000D01*
G75*
G02*
X42235000Y37630000I0J70000D01*
G01*
G37*
G36*
G01*
X42735000Y37630000D02*
X42735000Y38390000D01*
G75*
G02*
X42805000Y38460000I70000J0D01*
G01*
X42915000Y38460000D01*
G75*
G02*
X42985000Y38390000I0J-70000D01*
G01*
X42985000Y37630000D01*
G75*
G02*
X42915000Y37560000I-70000J0D01*
G01*
X42805000Y37560000D01*
G75*
G02*
X42735000Y37630000I0J70000D01*
G01*
G37*
G36*
G01*
X43235000Y37630000D02*
X43235000Y38390000D01*
G75*
G02*
X43305000Y38460000I70000J0D01*
G01*
X43415000Y38460000D01*
G75*
G02*
X43485000Y38390000I0J-70000D01*
G01*
X43485000Y37630000D01*
G75*
G02*
X43415000Y37560000I-70000J0D01*
G01*
X43305000Y37560000D01*
G75*
G02*
X43235000Y37630000I0J70000D01*
G01*
G37*
G36*
G01*
X43735000Y37630000D02*
X43735000Y38390000D01*
G75*
G02*
X43805000Y38460000I70000J0D01*
G01*
X43915000Y38460000D01*
G75*
G02*
X43985000Y38390000I0J-70000D01*
G01*
X43985000Y37630000D01*
G75*
G02*
X43915000Y37560000I-70000J0D01*
G01*
X43805000Y37560000D01*
G75*
G02*
X43735000Y37630000I0J70000D01*
G01*
G37*
G36*
G01*
X44235000Y37630000D02*
X44235000Y38390000D01*
G75*
G02*
X44305000Y38460000I70000J0D01*
G01*
X44415000Y38460000D01*
G75*
G02*
X44485000Y38390000I0J-70000D01*
G01*
X44485000Y37630000D01*
G75*
G02*
X44415000Y37560000I-70000J0D01*
G01*
X44305000Y37560000D01*
G75*
G02*
X44235000Y37630000I0J70000D01*
G01*
G37*
G36*
G01*
X45540000Y37085000D02*
X44780000Y37085000D01*
G75*
G02*
X44710000Y37155000I0J70000D01*
G01*
X44710000Y37265000D01*
G75*
G02*
X44780000Y37335000I70000J0D01*
G01*
X45540000Y37335000D01*
G75*
G02*
X45610000Y37265000I0J-70000D01*
G01*
X45610000Y37155000D01*
G75*
G02*
X45540000Y37085000I-70000J0D01*
G01*
G37*
G36*
G01*
X45540000Y36585000D02*
X44780000Y36585000D01*
G75*
G02*
X44710000Y36655000I0J70000D01*
G01*
X44710000Y36765000D01*
G75*
G02*
X44780000Y36835000I70000J0D01*
G01*
X45540000Y36835000D01*
G75*
G02*
X45610000Y36765000I0J-70000D01*
G01*
X45610000Y36655000D01*
G75*
G02*
X45540000Y36585000I-70000J0D01*
G01*
G37*
G36*
G01*
X45540000Y36085000D02*
X44780000Y36085000D01*
G75*
G02*
X44710000Y36155000I0J70000D01*
G01*
X44710000Y36265000D01*
G75*
G02*
X44780000Y36335000I70000J0D01*
G01*
X45540000Y36335000D01*
G75*
G02*
X45610000Y36265000I0J-70000D01*
G01*
X45610000Y36155000D01*
G75*
G02*
X45540000Y36085000I-70000J0D01*
G01*
G37*
G36*
G01*
X45540000Y35585000D02*
X44780000Y35585000D01*
G75*
G02*
X44710000Y35655000I0J70000D01*
G01*
X44710000Y35765000D01*
G75*
G02*
X44780000Y35835000I70000J0D01*
G01*
X45540000Y35835000D01*
G75*
G02*
X45610000Y35765000I0J-70000D01*
G01*
X45610000Y35655000D01*
G75*
G02*
X45540000Y35585000I-70000J0D01*
G01*
G37*
G36*
G01*
X45540000Y35085000D02*
X44780000Y35085000D01*
G75*
G02*
X44710000Y35155000I0J70000D01*
G01*
X44710000Y35265000D01*
G75*
G02*
X44780000Y35335000I70000J0D01*
G01*
X45540000Y35335000D01*
G75*
G02*
X45610000Y35265000I0J-70000D01*
G01*
X45610000Y35155000D01*
G75*
G02*
X45540000Y35085000I-70000J0D01*
G01*
G37*
G36*
G01*
X45540000Y34585000D02*
X44780000Y34585000D01*
G75*
G02*
X44710000Y34655000I0J70000D01*
G01*
X44710000Y34765000D01*
G75*
G02*
X44780000Y34835000I70000J0D01*
G01*
X45540000Y34835000D01*
G75*
G02*
X45610000Y34765000I0J-70000D01*
G01*
X45610000Y34655000D01*
G75*
G02*
X45540000Y34585000I-70000J0D01*
G01*
G37*
G36*
G01*
X45540000Y34085000D02*
X44780000Y34085000D01*
G75*
G02*
X44710000Y34155000I0J70000D01*
G01*
X44710000Y34265000D01*
G75*
G02*
X44780000Y34335000I70000J0D01*
G01*
X45540000Y34335000D01*
G75*
G02*
X45610000Y34265000I0J-70000D01*
G01*
X45610000Y34155000D01*
G75*
G02*
X45540000Y34085000I-70000J0D01*
G01*
G37*
G36*
G01*
X45540000Y33585000D02*
X44780000Y33585000D01*
G75*
G02*
X44710000Y33655000I0J70000D01*
G01*
X44710000Y33765000D01*
G75*
G02*
X44780000Y33835000I70000J0D01*
G01*
X45540000Y33835000D01*
G75*
G02*
X45610000Y33765000I0J-70000D01*
G01*
X45610000Y33655000D01*
G75*
G02*
X45540000Y33585000I-70000J0D01*
G01*
G37*
G36*
G01*
X45540000Y33085000D02*
X44780000Y33085000D01*
G75*
G02*
X44710000Y33155000I0J70000D01*
G01*
X44710000Y33265000D01*
G75*
G02*
X44780000Y33335000I70000J0D01*
G01*
X45540000Y33335000D01*
G75*
G02*
X45610000Y33265000I0J-70000D01*
G01*
X45610000Y33155000D01*
G75*
G02*
X45540000Y33085000I-70000J0D01*
G01*
G37*
G36*
G01*
X45540000Y32585000D02*
X44780000Y32585000D01*
G75*
G02*
X44710000Y32655000I0J70000D01*
G01*
X44710000Y32765000D01*
G75*
G02*
X44780000Y32835000I70000J0D01*
G01*
X45540000Y32835000D01*
G75*
G02*
X45610000Y32765000I0J-70000D01*
G01*
X45610000Y32655000D01*
G75*
G02*
X45540000Y32585000I-70000J0D01*
G01*
G37*
G36*
G01*
X45540000Y32085000D02*
X44780000Y32085000D01*
G75*
G02*
X44710000Y32155000I0J70000D01*
G01*
X44710000Y32265000D01*
G75*
G02*
X44780000Y32335000I70000J0D01*
G01*
X45540000Y32335000D01*
G75*
G02*
X45610000Y32265000I0J-70000D01*
G01*
X45610000Y32155000D01*
G75*
G02*
X45540000Y32085000I-70000J0D01*
G01*
G37*
G36*
G01*
X45540000Y31585000D02*
X44780000Y31585000D01*
G75*
G02*
X44710000Y31655000I0J70000D01*
G01*
X44710000Y31765000D01*
G75*
G02*
X44780000Y31835000I70000J0D01*
G01*
X45540000Y31835000D01*
G75*
G02*
X45610000Y31765000I0J-70000D01*
G01*
X45610000Y31655000D01*
G75*
G02*
X45540000Y31585000I-70000J0D01*
G01*
G37*
G36*
G01*
X44235000Y30530000D02*
X44235000Y31290000D01*
G75*
G02*
X44305000Y31360000I70000J0D01*
G01*
X44415000Y31360000D01*
G75*
G02*
X44485000Y31290000I0J-70000D01*
G01*
X44485000Y30530000D01*
G75*
G02*
X44415000Y30460000I-70000J0D01*
G01*
X44305000Y30460000D01*
G75*
G02*
X44235000Y30530000I0J70000D01*
G01*
G37*
G36*
G01*
X43735000Y30530000D02*
X43735000Y31290000D01*
G75*
G02*
X43805000Y31360000I70000J0D01*
G01*
X43915000Y31360000D01*
G75*
G02*
X43985000Y31290000I0J-70000D01*
G01*
X43985000Y30530000D01*
G75*
G02*
X43915000Y30460000I-70000J0D01*
G01*
X43805000Y30460000D01*
G75*
G02*
X43735000Y30530000I0J70000D01*
G01*
G37*
G36*
G01*
X43235000Y30530000D02*
X43235000Y31290000D01*
G75*
G02*
X43305000Y31360000I70000J0D01*
G01*
X43415000Y31360000D01*
G75*
G02*
X43485000Y31290000I0J-70000D01*
G01*
X43485000Y30530000D01*
G75*
G02*
X43415000Y30460000I-70000J0D01*
G01*
X43305000Y30460000D01*
G75*
G02*
X43235000Y30530000I0J70000D01*
G01*
G37*
G36*
G01*
X42735000Y30530000D02*
X42735000Y31290000D01*
G75*
G02*
X42805000Y31360000I70000J0D01*
G01*
X42915000Y31360000D01*
G75*
G02*
X42985000Y31290000I0J-70000D01*
G01*
X42985000Y30530000D01*
G75*
G02*
X42915000Y30460000I-70000J0D01*
G01*
X42805000Y30460000D01*
G75*
G02*
X42735000Y30530000I0J70000D01*
G01*
G37*
G36*
G01*
X42235000Y30530000D02*
X42235000Y31290000D01*
G75*
G02*
X42305000Y31360000I70000J0D01*
G01*
X42415000Y31360000D01*
G75*
G02*
X42485000Y31290000I0J-70000D01*
G01*
X42485000Y30530000D01*
G75*
G02*
X42415000Y30460000I-70000J0D01*
G01*
X42305000Y30460000D01*
G75*
G02*
X42235000Y30530000I0J70000D01*
G01*
G37*
G36*
G01*
X41735000Y30530000D02*
X41735000Y31290000D01*
G75*
G02*
X41805000Y31360000I70000J0D01*
G01*
X41915000Y31360000D01*
G75*
G02*
X41985000Y31290000I0J-70000D01*
G01*
X41985000Y30530000D01*
G75*
G02*
X41915000Y30460000I-70000J0D01*
G01*
X41805000Y30460000D01*
G75*
G02*
X41735000Y30530000I0J70000D01*
G01*
G37*
G36*
G01*
X41235000Y30530000D02*
X41235000Y31290000D01*
G75*
G02*
X41305000Y31360000I70000J0D01*
G01*
X41415000Y31360000D01*
G75*
G02*
X41485000Y31290000I0J-70000D01*
G01*
X41485000Y30530000D01*
G75*
G02*
X41415000Y30460000I-70000J0D01*
G01*
X41305000Y30460000D01*
G75*
G02*
X41235000Y30530000I0J70000D01*
G01*
G37*
G36*
G01*
X40735000Y30530000D02*
X40735000Y31290000D01*
G75*
G02*
X40805000Y31360000I70000J0D01*
G01*
X40915000Y31360000D01*
G75*
G02*
X40985000Y31290000I0J-70000D01*
G01*
X40985000Y30530000D01*
G75*
G02*
X40915000Y30460000I-70000J0D01*
G01*
X40805000Y30460000D01*
G75*
G02*
X40735000Y30530000I0J70000D01*
G01*
G37*
G36*
G01*
X40235000Y30530000D02*
X40235000Y31290000D01*
G75*
G02*
X40305000Y31360000I70000J0D01*
G01*
X40415000Y31360000D01*
G75*
G02*
X40485000Y31290000I0J-70000D01*
G01*
X40485000Y30530000D01*
G75*
G02*
X40415000Y30460000I-70000J0D01*
G01*
X40305000Y30460000D01*
G75*
G02*
X40235000Y30530000I0J70000D01*
G01*
G37*
G36*
G01*
X39735000Y30530000D02*
X39735000Y31290000D01*
G75*
G02*
X39805000Y31360000I70000J0D01*
G01*
X39915000Y31360000D01*
G75*
G02*
X39985000Y31290000I0J-70000D01*
G01*
X39985000Y30530000D01*
G75*
G02*
X39915000Y30460000I-70000J0D01*
G01*
X39805000Y30460000D01*
G75*
G02*
X39735000Y30530000I0J70000D01*
G01*
G37*
G36*
G01*
X39235000Y30530000D02*
X39235000Y31290000D01*
G75*
G02*
X39305000Y31360000I70000J0D01*
G01*
X39415000Y31360000D01*
G75*
G02*
X39485000Y31290000I0J-70000D01*
G01*
X39485000Y30530000D01*
G75*
G02*
X39415000Y30460000I-70000J0D01*
G01*
X39305000Y30460000D01*
G75*
G02*
X39235000Y30530000I0J70000D01*
G01*
G37*
G36*
G01*
X38735000Y30530000D02*
X38735000Y31290000D01*
G75*
G02*
X38805000Y31360000I70000J0D01*
G01*
X38915000Y31360000D01*
G75*
G02*
X38985000Y31290000I0J-70000D01*
G01*
X38985000Y30530000D01*
G75*
G02*
X38915000Y30460000I-70000J0D01*
G01*
X38805000Y30460000D01*
G75*
G02*
X38735000Y30530000I0J70000D01*
G01*
G37*
G36*
G01*
X38440000Y31585000D02*
X37680000Y31585000D01*
G75*
G02*
X37610000Y31655000I0J70000D01*
G01*
X37610000Y31765000D01*
G75*
G02*
X37680000Y31835000I70000J0D01*
G01*
X38440000Y31835000D01*
G75*
G02*
X38510000Y31765000I0J-70000D01*
G01*
X38510000Y31655000D01*
G75*
G02*
X38440000Y31585000I-70000J0D01*
G01*
G37*
G36*
G01*
X38440000Y32085000D02*
X37680000Y32085000D01*
G75*
G02*
X37610000Y32155000I0J70000D01*
G01*
X37610000Y32265000D01*
G75*
G02*
X37680000Y32335000I70000J0D01*
G01*
X38440000Y32335000D01*
G75*
G02*
X38510000Y32265000I0J-70000D01*
G01*
X38510000Y32155000D01*
G75*
G02*
X38440000Y32085000I-70000J0D01*
G01*
G37*
G36*
G01*
X38440000Y32585000D02*
X37680000Y32585000D01*
G75*
G02*
X37610000Y32655000I0J70000D01*
G01*
X37610000Y32765000D01*
G75*
G02*
X37680000Y32835000I70000J0D01*
G01*
X38440000Y32835000D01*
G75*
G02*
X38510000Y32765000I0J-70000D01*
G01*
X38510000Y32655000D01*
G75*
G02*
X38440000Y32585000I-70000J0D01*
G01*
G37*
G36*
G01*
X38440000Y33085000D02*
X37680000Y33085000D01*
G75*
G02*
X37610000Y33155000I0J70000D01*
G01*
X37610000Y33265000D01*
G75*
G02*
X37680000Y33335000I70000J0D01*
G01*
X38440000Y33335000D01*
G75*
G02*
X38510000Y33265000I0J-70000D01*
G01*
X38510000Y33155000D01*
G75*
G02*
X38440000Y33085000I-70000J0D01*
G01*
G37*
G36*
G01*
X38440000Y33585000D02*
X37680000Y33585000D01*
G75*
G02*
X37610000Y33655000I0J70000D01*
G01*
X37610000Y33765000D01*
G75*
G02*
X37680000Y33835000I70000J0D01*
G01*
X38440000Y33835000D01*
G75*
G02*
X38510000Y33765000I0J-70000D01*
G01*
X38510000Y33655000D01*
G75*
G02*
X38440000Y33585000I-70000J0D01*
G01*
G37*
G36*
G01*
X38440000Y34085000D02*
X37680000Y34085000D01*
G75*
G02*
X37610000Y34155000I0J70000D01*
G01*
X37610000Y34265000D01*
G75*
G02*
X37680000Y34335000I70000J0D01*
G01*
X38440000Y34335000D01*
G75*
G02*
X38510000Y34265000I0J-70000D01*
G01*
X38510000Y34155000D01*
G75*
G02*
X38440000Y34085000I-70000J0D01*
G01*
G37*
G36*
G01*
X38440000Y34585000D02*
X37680000Y34585000D01*
G75*
G02*
X37610000Y34655000I0J70000D01*
G01*
X37610000Y34765000D01*
G75*
G02*
X37680000Y34835000I70000J0D01*
G01*
X38440000Y34835000D01*
G75*
G02*
X38510000Y34765000I0J-70000D01*
G01*
X38510000Y34655000D01*
G75*
G02*
X38440000Y34585000I-70000J0D01*
G01*
G37*
G36*
G01*
X38440000Y35085000D02*
X37680000Y35085000D01*
G75*
G02*
X37610000Y35155000I0J70000D01*
G01*
X37610000Y35265000D01*
G75*
G02*
X37680000Y35335000I70000J0D01*
G01*
X38440000Y35335000D01*
G75*
G02*
X38510000Y35265000I0J-70000D01*
G01*
X38510000Y35155000D01*
G75*
G02*
X38440000Y35085000I-70000J0D01*
G01*
G37*
G36*
G01*
X38440000Y35585000D02*
X37680000Y35585000D01*
G75*
G02*
X37610000Y35655000I0J70000D01*
G01*
X37610000Y35765000D01*
G75*
G02*
X37680000Y35835000I70000J0D01*
G01*
X38440000Y35835000D01*
G75*
G02*
X38510000Y35765000I0J-70000D01*
G01*
X38510000Y35655000D01*
G75*
G02*
X38440000Y35585000I-70000J0D01*
G01*
G37*
G36*
G01*
X38440000Y36085000D02*
X37680000Y36085000D01*
G75*
G02*
X37610000Y36155000I0J70000D01*
G01*
X37610000Y36265000D01*
G75*
G02*
X37680000Y36335000I70000J0D01*
G01*
X38440000Y36335000D01*
G75*
G02*
X38510000Y36265000I0J-70000D01*
G01*
X38510000Y36155000D01*
G75*
G02*
X38440000Y36085000I-70000J0D01*
G01*
G37*
G36*
G01*
X38440000Y36585000D02*
X37680000Y36585000D01*
G75*
G02*
X37610000Y36655000I0J70000D01*
G01*
X37610000Y36765000D01*
G75*
G02*
X37680000Y36835000I70000J0D01*
G01*
X38440000Y36835000D01*
G75*
G02*
X38510000Y36765000I0J-70000D01*
G01*
X38510000Y36655000D01*
G75*
G02*
X38440000Y36585000I-70000J0D01*
G01*
G37*
G36*
G01*
X38440000Y37085000D02*
X37680000Y37085000D01*
G75*
G02*
X37610000Y37155000I0J70000D01*
G01*
X37610000Y37265000D01*
G75*
G02*
X37680000Y37335000I70000J0D01*
G01*
X38440000Y37335000D01*
G75*
G02*
X38510000Y37265000I0J-70000D01*
G01*
X38510000Y37155000D01*
G75*
G02*
X38440000Y37085000I-70000J0D01*
G01*
G37*
%TD*%
%TO.C,C14*%
G36*
G01*
X29944000Y21390000D02*
X30254000Y21390000D01*
G75*
G02*
X30409000Y21235000I0J-155000D01*
G01*
X30409000Y20810000D01*
G75*
G02*
X30254000Y20655000I-155000J0D01*
G01*
X29944000Y20655000D01*
G75*
G02*
X29789000Y20810000I0J155000D01*
G01*
X29789000Y21235000D01*
G75*
G02*
X29944000Y21390000I155000J0D01*
G01*
G37*
G36*
G01*
X29944000Y22525000D02*
X30254000Y22525000D01*
G75*
G02*
X30409000Y22370000I0J-155000D01*
G01*
X30409000Y21945000D01*
G75*
G02*
X30254000Y21790000I-155000J0D01*
G01*
X29944000Y21790000D01*
G75*
G02*
X29789000Y21945000I0J155000D01*
G01*
X29789000Y22370000D01*
G75*
G02*
X29944000Y22525000I155000J0D01*
G01*
G37*
%TD*%
%TO.C,C12*%
G36*
G01*
X32484000Y21390000D02*
X32794000Y21390000D01*
G75*
G02*
X32949000Y21235000I0J-155000D01*
G01*
X32949000Y20810000D01*
G75*
G02*
X32794000Y20655000I-155000J0D01*
G01*
X32484000Y20655000D01*
G75*
G02*
X32329000Y20810000I0J155000D01*
G01*
X32329000Y21235000D01*
G75*
G02*
X32484000Y21390000I155000J0D01*
G01*
G37*
G36*
G01*
X32484000Y22525000D02*
X32794000Y22525000D01*
G75*
G02*
X32949000Y22370000I0J-155000D01*
G01*
X32949000Y21945000D01*
G75*
G02*
X32794000Y21790000I-155000J0D01*
G01*
X32484000Y21790000D01*
G75*
G02*
X32329000Y21945000I0J155000D01*
G01*
X32329000Y22370000D01*
G75*
G02*
X32484000Y22525000I155000J0D01*
G01*
G37*
%TD*%
D13*
%TO.C,J1*%
X55504080Y34876994D03*
X59403996Y34876994D03*
X55504080Y36146994D03*
X59403996Y36146994D03*
X55504080Y37416994D03*
X59403996Y37416994D03*
X55504080Y38686740D03*
X59403996Y38686994D03*
X55504080Y39956990D03*
X59403996Y39956740D03*
%TD*%
%TO.C,C5*%
G36*
G01*
X41653000Y39386500D02*
X41653000Y39861500D01*
G75*
G02*
X41890500Y40099000I237500J0D01*
G01*
X42490500Y40099000D01*
G75*
G02*
X42728000Y39861500I0J-237500D01*
G01*
X42728000Y39386500D01*
G75*
G02*
X42490500Y39149000I-237500J0D01*
G01*
X41890500Y39149000D01*
G75*
G02*
X41653000Y39386500I0J237500D01*
G01*
G37*
G36*
G01*
X43378000Y39386500D02*
X43378000Y39861500D01*
G75*
G02*
X43615500Y40099000I237500J0D01*
G01*
X44215500Y40099000D01*
G75*
G02*
X44453000Y39861500I0J-237500D01*
G01*
X44453000Y39386500D01*
G75*
G02*
X44215500Y39149000I-237500J0D01*
G01*
X43615500Y39149000D01*
G75*
G02*
X43378000Y39386500I0J237500D01*
G01*
G37*
%TD*%
%TO.C,L12*%
G36*
G01*
X26226000Y28862000D02*
X26226000Y28542000D01*
G75*
G02*
X26066000Y28382000I-160000J0D01*
G01*
X25621000Y28382000D01*
G75*
G02*
X25461000Y28542000I0J160000D01*
G01*
X25461000Y28862000D01*
G75*
G02*
X25621000Y29022000I160000J0D01*
G01*
X26066000Y29022000D01*
G75*
G02*
X26226000Y28862000I0J-160000D01*
G01*
G37*
G36*
G01*
X27371000Y28862000D02*
X27371000Y28542000D01*
G75*
G02*
X27211000Y28382000I-160000J0D01*
G01*
X26766000Y28382000D01*
G75*
G02*
X26606000Y28542000I0J160000D01*
G01*
X26606000Y28862000D01*
G75*
G02*
X26766000Y29022000I160000J0D01*
G01*
X27211000Y29022000D01*
G75*
G02*
X27371000Y28862000I0J-160000D01*
G01*
G37*
%TD*%
%TO.C,L11*%
G36*
G01*
X29851512Y29569786D02*
X30077786Y29343512D01*
G75*
G02*
X30077786Y29117238I-113137J-113137D01*
G01*
X29763124Y28802576D01*
G75*
G02*
X29536850Y28802576I-113137J113137D01*
G01*
X29310576Y29028850D01*
G75*
G02*
X29310576Y29255124I113137J113137D01*
G01*
X29625238Y29569786D01*
G75*
G02*
X29851512Y29569786I113137J-113137D01*
G01*
G37*
G36*
G01*
X30661150Y30379424D02*
X30887424Y30153150D01*
G75*
G02*
X30887424Y29926876I-113137J-113137D01*
G01*
X30572762Y29612214D01*
G75*
G02*
X30346488Y29612214I-113137J113137D01*
G01*
X30120214Y29838488D01*
G75*
G02*
X30120214Y30064762I113137J113137D01*
G01*
X30434876Y30379424D01*
G75*
G02*
X30661150Y30379424I113137J-113137D01*
G01*
G37*
%TD*%
%TO.C,L9*%
G36*
G01*
X30120214Y32010512D02*
X30346488Y32236786D01*
G75*
G02*
X30572762Y32236786I113137J-113137D01*
G01*
X30887424Y31922124D01*
G75*
G02*
X30887424Y31695850I-113137J-113137D01*
G01*
X30661150Y31469576D01*
G75*
G02*
X30434876Y31469576I-113137J113137D01*
G01*
X30120214Y31784238D01*
G75*
G02*
X30120214Y32010512I113137J113137D01*
G01*
G37*
G36*
G01*
X29310576Y32820150D02*
X29536850Y33046424D01*
G75*
G02*
X29763124Y33046424I113137J-113137D01*
G01*
X30077786Y32731762D01*
G75*
G02*
X30077786Y32505488I-113137J-113137D01*
G01*
X29851512Y32279214D01*
G75*
G02*
X29625238Y32279214I-113137J113137D01*
G01*
X29310576Y32593876D01*
G75*
G02*
X29310576Y32820150I113137J113137D01*
G01*
G37*
%TD*%
%TO.C,L8*%
G36*
G01*
X31898214Y32010512D02*
X32124488Y32236786D01*
G75*
G02*
X32350762Y32236786I113137J-113137D01*
G01*
X32665424Y31922124D01*
G75*
G02*
X32665424Y31695850I-113137J-113137D01*
G01*
X32439150Y31469576D01*
G75*
G02*
X32212876Y31469576I-113137J113137D01*
G01*
X31898214Y31784238D01*
G75*
G02*
X31898214Y32010512I113137J113137D01*
G01*
G37*
G36*
G01*
X31088576Y32820150D02*
X31314850Y33046424D01*
G75*
G02*
X31541124Y33046424I113137J-113137D01*
G01*
X31855786Y32731762D01*
G75*
G02*
X31855786Y32505488I-113137J-113137D01*
G01*
X31629512Y32279214D01*
G75*
G02*
X31403238Y32279214I-113137J113137D01*
G01*
X31088576Y32593876D01*
G75*
G02*
X31088576Y32820150I113137J113137D01*
G01*
G37*
%TD*%
%TO.C,L6*%
G36*
G01*
X34452512Y34058786D02*
X34678786Y33832512D01*
G75*
G02*
X34678786Y33606238I-113137J-113137D01*
G01*
X34364124Y33291576D01*
G75*
G02*
X34137850Y33291576I-113137J113137D01*
G01*
X33911576Y33517850D01*
G75*
G02*
X33911576Y33744124I113137J113137D01*
G01*
X34226238Y34058786D01*
G75*
G02*
X34452512Y34058786I113137J-113137D01*
G01*
G37*
G36*
G01*
X35262150Y34868424D02*
X35488424Y34642150D01*
G75*
G02*
X35488424Y34415876I-113137J-113137D01*
G01*
X35173762Y34101214D01*
G75*
G02*
X34947488Y34101214I-113137J113137D01*
G01*
X34721214Y34327488D01*
G75*
G02*
X34721214Y34553762I113137J113137D01*
G01*
X35035876Y34868424D01*
G75*
G02*
X35262150Y34868424I113137J-113137D01*
G01*
G37*
%TD*%
%TO.C,L5*%
G36*
G01*
X33612512Y34868786D02*
X33838786Y34642512D01*
G75*
G02*
X33838786Y34416238I-113137J-113137D01*
G01*
X33524124Y34101576D01*
G75*
G02*
X33297850Y34101576I-113137J113137D01*
G01*
X33071576Y34327850D01*
G75*
G02*
X33071576Y34554124I113137J113137D01*
G01*
X33386238Y34868786D01*
G75*
G02*
X33612512Y34868786I113137J-113137D01*
G01*
G37*
G36*
G01*
X34422150Y35678424D02*
X34648424Y35452150D01*
G75*
G02*
X34648424Y35225876I-113137J-113137D01*
G01*
X34333762Y34911214D01*
G75*
G02*
X34107488Y34911214I-113137J113137D01*
G01*
X33881214Y35137488D01*
G75*
G02*
X33881214Y35363762I113137J113137D01*
G01*
X34195876Y35678424D01*
G75*
G02*
X34422150Y35678424I113137J-113137D01*
G01*
G37*
%TD*%
%TO.C,L2*%
G36*
G01*
X34592512Y37570786D02*
X34818786Y37344512D01*
G75*
G02*
X34818786Y37118238I-113137J-113137D01*
G01*
X34504124Y36803576D01*
G75*
G02*
X34277850Y36803576I-113137J113137D01*
G01*
X34051576Y37029850D01*
G75*
G02*
X34051576Y37256124I113137J113137D01*
G01*
X34366238Y37570786D01*
G75*
G02*
X34592512Y37570786I113137J-113137D01*
G01*
G37*
G36*
G01*
X35402150Y38380424D02*
X35628424Y38154150D01*
G75*
G02*
X35628424Y37927876I-113137J-113137D01*
G01*
X35313762Y37613214D01*
G75*
G02*
X35087488Y37613214I-113137J113137D01*
G01*
X34861214Y37839488D01*
G75*
G02*
X34861214Y38065762I113137J113137D01*
G01*
X35175876Y38380424D01*
G75*
G02*
X35402150Y38380424I113137J-113137D01*
G01*
G37*
%TD*%
%TO.C,C29*%
G36*
G01*
X23676000Y30127000D02*
X23676000Y29817000D01*
G75*
G02*
X23521000Y29662000I-155000J0D01*
G01*
X23096000Y29662000D01*
G75*
G02*
X22941000Y29817000I0J155000D01*
G01*
X22941000Y30127000D01*
G75*
G02*
X23096000Y30282000I155000J0D01*
G01*
X23521000Y30282000D01*
G75*
G02*
X23676000Y30127000I0J-155000D01*
G01*
G37*
G36*
G01*
X24811000Y30127000D02*
X24811000Y29817000D01*
G75*
G02*
X24656000Y29662000I-155000J0D01*
G01*
X24231000Y29662000D01*
G75*
G02*
X24076000Y29817000I0J155000D01*
G01*
X24076000Y30127000D01*
G75*
G02*
X24231000Y30282000I155000J0D01*
G01*
X24656000Y30282000D01*
G75*
G02*
X24811000Y30127000I0J-155000D01*
G01*
G37*
%TD*%
%TO.C,C28*%
G36*
G01*
X24356000Y27867000D02*
X24666000Y27867000D01*
G75*
G02*
X24821000Y27712000I0J-155000D01*
G01*
X24821000Y27287000D01*
G75*
G02*
X24666000Y27132000I-155000J0D01*
G01*
X24356000Y27132000D01*
G75*
G02*
X24201000Y27287000I0J155000D01*
G01*
X24201000Y27712000D01*
G75*
G02*
X24356000Y27867000I155000J0D01*
G01*
G37*
G36*
G01*
X24356000Y29002000D02*
X24666000Y29002000D01*
G75*
G02*
X24821000Y28847000I0J-155000D01*
G01*
X24821000Y28422000D01*
G75*
G02*
X24666000Y28267000I-155000J0D01*
G01*
X24356000Y28267000D01*
G75*
G02*
X24201000Y28422000I0J155000D01*
G01*
X24201000Y28847000D01*
G75*
G02*
X24356000Y29002000I155000J0D01*
G01*
G37*
%TD*%
%TO.C,C27*%
G36*
G01*
X28166000Y27867000D02*
X28476000Y27867000D01*
G75*
G02*
X28631000Y27712000I0J-155000D01*
G01*
X28631000Y27287000D01*
G75*
G02*
X28476000Y27132000I-155000J0D01*
G01*
X28166000Y27132000D01*
G75*
G02*
X28011000Y27287000I0J155000D01*
G01*
X28011000Y27712000D01*
G75*
G02*
X28166000Y27867000I155000J0D01*
G01*
G37*
G36*
G01*
X28166000Y29002000D02*
X28476000Y29002000D01*
G75*
G02*
X28631000Y28847000I0J-155000D01*
G01*
X28631000Y28422000D01*
G75*
G02*
X28476000Y28267000I-155000J0D01*
G01*
X28166000Y28267000D01*
G75*
G02*
X28011000Y28422000I0J155000D01*
G01*
X28011000Y28847000D01*
G75*
G02*
X28166000Y29002000I155000J0D01*
G01*
G37*
%TD*%
%TO.C,C26*%
G36*
G01*
X22989978Y36417181D02*
X23209181Y36197978D01*
G75*
G02*
X23209181Y35978774I-109602J-109602D01*
G01*
X22908660Y35678253D01*
G75*
G02*
X22689456Y35678253I-109602J109602D01*
G01*
X22470253Y35897456D01*
G75*
G02*
X22470253Y36116660I109602J109602D01*
G01*
X22770774Y36417181D01*
G75*
G02*
X22989978Y36417181I109602J-109602D01*
G01*
G37*
G36*
G01*
X23792544Y37219747D02*
X24011747Y37000544D01*
G75*
G02*
X24011747Y36781340I-109602J-109602D01*
G01*
X23711226Y36480819D01*
G75*
G02*
X23492022Y36480819I-109602J109602D01*
G01*
X23272819Y36700022D01*
G75*
G02*
X23272819Y36919226I109602J109602D01*
G01*
X23573340Y37219747D01*
G75*
G02*
X23792544Y37219747I109602J-109602D01*
G01*
G37*
%TD*%
%TO.C,C25*%
G36*
G01*
X25050819Y37086978D02*
X25270022Y37306181D01*
G75*
G02*
X25489226Y37306181I109602J-109602D01*
G01*
X25789747Y37005660D01*
G75*
G02*
X25789747Y36786456I-109602J-109602D01*
G01*
X25570544Y36567253D01*
G75*
G02*
X25351340Y36567253I-109602J109602D01*
G01*
X25050819Y36867774D01*
G75*
G02*
X25050819Y37086978I109602J109602D01*
G01*
G37*
G36*
G01*
X24248253Y37889544D02*
X24467456Y38108747D01*
G75*
G02*
X24686660Y38108747I109602J-109602D01*
G01*
X24987181Y37808226D01*
G75*
G02*
X24987181Y37589022I-109602J-109602D01*
G01*
X24767978Y37369819D01*
G75*
G02*
X24548774Y37369819I-109602J109602D01*
G01*
X24248253Y37670340D01*
G75*
G02*
X24248253Y37889544I109602J109602D01*
G01*
G37*
%TD*%
%TO.C,C24*%
G36*
G01*
X28958978Y30448181D02*
X29178181Y30228978D01*
G75*
G02*
X29178181Y30009774I-109602J-109602D01*
G01*
X28877660Y29709253D01*
G75*
G02*
X28658456Y29709253I-109602J109602D01*
G01*
X28439253Y29928456D01*
G75*
G02*
X28439253Y30147660I109602J109602D01*
G01*
X28739774Y30448181D01*
G75*
G02*
X28958978Y30448181I109602J-109602D01*
G01*
G37*
G36*
G01*
X29761544Y31250747D02*
X29980747Y31031544D01*
G75*
G02*
X29980747Y30812340I-109602J-109602D01*
G01*
X29680226Y30511819D01*
G75*
G02*
X29461022Y30511819I-109602J109602D01*
G01*
X29241819Y30731022D01*
G75*
G02*
X29241819Y30950226I109602J109602D01*
G01*
X29542340Y31250747D01*
G75*
G02*
X29761544Y31250747I109602J-109602D01*
G01*
G37*
%TD*%
%TO.C,C23*%
G36*
G01*
X31908819Y30228978D02*
X32128022Y30448181D01*
G75*
G02*
X32347226Y30448181I109602J-109602D01*
G01*
X32647747Y30147660D01*
G75*
G02*
X32647747Y29928456I-109602J-109602D01*
G01*
X32428544Y29709253D01*
G75*
G02*
X32209340Y29709253I-109602J109602D01*
G01*
X31908819Y30009774D01*
G75*
G02*
X31908819Y30228978I109602J109602D01*
G01*
G37*
G36*
G01*
X31106253Y31031544D02*
X31325456Y31250747D01*
G75*
G02*
X31544660Y31250747I109602J-109602D01*
G01*
X31845181Y30950226D01*
G75*
G02*
X31845181Y30731022I-109602J-109602D01*
G01*
X31625978Y30511819D01*
G75*
G02*
X31406774Y30511819I-109602J109602D01*
G01*
X31106253Y30812340D01*
G75*
G02*
X31106253Y31031544I109602J109602D01*
G01*
G37*
%TD*%
%TO.C,C22*%
G36*
G01*
X28572022Y31400819D02*
X28352819Y31620022D01*
G75*
G02*
X28352819Y31839226I109602J109602D01*
G01*
X28653340Y32139747D01*
G75*
G02*
X28872544Y32139747I109602J-109602D01*
G01*
X29091747Y31920544D01*
G75*
G02*
X29091747Y31701340I-109602J-109602D01*
G01*
X28791226Y31400819D01*
G75*
G02*
X28572022Y31400819I-109602J109602D01*
G01*
G37*
G36*
G01*
X27769456Y30598253D02*
X27550253Y30817456D01*
G75*
G02*
X27550253Y31036660I109602J109602D01*
G01*
X27850774Y31337181D01*
G75*
G02*
X28069978Y31337181I109602J-109602D01*
G01*
X28289181Y31117978D01*
G75*
G02*
X28289181Y30898774I-109602J-109602D01*
G01*
X27988660Y30598253D01*
G75*
G02*
X27769456Y30598253I-109602J109602D01*
G01*
G37*
%TD*%
%TO.C,C21*%
G36*
G01*
X26765181Y41145022D02*
X26545978Y40925819D01*
G75*
G02*
X26326774Y40925819I-109602J109602D01*
G01*
X26026253Y41226340D01*
G75*
G02*
X26026253Y41445544I109602J109602D01*
G01*
X26245456Y41664747D01*
G75*
G02*
X26464660Y41664747I109602J-109602D01*
G01*
X26765181Y41364226D01*
G75*
G02*
X26765181Y41145022I-109602J-109602D01*
G01*
G37*
G36*
G01*
X27567747Y40342456D02*
X27348544Y40123253D01*
G75*
G02*
X27129340Y40123253I-109602J109602D01*
G01*
X26828819Y40423774D01*
G75*
G02*
X26828819Y40642978I109602J109602D01*
G01*
X27048022Y40862181D01*
G75*
G02*
X27267226Y40862181I109602J-109602D01*
G01*
X27567747Y40561660D01*
G75*
G02*
X27567747Y40342456I-109602J-109602D01*
G01*
G37*
%TD*%
%TO.C,C20*%
G36*
G01*
X32881819Y32868978D02*
X33101022Y33088181D01*
G75*
G02*
X33320226Y33088181I109602J-109602D01*
G01*
X33620747Y32787660D01*
G75*
G02*
X33620747Y32568456I-109602J-109602D01*
G01*
X33401544Y32349253D01*
G75*
G02*
X33182340Y32349253I-109602J109602D01*
G01*
X32881819Y32649774D01*
G75*
G02*
X32881819Y32868978I109602J109602D01*
G01*
G37*
G36*
G01*
X32079253Y33671544D02*
X32298456Y33890747D01*
G75*
G02*
X32517660Y33890747I109602J-109602D01*
G01*
X32818181Y33590226D01*
G75*
G02*
X32818181Y33371022I-109602J-109602D01*
G01*
X32598978Y33151819D01*
G75*
G02*
X32379774Y33151819I-109602J109602D01*
G01*
X32079253Y33452340D01*
G75*
G02*
X32079253Y33671544I109602J109602D01*
G01*
G37*
%TD*%
%TO.C,C19*%
G36*
G01*
X32988181Y40510022D02*
X32768978Y40290819D01*
G75*
G02*
X32549774Y40290819I-109602J109602D01*
G01*
X32249253Y40591340D01*
G75*
G02*
X32249253Y40810544I109602J109602D01*
G01*
X32468456Y41029747D01*
G75*
G02*
X32687660Y41029747I109602J-109602D01*
G01*
X32988181Y40729226D01*
G75*
G02*
X32988181Y40510022I-109602J-109602D01*
G01*
G37*
G36*
G01*
X33790747Y39707456D02*
X33571544Y39488253D01*
G75*
G02*
X33352340Y39488253I-109602J109602D01*
G01*
X33051819Y39788774D01*
G75*
G02*
X33051819Y40007978I109602J109602D01*
G01*
X33271022Y40227181D01*
G75*
G02*
X33490226Y40227181I109602J-109602D01*
G01*
X33790747Y39926660D01*
G75*
G02*
X33790747Y39707456I-109602J-109602D01*
G01*
G37*
%TD*%
%TO.C,C18*%
G36*
G01*
X32768978Y37560181D02*
X32988181Y37340978D01*
G75*
G02*
X32988181Y37121774I-109602J-109602D01*
G01*
X32687660Y36821253D01*
G75*
G02*
X32468456Y36821253I-109602J109602D01*
G01*
X32249253Y37040456D01*
G75*
G02*
X32249253Y37259660I109602J109602D01*
G01*
X32549774Y37560181D01*
G75*
G02*
X32768978Y37560181I109602J-109602D01*
G01*
G37*
G36*
G01*
X33571544Y38362747D02*
X33790747Y38143544D01*
G75*
G02*
X33790747Y37924340I-109602J-109602D01*
G01*
X33490226Y37623819D01*
G75*
G02*
X33271022Y37623819I-109602J109602D01*
G01*
X33051819Y37843022D01*
G75*
G02*
X33051819Y38062226I109602J109602D01*
G01*
X33352340Y38362747D01*
G75*
G02*
X33571544Y38362747I109602J-109602D01*
G01*
G37*
%TD*%
%TO.C,C17*%
G36*
G01*
X33940819Y40896978D02*
X34160022Y41116181D01*
G75*
G02*
X34379226Y41116181I109602J-109602D01*
G01*
X34679747Y40815660D01*
G75*
G02*
X34679747Y40596456I-109602J-109602D01*
G01*
X34460544Y40377253D01*
G75*
G02*
X34241340Y40377253I-109602J109602D01*
G01*
X33940819Y40677774D01*
G75*
G02*
X33940819Y40896978I109602J109602D01*
G01*
G37*
G36*
G01*
X33138253Y41699544D02*
X33357456Y41918747D01*
G75*
G02*
X33576660Y41918747I109602J-109602D01*
G01*
X33877181Y41618226D01*
G75*
G02*
X33877181Y41399022I-109602J-109602D01*
G01*
X33657978Y41179819D01*
G75*
G02*
X33438774Y41179819I-109602J109602D01*
G01*
X33138253Y41480340D01*
G75*
G02*
X33138253Y41699544I109602J109602D01*
G01*
G37*
%TD*%
%TO.C,D3*%
G36*
G01*
X48037000Y35162500D02*
X48037000Y34687500D01*
G75*
G02*
X47799500Y34450000I-237500J0D01*
G01*
X47224500Y34450000D01*
G75*
G02*
X46987000Y34687500I0J237500D01*
G01*
X46987000Y35162500D01*
G75*
G02*
X47224500Y35400000I237500J0D01*
G01*
X47799500Y35400000D01*
G75*
G02*
X48037000Y35162500I0J-237500D01*
G01*
G37*
G36*
G01*
X49787000Y35162500D02*
X49787000Y34687500D01*
G75*
G02*
X49549500Y34450000I-237500J0D01*
G01*
X48974500Y34450000D01*
G75*
G02*
X48737000Y34687500I0J237500D01*
G01*
X48737000Y35162500D01*
G75*
G02*
X48974500Y35400000I237500J0D01*
G01*
X49549500Y35400000D01*
G75*
G02*
X49787000Y35162500I0J-237500D01*
G01*
G37*
%TD*%
%TO.C,C1*%
G36*
G01*
X48809900Y13439600D02*
X49284900Y13439600D01*
G75*
G02*
X49522400Y13202100I0J-237500D01*
G01*
X49522400Y12602100D01*
G75*
G02*
X49284900Y12364600I-237500J0D01*
G01*
X48809900Y12364600D01*
G75*
G02*
X48572400Y12602100I0J237500D01*
G01*
X48572400Y13202100D01*
G75*
G02*
X48809900Y13439600I237500J0D01*
G01*
G37*
G36*
G01*
X48809900Y11714600D02*
X49284900Y11714600D01*
G75*
G02*
X49522400Y11477100I0J-237500D01*
G01*
X49522400Y10877100D01*
G75*
G02*
X49284900Y10639600I-237500J0D01*
G01*
X48809900Y10639600D01*
G75*
G02*
X48572400Y10877100I0J237500D01*
G01*
X48572400Y11477100D01*
G75*
G02*
X48809900Y11714600I237500J0D01*
G01*
G37*
%TD*%
%TO.C,C3*%
G36*
G01*
X50054500Y22101000D02*
X50529500Y22101000D01*
G75*
G02*
X50767000Y21863500I0J-237500D01*
G01*
X50767000Y21263500D01*
G75*
G02*
X50529500Y21026000I-237500J0D01*
G01*
X50054500Y21026000D01*
G75*
G02*
X49817000Y21263500I0J237500D01*
G01*
X49817000Y21863500D01*
G75*
G02*
X50054500Y22101000I237500J0D01*
G01*
G37*
G36*
G01*
X50054500Y20376000D02*
X50529500Y20376000D01*
G75*
G02*
X50767000Y20138500I0J-237500D01*
G01*
X50767000Y19538500D01*
G75*
G02*
X50529500Y19301000I-237500J0D01*
G01*
X50054500Y19301000D01*
G75*
G02*
X49817000Y19538500I0J237500D01*
G01*
X49817000Y20138500D01*
G75*
G02*
X50054500Y20376000I237500J0D01*
G01*
G37*
%TD*%
%TO.C,C4*%
G36*
G01*
X20444000Y7636500D02*
X20444000Y8111500D01*
G75*
G02*
X20681500Y8349000I237500J0D01*
G01*
X21281500Y8349000D01*
G75*
G02*
X21519000Y8111500I0J-237500D01*
G01*
X21519000Y7636500D01*
G75*
G02*
X21281500Y7399000I-237500J0D01*
G01*
X20681500Y7399000D01*
G75*
G02*
X20444000Y7636500I0J237500D01*
G01*
G37*
G36*
G01*
X22169000Y7636500D02*
X22169000Y8111500D01*
G75*
G02*
X22406500Y8349000I237500J0D01*
G01*
X23006500Y8349000D01*
G75*
G02*
X23244000Y8111500I0J-237500D01*
G01*
X23244000Y7636500D01*
G75*
G02*
X23006500Y7399000I-237500J0D01*
G01*
X22406500Y7399000D01*
G75*
G02*
X22169000Y7636500I0J237500D01*
G01*
G37*
%TD*%
%TO.C,C7*%
G36*
G01*
X50549000Y45576500D02*
X50549000Y45101500D01*
G75*
G02*
X50311500Y44864000I-237500J0D01*
G01*
X49711500Y44864000D01*
G75*
G02*
X49474000Y45101500I0J237500D01*
G01*
X49474000Y45576500D01*
G75*
G02*
X49711500Y45814000I237500J0D01*
G01*
X50311500Y45814000D01*
G75*
G02*
X50549000Y45576500I0J-237500D01*
G01*
G37*
G36*
G01*
X48824000Y45576500D02*
X48824000Y45101500D01*
G75*
G02*
X48586500Y44864000I-237500J0D01*
G01*
X47986500Y44864000D01*
G75*
G02*
X47749000Y45101500I0J237500D01*
G01*
X47749000Y45576500D01*
G75*
G02*
X47986500Y45814000I237500J0D01*
G01*
X48586500Y45814000D01*
G75*
G02*
X48824000Y45576500I0J-237500D01*
G01*
G37*
%TD*%
%TO.C,D1*%
G36*
G01*
X55375000Y15223500D02*
X55375000Y14748500D01*
G75*
G02*
X55137500Y14511000I-237500J0D01*
G01*
X54562500Y14511000D01*
G75*
G02*
X54325000Y14748500I0J237500D01*
G01*
X54325000Y15223500D01*
G75*
G02*
X54562500Y15461000I237500J0D01*
G01*
X55137500Y15461000D01*
G75*
G02*
X55375000Y15223500I0J-237500D01*
G01*
G37*
G36*
G01*
X53625000Y15223500D02*
X53625000Y14748500D01*
G75*
G02*
X53387500Y14511000I-237500J0D01*
G01*
X52812500Y14511000D01*
G75*
G02*
X52575000Y14748500I0J237500D01*
G01*
X52575000Y15223500D01*
G75*
G02*
X52812500Y15461000I237500J0D01*
G01*
X53387500Y15461000D01*
G75*
G02*
X53625000Y15223500I0J-237500D01*
G01*
G37*
%TD*%
%TO.C,D2*%
G36*
G01*
X53625000Y17001500D02*
X53625000Y16526500D01*
G75*
G02*
X53387500Y16289000I-237500J0D01*
G01*
X52812500Y16289000D01*
G75*
G02*
X52575000Y16526500I0J237500D01*
G01*
X52575000Y17001500D01*
G75*
G02*
X52812500Y17239000I237500J0D01*
G01*
X53387500Y17239000D01*
G75*
G02*
X53625000Y17001500I0J-237500D01*
G01*
G37*
G36*
G01*
X55375000Y17001500D02*
X55375000Y16526500D01*
G75*
G02*
X55137500Y16289000I-237500J0D01*
G01*
X54562500Y16289000D01*
G75*
G02*
X54325000Y16526500I0J237500D01*
G01*
X54325000Y17001500D01*
G75*
G02*
X54562500Y17239000I237500J0D01*
G01*
X55137500Y17239000D01*
G75*
G02*
X55375000Y17001500I0J-237500D01*
G01*
G37*
%TD*%
%TO.C,D4*%
G36*
G01*
X49027600Y26043900D02*
X49027600Y25568900D01*
G75*
G02*
X48790100Y25331400I-237500J0D01*
G01*
X48215100Y25331400D01*
G75*
G02*
X47977600Y25568900I0J237500D01*
G01*
X47977600Y26043900D01*
G75*
G02*
X48215100Y26281400I237500J0D01*
G01*
X48790100Y26281400D01*
G75*
G02*
X49027600Y26043900I0J-237500D01*
G01*
G37*
G36*
G01*
X50777600Y26043900D02*
X50777600Y25568900D01*
G75*
G02*
X50540100Y25331400I-237500J0D01*
G01*
X49965100Y25331400D01*
G75*
G02*
X49727600Y25568900I0J237500D01*
G01*
X49727600Y26043900D01*
G75*
G02*
X49965100Y26281400I237500J0D01*
G01*
X50540100Y26281400D01*
G75*
G02*
X50777600Y26043900I0J-237500D01*
G01*
G37*
%TD*%
%TO.C,D5*%
G36*
G01*
X48762400Y8449300D02*
X48762400Y8924300D01*
G75*
G02*
X48999900Y9161800I237500J0D01*
G01*
X49574900Y9161800D01*
G75*
G02*
X49812400Y8924300I0J-237500D01*
G01*
X49812400Y8449300D01*
G75*
G02*
X49574900Y8211800I-237500J0D01*
G01*
X48999900Y8211800D01*
G75*
G02*
X48762400Y8449300I0J237500D01*
G01*
G37*
G36*
G01*
X47012400Y8449300D02*
X47012400Y8924300D01*
G75*
G02*
X47249900Y9161800I237500J0D01*
G01*
X47824900Y9161800D01*
G75*
G02*
X48062400Y8924300I0J-237500D01*
G01*
X48062400Y8449300D01*
G75*
G02*
X47824900Y8211800I-237500J0D01*
G01*
X47249900Y8211800D01*
G75*
G02*
X47012400Y8449300I0J237500D01*
G01*
G37*
%TD*%
%TO.C,D6*%
G36*
G01*
X42556000Y17542500D02*
X42556000Y18017500D01*
G75*
G02*
X42793500Y18255000I237500J0D01*
G01*
X43368500Y18255000D01*
G75*
G02*
X43606000Y18017500I0J-237500D01*
G01*
X43606000Y17542500D01*
G75*
G02*
X43368500Y17305000I-237500J0D01*
G01*
X42793500Y17305000D01*
G75*
G02*
X42556000Y17542500I0J237500D01*
G01*
G37*
G36*
G01*
X44306000Y17542500D02*
X44306000Y18017500D01*
G75*
G02*
X44543500Y18255000I237500J0D01*
G01*
X45118500Y18255000D01*
G75*
G02*
X45356000Y18017500I0J-237500D01*
G01*
X45356000Y17542500D01*
G75*
G02*
X45118500Y17305000I-237500J0D01*
G01*
X44543500Y17305000D01*
G75*
G02*
X44306000Y17542500I0J237500D01*
G01*
G37*
%TD*%
%TO.C,L3*%
G36*
G01*
X35360150Y40158424D02*
X35586424Y39932150D01*
G75*
G02*
X35586424Y39705876I-113137J-113137D01*
G01*
X35271762Y39391214D01*
G75*
G02*
X35045488Y39391214I-113137J113137D01*
G01*
X34819214Y39617488D01*
G75*
G02*
X34819214Y39843762I113137J113137D01*
G01*
X35133876Y40158424D01*
G75*
G02*
X35360150Y40158424I113137J-113137D01*
G01*
G37*
G36*
G01*
X34550512Y39348786D02*
X34776786Y39122512D01*
G75*
G02*
X34776786Y38896238I-113137J-113137D01*
G01*
X34462124Y38581576D01*
G75*
G02*
X34235850Y38581576I-113137J113137D01*
G01*
X34009576Y38807850D01*
G75*
G02*
X34009576Y39034124I113137J113137D01*
G01*
X34324238Y39348786D01*
G75*
G02*
X34550512Y39348786I113137J-113137D01*
G01*
G37*
%TD*%
%TO.C,L4*%
G36*
G01*
X32109786Y39617488D02*
X31883512Y39391214D01*
G75*
G02*
X31657238Y39391214I-113137J113137D01*
G01*
X31342576Y39705876D01*
G75*
G02*
X31342576Y39932150I113137J113137D01*
G01*
X31568850Y40158424D01*
G75*
G02*
X31795124Y40158424I113137J-113137D01*
G01*
X32109786Y39843762D01*
G75*
G02*
X32109786Y39617488I-113137J-113137D01*
G01*
G37*
G36*
G01*
X32919424Y38807850D02*
X32693150Y38581576D01*
G75*
G02*
X32466876Y38581576I-113137J113137D01*
G01*
X32152214Y38896238D01*
G75*
G02*
X32152214Y39122512I113137J113137D01*
G01*
X32378488Y39348786D01*
G75*
G02*
X32604762Y39348786I113137J-113137D01*
G01*
X32919424Y39034124D01*
G75*
G02*
X32919424Y38807850I-113137J-113137D01*
G01*
G37*
%TD*%
%TO.C,L7*%
G36*
G01*
X30673000Y41181000D02*
X30673000Y40861000D01*
G75*
G02*
X30513000Y40701000I-160000J0D01*
G01*
X30068000Y40701000D01*
G75*
G02*
X29908000Y40861000I0J160000D01*
G01*
X29908000Y41181000D01*
G75*
G02*
X30068000Y41341000I160000J0D01*
G01*
X30513000Y41341000D01*
G75*
G02*
X30673000Y41181000I0J-160000D01*
G01*
G37*
G36*
G01*
X29528000Y41181000D02*
X29528000Y40861000D01*
G75*
G02*
X29368000Y40701000I-160000J0D01*
G01*
X28923000Y40701000D01*
G75*
G02*
X28763000Y40861000I0J160000D01*
G01*
X28763000Y41181000D01*
G75*
G02*
X28923000Y41341000I160000J0D01*
G01*
X29368000Y41341000D01*
G75*
G02*
X29528000Y41181000I0J-160000D01*
G01*
G37*
%TD*%
%TO.C,L10*%
G36*
G01*
X25660512Y39094786D02*
X25886786Y38868512D01*
G75*
G02*
X25886786Y38642238I-113137J-113137D01*
G01*
X25572124Y38327576D01*
G75*
G02*
X25345850Y38327576I-113137J113137D01*
G01*
X25119576Y38553850D01*
G75*
G02*
X25119576Y38780124I113137J113137D01*
G01*
X25434238Y39094786D01*
G75*
G02*
X25660512Y39094786I113137J-113137D01*
G01*
G37*
G36*
G01*
X26470150Y39904424D02*
X26696424Y39678150D01*
G75*
G02*
X26696424Y39451876I-113137J-113137D01*
G01*
X26381762Y39137214D01*
G75*
G02*
X26155488Y39137214I-113137J113137D01*
G01*
X25929214Y39363488D01*
G75*
G02*
X25929214Y39589762I113137J113137D01*
G01*
X26243876Y39904424D01*
G75*
G02*
X26470150Y39904424I113137J-113137D01*
G01*
G37*
%TD*%
%TO.C,R1*%
G36*
G01*
X21419000Y10143500D02*
X21419000Y9668500D01*
G75*
G02*
X21181500Y9431000I-237500J0D01*
G01*
X20681500Y9431000D01*
G75*
G02*
X20444000Y9668500I0J237500D01*
G01*
X20444000Y10143500D01*
G75*
G02*
X20681500Y10381000I237500J0D01*
G01*
X21181500Y10381000D01*
G75*
G02*
X21419000Y10143500I0J-237500D01*
G01*
G37*
G36*
G01*
X23244000Y10143500D02*
X23244000Y9668500D01*
G75*
G02*
X23006500Y9431000I-237500J0D01*
G01*
X22506500Y9431000D01*
G75*
G02*
X22269000Y9668500I0J237500D01*
G01*
X22269000Y10143500D01*
G75*
G02*
X22506500Y10381000I237500J0D01*
G01*
X23006500Y10381000D01*
G75*
G02*
X23244000Y10143500I0J-237500D01*
G01*
G37*
%TD*%
%TO.C,R2*%
G36*
G01*
X51772000Y39861500D02*
X51772000Y39386500D01*
G75*
G02*
X51534500Y39149000I-237500J0D01*
G01*
X51034500Y39149000D01*
G75*
G02*
X50797000Y39386500I0J237500D01*
G01*
X50797000Y39861500D01*
G75*
G02*
X51034500Y40099000I237500J0D01*
G01*
X51534500Y40099000D01*
G75*
G02*
X51772000Y39861500I0J-237500D01*
G01*
G37*
G36*
G01*
X53597000Y39861500D02*
X53597000Y39386500D01*
G75*
G02*
X53359500Y39149000I-237500J0D01*
G01*
X52859500Y39149000D01*
G75*
G02*
X52622000Y39386500I0J237500D01*
G01*
X52622000Y39861500D01*
G75*
G02*
X52859500Y40099000I237500J0D01*
G01*
X53359500Y40099000D01*
G75*
G02*
X53597000Y39861500I0J-237500D01*
G01*
G37*
%TD*%
%TO.C,R3*%
G36*
G01*
X50549000Y43798500D02*
X50549000Y43323500D01*
G75*
G02*
X50311500Y43086000I-237500J0D01*
G01*
X49811500Y43086000D01*
G75*
G02*
X49574000Y43323500I0J237500D01*
G01*
X49574000Y43798500D01*
G75*
G02*
X49811500Y44036000I237500J0D01*
G01*
X50311500Y44036000D01*
G75*
G02*
X50549000Y43798500I0J-237500D01*
G01*
G37*
G36*
G01*
X48724000Y43798500D02*
X48724000Y43323500D01*
G75*
G02*
X48486500Y43086000I-237500J0D01*
G01*
X47986500Y43086000D01*
G75*
G02*
X47749000Y43323500I0J237500D01*
G01*
X47749000Y43798500D01*
G75*
G02*
X47986500Y44036000I237500J0D01*
G01*
X48486500Y44036000D01*
G75*
G02*
X48724000Y43798500I0J-237500D01*
G01*
G37*
%TD*%
%TO.C,R4*%
G36*
G01*
X53470000Y35162500D02*
X53470000Y34687500D01*
G75*
G02*
X53232500Y34450000I-237500J0D01*
G01*
X52732500Y34450000D01*
G75*
G02*
X52495000Y34687500I0J237500D01*
G01*
X52495000Y35162500D01*
G75*
G02*
X52732500Y35400000I237500J0D01*
G01*
X53232500Y35400000D01*
G75*
G02*
X53470000Y35162500I0J-237500D01*
G01*
G37*
G36*
G01*
X51645000Y35162500D02*
X51645000Y34687500D01*
G75*
G02*
X51407500Y34450000I-237500J0D01*
G01*
X50907500Y34450000D01*
G75*
G02*
X50670000Y34687500I0J237500D01*
G01*
X50670000Y35162500D01*
G75*
G02*
X50907500Y35400000I237500J0D01*
G01*
X51407500Y35400000D01*
G75*
G02*
X51645000Y35162500I0J-237500D01*
G01*
G37*
%TD*%
%TO.C,R5*%
G36*
G01*
X47835000Y30971500D02*
X47835000Y30496500D01*
G75*
G02*
X47597500Y30259000I-237500J0D01*
G01*
X47097500Y30259000D01*
G75*
G02*
X46860000Y30496500I0J237500D01*
G01*
X46860000Y30971500D01*
G75*
G02*
X47097500Y31209000I237500J0D01*
G01*
X47597500Y31209000D01*
G75*
G02*
X47835000Y30971500I0J-237500D01*
G01*
G37*
G36*
G01*
X49660000Y30971500D02*
X49660000Y30496500D01*
G75*
G02*
X49422500Y30259000I-237500J0D01*
G01*
X48922500Y30259000D01*
G75*
G02*
X48685000Y30496500I0J237500D01*
G01*
X48685000Y30971500D01*
G75*
G02*
X48922500Y31209000I237500J0D01*
G01*
X49422500Y31209000D01*
G75*
G02*
X49660000Y30971500I0J-237500D01*
G01*
G37*
%TD*%
%TO.C,R6*%
G36*
G01*
X56385000Y14748500D02*
X56385000Y15223500D01*
G75*
G02*
X56622500Y15461000I237500J0D01*
G01*
X57122500Y15461000D01*
G75*
G02*
X57360000Y15223500I0J-237500D01*
G01*
X57360000Y14748500D01*
G75*
G02*
X57122500Y14511000I-237500J0D01*
G01*
X56622500Y14511000D01*
G75*
G02*
X56385000Y14748500I0J237500D01*
G01*
G37*
G36*
G01*
X58210000Y14748500D02*
X58210000Y15223500D01*
G75*
G02*
X58447500Y15461000I237500J0D01*
G01*
X58947500Y15461000D01*
G75*
G02*
X59185000Y15223500I0J-237500D01*
G01*
X59185000Y14748500D01*
G75*
G02*
X58947500Y14511000I-237500J0D01*
G01*
X58447500Y14511000D01*
G75*
G02*
X58210000Y14748500I0J237500D01*
G01*
G37*
%TD*%
%TO.C,R7*%
G36*
G01*
X53470000Y33130500D02*
X53470000Y32655500D01*
G75*
G02*
X53232500Y32418000I-237500J0D01*
G01*
X52732500Y32418000D01*
G75*
G02*
X52495000Y32655500I0J237500D01*
G01*
X52495000Y33130500D01*
G75*
G02*
X52732500Y33368000I237500J0D01*
G01*
X53232500Y33368000D01*
G75*
G02*
X53470000Y33130500I0J-237500D01*
G01*
G37*
G36*
G01*
X51645000Y33130500D02*
X51645000Y32655500D01*
G75*
G02*
X51407500Y32418000I-237500J0D01*
G01*
X50907500Y32418000D01*
G75*
G02*
X50670000Y32655500I0J237500D01*
G01*
X50670000Y33130500D01*
G75*
G02*
X50907500Y33368000I237500J0D01*
G01*
X51407500Y33368000D01*
G75*
G02*
X51645000Y33130500I0J-237500D01*
G01*
G37*
%TD*%
%TO.C,R8*%
G36*
G01*
X58210000Y16526500D02*
X58210000Y17001500D01*
G75*
G02*
X58447500Y17239000I237500J0D01*
G01*
X58947500Y17239000D01*
G75*
G02*
X59185000Y17001500I0J-237500D01*
G01*
X59185000Y16526500D01*
G75*
G02*
X58947500Y16289000I-237500J0D01*
G01*
X58447500Y16289000D01*
G75*
G02*
X58210000Y16526500I0J237500D01*
G01*
G37*
G36*
G01*
X56385000Y16526500D02*
X56385000Y17001500D01*
G75*
G02*
X56622500Y17239000I237500J0D01*
G01*
X57122500Y17239000D01*
G75*
G02*
X57360000Y17001500I0J-237500D01*
G01*
X57360000Y16526500D01*
G75*
G02*
X57122500Y16289000I-237500J0D01*
G01*
X56622500Y16289000D01*
G75*
G02*
X56385000Y16526500I0J237500D01*
G01*
G37*
%TD*%
%TO.C,R9*%
G36*
G01*
X49259500Y36192000D02*
X48784500Y36192000D01*
G75*
G02*
X48547000Y36429500I0J237500D01*
G01*
X48547000Y36929500D01*
G75*
G02*
X48784500Y37167000I237500J0D01*
G01*
X49259500Y37167000D01*
G75*
G02*
X49497000Y36929500I0J-237500D01*
G01*
X49497000Y36429500D01*
G75*
G02*
X49259500Y36192000I-237500J0D01*
G01*
G37*
G36*
G01*
X49259500Y38017000D02*
X48784500Y38017000D01*
G75*
G02*
X48547000Y38254500I0J237500D01*
G01*
X48547000Y38754500D01*
G75*
G02*
X48784500Y38992000I237500J0D01*
G01*
X49259500Y38992000D01*
G75*
G02*
X49497000Y38754500I0J-237500D01*
G01*
X49497000Y38254500D01*
G75*
G02*
X49259500Y38017000I-237500J0D01*
G01*
G37*
%TD*%
%TO.C,R10*%
G36*
G01*
X49828000Y23765500D02*
X49828000Y24240500D01*
G75*
G02*
X50065500Y24478000I237500J0D01*
G01*
X50565500Y24478000D01*
G75*
G02*
X50803000Y24240500I0J-237500D01*
G01*
X50803000Y23765500D01*
G75*
G02*
X50565500Y23528000I-237500J0D01*
G01*
X50065500Y23528000D01*
G75*
G02*
X49828000Y23765500I0J237500D01*
G01*
G37*
G36*
G01*
X48003000Y23765500D02*
X48003000Y24240500D01*
G75*
G02*
X48240500Y24478000I237500J0D01*
G01*
X48740500Y24478000D01*
G75*
G02*
X48978000Y24240500I0J-237500D01*
G01*
X48978000Y23765500D01*
G75*
G02*
X48740500Y23528000I-237500J0D01*
G01*
X48240500Y23528000D01*
G75*
G02*
X48003000Y23765500I0J237500D01*
G01*
G37*
%TD*%
%TO.C,R11*%
G36*
G01*
X45545200Y8924300D02*
X45545200Y8449300D01*
G75*
G02*
X45307700Y8211800I-237500J0D01*
G01*
X44807700Y8211800D01*
G75*
G02*
X44570200Y8449300I0J237500D01*
G01*
X44570200Y8924300D01*
G75*
G02*
X44807700Y9161800I237500J0D01*
G01*
X45307700Y9161800D01*
G75*
G02*
X45545200Y8924300I0J-237500D01*
G01*
G37*
G36*
G01*
X43720200Y8924300D02*
X43720200Y8449300D01*
G75*
G02*
X43482700Y8211800I-237500J0D01*
G01*
X42982700Y8211800D01*
G75*
G02*
X42745200Y8449300I0J237500D01*
G01*
X42745200Y8924300D01*
G75*
G02*
X42982700Y9161800I237500J0D01*
G01*
X43482700Y9161800D01*
G75*
G02*
X43720200Y8924300I0J-237500D01*
G01*
G37*
%TD*%
%TO.C,R12*%
G36*
G01*
X44367000Y15637500D02*
X44367000Y16112500D01*
G75*
G02*
X44604500Y16350000I237500J0D01*
G01*
X45104500Y16350000D01*
G75*
G02*
X45342000Y16112500I0J-237500D01*
G01*
X45342000Y15637500D01*
G75*
G02*
X45104500Y15400000I-237500J0D01*
G01*
X44604500Y15400000D01*
G75*
G02*
X44367000Y15637500I0J237500D01*
G01*
G37*
G36*
G01*
X42542000Y15637500D02*
X42542000Y16112500D01*
G75*
G02*
X42779500Y16350000I237500J0D01*
G01*
X43279500Y16350000D01*
G75*
G02*
X43517000Y16112500I0J-237500D01*
G01*
X43517000Y15637500D01*
G75*
G02*
X43279500Y15400000I-237500J0D01*
G01*
X42779500Y15400000D01*
G75*
G02*
X42542000Y15637500I0J237500D01*
G01*
G37*
%TD*%
%TO.C,R17*%
G36*
G01*
X36559500Y22984000D02*
X36084500Y22984000D01*
G75*
G02*
X35847000Y23221500I0J237500D01*
G01*
X35847000Y23721500D01*
G75*
G02*
X36084500Y23959000I237500J0D01*
G01*
X36559500Y23959000D01*
G75*
G02*
X36797000Y23721500I0J-237500D01*
G01*
X36797000Y23221500D01*
G75*
G02*
X36559500Y22984000I-237500J0D01*
G01*
G37*
G36*
G01*
X36559500Y24809000D02*
X36084500Y24809000D01*
G75*
G02*
X35847000Y25046500I0J237500D01*
G01*
X35847000Y25546500D01*
G75*
G02*
X36084500Y25784000I237500J0D01*
G01*
X36559500Y25784000D01*
G75*
G02*
X36797000Y25546500I0J-237500D01*
G01*
X36797000Y25046500D01*
G75*
G02*
X36559500Y24809000I-237500J0D01*
G01*
G37*
%TD*%
%TO.C,R19*%
G36*
G01*
X36084500Y19514000D02*
X36559500Y19514000D01*
G75*
G02*
X36797000Y19276500I0J-237500D01*
G01*
X36797000Y18776500D01*
G75*
G02*
X36559500Y18539000I-237500J0D01*
G01*
X36084500Y18539000D01*
G75*
G02*
X35847000Y18776500I0J237500D01*
G01*
X35847000Y19276500D01*
G75*
G02*
X36084500Y19514000I237500J0D01*
G01*
G37*
G36*
G01*
X36084500Y21339000D02*
X36559500Y21339000D01*
G75*
G02*
X36797000Y21101500I0J-237500D01*
G01*
X36797000Y20601500D01*
G75*
G02*
X36559500Y20364000I-237500J0D01*
G01*
X36084500Y20364000D01*
G75*
G02*
X35847000Y20601500I0J237500D01*
G01*
X35847000Y21101500D01*
G75*
G02*
X36084500Y21339000I237500J0D01*
G01*
G37*
%TD*%
D14*
%TO.C,Y1*%
X32996000Y24765000D03*
X30496000Y24765000D03*
%TD*%
M02*
