%TF.GenerationSoftware,KiCad,Pcbnew,(5.1.9)-1*%
%TF.CreationDate,2021-09-29T12:39:09-05:00*%
%TF.ProjectId,zigbeeCape,7a696762-6565-4436-9170-652e6b696361,rev?*%
%TF.SameCoordinates,Original*%
%TF.FileFunction,Copper,L2,Inr*%
%TF.FilePolarity,Positive*%
%FSLAX46Y46*%
G04 Gerber Fmt 4.6, Leading zero omitted, Abs format (unit mm)*
G04 Created by KiCad (PCBNEW (5.1.9)-1) date 2021-09-29 12:39:09*
%MOMM*%
%LPD*%
G01*
G04 APERTURE LIST*
%TA.AperFunction,ComponentPad*%
%ADD10C,0.515000*%
%TD*%
%TA.AperFunction,ComponentPad*%
%ADD11C,0.600000*%
%TD*%
%TA.AperFunction,ComponentPad*%
%ADD12C,2.050000*%
%TD*%
%TA.AperFunction,ComponentPad*%
%ADD13C,2.250000*%
%TD*%
%TA.AperFunction,ComponentPad*%
%ADD14R,1.700000X1.700000*%
%TD*%
%TA.AperFunction,ComponentPad*%
%ADD15O,1.700000X1.700000*%
%TD*%
%TA.AperFunction,ViaPad*%
%ADD16C,0.558800*%
%TD*%
%TA.AperFunction,Conductor*%
%ADD17C,0.254000*%
%TD*%
%TA.AperFunction,Conductor*%
%ADD18C,0.100000*%
%TD*%
G04 APERTURE END LIST*
D10*
%TO.N,GND*%
%TO.C,U1*%
X43670000Y32400000D03*
X43670000Y33430000D03*
X43670000Y34460000D03*
X43670000Y35490000D03*
X43670000Y36520000D03*
X42640000Y32400000D03*
X42640000Y33430000D03*
X42640000Y34460000D03*
X42640000Y35490000D03*
X42640000Y36520000D03*
X41610000Y32400000D03*
X41610000Y33430000D03*
X41610000Y34460000D03*
X41610000Y35490000D03*
X41610000Y36520000D03*
X40580000Y32400000D03*
X40580000Y33430000D03*
X40580000Y34460000D03*
X40580000Y35490000D03*
X40580000Y36520000D03*
X39550000Y32400000D03*
X39550000Y33430000D03*
X39550000Y34460000D03*
X39550000Y35490000D03*
X39550000Y36520000D03*
%TD*%
D11*
%TO.N,GND*%
%TO.C,REF\u002A\u002A*%
X46863000Y22479000D03*
%TD*%
%TO.N,GND*%
%TO.C,REF\u002A\u002A*%
X44196000Y25146000D03*
%TD*%
%TO.N,GND*%
%TO.C,REF\u002A\u002A*%
X47117000Y27559000D03*
%TD*%
%TO.N,GND*%
%TO.C,REF\u002A\u002A*%
X47244000Y33528000D03*
%TD*%
%TO.N,GND*%
%TO.C,REF\u002A\u002A*%
X40132000Y45720000D03*
%TD*%
%TO.N,GND*%
%TO.C,REF\u002A\u002A*%
X37592000Y45974000D03*
%TD*%
%TO.N,GND*%
%TO.C,REF\u002A\u002A*%
X40132000Y48006000D03*
%TD*%
%TO.N,GND*%
%TO.C,REF\u002A\u002A*%
X37592000Y48006000D03*
%TD*%
%TO.N,GND*%
%TO.C,REF\u002A\u002A*%
X46609000Y41656000D03*
%TD*%
%TO.N,GND*%
%TO.C,REF\u002A\u002A*%
X44958000Y43180000D03*
%TD*%
%TO.N,GND*%
%TO.C,REF\u002A\u002A*%
X42291000Y43815000D03*
%TD*%
%TO.N,GND*%
%TO.C,REF\u002A\u002A*%
X44831000Y45466000D03*
%TD*%
%TO.N,GND*%
%TO.C,REF\u002A\u002A*%
X42291000Y45466000D03*
%TD*%
%TO.N,GND*%
%TO.C,REF\u002A\u002A*%
X44831000Y48006000D03*
%TD*%
%TO.N,GND*%
%TO.C,REF\u002A\u002A*%
X34290000Y43561000D03*
%TD*%
%TO.N,GND*%
%TO.C,REF\u002A\u002A*%
X31750000Y43561000D03*
%TD*%
%TO.N,GND*%
%TO.C,REF\u002A\u002A*%
X29591000Y42926000D03*
%TD*%
%TO.N,GND*%
%TO.C,REF\u002A\u002A*%
X34671000Y45466000D03*
%TD*%
%TO.N,GND*%
%TO.C,REF\u002A\u002A*%
X32131000Y45466000D03*
%TD*%
%TO.N,GND*%
%TO.C,REF\u002A\u002A*%
X29591000Y45466000D03*
%TD*%
%TO.N,GND*%
%TO.C,REF\u002A\u002A*%
X34671000Y48006000D03*
%TD*%
%TO.N,GND*%
%TO.C,REF\u002A\u002A*%
X32131000Y48006000D03*
%TD*%
D12*
%TO.N,Net-(C31-Pad2)*%
%TO.C,U3*%
X16891000Y22606000D03*
D13*
%TO.N,GND*%
X19431000Y20066000D03*
X19431000Y25146000D03*
X14351000Y25146000D03*
X14351000Y20066000D03*
%TD*%
D11*
%TO.N,GND*%
%TO.C,REF\u002A\u002A*%
X25273000Y35433000D03*
%TD*%
%TO.N,GND*%
%TO.C,REF\u002A\u002A*%
X28194000Y35560000D03*
%TD*%
%TO.N,GND*%
%TO.C,REF\u002A\u002A*%
X26670000Y34290000D03*
%TD*%
%TO.N,GND*%
%TO.C,REF\u002A\u002A*%
X27559000Y36957000D03*
%TD*%
%TO.N,GND*%
%TO.C,REF\u002A\u002A*%
X30480000Y36576000D03*
%TD*%
%TO.N,GND*%
%TO.C,REF\u002A\u002A*%
X29210000Y38100000D03*
%TD*%
%TO.N,GND*%
%TO.C,REF\u002A\u002A*%
X27305000Y38608000D03*
%TD*%
%TO.N,GND*%
%TO.C,REF\u002A\u002A*%
X28448000Y39751000D03*
%TD*%
%TO.N,GND*%
%TO.C,REF\u002A\u002A*%
X30099000Y39751000D03*
%TD*%
%TO.N,GND*%
%TO.C,REF\u002A\u002A*%
X31115000Y38481000D03*
%TD*%
%TO.N,GND*%
%TO.C,REF\u002A\u002A*%
X32766000Y35687000D03*
%TD*%
%TO.N,GND*%
%TO.C,REF\u002A\u002A*%
X29718000Y34671000D03*
%TD*%
%TO.N,GND*%
%TO.C,REF\u002A\u002A*%
X27940000Y33274000D03*
%TD*%
%TO.N,GND*%
%TO.C,REF\u002A\u002A*%
X26035000Y31877000D03*
%TD*%
%TO.N,GND*%
%TO.C,REF\u002A\u002A*%
X25781000Y29972000D03*
%TD*%
%TO.N,GND*%
%TO.C,REF\u002A\u002A*%
X24384000Y31242000D03*
%TD*%
%TO.N,GND*%
%TO.C,REF\u002A\u002A*%
X30226000Y27940000D03*
%TD*%
%TO.N,GND*%
%TO.C,REF\u002A\u002A*%
X32639000Y28194000D03*
%TD*%
%TO.N,GND*%
%TO.C,REF\u002A\u002A*%
X31242000Y26797000D03*
%TD*%
%TO.N,GND*%
%TO.C,REF\u002A\u002A*%
X28702000Y26416000D03*
%TD*%
%TO.N,GND*%
%TO.C,REF\u002A\u002A*%
X28829000Y23876000D03*
%TD*%
%TO.N,GND*%
%TO.C,REF\u002A\u002A*%
X25654000Y10287000D03*
%TD*%
%TO.N,GND*%
%TO.C,REF\u002A\u002A*%
X15875000Y9144000D03*
%TD*%
%TO.N,GND*%
%TO.C,REF\u002A\u002A*%
X12954000Y9144000D03*
%TD*%
%TO.N,GND*%
%TO.C,REF\u002A\u002A*%
X31750000Y16383000D03*
%TD*%
%TO.N,GND*%
%TO.C,REF\u002A\u002A*%
X31750000Y18796000D03*
%TD*%
%TO.N,GND*%
%TO.C,REF\u002A\u002A*%
X29591000Y19939000D03*
%TD*%
%TO.N,GND*%
%TO.C,REF\u002A\u002A*%
X29464000Y17526000D03*
%TD*%
%TO.N,GND*%
%TO.C,REF\u002A\u002A*%
X29464000Y14986000D03*
%TD*%
%TO.N,GND*%
%TO.C,REF\u002A\u002A*%
X27051000Y12446000D03*
%TD*%
%TO.N,GND*%
%TO.C,REF\u002A\u002A*%
X24511000Y12446000D03*
%TD*%
%TO.N,GND*%
%TO.C,REF\u002A\u002A*%
X21971000Y12446000D03*
%TD*%
%TO.N,GND*%
%TO.C,REF\u002A\u002A*%
X18440400Y10718800D03*
%TD*%
%TO.N,GND*%
%TO.C,REF\u002A\u002A*%
X16281400Y12776200D03*
%TD*%
%TO.N,GND*%
%TO.C,REF\u002A\u002A*%
X12903200Y12801600D03*
%TD*%
%TO.N,GND*%
%TO.C,REF\u002A\u002A*%
X9271000Y10668000D03*
%TD*%
%TO.N,GND*%
%TO.C,REF\u002A\u002A*%
X27051000Y14986000D03*
%TD*%
%TO.N,GND*%
%TO.C,REF\u002A\u002A*%
X24511000Y14986000D03*
%TD*%
%TO.N,GND*%
%TO.C,REF\u002A\u002A*%
X21971000Y14986000D03*
%TD*%
%TO.N,GND*%
%TO.C,REF\u002A\u002A*%
X19431000Y14986000D03*
%TD*%
%TO.N,GND*%
%TO.C,REF\u002A\u002A*%
X16891000Y14986000D03*
%TD*%
%TO.N,GND*%
%TO.C,REF\u002A\u002A*%
X14351000Y14986000D03*
%TD*%
%TO.N,GND*%
%TO.C,REF\u002A\u002A*%
X11811000Y14986000D03*
%TD*%
%TO.N,GND*%
%TO.C,REF\u002A\u002A*%
X9271000Y14986000D03*
%TD*%
%TO.N,GND*%
%TO.C,REF\u002A\u002A*%
X27051000Y17526000D03*
%TD*%
%TO.N,GND*%
%TO.C,REF\u002A\u002A*%
X24511000Y17526000D03*
%TD*%
%TO.N,GND*%
%TO.C,REF\u002A\u002A*%
X21971000Y17526000D03*
%TD*%
%TO.N,GND*%
%TO.C,REF\u002A\u002A*%
X19431000Y17526000D03*
%TD*%
%TO.N,GND*%
%TO.C,REF\u002A\u002A*%
X16891000Y17526000D03*
%TD*%
%TO.N,GND*%
%TO.C,REF\u002A\u002A*%
X14351000Y17526000D03*
%TD*%
%TO.N,GND*%
%TO.C,REF\u002A\u002A*%
X11811000Y17526000D03*
%TD*%
%TO.N,GND*%
%TO.C,REF\u002A\u002A*%
X9271000Y17526000D03*
%TD*%
%TO.N,GND*%
%TO.C,REF\u002A\u002A*%
X27051000Y20066000D03*
%TD*%
%TO.N,GND*%
%TO.C,REF\u002A\u002A*%
X24511000Y20066000D03*
%TD*%
%TO.N,GND*%
%TO.C,REF\u002A\u002A*%
X21971000Y20066000D03*
%TD*%
%TO.N,GND*%
%TO.C,REF\u002A\u002A*%
X16891000Y20066000D03*
%TD*%
%TO.N,GND*%
%TO.C,REF\u002A\u002A*%
X11811000Y20066000D03*
%TD*%
%TO.N,GND*%
%TO.C,REF\u002A\u002A*%
X9271000Y20066000D03*
%TD*%
%TO.N,GND*%
%TO.C,REF\u002A\u002A*%
X27051000Y22606000D03*
%TD*%
%TO.N,GND*%
%TO.C,REF\u002A\u002A*%
X24511000Y22606000D03*
%TD*%
%TO.N,GND*%
%TO.C,REF\u002A\u002A*%
X21971000Y22606000D03*
%TD*%
%TO.N,GND*%
%TO.C,REF\u002A\u002A*%
X19431000Y22606000D03*
%TD*%
%TO.N,GND*%
%TO.C,REF\u002A\u002A*%
X14351000Y22606000D03*
%TD*%
%TO.N,GND*%
%TO.C,REF\u002A\u002A*%
X11811000Y22606000D03*
%TD*%
%TO.N,GND*%
%TO.C,REF\u002A\u002A*%
X9271000Y22606000D03*
%TD*%
%TO.N,GND*%
%TO.C,REF\u002A\u002A*%
X27051000Y25146000D03*
%TD*%
%TO.N,GND*%
%TO.C,REF\u002A\u002A*%
X24511000Y25146000D03*
%TD*%
%TO.N,GND*%
%TO.C,REF\u002A\u002A*%
X21971000Y25146000D03*
%TD*%
%TO.N,GND*%
%TO.C,REF\u002A\u002A*%
X11811000Y25146000D03*
%TD*%
%TO.N,GND*%
%TO.C,REF\u002A\u002A*%
X9271000Y25146000D03*
%TD*%
%TO.N,GND*%
%TO.C,REF\u002A\u002A*%
X27051000Y27686000D03*
%TD*%
%TO.N,GND*%
%TO.C,REF\u002A\u002A*%
X21971000Y27686000D03*
%TD*%
%TO.N,GND*%
%TO.C,REF\u002A\u002A*%
X19431000Y27686000D03*
%TD*%
%TO.N,GND*%
%TO.C,REF\u002A\u002A*%
X16891000Y27686000D03*
%TD*%
%TO.N,GND*%
%TO.C,REF\u002A\u002A*%
X14351000Y27686000D03*
%TD*%
%TO.N,GND*%
%TO.C,REF\u002A\u002A*%
X11811000Y27686000D03*
%TD*%
%TO.N,GND*%
%TO.C,REF\u002A\u002A*%
X9271000Y27686000D03*
%TD*%
%TO.N,GND*%
%TO.C,REF\u002A\u002A*%
X21971000Y30226000D03*
%TD*%
%TO.N,GND*%
%TO.C,REF\u002A\u002A*%
X16891000Y30226000D03*
%TD*%
%TO.N,GND*%
%TO.C,REF\u002A\u002A*%
X14351000Y30226000D03*
%TD*%
%TO.N,GND*%
%TO.C,REF\u002A\u002A*%
X11811000Y30226000D03*
%TD*%
%TO.N,GND*%
%TO.C,REF\u002A\u002A*%
X9271000Y30226000D03*
%TD*%
%TO.N,GND*%
%TO.C,REF\u002A\u002A*%
X19431000Y32766000D03*
%TD*%
%TO.N,GND*%
%TO.C,REF\u002A\u002A*%
X16891000Y32766000D03*
%TD*%
%TO.N,GND*%
%TO.C,REF\u002A\u002A*%
X14351000Y32766000D03*
%TD*%
%TO.N,GND*%
%TO.C,REF\u002A\u002A*%
X11811000Y32766000D03*
%TD*%
%TO.N,GND*%
%TO.C,REF\u002A\u002A*%
X9271000Y32766000D03*
%TD*%
%TO.N,GND*%
%TO.C,REF\u002A\u002A*%
X21590000Y35306000D03*
%TD*%
%TO.N,GND*%
%TO.C,REF\u002A\u002A*%
X19431000Y35306000D03*
%TD*%
%TO.N,GND*%
%TO.C,REF\u002A\u002A*%
X16891000Y35306000D03*
%TD*%
%TO.N,GND*%
%TO.C,REF\u002A\u002A*%
X14351000Y35306000D03*
%TD*%
%TO.N,GND*%
%TO.C,REF\u002A\u002A*%
X11811000Y35306000D03*
%TD*%
%TO.N,GND*%
%TO.C,REF\u002A\u002A*%
X9271000Y35306000D03*
%TD*%
%TO.N,GND*%
%TO.C,REF\u002A\u002A*%
X21971000Y37846000D03*
%TD*%
%TO.N,GND*%
%TO.C,REF\u002A\u002A*%
X19431000Y37846000D03*
%TD*%
%TO.N,GND*%
%TO.C,REF\u002A\u002A*%
X16891000Y37846000D03*
%TD*%
%TO.N,GND*%
%TO.C,REF\u002A\u002A*%
X14351000Y37846000D03*
%TD*%
%TO.N,GND*%
%TO.C,REF\u002A\u002A*%
X11811000Y37846000D03*
%TD*%
%TO.N,GND*%
%TO.C,REF\u002A\u002A*%
X9271000Y37846000D03*
%TD*%
%TO.N,GND*%
%TO.C,REF\u002A\u002A*%
X24511000Y40386000D03*
%TD*%
%TO.N,GND*%
%TO.C,REF\u002A\u002A*%
X21971000Y40386000D03*
%TD*%
%TO.N,GND*%
%TO.C,REF\u002A\u002A*%
X19431000Y40386000D03*
%TD*%
%TO.N,GND*%
%TO.C,REF\u002A\u002A*%
X16891000Y40386000D03*
%TD*%
%TO.N,GND*%
%TO.C,REF\u002A\u002A*%
X14351000Y40386000D03*
%TD*%
%TO.N,GND*%
%TO.C,REF\u002A\u002A*%
X11811000Y40386000D03*
%TD*%
%TO.N,GND*%
%TO.C,REF\u002A\u002A*%
X9271000Y40386000D03*
%TD*%
%TO.N,GND*%
%TO.C,REF\u002A\u002A*%
X27051000Y42926000D03*
%TD*%
%TO.N,GND*%
%TO.C,REF\u002A\u002A*%
X24511000Y42926000D03*
%TD*%
%TO.N,GND*%
%TO.C,REF\u002A\u002A*%
X21971000Y42926000D03*
%TD*%
%TO.N,GND*%
%TO.C,REF\u002A\u002A*%
X19431000Y42926000D03*
%TD*%
%TO.N,GND*%
%TO.C,REF\u002A\u002A*%
X16891000Y42926000D03*
%TD*%
%TO.N,GND*%
%TO.C,REF\u002A\u002A*%
X14351000Y42926000D03*
%TD*%
%TO.N,GND*%
%TO.C,REF\u002A\u002A*%
X11811000Y42926000D03*
%TD*%
%TO.N,GND*%
%TO.C,REF\u002A\u002A*%
X9271000Y42926000D03*
%TD*%
%TO.N,GND*%
%TO.C,REF\u002A\u002A*%
X27051000Y45466000D03*
%TD*%
%TO.N,GND*%
%TO.C,REF\u002A\u002A*%
X24511000Y45466000D03*
%TD*%
%TO.N,GND*%
%TO.C,REF\u002A\u002A*%
X21971000Y45466000D03*
%TD*%
%TO.N,GND*%
%TO.C,REF\u002A\u002A*%
X19431000Y45466000D03*
%TD*%
%TO.N,GND*%
%TO.C,REF\u002A\u002A*%
X16891000Y45466000D03*
%TD*%
%TO.N,GND*%
%TO.C,REF\u002A\u002A*%
X14351000Y45466000D03*
%TD*%
%TO.N,GND*%
%TO.C,REF\u002A\u002A*%
X11811000Y45466000D03*
%TD*%
%TO.N,GND*%
%TO.C,REF\u002A\u002A*%
X9271000Y45466000D03*
%TD*%
%TO.N,GND*%
%TO.C,REF\u002A\u002A*%
X27051000Y48006000D03*
%TD*%
%TO.N,GND*%
%TO.C,REF\u002A\u002A*%
X24511000Y48006000D03*
%TD*%
%TO.N,GND*%
%TO.C,REF\u002A\u002A*%
X21971000Y48006000D03*
%TD*%
%TO.N,GND*%
%TO.C,REF\u002A\u002A*%
X19431000Y48006000D03*
%TD*%
%TO.N,GND*%
%TO.C,REF\u002A\u002A*%
X16891000Y48006000D03*
%TD*%
%TO.N,GND*%
%TO.C,REF\u002A\u002A*%
X14351000Y48006000D03*
%TD*%
%TO.N,GND*%
%TO.C,REF\u002A\u002A*%
X11811000Y48006000D03*
%TD*%
%TO.N,GND*%
%TO.C,REF\u002A\u002A*%
X56388000Y42672000D03*
%TD*%
%TO.N,GND*%
%TO.C,REF\u002A\u002A*%
X58293000Y41402000D03*
%TD*%
%TO.N,GND*%
%TO.C,REF\u002A\u002A*%
X52247800Y44348400D03*
%TD*%
%TO.N,GND*%
%TO.C,REF\u002A\u002A*%
X54737000Y44958000D03*
%TD*%
%TO.N,GND*%
%TO.C,REF\u002A\u002A*%
X57912000Y44831000D03*
%TD*%
%TO.N,GND*%
%TO.C,REF\u002A\u002A*%
X59817000Y33401000D03*
%TD*%
%TO.N,GND*%
%TO.C,REF\u002A\u002A*%
X57658000Y31623000D03*
%TD*%
%TO.N,GND*%
%TO.C,REF\u002A\u002A*%
X57658000Y29718000D03*
%TD*%
%TO.N,GND*%
%TO.C,REF\u002A\u002A*%
X54483000Y29591000D03*
%TD*%
%TO.N,GND*%
%TO.C,REF\u002A\u002A*%
X57404000Y27305000D03*
%TD*%
%TO.N,GND*%
%TO.C,REF\u002A\u002A*%
X54356000Y27432000D03*
%TD*%
%TO.N,GND*%
%TO.C,REF\u002A\u002A*%
X57404000Y20447000D03*
%TD*%
%TO.N,GND*%
%TO.C,REF\u002A\u002A*%
X54229000Y20447000D03*
%TD*%
%TO.N,GND*%
%TO.C,REF\u002A\u002A*%
X44754800Y10464800D03*
%TD*%
%TO.N,GND*%
%TO.C,REF\u002A\u002A*%
X47244000Y11176000D03*
%TD*%
%TO.N,GND*%
%TO.C,REF\u002A\u002A*%
X46482000Y14478000D03*
%TD*%
%TO.N,GND*%
%TO.C,REF\u002A\u002A*%
X49149000Y14732000D03*
%TD*%
%TO.N,GND*%
%TO.C,REF\u002A\u002A*%
X42672000Y13335000D03*
%TD*%
%TO.N,GND*%
%TO.C,REF\u002A\u002A*%
X42545000Y19939000D03*
%TD*%
%TO.N,GND*%
%TO.C,REF\u002A\u002A*%
X41529000Y22479000D03*
%TD*%
%TO.N,GND*%
%TO.C,REF\u002A\u002A*%
X41275000Y9652000D03*
%TD*%
%TO.N,GND*%
%TO.C,REF\u002A\u002A*%
X38100000Y6350000D03*
%TD*%
%TO.N,GND*%
%TO.C,REF\u002A\u002A*%
X57531000Y12065000D03*
%TD*%
%TO.N,GND*%
%TO.C,REF\u002A\u002A*%
X54229000Y12065000D03*
%TD*%
%TO.N,GND*%
%TO.C,REF\u002A\u002A*%
X62103000Y51054000D03*
%TD*%
%TO.N,GND*%
%TO.C,REF\u002A\u002A*%
X62103000Y53340000D03*
%TD*%
%TO.N,GND*%
%TO.C,REF\u002A\u002A*%
X9271000Y32766000D03*
%TD*%
%TO.N,GND*%
%TO.C,REF\u002A\u002A*%
X60071000Y48006000D03*
%TD*%
%TO.N,GND*%
%TO.C,REF\u002A\u002A*%
X59563000Y6477000D03*
%TD*%
%TO.N,GND*%
%TO.C,REF\u002A\u002A*%
X57023000Y6477000D03*
%TD*%
%TO.N,GND*%
%TO.C,REF\u002A\u002A*%
X54483000Y6477000D03*
%TD*%
%TO.N,GND*%
%TO.C,REF\u002A\u002A*%
X51816000Y6477000D03*
%TD*%
%TO.N,GND*%
%TO.C,REF\u002A\u002A*%
X49530000Y6477000D03*
%TD*%
%TO.N,GND*%
%TO.C,REF\u002A\u002A*%
X46990000Y6477000D03*
%TD*%
%TO.N,GND*%
%TO.C,REF\u002A\u002A*%
X44450000Y6477000D03*
%TD*%
%TO.N,GND*%
%TO.C,REF\u002A\u002A*%
X41910000Y6477000D03*
%TD*%
%TO.N,GND*%
%TO.C,REF\u002A\u002A*%
X22733000Y6477000D03*
%TD*%
%TO.N,GND*%
%TO.C,REF\u002A\u002A*%
X20193000Y6477000D03*
%TD*%
%TO.N,GND*%
%TO.C,REF\u002A\u002A*%
X17653000Y6477000D03*
%TD*%
%TO.N,GND*%
%TO.C,REF\u002A\u002A*%
X15113000Y6477000D03*
%TD*%
%TO.N,GND*%
%TO.C,REF\u002A\u002A*%
X12700000Y6477000D03*
%TD*%
%TO.N,GND*%
%TO.C,REF\u002A\u002A*%
X9271000Y48006000D03*
%TD*%
D14*
%TO.N,GND*%
%TO.C,U5*%
X3810000Y1905000D03*
D15*
X3810000Y4445000D03*
%TO.N,+3V3*%
X6350000Y1905000D03*
X6350000Y4445000D03*
%TO.N,Net-(U5-Pad5)*%
X8890000Y1905000D03*
%TO.N,Net-(U5-Pad6)*%
X8890000Y4445000D03*
%TO.N,Net-(U5-Pad7)*%
X11430000Y1905000D03*
%TO.N,Net-(U5-Pad8)*%
X11430000Y4445000D03*
%TO.N,Net-(U5-Pad9)*%
X13970000Y1905000D03*
%TO.N,/BeagleBone_Headers/BeagleBone_Reset*%
X13970000Y4445000D03*
%TO.N,Net-(U5-Pad11)*%
X16510000Y1905000D03*
%TO.N,Net-(U5-Pad12)*%
X16510000Y4445000D03*
%TO.N,Net-(U5-Pad13)*%
X19050000Y1905000D03*
%TO.N,Net-(U5-Pad14)*%
X19050000Y4445000D03*
%TO.N,Net-(U5-Pad15)*%
X21590000Y1905000D03*
%TO.N,Net-(U5-Pad16)*%
X21590000Y4445000D03*
%TO.N,SPI_CS*%
X24130000Y1905000D03*
%TO.N,SPI_MOSI*%
X24130000Y4445000D03*
%TO.N,I2C2_SCL*%
X26670000Y1905000D03*
%TO.N,I2C2_SDA*%
X26670000Y4445000D03*
%TO.N,SPI_MISO*%
X29210000Y1905000D03*
%TO.N,SPI_CLK*%
X29210000Y4445000D03*
%TO.N,Net-(U5-Pad23)*%
X31750000Y1905000D03*
%TO.N,UART_TX*%
X31750000Y4445000D03*
%TO.N,Net-(U5-Pad25)*%
X34290000Y1905000D03*
%TO.N,UART_RX*%
X34290000Y4445000D03*
%TO.N,Net-(U5-Pad27)*%
X36830000Y1905000D03*
%TO.N,Net-(U5-Pad28)*%
X36830000Y4445000D03*
%TO.N,Net-(U5-Pad29)*%
X39370000Y1905000D03*
%TO.N,Network_Connect*%
X39370000Y4445000D03*
%TO.N,Net-(U5-Pad31)*%
X41910000Y1905000D03*
%TO.N,Net-(U5-Pad32)*%
X41910000Y4445000D03*
%TO.N,Net-(U5-Pad33)*%
X44450000Y1905000D03*
%TO.N,Net-(U5-Pad34)*%
X44450000Y4445000D03*
%TO.N,Net-(U5-Pad35)*%
X46990000Y1905000D03*
%TO.N,Net-(U5-Pad36)*%
X46990000Y4445000D03*
%TO.N,Net-(U5-Pad37)*%
X49530000Y1905000D03*
%TO.N,Net-(U5-Pad38)*%
X49530000Y4445000D03*
%TO.N,Net-(U5-Pad39)*%
X52070000Y1905000D03*
%TO.N,Net-(U5-Pad40)*%
X52070000Y4445000D03*
%TO.N,Lan_HeartBeat*%
X54610000Y1905000D03*
%TO.N,Net-(U5-Pad42)*%
X54610000Y4445000D03*
%TO.N,GND*%
X57150000Y1905000D03*
X57150000Y4445000D03*
X59690000Y1905000D03*
X59690000Y4445000D03*
%TD*%
D11*
%TO.N,GND*%
%TO.C,REF\u002A\u002A*%
X9271000Y6477000D03*
%TD*%
%TO.N,GND*%
%TO.C,REF\u002A\u002A*%
X9271000Y14986000D03*
%TD*%
%TO.N,GND*%
%TO.C,REF\u002A\u002A*%
X9271000Y17526000D03*
%TD*%
%TO.N,GND*%
%TO.C,REF\u002A\u002A*%
X9271000Y20066000D03*
%TD*%
%TO.N,GND*%
%TO.C,REF\u002A\u002A*%
X9271000Y22606000D03*
%TD*%
%TO.N,GND*%
%TO.C,REF\u002A\u002A*%
X9271000Y25146000D03*
%TD*%
%TO.N,GND*%
%TO.C,REF\u002A\u002A*%
X9271000Y27686000D03*
%TD*%
%TO.N,GND*%
%TO.C,REF\u002A\u002A*%
X9271000Y30226000D03*
%TD*%
%TO.N,GND*%
%TO.C,REF\u002A\u002A*%
X9271000Y35306000D03*
%TD*%
%TO.N,GND*%
%TO.C,REF\u002A\u002A*%
X9271000Y37846000D03*
%TD*%
%TO.N,GND*%
%TO.C,REF\u002A\u002A*%
X9271000Y40386000D03*
%TD*%
%TO.N,GND*%
%TO.C,REF\u002A\u002A*%
X9271000Y42926000D03*
%TD*%
%TO.N,GND*%
%TO.C,REF\u002A\u002A*%
X9271000Y45466000D03*
%TD*%
%TO.N,GND*%
%TO.C,REF\u002A\u002A*%
X62103000Y6096000D03*
%TD*%
%TO.N,GND*%
%TO.C,REF\u002A\u002A*%
X62103000Y12446000D03*
%TD*%
%TO.N,GND*%
%TO.C,REF\u002A\u002A*%
X62103000Y7874000D03*
%TD*%
%TO.N,GND*%
%TO.C,REF\u002A\u002A*%
X62103000Y9906000D03*
%TD*%
%TO.N,GND*%
%TO.C,REF\u002A\u002A*%
X62103000Y14986000D03*
%TD*%
%TO.N,GND*%
%TO.C,REF\u002A\u002A*%
X62103000Y17526000D03*
%TD*%
%TO.N,GND*%
%TO.C,REF\u002A\u002A*%
X62103000Y20066000D03*
%TD*%
%TO.N,GND*%
%TO.C,REF\u002A\u002A*%
X62103000Y22606000D03*
%TD*%
%TO.N,GND*%
%TO.C,REF\u002A\u002A*%
X62103000Y25146000D03*
%TD*%
%TO.N,GND*%
%TO.C,REF\u002A\u002A*%
X62103000Y27686000D03*
%TD*%
%TO.N,GND*%
%TO.C,REF\u002A\u002A*%
X62103000Y30226000D03*
%TD*%
%TO.N,GND*%
%TO.C,REF\u002A\u002A*%
X62103000Y32766000D03*
%TD*%
%TO.N,GND*%
%TO.C,REF\u002A\u002A*%
X62103000Y35306000D03*
%TD*%
%TO.N,GND*%
%TO.C,REF\u002A\u002A*%
X62103000Y37846000D03*
%TD*%
%TO.N,GND*%
%TO.C,REF\u002A\u002A*%
X62103000Y40386000D03*
%TD*%
%TO.N,GND*%
%TO.C,REF\u002A\u002A*%
X62103000Y42926000D03*
%TD*%
%TO.N,GND*%
%TO.C,REF\u002A\u002A*%
X62103000Y45466000D03*
%TD*%
%TO.N,GND*%
%TO.C,REF\u002A\u002A*%
X62103000Y48006000D03*
%TD*%
%TO.N,GND*%
%TO.C,REF\u002A\u002A*%
X54991000Y48006000D03*
%TD*%
%TO.N,GND*%
%TO.C,REF\u002A\u002A*%
X57531000Y48006000D03*
%TD*%
%TO.N,GND*%
%TO.C,REF\u002A\u002A*%
X52451000Y48006000D03*
%TD*%
%TO.N,GND*%
%TO.C,REF\u002A\u002A*%
X49911000Y48006000D03*
%TD*%
%TO.N,GND*%
%TO.C,REF\u002A\u002A*%
X47371000Y48006000D03*
%TD*%
%TO.N,GND*%
%TO.C,REF\u002A\u002A*%
X44831000Y48006000D03*
%TD*%
%TO.N,GND*%
%TO.C,REF\u002A\u002A*%
X42291000Y48006000D03*
%TD*%
%TO.N,GND*%
%TO.C,REF\u002A\u002A*%
X34671000Y48006000D03*
%TD*%
%TO.N,GND*%
%TO.C,REF\u002A\u002A*%
X32131000Y48006000D03*
%TD*%
%TO.N,GND*%
%TO.C,REF\u002A\u002A*%
X29591000Y48006000D03*
%TD*%
%TO.N,GND*%
%TO.C,REF\u002A\u002A*%
X27051000Y48006000D03*
%TD*%
%TO.N,GND*%
%TO.C,REF\u002A\u002A*%
X24511000Y48006000D03*
%TD*%
%TO.N,GND*%
%TO.C,REF\u002A\u002A*%
X21971000Y48006000D03*
%TD*%
%TO.N,GND*%
%TO.C,REF\u002A\u002A*%
X19431000Y48006000D03*
%TD*%
%TO.N,GND*%
%TO.C,REF\u002A\u002A*%
X16891000Y48006000D03*
%TD*%
%TO.N,GND*%
%TO.C,REF\u002A\u002A*%
X14351000Y48006000D03*
%TD*%
%TO.N,GND*%
%TO.C,REF\u002A\u002A*%
X11811000Y48006000D03*
%TD*%
D15*
%TO.N,Net-(U4-Pad46)*%
%TO.C,U4*%
X59690000Y52705000D03*
%TO.N,Net-(U4-Pad45)*%
X59690000Y50165000D03*
%TO.N,Net-(U4-Pad44)*%
X57150000Y52705000D03*
%TO.N,Net-(U4-Pad43)*%
X57150000Y50165000D03*
%TO.N,Net-(U4-Pad42)*%
X54610000Y52705000D03*
%TO.N,Net-(U4-Pad41)*%
X54610000Y50165000D03*
%TO.N,Net-(U4-Pad40)*%
X52070000Y52705000D03*
%TO.N,Net-(U4-Pad39)*%
X52070000Y50165000D03*
%TO.N,Net-(U4-Pad38)*%
X49530000Y52705000D03*
%TO.N,Net-(U4-Pad37)*%
X49530000Y50165000D03*
%TO.N,Net-(U4-Pad36)*%
X46990000Y52705000D03*
%TO.N,Net-(U4-Pad35)*%
X46990000Y50165000D03*
%TO.N,Net-(U4-Pad34)*%
X44450000Y52705000D03*
%TO.N,Net-(U4-Pad33)*%
X44450000Y50165000D03*
%TO.N,Net-(U4-Pad32)*%
X41910000Y52705000D03*
%TO.N,Net-(U4-Pad31)*%
X41910000Y50165000D03*
%TO.N,Net-(U4-Pad30)*%
X39370000Y52705000D03*
%TO.N,Net-(U4-Pad29)*%
X39370000Y50165000D03*
%TO.N,Net-(U4-Pad28)*%
X36830000Y52705000D03*
%TO.N,Net-(U4-Pad27)*%
X36830000Y50165000D03*
%TO.N,Net-(U4-Pad26)*%
X34290000Y52705000D03*
%TO.N,Net-(U4-Pad25)*%
X34290000Y50165000D03*
%TO.N,Net-(U4-Pad24)*%
X31750000Y52705000D03*
%TO.N,Net-(U4-Pad23)*%
X31750000Y50165000D03*
%TO.N,Net-(U4-Pad22)*%
X29210000Y52705000D03*
%TO.N,Net-(U4-Pad21)*%
X29210000Y50165000D03*
%TO.N,Net-(U4-Pad20)*%
X26670000Y52705000D03*
%TO.N,Net-(U4-Pad19)*%
X26670000Y50165000D03*
%TO.N,Net-(U4-Pad18)*%
X24130000Y52705000D03*
%TO.N,Net-(U4-Pad17)*%
X24130000Y50165000D03*
%TO.N,Net-(U4-Pad16)*%
X21590000Y52705000D03*
%TO.N,Net-(U4-Pad15)*%
X21590000Y50165000D03*
%TO.N,Net-(U4-Pad14)*%
X19050000Y52705000D03*
%TO.N,Net-(U4-Pad13)*%
X19050000Y50165000D03*
%TO.N,Net-(U4-Pad12)*%
X16510000Y52705000D03*
%TO.N,Net-(U4-Pad11)*%
X16510000Y50165000D03*
%TO.N,Net-(U4-Pad10)*%
X13970000Y52705000D03*
%TO.N,Net-(U4-Pad9)*%
X13970000Y50165000D03*
%TO.N,Net-(U4-Pad8)*%
X11430000Y52705000D03*
%TO.N,Net-(U4-Pad7)*%
X11430000Y50165000D03*
%TO.N,Net-(U4-Pad6)*%
X8890000Y52705000D03*
%TO.N,Net-(U4-Pad5)*%
X8890000Y50165000D03*
%TO.N,Net-(U4-Pad4)*%
X6350000Y52705000D03*
%TO.N,Net-(U4-Pad3)*%
X6350000Y50165000D03*
%TO.N,GND*%
X3810000Y52705000D03*
D14*
X3810000Y50165000D03*
%TD*%
D16*
%TO.N,GND*%
X24003000Y7874000D03*
X59944000Y14986000D03*
X59944000Y16764000D03*
X49149000Y19812000D03*
X51435000Y19812000D03*
X45974000Y15875000D03*
X34290000Y42291000D03*
X32639000Y42418000D03*
X32004000Y41656000D03*
X31877000Y37846000D03*
X31877000Y36576000D03*
X33274000Y36576000D03*
X24638000Y36195000D03*
X26162000Y36195000D03*
X26162000Y37592000D03*
X25654000Y40640000D03*
X25654000Y42037000D03*
X27178000Y41910000D03*
X27178000Y30099000D03*
X26670000Y30734000D03*
X27305000Y31877000D03*
X37592000Y38989000D03*
X36322000Y40513000D03*
X35560000Y41910000D03*
X35560000Y43434000D03*
X36830000Y44831000D03*
X47244000Y40259000D03*
X48133000Y40386000D03*
X50165000Y38989000D03*
X46863000Y45339000D03*
X48133000Y46609000D03*
X51435000Y36195000D03*
X49911000Y32319600D03*
X46228000Y30988000D03*
X45593000Y28194000D03*
X33710525Y20828000D03*
X31369000Y20701000D03*
X28829000Y20701000D03*
X24257000Y34544000D03*
X25400000Y34417000D03*
X24130000Y32893000D03*
X25527000Y32893000D03*
X53467000Y36957000D03*
X55626000Y40767000D03*
X57277000Y39116000D03*
X32893000Y30734000D03*
X32893000Y29464000D03*
X31623000Y29464000D03*
X41918800Y26466800D03*
X42646600Y26365200D03*
X40360600Y40944800D03*
X39624000Y43535600D03*
X40817800Y43586400D03*
X50876200Y46659800D03*
X53695600Y46405800D03*
X58877200Y46431200D03*
X61722000Y46659800D03*
X53898800Y25095200D03*
X52197000Y26339800D03*
X58877200Y25095200D03*
X53822600Y18516600D03*
X58953400Y18465800D03*
X50190400Y10414000D03*
X49606200Y27432000D03*
%TO.N,+3V3*%
X24003000Y9906000D03*
X45974000Y17780000D03*
X41021000Y39751000D03*
X47244000Y36068000D03*
X50165000Y37211000D03*
X48260000Y42291000D03*
X46863000Y43561000D03*
X36322000Y22098000D03*
X53467000Y36068000D03*
X38735000Y29845000D03*
X38735000Y28829000D03*
X43434000Y29718000D03*
%TO.N,VDDR*%
X38735000Y39116000D03*
X40469600Y39116000D03*
%TO.N,Net-(C15-Pad1)*%
X44577000Y28194000D03*
%TO.N,/ZigBeeFiltering/RX_TX*%
X30480000Y33401000D03*
X35941000Y38989000D03*
X36423600Y34925000D03*
%TO.N,Net-(C31-Pad1)*%
X24003000Y33655000D03*
%TO.N,DCDC_SW*%
X46228000Y35814000D03*
%TD*%
D17*
%TO.N,GND*%
X5403368Y53858475D02*
X5196525Y53651632D01*
X5034010Y53408411D01*
X4922068Y53138158D01*
X4865000Y52851260D01*
X4865000Y52558740D01*
X4922068Y52271842D01*
X5034010Y52001589D01*
X5196525Y51758368D01*
X5403368Y51551525D01*
X5577760Y51435000D01*
X5403368Y51318475D01*
X5196525Y51111632D01*
X5034010Y50868411D01*
X4922068Y50598158D01*
X4865000Y50311260D01*
X4865000Y50018740D01*
X4922068Y49731842D01*
X5034010Y49461589D01*
X5196525Y49218368D01*
X5403368Y49011525D01*
X5646589Y48849010D01*
X5916842Y48737068D01*
X6203740Y48680000D01*
X6496260Y48680000D01*
X6783158Y48737068D01*
X7053411Y48849010D01*
X7296632Y49011525D01*
X7503475Y49218368D01*
X7620000Y49392760D01*
X7736525Y49218368D01*
X7943368Y49011525D01*
X8186589Y48849010D01*
X8456842Y48737068D01*
X8743740Y48680000D01*
X9036260Y48680000D01*
X9323158Y48737068D01*
X9593411Y48849010D01*
X9836632Y49011525D01*
X10043475Y49218368D01*
X10160000Y49392760D01*
X10276525Y49218368D01*
X10483368Y49011525D01*
X10726589Y48849010D01*
X10996842Y48737068D01*
X11283740Y48680000D01*
X11576260Y48680000D01*
X11863158Y48737068D01*
X12133411Y48849010D01*
X12376632Y49011525D01*
X12583475Y49218368D01*
X12700000Y49392760D01*
X12816525Y49218368D01*
X13023368Y49011525D01*
X13266589Y48849010D01*
X13536842Y48737068D01*
X13823740Y48680000D01*
X14116260Y48680000D01*
X14403158Y48737068D01*
X14673411Y48849010D01*
X14916632Y49011525D01*
X15123475Y49218368D01*
X15240000Y49392760D01*
X15356525Y49218368D01*
X15563368Y49011525D01*
X15806589Y48849010D01*
X16076842Y48737068D01*
X16363740Y48680000D01*
X16656260Y48680000D01*
X16943158Y48737068D01*
X17213411Y48849010D01*
X17456632Y49011525D01*
X17663475Y49218368D01*
X17780000Y49392760D01*
X17896525Y49218368D01*
X18103368Y49011525D01*
X18346589Y48849010D01*
X18616842Y48737068D01*
X18903740Y48680000D01*
X19196260Y48680000D01*
X19483158Y48737068D01*
X19753411Y48849010D01*
X19996632Y49011525D01*
X20203475Y49218368D01*
X20320000Y49392760D01*
X20436525Y49218368D01*
X20643368Y49011525D01*
X20886589Y48849010D01*
X21156842Y48737068D01*
X21443740Y48680000D01*
X21736260Y48680000D01*
X22023158Y48737068D01*
X22293411Y48849010D01*
X22536632Y49011525D01*
X22743475Y49218368D01*
X22860000Y49392760D01*
X22976525Y49218368D01*
X23183368Y49011525D01*
X23426589Y48849010D01*
X23696842Y48737068D01*
X23983740Y48680000D01*
X24276260Y48680000D01*
X24563158Y48737068D01*
X24833411Y48849010D01*
X25076632Y49011525D01*
X25283475Y49218368D01*
X25400000Y49392760D01*
X25516525Y49218368D01*
X25723368Y49011525D01*
X25966589Y48849010D01*
X26236842Y48737068D01*
X26523740Y48680000D01*
X26816260Y48680000D01*
X27103158Y48737068D01*
X27373411Y48849010D01*
X27616632Y49011525D01*
X27823475Y49218368D01*
X27940000Y49392760D01*
X28056525Y49218368D01*
X28263368Y49011525D01*
X28506589Y48849010D01*
X28776842Y48737068D01*
X29063740Y48680000D01*
X29356260Y48680000D01*
X29643158Y48737068D01*
X29913411Y48849010D01*
X30156632Y49011525D01*
X30363475Y49218368D01*
X30480000Y49392760D01*
X30596525Y49218368D01*
X30803368Y49011525D01*
X31046589Y48849010D01*
X31316842Y48737068D01*
X31603740Y48680000D01*
X31896260Y48680000D01*
X32183158Y48737068D01*
X32453411Y48849010D01*
X32696632Y49011525D01*
X32903475Y49218368D01*
X33020000Y49392760D01*
X33136525Y49218368D01*
X33343368Y49011525D01*
X33586589Y48849010D01*
X33856842Y48737068D01*
X34143740Y48680000D01*
X34436260Y48680000D01*
X34723158Y48737068D01*
X34993411Y48849010D01*
X35236632Y49011525D01*
X35443475Y49218368D01*
X35560000Y49392760D01*
X35676525Y49218368D01*
X35883368Y49011525D01*
X36126589Y48849010D01*
X36396842Y48737068D01*
X36683740Y48680000D01*
X36976260Y48680000D01*
X37263158Y48737068D01*
X37533411Y48849010D01*
X37776632Y49011525D01*
X37983475Y49218368D01*
X38100000Y49392760D01*
X38216525Y49218368D01*
X38423368Y49011525D01*
X38666589Y48849010D01*
X38936842Y48737068D01*
X39223740Y48680000D01*
X39516260Y48680000D01*
X39803158Y48737068D01*
X40073411Y48849010D01*
X40316632Y49011525D01*
X40523475Y49218368D01*
X40640000Y49392760D01*
X40756525Y49218368D01*
X40963368Y49011525D01*
X41206589Y48849010D01*
X41476842Y48737068D01*
X41763740Y48680000D01*
X42056260Y48680000D01*
X42343158Y48737068D01*
X42613411Y48849010D01*
X42856632Y49011525D01*
X43063475Y49218368D01*
X43180000Y49392760D01*
X43296525Y49218368D01*
X43503368Y49011525D01*
X43746589Y48849010D01*
X44016842Y48737068D01*
X44303740Y48680000D01*
X44596260Y48680000D01*
X44883158Y48737068D01*
X45153411Y48849010D01*
X45396632Y49011525D01*
X45603475Y49218368D01*
X45720000Y49392760D01*
X45836525Y49218368D01*
X46043368Y49011525D01*
X46286589Y48849010D01*
X46556842Y48737068D01*
X46843740Y48680000D01*
X47136260Y48680000D01*
X47423158Y48737068D01*
X47693411Y48849010D01*
X47936632Y49011525D01*
X48143475Y49218368D01*
X48260000Y49392760D01*
X48376525Y49218368D01*
X48583368Y49011525D01*
X48826589Y48849010D01*
X49096842Y48737068D01*
X49383740Y48680000D01*
X49676260Y48680000D01*
X49963158Y48737068D01*
X50233411Y48849010D01*
X50476632Y49011525D01*
X50683475Y49218368D01*
X50800000Y49392760D01*
X50916525Y49218368D01*
X51123368Y49011525D01*
X51366589Y48849010D01*
X51636842Y48737068D01*
X51923740Y48680000D01*
X52216260Y48680000D01*
X52503158Y48737068D01*
X52773411Y48849010D01*
X53016632Y49011525D01*
X53223475Y49218368D01*
X53340000Y49392760D01*
X53456525Y49218368D01*
X53663368Y49011525D01*
X53906589Y48849010D01*
X54176842Y48737068D01*
X54463740Y48680000D01*
X54756260Y48680000D01*
X55043158Y48737068D01*
X55313411Y48849010D01*
X55556632Y49011525D01*
X55763475Y49218368D01*
X55880000Y49392760D01*
X55996525Y49218368D01*
X56203368Y49011525D01*
X56446589Y48849010D01*
X56716842Y48737068D01*
X57003740Y48680000D01*
X57296260Y48680000D01*
X57583158Y48737068D01*
X57853411Y48849010D01*
X58096632Y49011525D01*
X58303475Y49218368D01*
X58420000Y49392760D01*
X58536525Y49218368D01*
X58743368Y49011525D01*
X58986589Y48849010D01*
X59256842Y48737068D01*
X59543740Y48680000D01*
X59836260Y48680000D01*
X60123158Y48737068D01*
X60393411Y48849010D01*
X60636632Y49011525D01*
X60843475Y49218368D01*
X61005990Y49461589D01*
X61117932Y49731842D01*
X61175000Y50018740D01*
X61175000Y50311260D01*
X61117932Y50598158D01*
X61005990Y50868411D01*
X60843475Y51111632D01*
X60636632Y51318475D01*
X60462240Y51435000D01*
X60636632Y51551525D01*
X60843475Y51758368D01*
X61005990Y52001589D01*
X61117932Y52271842D01*
X61175000Y52558740D01*
X61175000Y52851260D01*
X61117932Y53138158D01*
X61005990Y53408411D01*
X60843475Y53651632D01*
X60636632Y53858475D01*
X60574485Y53900000D01*
X62790001Y53900000D01*
X62790000Y710000D01*
X55494485Y710000D01*
X55556632Y751525D01*
X55763475Y958368D01*
X55925990Y1201589D01*
X56037932Y1471842D01*
X56095000Y1758740D01*
X56095000Y2051260D01*
X56037932Y2338158D01*
X55925990Y2608411D01*
X55763475Y2851632D01*
X55556632Y3058475D01*
X55382240Y3175000D01*
X55556632Y3291525D01*
X55763475Y3498368D01*
X55925990Y3741589D01*
X56037932Y4011842D01*
X56095000Y4298740D01*
X56095000Y4591260D01*
X56037932Y4878158D01*
X55925990Y5148411D01*
X55763475Y5391632D01*
X55556632Y5598475D01*
X55313411Y5760990D01*
X55043158Y5872932D01*
X54756260Y5930000D01*
X54463740Y5930000D01*
X54176842Y5872932D01*
X53906589Y5760990D01*
X53663368Y5598475D01*
X53456525Y5391632D01*
X53340000Y5217240D01*
X53223475Y5391632D01*
X53016632Y5598475D01*
X52773411Y5760990D01*
X52503158Y5872932D01*
X52216260Y5930000D01*
X51923740Y5930000D01*
X51636842Y5872932D01*
X51366589Y5760990D01*
X51123368Y5598475D01*
X50916525Y5391632D01*
X50800000Y5217240D01*
X50683475Y5391632D01*
X50476632Y5598475D01*
X50233411Y5760990D01*
X49963158Y5872932D01*
X49676260Y5930000D01*
X49383740Y5930000D01*
X49096842Y5872932D01*
X48826589Y5760990D01*
X48583368Y5598475D01*
X48376525Y5391632D01*
X48260000Y5217240D01*
X48143475Y5391632D01*
X47936632Y5598475D01*
X47693411Y5760990D01*
X47423158Y5872932D01*
X47136260Y5930000D01*
X46843740Y5930000D01*
X46556842Y5872932D01*
X46286589Y5760990D01*
X46043368Y5598475D01*
X45836525Y5391632D01*
X45720000Y5217240D01*
X45603475Y5391632D01*
X45396632Y5598475D01*
X45153411Y5760990D01*
X44883158Y5872932D01*
X44596260Y5930000D01*
X44303740Y5930000D01*
X44016842Y5872932D01*
X43746589Y5760990D01*
X43503368Y5598475D01*
X43296525Y5391632D01*
X43180000Y5217240D01*
X43063475Y5391632D01*
X42856632Y5598475D01*
X42613411Y5760990D01*
X42343158Y5872932D01*
X42056260Y5930000D01*
X41763740Y5930000D01*
X41476842Y5872932D01*
X41206589Y5760990D01*
X40963368Y5598475D01*
X40756525Y5391632D01*
X40640000Y5217240D01*
X40523475Y5391632D01*
X40316632Y5598475D01*
X40073411Y5760990D01*
X39803158Y5872932D01*
X39516260Y5930000D01*
X39223740Y5930000D01*
X38936842Y5872932D01*
X38666589Y5760990D01*
X38423368Y5598475D01*
X38216525Y5391632D01*
X38100000Y5217240D01*
X37983475Y5391632D01*
X37776632Y5598475D01*
X37533411Y5760990D01*
X37263158Y5872932D01*
X36976260Y5930000D01*
X36683740Y5930000D01*
X36396842Y5872932D01*
X36126589Y5760990D01*
X35883368Y5598475D01*
X35676525Y5391632D01*
X35560000Y5217240D01*
X35443475Y5391632D01*
X35236632Y5598475D01*
X34993411Y5760990D01*
X34723158Y5872932D01*
X34436260Y5930000D01*
X34143740Y5930000D01*
X33856842Y5872932D01*
X33586589Y5760990D01*
X33343368Y5598475D01*
X33136525Y5391632D01*
X33020000Y5217240D01*
X32903475Y5391632D01*
X32696632Y5598475D01*
X32453411Y5760990D01*
X32183158Y5872932D01*
X31896260Y5930000D01*
X31603740Y5930000D01*
X31316842Y5872932D01*
X31046589Y5760990D01*
X30803368Y5598475D01*
X30596525Y5391632D01*
X30480000Y5217240D01*
X30363475Y5391632D01*
X30156632Y5598475D01*
X29913411Y5760990D01*
X29643158Y5872932D01*
X29356260Y5930000D01*
X29063740Y5930000D01*
X28776842Y5872932D01*
X28506589Y5760990D01*
X28263368Y5598475D01*
X28056525Y5391632D01*
X27940000Y5217240D01*
X27823475Y5391632D01*
X27616632Y5598475D01*
X27373411Y5760990D01*
X27103158Y5872932D01*
X26816260Y5930000D01*
X26523740Y5930000D01*
X26236842Y5872932D01*
X25966589Y5760990D01*
X25723368Y5598475D01*
X25516525Y5391632D01*
X25400000Y5217240D01*
X25283475Y5391632D01*
X25076632Y5598475D01*
X24833411Y5760990D01*
X24563158Y5872932D01*
X24276260Y5930000D01*
X23983740Y5930000D01*
X23696842Y5872932D01*
X23426589Y5760990D01*
X23183368Y5598475D01*
X22976525Y5391632D01*
X22860000Y5217240D01*
X22743475Y5391632D01*
X22536632Y5598475D01*
X22293411Y5760990D01*
X22023158Y5872932D01*
X21736260Y5930000D01*
X21443740Y5930000D01*
X21156842Y5872932D01*
X20886589Y5760990D01*
X20643368Y5598475D01*
X20436525Y5391632D01*
X20320000Y5217240D01*
X20203475Y5391632D01*
X19996632Y5598475D01*
X19753411Y5760990D01*
X19483158Y5872932D01*
X19196260Y5930000D01*
X18903740Y5930000D01*
X18616842Y5872932D01*
X18346589Y5760990D01*
X18103368Y5598475D01*
X17896525Y5391632D01*
X17780000Y5217240D01*
X17663475Y5391632D01*
X17456632Y5598475D01*
X17213411Y5760990D01*
X16943158Y5872932D01*
X16656260Y5930000D01*
X16363740Y5930000D01*
X16076842Y5872932D01*
X15806589Y5760990D01*
X15563368Y5598475D01*
X15356525Y5391632D01*
X15240000Y5217240D01*
X15123475Y5391632D01*
X14916632Y5598475D01*
X14673411Y5760990D01*
X14403158Y5872932D01*
X14116260Y5930000D01*
X13823740Y5930000D01*
X13536842Y5872932D01*
X13266589Y5760990D01*
X13023368Y5598475D01*
X12816525Y5391632D01*
X12700000Y5217240D01*
X12583475Y5391632D01*
X12376632Y5598475D01*
X12133411Y5760990D01*
X11863158Y5872932D01*
X11576260Y5930000D01*
X11283740Y5930000D01*
X10996842Y5872932D01*
X10726589Y5760990D01*
X10483368Y5598475D01*
X10276525Y5391632D01*
X10160000Y5217240D01*
X10043475Y5391632D01*
X9836632Y5598475D01*
X9593411Y5760990D01*
X9323158Y5872932D01*
X9036260Y5930000D01*
X8743740Y5930000D01*
X8456842Y5872932D01*
X8186589Y5760990D01*
X7943368Y5598475D01*
X7736525Y5391632D01*
X7620000Y5217240D01*
X7503475Y5391632D01*
X7296632Y5598475D01*
X7053411Y5760990D01*
X6783158Y5872932D01*
X6496260Y5930000D01*
X6203740Y5930000D01*
X5916842Y5872932D01*
X5646589Y5760990D01*
X5403368Y5598475D01*
X5196525Y5391632D01*
X5034010Y5148411D01*
X4922068Y4878158D01*
X4865000Y4591260D01*
X4865000Y4298740D01*
X4922068Y4011842D01*
X5034010Y3741589D01*
X5196525Y3498368D01*
X5403368Y3291525D01*
X5577760Y3175000D01*
X5403368Y3058475D01*
X5196525Y2851632D01*
X5034010Y2608411D01*
X4922068Y2338158D01*
X4865000Y2051260D01*
X4865000Y1758740D01*
X4922068Y1471842D01*
X5034010Y1201589D01*
X5196525Y958368D01*
X5403368Y751525D01*
X5465515Y710000D01*
X710000Y710000D01*
X710000Y6910000D01*
X7585123Y6910000D01*
X7620000Y6906565D01*
X7654877Y6910000D01*
X7759184Y6920273D01*
X7893020Y6960872D01*
X8016363Y7026800D01*
X8124475Y7115525D01*
X8213200Y7223637D01*
X8279128Y7346980D01*
X8319727Y7480816D01*
X8333435Y7620000D01*
X8330000Y7654877D01*
X8330000Y9996061D01*
X23088600Y9996061D01*
X23088600Y9815939D01*
X23123740Y9639279D01*
X23192670Y9472869D01*
X23292739Y9323104D01*
X23420104Y9195739D01*
X23569869Y9095670D01*
X23736279Y9026740D01*
X23912939Y8991600D01*
X24093061Y8991600D01*
X24269721Y9026740D01*
X24436131Y9095670D01*
X24585896Y9195739D01*
X24713261Y9323104D01*
X24813330Y9472869D01*
X24882260Y9639279D01*
X24917400Y9815939D01*
X24917400Y9996061D01*
X24882260Y10172721D01*
X24813330Y10339131D01*
X24713261Y10488896D01*
X24585896Y10616261D01*
X24436131Y10716330D01*
X24269721Y10785260D01*
X24093061Y10820400D01*
X23912939Y10820400D01*
X23736279Y10785260D01*
X23569869Y10716330D01*
X23420104Y10616261D01*
X23292739Y10488896D01*
X23192670Y10339131D01*
X23123740Y10172721D01*
X23088600Y9996061D01*
X8330000Y9996061D01*
X8330000Y17870061D01*
X45059600Y17870061D01*
X45059600Y17689939D01*
X45094740Y17513279D01*
X45163670Y17346869D01*
X45263739Y17197104D01*
X45391104Y17069739D01*
X45540869Y16969670D01*
X45707279Y16900740D01*
X45883939Y16865600D01*
X46064061Y16865600D01*
X46240721Y16900740D01*
X46407131Y16969670D01*
X46556896Y17069739D01*
X46684261Y17197104D01*
X46784330Y17346869D01*
X46853260Y17513279D01*
X46888400Y17689939D01*
X46888400Y17870061D01*
X46853260Y18046721D01*
X46784330Y18213131D01*
X46684261Y18362896D01*
X46556896Y18490261D01*
X46407131Y18590330D01*
X46240721Y18659260D01*
X46064061Y18694400D01*
X45883939Y18694400D01*
X45707279Y18659260D01*
X45540869Y18590330D01*
X45391104Y18490261D01*
X45263739Y18362896D01*
X45163670Y18213131D01*
X45094740Y18046721D01*
X45059600Y17870061D01*
X8330000Y17870061D01*
X8330000Y18841469D01*
X13306074Y18841469D01*
X13416921Y18564286D01*
X13727840Y18410911D01*
X14062705Y18321140D01*
X14408650Y18298424D01*
X14752380Y18343634D01*
X15080685Y18455034D01*
X15285079Y18564286D01*
X15395926Y18841469D01*
X18386074Y18841469D01*
X18496921Y18564286D01*
X18807840Y18410911D01*
X19142705Y18321140D01*
X19488650Y18298424D01*
X19832380Y18343634D01*
X20160685Y18455034D01*
X20365079Y18564286D01*
X20475926Y18841469D01*
X19431000Y19886395D01*
X18386074Y18841469D01*
X15395926Y18841469D01*
X14351000Y19886395D01*
X13306074Y18841469D01*
X8330000Y18841469D01*
X8330000Y20008350D01*
X12583424Y20008350D01*
X12628634Y19664620D01*
X12740034Y19336315D01*
X12849286Y19131921D01*
X13126469Y19021074D01*
X14171395Y20066000D01*
X14530605Y20066000D01*
X15575531Y19021074D01*
X15852714Y19131921D01*
X16006089Y19442840D01*
X16095860Y19777705D01*
X16111004Y20008350D01*
X17663424Y20008350D01*
X17708634Y19664620D01*
X17820034Y19336315D01*
X17929286Y19131921D01*
X18206469Y19021074D01*
X19251395Y20066000D01*
X19610605Y20066000D01*
X20655531Y19021074D01*
X20932714Y19131921D01*
X21086089Y19442840D01*
X21175860Y19777705D01*
X21198576Y20123650D01*
X21153366Y20467380D01*
X21041966Y20795685D01*
X20932714Y21000079D01*
X20655531Y21110926D01*
X19610605Y20066000D01*
X19251395Y20066000D01*
X18206469Y21110926D01*
X17929286Y21000079D01*
X17775911Y20689160D01*
X17686140Y20354295D01*
X17663424Y20008350D01*
X16111004Y20008350D01*
X16118576Y20123650D01*
X16073366Y20467380D01*
X15961966Y20795685D01*
X15852714Y21000079D01*
X15575531Y21110926D01*
X14530605Y20066000D01*
X14171395Y20066000D01*
X13126469Y21110926D01*
X12849286Y21000079D01*
X12695911Y20689160D01*
X12606140Y20354295D01*
X12583424Y20008350D01*
X8330000Y20008350D01*
X8330000Y21290531D01*
X13306074Y21290531D01*
X14351000Y20245605D01*
X15395926Y21290531D01*
X15285079Y21567714D01*
X14974160Y21721089D01*
X14639295Y21810860D01*
X14293350Y21833576D01*
X13949620Y21788366D01*
X13621315Y21676966D01*
X13416921Y21567714D01*
X13306074Y21290531D01*
X8330000Y21290531D01*
X8330000Y22769496D01*
X15231000Y22769496D01*
X15231000Y22442504D01*
X15294793Y22121796D01*
X15419927Y21819695D01*
X15601594Y21547812D01*
X15832812Y21316594D01*
X16104695Y21134927D01*
X16406796Y21009793D01*
X16727504Y20946000D01*
X17054496Y20946000D01*
X17375204Y21009793D01*
X17677305Y21134927D01*
X17910182Y21290531D01*
X18386074Y21290531D01*
X19431000Y20245605D01*
X20475926Y21290531D01*
X20365079Y21567714D01*
X20054160Y21721089D01*
X19719295Y21810860D01*
X19373350Y21833576D01*
X19029620Y21788366D01*
X18701315Y21676966D01*
X18496921Y21567714D01*
X18386074Y21290531D01*
X17910182Y21290531D01*
X17949188Y21316594D01*
X18180406Y21547812D01*
X18362073Y21819695D01*
X18487207Y22121796D01*
X18500387Y22188061D01*
X35407600Y22188061D01*
X35407600Y22007939D01*
X35442740Y21831279D01*
X35511670Y21664869D01*
X35611739Y21515104D01*
X35739104Y21387739D01*
X35888869Y21287670D01*
X36055279Y21218740D01*
X36231939Y21183600D01*
X36412061Y21183600D01*
X36588721Y21218740D01*
X36755131Y21287670D01*
X36904896Y21387739D01*
X37032261Y21515104D01*
X37132330Y21664869D01*
X37201260Y21831279D01*
X37236400Y22007939D01*
X37236400Y22188061D01*
X37201260Y22364721D01*
X37132330Y22531131D01*
X37032261Y22680896D01*
X36904896Y22808261D01*
X36755131Y22908330D01*
X36588721Y22977260D01*
X36412061Y23012400D01*
X36231939Y23012400D01*
X36055279Y22977260D01*
X35888869Y22908330D01*
X35739104Y22808261D01*
X35611739Y22680896D01*
X35511670Y22531131D01*
X35442740Y22364721D01*
X35407600Y22188061D01*
X18500387Y22188061D01*
X18551000Y22442504D01*
X18551000Y22769496D01*
X18487207Y23090204D01*
X18362073Y23392305D01*
X18180406Y23664188D01*
X17949188Y23895406D01*
X17910183Y23921469D01*
X18386074Y23921469D01*
X18496921Y23644286D01*
X18807840Y23490911D01*
X19142705Y23401140D01*
X19488650Y23378424D01*
X19832380Y23423634D01*
X20160685Y23535034D01*
X20365079Y23644286D01*
X20475926Y23921469D01*
X19431000Y24966395D01*
X18386074Y23921469D01*
X17910183Y23921469D01*
X17677305Y24077073D01*
X17375204Y24202207D01*
X17054496Y24266000D01*
X16727504Y24266000D01*
X16406796Y24202207D01*
X16104695Y24077073D01*
X15832812Y23895406D01*
X15601594Y23664188D01*
X15419927Y23392305D01*
X15294793Y23090204D01*
X15231000Y22769496D01*
X8330000Y22769496D01*
X8330000Y23921469D01*
X13306074Y23921469D01*
X13416921Y23644286D01*
X13727840Y23490911D01*
X14062705Y23401140D01*
X14408650Y23378424D01*
X14752380Y23423634D01*
X15080685Y23535034D01*
X15285079Y23644286D01*
X15395926Y23921469D01*
X14351000Y24966395D01*
X13306074Y23921469D01*
X8330000Y23921469D01*
X8330000Y25088350D01*
X12583424Y25088350D01*
X12628634Y24744620D01*
X12740034Y24416315D01*
X12849286Y24211921D01*
X13126469Y24101074D01*
X14171395Y25146000D01*
X14530605Y25146000D01*
X15575531Y24101074D01*
X15852714Y24211921D01*
X16006089Y24522840D01*
X16095860Y24857705D01*
X16111004Y25088350D01*
X17663424Y25088350D01*
X17708634Y24744620D01*
X17820034Y24416315D01*
X17929286Y24211921D01*
X18206469Y24101074D01*
X19251395Y25146000D01*
X19610605Y25146000D01*
X20655531Y24101074D01*
X20932714Y24211921D01*
X21086089Y24522840D01*
X21175860Y24857705D01*
X21198576Y25203650D01*
X21153366Y25547380D01*
X21041966Y25875685D01*
X20932714Y26080079D01*
X20655531Y26190926D01*
X19610605Y25146000D01*
X19251395Y25146000D01*
X18206469Y26190926D01*
X17929286Y26080079D01*
X17775911Y25769160D01*
X17686140Y25434295D01*
X17663424Y25088350D01*
X16111004Y25088350D01*
X16118576Y25203650D01*
X16073366Y25547380D01*
X15961966Y25875685D01*
X15852714Y26080079D01*
X15575531Y26190926D01*
X14530605Y25146000D01*
X14171395Y25146000D01*
X13126469Y26190926D01*
X12849286Y26080079D01*
X12695911Y25769160D01*
X12606140Y25434295D01*
X12583424Y25088350D01*
X8330000Y25088350D01*
X8330000Y26370531D01*
X13306074Y26370531D01*
X14351000Y25325605D01*
X15395926Y26370531D01*
X18386074Y26370531D01*
X19431000Y25325605D01*
X20475926Y26370531D01*
X20365079Y26647714D01*
X20054160Y26801089D01*
X19719295Y26890860D01*
X19373350Y26913576D01*
X19029620Y26868366D01*
X18701315Y26756966D01*
X18496921Y26647714D01*
X18386074Y26370531D01*
X15395926Y26370531D01*
X15285079Y26647714D01*
X14974160Y26801089D01*
X14639295Y26890860D01*
X14293350Y26913576D01*
X13949620Y26868366D01*
X13621315Y26756966D01*
X13416921Y26647714D01*
X13306074Y26370531D01*
X8330000Y26370531D01*
X8330000Y29935061D01*
X37820600Y29935061D01*
X37820600Y29754939D01*
X37855740Y29578279D01*
X37924670Y29411869D01*
X37974695Y29337000D01*
X37924670Y29262131D01*
X37855740Y29095721D01*
X37820600Y28919061D01*
X37820600Y28738939D01*
X37855740Y28562279D01*
X37924670Y28395869D01*
X38024739Y28246104D01*
X38152104Y28118739D01*
X38301869Y28018670D01*
X38468279Y27949740D01*
X38644939Y27914600D01*
X38825061Y27914600D01*
X39001721Y27949740D01*
X39168131Y28018670D01*
X39317896Y28118739D01*
X39445261Y28246104D01*
X39470622Y28284061D01*
X43662600Y28284061D01*
X43662600Y28103939D01*
X43697740Y27927279D01*
X43766670Y27760869D01*
X43866739Y27611104D01*
X43994104Y27483739D01*
X44143869Y27383670D01*
X44310279Y27314740D01*
X44486939Y27279600D01*
X44667061Y27279600D01*
X44843721Y27314740D01*
X45010131Y27383670D01*
X45159896Y27483739D01*
X45287261Y27611104D01*
X45387330Y27760869D01*
X45456260Y27927279D01*
X45491400Y28103939D01*
X45491400Y28284061D01*
X45456260Y28460721D01*
X45387330Y28627131D01*
X45287261Y28776896D01*
X45159896Y28904261D01*
X45010131Y29004330D01*
X44843721Y29073260D01*
X44667061Y29108400D01*
X44486939Y29108400D01*
X44310279Y29073260D01*
X44143869Y29004330D01*
X43994104Y28904261D01*
X43866739Y28776896D01*
X43766670Y28627131D01*
X43697740Y28460721D01*
X43662600Y28284061D01*
X39470622Y28284061D01*
X39545330Y28395869D01*
X39614260Y28562279D01*
X39649400Y28738939D01*
X39649400Y28919061D01*
X39614260Y29095721D01*
X39545330Y29262131D01*
X39495305Y29337000D01*
X39545330Y29411869D01*
X39614260Y29578279D01*
X39649400Y29754939D01*
X39649400Y29808061D01*
X42519600Y29808061D01*
X42519600Y29627939D01*
X42554740Y29451279D01*
X42623670Y29284869D01*
X42723739Y29135104D01*
X42851104Y29007739D01*
X43000869Y28907670D01*
X43167279Y28838740D01*
X43343939Y28803600D01*
X43524061Y28803600D01*
X43700721Y28838740D01*
X43867131Y28907670D01*
X44016896Y29007739D01*
X44144261Y29135104D01*
X44244330Y29284869D01*
X44313260Y29451279D01*
X44348400Y29627939D01*
X44348400Y29808061D01*
X44313260Y29984721D01*
X44244330Y30151131D01*
X44144261Y30300896D01*
X44016896Y30428261D01*
X43867131Y30528330D01*
X43700721Y30597260D01*
X43524061Y30632400D01*
X43343939Y30632400D01*
X43167279Y30597260D01*
X43000869Y30528330D01*
X42851104Y30428261D01*
X42723739Y30300896D01*
X42623670Y30151131D01*
X42554740Y29984721D01*
X42519600Y29808061D01*
X39649400Y29808061D01*
X39649400Y29935061D01*
X39614260Y30111721D01*
X39545330Y30278131D01*
X39445261Y30427896D01*
X39317896Y30555261D01*
X39168131Y30655330D01*
X39001721Y30724260D01*
X38825061Y30759400D01*
X38644939Y30759400D01*
X38468279Y30724260D01*
X38301869Y30655330D01*
X38152104Y30555261D01*
X38024739Y30427896D01*
X37924670Y30278131D01*
X37855740Y30111721D01*
X37820600Y29935061D01*
X8330000Y29935061D01*
X8330000Y33745061D01*
X23088600Y33745061D01*
X23088600Y33564939D01*
X23123740Y33388279D01*
X23192670Y33221869D01*
X23292739Y33072104D01*
X23420104Y32944739D01*
X23569869Y32844670D01*
X23736279Y32775740D01*
X23912939Y32740600D01*
X24093061Y32740600D01*
X24269721Y32775740D01*
X24436131Y32844670D01*
X24585896Y32944739D01*
X24713261Y33072104D01*
X24813330Y33221869D01*
X24882260Y33388279D01*
X24902704Y33491061D01*
X29565600Y33491061D01*
X29565600Y33310939D01*
X29600740Y33134279D01*
X29669670Y32967869D01*
X29769739Y32818104D01*
X29897104Y32690739D01*
X30046869Y32590670D01*
X30213279Y32521740D01*
X30389939Y32486600D01*
X30570061Y32486600D01*
X30746721Y32521740D01*
X30913131Y32590670D01*
X31062896Y32690739D01*
X31190261Y32818104D01*
X31290330Y32967869D01*
X31359260Y33134279D01*
X31394400Y33310939D01*
X31394400Y33491061D01*
X31359260Y33667721D01*
X31290330Y33834131D01*
X31190261Y33983896D01*
X31062896Y34111261D01*
X30913131Y34211330D01*
X30746721Y34280260D01*
X30570061Y34315400D01*
X30389939Y34315400D01*
X30213279Y34280260D01*
X30046869Y34211330D01*
X29897104Y34111261D01*
X29769739Y33983896D01*
X29669670Y33834131D01*
X29600740Y33667721D01*
X29565600Y33491061D01*
X24902704Y33491061D01*
X24917400Y33564939D01*
X24917400Y33745061D01*
X24882260Y33921721D01*
X24813330Y34088131D01*
X24713261Y34237896D01*
X24585896Y34365261D01*
X24436131Y34465330D01*
X24269721Y34534260D01*
X24093061Y34569400D01*
X23912939Y34569400D01*
X23736279Y34534260D01*
X23569869Y34465330D01*
X23420104Y34365261D01*
X23292739Y34237896D01*
X23192670Y34088131D01*
X23123740Y33921721D01*
X23088600Y33745061D01*
X8330000Y33745061D01*
X8330000Y35015061D01*
X35509200Y35015061D01*
X35509200Y34834939D01*
X35544340Y34658279D01*
X35613270Y34491869D01*
X35713339Y34342104D01*
X35840704Y34214739D01*
X35990469Y34114670D01*
X36156879Y34045740D01*
X36333539Y34010600D01*
X36513661Y34010600D01*
X36690321Y34045740D01*
X36856731Y34114670D01*
X37006496Y34214739D01*
X37133861Y34342104D01*
X37233930Y34491869D01*
X37302860Y34658279D01*
X37338000Y34834939D01*
X37338000Y35015061D01*
X37302860Y35191721D01*
X37233930Y35358131D01*
X37133861Y35507896D01*
X37006496Y35635261D01*
X36856731Y35735330D01*
X36690321Y35804260D01*
X36513661Y35839400D01*
X36333539Y35839400D01*
X36156879Y35804260D01*
X35990469Y35735330D01*
X35840704Y35635261D01*
X35713339Y35507896D01*
X35613270Y35358131D01*
X35544340Y35191721D01*
X35509200Y35015061D01*
X8330000Y35015061D01*
X8330000Y35904061D01*
X45313600Y35904061D01*
X45313600Y35723939D01*
X45348740Y35547279D01*
X45417670Y35380869D01*
X45517739Y35231104D01*
X45645104Y35103739D01*
X45794869Y35003670D01*
X45961279Y34934740D01*
X46137939Y34899600D01*
X46318061Y34899600D01*
X46494721Y34934740D01*
X46661131Y35003670D01*
X46810896Y35103739D01*
X46919733Y35212576D01*
X46977279Y35188740D01*
X47153939Y35153600D01*
X47334061Y35153600D01*
X47510721Y35188740D01*
X47677131Y35257670D01*
X47826896Y35357739D01*
X47954261Y35485104D01*
X48054330Y35634869D01*
X48123260Y35801279D01*
X48158400Y35977939D01*
X48158400Y36158061D01*
X52552600Y36158061D01*
X52552600Y35977939D01*
X52587740Y35801279D01*
X52656670Y35634869D01*
X52756739Y35485104D01*
X52884104Y35357739D01*
X53033869Y35257670D01*
X53200279Y35188740D01*
X53376939Y35153600D01*
X53557061Y35153600D01*
X53733721Y35188740D01*
X53900131Y35257670D01*
X54049896Y35357739D01*
X54177261Y35485104D01*
X54277330Y35634869D01*
X54346260Y35801279D01*
X54381400Y35977939D01*
X54381400Y36158061D01*
X54346260Y36334721D01*
X54277330Y36501131D01*
X54177261Y36650896D01*
X54049896Y36778261D01*
X53900131Y36878330D01*
X53733721Y36947260D01*
X53557061Y36982400D01*
X53376939Y36982400D01*
X53200279Y36947260D01*
X53033869Y36878330D01*
X52884104Y36778261D01*
X52756739Y36650896D01*
X52656670Y36501131D01*
X52587740Y36334721D01*
X52552600Y36158061D01*
X48158400Y36158061D01*
X48123260Y36334721D01*
X48054330Y36501131D01*
X47954261Y36650896D01*
X47826896Y36778261D01*
X47677131Y36878330D01*
X47510721Y36947260D01*
X47334061Y36982400D01*
X47153939Y36982400D01*
X46977279Y36947260D01*
X46810869Y36878330D01*
X46661104Y36778261D01*
X46552267Y36669424D01*
X46494721Y36693260D01*
X46318061Y36728400D01*
X46137939Y36728400D01*
X45961279Y36693260D01*
X45794869Y36624330D01*
X45645104Y36524261D01*
X45517739Y36396896D01*
X45417670Y36247131D01*
X45348740Y36080721D01*
X45313600Y35904061D01*
X8330000Y35904061D01*
X8330000Y37301061D01*
X49250600Y37301061D01*
X49250600Y37120939D01*
X49285740Y36944279D01*
X49354670Y36777869D01*
X49454739Y36628104D01*
X49582104Y36500739D01*
X49731869Y36400670D01*
X49898279Y36331740D01*
X50074939Y36296600D01*
X50255061Y36296600D01*
X50431721Y36331740D01*
X50598131Y36400670D01*
X50747896Y36500739D01*
X50875261Y36628104D01*
X50975330Y36777869D01*
X51044260Y36944279D01*
X51079400Y37120939D01*
X51079400Y37301061D01*
X51044260Y37477721D01*
X50975330Y37644131D01*
X50875261Y37793896D01*
X50747896Y37921261D01*
X50598131Y38021330D01*
X50431721Y38090260D01*
X50255061Y38125400D01*
X50074939Y38125400D01*
X49898279Y38090260D01*
X49731869Y38021330D01*
X49582104Y37921261D01*
X49454739Y37793896D01*
X49354670Y37644131D01*
X49285740Y37477721D01*
X49250600Y37301061D01*
X8330000Y37301061D01*
X8330000Y39079061D01*
X35026600Y39079061D01*
X35026600Y38898939D01*
X35061740Y38722279D01*
X35130670Y38555869D01*
X35230739Y38406104D01*
X35358104Y38278739D01*
X35507869Y38178670D01*
X35674279Y38109740D01*
X35850939Y38074600D01*
X36031061Y38074600D01*
X36207721Y38109740D01*
X36374131Y38178670D01*
X36523896Y38278739D01*
X36651261Y38406104D01*
X36751330Y38555869D01*
X36820260Y38722279D01*
X36855400Y38898939D01*
X36855400Y39079061D01*
X36830139Y39206061D01*
X37820600Y39206061D01*
X37820600Y39025939D01*
X37855740Y38849279D01*
X37924670Y38682869D01*
X38024739Y38533104D01*
X38152104Y38405739D01*
X38301869Y38305670D01*
X38468279Y38236740D01*
X38644939Y38201600D01*
X38825061Y38201600D01*
X39001721Y38236740D01*
X39168131Y38305670D01*
X39317896Y38405739D01*
X39445261Y38533104D01*
X39545330Y38682869D01*
X39602300Y38820405D01*
X39659270Y38682869D01*
X39759339Y38533104D01*
X39886704Y38405739D01*
X40036469Y38305670D01*
X40202879Y38236740D01*
X40379539Y38201600D01*
X40559661Y38201600D01*
X40736321Y38236740D01*
X40902731Y38305670D01*
X41052496Y38405739D01*
X41179861Y38533104D01*
X41279930Y38682869D01*
X41348860Y38849279D01*
X41359219Y38901356D01*
X41454131Y38940670D01*
X41603896Y39040739D01*
X41731261Y39168104D01*
X41831330Y39317869D01*
X41900260Y39484279D01*
X41935400Y39660939D01*
X41935400Y39841061D01*
X41900260Y40017721D01*
X41831330Y40184131D01*
X41731261Y40333896D01*
X41603896Y40461261D01*
X41454131Y40561330D01*
X41287721Y40630260D01*
X41111061Y40665400D01*
X40930939Y40665400D01*
X40754279Y40630260D01*
X40587869Y40561330D01*
X40438104Y40461261D01*
X40310739Y40333896D01*
X40210670Y40184131D01*
X40141740Y40017721D01*
X40131381Y39965644D01*
X40036469Y39926330D01*
X39886704Y39826261D01*
X39759339Y39698896D01*
X39659270Y39549131D01*
X39602300Y39411595D01*
X39545330Y39549131D01*
X39445261Y39698896D01*
X39317896Y39826261D01*
X39168131Y39926330D01*
X39001721Y39995260D01*
X38825061Y40030400D01*
X38644939Y40030400D01*
X38468279Y39995260D01*
X38301869Y39926330D01*
X38152104Y39826261D01*
X38024739Y39698896D01*
X37924670Y39549131D01*
X37855740Y39382721D01*
X37820600Y39206061D01*
X36830139Y39206061D01*
X36820260Y39255721D01*
X36751330Y39422131D01*
X36651261Y39571896D01*
X36523896Y39699261D01*
X36374131Y39799330D01*
X36207721Y39868260D01*
X36031061Y39903400D01*
X35850939Y39903400D01*
X35674279Y39868260D01*
X35507869Y39799330D01*
X35358104Y39699261D01*
X35230739Y39571896D01*
X35130670Y39422131D01*
X35061740Y39255721D01*
X35026600Y39079061D01*
X8330000Y39079061D01*
X8330000Y42381061D01*
X47345600Y42381061D01*
X47345600Y42200939D01*
X47380740Y42024279D01*
X47449670Y41857869D01*
X47549739Y41708104D01*
X47677104Y41580739D01*
X47826869Y41480670D01*
X47993279Y41411740D01*
X48169939Y41376600D01*
X48350061Y41376600D01*
X48526721Y41411740D01*
X48693131Y41480670D01*
X48842896Y41580739D01*
X48970261Y41708104D01*
X49070330Y41857869D01*
X49139260Y42024279D01*
X49174400Y42200939D01*
X49174400Y42381061D01*
X49139260Y42557721D01*
X49070330Y42724131D01*
X48970261Y42873896D01*
X48842896Y43001261D01*
X48693131Y43101330D01*
X48526721Y43170260D01*
X48350061Y43205400D01*
X48169939Y43205400D01*
X47993279Y43170260D01*
X47826869Y43101330D01*
X47677104Y43001261D01*
X47549739Y42873896D01*
X47449670Y42724131D01*
X47380740Y42557721D01*
X47345600Y42381061D01*
X8330000Y42381061D01*
X8330000Y43651061D01*
X45948600Y43651061D01*
X45948600Y43470939D01*
X45983740Y43294279D01*
X46052670Y43127869D01*
X46152739Y42978104D01*
X46280104Y42850739D01*
X46429869Y42750670D01*
X46596279Y42681740D01*
X46772939Y42646600D01*
X46953061Y42646600D01*
X47129721Y42681740D01*
X47296131Y42750670D01*
X47445896Y42850739D01*
X47573261Y42978104D01*
X47673330Y43127869D01*
X47742260Y43294279D01*
X47777400Y43470939D01*
X47777400Y43651061D01*
X47742260Y43827721D01*
X47673330Y43994131D01*
X47573261Y44143896D01*
X47445896Y44271261D01*
X47296131Y44371330D01*
X47129721Y44440260D01*
X46953061Y44475400D01*
X46772939Y44475400D01*
X46596279Y44440260D01*
X46429869Y44371330D01*
X46280104Y44271261D01*
X46152739Y44143896D01*
X46052670Y43994131D01*
X45983740Y43827721D01*
X45948600Y43651061D01*
X8330000Y43651061D01*
X8330000Y46955124D01*
X8333435Y46990000D01*
X8319727Y47129184D01*
X8279128Y47263020D01*
X8213200Y47386363D01*
X8124475Y47494475D01*
X8016363Y47583200D01*
X7893020Y47649128D01*
X7759184Y47689727D01*
X7654877Y47700000D01*
X7620000Y47703435D01*
X7585123Y47700000D01*
X710000Y47700000D01*
X710000Y53900000D01*
X5465515Y53900000D01*
X5403368Y53858475D01*
%TA.AperFunction,Conductor*%
D18*
G36*
X5403368Y53858475D02*
G01*
X5196525Y53651632D01*
X5034010Y53408411D01*
X4922068Y53138158D01*
X4865000Y52851260D01*
X4865000Y52558740D01*
X4922068Y52271842D01*
X5034010Y52001589D01*
X5196525Y51758368D01*
X5403368Y51551525D01*
X5577760Y51435000D01*
X5403368Y51318475D01*
X5196525Y51111632D01*
X5034010Y50868411D01*
X4922068Y50598158D01*
X4865000Y50311260D01*
X4865000Y50018740D01*
X4922068Y49731842D01*
X5034010Y49461589D01*
X5196525Y49218368D01*
X5403368Y49011525D01*
X5646589Y48849010D01*
X5916842Y48737068D01*
X6203740Y48680000D01*
X6496260Y48680000D01*
X6783158Y48737068D01*
X7053411Y48849010D01*
X7296632Y49011525D01*
X7503475Y49218368D01*
X7620000Y49392760D01*
X7736525Y49218368D01*
X7943368Y49011525D01*
X8186589Y48849010D01*
X8456842Y48737068D01*
X8743740Y48680000D01*
X9036260Y48680000D01*
X9323158Y48737068D01*
X9593411Y48849010D01*
X9836632Y49011525D01*
X10043475Y49218368D01*
X10160000Y49392760D01*
X10276525Y49218368D01*
X10483368Y49011525D01*
X10726589Y48849010D01*
X10996842Y48737068D01*
X11283740Y48680000D01*
X11576260Y48680000D01*
X11863158Y48737068D01*
X12133411Y48849010D01*
X12376632Y49011525D01*
X12583475Y49218368D01*
X12700000Y49392760D01*
X12816525Y49218368D01*
X13023368Y49011525D01*
X13266589Y48849010D01*
X13536842Y48737068D01*
X13823740Y48680000D01*
X14116260Y48680000D01*
X14403158Y48737068D01*
X14673411Y48849010D01*
X14916632Y49011525D01*
X15123475Y49218368D01*
X15240000Y49392760D01*
X15356525Y49218368D01*
X15563368Y49011525D01*
X15806589Y48849010D01*
X16076842Y48737068D01*
X16363740Y48680000D01*
X16656260Y48680000D01*
X16943158Y48737068D01*
X17213411Y48849010D01*
X17456632Y49011525D01*
X17663475Y49218368D01*
X17780000Y49392760D01*
X17896525Y49218368D01*
X18103368Y49011525D01*
X18346589Y48849010D01*
X18616842Y48737068D01*
X18903740Y48680000D01*
X19196260Y48680000D01*
X19483158Y48737068D01*
X19753411Y48849010D01*
X19996632Y49011525D01*
X20203475Y49218368D01*
X20320000Y49392760D01*
X20436525Y49218368D01*
X20643368Y49011525D01*
X20886589Y48849010D01*
X21156842Y48737068D01*
X21443740Y48680000D01*
X21736260Y48680000D01*
X22023158Y48737068D01*
X22293411Y48849010D01*
X22536632Y49011525D01*
X22743475Y49218368D01*
X22860000Y49392760D01*
X22976525Y49218368D01*
X23183368Y49011525D01*
X23426589Y48849010D01*
X23696842Y48737068D01*
X23983740Y48680000D01*
X24276260Y48680000D01*
X24563158Y48737068D01*
X24833411Y48849010D01*
X25076632Y49011525D01*
X25283475Y49218368D01*
X25400000Y49392760D01*
X25516525Y49218368D01*
X25723368Y49011525D01*
X25966589Y48849010D01*
X26236842Y48737068D01*
X26523740Y48680000D01*
X26816260Y48680000D01*
X27103158Y48737068D01*
X27373411Y48849010D01*
X27616632Y49011525D01*
X27823475Y49218368D01*
X27940000Y49392760D01*
X28056525Y49218368D01*
X28263368Y49011525D01*
X28506589Y48849010D01*
X28776842Y48737068D01*
X29063740Y48680000D01*
X29356260Y48680000D01*
X29643158Y48737068D01*
X29913411Y48849010D01*
X30156632Y49011525D01*
X30363475Y49218368D01*
X30480000Y49392760D01*
X30596525Y49218368D01*
X30803368Y49011525D01*
X31046589Y48849010D01*
X31316842Y48737068D01*
X31603740Y48680000D01*
X31896260Y48680000D01*
X32183158Y48737068D01*
X32453411Y48849010D01*
X32696632Y49011525D01*
X32903475Y49218368D01*
X33020000Y49392760D01*
X33136525Y49218368D01*
X33343368Y49011525D01*
X33586589Y48849010D01*
X33856842Y48737068D01*
X34143740Y48680000D01*
X34436260Y48680000D01*
X34723158Y48737068D01*
X34993411Y48849010D01*
X35236632Y49011525D01*
X35443475Y49218368D01*
X35560000Y49392760D01*
X35676525Y49218368D01*
X35883368Y49011525D01*
X36126589Y48849010D01*
X36396842Y48737068D01*
X36683740Y48680000D01*
X36976260Y48680000D01*
X37263158Y48737068D01*
X37533411Y48849010D01*
X37776632Y49011525D01*
X37983475Y49218368D01*
X38100000Y49392760D01*
X38216525Y49218368D01*
X38423368Y49011525D01*
X38666589Y48849010D01*
X38936842Y48737068D01*
X39223740Y48680000D01*
X39516260Y48680000D01*
X39803158Y48737068D01*
X40073411Y48849010D01*
X40316632Y49011525D01*
X40523475Y49218368D01*
X40640000Y49392760D01*
X40756525Y49218368D01*
X40963368Y49011525D01*
X41206589Y48849010D01*
X41476842Y48737068D01*
X41763740Y48680000D01*
X42056260Y48680000D01*
X42343158Y48737068D01*
X42613411Y48849010D01*
X42856632Y49011525D01*
X43063475Y49218368D01*
X43180000Y49392760D01*
X43296525Y49218368D01*
X43503368Y49011525D01*
X43746589Y48849010D01*
X44016842Y48737068D01*
X44303740Y48680000D01*
X44596260Y48680000D01*
X44883158Y48737068D01*
X45153411Y48849010D01*
X45396632Y49011525D01*
X45603475Y49218368D01*
X45720000Y49392760D01*
X45836525Y49218368D01*
X46043368Y49011525D01*
X46286589Y48849010D01*
X46556842Y48737068D01*
X46843740Y48680000D01*
X47136260Y48680000D01*
X47423158Y48737068D01*
X47693411Y48849010D01*
X47936632Y49011525D01*
X48143475Y49218368D01*
X48260000Y49392760D01*
X48376525Y49218368D01*
X48583368Y49011525D01*
X48826589Y48849010D01*
X49096842Y48737068D01*
X49383740Y48680000D01*
X49676260Y48680000D01*
X49963158Y48737068D01*
X50233411Y48849010D01*
X50476632Y49011525D01*
X50683475Y49218368D01*
X50800000Y49392760D01*
X50916525Y49218368D01*
X51123368Y49011525D01*
X51366589Y48849010D01*
X51636842Y48737068D01*
X51923740Y48680000D01*
X52216260Y48680000D01*
X52503158Y48737068D01*
X52773411Y48849010D01*
X53016632Y49011525D01*
X53223475Y49218368D01*
X53340000Y49392760D01*
X53456525Y49218368D01*
X53663368Y49011525D01*
X53906589Y48849010D01*
X54176842Y48737068D01*
X54463740Y48680000D01*
X54756260Y48680000D01*
X55043158Y48737068D01*
X55313411Y48849010D01*
X55556632Y49011525D01*
X55763475Y49218368D01*
X55880000Y49392760D01*
X55996525Y49218368D01*
X56203368Y49011525D01*
X56446589Y48849010D01*
X56716842Y48737068D01*
X57003740Y48680000D01*
X57296260Y48680000D01*
X57583158Y48737068D01*
X57853411Y48849010D01*
X58096632Y49011525D01*
X58303475Y49218368D01*
X58420000Y49392760D01*
X58536525Y49218368D01*
X58743368Y49011525D01*
X58986589Y48849010D01*
X59256842Y48737068D01*
X59543740Y48680000D01*
X59836260Y48680000D01*
X60123158Y48737068D01*
X60393411Y48849010D01*
X60636632Y49011525D01*
X60843475Y49218368D01*
X61005990Y49461589D01*
X61117932Y49731842D01*
X61175000Y50018740D01*
X61175000Y50311260D01*
X61117932Y50598158D01*
X61005990Y50868411D01*
X60843475Y51111632D01*
X60636632Y51318475D01*
X60462240Y51435000D01*
X60636632Y51551525D01*
X60843475Y51758368D01*
X61005990Y52001589D01*
X61117932Y52271842D01*
X61175000Y52558740D01*
X61175000Y52851260D01*
X61117932Y53138158D01*
X61005990Y53408411D01*
X60843475Y53651632D01*
X60636632Y53858475D01*
X60574485Y53900000D01*
X62790001Y53900000D01*
X62790000Y710000D01*
X55494485Y710000D01*
X55556632Y751525D01*
X55763475Y958368D01*
X55925990Y1201589D01*
X56037932Y1471842D01*
X56095000Y1758740D01*
X56095000Y2051260D01*
X56037932Y2338158D01*
X55925990Y2608411D01*
X55763475Y2851632D01*
X55556632Y3058475D01*
X55382240Y3175000D01*
X55556632Y3291525D01*
X55763475Y3498368D01*
X55925990Y3741589D01*
X56037932Y4011842D01*
X56095000Y4298740D01*
X56095000Y4591260D01*
X56037932Y4878158D01*
X55925990Y5148411D01*
X55763475Y5391632D01*
X55556632Y5598475D01*
X55313411Y5760990D01*
X55043158Y5872932D01*
X54756260Y5930000D01*
X54463740Y5930000D01*
X54176842Y5872932D01*
X53906589Y5760990D01*
X53663368Y5598475D01*
X53456525Y5391632D01*
X53340000Y5217240D01*
X53223475Y5391632D01*
X53016632Y5598475D01*
X52773411Y5760990D01*
X52503158Y5872932D01*
X52216260Y5930000D01*
X51923740Y5930000D01*
X51636842Y5872932D01*
X51366589Y5760990D01*
X51123368Y5598475D01*
X50916525Y5391632D01*
X50800000Y5217240D01*
X50683475Y5391632D01*
X50476632Y5598475D01*
X50233411Y5760990D01*
X49963158Y5872932D01*
X49676260Y5930000D01*
X49383740Y5930000D01*
X49096842Y5872932D01*
X48826589Y5760990D01*
X48583368Y5598475D01*
X48376525Y5391632D01*
X48260000Y5217240D01*
X48143475Y5391632D01*
X47936632Y5598475D01*
X47693411Y5760990D01*
X47423158Y5872932D01*
X47136260Y5930000D01*
X46843740Y5930000D01*
X46556842Y5872932D01*
X46286589Y5760990D01*
X46043368Y5598475D01*
X45836525Y5391632D01*
X45720000Y5217240D01*
X45603475Y5391632D01*
X45396632Y5598475D01*
X45153411Y5760990D01*
X44883158Y5872932D01*
X44596260Y5930000D01*
X44303740Y5930000D01*
X44016842Y5872932D01*
X43746589Y5760990D01*
X43503368Y5598475D01*
X43296525Y5391632D01*
X43180000Y5217240D01*
X43063475Y5391632D01*
X42856632Y5598475D01*
X42613411Y5760990D01*
X42343158Y5872932D01*
X42056260Y5930000D01*
X41763740Y5930000D01*
X41476842Y5872932D01*
X41206589Y5760990D01*
X40963368Y5598475D01*
X40756525Y5391632D01*
X40640000Y5217240D01*
X40523475Y5391632D01*
X40316632Y5598475D01*
X40073411Y5760990D01*
X39803158Y5872932D01*
X39516260Y5930000D01*
X39223740Y5930000D01*
X38936842Y5872932D01*
X38666589Y5760990D01*
X38423368Y5598475D01*
X38216525Y5391632D01*
X38100000Y5217240D01*
X37983475Y5391632D01*
X37776632Y5598475D01*
X37533411Y5760990D01*
X37263158Y5872932D01*
X36976260Y5930000D01*
X36683740Y5930000D01*
X36396842Y5872932D01*
X36126589Y5760990D01*
X35883368Y5598475D01*
X35676525Y5391632D01*
X35560000Y5217240D01*
X35443475Y5391632D01*
X35236632Y5598475D01*
X34993411Y5760990D01*
X34723158Y5872932D01*
X34436260Y5930000D01*
X34143740Y5930000D01*
X33856842Y5872932D01*
X33586589Y5760990D01*
X33343368Y5598475D01*
X33136525Y5391632D01*
X33020000Y5217240D01*
X32903475Y5391632D01*
X32696632Y5598475D01*
X32453411Y5760990D01*
X32183158Y5872932D01*
X31896260Y5930000D01*
X31603740Y5930000D01*
X31316842Y5872932D01*
X31046589Y5760990D01*
X30803368Y5598475D01*
X30596525Y5391632D01*
X30480000Y5217240D01*
X30363475Y5391632D01*
X30156632Y5598475D01*
X29913411Y5760990D01*
X29643158Y5872932D01*
X29356260Y5930000D01*
X29063740Y5930000D01*
X28776842Y5872932D01*
X28506589Y5760990D01*
X28263368Y5598475D01*
X28056525Y5391632D01*
X27940000Y5217240D01*
X27823475Y5391632D01*
X27616632Y5598475D01*
X27373411Y5760990D01*
X27103158Y5872932D01*
X26816260Y5930000D01*
X26523740Y5930000D01*
X26236842Y5872932D01*
X25966589Y5760990D01*
X25723368Y5598475D01*
X25516525Y5391632D01*
X25400000Y5217240D01*
X25283475Y5391632D01*
X25076632Y5598475D01*
X24833411Y5760990D01*
X24563158Y5872932D01*
X24276260Y5930000D01*
X23983740Y5930000D01*
X23696842Y5872932D01*
X23426589Y5760990D01*
X23183368Y5598475D01*
X22976525Y5391632D01*
X22860000Y5217240D01*
X22743475Y5391632D01*
X22536632Y5598475D01*
X22293411Y5760990D01*
X22023158Y5872932D01*
X21736260Y5930000D01*
X21443740Y5930000D01*
X21156842Y5872932D01*
X20886589Y5760990D01*
X20643368Y5598475D01*
X20436525Y5391632D01*
X20320000Y5217240D01*
X20203475Y5391632D01*
X19996632Y5598475D01*
X19753411Y5760990D01*
X19483158Y5872932D01*
X19196260Y5930000D01*
X18903740Y5930000D01*
X18616842Y5872932D01*
X18346589Y5760990D01*
X18103368Y5598475D01*
X17896525Y5391632D01*
X17780000Y5217240D01*
X17663475Y5391632D01*
X17456632Y5598475D01*
X17213411Y5760990D01*
X16943158Y5872932D01*
X16656260Y5930000D01*
X16363740Y5930000D01*
X16076842Y5872932D01*
X15806589Y5760990D01*
X15563368Y5598475D01*
X15356525Y5391632D01*
X15240000Y5217240D01*
X15123475Y5391632D01*
X14916632Y5598475D01*
X14673411Y5760990D01*
X14403158Y5872932D01*
X14116260Y5930000D01*
X13823740Y5930000D01*
X13536842Y5872932D01*
X13266589Y5760990D01*
X13023368Y5598475D01*
X12816525Y5391632D01*
X12700000Y5217240D01*
X12583475Y5391632D01*
X12376632Y5598475D01*
X12133411Y5760990D01*
X11863158Y5872932D01*
X11576260Y5930000D01*
X11283740Y5930000D01*
X10996842Y5872932D01*
X10726589Y5760990D01*
X10483368Y5598475D01*
X10276525Y5391632D01*
X10160000Y5217240D01*
X10043475Y5391632D01*
X9836632Y5598475D01*
X9593411Y5760990D01*
X9323158Y5872932D01*
X9036260Y5930000D01*
X8743740Y5930000D01*
X8456842Y5872932D01*
X8186589Y5760990D01*
X7943368Y5598475D01*
X7736525Y5391632D01*
X7620000Y5217240D01*
X7503475Y5391632D01*
X7296632Y5598475D01*
X7053411Y5760990D01*
X6783158Y5872932D01*
X6496260Y5930000D01*
X6203740Y5930000D01*
X5916842Y5872932D01*
X5646589Y5760990D01*
X5403368Y5598475D01*
X5196525Y5391632D01*
X5034010Y5148411D01*
X4922068Y4878158D01*
X4865000Y4591260D01*
X4865000Y4298740D01*
X4922068Y4011842D01*
X5034010Y3741589D01*
X5196525Y3498368D01*
X5403368Y3291525D01*
X5577760Y3175000D01*
X5403368Y3058475D01*
X5196525Y2851632D01*
X5034010Y2608411D01*
X4922068Y2338158D01*
X4865000Y2051260D01*
X4865000Y1758740D01*
X4922068Y1471842D01*
X5034010Y1201589D01*
X5196525Y958368D01*
X5403368Y751525D01*
X5465515Y710000D01*
X710000Y710000D01*
X710000Y6910000D01*
X7585123Y6910000D01*
X7620000Y6906565D01*
X7654877Y6910000D01*
X7759184Y6920273D01*
X7893020Y6960872D01*
X8016363Y7026800D01*
X8124475Y7115525D01*
X8213200Y7223637D01*
X8279128Y7346980D01*
X8319727Y7480816D01*
X8333435Y7620000D01*
X8330000Y7654877D01*
X8330000Y9996061D01*
X23088600Y9996061D01*
X23088600Y9815939D01*
X23123740Y9639279D01*
X23192670Y9472869D01*
X23292739Y9323104D01*
X23420104Y9195739D01*
X23569869Y9095670D01*
X23736279Y9026740D01*
X23912939Y8991600D01*
X24093061Y8991600D01*
X24269721Y9026740D01*
X24436131Y9095670D01*
X24585896Y9195739D01*
X24713261Y9323104D01*
X24813330Y9472869D01*
X24882260Y9639279D01*
X24917400Y9815939D01*
X24917400Y9996061D01*
X24882260Y10172721D01*
X24813330Y10339131D01*
X24713261Y10488896D01*
X24585896Y10616261D01*
X24436131Y10716330D01*
X24269721Y10785260D01*
X24093061Y10820400D01*
X23912939Y10820400D01*
X23736279Y10785260D01*
X23569869Y10716330D01*
X23420104Y10616261D01*
X23292739Y10488896D01*
X23192670Y10339131D01*
X23123740Y10172721D01*
X23088600Y9996061D01*
X8330000Y9996061D01*
X8330000Y17870061D01*
X45059600Y17870061D01*
X45059600Y17689939D01*
X45094740Y17513279D01*
X45163670Y17346869D01*
X45263739Y17197104D01*
X45391104Y17069739D01*
X45540869Y16969670D01*
X45707279Y16900740D01*
X45883939Y16865600D01*
X46064061Y16865600D01*
X46240721Y16900740D01*
X46407131Y16969670D01*
X46556896Y17069739D01*
X46684261Y17197104D01*
X46784330Y17346869D01*
X46853260Y17513279D01*
X46888400Y17689939D01*
X46888400Y17870061D01*
X46853260Y18046721D01*
X46784330Y18213131D01*
X46684261Y18362896D01*
X46556896Y18490261D01*
X46407131Y18590330D01*
X46240721Y18659260D01*
X46064061Y18694400D01*
X45883939Y18694400D01*
X45707279Y18659260D01*
X45540869Y18590330D01*
X45391104Y18490261D01*
X45263739Y18362896D01*
X45163670Y18213131D01*
X45094740Y18046721D01*
X45059600Y17870061D01*
X8330000Y17870061D01*
X8330000Y18841469D01*
X13306074Y18841469D01*
X13416921Y18564286D01*
X13727840Y18410911D01*
X14062705Y18321140D01*
X14408650Y18298424D01*
X14752380Y18343634D01*
X15080685Y18455034D01*
X15285079Y18564286D01*
X15395926Y18841469D01*
X18386074Y18841469D01*
X18496921Y18564286D01*
X18807840Y18410911D01*
X19142705Y18321140D01*
X19488650Y18298424D01*
X19832380Y18343634D01*
X20160685Y18455034D01*
X20365079Y18564286D01*
X20475926Y18841469D01*
X19431000Y19886395D01*
X18386074Y18841469D01*
X15395926Y18841469D01*
X14351000Y19886395D01*
X13306074Y18841469D01*
X8330000Y18841469D01*
X8330000Y20008350D01*
X12583424Y20008350D01*
X12628634Y19664620D01*
X12740034Y19336315D01*
X12849286Y19131921D01*
X13126469Y19021074D01*
X14171395Y20066000D01*
X14530605Y20066000D01*
X15575531Y19021074D01*
X15852714Y19131921D01*
X16006089Y19442840D01*
X16095860Y19777705D01*
X16111004Y20008350D01*
X17663424Y20008350D01*
X17708634Y19664620D01*
X17820034Y19336315D01*
X17929286Y19131921D01*
X18206469Y19021074D01*
X19251395Y20066000D01*
X19610605Y20066000D01*
X20655531Y19021074D01*
X20932714Y19131921D01*
X21086089Y19442840D01*
X21175860Y19777705D01*
X21198576Y20123650D01*
X21153366Y20467380D01*
X21041966Y20795685D01*
X20932714Y21000079D01*
X20655531Y21110926D01*
X19610605Y20066000D01*
X19251395Y20066000D01*
X18206469Y21110926D01*
X17929286Y21000079D01*
X17775911Y20689160D01*
X17686140Y20354295D01*
X17663424Y20008350D01*
X16111004Y20008350D01*
X16118576Y20123650D01*
X16073366Y20467380D01*
X15961966Y20795685D01*
X15852714Y21000079D01*
X15575531Y21110926D01*
X14530605Y20066000D01*
X14171395Y20066000D01*
X13126469Y21110926D01*
X12849286Y21000079D01*
X12695911Y20689160D01*
X12606140Y20354295D01*
X12583424Y20008350D01*
X8330000Y20008350D01*
X8330000Y21290531D01*
X13306074Y21290531D01*
X14351000Y20245605D01*
X15395926Y21290531D01*
X15285079Y21567714D01*
X14974160Y21721089D01*
X14639295Y21810860D01*
X14293350Y21833576D01*
X13949620Y21788366D01*
X13621315Y21676966D01*
X13416921Y21567714D01*
X13306074Y21290531D01*
X8330000Y21290531D01*
X8330000Y22769496D01*
X15231000Y22769496D01*
X15231000Y22442504D01*
X15294793Y22121796D01*
X15419927Y21819695D01*
X15601594Y21547812D01*
X15832812Y21316594D01*
X16104695Y21134927D01*
X16406796Y21009793D01*
X16727504Y20946000D01*
X17054496Y20946000D01*
X17375204Y21009793D01*
X17677305Y21134927D01*
X17910182Y21290531D01*
X18386074Y21290531D01*
X19431000Y20245605D01*
X20475926Y21290531D01*
X20365079Y21567714D01*
X20054160Y21721089D01*
X19719295Y21810860D01*
X19373350Y21833576D01*
X19029620Y21788366D01*
X18701315Y21676966D01*
X18496921Y21567714D01*
X18386074Y21290531D01*
X17910182Y21290531D01*
X17949188Y21316594D01*
X18180406Y21547812D01*
X18362073Y21819695D01*
X18487207Y22121796D01*
X18500387Y22188061D01*
X35407600Y22188061D01*
X35407600Y22007939D01*
X35442740Y21831279D01*
X35511670Y21664869D01*
X35611739Y21515104D01*
X35739104Y21387739D01*
X35888869Y21287670D01*
X36055279Y21218740D01*
X36231939Y21183600D01*
X36412061Y21183600D01*
X36588721Y21218740D01*
X36755131Y21287670D01*
X36904896Y21387739D01*
X37032261Y21515104D01*
X37132330Y21664869D01*
X37201260Y21831279D01*
X37236400Y22007939D01*
X37236400Y22188061D01*
X37201260Y22364721D01*
X37132330Y22531131D01*
X37032261Y22680896D01*
X36904896Y22808261D01*
X36755131Y22908330D01*
X36588721Y22977260D01*
X36412061Y23012400D01*
X36231939Y23012400D01*
X36055279Y22977260D01*
X35888869Y22908330D01*
X35739104Y22808261D01*
X35611739Y22680896D01*
X35511670Y22531131D01*
X35442740Y22364721D01*
X35407600Y22188061D01*
X18500387Y22188061D01*
X18551000Y22442504D01*
X18551000Y22769496D01*
X18487207Y23090204D01*
X18362073Y23392305D01*
X18180406Y23664188D01*
X17949188Y23895406D01*
X17910183Y23921469D01*
X18386074Y23921469D01*
X18496921Y23644286D01*
X18807840Y23490911D01*
X19142705Y23401140D01*
X19488650Y23378424D01*
X19832380Y23423634D01*
X20160685Y23535034D01*
X20365079Y23644286D01*
X20475926Y23921469D01*
X19431000Y24966395D01*
X18386074Y23921469D01*
X17910183Y23921469D01*
X17677305Y24077073D01*
X17375204Y24202207D01*
X17054496Y24266000D01*
X16727504Y24266000D01*
X16406796Y24202207D01*
X16104695Y24077073D01*
X15832812Y23895406D01*
X15601594Y23664188D01*
X15419927Y23392305D01*
X15294793Y23090204D01*
X15231000Y22769496D01*
X8330000Y22769496D01*
X8330000Y23921469D01*
X13306074Y23921469D01*
X13416921Y23644286D01*
X13727840Y23490911D01*
X14062705Y23401140D01*
X14408650Y23378424D01*
X14752380Y23423634D01*
X15080685Y23535034D01*
X15285079Y23644286D01*
X15395926Y23921469D01*
X14351000Y24966395D01*
X13306074Y23921469D01*
X8330000Y23921469D01*
X8330000Y25088350D01*
X12583424Y25088350D01*
X12628634Y24744620D01*
X12740034Y24416315D01*
X12849286Y24211921D01*
X13126469Y24101074D01*
X14171395Y25146000D01*
X14530605Y25146000D01*
X15575531Y24101074D01*
X15852714Y24211921D01*
X16006089Y24522840D01*
X16095860Y24857705D01*
X16111004Y25088350D01*
X17663424Y25088350D01*
X17708634Y24744620D01*
X17820034Y24416315D01*
X17929286Y24211921D01*
X18206469Y24101074D01*
X19251395Y25146000D01*
X19610605Y25146000D01*
X20655531Y24101074D01*
X20932714Y24211921D01*
X21086089Y24522840D01*
X21175860Y24857705D01*
X21198576Y25203650D01*
X21153366Y25547380D01*
X21041966Y25875685D01*
X20932714Y26080079D01*
X20655531Y26190926D01*
X19610605Y25146000D01*
X19251395Y25146000D01*
X18206469Y26190926D01*
X17929286Y26080079D01*
X17775911Y25769160D01*
X17686140Y25434295D01*
X17663424Y25088350D01*
X16111004Y25088350D01*
X16118576Y25203650D01*
X16073366Y25547380D01*
X15961966Y25875685D01*
X15852714Y26080079D01*
X15575531Y26190926D01*
X14530605Y25146000D01*
X14171395Y25146000D01*
X13126469Y26190926D01*
X12849286Y26080079D01*
X12695911Y25769160D01*
X12606140Y25434295D01*
X12583424Y25088350D01*
X8330000Y25088350D01*
X8330000Y26370531D01*
X13306074Y26370531D01*
X14351000Y25325605D01*
X15395926Y26370531D01*
X18386074Y26370531D01*
X19431000Y25325605D01*
X20475926Y26370531D01*
X20365079Y26647714D01*
X20054160Y26801089D01*
X19719295Y26890860D01*
X19373350Y26913576D01*
X19029620Y26868366D01*
X18701315Y26756966D01*
X18496921Y26647714D01*
X18386074Y26370531D01*
X15395926Y26370531D01*
X15285079Y26647714D01*
X14974160Y26801089D01*
X14639295Y26890860D01*
X14293350Y26913576D01*
X13949620Y26868366D01*
X13621315Y26756966D01*
X13416921Y26647714D01*
X13306074Y26370531D01*
X8330000Y26370531D01*
X8330000Y29935061D01*
X37820600Y29935061D01*
X37820600Y29754939D01*
X37855740Y29578279D01*
X37924670Y29411869D01*
X37974695Y29337000D01*
X37924670Y29262131D01*
X37855740Y29095721D01*
X37820600Y28919061D01*
X37820600Y28738939D01*
X37855740Y28562279D01*
X37924670Y28395869D01*
X38024739Y28246104D01*
X38152104Y28118739D01*
X38301869Y28018670D01*
X38468279Y27949740D01*
X38644939Y27914600D01*
X38825061Y27914600D01*
X39001721Y27949740D01*
X39168131Y28018670D01*
X39317896Y28118739D01*
X39445261Y28246104D01*
X39470622Y28284061D01*
X43662600Y28284061D01*
X43662600Y28103939D01*
X43697740Y27927279D01*
X43766670Y27760869D01*
X43866739Y27611104D01*
X43994104Y27483739D01*
X44143869Y27383670D01*
X44310279Y27314740D01*
X44486939Y27279600D01*
X44667061Y27279600D01*
X44843721Y27314740D01*
X45010131Y27383670D01*
X45159896Y27483739D01*
X45287261Y27611104D01*
X45387330Y27760869D01*
X45456260Y27927279D01*
X45491400Y28103939D01*
X45491400Y28284061D01*
X45456260Y28460721D01*
X45387330Y28627131D01*
X45287261Y28776896D01*
X45159896Y28904261D01*
X45010131Y29004330D01*
X44843721Y29073260D01*
X44667061Y29108400D01*
X44486939Y29108400D01*
X44310279Y29073260D01*
X44143869Y29004330D01*
X43994104Y28904261D01*
X43866739Y28776896D01*
X43766670Y28627131D01*
X43697740Y28460721D01*
X43662600Y28284061D01*
X39470622Y28284061D01*
X39545330Y28395869D01*
X39614260Y28562279D01*
X39649400Y28738939D01*
X39649400Y28919061D01*
X39614260Y29095721D01*
X39545330Y29262131D01*
X39495305Y29337000D01*
X39545330Y29411869D01*
X39614260Y29578279D01*
X39649400Y29754939D01*
X39649400Y29808061D01*
X42519600Y29808061D01*
X42519600Y29627939D01*
X42554740Y29451279D01*
X42623670Y29284869D01*
X42723739Y29135104D01*
X42851104Y29007739D01*
X43000869Y28907670D01*
X43167279Y28838740D01*
X43343939Y28803600D01*
X43524061Y28803600D01*
X43700721Y28838740D01*
X43867131Y28907670D01*
X44016896Y29007739D01*
X44144261Y29135104D01*
X44244330Y29284869D01*
X44313260Y29451279D01*
X44348400Y29627939D01*
X44348400Y29808061D01*
X44313260Y29984721D01*
X44244330Y30151131D01*
X44144261Y30300896D01*
X44016896Y30428261D01*
X43867131Y30528330D01*
X43700721Y30597260D01*
X43524061Y30632400D01*
X43343939Y30632400D01*
X43167279Y30597260D01*
X43000869Y30528330D01*
X42851104Y30428261D01*
X42723739Y30300896D01*
X42623670Y30151131D01*
X42554740Y29984721D01*
X42519600Y29808061D01*
X39649400Y29808061D01*
X39649400Y29935061D01*
X39614260Y30111721D01*
X39545330Y30278131D01*
X39445261Y30427896D01*
X39317896Y30555261D01*
X39168131Y30655330D01*
X39001721Y30724260D01*
X38825061Y30759400D01*
X38644939Y30759400D01*
X38468279Y30724260D01*
X38301869Y30655330D01*
X38152104Y30555261D01*
X38024739Y30427896D01*
X37924670Y30278131D01*
X37855740Y30111721D01*
X37820600Y29935061D01*
X8330000Y29935061D01*
X8330000Y33745061D01*
X23088600Y33745061D01*
X23088600Y33564939D01*
X23123740Y33388279D01*
X23192670Y33221869D01*
X23292739Y33072104D01*
X23420104Y32944739D01*
X23569869Y32844670D01*
X23736279Y32775740D01*
X23912939Y32740600D01*
X24093061Y32740600D01*
X24269721Y32775740D01*
X24436131Y32844670D01*
X24585896Y32944739D01*
X24713261Y33072104D01*
X24813330Y33221869D01*
X24882260Y33388279D01*
X24902704Y33491061D01*
X29565600Y33491061D01*
X29565600Y33310939D01*
X29600740Y33134279D01*
X29669670Y32967869D01*
X29769739Y32818104D01*
X29897104Y32690739D01*
X30046869Y32590670D01*
X30213279Y32521740D01*
X30389939Y32486600D01*
X30570061Y32486600D01*
X30746721Y32521740D01*
X30913131Y32590670D01*
X31062896Y32690739D01*
X31190261Y32818104D01*
X31290330Y32967869D01*
X31359260Y33134279D01*
X31394400Y33310939D01*
X31394400Y33491061D01*
X31359260Y33667721D01*
X31290330Y33834131D01*
X31190261Y33983896D01*
X31062896Y34111261D01*
X30913131Y34211330D01*
X30746721Y34280260D01*
X30570061Y34315400D01*
X30389939Y34315400D01*
X30213279Y34280260D01*
X30046869Y34211330D01*
X29897104Y34111261D01*
X29769739Y33983896D01*
X29669670Y33834131D01*
X29600740Y33667721D01*
X29565600Y33491061D01*
X24902704Y33491061D01*
X24917400Y33564939D01*
X24917400Y33745061D01*
X24882260Y33921721D01*
X24813330Y34088131D01*
X24713261Y34237896D01*
X24585896Y34365261D01*
X24436131Y34465330D01*
X24269721Y34534260D01*
X24093061Y34569400D01*
X23912939Y34569400D01*
X23736279Y34534260D01*
X23569869Y34465330D01*
X23420104Y34365261D01*
X23292739Y34237896D01*
X23192670Y34088131D01*
X23123740Y33921721D01*
X23088600Y33745061D01*
X8330000Y33745061D01*
X8330000Y35015061D01*
X35509200Y35015061D01*
X35509200Y34834939D01*
X35544340Y34658279D01*
X35613270Y34491869D01*
X35713339Y34342104D01*
X35840704Y34214739D01*
X35990469Y34114670D01*
X36156879Y34045740D01*
X36333539Y34010600D01*
X36513661Y34010600D01*
X36690321Y34045740D01*
X36856731Y34114670D01*
X37006496Y34214739D01*
X37133861Y34342104D01*
X37233930Y34491869D01*
X37302860Y34658279D01*
X37338000Y34834939D01*
X37338000Y35015061D01*
X37302860Y35191721D01*
X37233930Y35358131D01*
X37133861Y35507896D01*
X37006496Y35635261D01*
X36856731Y35735330D01*
X36690321Y35804260D01*
X36513661Y35839400D01*
X36333539Y35839400D01*
X36156879Y35804260D01*
X35990469Y35735330D01*
X35840704Y35635261D01*
X35713339Y35507896D01*
X35613270Y35358131D01*
X35544340Y35191721D01*
X35509200Y35015061D01*
X8330000Y35015061D01*
X8330000Y35904061D01*
X45313600Y35904061D01*
X45313600Y35723939D01*
X45348740Y35547279D01*
X45417670Y35380869D01*
X45517739Y35231104D01*
X45645104Y35103739D01*
X45794869Y35003670D01*
X45961279Y34934740D01*
X46137939Y34899600D01*
X46318061Y34899600D01*
X46494721Y34934740D01*
X46661131Y35003670D01*
X46810896Y35103739D01*
X46919733Y35212576D01*
X46977279Y35188740D01*
X47153939Y35153600D01*
X47334061Y35153600D01*
X47510721Y35188740D01*
X47677131Y35257670D01*
X47826896Y35357739D01*
X47954261Y35485104D01*
X48054330Y35634869D01*
X48123260Y35801279D01*
X48158400Y35977939D01*
X48158400Y36158061D01*
X52552600Y36158061D01*
X52552600Y35977939D01*
X52587740Y35801279D01*
X52656670Y35634869D01*
X52756739Y35485104D01*
X52884104Y35357739D01*
X53033869Y35257670D01*
X53200279Y35188740D01*
X53376939Y35153600D01*
X53557061Y35153600D01*
X53733721Y35188740D01*
X53900131Y35257670D01*
X54049896Y35357739D01*
X54177261Y35485104D01*
X54277330Y35634869D01*
X54346260Y35801279D01*
X54381400Y35977939D01*
X54381400Y36158061D01*
X54346260Y36334721D01*
X54277330Y36501131D01*
X54177261Y36650896D01*
X54049896Y36778261D01*
X53900131Y36878330D01*
X53733721Y36947260D01*
X53557061Y36982400D01*
X53376939Y36982400D01*
X53200279Y36947260D01*
X53033869Y36878330D01*
X52884104Y36778261D01*
X52756739Y36650896D01*
X52656670Y36501131D01*
X52587740Y36334721D01*
X52552600Y36158061D01*
X48158400Y36158061D01*
X48123260Y36334721D01*
X48054330Y36501131D01*
X47954261Y36650896D01*
X47826896Y36778261D01*
X47677131Y36878330D01*
X47510721Y36947260D01*
X47334061Y36982400D01*
X47153939Y36982400D01*
X46977279Y36947260D01*
X46810869Y36878330D01*
X46661104Y36778261D01*
X46552267Y36669424D01*
X46494721Y36693260D01*
X46318061Y36728400D01*
X46137939Y36728400D01*
X45961279Y36693260D01*
X45794869Y36624330D01*
X45645104Y36524261D01*
X45517739Y36396896D01*
X45417670Y36247131D01*
X45348740Y36080721D01*
X45313600Y35904061D01*
X8330000Y35904061D01*
X8330000Y37301061D01*
X49250600Y37301061D01*
X49250600Y37120939D01*
X49285740Y36944279D01*
X49354670Y36777869D01*
X49454739Y36628104D01*
X49582104Y36500739D01*
X49731869Y36400670D01*
X49898279Y36331740D01*
X50074939Y36296600D01*
X50255061Y36296600D01*
X50431721Y36331740D01*
X50598131Y36400670D01*
X50747896Y36500739D01*
X50875261Y36628104D01*
X50975330Y36777869D01*
X51044260Y36944279D01*
X51079400Y37120939D01*
X51079400Y37301061D01*
X51044260Y37477721D01*
X50975330Y37644131D01*
X50875261Y37793896D01*
X50747896Y37921261D01*
X50598131Y38021330D01*
X50431721Y38090260D01*
X50255061Y38125400D01*
X50074939Y38125400D01*
X49898279Y38090260D01*
X49731869Y38021330D01*
X49582104Y37921261D01*
X49454739Y37793896D01*
X49354670Y37644131D01*
X49285740Y37477721D01*
X49250600Y37301061D01*
X8330000Y37301061D01*
X8330000Y39079061D01*
X35026600Y39079061D01*
X35026600Y38898939D01*
X35061740Y38722279D01*
X35130670Y38555869D01*
X35230739Y38406104D01*
X35358104Y38278739D01*
X35507869Y38178670D01*
X35674279Y38109740D01*
X35850939Y38074600D01*
X36031061Y38074600D01*
X36207721Y38109740D01*
X36374131Y38178670D01*
X36523896Y38278739D01*
X36651261Y38406104D01*
X36751330Y38555869D01*
X36820260Y38722279D01*
X36855400Y38898939D01*
X36855400Y39079061D01*
X36830139Y39206061D01*
X37820600Y39206061D01*
X37820600Y39025939D01*
X37855740Y38849279D01*
X37924670Y38682869D01*
X38024739Y38533104D01*
X38152104Y38405739D01*
X38301869Y38305670D01*
X38468279Y38236740D01*
X38644939Y38201600D01*
X38825061Y38201600D01*
X39001721Y38236740D01*
X39168131Y38305670D01*
X39317896Y38405739D01*
X39445261Y38533104D01*
X39545330Y38682869D01*
X39602300Y38820405D01*
X39659270Y38682869D01*
X39759339Y38533104D01*
X39886704Y38405739D01*
X40036469Y38305670D01*
X40202879Y38236740D01*
X40379539Y38201600D01*
X40559661Y38201600D01*
X40736321Y38236740D01*
X40902731Y38305670D01*
X41052496Y38405739D01*
X41179861Y38533104D01*
X41279930Y38682869D01*
X41348860Y38849279D01*
X41359219Y38901356D01*
X41454131Y38940670D01*
X41603896Y39040739D01*
X41731261Y39168104D01*
X41831330Y39317869D01*
X41900260Y39484279D01*
X41935400Y39660939D01*
X41935400Y39841061D01*
X41900260Y40017721D01*
X41831330Y40184131D01*
X41731261Y40333896D01*
X41603896Y40461261D01*
X41454131Y40561330D01*
X41287721Y40630260D01*
X41111061Y40665400D01*
X40930939Y40665400D01*
X40754279Y40630260D01*
X40587869Y40561330D01*
X40438104Y40461261D01*
X40310739Y40333896D01*
X40210670Y40184131D01*
X40141740Y40017721D01*
X40131381Y39965644D01*
X40036469Y39926330D01*
X39886704Y39826261D01*
X39759339Y39698896D01*
X39659270Y39549131D01*
X39602300Y39411595D01*
X39545330Y39549131D01*
X39445261Y39698896D01*
X39317896Y39826261D01*
X39168131Y39926330D01*
X39001721Y39995260D01*
X38825061Y40030400D01*
X38644939Y40030400D01*
X38468279Y39995260D01*
X38301869Y39926330D01*
X38152104Y39826261D01*
X38024739Y39698896D01*
X37924670Y39549131D01*
X37855740Y39382721D01*
X37820600Y39206061D01*
X36830139Y39206061D01*
X36820260Y39255721D01*
X36751330Y39422131D01*
X36651261Y39571896D01*
X36523896Y39699261D01*
X36374131Y39799330D01*
X36207721Y39868260D01*
X36031061Y39903400D01*
X35850939Y39903400D01*
X35674279Y39868260D01*
X35507869Y39799330D01*
X35358104Y39699261D01*
X35230739Y39571896D01*
X35130670Y39422131D01*
X35061740Y39255721D01*
X35026600Y39079061D01*
X8330000Y39079061D01*
X8330000Y42381061D01*
X47345600Y42381061D01*
X47345600Y42200939D01*
X47380740Y42024279D01*
X47449670Y41857869D01*
X47549739Y41708104D01*
X47677104Y41580739D01*
X47826869Y41480670D01*
X47993279Y41411740D01*
X48169939Y41376600D01*
X48350061Y41376600D01*
X48526721Y41411740D01*
X48693131Y41480670D01*
X48842896Y41580739D01*
X48970261Y41708104D01*
X49070330Y41857869D01*
X49139260Y42024279D01*
X49174400Y42200939D01*
X49174400Y42381061D01*
X49139260Y42557721D01*
X49070330Y42724131D01*
X48970261Y42873896D01*
X48842896Y43001261D01*
X48693131Y43101330D01*
X48526721Y43170260D01*
X48350061Y43205400D01*
X48169939Y43205400D01*
X47993279Y43170260D01*
X47826869Y43101330D01*
X47677104Y43001261D01*
X47549739Y42873896D01*
X47449670Y42724131D01*
X47380740Y42557721D01*
X47345600Y42381061D01*
X8330000Y42381061D01*
X8330000Y43651061D01*
X45948600Y43651061D01*
X45948600Y43470939D01*
X45983740Y43294279D01*
X46052670Y43127869D01*
X46152739Y42978104D01*
X46280104Y42850739D01*
X46429869Y42750670D01*
X46596279Y42681740D01*
X46772939Y42646600D01*
X46953061Y42646600D01*
X47129721Y42681740D01*
X47296131Y42750670D01*
X47445896Y42850739D01*
X47573261Y42978104D01*
X47673330Y43127869D01*
X47742260Y43294279D01*
X47777400Y43470939D01*
X47777400Y43651061D01*
X47742260Y43827721D01*
X47673330Y43994131D01*
X47573261Y44143896D01*
X47445896Y44271261D01*
X47296131Y44371330D01*
X47129721Y44440260D01*
X46953061Y44475400D01*
X46772939Y44475400D01*
X46596279Y44440260D01*
X46429869Y44371330D01*
X46280104Y44271261D01*
X46152739Y44143896D01*
X46052670Y43994131D01*
X45983740Y43827721D01*
X45948600Y43651061D01*
X8330000Y43651061D01*
X8330000Y46955124D01*
X8333435Y46990000D01*
X8319727Y47129184D01*
X8279128Y47263020D01*
X8213200Y47386363D01*
X8124475Y47494475D01*
X8016363Y47583200D01*
X7893020Y47649128D01*
X7759184Y47689727D01*
X7654877Y47700000D01*
X7620000Y47703435D01*
X7585123Y47700000D01*
X710000Y47700000D01*
X710000Y53900000D01*
X5465515Y53900000D01*
X5403368Y53858475D01*
G37*
%TD.AperFunction*%
%TD*%
M02*
