M48
; DRILL file {KiCad (5.1.9)-1} date 09/29/21 12:39:14
; FORMAT={-:-/ absolute / inch / decimal}
; #@! TF.CreationDate,2021-09-29T12:39:14-05:00
; #@! TF.GenerationSoftware,Kicad,Pcbnew,(5.1.9)-1
; #@! TF.FileFunction,Plated,1,4,PTH
FMAT,2
INCH
T1C0.0101
T2C0.0118
T3C0.0120
T4C0.0394
T5C0.0591
T6C0.0669
%
G90
G05
T1
X1.5571Y1.4378
X1.5571Y1.3972
X1.5571Y1.3567
X1.5571Y1.3161
X1.5571Y1.2756
X1.5976Y1.4378
X1.5976Y1.3972
X1.5976Y1.3567
X1.5976Y1.3161
X1.5976Y1.2756
X1.6382Y1.4378
X1.6382Y1.3972
X1.6382Y1.3567
X1.6382Y1.3161
X1.6382Y1.2756
X1.6787Y1.4378
X1.6787Y1.3972
X1.6787Y1.3567
X1.6787Y1.3161
X1.6787Y1.2756
X1.7193Y1.4378
X1.7193Y1.3972
X1.7193Y1.3567
X1.7193Y1.3161
X1.7193Y1.2756
T2
X0.365Y1.89
X0.365Y1.79
X0.365Y1.79
X0.365Y1.69
X0.365Y1.69
X0.365Y1.59
X0.365Y1.59
X0.365Y1.49
X0.365Y1.49
X0.365Y1.39
X0.365Y1.39
X0.365Y1.29
X0.365Y1.29
X0.365Y1.19
X0.365Y1.19
X0.365Y1.09
X0.365Y1.09
X0.365Y0.99
X0.365Y0.99
X0.365Y0.89
X0.365Y0.89
X0.365Y0.79
X0.365Y0.79
X0.365Y0.69
X0.365Y0.69
X0.365Y0.59
X0.365Y0.59
X0.365Y0.42
X0.365Y0.255
X0.465Y1.89
X0.465Y1.89
X0.465Y1.79
X0.465Y1.69
X0.465Y1.59
X0.465Y1.49
X0.465Y1.39
X0.465Y1.29
X0.465Y1.19
X0.465Y1.09
X0.465Y0.99
X0.465Y0.89
X0.465Y0.79
X0.465Y0.69
X0.465Y0.59
X0.5Y0.255
X0.508Y0.504
X0.51Y0.36
X0.565Y1.89
X0.565Y1.89
X0.565Y1.79
X0.565Y1.69
X0.565Y1.59
X0.565Y1.49
X0.565Y1.39
X0.565Y1.29
X0.565Y1.19
X0.565Y1.09
X0.565Y0.89
X0.565Y0.69
X0.565Y0.59
X0.595Y0.255
X0.625Y0.36
X0.641Y0.503
X0.665Y1.89
X0.665Y1.89
X0.665Y1.79
X0.665Y1.69
X0.665Y1.59
X0.665Y1.49
X0.665Y1.39
X0.665Y1.29
X0.665Y1.19
X0.665Y1.09
X0.665Y0.79
X0.665Y0.69
X0.665Y0.59
X0.695Y0.255
X0.726Y0.422
X0.765Y1.89
X0.765Y1.89
X0.765Y1.79
X0.765Y1.69
X0.765Y1.59
X0.765Y1.49
X0.765Y1.39
X0.765Y1.29
X0.765Y1.09
X0.765Y0.89
X0.765Y0.69
X0.765Y0.59
X0.795Y0.255
X0.85Y1.39
X0.865Y1.89
X0.865Y1.89
X0.865Y1.79
X0.865Y1.69
X0.865Y1.59
X0.865Y1.49
X0.865Y1.19
X0.865Y1.09
X0.865Y0.99
X0.865Y0.89
X0.865Y0.79
X0.865Y0.69
X0.865Y0.59
X0.865Y0.49
X0.895Y0.255
X0.96Y1.23
X0.965Y1.89
X0.965Y1.89
X0.965Y1.79
X0.965Y1.69
X0.965Y1.59
X0.965Y0.99
X0.965Y0.89
X0.965Y0.79
X0.965Y0.69
X0.965Y0.59
X0.965Y0.49
X0.995Y1.395
X1.01Y0.405
X1.015Y1.18
X1.025Y1.255
X1.05Y1.35
X1.065Y1.89
X1.065Y1.89
X1.065Y1.79
X1.065Y1.69
X1.065Y1.09
X1.065Y0.99
X1.065Y0.89
X1.065Y0.79
X1.065Y0.69
X1.065Y0.59
X1.065Y0.49
X1.075Y1.52
X1.085Y1.455
X1.1Y1.31
X1.11Y1.4
X1.12Y1.565
X1.13Y1.04
X1.135Y0.94
X1.15Y1.5
X1.16Y0.69
X1.16Y0.59
X1.165Y1.89
X1.165Y1.79
X1.165Y1.69
X1.165Y0.785
X1.17Y1.365
X1.185Y1.565
X1.19Y1.1
X1.2Y1.44
X1.225Y1.515
X1.23Y1.055
X1.25Y1.715
X1.25Y0.74
X1.25Y0.645
X1.265Y1.89
X1.265Y1.89
X1.265Y1.79
X1.285Y1.11
X1.29Y1.405
X1.35Y1.715
X1.365Y1.89
X1.365Y1.89
X1.365Y1.79
X1.48Y1.89
X1.48Y1.81
X1.5Y0.25
X1.58Y1.89
X1.58Y1.8
X1.625Y0.38
X1.635Y0.885
X1.65Y0.255
X1.665Y1.89
X1.665Y1.79
X1.665Y1.725
X1.675Y0.785
X1.68Y0.525
X1.74Y0.99
X1.75Y0.255
X1.762Y0.412
X1.765Y1.89
X1.765Y1.89
X1.765Y1.79
X1.77Y1.7
X1.83Y0.57
X1.835Y1.64
X1.845Y0.885
X1.85Y0.255
X1.855Y1.085
X1.86Y1.32
X1.86Y0.44
X1.865Y1.89
X1.935Y0.58
X1.95Y0.255
X1.965Y1.89
X2.04Y0.255
X2.057Y1.746
X2.065Y1.89
X2.135Y0.805
X2.135Y0.475
X2.14Y1.08
X2.145Y1.165
X2.145Y0.255
X2.155Y1.77
X2.165Y1.89
X2.22Y1.68
X2.245Y0.255
X2.26Y1.075
X2.26Y0.805
X2.265Y1.89
X2.265Y0.475
X2.27Y1.245
X2.27Y1.17
X2.28Y1.765
X2.295Y1.63
X2.345Y0.255
X2.355Y1.315
X2.365Y1.89
X2.445Y2.1
X2.445Y2.01
X2.445Y1.89
X2.445Y1.79
X2.445Y1.69
X2.445Y1.59
X2.445Y1.49
X2.445Y1.39
X2.445Y1.29
X2.445Y1.19
X2.445Y1.09
X2.445Y0.99
X2.445Y0.89
X2.445Y0.79
X2.445Y0.69
X2.445Y0.59
X2.445Y0.49
X2.445Y0.39
X2.445Y0.31
X2.445Y0.24
T3
X0.945Y1.325
X0.945Y0.39
X0.945Y0.31
X0.95Y1.295
X0.955Y1.36
X0.97Y1.425
X1.0Y1.355
X1.005Y1.295
X1.01Y1.655
X1.01Y1.6
X1.03Y1.48
X1.03Y1.425
X1.05Y1.21
X1.07Y1.65
X1.07Y1.185
X1.075Y1.255
X1.135Y0.815
X1.2Y1.315
X1.235Y0.815
X1.245Y1.16
X1.255Y1.49
X1.255Y1.44
X1.26Y1.64
X1.285Y1.67
X1.295Y1.21
X1.295Y1.16
X1.31Y1.44
X1.3272Y0.82
X1.35Y1.665
X1.4Y1.71
X1.4Y1.65
X1.415Y1.535
X1.43Y1.595
X1.43Y0.87
X1.434Y1.375
X1.45Y1.765
X1.48Y1.535
X1.525Y1.54
X1.525Y1.175
X1.525Y1.135
X1.56Y1.714
X1.589Y1.612
X1.5933Y1.54
X1.607Y1.716
X1.615Y1.565
X1.6503Y1.042
X1.679Y1.038
X1.71Y1.17
X1.755Y1.11
X1.795Y1.11
X1.81Y0.7
X1.81Y0.625
X1.82Y1.41
X1.82Y1.22
X1.845Y1.785
X1.845Y1.715
X1.86Y1.585
X1.86Y1.42
X1.895Y1.835
X1.895Y1.59
X1.9Y1.665
X1.935Y0.78
X1.953Y1.08
X1.965Y1.2724
X1.975Y1.535
X1.975Y1.465
X1.976Y0.41
X2.003Y1.837
X2.025Y1.425
X2.025Y0.78
X2.055Y1.037
X2.105Y1.455
X2.105Y1.42
X2.114Y1.827
X2.119Y0.729
X2.122Y0.988
X2.19Y1.605
X2.255Y1.54
X2.318Y1.828
X2.318Y0.988
X2.321Y0.727
X2.36Y0.66
X2.36Y0.59
X2.43Y1.837
T4
X0.15Y2.075
X0.15Y1.975
X0.15Y0.175
X0.15Y0.075
X0.25Y2.075
X0.25Y1.975
X0.25Y0.175
X0.25Y0.075
X0.35Y2.075
X0.35Y1.975
X0.35Y0.175
X0.35Y0.075
X0.45Y2.075
X0.45Y1.975
X0.45Y0.175
X0.45Y0.075
X0.55Y2.075
X0.55Y1.975
X0.55Y0.175
X0.55Y0.075
X0.65Y2.075
X0.65Y1.975
X0.65Y0.175
X0.65Y0.075
X0.75Y2.075
X0.75Y1.975
X0.75Y0.175
X0.75Y0.075
X0.85Y2.075
X0.85Y1.975
X0.85Y0.175
X0.85Y0.075
X0.95Y2.075
X0.95Y1.975
X0.95Y0.175
X0.95Y0.075
X1.05Y2.075
X1.05Y1.975
X1.05Y0.175
X1.05Y0.075
X1.15Y2.075
X1.15Y1.975
X1.15Y0.175
X1.15Y0.075
X1.25Y2.075
X1.25Y1.975
X1.25Y0.175
X1.25Y0.075
X1.35Y2.075
X1.35Y1.975
X1.35Y0.175
X1.35Y0.075
X1.45Y2.075
X1.45Y1.975
X1.45Y0.175
X1.45Y0.075
X1.55Y2.075
X1.55Y1.975
X1.55Y0.175
X1.55Y0.075
X1.65Y2.075
X1.65Y1.975
X1.65Y0.175
X1.65Y0.075
X1.75Y2.075
X1.75Y1.975
X1.75Y0.175
X1.75Y0.075
X1.85Y2.075
X1.85Y1.975
X1.85Y0.175
X1.85Y0.075
X1.95Y2.075
X1.95Y1.975
X1.95Y0.175
X1.95Y0.075
X2.05Y2.075
X2.05Y1.975
X2.05Y0.175
X2.05Y0.075
X2.15Y2.075
X2.15Y1.975
X2.15Y0.175
X2.15Y0.075
X2.25Y2.075
X2.25Y1.975
X2.25Y0.175
X2.25Y0.075
X2.35Y2.075
X2.35Y1.975
X2.35Y0.175
X2.35Y0.075
T5
X0.665Y0.89
T6
X0.565Y0.99
X0.565Y0.79
X0.765Y0.99
X0.765Y0.79
T0
M30
